<?xml version="1.0" encoding="utf-8"?>
<!-- Generator: Adobe Illustrator 21.0.0, SVG Export Plug-In . SVG Version: 6.00 Build 0)  -->
<svg version="1.1" id="Layer_1" xmlns="http://www.w3.org/2000/svg" xmlns:xlink="http://www.w3.org/1999/xlink" x="0px" y="0px"
	 viewBox="0 0 1920 1080" style="enable-background:new 0 0 1920 1080;" xml:space="preserve">
<style type="text/css">
	.st0{fill:#DBD5B9;}
	.st1{fill:#C3C3C3;}
	.st2{fill:#E6E6E6;}
	.st3{fill:#ACACAC;}
	.st4{fill:#8D581E;}
	.st5{fill:none;stroke:#8D581E;stroke-width:4;stroke-miterlimit:10;}
	.st6{fill:#B3B3B3;}
	.st7{fill:#931111;}
	.st8{fill:#FFFFFF;}
</style>
<rect class="st0" width="1920" height="1080"/>
<image style="overflow:visible;" width="1202" height="1171" xlink:href="biglogo1.png"  transform="matrix(0.1764 0 0 0.1764 1429.5088 64.4761)">
</image>
<g>
	<path d="M1626.9,311H750.8c-23.2,0-42,18.8-42,42v590.4h960.2V353C1668.9,329.8,1650.1,311,1626.9,311z"/>
	<path class="st1" d="M612.1,943.4c0,22.6,18.8,41,42,41H1722c23.2,0,42-18.4,42-41H612.1z"/>
	<rect x="749.7" y="354.5" class="st2" width="878.2" height="550.5"/>
	<path class="st3" d="M1085.5,943.4c0,9.9,7.7,17.9,17.1,17.9h170.8c9.4,0,17.1-8,17.1-17.9H1085.5z"/>
</g>
<g>
	<path class="st4" d="M55.8,293c0.2,0,0.3,0.2,0.3,0.3l4.3,22.6c0,0.2-0.1,0.3-0.3,0.3h-3c-0.1,0-0.3-0.1-0.3-0.3l-0.7-4.1h-3.5
		l-0.7,4.1c0,0.2-0.1,0.3-0.3,0.3h-3c-0.2,0-0.3-0.1-0.3-0.3l4.4-22.6c0-0.1,0.1-0.3,0.3-0.3H55.8z M53.2,308.5h2.4l-1.2-6.9
		L53.2,308.5z"/>
	<path class="st4" d="M61.8,316.1c-0.2,0-0.3-0.2-0.3-0.3v-22.6c0-0.2,0.1-0.3,0.3-0.3h3c0.2,0,0.3,0.1,0.3,0.3v22.6
		c0,0.2-0.1,0.3-0.3,0.3H61.8z"/>
	<path class="st4" d="M72.2,312.9c1.4,0,1.5-1.1,1.5-2v-2.2c0-1.3-0.6-2.5-2.3-2.9c-3.1-0.7-4.2-3.3-4.2-5.8v-2.2
		c0-2.8,1.7-5.1,5-5.1c3.5,0,5,2.1,5,5.1v1.3c0,0.2-0.1,0.2-0.3,0.2h-3c-0.1,0-0.3-0.1-0.3-0.2v-1c0-0.9-0.3-2-1.5-2
		c-1.4,0-1.5,1.4-1.5,2v1.8c0,1.4,0.6,2.5,2.3,2.9c3.1,0.8,4.2,3.4,4.2,5.8v2.6c0,2.8-1.6,5.1-5,5.1s-5-2.3-5-5.1v-1.6
		c0-0.2,0.1-0.2,0.3-0.2h3c0.1,0,0.3,0.1,0.3,0.2v1.3C70.7,311.8,70.9,312.9,72.2,312.9z"/>
	<path class="st4" d="M86.2,316.1c-0.2,0-0.3-0.2-0.3-0.3V306h-3.1v9.8c0,0.2-0.1,0.3-0.3,0.3h-3c-0.2,0-0.3-0.2-0.3-0.3v-22.6
		c0-0.2,0.1-0.3,0.3-0.3h3c0.2,0,0.3,0.1,0.3,0.3v9.4h3.1v-9.4c0-0.2,0.1-0.3,0.3-0.3h3c0.2,0,0.3,0.1,0.3,0.3v22.6
		c0,0.2-0.1,0.3-0.3,0.3H86.2z"/>
	<path class="st4" d="M97.9,293c0.2,0,0.3,0.2,0.3,0.3l4.3,22.6c0,0.2-0.1,0.3-0.3,0.3h-3c-0.1,0-0.3-0.1-0.3-0.3l-0.7-4.1h-3.5
		l-0.7,4.1c0,0.2-0.1,0.3-0.3,0.3h-3c-0.2,0-0.3-0.1-0.3-0.3l4.4-22.6c0-0.1,0.1-0.3,0.3-0.3H97.9z M95.3,308.5h2.4l-1.2-6.9
		L95.3,308.5z"/>
	<path class="st4" d="M100.9,296.5c-0.2,0-0.3-0.1-0.2-0.3l1.9-6.4c0.1-0.2,0.2-0.3,0.3-0.3h2.7c0.2,0,0.3,0.1,0.2,0.3l-1.9,6.4
		c-0.1,0.2-0.2,0.3-0.4,0.3H100.9z"/>
	<path class="st4" d="M111,312.9c1.4,0,1.5-1.1,1.5-2v-2.2c0-1.3-0.6-2.5-2.3-2.9c-3.1-0.7-4.2-3.3-4.2-5.8v-2.2
		c0-2.8,1.7-5.1,5-5.1c3.5,0,5,2.1,5,5.1v1.3c0,0.2-0.1,0.2-0.3,0.2h-3c-0.1,0-0.3-0.1-0.3-0.2v-1c0-0.9-0.3-2-1.5-2
		c-1.4,0-1.5,1.4-1.5,2v1.8c0,1.4,0.6,2.5,2.3,2.9c3.1,0.8,4.2,3.4,4.2,5.8v2.6c0,2.8-1.6,5.1-5,5.1s-5-2.3-5-5.1v-1.6
		c0-0.2,0.1-0.2,0.3-0.2h3c0.1,0,0.3,0.1,0.3,0.2v1.3C109.5,311.8,109.7,312.9,111,312.9z"/>
	<path class="st4" d="M130.8,316.1c-0.2,0-0.3-0.2-0.3-0.3l-3.3-9v9c0,0.2-0.1,0.3-0.3,0.3h-3c-0.2,0-0.3-0.2-0.3-0.3v-22.6
		c0-0.2,0.1-0.3,0.3-0.3h3c0.2,0,0.3,0.1,0.3,0.3v9l3.3-9c0.1-0.1,0.1-0.3,0.3-0.3h3.2c0.2,0,0.3,0.2,0.2,0.3l-4,11
		c-0.1,0.2-0.1,0.3,0,0.5l4,11c0.1,0.2,0,0.3-0.2,0.3H130.8z"/>
	<path class="st4" d="M136.1,316.1c-0.2,0-0.3-0.2-0.3-0.3v-22.6c0-0.2,0.1-0.3,0.3-0.3h3c0.2,0,0.3,0.1,0.3,0.3v22.6
		c0,0.2-0.1,0.3-0.3,0.3H136.1z"/>
	<path class="st4" d="M147.5,296.3v19.5c0,0.2-0.1,0.3-0.2,0.3h-3c-0.2,0-0.3-0.2-0.3-0.3v-19.5h-3c-0.2,0-0.3-0.1-0.3-0.2v-2.8
		c0-0.2,0.1-0.3,0.3-0.3h9.5c0.1,0,0.3,0.1,0.3,0.3v2.8c0,0.2-0.1,0.2-0.3,0.2H147.5z"/>
	<path class="st4" d="M155,311c0,0.6,0.2,2,1.5,2c1.2,0,1.5-1.1,1.5-2v-1.3c0-0.2,0.1-0.2,0.3-0.2h3c0.2,0,0.3,0.1,0.3,0.2v1.6
		c0,3-1.7,5.1-5,5.1c-3.3,0-5-2.3-5-5.1v-13.4c0-2.8,1.7-5.1,5-5.1c3.5,0,5,2.1,5,5.1v1.3c0,0.2-0.1,0.2-0.3,0.2h-3
		c-0.1,0-0.3-0.1-0.3-0.2v-1c0-0.9-0.3-2-1.5-2c-1.4,0-1.5,1.4-1.5,2V311z"/>
	<path class="st4" d="M170.2,316.1c-0.2,0-0.3-0.2-0.3-0.3V306h-3.1v9.8c0,0.2-0.1,0.3-0.3,0.3h-3c-0.2,0-0.3-0.2-0.3-0.3v-22.6
		c0-0.2,0.1-0.3,0.3-0.3h3c0.2,0,0.3,0.1,0.3,0.3v9.4h3.1v-9.4c0-0.2,0.1-0.3,0.3-0.3h3c0.2,0,0.3,0.1,0.3,0.3v22.6
		c0,0.2-0.1,0.3-0.3,0.3H170.2z"/>
	<path class="st4" d="M176.6,316.1c-0.2,0-0.3-0.2-0.3-0.3v-22.6c0-0.2,0.1-0.3,0.3-0.3h9.5c0.1,0,0.3,0.1,0.3,0.3v2.8
		c0,0.2-0.1,0.2-0.3,0.2h-6.3v6.4h4.8c0.1,0,0.3,0.1,0.3,0.3v2.8c0,0.2-0.1,0.3-0.3,0.3h-4.8v6.8h6.3c0.1,0,0.3,0.1,0.3,0.2v2.8
		c0,0.2-0.1,0.3-0.3,0.3H176.6z"/>
	<path class="st4" d="M195.3,316.1c-0.2,0-0.3-0.2-0.3-0.3l-3.1-10.8v10.8c0,0.2-0.1,0.3-0.3,0.3h-2.9c-0.2,0-0.3-0.2-0.3-0.3v-22.6
		c0-0.2,0.1-0.3,0.3-0.3h3c0.2,0,0.3,0.1,0.3,0.3l3.1,10.8v-10.8c0-0.2,0.1-0.3,0.3-0.3h2.9c0.1,0,0.3,0.1,0.3,0.3v22.6
		c0,0.2-0.1,0.3-0.3,0.3H195.3z"/>
	<path class="st4" d="M218.3,316.1c-0.2,0-0.2-0.2-0.3-0.3l-2.6-14.3l-2.6,14.3c0,0.1-0.1,0.3-0.2,0.3h-2.8c-0.2,0-0.3-0.2-0.3-0.3
		l-4.3-22.6c0-0.2,0.1-0.3,0.3-0.3h3c0.2,0,0.2,0.1,0.3,0.3l2.5,14l2.4-14c0-0.2,0.2-0.3,0.3-0.3h2.9c0.2,0,0.3,0.1,0.4,0.3l2.4,14
		l2.5-14c0-0.2,0.1-0.3,0.2-0.3h3c0.1,0,0.3,0.1,0.3,0.3l-4.3,22.6c0,0.1-0.1,0.3-0.3,0.3H218.3z"/>
	<path class="st4" d="M227.1,316.1c-0.2,0-0.3-0.2-0.3-0.3v-22.6c0-0.2,0.1-0.3,0.3-0.3h9.5c0.1,0,0.3,0.1,0.3,0.3v2.8
		c0,0.2-0.1,0.2-0.3,0.2h-6.3v6.4h4.8c0.1,0,0.3,0.1,0.3,0.3v2.8c0,0.2-0.1,0.3-0.3,0.3h-4.8v6.8h6.3c0.1,0,0.3,0.1,0.3,0.2v2.8
		c0,0.2-0.1,0.3-0.3,0.3H227.1z"/>
	<path class="st4" d="M249,298.5v2.2c0,1.6-0.5,3-1.6,3.6c1.2,0.7,1.6,2,1.6,3.7v2.8c0,2.8-1.4,5.3-5.4,5.3h-4h0h-0.4
		c-0.2,0-0.3-0.2-0.3-0.3v-22.6c0-0.2,0.1-0.3,0.3-0.3h0.4h0.1h3.9C247.5,293,249,295,249,298.5z M242.4,296.3v6.4h1.2
		c1.8,0,1.9-1.3,1.9-2.1v-2c0-1.1-0.2-2.3-1.9-2.3H242.4z M242.4,306v6.8h1.2c1.8,0,1.9-1.3,1.9-2.2v-2.4c0-1.1-0.5-2.2-1.9-2.2
		H242.4z"/>
	<path class="st4" d="M255.7,312.9c1.4,0,1.5-1.1,1.5-2v-2.2c0-1.3-0.6-2.5-2.3-2.9c-3.1-0.7-4.2-3.3-4.2-5.8v-2.2
		c0-2.8,1.7-5.1,5-5.1c3.5,0,5,2.1,5,5.1v1.3c0,0.2-0.1,0.2-0.3,0.2h-3c-0.1,0-0.3-0.1-0.3-0.2v-1c0-0.9-0.3-2-1.5-2
		c-1.4,0-1.5,1.4-1.5,2v1.8c0,1.4,0.6,2.5,2.3,2.9c3.1,0.8,4.2,3.4,4.2,5.8v2.6c0,2.8-1.6,5.1-5,5.1s-5-2.3-5-5.1v-1.6
		c0-0.2,0.1-0.2,0.3-0.2h3c0.1,0,0.3,0.1,0.3,0.2v1.3C254.1,311.8,254.4,312.9,255.7,312.9z"/>
	<path class="st4" d="M263.1,316.1c-0.2,0-0.3-0.2-0.3-0.3v-22.6c0-0.2,0.1-0.3,0.3-0.3h3c0.2,0,0.3,0.1,0.3,0.3v22.6
		c0,0.2-0.1,0.3-0.3,0.3H263.1z"/>
	<path class="st4" d="M274.6,296.3v19.5c0,0.2-0.1,0.3-0.2,0.3h-3c-0.2,0-0.3-0.2-0.3-0.3v-19.5h-3c-0.2,0-0.3-0.1-0.3-0.2v-2.8
		c0-0.2,0.1-0.3,0.3-0.3h9.5c0.1,0,0.3,0.1,0.3,0.3v2.8c0,0.2-0.1,0.2-0.3,0.2H274.6z"/>
	<path class="st4" d="M279.6,316.1c-0.2,0-0.3-0.2-0.3-0.3v-22.6c0-0.2,0.1-0.3,0.3-0.3h9.5c0.1,0,0.3,0.1,0.3,0.3v2.8
		c0,0.2-0.1,0.2-0.3,0.2h-6.3v6.4h4.8c0.1,0,0.3,0.1,0.3,0.3v2.8c0,0.2-0.1,0.3-0.3,0.3h-4.8v6.8h6.3c0.1,0,0.3,0.1,0.3,0.2v2.8
		c0,0.2-0.1,0.3-0.3,0.3H279.6z"/>
	<path class="st4" d="M297.3,316.1c-0.2,0-0.3-0.2-0.3-0.3v-22.6c0-0.2,0.1-0.3,0.3-0.3h3c0.2,0,0.3,0.1,0.3,0.3v22.6
		c0,0.2-0.1,0.3-0.3,0.3H297.3z"/>
	<path class="st4" d="M310.3,316.1c-0.2,0-0.3-0.2-0.3-0.3l-3.1-10.8v10.8c0,0.2-0.1,0.3-0.3,0.3h-2.9c-0.2,0-0.3-0.2-0.3-0.3v-22.6
		c0-0.2,0.1-0.3,0.3-0.3h3c0.2,0,0.3,0.1,0.3,0.3l3.1,10.8v-10.8c0-0.2,0.1-0.3,0.3-0.3h2.9c0.1,0,0.3,0.1,0.3,0.3v22.6
		c0,0.2-0.1,0.3-0.3,0.3H310.3z"/>
	<path class="st4" d="M316.8,316.1c-0.2,0-0.3-0.2-0.3-0.3v-22.6c0-0.2,0.1-0.3,0.3-0.3h3c0.2,0,0.3,0.1,0.3,0.3v22.6
		c0,0.2-0.1,0.3-0.3,0.3H316.8z"/>
	<path class="st4" d="M328.2,296.3v19.5c0,0.2-0.1,0.3-0.2,0.3h-3c-0.2,0-0.3-0.2-0.3-0.3v-19.5h-3c-0.2,0-0.3-0.1-0.3-0.2v-2.8
		c0-0.2,0.1-0.3,0.3-0.3h9.5c0.1,0,0.3,0.1,0.3,0.3v2.8c0,0.2-0.1,0.2-0.3,0.2H328.2z"/>
	<path class="st4" d="M333.3,316.1c-0.2,0-0.3-0.2-0.3-0.3v-22.6c0-0.2,0.1-0.3,0.3-0.3h3c0.2,0,0.3,0.1,0.3,0.3v22.6
		c0,0.2-0.1,0.3-0.3,0.3H333.3z"/>
	<path class="st4" d="M345.1,293c0.2,0,0.3,0.2,0.3,0.3l4.3,22.6c0,0.2-0.1,0.3-0.3,0.3h-3c-0.1,0-0.3-0.1-0.3-0.3l-0.7-4.1h-3.5
		l-0.7,4.1c0,0.2-0.1,0.3-0.3,0.3h-3c-0.2,0-0.3-0.1-0.3-0.3l4.4-22.6c0-0.1,0.1-0.3,0.3-0.3H345.1z M342.5,308.5h2.4l-1.2-6.9
		L342.5,308.5z"/>
	<path class="st4" d="M351,316.1c-0.2,0-0.3-0.2-0.3-0.3v-22.6c0-0.2,0.1-0.3,0.3-0.3h3c0.2,0,0.3,0.1,0.3,0.3v19.5h6.3
		c0.2,0,0.3,0.1,0.3,0.3v2.8c0,0.2-0.1,0.3-0.3,0.3H351z"/>
	<path class="st4" d="M372.4,316.1H368c-0.2,0-0.3-0.2-0.3-0.3v-22.6c0-0.2,0.1-0.3,0.3-0.3h4.4c3.9,0,5.4,2,5.4,5.5v12.3
		C377.8,313.6,376.4,316.1,372.4,316.1z M371.2,296.3v16.5h1.2c1.8,0,1.9-1.3,1.9-2.2v-12c0-1.1-0.2-2.3-1.9-2.3H371.2z"/>
	<path class="st4" d="M380.6,316.1c-0.2,0-0.3-0.2-0.3-0.3v-22.6c0-0.2,0.1-0.3,0.3-0.3h9.5c0.1,0,0.3,0.1,0.3,0.3v2.8
		c0,0.2-0.1,0.2-0.3,0.2h-6.3v6.4h4.8c0.1,0,0.3,0.1,0.3,0.3v2.8c0,0.2-0.1,0.3-0.3,0.3h-4.8v6.8h6.3c0.1,0,0.3,0.1,0.3,0.2v2.8
		c0,0.2-0.1,0.3-0.3,0.3H380.6z"/>
	<path class="st4" d="M396.2,312.9c1.4,0,1.5-1.1,1.5-2v-2.2c0-1.3-0.6-2.5-2.3-2.9c-3.1-0.7-4.2-3.3-4.2-5.8v-2.2
		c0-2.8,1.7-5.1,5-5.1c3.5,0,5,2.1,5,5.1v1.3c0,0.2-0.1,0.2-0.3,0.2h-3c-0.1,0-0.3-0.1-0.3-0.2v-1c0-0.9-0.3-2-1.5-2
		c-1.4,0-1.5,1.4-1.5,2v1.8c0,1.4,0.6,2.5,2.3,2.9c3.1,0.8,4.2,3.4,4.2,5.8v2.6c0,2.8-1.6,5.1-5,5.1s-5-2.3-5-5.1v-1.6
		c0-0.2,0.1-0.2,0.3-0.2h3c0.1,0,0.3,0.1,0.3,0.2v1.3C394.7,311.8,394.9,312.9,396.2,312.9z"/>
	<path class="st4" d="M403.6,316.1c-0.2,0-0.3-0.2-0.3-0.3v-22.6c0-0.2,0.1-0.3,0.3-0.3h3c0.2,0,0.3,0.1,0.3,0.3v22.6
		c0,0.2-0.1,0.3-0.3,0.3H403.6z"/>
	<path class="st4" d="M414.3,312.9c1.4,0,1.5-1.1,1.5-2V306h-1.2c-0.2,0-0.3-0.1-0.3-0.3V303c0-0.2,0.1-0.3,0.3-0.3h4.4
		c0.2,0,0.3,0.1,0.3,0.3v8.3c0,2.8-1.6,5.1-5,5.1s-5-2.3-5-5.1v-13.4c0-2.8,1.7-5.1,5-5.1c3.5,0,5,2.1,5,5.1v1.3
		c0,0.2-0.1,0.2-0.3,0.2h-3c-0.1,0-0.3-0.1-0.3-0.2v-1c0-0.9-0.3-2-1.5-2c-1.4,0-1.5,1.4-1.5,2V311
		C412.8,311.8,413.1,312.9,414.3,312.9z"/>
	<path class="st4" d="M428.6,316.1c-0.2,0-0.3-0.2-0.3-0.3l-3.1-10.8v10.8c0,0.2-0.1,0.3-0.3,0.3H422c-0.2,0-0.3-0.2-0.3-0.3v-22.6
		c0-0.2,0.1-0.3,0.3-0.3h3c0.2,0,0.3,0.1,0.3,0.3l3.1,10.8v-10.8c0-0.2,0.1-0.3,0.3-0.3h2.9c0.1,0,0.3,0.1,0.3,0.3v22.6
		c0,0.2-0.1,0.3-0.3,0.3H428.6z"/>
</g>
<g>
	<path class="st4" d="M68.4,272.2c-0.3,0-0.4-0.3-0.4-0.4l-4.4-24.2l-4.4,24.2c-0.1,0.2-0.1,0.4-0.4,0.4h-4.7
		c-0.3,0-0.4-0.3-0.4-0.4l-7.3-38.3c-0.1-0.3,0.2-0.4,0.4-0.4h5c0.3,0,0.4,0.2,0.4,0.4l4.2,23.7l4.1-23.7c0.1-0.4,0.3-0.4,0.6-0.4
		H66c0.3,0,0.5,0.1,0.6,0.4l4.1,23.7l4.2-23.7c0.1-0.3,0.2-0.4,0.4-0.4h5.1c0.2,0,0.5,0.2,0.4,0.4l-7.3,38.3c0,0.2-0.2,0.4-0.4,0.4
		H68.4z"/>
	<path class="st4" d="M83.3,272.2c-0.3,0-0.4-0.3-0.4-0.4v-38.3c0-0.3,0.2-0.4,0.4-0.4h16.2c0.2,0,0.4,0.2,0.4,0.4v4.8
		c0,0.3-0.2,0.4-0.4,0.4H88.8v10.9H97c0.2,0,0.4,0.2,0.4,0.4v4.7c0,0.3-0.2,0.4-0.4,0.4h-8.1v11.5h10.7c0.2,0,0.4,0.2,0.4,0.4v4.8
		c0,0.3-0.2,0.4-0.4,0.4H83.3z"/>
	<path class="st4" d="M120.4,242.3v3.8c0,2.7-0.9,5.1-2.7,6.1c2.1,1.2,2.7,3.4,2.7,6.3v4.7c0,4.7-2.4,9-9.2,9h-6.7h-0.1h-0.7
		c-0.3,0-0.4-0.3-0.4-0.4v-38.3c0-0.3,0.2-0.4,0.4-0.4h0.6h0.1h6.7C117.8,233,120.4,236.5,120.4,242.3z M109.3,238.6v10.9h2
		c3,0,3.2-2.1,3.2-3.6v-3.4c0-1.8-0.4-3.9-3.3-3.9H109.3z M109.3,255.1v11.5h2c3,0,3.2-2.2,3.2-3.7v-4c0-1.8-0.8-3.8-3.2-3.8H109.3z
		"/>
	<path class="st4" d="M142,272.2h-7.4c-0.3,0-0.4-0.3-0.4-0.4v-38.3c0-0.3,0.2-0.4,0.4-0.4h7.4c6.7,0,9.2,3.5,9.2,9.3v20.9
		C151.2,267.9,148.8,272.2,142,272.2z M140.1,238.6v28h2c3,0,3.2-2.2,3.2-3.7v-20.4c0-1.8-0.4-3.9-3.3-3.9H140.1z"/>
	<path class="st4" d="M155.9,272.2c-0.3,0-0.4-0.3-0.4-0.4v-38.3c0-0.3,0.2-0.4,0.4-0.4H172c0.2,0,0.4,0.2,0.4,0.4v4.8
		c0,0.3-0.2,0.4-0.4,0.4h-10.7v10.9h8.1c0.2,0,0.4,0.2,0.4,0.4v4.7c0,0.3-0.2,0.4-0.4,0.4h-8.1v11.5H172c0.2,0,0.4,0.2,0.4,0.4v4.8
		c0,0.3-0.2,0.4-0.4,0.4H155.9z"/>
	<path class="st4" d="M182.4,266.8c2.3,0,2.6-1.9,2.6-3.4v-3.8c0-2.2-1.1-4.2-4-4.9c-5.2-1.2-7.1-5.7-7.1-9.8v-3.8
		c0-4.7,2.9-8.7,8.5-8.7c6,0,8.5,3.6,8.5,8.7v2.1c0,0.3-0.2,0.4-0.4,0.4h-5c-0.2,0-0.4-0.1-0.4-0.4v-1.6c0-1.5-0.6-3.4-2.6-3.4
		c-2.3,0-2.6,2.3-2.6,3.4v3c0,2.3,1.1,4.3,4,4.9c5.2,1.3,7.1,5.7,7.1,9.9v4.4c0,4.7-2.7,8.7-8.5,8.7c-5.8,0-8.5-4-8.5-8.7v-2.6
		c0-0.3,0.2-0.4,0.4-0.4h5c0.2,0,0.4,0.1,0.4,0.4v2.1C179.8,264.9,180.3,266.8,182.4,266.8z"/>
	<path class="st4" d="M195,272.2c-0.3,0-0.4-0.3-0.4-0.4v-38.3c0-0.3,0.2-0.4,0.4-0.4h5c0.3,0,0.4,0.2,0.4,0.4v38.3
		c0,0.3-0.2,0.4-0.4,0.4H195z"/>
	<path class="st4" d="M213.2,266.8c2.3,0,2.6-1.9,2.6-3.4v-8.3h-2c-0.3,0-0.4-0.2-0.4-0.4V250c0-0.3,0.2-0.4,0.4-0.4h7.5
		c0.3,0,0.4,0.2,0.4,0.4v14c0,4.7-2.7,8.7-8.5,8.7c-5.8,0-8.5-4-8.5-8.7v-22.7c0-4.7,2.9-8.7,8.5-8.7c6,0,8.5,3.6,8.5,8.7v2.1
		c0,0.3-0.2,0.4-0.4,0.4h-5c-0.2,0-0.4-0.1-0.4-0.4v-1.6c0-1.5-0.6-3.4-2.6-3.4c-2.3,0-2.6,2.3-2.6,3.4v21.7
		C210.6,264.9,211.1,266.8,213.2,266.8z"/>
	<path class="st4" d="M237.4,272.2c-0.3,0-0.4-0.3-0.4-0.4l-5.3-18.4v18.4c0,0.3-0.2,0.4-0.4,0.4h-4.9c-0.3,0-0.4-0.3-0.4-0.4v-38.3
		c0-0.3,0.2-0.4,0.4-0.4h5c0.3,0,0.4,0.2,0.4,0.4l5.3,18.4v-18.4c0-0.3,0.2-0.4,0.4-0.4h4.9c0.2,0,0.4,0.2,0.4,0.4v38.3
		c0,0.3-0.2,0.4-0.4,0.4H237.4z"/>
</g>
<g>
	<path class="st4" d="M53,372.5h-3.6c-0.2,0-0.2-0.1-0.2-0.3v-0.3c0-0.2,0.1-0.2,0.2-0.2h8.2c0.2,0,0.2,0.1,0.2,0.2v0.3
		c0,0.1-0.1,0.2-0.2,0.2h-3.6v12.2c0,0.1-0.1,0.2-0.3,0.2h-0.3c-0.1,0-0.2-0.1-0.2-0.2V372.5z"/>
	<path class="st4" d="M59.3,371.9c0-0.1,0.1-0.2,0.3-0.2h0.3c0.1,0,0.2,0.1,0.2,0.2v6.5c0.2-0.2,1.3-1.2,2.8-1.2
		c2,0,3.1,1.2,3.1,3.5v4.1c0,0.1-0.1,0.2-0.2,0.2h-0.3c-0.1,0-0.2-0.1-0.2-0.2v-4.1c0-1.7-0.8-2.7-2.3-2.7c-1.6,0-2.6,1.2-2.7,1.3
		v5.4c0,0.2-0.1,0.2-0.2,0.2h-0.4c-0.1,0-0.2-0.1-0.2-0.2V371.9z"/>
	<path class="st4" d="M68.4,373.1c0-0.4,0.3-0.7,0.6-0.7c0.4,0,0.6,0.3,0.6,0.7c0,0.3-0.3,0.6-0.6,0.6
		C68.7,373.7,68.4,373.4,68.4,373.1z M68.7,377.6c0-0.1,0.1-0.2,0.2-0.2h0.3c0.1,0,0.2,0.1,0.2,0.2v7.1c0,0.2-0.1,0.2-0.2,0.2h-0.4
		c-0.1,0-0.2-0.1-0.2-0.2V377.6z"/>
	<path class="st4" d="M72,384.1l0.2-0.3c0.1-0.1,0.2-0.1,0.3,0c0.2,0.2,1,0.7,2,0.7c1.1,0,1.8-0.6,1.8-1.3c0-0.9-0.9-1.2-2.1-1.7
		c-1.3-0.5-2.3-1.1-2.3-2.2c0-0.8,0.7-2,2.5-2c1,0,1.8,0.4,2.1,0.6c0.1,0.1,0.2,0.2,0.1,0.4l-0.1,0.2c-0.1,0.1-0.2,0.2-0.4,0.1
		c-0.2-0.1-0.9-0.5-1.7-0.5c-1.2,0-1.6,0.7-1.6,1.2c0,0.8,0.7,1.1,1.8,1.5c1.4,0.5,2.7,1,2.7,2.4c0,1.1-1.2,2.1-2.7,2.1
		c-1.3,0-2.1-0.5-2.5-0.9C72,384.3,71.9,384.2,72,384.1z"/>
	<path class="st4" d="M82.7,377.7c-0.1-0.2-0.1-0.3,0.1-0.3h0.4c0.1,0,0.2,0,0.2,0.2l1.8,6h0l2.3-6.2c0-0.1,0.1-0.2,0.2-0.2h0.1
		c0.1,0,0.2,0.1,0.2,0.2l2.3,6.2h0l1.8-6c0-0.1,0.2-0.2,0.2-0.2h0.4c0.2,0,0.2,0.1,0.1,0.3l-2.3,7.3c0,0.1-0.1,0.2-0.2,0.2h-0.1
		c-0.1,0-0.2-0.1-0.2-0.2l-2.3-6.4h0l-2.3,6.4c0,0.1-0.1,0.2-0.2,0.2h-0.1c-0.1,0-0.2,0-0.2-0.2L82.7,377.7z"/>
	<path class="st4" d="M97.6,380.1c0.9,0,1.7,0.3,1.9,0.3c0-1.7-0.2-2.5-1.7-2.5c-1.3,0-2.1,0.5-2.3,0.5c-0.2,0.1-0.2,0-0.3-0.2
		l-0.1-0.2c-0.1-0.2,0-0.2,0.1-0.3c0.1,0,1-0.6,2.6-0.6c2.3,0,2.4,1.4,2.4,3.3v4.2c0,0.1-0.1,0.2-0.2,0.2h-0.2
		c-0.1,0-0.2-0.1-0.2-0.2l-0.1-0.7c-0.5,0.5-1.4,1.1-2.6,1.1c-1.4,0-2.5-1-2.5-2.5C94.4,381.2,95.6,380.1,97.6,380.1z M97,384.4
		c1.2,0,2.2-0.7,2.5-1.2v-2.1c-0.2-0.1-1-0.4-1.9-0.4c-1.4,0-2.4,0.7-2.4,1.9C95.2,383.7,96,384.4,97,384.4z"/>
	<path class="st4" d="M102.7,384.1l0.2-0.3c0.1-0.1,0.2-0.1,0.3,0c0.2,0.2,1,0.7,2,0.7c1.1,0,1.8-0.6,1.8-1.3c0-0.9-0.9-1.2-2.1-1.7
		c-1.3-0.5-2.3-1.1-2.3-2.2c0-0.8,0.7-2,2.5-2c1,0,1.8,0.4,2.1,0.6c0.1,0.1,0.2,0.2,0.1,0.4l-0.1,0.2c-0.1,0.1-0.2,0.2-0.4,0.1
		c-0.2-0.1-0.9-0.5-1.7-0.5c-1.2,0-1.6,0.7-1.6,1.2c0,0.8,0.7,1.1,1.8,1.5c1.4,0.5,2.7,1,2.7,2.4c0,1.1-1.2,2.1-2.7,2.1
		c-1.3,0-2.1-0.5-2.5-0.9C102.7,384.3,102.7,384.2,102.7,384.1z"/>
	<path class="st4" d="M114.3,377.6c0-0.1,0.1-0.2,0.2-0.2h0.2c0.1,0,0.2,0.1,0.2,0.2l0.1,0.8c0.2-0.3,1.1-1.2,2.6-1.2
		c1.2,0,2,0.5,2.5,1.4c0.2-0.3,1.3-1.4,2.8-1.4c2.1,0,3,1.3,3,3.5v4.1c0,0.1-0.1,0.2-0.2,0.2h-0.4c-0.1,0-0.2-0.1-0.2-0.2v-4.1
		c0-1.7-0.8-2.7-2.2-2.7s-2.3,1-2.5,1.3c0.1,0.4,0.2,0.9,0.2,1.4v4.1c0,0.1-0.1,0.2-0.2,0.2h-0.4c-0.1,0-0.2-0.1-0.2-0.2v-4.1
		c0-1.7-0.8-2.7-2.2-2.7c-1.5,0-2.4,1.2-2.5,1.3v5.4c0,0.2-0.1,0.2-0.2,0.2h-0.4c-0.1,0-0.2-0.1-0.2-0.2V377.6z"/>
	<path class="st4" d="M127.7,377.7c-0.1-0.2-0.1-0.3,0.1-0.3h0.4c0.1,0,0.2,0.1,0.2,0.2l3.2,6.4h0l3-6.4c0.1-0.1,0.2-0.2,0.2-0.2
		h0.4c0.2,0,0.2,0.2,0.1,0.3l-6,12.8c0,0.1-0.2,0.2-0.2,0.2h-0.4c-0.2,0-0.2-0.1-0.1-0.3l2.6-5.5L127.7,377.7z"/>
	<path class="st4" d="M143.9,380.1c0.9,0,1.7,0.3,1.9,0.3c0-1.7-0.2-2.5-1.7-2.5c-1.3,0-2.1,0.5-2.3,0.5c-0.2,0.1-0.2,0-0.3-0.2
		l-0.1-0.2c-0.1-0.2,0-0.2,0.1-0.3c0.1,0,1-0.6,2.6-0.6c2.3,0,2.4,1.4,2.4,3.3v4.2c0,0.1-0.1,0.2-0.2,0.2h-0.2
		c-0.1,0-0.2-0.1-0.2-0.2l-0.1-0.7c-0.5,0.5-1.4,1.1-2.6,1.1c-1.4,0-2.5-1-2.5-2.5C140.7,381.2,141.9,380.1,143.9,380.1z
		 M143.3,384.4c1.2,0,2.2-0.7,2.5-1.2v-2.1c-0.2-0.1-1-0.4-1.9-0.4c-1.4,0-2.4,0.7-2.4,1.9C141.5,383.7,142.3,384.4,143.3,384.4z"/>
	<path class="st4" d="M149.8,378.1h-0.9c-0.2,0-0.2-0.1-0.2-0.2v-0.3c0-0.1,0.1-0.2,0.2-0.2h0.9v-2.1c0-0.2,0.1-0.2,0.2-0.2l0.3,0
		c0.1,0,0.2,0.1,0.2,0.2v2.1h2.6c0.2,0,0.2,0.1,0.2,0.2v0.2c0,0.2-0.1,0.2-0.2,0.2h-2.6v4.8c0,0.9,0.1,1.4,1,1.4
		c0.7,0,1.5-0.4,1.7-0.5c0.2-0.1,0.2,0,0.3,0.1l0.1,0.2c0.1,0.1,0.1,0.2-0.1,0.3c-0.3,0.2-1.1,0.7-2.2,0.7c-1.6,0-1.7-0.9-1.7-2.1
		V378.1z"/>
	<path class="st4" d="M156,378.1h-0.9c-0.2,0-0.2-0.1-0.2-0.2v-0.3c0-0.1,0.1-0.2,0.2-0.2h0.9v-2.1c0-0.2,0.1-0.2,0.2-0.2l0.3,0
		c0.1,0,0.2,0.1,0.2,0.2v2.1h2.6c0.2,0,0.2,0.1,0.2,0.2v0.2c0,0.2-0.1,0.2-0.2,0.2h-2.6v4.8c0,0.9,0.1,1.4,1,1.4
		c0.7,0,1.5-0.4,1.7-0.5c0.2-0.1,0.2,0,0.3,0.1l0.1,0.2c0.1,0.1,0.1,0.2-0.1,0.3c-0.3,0.2-1.1,0.7-2.2,0.7c-1.6,0-1.7-0.9-1.7-2.1
		V378.1z"/>
	<path class="st4" d="M165.2,377.2c2,0,3.4,1.5,3.4,3.5c0,0.3,0,0.7-0.3,0.7h-6.1c0.1,1.6,1.3,3,3,3c1,0,1.8-0.4,2.2-0.7
		c0.2-0.1,0.2-0.1,0.3,0l0.2,0.3c0.1,0.1,0,0.2-0.1,0.3c-0.4,0.4-1.6,0.9-2.8,0.9c-2.3,0-3.7-1.8-3.7-4
		C161.4,379,162.8,377.2,165.2,377.2z M167.8,380.7c0-1.5-0.9-2.8-2.6-2.8c-1.7,0-2.8,1.2-2.9,2.8H167.8z"/>
	<path class="st4" d="M170.8,377.6c0-0.1,0.1-0.2,0.2-0.2h0.2c0.1,0,0.2,0.1,0.2,0.2l0.1,0.8c0.2-0.3,1.1-1.2,2.6-1.2
		c1.2,0,2,0.5,2.5,1.4c0.2-0.3,1.3-1.4,2.8-1.4c2.1,0,3,1.3,3,3.5v4.1c0,0.1-0.1,0.2-0.2,0.2h-0.4c-0.1,0-0.2-0.1-0.2-0.2v-4.1
		c0-1.7-0.8-2.7-2.2-2.7s-2.3,1-2.5,1.3c0.1,0.4,0.2,0.9,0.2,1.4v4.1c0,0.1-0.1,0.2-0.2,0.2h-0.4c-0.1,0-0.2-0.1-0.2-0.2v-4.1
		c0-1.7-0.8-2.7-2.2-2.7c-1.5,0-2.4,1.2-2.5,1.3v5.4c0,0.2-0.1,0.2-0.2,0.2h-0.4c-0.1,0-0.2-0.1-0.2-0.2V377.6z"/>
	<path class="st4" d="M186.2,390.5c0,0.1-0.1,0.2-0.2,0.2h-0.3c-0.1,0-0.2-0.1-0.2-0.2v-12.8c0-0.2,0.1-0.2,0.3-0.2h0.2
		c0.1,0,0.2,0.1,0.2,0.2l0.1,0.5c0.2-0.2,1.1-0.9,2.5-0.9c2.1,0,3.7,1.8,3.7,4c0,2.2-1.6,4-3.8,4c-1.3,0-2.1-0.6-2.3-0.8V390.5z
		 M188.3,384.4c1.8,0,3.1-1.4,3.1-3.2c0-1.8-1.2-3.2-2.9-3.2c-1.5,0-2.3,1-2.4,1.1v4.4C186.2,383.6,187,384.4,188.3,384.4z"/>
	<path class="st4" d="M194.9,378.1H194c-0.2,0-0.2-0.1-0.2-0.2v-0.3c0-0.1,0.1-0.2,0.2-0.2h0.9v-2.1c0-0.2,0.1-0.2,0.2-0.2l0.3,0
		c0.1,0,0.2,0.1,0.2,0.2v2.1h2.6c0.2,0,0.2,0.1,0.2,0.2v0.2c0,0.2-0.1,0.2-0.2,0.2h-2.6v4.8c0,0.9,0.1,1.4,1,1.4
		c0.7,0,1.5-0.4,1.7-0.5c0.2-0.1,0.2,0,0.3,0.1l0.1,0.2c0.1,0.1,0.1,0.2-0.1,0.3c-0.3,0.2-1.1,0.7-2.2,0.7c-1.6,0-1.7-0.9-1.7-2.1
		V378.1z"/>
	<path class="st4" d="M207.6,380.1c0.9,0,1.7,0.3,1.9,0.3c0-1.7-0.2-2.5-1.7-2.5c-1.3,0-2.1,0.5-2.3,0.5c-0.2,0.1-0.2,0-0.3-0.2
		l-0.1-0.2c-0.1-0.2,0-0.2,0.1-0.3c0.1,0,1-0.6,2.6-0.6c2.3,0,2.4,1.4,2.4,3.3v4.2c0,0.1-0.1,0.2-0.2,0.2h-0.2
		c-0.1,0-0.2-0.1-0.2-0.2l-0.1-0.7c-0.5,0.5-1.4,1.1-2.6,1.1c-1.4,0-2.5-1-2.5-2.5C204.4,381.2,205.6,380.1,207.6,380.1z
		 M206.9,384.4c1.2,0,2.2-0.7,2.5-1.2v-2.1c-0.2-0.1-1-0.4-1.9-0.4c-1.4,0-2.4,0.7-2.4,1.9C205.1,383.7,205.9,384.4,206.9,384.4z"/>
	<path class="st4" d="M213.4,378.1h-0.9c-0.2,0-0.2-0.1-0.2-0.2v-0.3c0-0.1,0.1-0.2,0.2-0.2h0.9v-2.1c0-0.2,0.1-0.2,0.2-0.2l0.3,0
		c0.1,0,0.2,0.1,0.2,0.2v2.1h2.6c0.2,0,0.2,0.1,0.2,0.2v0.2c0,0.2-0.1,0.2-0.2,0.2h-2.6v4.8c0,0.9,0.1,1.4,1,1.4
		c0.7,0,1.5-0.4,1.7-0.5c0.2-0.1,0.2,0,0.3,0.1l0.1,0.2c0.1,0.1,0.1,0.2-0.1,0.3c-0.3,0.2-1.1,0.7-2.2,0.7c-1.6,0-1.7-0.9-1.7-2.1
		V378.1z"/>
	<path class="st4" d="M226.6,377.2c1.4,0,2.3,0.8,2.3,0.8v-6c0-0.1,0.1-0.2,0.2-0.2h0.3c0.1,0,0.2,0.1,0.2,0.2v12.8
		c0,0.1-0.1,0.2-0.2,0.2h-0.2c-0.2,0-0.2-0.1-0.3-0.2l-0.1-0.7c-0.2,0.2-1.2,1.1-2.6,1.1c-2,0-3.5-1.8-3.5-4
		C222.9,379,224.5,377.2,226.6,377.2z M226.5,384.4c1.7,0,2.5-1.3,2.5-1.3v-4.3c0,0-0.9-0.8-2.3-0.8c-1.7,0-3,1.4-3,3.2
		C223.7,383,224.9,384.4,226.5,384.4z"/>
	<path class="st4" d="M235.9,377.2c2,0,3.4,1.5,3.4,3.5c0,0.3,0,0.7-0.3,0.7H233c0.1,1.6,1.3,3,3,3c1,0,1.8-0.4,2.2-0.7
		c0.2-0.1,0.2-0.1,0.3,0l0.2,0.3c0.1,0.1,0,0.2-0.1,0.3c-0.4,0.4-1.6,0.9-2.8,0.9c-2.3,0-3.7-1.8-3.7-4
		C232.1,379,233.6,377.2,235.9,377.2z M238.5,380.7c0-1.5-0.9-2.8-2.6-2.8c-1.7,0-2.8,1.2-2.9,2.8H238.5z"/>
	<path class="st4" d="M241.1,384.1l0.2-0.3c0.1-0.1,0.2-0.1,0.3,0c0.2,0.2,1,0.7,2,0.7c1.1,0,1.8-0.6,1.8-1.3c0-0.9-0.9-1.2-2.1-1.7
		c-1.3-0.5-2.3-1.1-2.3-2.2c0-0.8,0.7-2,2.5-2c1,0,1.8,0.4,2.1,0.6c0.1,0.1,0.2,0.2,0.1,0.4l-0.1,0.2c-0.1,0.1-0.2,0.2-0.4,0.1
		c-0.2-0.1-0.9-0.5-1.7-0.5c-1.2,0-1.6,0.7-1.6,1.2c0,0.8,0.7,1.1,1.8,1.5c1.4,0.5,2.7,1,2.7,2.4c0,1.1-1.2,2.1-2.7,2.1
		c-1.3,0-2.1-0.5-2.5-0.9C241.1,384.3,241.1,384.2,241.1,384.1z"/>
	<path class="st4" d="M248.4,373.1c0-0.4,0.3-0.7,0.6-0.7c0.4,0,0.6,0.3,0.6,0.7c0,0.3-0.3,0.6-0.6,0.6
		C248.6,373.7,248.4,373.4,248.4,373.1z M248.6,377.6c0-0.1,0.1-0.2,0.2-0.2h0.3c0.1,0,0.2,0.1,0.2,0.2v7.1c0,0.2-0.1,0.2-0.2,0.2
		h-0.4c-0.1,0-0.2-0.1-0.2-0.2V377.6z"/>
	<path class="st4" d="M252.8,382.3c-0.2-0.3-0.6-1-0.6-1.9c0-1.8,1.3-3.2,3.3-3.2c0.5,0,0.5,0,3.1,0c0.2,0,0.2,0.1,0.2,0.2v0.2
		c0,0.1-0.1,0.2-0.2,0.2l-1.4,0.1c0.4,0.2,1.2,0.9,1.2,2.4c0,1.7-1.2,3.2-3.2,3.2c-1.1,0-1.8-0.4-2.1-0.7c-0.2,0.1-1,0.5-1,1.4
		s0.8,1.1,1.5,1.1h2.8c1.6,0,2.8,0.7,2.8,2.4c0,1.6-1.6,3.1-3.9,3.1c-2.6,0-3.7-1.5-3.7-2.8c0-1.1,0.8-1.7,1.2-2
		c-0.4-0.1-1.5-0.6-1.5-1.7C251.5,383.1,252.6,382.4,252.8,382.3z M255.5,390.1c1.7,0,3-1,3-2.3c0-0.9-0.5-1.7-1.9-1.7h-2.4
		c-0.2,0-1.5,0.6-1.5,1.8C252.7,389,253.7,390.1,255.5,390.1z M257.7,380.4c0-1.6-1.1-2.4-2.3-2.4c-1.5,0-2.4,1.1-2.4,2.4
		c0,1.3,0.8,2.4,2.4,2.4C256.8,382.8,257.7,381.8,257.7,380.4z"/>
	<path class="st4" d="M261.1,377.6c0-0.1,0.1-0.2,0.3-0.2h0.2c0.1,0,0.2,0.1,0.2,0.2l0.1,0.8c0.2-0.3,1.3-1.2,2.8-1.2
		c2.1,0,3.1,1.3,3.1,3.5v4.1c0,0.1-0.1,0.2-0.2,0.2h-0.3c-0.1,0-0.2-0.1-0.2-0.2v-4.1c0-1.7-0.8-2.7-2.3-2.7c-1.6,0-2.6,1.2-2.7,1.3
		v5.4c0,0.2-0.1,0.2-0.2,0.2h-0.4c-0.1,0-0.2-0.1-0.2-0.2V377.6z"/>
	<path class="st4" d="M270.3,373.1c0-0.4,0.3-0.7,0.6-0.7c0.4,0,0.6,0.3,0.6,0.7c0,0.3-0.3,0.6-0.6,0.6
		C270.6,373.7,270.3,373.4,270.3,373.1z M270.5,377.6c0-0.1,0.1-0.2,0.2-0.2h0.3c0.1,0,0.2,0.1,0.2,0.2v7.1c0,0.2-0.1,0.2-0.2,0.2
		h-0.4c-0.1,0-0.2-0.1-0.2-0.2V377.6z"/>
	<path class="st4" d="M274.2,377.6c0-0.1,0.1-0.2,0.3-0.2h0.2c0.1,0,0.2,0.1,0.2,0.2l0.1,0.8c0.2-0.3,1.3-1.2,2.8-1.2
		c2.1,0,3.1,1.3,3.1,3.5v4.1c0,0.1-0.1,0.2-0.2,0.2h-0.3c-0.1,0-0.2-0.1-0.2-0.2v-4.1c0-1.7-0.8-2.7-2.3-2.7c-1.6,0-2.6,1.2-2.7,1.3
		v5.4c0,0.2-0.1,0.2-0.2,0.2h-0.4c-0.1,0-0.2-0.1-0.2-0.2V377.6z"/>
	<path class="st4" d="M284.1,382.3c-0.2-0.3-0.6-1-0.6-1.9c0-1.8,1.3-3.2,3.3-3.2c0.5,0,0.5,0,3.1,0c0.2,0,0.2,0.1,0.2,0.2v0.2
		c0,0.1-0.1,0.2-0.2,0.2l-1.4,0.1c0.4,0.2,1.2,0.9,1.2,2.4c0,1.7-1.2,3.2-3.2,3.2c-1.1,0-1.8-0.4-2.1-0.7c-0.2,0.1-1,0.5-1,1.4
		s0.8,1.1,1.5,1.1h2.8c1.6,0,2.8,0.7,2.8,2.4c0,1.6-1.6,3.1-3.9,3.1c-2.6,0-3.7-1.5-3.7-2.8c0-1.1,0.8-1.7,1.2-2
		c-0.4-0.1-1.5-0.6-1.5-1.7C282.8,383.1,283.9,382.4,284.1,382.3z M286.8,390.1c1.7,0,3-1,3-2.3c0-0.9-0.5-1.7-1.9-1.7h-2.4
		c-0.2,0-1.5,0.6-1.5,1.8C284,389,285,390.1,286.8,390.1z M289,380.4c0-1.6-1.1-2.4-2.3-2.4c-1.5,0-2.4,1.1-2.4,2.4
		c0,1.3,0.8,2.4,2.4,2.4C288.1,382.8,289,381.8,289,380.4z"/>
	<path class="st4" d="M299.1,380.1c0.9,0,1.7,0.3,1.9,0.3c0-1.7-0.2-2.5-1.7-2.5c-1.3,0-2.1,0.5-2.3,0.5c-0.2,0.1-0.2,0-0.3-0.2
		l-0.1-0.2c-0.1-0.2,0-0.2,0.1-0.3c0.1,0,1-0.6,2.6-0.6c2.3,0,2.4,1.4,2.4,3.3v4.2c0,0.1-0.1,0.2-0.2,0.2h-0.2
		c-0.1,0-0.2-0.1-0.2-0.2l-0.1-0.7c-0.5,0.5-1.4,1.1-2.6,1.1c-1.4,0-2.5-1-2.5-2.5C295.9,381.2,297.1,380.1,299.1,380.1z
		 M298.5,384.4c1.2,0,2.2-0.7,2.5-1.2v-2.1c-0.2-0.1-1-0.4-1.9-0.4c-1.4,0-2.4,0.7-2.4,1.9C296.7,383.7,297.5,384.4,298.5,384.4z"/>
	<path class="st4" d="M304.6,377.6c0-0.1,0.1-0.2,0.3-0.2h0.2c0.1,0,0.2,0.1,0.2,0.2l0.1,0.8c0.2-0.3,1.3-1.2,2.8-1.2
		c2.1,0,3.1,1.3,3.1,3.5v4.1c0,0.1-0.1,0.2-0.2,0.2h-0.3c-0.1,0-0.2-0.1-0.2-0.2v-4.1c0-1.7-0.8-2.7-2.3-2.7c-1.6,0-2.6,1.2-2.7,1.3
		v5.4c0,0.2-0.1,0.2-0.2,0.2h-0.4c-0.1,0-0.2-0.1-0.2-0.2V377.6z"/>
	<path class="st4" d="M317.2,377.2c1.4,0,2.3,0.8,2.3,0.8v-6c0-0.1,0.1-0.2,0.2-0.2h0.3c0.1,0,0.2,0.1,0.2,0.2v12.8
		c0,0.1-0.1,0.2-0.2,0.2H320c-0.2,0-0.2-0.1-0.3-0.2l-0.1-0.7c-0.2,0.2-1.2,1.1-2.6,1.1c-2,0-3.5-1.8-3.5-4
		C313.5,379,315.1,377.2,317.2,377.2z M317.1,384.4c1.7,0,2.5-1.3,2.5-1.3v-4.3c0,0-0.9-0.8-2.3-0.8c-1.7,0-3,1.4-3,3.2
		C314.3,383,315.5,384.4,317.1,384.4z"/>
	<path class="st4" d="M330.8,377.2c1.5,0,2.5,0.8,2.8,1.2c0.1,0.1,0.1,0.2,0,0.3l-0.2,0.2c-0.1,0.1-0.3,0.1-0.4,0
		c-0.2-0.2-1-0.9-2.2-0.9c-1.7,0-3.1,1.3-3.1,3.2c0,1.8,1.4,3.2,3.1,3.2c1.4,0,2.2-0.9,2.4-1.1c0.1-0.2,0.2-0.2,0.4,0l0.2,0.2
		c0.1,0.1,0.1,0.2,0.1,0.3c-0.3,0.5-1.4,1.5-3,1.5c-2.1,0-4-1.7-4-4C326.8,378.9,328.7,377.2,330.8,377.2z"/>
	<path class="st4" d="M339.4,377.2c2.1,0,3.8,1.8,3.8,4c0,2.2-1.7,4-3.8,4c-2.1,0-3.8-1.8-3.8-4C335.6,379,337.2,377.2,339.4,377.2z
		 M339.4,384.4c1.7,0,3-1.4,3-3.2c0-1.7-1.3-3.2-3-3.2c-1.7,0-3,1.4-3,3.2C336.4,383,337.7,384.4,339.4,384.4z"/>
	<path class="st4" d="M348.7,377.2c1.4,0,2.3,0.8,2.3,0.8v-6c0-0.1,0.1-0.2,0.2-0.2h0.3c0.1,0,0.2,0.1,0.2,0.2v12.8
		c0,0.1-0.1,0.2-0.2,0.2h-0.2c-0.2,0-0.2-0.1-0.3-0.2l-0.1-0.7c-0.2,0.2-1.2,1.1-2.6,1.1c-2,0-3.5-1.8-3.5-4
		C345,379,346.5,377.2,348.7,377.2z M348.5,384.4c1.7,0,2.5-1.3,2.5-1.3v-4.3c0,0-0.9-0.8-2.3-0.8c-1.7,0-3,1.4-3,3.2
		C345.8,383,346.9,384.4,348.5,384.4z"/>
	<path class="st4" d="M354.5,373.1c0-0.4,0.3-0.7,0.6-0.7c0.4,0,0.6,0.3,0.6,0.7c0,0.3-0.3,0.6-0.6,0.6
		C354.8,373.7,354.5,373.4,354.5,373.1z M354.7,377.6c0-0.1,0.1-0.2,0.2-0.2h0.3c0.1,0,0.2,0.1,0.2,0.2v7.1c0,0.2-0.1,0.2-0.2,0.2
		H355c-0.1,0-0.2-0.1-0.2-0.2V377.6z"/>
	<path class="st4" d="M358.5,377.6c0-0.1,0.1-0.2,0.3-0.2h0.2c0.1,0,0.2,0.1,0.2,0.2l0.1,0.8c0.2-0.3,1.3-1.2,2.8-1.2
		c2.1,0,3.1,1.3,3.1,3.5v4.1c0,0.1-0.1,0.2-0.2,0.2h-0.3c-0.1,0-0.2-0.1-0.2-0.2v-4.1c0-1.7-0.8-2.7-2.3-2.7c-1.6,0-2.6,1.2-2.7,1.3
		v5.4c0,0.2-0.1,0.2-0.2,0.2h-0.4c-0.1,0-0.2-0.1-0.2-0.2V377.6z"/>
	<path class="st4" d="M368.3,382.3c-0.2-0.3-0.6-1-0.6-1.9c0-1.8,1.3-3.2,3.3-3.2c0.5,0,0.5,0,3.1,0c0.2,0,0.2,0.1,0.2,0.2v0.2
		c0,0.1-0.1,0.2-0.2,0.2l-1.4,0.1c0.4,0.2,1.2,0.9,1.2,2.4c0,1.7-1.2,3.2-3.2,3.2c-1.1,0-1.8-0.4-2.1-0.7c-0.2,0.1-1,0.5-1,1.4
		s0.8,1.1,1.5,1.1h2.8c1.6,0,2.8,0.7,2.8,2.4c0,1.6-1.6,3.1-3.9,3.1c-2.6,0-3.7-1.5-3.7-2.8c0-1.1,0.8-1.7,1.2-2
		c-0.4-0.1-1.5-0.6-1.5-1.7C367.1,383.1,368.1,382.4,368.3,382.3z M371.1,390.1c1.7,0,3-1,3-2.3c0-0.9-0.5-1.7-1.9-1.7h-2.4
		c-0.2,0-1.5,0.6-1.5,1.8C368.2,389,369.2,390.1,371.1,390.1z M373.3,380.4c0-1.6-1.1-2.4-2.3-2.4c-1.5,0-2.4,1.1-2.4,2.4
		c0,1.3,0.8,2.4,2.4,2.4C372.4,382.8,373.3,381.8,373.3,380.4z"/>
	<path class="st4" d="M383.4,380.1c0.9,0,1.7,0.3,1.9,0.3c0-1.7-0.2-2.5-1.7-2.5c-1.3,0-2.1,0.5-2.3,0.5c-0.2,0.1-0.2,0-0.3-0.2
		l-0.1-0.2c-0.1-0.2,0-0.2,0.1-0.3c0.1,0,1-0.6,2.6-0.6c2.3,0,2.4,1.4,2.4,3.3v4.2c0,0.1-0.1,0.2-0.2,0.2h-0.2
		c-0.1,0-0.2-0.1-0.2-0.2l-0.1-0.7c-0.5,0.5-1.4,1.1-2.6,1.1c-1.4,0-2.5-1-2.5-2.5C380.2,381.2,381.4,380.1,383.4,380.1z
		 M382.7,384.4c1.2,0,2.2-0.7,2.5-1.2v-2.1c-0.2-0.1-1-0.4-1.9-0.4c-1.4,0-2.4,0.7-2.4,1.9C380.9,383.7,381.7,384.4,382.7,384.4z"/>
	<path class="st4" d="M396.4,377.2c1.5,0,2.5,0.8,2.8,1.2c0.1,0.1,0.1,0.2,0,0.3l-0.2,0.2c-0.1,0.1-0.3,0.1-0.4,0
		c-0.2-0.2-1-0.9-2.2-0.9c-1.7,0-3.1,1.3-3.1,3.2c0,1.8,1.4,3.2,3.1,3.2c1.4,0,2.2-0.9,2.4-1.1c0.1-0.2,0.2-0.2,0.4,0l0.2,0.2
		c0.1,0.1,0.1,0.2,0.1,0.3c-0.3,0.5-1.4,1.5-3,1.5c-2.1,0-4-1.7-4-4C392.4,378.9,394.3,377.2,396.4,377.2z"/>
	<path class="st4" d="M404.3,380.1c0.9,0,1.7,0.3,1.9,0.3c0-1.7-0.2-2.5-1.7-2.5c-1.3,0-2.1,0.5-2.3,0.5c-0.2,0.1-0.2,0-0.3-0.2
		l-0.1-0.2c-0.1-0.2,0-0.2,0.1-0.3c0.1,0,1-0.6,2.6-0.6c2.3,0,2.4,1.4,2.4,3.3v4.2c0,0.1-0.1,0.2-0.2,0.2h-0.2
		c-0.1,0-0.2-0.1-0.2-0.2l-0.1-0.7c-0.5,0.5-1.4,1.1-2.6,1.1c-1.4,0-2.5-1-2.5-2.5C401.1,381.2,402.3,380.1,404.3,380.1z
		 M403.7,384.4c1.2,0,2.2-0.7,2.5-1.2v-2.1c-0.2-0.1-1-0.4-1.9-0.4c-1.4,0-2.4,0.7-2.4,1.9C401.9,383.7,402.7,384.4,403.7,384.4z"/>
	<path class="st4" d="M410.2,378.1h-0.9c-0.2,0-0.2-0.1-0.2-0.2v-0.3c0-0.1,0.1-0.2,0.2-0.2h0.9v-2.1c0-0.2,0.1-0.2,0.2-0.2l0.3,0
		c0.1,0,0.2,0.1,0.2,0.2v2.1h2.6c0.2,0,0.2,0.1,0.2,0.2v0.2c0,0.2-0.1,0.2-0.2,0.2H411v4.8c0,0.9,0.1,1.4,1,1.4
		c0.7,0,1.5-0.4,1.7-0.5c0.2-0.1,0.2,0,0.3,0.1l0.1,0.2c0.1,0.1,0.1,0.2-0.1,0.3c-0.3,0.2-1.1,0.7-2.2,0.7c-1.6,0-1.7-0.9-1.7-2.1
		V378.1z"/>
	<path class="st4" d="M419.3,377.2c2,0,3.4,1.5,3.4,3.5c0,0.3,0,0.7-0.3,0.7h-6.1c0.1,1.6,1.3,3,3,3c1,0,1.8-0.4,2.2-0.7
		c0.2-0.1,0.2-0.1,0.3,0l0.2,0.3c0.1,0.1,0,0.2-0.1,0.3c-0.4,0.4-1.6,0.9-2.8,0.9c-2.3,0-3.7-1.8-3.7-4
		C415.5,379,417,377.2,419.3,377.2z M421.9,380.7c0-1.5-0.9-2.8-2.6-2.8c-1.7,0-2.8,1.2-2.9,2.8H421.9z"/>
	<path class="st4" d="M425,377.6c0-0.1,0.1-0.2,0.2-0.2h0.2c0.1,0,0.2,0.1,0.2,0.2l0.1,0.8c0.2-0.3,1-1.2,2.4-1.2
		c0.6,0,1,0.2,1.2,0.2c0.2,0.1,0.3,0.2,0.2,0.3l-0.2,0.4c-0.1,0.1-0.2,0.2-0.3,0.1c-0.1,0-0.5-0.2-1-0.2c-1.5,0-2.2,1.2-2.3,1.3v5.4
		c0,0.2-0.1,0.2-0.2,0.2h-0.4c-0.1,0-0.2-0.1-0.2-0.2V377.6z"/>
	<path class="st4" d="M430.9,373.1c0-0.4,0.3-0.7,0.6-0.7c0.4,0,0.6,0.3,0.6,0.7c0,0.3-0.3,0.6-0.6,0.6
		C431.2,373.7,430.9,373.4,430.9,373.1z M431.1,377.6c0-0.1,0.1-0.2,0.2-0.2h0.3c0.1,0,0.2,0.1,0.2,0.2v7.1c0,0.2-0.1,0.2-0.2,0.2
		h-0.4c-0.1,0-0.2-0.1-0.2-0.2V377.6z"/>
	<path class="st4" d="M434.8,377.6c0-0.1,0.1-0.2,0.3-0.2h0.2c0.1,0,0.2,0.1,0.2,0.2l0.1,0.8c0.2-0.3,1.3-1.2,2.8-1.2
		c2.1,0,3.1,1.3,3.1,3.5v4.1c0,0.1-0.1,0.2-0.2,0.2h-0.3c-0.1,0-0.2-0.1-0.2-0.2v-4.1c0-1.7-0.8-2.7-2.3-2.7c-1.6,0-2.6,1.2-2.7,1.3
		v5.4c0,0.2-0.1,0.2-0.2,0.2h-0.4c-0.1,0-0.2-0.1-0.2-0.2V377.6z"/>
	<path class="st4" d="M444.7,382.3c-0.2-0.3-0.6-1-0.6-1.9c0-1.8,1.3-3.2,3.3-3.2c0.5,0,0.5,0,3.1,0c0.2,0,0.2,0.1,0.2,0.2v0.2
		c0,0.1-0.1,0.2-0.2,0.2l-1.4,0.1c0.4,0.2,1.2,0.9,1.2,2.4c0,1.7-1.2,3.2-3.2,3.2c-1.1,0-1.8-0.4-2.1-0.7c-0.2,0.1-1,0.5-1,1.4
		s0.8,1.1,1.5,1.1h2.8c1.6,0,2.8,0.7,2.8,2.4c0,1.6-1.6,3.1-3.9,3.1c-2.6,0-3.7-1.5-3.7-2.8c0-1.1,0.8-1.7,1.2-2
		c-0.4-0.1-1.5-0.6-1.5-1.7C443.5,383.1,444.5,382.4,444.7,382.3z M447.4,390.1c1.7,0,3-1,3-2.3c0-0.9-0.5-1.7-1.9-1.7h-2.4
		c-0.2,0-1.5,0.6-1.5,1.8C444.6,389,445.6,390.1,447.4,390.1z M449.7,380.4c0-1.6-1.1-2.4-2.3-2.4c-1.5,0-2.4,1.1-2.4,2.4
		c0,1.3,0.8,2.4,2.4,2.4C448.8,382.8,449.7,381.8,449.7,380.4z"/>
	<path class="st4" d="M49.6,400.5c-0.1-0.2-0.1-0.3,0.1-0.3h0.4c0.1,0,0.2,0,0.2,0.2l1.8,6h0l2.3-6.2c0-0.1,0.1-0.2,0.2-0.2h0.1
		c0.1,0,0.2,0.1,0.2,0.2l2.3,6.2h0l1.8-6c0-0.1,0.2-0.2,0.2-0.2h0.4c0.2,0,0.2,0.1,0.1,0.3l-2.3,7.3c0,0.1-0.1,0.2-0.2,0.2h-0.1
		c-0.1,0-0.2-0.1-0.2-0.2l-2.3-6.4h0l-2.3,6.4c0,0.1-0.1,0.2-0.2,0.2h-0.1c-0.1,0-0.2,0-0.2-0.2L49.6,400.5z"/>
	<path class="st4" d="M65.1,400c2,0,3.4,1.5,3.4,3.5c0,0.3,0,0.7-0.3,0.7h-6.1c0.1,1.6,1.3,3,3,3c1,0,1.8-0.4,2.2-0.7
		c0.2-0.1,0.2-0.1,0.3,0l0.2,0.3c0.1,0.1,0,0.2-0.1,0.3c-0.4,0.4-1.6,0.9-2.8,0.9c-2.3,0-3.7-1.8-3.7-4
		C61.4,401.8,62.8,400,65.1,400z M67.8,403.5c0-1.5-0.9-2.8-2.6-2.8c-1.7,0-2.8,1.2-2.9,2.8H67.8z"/>
	<path class="st4" d="M70.8,394.7c0-0.1,0.1-0.2,0.2-0.2h0.3c0.1,0,0.2,0.1,0.2,0.2v6c0,0,0.9-0.8,2.4-0.8c2.1,0,3.7,1.7,3.7,4
		c0,2.2-1.5,4-3.5,4c-1.5,0-2.4-0.9-2.6-1.1l-0.1,0.7c0,0.2-0.1,0.2-0.3,0.2h-0.2c-0.1,0-0.2-0.1-0.2-0.2V394.7z M74.2,407.2
		c1.6,0,2.8-1.5,2.8-3.2c0-1.8-1.3-3.2-3-3.2c-1.4,0-2.2,0.8-2.2,0.8v4.3C71.7,406,72.5,407.2,74.2,407.2z"/>
	<path class="st4" d="M79.6,406.9l0.2-0.3c0.1-0.1,0.2-0.1,0.3,0c0.2,0.2,1,0.7,2,0.7c1.1,0,1.8-0.6,1.8-1.3c0-0.9-0.9-1.2-2.1-1.7
		c-1.3-0.5-2.3-1.1-2.3-2.2c0-0.8,0.7-2,2.5-2c1,0,1.8,0.4,2.1,0.6c0.1,0.1,0.2,0.2,0.1,0.4l-0.1,0.2c-0.1,0.1-0.2,0.2-0.4,0.1
		c-0.2-0.1-0.9-0.5-1.7-0.5c-1.2,0-1.6,0.7-1.6,1.2c0,0.8,0.7,1.1,1.8,1.5c1.4,0.5,2.7,1,2.7,2.4c0,1.1-1.2,2.1-2.7,2.1
		c-1.3,0-2.1-0.5-2.5-0.9C79.6,407.1,79.6,407,79.6,406.9z"/>
	<path class="st4" d="M86.9,395.9c0-0.4,0.3-0.7,0.6-0.7c0.4,0,0.6,0.3,0.6,0.7c0,0.3-0.3,0.6-0.6,0.6
		C87.2,396.5,86.9,396.2,86.9,395.9z M87.1,400.4c0-0.1,0.1-0.2,0.2-0.2h0.3c0.1,0,0.2,0.1,0.2,0.2v7.1c0,0.2-0.1,0.2-0.2,0.2h-0.4
		c-0.1,0-0.2-0.1-0.2-0.2V400.4z"/>
	<path class="st4" d="M91.1,400.9h-0.9c-0.2,0-0.2-0.1-0.2-0.2v-0.3c0-0.1,0.1-0.2,0.2-0.2h0.9v-2.1c0-0.2,0.1-0.2,0.2-0.2l0.3,0
		c0.1,0,0.2,0.1,0.2,0.2v2.1h2.6c0.2,0,0.2,0.1,0.2,0.2v0.2c0,0.2-0.1,0.2-0.2,0.2H92v4.8c0,0.9,0.1,1.4,1,1.4
		c0.7,0,1.5-0.4,1.7-0.5c0.2-0.1,0.2,0,0.3,0.1l0.1,0.2c0.1,0.1,0.1,0.2-0.1,0.3c-0.3,0.2-1.1,0.7-2.2,0.7c-1.6,0-1.7-0.9-1.7-2.1
		V400.9z"/>
	<path class="st4" d="M100.3,400c2,0,3.4,1.5,3.4,3.5c0,0.3,0,0.7-0.3,0.7h-6.1c0.1,1.6,1.3,3,3,3c1,0,1.8-0.4,2.2-0.7
		c0.2-0.1,0.2-0.1,0.3,0l0.2,0.3c0.1,0.1,0,0.2-0.1,0.3c-0.4,0.4-1.6,0.9-2.8,0.9c-2.3,0-3.7-1.8-3.7-4
		C96.5,401.8,97.9,400,100.3,400z M102.9,403.5c0-1.5-0.9-2.8-2.6-2.8c-1.7,0-2.8,1.2-2.9,2.8H102.9z"/>
	<path class="st4" d="M106.6,406.5c0.4,0,0.8,0.3,0.8,0.8c0,0.4-0.3,0.8-0.8,0.8c-0.4,0-0.8-0.3-0.8-0.8
		C105.8,406.8,106.2,406.5,106.6,406.5z"/>
	<path class="st4" d="M51,440.3c0-0.1,0.1-0.2,0.2-0.2h0.4c0.1,0,0.2,0.1,0.2,0.2v12.8c0,0.2-0.1,0.2-0.3,0.2h-0.4
		c-0.1,0-0.2-0.1-0.2-0.2V440.3z"/>
	<path class="st4" d="M62.1,448.5c0.9,0,1.7,0.3,1.9,0.3c0-1.7-0.2-2.5-1.7-2.5c-1.3,0-2.1,0.5-2.3,0.5c-0.2,0.1-0.2,0-0.3-0.2
		l-0.1-0.2c-0.1-0.2,0-0.2,0.1-0.3c0.1,0,1-0.6,2.6-0.6c2.3,0,2.4,1.4,2.4,3.3v4.2c0,0.1-0.1,0.2-0.2,0.2h-0.2
		c-0.1,0-0.2-0.1-0.2-0.2l-0.1-0.7c-0.5,0.5-1.4,1.1-2.6,1.1c-1.4,0-2.5-1-2.5-2.5C58.9,449.6,60.1,448.5,62.1,448.5z M61.5,452.8
		c1.2,0,2.2-0.7,2.5-1.2v-2.1c-0.2-0.1-1-0.4-1.9-0.4c-1.4,0-2.4,0.7-2.4,1.9C59.7,452.1,60.4,452.8,61.5,452.8z"/>
	<path class="st4" d="M67.6,440.3c0-0.1,0.1-0.2,0.2-0.2h0.3c0.1,0,0.2,0.1,0.2,0.2v12.8c0,0.2-0.1,0.2-0.2,0.2h-0.4
		c-0.1,0-0.2-0.1-0.2-0.2V440.3z"/>
	<path class="st4" d="M70.9,452.5l0.2-0.3c0.1-0.1,0.2-0.1,0.3,0c0.2,0.2,1,0.7,2,0.7c1.1,0,1.8-0.6,1.8-1.3c0-0.9-0.9-1.2-2.1-1.7
		c-1.3-0.5-2.3-1.1-2.3-2.2c0-0.8,0.7-2,2.5-2c1,0,1.8,0.4,2.1,0.6c0.1,0.1,0.2,0.2,0.1,0.4l-0.1,0.2c-0.1,0.1-0.2,0.2-0.4,0.1
		c-0.2-0.1-0.9-0.5-1.7-0.5c-1.2,0-1.6,0.7-1.6,1.2c0,0.8,0.7,1.1,1.8,1.5c1.4,0.5,2.7,1,2.7,2.4c0,1.1-1.2,2.1-2.7,2.1
		c-1.3,0-2.1-0.5-2.5-0.9C70.9,452.7,70.8,452.6,70.9,452.5z"/>
	<path class="st4" d="M81.6,445.6c2.1,0,3.8,1.8,3.8,4c0,2.2-1.7,4-3.8,4c-2.1,0-3.8-1.8-3.8-4C77.8,447.4,79.5,445.6,81.6,445.6z
		 M81.6,452.8c1.7,0,3-1.4,3-3.2c0-1.7-1.3-3.2-3-3.2c-1.7,0-3,1.4-3,3.2C78.6,451.4,79.9,452.8,81.6,452.8z"/>
	<path class="st4" d="M95.3,445.6c1.5,0,2.5,0.8,2.8,1.2c0.1,0.1,0.1,0.2,0,0.3l-0.2,0.2c-0.1,0.1-0.3,0.1-0.4,0
		c-0.2-0.2-1-0.9-2.2-0.9c-1.7,0-3.1,1.3-3.1,3.2c0,1.8,1.4,3.2,3.1,3.2c1.4,0,2.2-0.9,2.4-1.1c0.1-0.2,0.2-0.2,0.4,0l0.2,0.2
		c0.1,0.1,0.1,0.2,0.1,0.3c-0.3,0.5-1.4,1.5-3,1.5c-2.1,0-4-1.7-4-4C91.3,447.3,93.2,445.6,95.3,445.6z"/>
	<path class="st4" d="M100.6,446c0-0.1,0.1-0.2,0.2-0.2h0.2c0.1,0,0.2,0.1,0.2,0.2l0.1,0.8c0.2-0.3,1-1.2,2.4-1.2
		c0.6,0,1,0.2,1.2,0.2c0.2,0.1,0.3,0.2,0.2,0.3l-0.2,0.4c-0.1,0.1-0.2,0.2-0.3,0.1c-0.1,0-0.5-0.2-1-0.2c-1.5,0-2.2,1.2-2.3,1.3v5.4
		c0,0.2-0.1,0.2-0.2,0.2h-0.4c-0.1,0-0.2-0.1-0.2-0.2V446z"/>
	<path class="st4" d="M109.9,445.6c2,0,3.4,1.5,3.4,3.5c0,0.3,0,0.7-0.3,0.7H107c0.1,1.6,1.3,3,3,3c1,0,1.8-0.4,2.2-0.7
		c0.2-0.1,0.2-0.1,0.3,0l0.2,0.3c0.1,0.1,0,0.2-0.1,0.3c-0.4,0.4-1.6,0.9-2.8,0.9c-2.3,0-3.7-1.8-3.7-4
		C106.2,447.4,107.6,445.6,109.9,445.6z M112.5,449.1c0-1.5-0.9-2.8-2.6-2.8c-1.7,0-2.8,1.2-2.9,2.8H112.5z"/>
	<path class="st4" d="M118.2,448.5c0.9,0,1.7,0.3,1.9,0.3c0-1.7-0.2-2.5-1.7-2.5c-1.3,0-2.1,0.5-2.3,0.5c-0.2,0.1-0.2,0-0.3-0.2
		l-0.1-0.2c-0.1-0.2,0-0.2,0.1-0.3c0.1,0,1-0.6,2.6-0.6c2.3,0,2.4,1.4,2.4,3.3v4.2c0,0.1-0.1,0.2-0.2,0.2h-0.2
		c-0.1,0-0.2-0.1-0.2-0.2l-0.1-0.7c-0.5,0.5-1.4,1.1-2.6,1.1c-1.4,0-2.5-1-2.5-2.5C115,449.6,116.2,448.5,118.2,448.5z M117.6,452.8
		c1.2,0,2.2-0.7,2.5-1.2v-2.1c-0.2-0.1-1-0.4-1.9-0.4c-1.4,0-2.4,0.7-2.4,1.9C115.7,452.1,116.5,452.8,117.6,452.8z"/>
	<path class="st4" d="M124,446.5h-0.9c-0.2,0-0.2-0.1-0.2-0.2V446c0-0.1,0.1-0.2,0.2-0.2h0.9v-2.1c0-0.2,0.1-0.2,0.2-0.2l0.3,0
		c0.1,0,0.2,0.1,0.2,0.2v2.1h2.6c0.2,0,0.2,0.1,0.2,0.2v0.2c0,0.2-0.1,0.2-0.2,0.2h-2.6v4.8c0,0.9,0.1,1.4,1,1.4
		c0.7,0,1.5-0.4,1.7-0.5c0.2-0.1,0.2,0,0.3,0.1l0.1,0.2c0.1,0.1,0.1,0.2-0.1,0.3c-0.3,0.2-1.1,0.7-2.2,0.7c-1.6,0-1.7-0.9-1.7-2.1
		V446.5z"/>
	<path class="st4" d="M133.1,445.6c2,0,3.4,1.5,3.4,3.5c0,0.3,0,0.7-0.3,0.7h-6.1c0.1,1.6,1.3,3,3,3c1,0,1.8-0.4,2.2-0.7
		c0.2-0.1,0.2-0.1,0.3,0l0.2,0.3c0.1,0.1,0,0.2-0.1,0.3c-0.4,0.4-1.6,0.9-2.8,0.9c-2.3,0-3.7-1.8-3.7-4
		C129.4,447.4,130.8,445.6,133.1,445.6z M135.7,449.1c0-1.5-0.9-2.8-2.6-2.8c-1.7,0-2.8,1.2-2.9,2.8H135.7z"/>
	<path class="st4" d="M142,445.6c1.4,0,2.3,0.8,2.3,0.8v-6c0-0.1,0.1-0.2,0.2-0.2h0.3c0.1,0,0.2,0.1,0.2,0.2v12.8
		c0,0.1-0.1,0.2-0.2,0.2h-0.2c-0.2,0-0.2-0.1-0.3-0.2l-0.1-0.7c-0.2,0.2-1.2,1.1-2.6,1.1c-2,0-3.5-1.8-3.5-4
		C138.3,447.4,139.8,445.6,142,445.6z M141.8,452.8c1.7,0,2.5-1.3,2.5-1.3v-4.3c0,0-0.9-0.8-2.3-0.8c-1.7,0-3,1.4-3,3.2
		C139.1,451.4,140.2,452.8,141.8,452.8z"/>
	<path class="st4" d="M152.5,446.5h-0.9c-0.2,0-0.2-0.1-0.2-0.2V446c0-0.1,0.1-0.2,0.2-0.2h0.9v-2.1c0-0.2,0.1-0.2,0.2-0.2l0.3,0
		c0.1,0,0.2,0.1,0.2,0.2v2.1h2.6c0.2,0,0.2,0.1,0.2,0.2v0.2c0,0.2-0.1,0.2-0.2,0.2h-2.6v4.8c0,0.9,0.1,1.4,1,1.4
		c0.7,0,1.5-0.4,1.7-0.5c0.2-0.1,0.2,0,0.3,0.1l0.1,0.2c0.1,0.1,0.1,0.2-0.1,0.3c-0.3,0.2-1.1,0.7-2.2,0.7c-1.6,0-1.7-0.9-1.7-2.1
		V446.5z"/>
	<path class="st4" d="M158.4,440.3c0-0.1,0.1-0.2,0.3-0.2h0.3c0.1,0,0.2,0.1,0.2,0.2v6.5c0.2-0.2,1.3-1.2,2.8-1.2
		c2,0,3.1,1.2,3.1,3.5v4.1c0,0.1-0.1,0.2-0.2,0.2h-0.3c-0.1,0-0.2-0.1-0.2-0.2v-4.1c0-1.7-0.8-2.7-2.3-2.7c-1.6,0-2.6,1.2-2.7,1.3
		v5.4c0,0.2-0.1,0.2-0.2,0.2h-0.4c-0.1,0-0.2-0.1-0.2-0.2V440.3z"/>
	<path class="st4" d="M171,445.6c2,0,3.4,1.5,3.4,3.5c0,0.3,0,0.7-0.3,0.7h-6.1c0.1,1.6,1.3,3,3,3c1,0,1.8-0.4,2.2-0.7
		c0.2-0.1,0.2-0.1,0.3,0l0.2,0.3c0.1,0.1,0,0.2-0.1,0.3c-0.4,0.4-1.6,0.9-2.8,0.9c-2.3,0-3.7-1.8-3.7-4
		C167.3,447.4,168.7,445.6,171,445.6z M173.6,449.1c0-1.5-0.9-2.8-2.6-2.8c-1.7,0-2.8,1.2-2.9,2.8H173.6z"/>
	<path class="st4" d="M180.8,440.3c0-0.1,0.1-0.2,0.2-0.2h0.3c0.1,0,0.2,0.1,0.2,0.2v12.8c0,0.2-0.1,0.2-0.2,0.2H181
		c-0.1,0-0.2-0.1-0.2-0.2V440.3z"/>
	<path class="st4" d="M187.8,445.6c2.1,0,3.8,1.8,3.8,4c0,2.2-1.7,4-3.8,4c-2.1,0-3.8-1.8-3.8-4C184,447.4,185.6,445.6,187.8,445.6z
		 M187.8,452.8c1.7,0,3-1.4,3-3.2c0-1.7-1.3-3.2-3-3.2c-1.7,0-3,1.4-3,3.2C184.8,451.4,186.1,452.8,187.8,452.8z"/>
	<path class="st4" d="M194.4,450.7c-0.2-0.3-0.6-1-0.6-1.9c0-1.8,1.3-3.2,3.3-3.2c0.5,0,0.5,0,3.1,0c0.2,0,0.2,0.1,0.2,0.2v0.2
		c0,0.1-0.1,0.2-0.2,0.2l-1.4,0.1c0.4,0.2,1.2,0.9,1.2,2.4c0,1.7-1.2,3.2-3.2,3.2c-1.1,0-1.8-0.4-2.1-0.7c-0.2,0.1-1,0.5-1,1.4
		c0,0.9,0.8,1.1,1.5,1.1h2.8c1.6,0,2.8,0.7,2.8,2.4c0,1.6-1.6,3.1-3.9,3.1c-2.6,0-3.7-1.5-3.7-2.8c0-1.1,0.8-1.7,1.2-2
		c-0.4-0.1-1.5-0.6-1.5-1.7C193.2,451.5,194.2,450.8,194.4,450.7z M197.1,458.5c1.7,0,3-1,3-2.3c0-0.9-0.5-1.7-1.9-1.7h-2.4
		c-0.2,0-1.5,0.6-1.5,1.8C194.3,457.4,195.3,458.5,197.1,458.5z M199.3,448.8c0-1.6-1.1-2.4-2.3-2.4c-1.5,0-2.4,1.1-2.4,2.4
		c0,1.3,0.8,2.4,2.4,2.4C198.4,451.2,199.3,450.2,199.3,448.8z"/>
	<path class="st4" d="M206,445.6c2.1,0,3.8,1.8,3.8,4c0,2.2-1.7,4-3.8,4c-2.1,0-3.8-1.8-3.8-4C202.1,447.4,203.8,445.6,206,445.6z
		 M206,452.8c1.7,0,3-1.4,3-3.2c0-1.7-1.3-3.2-3-3.2c-1.7,0-3,1.4-3,3.2C203,451.4,204.3,452.8,206,452.8z"/>
	<path class="st4" d="M216.1,446c0-0.1,0.1-0.2,0.2-0.2h0.3c0.1,0,0.2,0.1,0.2,0.2v4.1c0,1.8,0.8,2.7,2.3,2.7c1.6,0,2.5-1.2,2.5-1.3
		V446c0-0.2,0.1-0.2,0.2-0.2h0.3c0.1,0,0.2,0.1,0.2,0.2v7.1c0,0.1-0.1,0.2-0.2,0.2h-0.2c-0.2,0-0.2-0.1-0.2-0.2l-0.1-0.7
		c-0.2,0.3-1.1,1.2-2.6,1.2c-2.1,0-3-1.3-3-3.5V446z"/>
	<path class="st4" d="M225,452.5l0.2-0.3c0.1-0.1,0.2-0.1,0.3,0c0.2,0.2,1,0.7,2,0.7c1.1,0,1.8-0.6,1.8-1.3c0-0.9-0.9-1.2-2.1-1.7
		c-1.3-0.5-2.3-1.1-2.3-2.2c0-0.8,0.7-2,2.5-2c1,0,1.8,0.4,2.1,0.6c0.1,0.1,0.2,0.2,0.1,0.4l-0.1,0.2c-0.1,0.1-0.2,0.2-0.4,0.1
		c-0.2-0.1-0.9-0.5-1.7-0.5c-1.2,0-1.6,0.7-1.6,1.2c0,0.8,0.7,1.1,1.8,1.5c1.4,0.5,2.7,1,2.7,2.4c0,1.1-1.2,2.1-2.7,2.1
		c-1.3,0-2.1-0.5-2.5-0.9C225,452.7,224.9,452.6,225,452.5z"/>
	<path class="st4" d="M232.2,441.5c0-0.4,0.3-0.7,0.6-0.7c0.4,0,0.6,0.3,0.6,0.7c0,0.3-0.3,0.6-0.6,0.6
		C232.5,442.1,232.2,441.8,232.2,441.5z M232.5,446c0-0.1,0.1-0.2,0.2-0.2h0.3c0.1,0,0.2,0.1,0.2,0.2v7.1c0,0.2-0.1,0.2-0.2,0.2
		h-0.4c-0.1,0-0.2-0.1-0.2-0.2V446z"/>
	<path class="st4" d="M236.2,446c0-0.1,0.1-0.2,0.3-0.2h0.2c0.1,0,0.2,0.1,0.2,0.2l0.1,0.8c0.2-0.3,1.3-1.2,2.8-1.2
		c2.1,0,3.1,1.3,3.1,3.5v4.1c0,0.1-0.1,0.2-0.2,0.2h-0.3c-0.1,0-0.2-0.1-0.2-0.2v-4.1c0-1.7-0.8-2.7-2.3-2.7c-1.6,0-2.6,1.2-2.7,1.3
		v5.4c0,0.2-0.1,0.2-0.2,0.2h-0.4c-0.1,0-0.2-0.1-0.2-0.2V446z"/>
	<path class="st4" d="M246.1,450.7c-0.2-0.3-0.6-1-0.6-1.9c0-1.8,1.3-3.2,3.3-3.2c0.5,0,0.5,0,3.1,0c0.2,0,0.2,0.1,0.2,0.2v0.2
		c0,0.1-0.1,0.2-0.2,0.2l-1.4,0.1c0.4,0.2,1.2,0.9,1.2,2.4c0,1.7-1.2,3.2-3.2,3.2c-1.1,0-1.8-0.4-2.1-0.7c-0.2,0.1-1,0.5-1,1.4
		c0,0.9,0.8,1.1,1.5,1.1h2.8c1.6,0,2.8,0.7,2.8,2.4c0,1.6-1.6,3.1-3.9,3.1c-2.6,0-3.7-1.5-3.7-2.8c0-1.1,0.8-1.7,1.2-2
		c-0.4-0.1-1.5-0.6-1.5-1.7C244.8,451.5,245.9,450.8,246.1,450.7z M248.8,458.5c1.7,0,3-1,3-2.3c0-0.9-0.5-1.7-1.9-1.7h-2.4
		c-0.2,0-1.5,0.6-1.5,1.8C245.9,457.4,246.9,458.5,248.8,458.5z M251,448.8c0-1.6-1.1-2.4-2.3-2.4c-1.5,0-2.4,1.1-2.4,2.4
		c0,1.3,0.8,2.4,2.4,2.4C250.1,451.2,251,450.2,251,448.8z"/>
	<path class="st4" d="M257.2,453.2L263,440c0-0.1,0.1-0.1,0.2-0.1h0.1c0.1,0,0.2,0,0.2,0.1l5.8,13.2c0,0.1,0,0.2-0.2,0.2h-0.5
		c-0.1,0-0.2-0.1-0.3-0.2l-1.5-3.5h-7.3l-1.5,3.5c0,0.1-0.1,0.2-0.3,0.2h-0.5C257.2,453.4,257.1,453.3,257.2,453.2z M266.5,449
		l-3.2-7.7h0L260,449H266.5z"/>
	<path class="st4" d="M274.1,445.6c1.4,0,2.3,0.8,2.3,0.8v-6c0-0.1,0.1-0.2,0.2-0.2h0.3c0.1,0,0.2,0.1,0.2,0.2v12.8
		c0,0.1-0.1,0.2-0.2,0.2h-0.2c-0.2,0-0.2-0.1-0.3-0.2l-0.1-0.7c-0.2,0.2-1.2,1.1-2.6,1.1c-2,0-3.5-1.8-3.5-4
		C270.3,447.4,271.9,445.6,274.1,445.6z M273.9,452.8c1.7,0,2.5-1.3,2.5-1.3v-4.3c0,0-0.9-0.8-2.3-0.8c-1.7,0-3,1.4-3,3.2
		C271.2,451.4,272.3,452.8,273.9,452.8z"/>
	<path class="st4" d="M283.4,445.6c2.1,0,3.8,1.8,3.8,4c0,2.2-1.7,4-3.8,4c-2.1,0-3.8-1.8-3.8-4
		C279.6,447.4,281.2,445.6,283.4,445.6z M283.4,452.8c1.7,0,3-1.4,3-3.2c0-1.7-1.3-3.2-3-3.2c-1.7,0-3,1.4-3,3.2
		C280.4,451.4,281.7,452.8,283.4,452.8z"/>
	<path class="st4" d="M289.5,440.3c0-0.1,0.1-0.2,0.2-0.2h0.3c0.1,0,0.2,0.1,0.2,0.2v6c0,0,0.9-0.8,2.4-0.8c2.1,0,3.7,1.7,3.7,4
		c0,2.2-1.5,4-3.5,4c-1.5,0-2.4-0.9-2.6-1.1l-0.1,0.7c0,0.2-0.1,0.2-0.3,0.2h-0.2c-0.1,0-0.2-0.1-0.2-0.2V440.3z M292.8,452.8
		c1.6,0,2.8-1.5,2.8-3.2c0-1.8-1.3-3.2-3-3.2c-1.4,0-2.2,0.8-2.2,0.8v4.3C290.4,451.6,291.2,452.8,292.8,452.8z"/>
	<path class="st4" d="M301.9,445.6c2,0,3.4,1.5,3.4,3.5c0,0.3,0,0.7-0.3,0.7H299c0.1,1.6,1.3,3,3,3c1,0,1.8-0.4,2.2-0.7
		c0.2-0.1,0.2-0.1,0.3,0l0.2,0.3c0.1,0.1,0,0.2-0.1,0.3c-0.4,0.4-1.6,0.9-2.8,0.9c-2.3,0-3.7-1.8-3.7-4
		C298.2,447.4,299.6,445.6,301.9,445.6z M304.5,449.1c0-1.5-0.9-2.8-2.6-2.8c-1.7,0-2.8,1.2-2.9,2.8H304.5z"/>
	<path class="st4" d="M312.3,440.3c0-0.1,0.1-0.2,0.2-0.2h0.4c0.1,0,0.2,0.1,0.2,0.2v12.8c0,0.2-0.1,0.2-0.3,0.2h-0.4
		c-0.1,0-0.2-0.1-0.2-0.2V440.3z"/>
	<path class="st4" d="M316.4,440.3c0-0.1,0.1-0.2,0.2-0.2h0.3c0.1,0,0.2,0.1,0.2,0.2v12.8c0,0.2-0.1,0.2-0.2,0.2h-0.4
		c-0.1,0-0.2-0.1-0.2-0.2V440.3z"/>
	<path class="st4" d="M320.1,440.3c0-0.1,0.1-0.2,0.2-0.2h0.3c0.1,0,0.2,0.1,0.2,0.2v12.8c0,0.2-0.1,0.2-0.2,0.2h-0.4
		c-0.1,0-0.2-0.1-0.2-0.2V440.3z"/>
	<path class="st4" d="M323.8,446c0-0.1,0.1-0.2,0.2-0.2h0.3c0.1,0,0.2,0.1,0.2,0.2v4.1c0,1.8,0.8,2.7,2.3,2.7c1.6,0,2.5-1.2,2.5-1.3
		V446c0-0.2,0.1-0.2,0.2-0.2h0.3c0.1,0,0.2,0.1,0.2,0.2v7.1c0,0.1-0.1,0.2-0.2,0.2h-0.2c-0.2,0-0.2-0.1-0.2-0.2l-0.1-0.7
		c-0.2,0.3-1.1,1.2-2.6,1.2c-2.1,0-3-1.3-3-3.5V446z"/>
	<path class="st4" d="M332.6,452.5l0.2-0.3c0.1-0.1,0.2-0.1,0.3,0c0.2,0.2,1,0.7,2,0.7c1.1,0,1.8-0.6,1.8-1.3c0-0.9-0.9-1.2-2.1-1.7
		c-1.3-0.5-2.3-1.1-2.3-2.2c0-0.8,0.7-2,2.5-2c1,0,1.8,0.4,2.1,0.6c0.1,0.1,0.2,0.2,0.1,0.4l-0.1,0.2c-0.1,0.1-0.2,0.2-0.4,0.1
		c-0.2-0.1-0.9-0.5-1.7-0.5c-1.2,0-1.6,0.7-1.6,1.2c0,0.8,0.7,1.1,1.8,1.5c1.4,0.5,2.7,1,2.7,2.4c0,1.1-1.2,2.1-2.7,2.1
		c-1.3,0-2.1-0.5-2.5-0.9C332.6,452.7,332.6,452.6,332.6,452.5z"/>
	<path class="st4" d="M340.4,446.5h-0.9c-0.2,0-0.2-0.1-0.2-0.2V446c0-0.1,0.1-0.2,0.2-0.2h0.9v-2.1c0-0.2,0.1-0.2,0.2-0.2l0.3,0
		c0.1,0,0.2,0.1,0.2,0.2v2.1h2.6c0.2,0,0.2,0.1,0.2,0.2v0.2c0,0.2-0.1,0.2-0.2,0.2h-2.6v4.8c0,0.9,0.1,1.4,1,1.4
		c0.7,0,1.5-0.4,1.7-0.5c0.2-0.1,0.2,0,0.3,0.1l0.1,0.2c0.1,0.1,0.1,0.2-0.1,0.3c-0.3,0.2-1.1,0.7-2.2,0.7c-1.6,0-1.7-0.9-1.7-2.1
		V446.5z"/>
	<path class="st4" d="M346.4,446c0-0.1,0.1-0.2,0.2-0.2h0.2c0.1,0,0.2,0.1,0.2,0.2l0.1,0.8c0.2-0.3,1-1.2,2.4-1.2
		c0.6,0,1,0.2,1.2,0.2c0.2,0.1,0.3,0.2,0.2,0.3l-0.2,0.4c-0.1,0.1-0.2,0.2-0.3,0.1c-0.1,0-0.5-0.2-1-0.2c-1.5,0-2.2,1.2-2.3,1.3v5.4
		c0,0.2-0.1,0.2-0.2,0.2h-0.4c-0.1,0-0.2-0.1-0.2-0.2V446z"/>
	<path class="st4" d="M355.1,448.5c0.9,0,1.7,0.3,1.9,0.3c0-1.7-0.2-2.5-1.7-2.5c-1.3,0-2.1,0.5-2.3,0.5c-0.2,0.1-0.2,0-0.3-0.2
		l-0.1-0.2c-0.1-0.2,0-0.2,0.1-0.3c0.1,0,1-0.6,2.6-0.6c2.3,0,2.4,1.4,2.4,3.3v4.2c0,0.1-0.1,0.2-0.2,0.2h-0.2
		c-0.1,0-0.2-0.1-0.2-0.2l-0.1-0.7c-0.5,0.5-1.4,1.1-2.6,1.1c-1.4,0-2.5-1-2.5-2.5C351.9,449.6,353.1,448.5,355.1,448.5z
		 M354.5,452.8c1.2,0,2.2-0.7,2.5-1.2v-2.1c-0.2-0.1-1-0.4-1.9-0.4c-1.4,0-2.4,0.7-2.4,1.9C352.7,452.1,353.5,452.8,354.5,452.8z"/>
	<path class="st4" d="M361,446.5h-0.9c-0.2,0-0.2-0.1-0.2-0.2V446c0-0.1,0.1-0.2,0.2-0.2h0.9v-2.1c0-0.2,0.1-0.2,0.2-0.2l0.3,0
		c0.1,0,0.2,0.1,0.2,0.2v2.1h2.6c0.2,0,0.2,0.1,0.2,0.2v0.2c0,0.2-0.1,0.2-0.2,0.2h-2.6v4.8c0,0.9,0.1,1.4,1,1.4
		c0.7,0,1.5-0.4,1.7-0.5c0.2-0.1,0.2,0,0.3,0.1l0.1,0.2c0.1,0.1,0.1,0.2-0.1,0.3c-0.3,0.2-1.1,0.7-2.2,0.7c-1.6,0-1.7-0.9-1.7-2.1
		V446.5z"/>
	<path class="st4" d="M370.1,445.6c2.1,0,3.8,1.8,3.8,4c0,2.2-1.7,4-3.8,4c-2.1,0-3.8-1.8-3.8-4C366.3,447.4,368,445.6,370.1,445.6z
		 M370.1,452.8c1.7,0,3-1.4,3-3.2c0-1.7-1.3-3.2-3-3.2c-1.7,0-3,1.4-3,3.2C367.1,451.4,368.4,452.8,370.1,452.8z"/>
	<path class="st4" d="M376.3,446c0-0.1,0.1-0.2,0.2-0.2h0.2c0.1,0,0.2,0.1,0.2,0.2l0.1,0.8c0.2-0.3,1-1.2,2.4-1.2
		c0.6,0,1,0.2,1.2,0.2c0.2,0.1,0.3,0.2,0.2,0.3l-0.2,0.4c-0.1,0.1-0.2,0.2-0.3,0.1c-0.1,0-0.5-0.2-1-0.2c-1.5,0-2.2,1.2-2.3,1.3v5.4
		c0,0.2-0.1,0.2-0.2,0.2h-0.4c-0.1,0-0.2-0.1-0.2-0.2V446z"/>
	<path class="st4" d="M382.7,452.1c0.4,0,0.8,0.3,0.8,0.8c0,0.4-0.3,0.8-0.8,0.8c-0.4,0-0.8-0.3-0.8-0.8
		C381.9,452.4,382.3,452.1,382.7,452.1z"/>
	<path class="st4" d="M53,486.5h-3.6c-0.2,0-0.2-0.1-0.2-0.3v-0.3c0-0.2,0.1-0.2,0.2-0.2h8.2c0.2,0,0.2,0.1,0.2,0.2v0.3
		c0,0.1-0.1,0.2-0.2,0.2h-3.6v12.2c0,0.1-0.1,0.2-0.3,0.2h-0.3c-0.1,0-0.2-0.1-0.2-0.2V486.5z"/>
	<path class="st4" d="M59.3,485.9c0-0.1,0.1-0.2,0.3-0.2h0.3c0.1,0,0.2,0.1,0.2,0.2v6.5c0.2-0.2,1.3-1.2,2.8-1.2
		c2,0,3.1,1.2,3.1,3.5v4.1c0,0.1-0.1,0.2-0.2,0.2h-0.3c-0.1,0-0.2-0.1-0.2-0.2v-4.1c0-1.7-0.8-2.7-2.3-2.7c-1.6,0-2.6,1.2-2.7,1.3
		v5.4c0,0.2-0.1,0.2-0.2,0.2h-0.4c-0.1,0-0.2-0.1-0.2-0.2V485.9z"/>
	<path class="st4" d="M71.9,491.2c2,0,3.4,1.5,3.4,3.5c0,0.3,0,0.7-0.3,0.7h-6.1c0.1,1.6,1.3,3,3,3c1,0,1.8-0.4,2.2-0.7
		c0.2-0.1,0.2-0.1,0.3,0l0.2,0.3c0.1,0.1,0,0.2-0.1,0.3c-0.4,0.4-1.6,0.9-2.8,0.9c-2.3,0-3.7-1.8-3.7-4
		C68.1,493,69.5,491.2,71.9,491.2z M74.5,494.7c0-1.5-0.9-2.8-2.6-2.8c-1.7,0-2.8,1.2-2.9,2.8H74.5z"/>
	<path class="st4" d="M82.1,492.1H81c-0.2,0-0.2-0.1-0.2-0.2v-0.2c0-0.1,0.1-0.2,0.2-0.2h1.1v-2.6c0-2.2,1.2-3.3,2.9-3.3
		c1,0,1.8,0.5,2.1,0.8c0.1,0.1,0.1,0.2,0,0.3l-0.2,0.3c-0.1,0.1-0.2,0.1-0.3,0c-0.3-0.3-1-0.6-1.7-0.6c-1.2,0-2,0.8-2,2.5v2.6h2.8
		c0.2,0,0.2,0.1,0.2,0.2v0.3c0,0.1-0.1,0.2-0.2,0.2H83v6.6c0,0.1-0.1,0.2-0.2,0.2h-0.3c-0.1,0-0.2-0.1-0.2-0.2V492.1z"/>
	<path class="st4" d="M90.9,491.2c2.1,0,3.8,1.8,3.8,4c0,2.2-1.7,4-3.8,4c-2.1,0-3.8-1.8-3.8-4C87,493,88.7,491.2,90.9,491.2z
		 M90.9,498.4c1.7,0,3-1.4,3-3.2c0-1.7-1.3-3.2-3-3.2c-1.7,0-3,1.4-3,3.2C87.9,497,89.2,498.4,90.9,498.4z"/>
	<path class="st4" d="M97,491.6c0-0.1,0.1-0.2,0.3-0.2h0.2c0.1,0,0.2,0.1,0.2,0.2l0.1,0.8c0.2-0.3,1.3-1.2,2.8-1.2
		c2.1,0,3.1,1.3,3.1,3.5v4.1c0,0.1-0.1,0.2-0.2,0.2H103c-0.1,0-0.2-0.1-0.2-0.2v-4.1c0-1.7-0.8-2.7-2.3-2.7c-1.6,0-2.6,1.2-2.7,1.3
		v5.4c0,0.2-0.1,0.2-0.2,0.2h-0.4c-0.1,0-0.2-0.1-0.2-0.2V491.6z"/>
	<path class="st4" d="M106.7,492.1h-0.9c-0.2,0-0.2-0.1-0.2-0.2v-0.3c0-0.1,0.1-0.2,0.2-0.2h0.9v-2.1c0-0.2,0.1-0.2,0.2-0.2l0.3,0
		c0.1,0,0.2,0.1,0.2,0.2v2.1h2.6c0.2,0,0.2,0.1,0.2,0.2v0.2c0,0.2-0.1,0.2-0.2,0.2h-2.6v4.8c0,0.9,0.1,1.4,1,1.4
		c0.7,0,1.5-0.4,1.7-0.5c0.2-0.1,0.2,0,0.3,0.1l0.1,0.2c0.1,0.1,0.1,0.2-0.1,0.3c-0.3,0.2-1.1,0.7-2.2,0.7c-1.6,0-1.7-0.9-1.7-2.1
		V492.1z"/>
	<path class="st4" d="M117.1,492.1h-0.9c-0.2,0-0.2-0.1-0.2-0.2v-0.3c0-0.1,0.1-0.2,0.2-0.2h0.9v-2.1c0-0.2,0.1-0.2,0.2-0.2l0.3,0
		c0.1,0,0.2,0.1,0.2,0.2v2.1h2.6c0.2,0,0.2,0.1,0.2,0.2v0.2c0,0.2-0.1,0.2-0.2,0.2h-2.6v4.8c0,0.9,0.1,1.4,1,1.4
		c0.7,0,1.5-0.4,1.7-0.5c0.2-0.1,0.2,0,0.3,0.1l0.1,0.2c0.1,0.1,0.1,0.2-0.1,0.3c-0.3,0.2-1.1,0.7-2.2,0.7c-1.6,0-1.7-0.9-1.7-2.1
		V492.1z"/>
	<path class="st4" d="M123,485.9c0-0.1,0.1-0.2,0.3-0.2h0.3c0.1,0,0.2,0.1,0.2,0.2v6.5c0.2-0.2,1.3-1.2,2.8-1.2c2,0,3.1,1.2,3.1,3.5
		v4.1c0,0.1-0.1,0.2-0.2,0.2h-0.3c-0.1,0-0.2-0.1-0.2-0.2v-4.1c0-1.7-0.8-2.7-2.3-2.7c-1.6,0-2.6,1.2-2.7,1.3v5.4
		c0,0.2-0.1,0.2-0.2,0.2h-0.4c-0.1,0-0.2-0.1-0.2-0.2V485.9z"/>
	<path class="st4" d="M135,494.1c0.9,0,1.7,0.3,1.9,0.3c0-1.7-0.2-2.5-1.7-2.5c-1.3,0-2.1,0.5-2.3,0.5c-0.2,0.1-0.2,0-0.3-0.2
		l-0.1-0.2c-0.1-0.2,0-0.2,0.1-0.3c0.1,0,1-0.6,2.6-0.6c2.3,0,2.4,1.4,2.4,3.3v4.2c0,0.1-0.1,0.2-0.2,0.2h-0.2
		c-0.1,0-0.2-0.1-0.2-0.2l-0.1-0.7c-0.5,0.5-1.4,1.1-2.6,1.1c-1.4,0-2.5-1-2.5-2.5C131.8,495.2,133,494.1,135,494.1z M134.4,498.4
		c1.2,0,2.2-0.7,2.5-1.2v-2.1c-0.2-0.1-1-0.4-1.9-0.4c-1.4,0-2.4,0.7-2.4,1.9C132.6,497.7,133.4,498.4,134.4,498.4z"/>
	<path class="st4" d="M140.9,492.1H140c-0.2,0-0.2-0.1-0.2-0.2v-0.3c0-0.1,0.1-0.2,0.2-0.2h0.9v-2.1c0-0.2,0.1-0.2,0.2-0.2l0.3,0
		c0.1,0,0.2,0.1,0.2,0.2v2.1h2.6c0.2,0,0.2,0.1,0.2,0.2v0.2c0,0.2-0.1,0.2-0.2,0.2h-2.6v4.8c0,0.9,0.1,1.4,1,1.4
		c0.7,0,1.5-0.4,1.7-0.5c0.2-0.1,0.2,0,0.3,0.1l0.1,0.2c0.1,0.1,0.1,0.2-0.1,0.3c-0.3,0.2-1.1,0.7-2.2,0.7c-1.6,0-1.7-0.9-1.7-2.1
		V492.1z"/>
	<path class="st4" d="M151.5,485.9c0-0.1,0.1-0.2,0.2-0.2h0.4c0.1,0,0.2,0.1,0.2,0.2v12.8c0,0.2-0.1,0.2-0.3,0.2h-0.4
		c-0.1,0-0.2-0.1-0.2-0.2V485.9z"/>
	<path class="st4" d="M159.9,491.6c0-0.1,0.1-0.2,0.2-0.2h0.3c0.1,0,0.2,0.1,0.2,0.2v4.1c0,1.8,0.8,2.7,2.3,2.7
		c1.6,0,2.5-1.2,2.5-1.3v-5.4c0-0.2,0.1-0.2,0.2-0.2h0.3c0.1,0,0.2,0.1,0.2,0.2v7.1c0,0.1-0.1,0.2-0.2,0.2h-0.2
		c-0.2,0-0.2-0.1-0.2-0.2l-0.1-0.7c-0.2,0.3-1.1,1.2-2.6,1.2c-2.1,0-3-1.3-3-3.5V491.6z"/>
	<path class="st4" d="M168.8,498.1l0.2-0.3c0.1-0.1,0.2-0.1,0.3,0c0.2,0.2,1,0.7,2,0.7c1.1,0,1.8-0.6,1.8-1.3c0-0.9-0.9-1.2-2.1-1.7
		c-1.3-0.5-2.3-1.1-2.3-2.2c0-0.8,0.7-2,2.5-2c1,0,1.8,0.4,2.1,0.6c0.1,0.1,0.2,0.2,0.1,0.4l-0.1,0.2c-0.1,0.1-0.2,0.2-0.4,0.1
		c-0.2-0.1-0.9-0.5-1.7-0.5c-1.2,0-1.6,0.7-1.6,1.2c0,0.8,0.7,1.1,1.8,1.5c1.4,0.5,2.7,1,2.7,2.4c0,1.1-1.2,2.1-2.7,2.1
		c-1.3,0-2.1-0.5-2.5-0.9C168.8,498.3,168.7,498.2,168.8,498.1z"/>
	<path class="st4" d="M179.4,491.2c2,0,3.4,1.5,3.4,3.5c0,0.3,0,0.7-0.3,0.7h-6.1c0.1,1.6,1.3,3,3,3c1,0,1.8-0.4,2.2-0.7
		c0.2-0.1,0.2-0.1,0.3,0l0.2,0.3c0.1,0.1,0,0.2-0.1,0.3c-0.4,0.4-1.6,0.9-2.8,0.9c-2.3,0-3.7-1.8-3.7-4
		C175.7,493,177.1,491.2,179.4,491.2z M182,494.7c0-1.5-0.9-2.8-2.6-2.8c-1.7,0-2.8,1.2-2.9,2.8H182z"/>
	<path class="st4" d="M188.3,491.2c1.4,0,2.3,0.8,2.3,0.8v-6c0-0.1,0.1-0.2,0.2-0.2h0.3c0.1,0,0.2,0.1,0.2,0.2v12.8
		c0,0.1-0.1,0.2-0.2,0.2H191c-0.2,0-0.2-0.1-0.3-0.2l-0.1-0.7c-0.2,0.2-1.2,1.1-2.6,1.1c-2,0-3.5-1.8-3.5-4
		C184.5,493,186.1,491.2,188.3,491.2z M188.1,498.4c1.7,0,2.5-1.3,2.5-1.3v-4.3c0,0-0.9-0.8-2.3-0.8c-1.7,0-3,1.4-3,3.2
		C185.4,497,186.5,498.4,188.1,498.4z"/>
	<path class="st4" d="M197.7,491.7c-0.1-0.2-0.1-0.3,0.1-0.3h0.4c0.1,0,0.2,0,0.2,0.2l1.8,6h0l2.3-6.2c0-0.1,0.1-0.2,0.2-0.2h0.1
		c0.1,0,0.2,0.1,0.2,0.2l2.3,6.2h0l1.8-6c0-0.1,0.2-0.2,0.2-0.2h0.4c0.2,0,0.2,0.1,0.1,0.3l-2.3,7.3c0,0.1-0.1,0.2-0.2,0.2h-0.1
		c-0.1,0-0.2-0.1-0.2-0.2l-2.3-6.4h0l-2.3,6.4c0,0.1-0.1,0.2-0.2,0.2h-0.1c-0.1,0-0.2,0-0.2-0.2L197.7,491.7z"/>
	<path class="st4" d="M212.5,494.1c0.9,0,1.7,0.3,1.9,0.3c0-1.7-0.2-2.5-1.7-2.5c-1.3,0-2.1,0.5-2.3,0.5c-0.2,0.1-0.2,0-0.3-0.2
		l-0.1-0.2c-0.1-0.2,0-0.2,0.1-0.3c0.1,0,1-0.6,2.6-0.6c2.3,0,2.4,1.4,2.4,3.3v4.2c0,0.1-0.1,0.2-0.2,0.2h-0.2
		c-0.1,0-0.2-0.1-0.2-0.2l-0.1-0.7c-0.5,0.5-1.4,1.1-2.6,1.1c-1.4,0-2.5-1-2.5-2.5C209.4,495.2,210.6,494.1,212.5,494.1z
		 M211.9,498.4c1.2,0,2.2-0.7,2.5-1.2v-2.1c-0.2-0.1-1-0.4-1.9-0.4c-1.4,0-2.4,0.7-2.4,1.9C210.1,497.7,210.9,498.4,211.9,498.4z"/>
	<path class="st4" d="M217.6,498.1l0.2-0.3c0.1-0.1,0.2-0.1,0.3,0c0.2,0.2,1,0.7,2,0.7c1.1,0,1.8-0.6,1.8-1.3c0-0.9-0.9-1.2-2.1-1.7
		c-1.3-0.5-2.3-1.1-2.3-2.2c0-0.8,0.7-2,2.5-2c1,0,1.8,0.4,2.1,0.6c0.1,0.1,0.2,0.2,0.1,0.4l-0.1,0.2c-0.1,0.1-0.2,0.2-0.4,0.1
		c-0.2-0.1-0.9-0.5-1.7-0.5c-1.2,0-1.6,0.7-1.6,1.2c0,0.8,0.7,1.1,1.8,1.5c1.4,0.5,2.7,1,2.7,2.4c0,1.1-1.2,2.1-2.7,2.1
		c-1.3,0-2.1-0.5-2.5-0.9C217.6,498.3,217.6,498.2,217.6,498.1z"/>
	<path class="st4" d="M229.7,492.1h-1.2c-0.2,0-0.2-0.1-0.2-0.2v-0.2c0-0.1,0.1-0.2,0.2-0.2h1.2v-2.1c0-2.5,1.5-3.6,3.3-3.6
		c1.3,0,2.1,0.6,2.4,0.9c0.5-0.7,1.3-1.1,2.2-1.1c1,0,1.8,0.5,2.1,0.8c0.1,0.1,0.1,0.2,0,0.3l-0.2,0.3c-0.1,0.1-0.2,0.1-0.3,0
		c-0.3-0.3-0.9-0.6-1.7-0.6c-1.2,0-2,0.8-2,2.5v2.6h2.8c0.2,0,0.2,0.1,0.2,0.2v0.3c0,0.1-0.1,0.2-0.2,0.2h-2.8v6.6
		c0,0.2-0.1,0.2-0.3,0.2h-0.3c-0.1,0-0.2-0.1-0.2-0.2v-6.6h-4.3v6.6c0,0.2-0.1,0.2-0.3,0.2H230c-0.1,0-0.2-0.1-0.2-0.2V492.1z
		 M234.8,491.4v-2.6c0-0.6,0.1-1.1,0.2-1.5c-0.3-0.3-1.1-0.8-2.1-0.8c-1.5,0-2.5,0.9-2.5,2.8v2.1H234.8z"/>
	<path class="st4" d="M245.2,504.5c0,0.1-0.1,0.2-0.2,0.2h-0.3c-0.1,0-0.2-0.1-0.2-0.2v-12.8c0-0.2,0.1-0.2,0.3-0.2h0.2
		c0.1,0,0.2,0.1,0.2,0.2l0.1,0.5c0.2-0.2,1.1-0.9,2.5-0.9c2.1,0,3.7,1.8,3.7,4c0,2.2-1.6,4-3.8,4c-1.3,0-2.1-0.6-2.3-0.8V504.5z
		 M247.4,498.4c1.8,0,3.1-1.4,3.1-3.2c0-1.8-1.2-3.2-2.9-3.2c-1.5,0-2.3,1-2.4,1.1v4.4C245.3,497.6,246.1,498.4,247.4,498.4z"/>
	<path class="st4" d="M253.7,491.6c0-0.1,0.1-0.2,0.2-0.2h0.2c0.1,0,0.2,0.1,0.2,0.2l0.1,0.8c0.2-0.3,1-1.2,2.4-1.2
		c0.6,0,1,0.2,1.2,0.2c0.2,0.1,0.3,0.2,0.2,0.3l-0.2,0.4c-0.1,0.1-0.2,0.2-0.3,0.1c-0.1,0-0.5-0.2-1-0.2c-1.5,0-2.2,1.2-2.3,1.3v5.4
		c0,0.2-0.1,0.2-0.2,0.2h-0.4c-0.1,0-0.2-0.1-0.2-0.2V491.6z"/>
	<path class="st4" d="M262.4,494.1c0.9,0,1.7,0.3,1.9,0.3c0-1.7-0.2-2.5-1.7-2.5c-1.3,0-2.1,0.5-2.3,0.5c-0.2,0.1-0.2,0-0.3-0.2
		l-0.1-0.2c-0.1-0.2,0-0.2,0.1-0.3c0.1,0,1-0.6,2.6-0.6c2.3,0,2.4,1.4,2.4,3.3v4.2c0,0.1-0.1,0.2-0.2,0.2h-0.2
		c-0.1,0-0.2-0.1-0.2-0.2l-0.1-0.7c-0.5,0.5-1.4,1.1-2.6,1.1c-1.4,0-2.5-1-2.5-2.5C259.2,495.2,260.4,494.1,262.4,494.1z
		 M261.8,498.4c1.2,0,2.2-0.7,2.5-1.2v-2.1c-0.2-0.1-1-0.4-1.9-0.4c-1.4,0-2.4,0.7-2.4,1.9C260,497.7,260.8,498.4,261.8,498.4z"/>
	<path class="st4" d="M268.3,492.1h-0.9c-0.2,0-0.2-0.1-0.2-0.2v-0.3c0-0.1,0.1-0.2,0.2-0.2h0.9v-2.1c0-0.2,0.1-0.2,0.2-0.2l0.3,0
		c0.1,0,0.2,0.1,0.2,0.2v2.1h2.6c0.2,0,0.2,0.1,0.2,0.2v0.2c0,0.2-0.1,0.2-0.2,0.2h-2.6v4.8c0,0.9,0.1,1.4,1,1.4
		c0.7,0,1.5-0.4,1.7-0.5c0.2-0.1,0.2,0,0.3,0.1l0.1,0.2c0.1,0.1,0.1,0.2-0.1,0.3c-0.3,0.2-1.1,0.7-2.2,0.7c-1.6,0-1.7-0.9-1.7-2.1
		V492.1z"/>
	<path class="st4" d="M277.4,491.2c2,0,3.4,1.5,3.4,3.5c0,0.3,0,0.7-0.3,0.7h-6.1c0.1,1.6,1.3,3,3,3c1,0,1.8-0.4,2.2-0.7
		c0.2-0.1,0.2-0.1,0.3,0l0.2,0.3c0.1,0.1,0,0.2-0.1,0.3c-0.4,0.4-1.6,0.9-2.8,0.9c-2.3,0-3.7-1.8-3.7-4
		C273.6,493,275.1,491.2,277.4,491.2z M280,494.7c0-1.5-0.9-2.8-2.6-2.8c-1.7,0-2.8,1.2-2.9,2.8H280z"/>
	<path class="st4" d="M283.1,491.6c0-0.1,0.1-0.2,0.2-0.2h0.2c0.1,0,0.2,0.1,0.2,0.2l0.1,0.8c0.2-0.3,1-1.2,2.4-1.2
		c0.6,0,1,0.2,1.2,0.2c0.2,0.1,0.3,0.2,0.2,0.3l-0.2,0.4c-0.1,0.1-0.2,0.2-0.3,0.1c-0.1,0-0.5-0.2-1-0.2c-1.5,0-2.2,1.2-2.3,1.3v5.4
		c0,0.2-0.1,0.2-0.2,0.2h-0.4c-0.1,0-0.2-0.1-0.2-0.2V491.6z"/>
	<path class="st4" d="M292.9,498.1l0.2-0.3c0.1-0.1,0.2-0.1,0.3,0c0.2,0.2,1,0.7,2,0.7c1.1,0,1.8-0.6,1.8-1.3c0-0.9-0.9-1.2-2.1-1.7
		c-1.3-0.5-2.3-1.1-2.3-2.2c0-0.8,0.7-2,2.5-2c1,0,1.8,0.4,2.1,0.6c0.1,0.1,0.2,0.2,0.1,0.4l-0.1,0.2c-0.1,0.1-0.2,0.2-0.4,0.1
		c-0.2-0.1-0.9-0.5-1.7-0.5c-1.2,0-1.6,0.7-1.6,1.2c0,0.8,0.7,1.1,1.8,1.5c1.4,0.5,2.7,1,2.7,2.4c0,1.1-1.2,2.1-2.7,2.1
		c-1.3,0-2.1-0.5-2.5-0.9C292.9,498.3,292.8,498.2,292.9,498.1z"/>
	<path class="st4" d="M302.9,494.1c0.9,0,1.7,0.3,1.9,0.3c0-1.7-0.2-2.5-1.7-2.5c-1.3,0-2.1,0.5-2.3,0.5c-0.2,0.1-0.2,0-0.3-0.2
		l-0.1-0.2c-0.1-0.2,0-0.2,0.1-0.3c0.1,0,1-0.6,2.6-0.6c2.3,0,2.4,1.4,2.4,3.3v4.2c0,0.1-0.1,0.2-0.2,0.2h-0.2
		c-0.1,0-0.2-0.1-0.2-0.2l-0.1-0.7c-0.5,0.5-1.4,1.1-2.6,1.1c-1.4,0-2.5-1-2.5-2.5C299.8,495.2,301,494.1,302.9,494.1z M302.3,498.4
		c1.2,0,2.2-0.7,2.5-1.2v-2.1c-0.2-0.1-1-0.4-1.9-0.4c-1.4,0-2.4,0.7-2.4,1.9C300.5,497.7,301.3,498.4,302.3,498.4z"/>
	<path class="st4" d="M308.5,491.6c0-0.1,0.1-0.2,0.3-0.2h0.2c0.1,0,0.2,0.1,0.2,0.2l0.1,0.8c0.2-0.3,1.3-1.2,2.8-1.2
		c2.1,0,3.1,1.3,3.1,3.5v4.1c0,0.1-0.1,0.2-0.2,0.2h-0.3c-0.1,0-0.2-0.1-0.2-0.2v-4.1c0-1.7-0.8-2.7-2.3-2.7c-1.6,0-2.6,1.2-2.7,1.3
		v5.4c0,0.2-0.1,0.2-0.2,0.2h-0.4c-0.1,0-0.2-0.1-0.2-0.2V491.6z"/>
	<path class="st4" d="M317.4,498.1l0.2-0.3c0.1-0.1,0.2-0.1,0.3,0c0.2,0.2,1,0.7,2,0.7c1.1,0,1.8-0.6,1.8-1.3c0-0.9-0.9-1.2-2.1-1.7
		c-1.3-0.5-2.3-1.1-2.3-2.2c0-0.8,0.7-2,2.5-2c1,0,1.8,0.4,2.1,0.6c0.1,0.1,0.2,0.2,0.1,0.4l-0.1,0.2c-0.1,0.1-0.2,0.2-0.4,0.1
		c-0.2-0.1-0.9-0.5-1.7-0.5c-1.2,0-1.6,0.7-1.6,1.2c0,0.8,0.7,1.1,1.8,1.5c1.4,0.5,2.7,1,2.7,2.4c0,1.1-1.2,2.1-2.7,2.1
		c-1.3,0-2.1-0.5-2.5-0.9C317.4,498.3,317.4,498.2,317.4,498.1z"/>
	<path class="st4" d="M331.6,494.1c0.9,0,1.7,0.3,1.9,0.3c0-1.7-0.2-2.5-1.7-2.5c-1.3,0-2.1,0.5-2.3,0.5c-0.2,0.1-0.2,0-0.3-0.2
		l-0.1-0.2c-0.1-0.2,0-0.2,0.1-0.3c0.1,0,1-0.6,2.6-0.6c2.3,0,2.4,1.4,2.4,3.3v4.2c0,0.1-0.1,0.2-0.2,0.2h-0.2
		c-0.1,0-0.2-0.1-0.2-0.2l-0.1-0.7c-0.5,0.5-1.4,1.1-2.6,1.1c-1.4,0-2.5-1-2.5-2.5C328.4,495.2,329.6,494.1,331.6,494.1z M331,498.4
		c1.2,0,2.2-0.7,2.5-1.2v-2.1c-0.2-0.1-1-0.4-1.9-0.4c-1.4,0-2.4,0.7-2.4,1.9C329.2,497.7,330,498.4,331,498.4z"/>
	<path class="st4" d="M337.1,491.6c0-0.1,0.1-0.2,0.3-0.2h0.2c0.1,0,0.2,0.1,0.2,0.2l0.1,0.8c0.2-0.3,1.3-1.2,2.8-1.2
		c2.1,0,3.1,1.3,3.1,3.5v4.1c0,0.1-0.1,0.2-0.2,0.2h-0.3c-0.1,0-0.2-0.1-0.2-0.2v-4.1c0-1.7-0.8-2.7-2.3-2.7c-1.6,0-2.6,1.2-2.7,1.3
		v5.4c0,0.2-0.1,0.2-0.2,0.2h-0.4c-0.1,0-0.2-0.1-0.2-0.2V491.6z"/>
	<path class="st4" d="M349.7,491.2c1.4,0,2.3,0.8,2.3,0.8v-6c0-0.1,0.1-0.2,0.2-0.2h0.3c0.1,0,0.2,0.1,0.2,0.2v12.8
		c0,0.1-0.1,0.2-0.2,0.2h-0.2c-0.2,0-0.2-0.1-0.3-0.2l-0.1-0.7c-0.2,0.2-1.2,1.1-2.6,1.1c-2,0-3.5-1.8-3.5-4
		C346,493,347.6,491.2,349.7,491.2z M349.6,498.4c1.7,0,2.5-1.3,2.5-1.3v-4.3c0,0-0.9-0.8-2.3-0.8c-1.7,0-3,1.4-3,3.2
		C346.8,497,348,498.4,349.6,498.4z"/>
	<path class="st4" d="M360.5,485.9c0-0.1,0.1-0.2,0.2-0.2h7.6c0.1,0,0.2,0.1,0.2,0.2v0.3c0,0.1-0.1,0.2-0.2,0.2h-7v5.2h6
		c0.1,0,0.2,0.1,0.2,0.2v0.3c0,0.1-0.1,0.2-0.2,0.2h-6v5.6h7c0.1,0,0.2,0.1,0.2,0.2v0.3c0,0.1-0.1,0.2-0.2,0.2h-7.6
		c-0.1,0-0.2-0.1-0.2-0.2V485.9z"/>
	<path class="st4" d="M370.9,491.6c0-0.1,0.1-0.2,0.2-0.2h0.3c0.1,0,0.2,0.1,0.2,0.2v4.1c0,1.8,0.8,2.7,2.3,2.7
		c1.6,0,2.5-1.2,2.5-1.3v-5.4c0-0.2,0.1-0.2,0.2-0.2h0.3c0.1,0,0.2,0.1,0.2,0.2v7.1c0,0.1-0.1,0.2-0.2,0.2h-0.2
		c-0.2,0-0.2-0.1-0.2-0.2l-0.1-0.7c-0.2,0.3-1.1,1.2-2.6,1.2c-2.1,0-3-1.3-3-3.5V491.6z"/>
	<path class="st4" d="M380.2,491.6c0-0.1,0.1-0.2,0.2-0.2h0.2c0.1,0,0.2,0.1,0.2,0.2l0.1,0.8c0.2-0.3,1-1.2,2.4-1.2
		c0.6,0,1,0.2,1.2,0.2c0.2,0.1,0.3,0.2,0.2,0.3l-0.2,0.4c-0.1,0.1-0.2,0.2-0.3,0.1c-0.1,0-0.5-0.2-1-0.2c-1.5,0-2.2,1.2-2.3,1.3v5.4
		c0,0.2-0.1,0.2-0.2,0.2h-0.4c-0.1,0-0.2-0.1-0.2-0.2V491.6z"/>
	<path class="st4" d="M389.5,491.2c2.1,0,3.8,1.8,3.8,4c0,2.2-1.7,4-3.8,4c-2.1,0-3.8-1.8-3.8-4C385.7,493,387.4,491.2,389.5,491.2z
		 M389.5,498.4c1.7,0,3-1.4,3-3.2c0-1.7-1.3-3.2-3-3.2c-1.7,0-3,1.4-3,3.2C386.5,497,387.8,498.4,389.5,498.4z"/>
	<path class="st4" d="M396.5,504.5c0,0.1-0.1,0.2-0.2,0.2h-0.3c-0.1,0-0.2-0.1-0.2-0.2v-12.8c0-0.2,0.1-0.2,0.3-0.2h0.2
		c0.1,0,0.2,0.1,0.2,0.2l0.1,0.5c0.2-0.2,1.1-0.9,2.5-0.9c2.1,0,3.7,1.8,3.7,4c0,2.2-1.6,4-3.8,4c-1.3,0-2.1-0.6-2.3-0.8V504.5z
		 M398.7,498.4c1.8,0,3.1-1.4,3.1-3.2c0-1.8-1.2-3.2-2.9-3.2c-1.5,0-2.3,1-2.4,1.1v4.4C396.5,497.6,397.4,498.4,398.7,498.4z"/>
	<path class="st4" d="M407.5,494.1c0.9,0,1.7,0.3,1.9,0.3c0-1.7-0.2-2.5-1.7-2.5c-1.3,0-2.1,0.5-2.3,0.5c-0.2,0.1-0.2,0-0.3-0.2
		l-0.1-0.2c-0.1-0.2,0-0.2,0.1-0.3c0.1,0,1-0.6,2.6-0.6c2.3,0,2.4,1.4,2.4,3.3v4.2c0,0.1-0.1,0.2-0.2,0.2h-0.2
		c-0.1,0-0.2-0.1-0.2-0.2l-0.1-0.7c-0.5,0.5-1.4,1.1-2.6,1.1c-1.4,0-2.5-1-2.5-2.5C404.3,495.2,405.5,494.1,407.5,494.1z
		 M406.9,498.4c1.2,0,2.2-0.7,2.5-1.2v-2.1c-0.2-0.1-1-0.4-1.9-0.4c-1.4,0-2.4,0.7-2.4,1.9C405.1,497.7,405.9,498.4,406.9,498.4z"/>
	<path class="st4" d="M413.7,497.7c0.4,0,0.8,0.3,0.8,0.8c0,0.4-0.3,0.8-0.8,0.8c-0.4,0-0.8-0.3-0.8-0.8
		C412.9,498,413.3,497.7,413.7,497.7z"/>
</g>
<g>
	<path class="st4" d="M73.7,583.7c0,0.5,0.1,1.5,1.1,1.5c0.9,0,1.1-0.8,1.1-1.5v-0.9c0-0.1,0.1-0.2,0.2-0.2h2.2c0.1,0,0.2,0,0.2,0.2
		v1.2c0,2.2-1.3,3.9-3.8,3.9c-2.5,0-3.8-1.8-3.8-3.9v-10.1c0-2.1,1.3-3.9,3.8-3.9c2.7,0,3.8,1.6,3.8,3.9v0.9c0,0.1-0.1,0.2-0.2,0.2
		h-2.2c-0.1,0-0.2,0-0.2-0.2V574c0-0.6-0.2-1.5-1.1-1.5c-1,0-1.1,1-1.1,1.5V583.7z"/>
	<path class="st4" d="M80.2,587.6c-0.1,0-0.2-0.1-0.2-0.2v-17.1c0-0.1,0.1-0.2,0.2-0.2h2.2c0.1,0,0.2,0.1,0.2,0.2v14.8h4.8
		c0.1,0,0.2,0.1,0.2,0.2v2.1c0,0.2-0.1,0.2-0.2,0.2H80.2z"/>
	<path class="st4" d="M88.8,587.6c-0.1,0-0.2-0.1-0.2-0.2v-17.1c0-0.1,0.1-0.2,0.2-0.2h2.2c0.1,0,0.2,0.1,0.2,0.2v17.1
		c0,0.2-0.1,0.2-0.2,0.2H88.8z"/>
	<path class="st4" d="M95.8,583.7c0,0.5,0.1,1.5,1.1,1.5c0.9,0,1.1-0.8,1.1-1.5v-0.9c0-0.1,0.1-0.2,0.2-0.2h2.2c0.1,0,0.2,0,0.2,0.2
		v1.2c0,2.2-1.3,3.9-3.8,3.9c-2.5,0-3.8-1.8-3.8-3.9v-10.1c0-2.1,1.3-3.9,3.8-3.9c2.7,0,3.8,1.6,3.8,3.9v0.9c0,0.1-0.1,0.2-0.2,0.2
		h-2.2c-0.1,0-0.2,0-0.2-0.2V574c0-0.6-0.2-1.5-1.1-1.5c-1,0-1.1,1-1.1,1.5V583.7z"/>
	<path class="st4" d="M107.5,587.6c-0.1,0-0.2-0.1-0.2-0.2l-2.5-6.8v6.8c0,0.2-0.1,0.2-0.2,0.2h-2.2c-0.1,0-0.2-0.1-0.2-0.2v-17.1
		c0-0.1,0.1-0.2,0.2-0.2h2.2c0.1,0,0.2,0.1,0.2,0.2v6.8l2.5-6.8c0-0.1,0.1-0.2,0.2-0.2h2.4c0.1,0,0.2,0.1,0.1,0.2l-3,8.3
		c-0.1,0.1-0.1,0.2,0,0.4l3,8.3c0.1,0.1,0,0.2-0.1,0.2H107.5z"/>
	<path class="st4" d="M118.1,580v7.4c0,0.2-0.1,0.2-0.2,0.2h-2.2c-0.1,0-0.2-0.1-0.2-0.2v-17.1c0-0.1,0.1-0.2,0.2-0.2h7.2
		c0.1,0,0.2,0.1,0.2,0.2v2.1c0,0.1-0.1,0.2-0.2,0.2h-4.8v4.9h3.2c0.1,0,0.2,0.1,0.2,0.2v2.1c0,0.2-0.1,0.2-0.2,0.2H118.1z"/>
	<path class="st4" d="M127.4,587.8c-2.6,0-3.8-1.8-3.8-3.9v-10.1c0-2.1,1.3-3.9,3.8-3.9c2.7,0,3.8,1.6,3.8,3.9v10.1
		C131.2,586,130,587.8,127.4,587.8z M126.3,583.8c0,0.7,0.2,1.5,1.1,1.5c1,0,1.1-0.8,1.1-1.5v-9.9c0-0.6-0.2-1.5-1.1-1.5
		c-1,0-1.1,1-1.1,1.5V583.8z"/>
	<path class="st4" d="M137.9,587.6c-0.1,0-0.2-0.1-0.2-0.2l-1.9-7.4v7.4c0,0.2-0.1,0.2-0.2,0.2h-2.2c-0.1,0-0.2-0.1-0.2-0.2v-17.1
		c0-0.1,0.1-0.2,0.2-0.2h3.3c3.1,0,4.1,1.4,4.1,4v1.8c0,1.6-0.6,3.2-2.3,3.8l2.2,7.7c0,0.2-0.1,0.2-0.2,0.2H137.9z M135.8,572.6v4.9
		h0.9c1.3,0,1.4-1,1.4-1.7v-1.5c0-0.8-0.2-1.7-1.5-1.7H135.8z"/>
	<path class="st4" d="M155.1,587.6c-0.1,0-0.2-0.1-0.2-0.2l-1.9-10.8l-2,10.8c0,0.1,0,0.2-0.2,0.2h-2.1c-0.1,0-0.2-0.1-0.2-0.2
		l-3.3-17.1c0-0.1,0.1-0.2,0.2-0.2h2.2c0.1,0,0.2,0.1,0.2,0.2l1.9,10.6l1.8-10.6c0-0.2,0.1-0.2,0.2-0.2h2.2c0.1,0,0.2,0.1,0.3,0.2
		l1.8,10.6l1.9-10.6c0-0.1,0.1-0.2,0.2-0.2h2.3c0.1,0,0.2,0.1,0.2,0.2l-3.3,17.1c0,0.1-0.1,0.2-0.2,0.2H155.1z"/>
	<path class="st4" d="M161.8,587.6c-0.1,0-0.2-0.1-0.2-0.2v-17.1c0-0.1,0.1-0.2,0.2-0.2h7.2c0.1,0,0.2,0.1,0.2,0.2v2.1
		c0,0.1-0.1,0.2-0.2,0.2h-4.8v4.9h3.6c0.1,0,0.2,0.1,0.2,0.2v2.1c0,0.2-0.1,0.2-0.2,0.2h-3.6v5.1h4.8c0.1,0,0.2,0.1,0.2,0.2v2.1
		c0,0.2-0.1,0.2-0.2,0.2H161.8z"/>
	<path class="st4" d="M178.3,574.3v1.7c0,1.2-0.4,2.3-1.2,2.7c0.9,0.5,1.2,1.5,1.2,2.8v2.1c0,2.1-1.1,4-4.1,4h-3h0h-0.3
		c-0.1,0-0.2-0.1-0.2-0.2v-17.1c0-0.1,0.1-0.2,0.2-0.2h0.3h0h3C177.2,570.1,178.3,571.7,178.3,574.3z M173.4,572.6v4.9h0.9
		c1.3,0,1.4-1,1.4-1.6v-1.5c0-0.8-0.2-1.7-1.5-1.7H173.4z M173.4,580v5.1h0.9c1.3,0,1.4-1,1.4-1.7v-1.8c0-0.8-0.4-1.7-1.4-1.7H173.4
		z"/>
	<path class="st4" d="M183.4,585.2c1,0,1.1-0.8,1.1-1.5V582c0-1-0.5-1.9-1.8-2.2c-2.3-0.5-3.2-2.5-3.2-4.4v-1.7
		c0-2.1,1.3-3.9,3.8-3.9c2.7,0,3.8,1.6,3.8,3.9v0.9c0,0.1-0.1,0.2-0.2,0.2h-2.2c-0.1,0-0.2,0-0.2-0.2V574c0-0.6-0.2-1.5-1.1-1.5
		c-1,0-1.1,1-1.1,1.5v1.3c0,1,0.5,1.9,1.8,2.2c2.3,0.6,3.2,2.5,3.2,4.4v2c0,2.1-1.2,3.9-3.8,3.9c-2.6,0-3.8-1.8-3.8-3.9v-1.2
		c0-0.1,0.1-0.2,0.2-0.2h2.2c0.1,0,0.2,0,0.2,0.2v0.9C182.2,584.4,182.4,585.2,183.4,585.2z"/>
	<path class="st4" d="M189,587.6c-0.1,0-0.2-0.1-0.2-0.2v-17.1c0-0.1,0.1-0.2,0.2-0.2h2.2c0.1,0,0.2,0.1,0.2,0.2v17.1
		c0,0.2-0.1,0.2-0.2,0.2H189z"/>
	<path class="st4" d="M197.7,572.6v14.8c0,0.2-0.1,0.2-0.2,0.2h-2.3c-0.1,0-0.2-0.1-0.2-0.2v-14.8h-2.3c-0.2,0-0.2-0.1-0.2-0.2v-2.1
		c0-0.1,0.1-0.2,0.2-0.2h7.2c0.1,0,0.2,0.1,0.2,0.2v2.1c0,0.1-0.1,0.2-0.2,0.2H197.7z"/>
	<path class="st4" d="M201.6,587.6c-0.1,0-0.2-0.1-0.2-0.2v-17.1c0-0.1,0.1-0.2,0.2-0.2h7.2c0.1,0,0.2,0.1,0.2,0.2v2.1
		c0,0.1-0.1,0.2-0.2,0.2H204v4.9h3.6c0.1,0,0.2,0.1,0.2,0.2v2.1c0,0.2-0.1,0.2-0.2,0.2H204v5.1h4.8c0.1,0,0.2,0.1,0.2,0.2v2.1
		c0,0.2-0.1,0.2-0.2,0.2H201.6z"/>
</g>
<path class="st5" d="M217.2,604H68.8C56.2,604,46,593.8,46,581.2v-8.4c0-12.6,10.2-22.8,22.8-22.8h148.4c12.6,0,22.8,10.2,22.8,22.8
	v8.4C240,593.8,229.8,604,217.2,604z"/>
<image style="overflow:visible;" width="2560" height="1405" xlink:href="ak1.png"  transform="matrix(0.343 0 0 0.343 750 423)">
</image>
<rect x="750" y="355" class="st6" width="878" height="32"/>
<ellipse class="st7" cx="766.3" cy="371" rx="9.6" ry="10"/>
<rect x="813.3" y="397" class="st8" width="666.2" height="17"/>
</svg>
