<script language="JavaScript"> document.addEventListener("contextmenu", function(e){ e.preventDefault(); }, false); </script>
<svg version="1.1" xmlns="http://www.w3.org/2000/svg" xmlns:xlink="http://www.w3.org/1999/xlink" x="0px" y="0px"
	 viewBox="0 0 688.5 84" style="enable-background:new 0 0 688.5 84;" xml:space="preserve">
<style type="text/css">
	.st0{fill:none;stroke:#F7F5EC;stroke-width:8;stroke-miterlimit:10;}
	.st1{fill:none;stroke:#DDC23A;stroke-width:8;stroke-miterlimit:10;}
</style>
<defs>
	<style>
	.st1 {
	stroke-dasharray: 2000;
	stroke-dashoffset:0;
	-webkit-animation:dash 30s linear forwards;
	-o-animation:dash 30s linear forwards;
	-moz-animation:dash 30s linear forwards;
	animation:dash 30s linear forwards;

	}
	@-webkit-keyframes dash{

	from{
		stroke-dashoffset:2000;
	}
	to{
		stroke-dashoffset:0;
	}
	}
	</style>
</defs>
<g id="Layer_1">
	<g>
		<path d="M605.5,61.2l0.4-0.4c0.3-0.3,0.4-0.1,0.6,0.1c0.3,0.3,0.9,0.9,1.6,0.9c1,0,2.1-0.7,2.1-2.5v-8.1c0-0.2,0.1-0.3,0.3-0.3
			h0.7c0.2,0,0.3,0.2,0.3,0.3v8c0,2.4-1.4,3.7-3.4,3.7c-1.5,0-2.3-0.9-2.6-1.3C605.4,61.5,605.4,61.4,605.5,61.2z"/>
		<path d="M616.2,58.4c0.7,0,1.4,0.2,1.4,0.2c0-1.3-0.1-1.8-1.1-1.8c-0.9,0-1.7,0.3-2,0.4c-0.2,0.1-0.3,0-0.3-0.2l-0.1-0.4
			c-0.1-0.2,0-0.3,0.2-0.4c0.1-0.1,1.1-0.4,2.4-0.4c1.7,0,2.2,0.9,2.2,2.9v3.8c0,0.2-0.2,0.3-0.3,0.3h-0.3c-0.2,0-0.2-0.1-0.3-0.3
			l-0.1-0.5c-0.4,0.4-1.1,0.9-2.1,0.9c-1.2,0-2.1-0.9-2.1-2.2C613.4,59.4,614.4,58.4,616.2,58.4z M615.7,61.9c0.9,0,1.6-0.5,1.9-1
			v-1.3c-0.2-0.1-0.7-0.3-1.4-0.3c-1,0-1.6,0.5-1.6,1.4C614.5,61.4,615,61.9,615.7,61.9z"/>
		<path d="M620.1,56.4c-0.1-0.2,0-0.4,0.3-0.4h0.5c0.2,0,0.3,0.1,0.3,0.2l2.1,4.9h0l2.2-4.9c0.1-0.1,0.2-0.2,0.3-0.2h0.4
			c0.3,0,0.4,0.2,0.3,0.4l-2.9,6.4c0,0.1-0.1,0.2-0.3,0.2h-0.1c-0.2,0-0.3-0.1-0.3-0.2L620.1,56.4z"/>
		<path d="M630.3,58.4c0.7,0,1.4,0.2,1.4,0.2c0-1.3-0.1-1.8-1.1-1.8c-0.9,0-1.7,0.3-2,0.4c-0.2,0.1-0.3,0-0.3-0.2l-0.1-0.4
			c-0.1-0.2,0-0.3,0.2-0.4c0.1-0.1,1.1-0.4,2.4-0.4c1.7,0,2.2,0.9,2.2,2.9v3.8c0,0.2-0.2,0.3-0.3,0.3h-0.3c-0.2,0-0.2-0.1-0.3-0.3
			l-0.1-0.5c-0.4,0.4-1.1,0.9-2.1,0.9c-1.2,0-2.1-0.9-2.1-2.2C627.6,59.4,628.5,58.4,630.3,58.4z M629.8,61.9c0.9,0,1.6-0.5,1.9-1
			v-1.3c-0.2-0.1-0.7-0.3-1.4-0.3c-1,0-1.6,0.5-1.6,1.4C628.6,61.4,629.1,61.9,629.8,61.9z"/>
		<path d="M634.8,61.8c0.1-0.1,0.2-0.3,0.2-0.4c0.1-0.1,0.3-0.2,0.5-0.1c0,0,0.7,0.6,1.6,0.6c0.7,0,1.1-0.4,1.1-0.8
			c0-0.6-0.5-0.9-1.5-1.4c-0.9-0.4-1.9-1-1.9-2.2c0-0.7,0.6-1.8,2.2-1.8c0.9,0,1.6,0.3,1.9,0.5c0.2,0.1,0.2,0.3,0.1,0.5l-0.1,0.3
			c-0.1,0.2-0.3,0.2-0.5,0.2c0,0-0.7-0.4-1.4-0.4c-0.8,0-1,0.4-1,0.7c0,0.6,0.6,0.8,1.3,1.2c1.2,0.6,2.2,1.1,2.2,2.3
			c0,1-1,1.9-2.3,1.9c-1.1,0-1.8-0.5-2.2-0.8C634.8,62.1,634.7,61.9,634.8,61.8z"/>
		<path d="M644.2,55.8c1,0,1.8,0.4,2.4,1.2c0.1,0.2,0.1,0.4-0.1,0.5l-0.3,0.3c-0.3,0.2-0.3,0.1-0.5-0.1c-0.3-0.4-0.9-0.7-1.6-0.7
			c-1.3,0-2.3,1.1-2.3,2.4c0,1.4,1,2.4,2.2,2.4c1,0,1.4-0.5,1.8-0.9c0.2-0.2,0.3-0.2,0.5,0l0.2,0.1c0.2,0.1,0.2,0.3,0.1,0.5
			c-0.5,0.8-1.4,1.4-2.6,1.4c-1.9,0-3.5-1.5-3.5-3.6C640.7,57.4,642.4,55.8,644.2,55.8z"/>
		<path d="M648.7,56.3c0-0.2,0.2-0.3,0.3-0.3h0.3c0.1,0,0.3,0.1,0.3,0.2l0.1,0.5c0,0,0.6-0.9,2-0.9c0.5,0,1.4,0.1,1.2,0.6l-0.2,0.6
			c-0.1,0.2-0.2,0.2-0.4,0.2c-0.2-0.1-0.4-0.1-0.7-0.1c-1.3,0-1.9,1-1.9,1v4.5c0,0.2-0.2,0.3-0.3,0.3h-0.5c-0.2,0-0.3-0.2-0.3-0.3
			V56.3z"/>
		<path d="M654.2,52c0-0.5,0.4-0.8,0.8-0.8c0.5,0,0.8,0.4,0.8,0.8c0,0.4-0.4,0.8-0.8,0.8C654.5,52.8,654.2,52.5,654.2,52z
			 M654.4,56.3c0-0.2,0.2-0.3,0.3-0.3h0.5c0.2,0,0.3,0.2,0.3,0.3v6.2c0,0.2-0.2,0.3-0.3,0.3h-0.5c-0.2,0-0.3-0.2-0.3-0.3V56.3z"/>
		<path d="M659.2,67.5c0,0.2-0.2,0.3-0.3,0.3h-0.5c-0.2,0-0.3-0.2-0.3-0.3V56.3c0-0.2,0.2-0.3,0.3-0.3h0.4c0.2,0,0.2,0.1,0.3,0.2
			l0.1,0.3c0,0,0.7-0.7,2-0.7c1.9,0,3.2,1.6,3.2,3.6c0,2-1.4,3.6-3.3,3.6c-1.1,0-1.8-0.6-1.8-0.6V67.5z M660.9,61.8
			c1.3,0,2.2-1.1,2.2-2.4c0-1.3-0.8-2.5-2.1-2.5c-1.1,0-1.7,0.8-1.7,0.8v3.5C659.2,61.2,659.9,61.8,660.9,61.8z"/>
		<path d="M666.6,57h-0.9c-0.2,0-0.3-0.2-0.3-0.3v-0.4c0-0.2,0.1-0.3,0.3-0.3h0.9v-1.9c0-0.2,0.2-0.3,0.3-0.3l0.5,0
			c0.2,0,0.3,0.2,0.3,0.3V56h2c0.2,0,0.3,0.1,0.3,0.3v0.4c0,0.2-0.1,0.3-0.3,0.3h-2v4c0,0.7,0.2,0.8,0.6,0.8c0.4,0,1-0.3,1.2-0.4
			c0.3-0.1,0.3,0,0.4,0.1l0.3,0.4c0.1,0.2,0.1,0.3-0.1,0.4c-0.2,0.2-1.2,0.6-2,0.6c-1.4,0-1.6-0.8-1.6-1.9V57z"/>
	</g>
</g>
<g id="html">
</g>
<g id="css">
</g>
<g id="javascript">
	<g id="_x31_00_2_">
		<line class="st0" x1="15.3" y1="23.7" x2="670.5" y2="23.7"/>
	</g>
	<g id="_x36_0_2_">
		<line class="st1" x1="15.3" y1="23.7" x2="248.7" y2="23.7"/>
	</g>
</g>
<g id="php">
</g>
<g id="SQL">
</g>
<g id="ap">
</g>
<g id="ai">
</g>
<g id="aid">
</g>
<g id="Layer_10">
</g>
</svg>
