<?xml version="1.0" encoding="utf-8"?>
<!-- Generator: Adobe Illustrator 21.0.0, SVG Export Plug-In . SVG Version: 6.00 Build 0)  -->
<svg version="1.1" xmlns="http://www.w3.org/2000/svg" xmlns:xlink="http://www.w3.org/1999/xlink" x="0px" y="0px"
	 viewBox="0 0 676.4 70.2" style="enable-background:new 0 0 676.4 70.2;" xml:space="preserve">
<style type="text/css">
	.st0{fill:none;stroke:#F7F5EC;stroke-width:8;stroke-miterlimit:10;}
	.st1{fill:none;stroke:#DDC23A;stroke-width:8;stroke-miterlimit:10;}
</style>
<defs>
	<style>
	.st1 {
	stroke-dasharray: 2000;
	stroke-dashoffset:0;
	-webkit-animation:dash 30s linear forwards;
	-o-animation:dash 30s linear forwards;
	-moz-animation:dash 30s linear forwards;
	animation:dash 30s linear forwards;

	}
	@-webkit-keyframes dash{

	from{
		stroke-dashoffset:2000;
	}
	to{
		stroke-dashoffset:0;
	}
	}
	</style>
</defs>
<g id="Layer_1">
	<g>
		<path d="M549.4,51.8l5.2-11.4c0.1-0.1,0.1-0.2,0.3-0.2h0.2c0.2,0,0.2,0.1,0.3,0.2l5.1,11.4c0.1,0.2,0,0.4-0.3,0.4h-0.7
			c-0.2,0-0.3-0.1-0.3-0.2l-1.3-2.8h-6l-1.2,2.8c0,0.1-0.1,0.2-0.3,0.2h-0.7C549.5,52.3,549.3,52.1,549.4,51.8z M557.5,48.2
			c-0.8-1.9-1.6-3.7-2.5-5.6h-0.1l-2.5,5.6H557.5z"/>
		<path d="M564.6,45.3c1.1,0,1.8,0.4,1.8,0.4v-5c0-0.2,0.2-0.3,0.3-0.3h0.5c0.2,0,0.3,0.2,0.3,0.3V52c0,0.2-0.2,0.3-0.3,0.3h-0.4
			c-0.2,0-0.3-0.1-0.3-0.3l-0.1-0.5c0,0-0.8,0.9-2.1,0.9c-1.7,0-3.1-1.6-3.1-3.6C561.3,46.9,562.5,45.3,564.6,45.3z M564.5,51.4
			c1.2,0,1.9-1.1,1.9-1.1v-3.4c0,0-0.7-0.4-1.6-0.4c-1.5,0-2.2,1.1-2.2,2.4C562.5,50.2,563.3,51.4,564.5,51.4z"/>
		<path d="M572.9,45.3c1.9,0,3.4,1.6,3.4,3.6c0,2-1.5,3.6-3.4,3.6s-3.4-1.6-3.4-3.6C569.5,46.9,571,45.3,572.9,45.3z M572.9,51.3
			c1.2,0,2.2-1.1,2.2-2.5c0-1.3-1-2.4-2.2-2.4s-2.2,1.1-2.2,2.4C570.7,50.2,571.6,51.3,572.9,51.3z"/>
		<path d="M578.2,40.7c0-0.2,0.2-0.3,0.3-0.3h0.5c0.2,0,0.3,0.2,0.3,0.3v5c0,0,0.7-0.4,1.8-0.4c2,0,3.3,1.6,3.3,3.6
			c0,2-1.4,3.6-3.1,3.6c-1.3,0-2.1-0.9-2.1-0.9l-0.1,0.5c0,0.2-0.1,0.3-0.3,0.3h-0.4c-0.2,0-0.3-0.2-0.3-0.3V40.7z M581.3,51.4
			c1.2,0,2-1.2,2-2.5c0-1.4-0.7-2.4-2.2-2.4c-0.9,0-1.6,0.4-1.6,0.4v3.4C579.4,50.3,580,51.4,581.3,51.4z"/>
		<path d="M589.2,45.3c1.8,0,3.1,1.3,3.1,3.1c0,0.1,0,0.3,0,0.5c0,0.2-0.2,0.3-0.3,0.3h-4.9c0.1,1.1,1.1,2.2,2.3,2.2
			c0.7,0,1.3-0.3,1.7-0.5c0.2-0.1,0.3-0.2,0.5,0c0.1,0.1,0.2,0.3,0.3,0.4c0.1,0.2,0.2,0.3-0.1,0.4c-0.4,0.3-1.3,0.8-2.5,0.8
			c-2.1,0-3.3-1.6-3.3-3.6C585.9,47,587.2,45.3,589.2,45.3z M591.1,48.2c-0.1-1-0.9-1.9-1.9-1.9c-1.1,0-2,0.8-2.1,1.9H591.1z"/>
		<path d="M598.5,40.7c0-0.2,0.1-0.3,0.3-0.3h3.8c2.1,0,3.8,1.7,3.8,3.8c0,2.1-1.7,3.8-3.8,3.8h-2.8v4c0,0.2-0.2,0.3-0.3,0.3h-0.6
			c-0.2,0-0.3-0.2-0.3-0.3V40.7z M602.5,46.7c1.4,0,2.6-1.1,2.6-2.6c0-1.4-1.2-2.4-2.6-2.4h-2.7v5H602.5z"/>
		<path d="M607.9,40.7c0-0.2,0.2-0.3,0.3-0.3h0.5c0.2,0,0.3,0.2,0.3,0.3v5.5c0,0,0.9-0.9,2.3-0.9c1.7,0,2.6,1.1,2.6,3.1V52
			c0,0.2-0.2,0.3-0.3,0.3h-0.5c-0.2,0-0.3-0.2-0.3-0.3v-3.6c0-1.3-0.6-1.9-1.5-1.9c-1.3,0-2.2,1-2.2,1V52c0,0.2-0.2,0.3-0.3,0.3
			h-0.5c-0.2,0-0.3-0.2-0.3-0.3V40.7z"/>
		<path d="M619.2,45.3c1.9,0,3.4,1.6,3.4,3.6c0,2-1.5,3.6-3.4,3.6s-3.4-1.6-3.4-3.6C615.8,46.9,617.3,45.3,619.2,45.3z M619.2,51.3
			c1.2,0,2.2-1.1,2.2-2.5c0-1.3-1-2.4-2.2-2.4s-2.2,1.1-2.2,2.4C617,50.2,618,51.3,619.2,51.3z"/>
		<path d="M625,46.5h-0.9c-0.2,0-0.3-0.2-0.3-0.3v-0.4c0-0.2,0.1-0.3,0.3-0.3h0.9v-1.9c0-0.2,0.2-0.3,0.3-0.3l0.5,0
			c0.2,0,0.3,0.2,0.3,0.3v1.9h2c0.2,0,0.3,0.1,0.3,0.3v0.4c0,0.2-0.1,0.3-0.3,0.3h-2v4c0,0.7,0.2,0.8,0.6,0.8c0.4,0,1-0.3,1.2-0.4
			c0.3-0.1,0.3,0,0.4,0.1l0.3,0.4c0.1,0.2,0.1,0.3-0.1,0.4c-0.2,0.2-1.2,0.6-2,0.6c-1.4,0-1.6-0.8-1.6-1.9V46.5z"/>
		<path d="M633.2,45.3c1.9,0,3.4,1.6,3.4,3.6c0,2-1.5,3.6-3.4,3.6s-3.4-1.6-3.4-3.6C629.9,46.9,631.4,45.3,633.2,45.3z M633.2,51.3
			c1.2,0,2.2-1.1,2.2-2.5c0-1.3-1-2.4-2.2-2.4s-2.2,1.1-2.2,2.4C631,50.2,632,51.3,633.2,51.3z"/>
		<path d="M638.1,51.3c0.1-0.1,0.2-0.3,0.2-0.4c0.1-0.1,0.3-0.2,0.5-0.1c0,0,0.7,0.6,1.6,0.6c0.7,0,1.1-0.4,1.1-0.8
			c0-0.6-0.5-0.9-1.5-1.4c-0.9-0.4-1.9-1-1.9-2.2c0-0.7,0.6-1.8,2.2-1.8c0.9,0,1.6,0.3,1.9,0.5c0.2,0.1,0.2,0.3,0.1,0.5l-0.1,0.3
			c-0.1,0.2-0.3,0.2-0.5,0.2c0,0-0.7-0.4-1.4-0.4c-0.8,0-1,0.4-1,0.7c0,0.6,0.6,0.8,1.3,1.2c1.2,0.6,2.2,1.1,2.2,2.3
			c0,1-1,1.9-2.3,1.9c-1.1,0-1.8-0.5-2.2-0.8C638.1,51.6,638.1,51.4,638.1,51.3z"/>
		<path d="M644.6,40.7c0-0.2,0.2-0.3,0.3-0.3h0.5c0.2,0,0.3,0.2,0.3,0.3v5.5c0,0,0.9-0.9,2.3-0.9c1.7,0,2.6,1.1,2.6,3.1V52
			c0,0.2-0.2,0.3-0.3,0.3h-0.5c-0.2,0-0.3-0.2-0.3-0.3v-3.6c0-1.3-0.6-1.9-1.5-1.9c-1.3,0-2.2,1-2.2,1V52c0,0.2-0.2,0.3-0.3,0.3
			h-0.5c-0.2,0-0.3-0.2-0.3-0.3V40.7z"/>
		<path d="M655.9,45.3c1.9,0,3.4,1.6,3.4,3.6c0,2-1.5,3.6-3.4,3.6s-3.4-1.6-3.4-3.6C652.5,46.9,654,45.3,655.9,45.3z M655.9,51.3
			c1.2,0,2.2-1.1,2.2-2.5c0-1.3-1-2.4-2.2-2.4c-1.2,0-2.2,1.1-2.2,2.4C653.7,50.2,654.7,51.3,655.9,51.3z"/>
		<path d="M662.4,57.1c0,0.2-0.2,0.3-0.3,0.3h-0.5c-0.2,0-0.3-0.2-0.3-0.3V45.8c0-0.2,0.2-0.3,0.3-0.3h0.4c0.2,0,0.2,0.1,0.3,0.2
			l0.1,0.3c0,0,0.7-0.7,2-0.7c1.9,0,3.2,1.6,3.2,3.6c0,2-1.4,3.6-3.3,3.6c-1.1,0-1.8-0.6-1.8-0.6V57.1z M664.1,51.3
			c1.3,0,2.2-1.1,2.2-2.4c0-1.3-0.8-2.5-2.1-2.5c-1.1,0-1.7,0.8-1.7,0.8v3.5C662.4,50.7,663.1,51.3,664.1,51.3z"/>
	</g>
</g>
<g id="html">
</g>
<g id="css">
</g>
<g id="javascript">
</g>
<g id="php">
</g>
<g id="SQL">
</g>
<g id="ap">
	<g id="_x31_00_5_">
		<line class="st0" x1="12.2" y1="19.2" x2="667.4" y2="19.2"/>
	</g>
	<g id="_x36_0_5_">
		<line class="st1" x1="12.2" y1="19.2" x2="373.1" y2="19.2"/>
	</g>
</g>
<g id="ai">
</g>
<g id="aid">
</g>
<g id="Layer_10">
</g>
</svg>
