<?xml version="1.0" encoding="utf-8"?>
<!-- Generator: Adobe Illustrator 21.0.0, SVG Export Plug-In . SVG Version: 6.00 Build 0)  -->
<svg version="1.1" xmlns="http://www.w3.org/2000/svg" xmlns:xlink="http://www.w3.org/1999/xlink" x="0px" y="0px"
	 viewBox="0 0 686.5 67.4" style="enable-background:new 0 0 686.5 67.4;" xml:space="preserve">
<style type="text/css">
	.st0{fill:none;stroke:#F7F5EC;stroke-width:8;stroke-miterlimit:10;}
	.st1{fill:none;stroke:#DDC23A;stroke-width:8;stroke-miterlimit:10;}
</style>
<defs>
	<style>
	.st1 {
	stroke-dasharray: 2000;
	stroke-dashoffset:0;
	-webkit-animation:dash 30s linear forwards;
	-o-animation:dash 30s linear forwards;
	-moz-animation:dash 30s linear forwards;
	animation:dash 30s linear forwards;

	}
	@-webkit-keyframes dash{

	from{
		stroke-dashoffset:2000;
	}
	to{
		stroke-dashoffset:0;
	}
	}
	</style>
</defs>
<g id="Layer_1">
	<g>
		<path d="M575.5,52.3l5.2-11.4c0.1-0.1,0.1-0.2,0.3-0.2h0.2c0.2,0,0.2,0.1,0.3,0.2l5.1,11.4c0.1,0.2,0,0.4-0.3,0.4h-0.7
			c-0.2,0-0.3-0.1-0.3-0.2l-1.3-2.8h-6l-1.2,2.8c0,0.1-0.1,0.2-0.3,0.2h-0.7C575.6,52.8,575.4,52.5,575.5,52.3z M583.6,48.7
			c-0.8-1.9-1.6-3.7-2.5-5.6H581l-2.5,5.6H583.6z"/>
		<path d="M590.7,45.8c1.1,0,1.8,0.4,1.8,0.4v-5c0-0.2,0.2-0.3,0.3-0.3h0.5c0.2,0,0.3,0.2,0.3,0.3v11.3c0,0.2-0.2,0.3-0.3,0.3H593
			c-0.2,0-0.3-0.1-0.3-0.3l-0.1-0.5c0,0-0.8,0.9-2.1,0.9c-1.7,0-3.1-1.6-3.1-3.6C587.4,47.4,588.6,45.8,590.7,45.8z M590.6,51.9
			c1.2,0,1.9-1.1,1.9-1.1v-3.4c0,0-0.7-0.4-1.6-0.4c-1.5,0-2.2,1.1-2.2,2.4C588.6,50.7,589.4,51.9,590.6,51.9z"/>
		<path d="M599,45.8c1.9,0,3.4,1.6,3.4,3.6c0,2-1.5,3.6-3.4,3.6s-3.4-1.6-3.4-3.6C595.6,47.4,597.1,45.8,599,45.8z M599,51.8
			c1.2,0,2.2-1.1,2.2-2.5c0-1.3-1-2.4-2.2-2.4s-2.2,1.1-2.2,2.4C596.8,50.7,597.8,51.8,599,51.8z"/>
		<path d="M604.3,41.2c0-0.2,0.2-0.3,0.3-0.3h0.5c0.2,0,0.3,0.2,0.3,0.3v5c0,0,0.7-0.4,1.8-0.4c2,0,3.3,1.6,3.3,3.6
			c0,2-1.4,3.6-3.1,3.6c-1.3,0-2.1-0.9-2.1-0.9l-0.1,0.5c0,0.2-0.1,0.3-0.3,0.3h-0.4c-0.2,0-0.3-0.2-0.3-0.3V41.2z M607.4,51.9
			c1.2,0,2-1.2,2-2.5c0-1.4-0.7-2.4-2.2-2.4c-0.9,0-1.6,0.4-1.6,0.4v3.4C605.5,50.7,606.1,51.9,607.4,51.9z"/>
		<path d="M615.3,45.8c1.8,0,3.1,1.3,3.1,3.1c0,0.1,0,0.3,0,0.5c0,0.2-0.2,0.3-0.3,0.3h-4.9c0.1,1.1,1.1,2.2,2.3,2.2
			c0.7,0,1.3-0.3,1.7-0.5c0.2-0.1,0.3-0.2,0.5,0c0.1,0.1,0.2,0.3,0.3,0.4c0.1,0.2,0.2,0.3-0.1,0.4c-0.4,0.3-1.3,0.8-2.5,0.8
			c-2.1,0-3.3-1.6-3.3-3.6C612,47.4,613.3,45.8,615.3,45.8z M617.2,48.7c-0.1-1-0.9-1.9-1.9-1.9c-1.1,0-2,0.8-2.1,1.9H617.2z"/>
		<path d="M624.6,41.2c0-0.2,0.2-0.3,0.3-0.3h0.7c0.2,0,0.3,0.2,0.3,0.3v11.3c0,0.2-0.2,0.3-0.3,0.3h-0.7c-0.2,0-0.3-0.2-0.3-0.3
			V41.2z"/>
		<path d="M628.6,46.3c0-0.2,0.2-0.3,0.3-0.3h0.3c0.2,0,0.2,0.1,0.3,0.2l0.2,0.5c0,0,1-0.9,2.4-0.9c2,0,2.6,1.3,2.6,3.1v3.6
			c0,0.2-0.2,0.3-0.3,0.3h-0.5c-0.2,0-0.3-0.2-0.3-0.3v-3.6c0-1.3-0.6-1.9-1.5-1.9c-1.3,0-2.2,1-2.2,1v4.5c0,0.2-0.2,0.3-0.3,0.3
			h-0.5c-0.2,0-0.3-0.2-0.3-0.3V46.3z"/>
		<path d="M639.8,45.8c1.1,0,1.8,0.4,1.8,0.4v-5c0-0.2,0.2-0.3,0.3-0.3h0.5c0.2,0,0.3,0.2,0.3,0.3v11.3c0,0.2-0.2,0.3-0.3,0.3h-0.4
			c-0.2,0-0.3-0.1-0.3-0.3l-0.1-0.5c0,0-0.8,0.9-2.1,0.9c-1.7,0-3.1-1.6-3.1-3.6C636.5,47.4,637.8,45.8,639.8,45.8z M639.7,51.9
			c1.2,0,1.9-1.1,1.9-1.1v-3.4c0,0-0.7-0.4-1.6-0.4c-1.5,0-2.2,1.1-2.2,2.4C637.7,50.7,638.5,51.9,639.7,51.9z"/>
		<path d="M648.1,45.8c1.8,0,3.1,1.3,3.1,3.1c0,0.1,0,0.3,0,0.5c0,0.2-0.2,0.3-0.3,0.3h-4.9c0.1,1.1,1.1,2.2,2.3,2.2
			c0.7,0,1.3-0.3,1.7-0.5c0.2-0.1,0.3-0.2,0.5,0c0.1,0.1,0.2,0.3,0.3,0.4c0.1,0.2,0.2,0.3-0.1,0.4c-0.4,0.3-1.3,0.8-2.5,0.8
			c-2.1,0-3.3-1.6-3.3-3.6C644.7,47.4,646,45.8,648.1,45.8z M650,48.7c-0.1-1-0.9-1.9-1.9-1.9c-1.1,0-2,0.8-2.1,1.9H650z"/>
		<path d="M652.6,51.8c0.1-0.1,0.2-0.3,0.2-0.4c0.1-0.1,0.3-0.2,0.5-0.1c0,0,0.7,0.6,1.6,0.6c0.7,0,1.1-0.4,1.1-0.8
			c0-0.6-0.5-0.9-1.5-1.4c-0.9-0.4-1.9-1-1.9-2.2c0-0.7,0.6-1.8,2.2-1.8c0.9,0,1.6,0.3,1.9,0.5c0.2,0.1,0.2,0.3,0.1,0.5l-0.1,0.3
			c-0.1,0.2-0.3,0.2-0.5,0.2c0,0-0.7-0.4-1.4-0.4c-0.8,0-1,0.4-1,0.7c0,0.6,0.6,0.8,1.3,1.2c1.2,0.6,2.2,1.1,2.2,2.3
			c0,1-1,1.9-2.3,1.9c-1.1,0-1.8-0.5-2.2-0.8C652.6,52.1,652.5,51.9,652.6,51.8z"/>
		<path d="M658.8,42c0-0.5,0.4-0.8,0.8-0.8c0.5,0,0.8,0.4,0.8,0.8c0,0.4-0.4,0.8-0.8,0.8C659.2,42.8,658.8,42.5,658.8,42z M659,46.3
			c0-0.2,0.2-0.3,0.3-0.3h0.5c0.2,0,0.3,0.2,0.3,0.3v6.2c0,0.2-0.2,0.3-0.3,0.3h-0.5c-0.2,0-0.3-0.2-0.3-0.3V46.3z"/>
		<path d="M663.1,50.5c0,0-0.5-0.7-0.5-1.7c0-1.6,1.1-3,2.9-3h2.9c0.2,0,0.3,0.1,0.3,0.3v0.3c0,0.1-0.1,0.3-0.2,0.3l-0.9,0.2
			c0,0,0.8,0.6,0.8,1.9c0,1.5-1.1,2.9-2.9,2.9c-1.1,0-1.6-0.4-1.6-0.4s-0.7,0.3-0.7,1c0,0.4,0.3,0.8,0.9,0.8h2.4
			c1.4,0,2.5,0.7,2.5,2.2c0,1.4-1.5,2.8-3.5,2.8c-2.3,0-3.3-1.2-3.3-2.3c0-1,0.8-1.5,1-1.6v-0.1c-0.4-0.1-1.2-0.6-1.2-1.6
			C661.9,51.1,663.1,50.5,663.1,50.5z M665.4,56.9c1.1,0,2.3-0.6,2.3-1.6c0-0.2-0.1-1.1-1.3-1.1c-0.6,0-1.3,0-1.9,0
			c0,0-1.1,0.3-1.1,1.3C663.4,56.3,664.3,56.9,665.4,56.9z M667.1,48.7c0-1.1-0.7-1.9-1.7-1.9c-1,0-1.8,0.8-1.8,1.9
			c0,1.1,0.7,1.9,1.8,1.9C666.5,50.7,667.1,49.9,667.1,48.7z"/>
		<path d="M670.4,46.3c0-0.2,0.2-0.3,0.3-0.3h0.3c0.2,0,0.2,0.1,0.3,0.2l0.2,0.5c0,0,1-0.9,2.4-0.9c2,0,2.6,1.3,2.6,3.1v3.6
			c0,0.2-0.2,0.3-0.3,0.3h-0.5c-0.2,0-0.3-0.2-0.3-0.3v-3.6c0-1.3-0.6-1.9-1.5-1.9c-1.3,0-2.2,1-2.2,1v4.5c0,0.2-0.2,0.3-0.3,0.3
			h-0.5c-0.2,0-0.3-0.2-0.3-0.3V46.3z"/>
	</g>
</g>
<g id="html">
</g>
<g id="css">
</g>
<g id="javascript">
</g>
<g id="php">
</g>
<g id="SQL">
</g>
<g id="ap">
</g>
<g id="ai">
</g>
<g id="aid">
	<g id="_x31_00_7_">
		<line class="st0" x1="19" y1="20.5" x2="674.2" y2="20.5"/>
	</g>
	<g id="_x36_0_7_">
		<line class="st1" x1="19" y1="20.5" x2="349.6" y2="20.5"/>
	</g>
</g>
<g id="Layer_10">
</g>
</svg>
