<script language="JavaScript"> document.addEventListener("contextmenu", function(e){ e.preventDefault(); }, false); </script>
<svg version="1.1" xmlns="http://www.w3.org/2000/svg" xmlns:xlink="http://www.w3.org/1999/xlink" x="0px" y="0px"
	 viewBox="0 0 681.1 69.4" style="enable-background:new 0 0 681.1 69.4;" xml:space="preserve">
<style type="text/css">
	.st0{fill:none;stroke:#F7F5EC;stroke-width:8;stroke-miterlimit:10;}
	.st1{fill:none;stroke:#DDC23A;stroke-width:8;stroke-miterlimit:10;}
</style>
<defs>
	<style>
	.st1 {
	stroke-dasharray: 2000;
	stroke-dashoffset:0;
	-webkit-animation:dash 30s linear forwards;
	-o-animation:dash 30s linear forwards;
	-moz-animation:dash 30s linear forwards;
	animation:dash 30s linear forwards;

	}
	@-webkit-keyframes dash{

	from{
		stroke-dashoffset:2000;
	}
	to{
		stroke-dashoffset:0;
	}
	}
	</style>
</defs>
<g id="Layer_1">
	<g>
		<path d="M631.7,43.9c0-0.2,0.1-0.3,0.3-0.3h3.8c2.1,0,3.8,1.7,3.8,3.8c0,2.1-1.7,3.8-3.8,3.8H633v4c0,0.2-0.2,0.3-0.3,0.3H632
			c-0.2,0-0.3-0.2-0.3-0.3V43.9z M635.7,49.9c1.4,0,2.6-1.1,2.6-2.6c0-1.4-1.2-2.4-2.6-2.4H633v5H635.7z"/>
		<path d="M641.8,43.9c0-0.2,0.2-0.3,0.3-0.3h0.7c0.2,0,0.3,0.2,0.3,0.3v5h6.9v-5c0-0.2,0.1-0.3,0.3-0.3h0.7c0.2,0,0.3,0.2,0.3,0.3
			v11.3c0,0.2-0.2,0.3-0.3,0.3h-0.7c-0.2,0-0.3-0.2-0.3-0.3V50h-6.9v5.2c0,0.2-0.1,0.3-0.3,0.3h-0.7c-0.2,0-0.3-0.2-0.3-0.3V43.9z"
			/>
		<path d="M654.8,43.9c0-0.2,0.1-0.3,0.3-0.3h3.8c2.1,0,3.8,1.7,3.8,3.8c0,2.1-1.7,3.8-3.8,3.8h-2.8v4c0,0.2-0.2,0.3-0.3,0.3h-0.6
			c-0.2,0-0.3-0.2-0.3-0.3V43.9z M658.8,49.9c1.4,0,2.6-1.1,2.6-2.6c0-1.4-1.2-2.4-2.6-2.4h-2.7v5H658.8z"/>
	</g>
</g>
<g id="html">
</g>
<g id="css">
</g>
<g id="javascript">
</g>
<g id="php">
	<g id="_x31_00_3_">
		<line class="st0" x1="8.6" y1="15.4" x2="663.8" y2="15.4"/>
	</g>
	<g id="_x36_0_3_">
		<line class="st1" x1="8.6" y1="15.4" x2="222.3" y2="15.4"/>
	</g>
</g>
<g id="SQL">
</g>
<g id="ap">
</g>
<g id="ai">
</g>
<g id="aid">
</g>
<g id="Layer_10">
</g>
</svg>
