<?xml version="1.0" encoding="utf-8"?>
<!-- Generator: Adobe Illustrator 21.0.0, SVG Export Plug-In . SVG Version: 6.00 Build 0)  -->
<svg version="1.1" id="Layer_1" xmlns="http://www.w3.org/2000/svg" xmlns:xlink="http://www.w3.org/1999/xlink" x="0px" y="0px"
	 viewBox="0 0 682.3 72.3" style="enable-background:new 0 0 682.3 72.3;" xml:space="preserve">
<style type="text/css">
	.st0{fill:none;stroke:#F7F5EC;stroke-width:8;stroke-miterlimit:10;}
	.st1{fill:none;stroke:#DDC23A;stroke-width:8;stroke-miterlimit:10;}
</style>
<defs>
	<style>
	.st1 {
	stroke-dasharray: 2000;
	stroke-dashoffset:0;
	-webkit-animation:dash 30s linear forwards;
	-o-animation:dash 30s linear forwards;
	-moz-animation:dash 30s linear forwards;
	animation:dash 30s linear forwards;

	}
	@-webkit-keyframes dash{

	from{
		stroke-dashoffset:2000;
	}
	to{
		stroke-dashoffset:0;
	}
	}
	</style>
</defs>
<g>
	<path d="M540,54.6l5.2-11.4c0.1-0.1,0.1-0.2,0.3-0.2h0.2c0.2,0,0.2,0.1,0.3,0.2l5.1,11.4c0.1,0.2,0,0.4-0.3,0.4h-0.7
		c-0.2,0-0.3-0.1-0.3-0.2l-1.3-2.8h-6l-1.2,2.8c0,0.1-0.1,0.2-0.3,0.2h-0.7C540.1,55.1,539.9,54.8,540,54.6z M548.1,51
		c-0.8-1.9-1.6-3.7-2.5-5.6h-0.1L543,51H548.1z"/>
	<path d="M555.2,48.1c1.1,0,1.8,0.4,1.8,0.4v-5c0-0.2,0.2-0.3,0.3-0.3h0.5c0.2,0,0.3,0.2,0.3,0.3v11.3c0,0.2-0.2,0.3-0.3,0.3h-0.4
		c-0.2,0-0.3-0.1-0.3-0.3l-0.1-0.5c0,0-0.8,0.9-2.1,0.9c-1.7,0-3.1-1.6-3.1-3.6C551.9,49.7,553.1,48.1,555.2,48.1z M555.1,54.2
		c1.2,0,1.9-1.1,1.9-1.1v-3.4c0,0-0.7-0.4-1.6-0.4c-1.5,0-2.2,1.1-2.2,2.4C553.1,53,553.9,54.2,555.1,54.2z"/>
	<path d="M563.5,48.1c1.9,0,3.4,1.6,3.4,3.6c0,2-1.5,3.6-3.4,3.6s-3.4-1.6-3.4-3.6C560.1,49.7,561.6,48.1,563.5,48.1z M563.5,54.1
		c1.2,0,2.2-1.1,2.2-2.5c0-1.3-1-2.4-2.2-2.4c-1.2,0-2.2,1.1-2.2,2.4C561.3,53,562.2,54.1,563.5,54.1z"/>
	<path d="M568.8,43.5c0-0.2,0.2-0.3,0.3-0.3h0.5c0.2,0,0.3,0.2,0.3,0.3v5c0,0,0.7-0.4,1.8-0.4c2,0,3.3,1.6,3.3,3.6
		c0,2-1.4,3.6-3.1,3.6c-1.3,0-2.1-0.9-2.1-0.9l-0.1,0.5c0,0.2-0.1,0.3-0.3,0.3h-0.4c-0.2,0-0.3-0.2-0.3-0.3V43.5z M571.8,54.2
		c1.2,0,2-1.2,2-2.5c0-1.4-0.7-2.4-2.2-2.4c-0.9,0-1.6,0.4-1.6,0.4V53C570,53,570.6,54.2,571.8,54.2z"/>
	<path d="M579.8,48.1c1.8,0,3.1,1.3,3.1,3.1c0,0.1,0,0.3,0,0.5c0,0.2-0.2,0.3-0.3,0.3h-4.9c0.1,1.1,1.1,2.2,2.3,2.2
		c0.7,0,1.3-0.3,1.7-0.5c0.2-0.1,0.3-0.2,0.5,0c0.1,0.1,0.2,0.3,0.3,0.4c0.1,0.2,0.2,0.3-0.1,0.4c-0.4,0.3-1.3,0.8-2.5,0.8
		c-2.1,0-3.3-1.6-3.3-3.6C576.5,49.7,577.8,48.1,579.8,48.1z M581.7,51c-0.1-1-0.9-1.9-1.9-1.9c-1.1,0-2,0.8-2.1,1.9H581.7z"/>
	<path d="M589.1,43.5c0-0.2,0.1-0.3,0.3-0.3h3.8c2.1,0,3.8,1.7,3.8,3.8c0,2.1-1.7,3.8-3.8,3.8h-2.8v4c0,0.2-0.2,0.3-0.3,0.3h-0.6
		c-0.2,0-0.3-0.2-0.3-0.3V43.5z M593,49.5c1.4,0,2.6-1.1,2.6-2.6c0-1.4-1.2-2.4-2.6-2.4h-2.7v5H593z"/>
	<path d="M598.3,48.6c0-0.2,0.2-0.3,0.3-0.3h0.3c0.1,0,0.3,0.1,0.3,0.2l0.1,0.5c0,0,0.6-0.9,2-0.9c0.5,0,1.4,0.1,1.2,0.6l-0.2,0.6
		c-0.1,0.2-0.2,0.2-0.4,0.2c-0.2-0.1-0.4-0.1-0.7-0.1c-1.3,0-1.9,1-1.9,1v4.5c0,0.2-0.2,0.3-0.3,0.3h-0.5c-0.2,0-0.3-0.2-0.3-0.3
		V48.6z"/>
	<path d="M606.7,48.1c1.8,0,3.1,1.3,3.1,3.1c0,0.1,0,0.3,0,0.5c0,0.2-0.2,0.3-0.3,0.3h-4.9c0.1,1.1,1.1,2.2,2.3,2.2
		c0.7,0,1.3-0.3,1.7-0.5c0.2-0.1,0.3-0.2,0.5,0c0.1,0.1,0.2,0.3,0.3,0.4c0.1,0.2,0.2,0.3-0.1,0.4c-0.4,0.3-1.3,0.8-2.5,0.8
		c-2.1,0-3.3-1.6-3.3-3.6C603.4,49.7,604.7,48.1,606.7,48.1z M608.7,51c-0.1-1-0.9-1.9-1.9-1.9c-1.1,0-2,0.8-2.1,1.9H608.7z"/>
	<path d="M611.7,48.6c0-0.2,0.2-0.3,0.3-0.3h0.3c0.2,0,0.2,0.1,0.3,0.2l0.2,0.5c0,0,0.8-0.9,2.2-0.9c1,0,1.7,0.4,2.2,1.1
		c0.1-0.1,1.2-1.1,2.5-1.1c2,0,2.6,1.3,2.6,3.1v3.6c0,0.2-0.2,0.3-0.3,0.3h-0.5c-0.2,0-0.3-0.2-0.3-0.3v-3.6c0-1.3-0.5-1.9-1.5-1.9
		c-1.1,0-1.8,0.7-2.1,1c0.1,0.3,0.1,0.6,0.1,1v3.6c0,0.2-0.2,0.3-0.3,0.3h-0.5c-0.2,0-0.3-0.2-0.3-0.3v-3.6c0-1.3-0.6-1.9-1.6-1.9
		c-1.2,0-1.9,1-1.9,1v4.5c0,0.2-0.2,0.3-0.3,0.3H612c-0.2,0-0.3-0.2-0.3-0.3V48.6z"/>
	<path d="M624.4,44.3c0-0.5,0.4-0.8,0.8-0.8c0.5,0,0.8,0.4,0.8,0.8c0,0.4-0.4,0.8-0.8,0.8C624.8,45.1,624.4,44.8,624.4,44.3z
		 M624.6,48.6c0-0.2,0.2-0.3,0.3-0.3h0.5c0.2,0,0.3,0.2,0.3,0.3v6.2c0,0.2-0.2,0.3-0.3,0.3H625c-0.2,0-0.3-0.2-0.3-0.3V48.6z"/>
	<path d="M628.2,48.6c0-0.2,0.2-0.3,0.3-0.3h0.3c0.1,0,0.3,0.1,0.3,0.2l0.1,0.5c0,0,0.6-0.9,2-0.9c0.5,0,1.4,0.1,1.2,0.6l-0.2,0.6
		c-0.1,0.2-0.2,0.2-0.4,0.2c-0.2-0.1-0.4-0.1-0.7-0.1c-1.3,0-1.9,1-1.9,1v4.5c0,0.2-0.2,0.3-0.3,0.3h-0.5c-0.2,0-0.3-0.2-0.3-0.3
		V48.6z"/>
	<path d="M636.7,48.1c1.8,0,3.1,1.3,3.1,3.1c0,0.1,0,0.3,0,0.5c0,0.2-0.2,0.3-0.3,0.3h-4.9c0.1,1.1,1.1,2.2,2.3,2.2
		c0.7,0,1.3-0.3,1.7-0.5c0.2-0.1,0.3-0.2,0.5,0c0.1,0.1,0.2,0.3,0.3,0.4c0.1,0.2,0.2,0.3-0.1,0.4c-0.4,0.3-1.3,0.8-2.5,0.8
		c-2.1,0-3.3-1.6-3.3-3.6C633.4,49.7,634.6,48.1,636.7,48.1z M638.6,51c-0.1-1-0.9-1.9-1.9-1.9c-1.1,0-2,0.8-2.1,1.9H638.6z"/>
	<path d="M645.9,43.5c0-0.2,0.1-0.3,0.3-0.3h3.8c2.1,0,3.8,1.7,3.8,3.8c0,2.1-1.7,3.8-3.8,3.8h-2.8v4c0,0.2-0.2,0.3-0.3,0.3h-0.6
		c-0.2,0-0.3-0.2-0.3-0.3V43.5z M649.9,49.5c1.4,0,2.6-1.1,2.6-2.6c0-1.4-1.2-2.4-2.6-2.4h-2.7v5H649.9z"/>
	<path d="M655.1,48.6c0-0.2,0.2-0.3,0.3-0.3h0.3c0.1,0,0.3,0.1,0.3,0.2l0.1,0.5c0,0,0.6-0.9,2-0.9c0.5,0,1.4,0.1,1.2,0.6l-0.2,0.6
		c-0.1,0.2-0.2,0.2-0.4,0.2c-0.2-0.1-0.4-0.1-0.7-0.1c-1.3,0-1.9,1-1.9,1v4.5c0,0.2-0.2,0.3-0.3,0.3h-0.5c-0.2,0-0.3-0.2-0.3-0.3
		V48.6z"/>
	<path d="M663.7,48.1c1.9,0,3.4,1.6,3.4,3.6c0,2-1.5,3.6-3.4,3.6s-3.4-1.6-3.4-3.6C660.3,49.7,661.8,48.1,663.7,48.1z M663.7,54.1
		c1.2,0,2.2-1.1,2.2-2.5c0-1.3-1-2.4-2.2-2.4c-1.2,0-2.2,1.1-2.2,2.4C661.5,53,662.4,54.1,663.7,54.1z"/>
</g>
<g id="_x31_00_4_">
	<line class="st0" x1="14.3" y1="21.1" x2="669.6" y2="21.1"/>
</g>
<g id="_x36_0_4_">
	<line class="st1" x1="14.3" y1="21.1" x2="222.9" y2="21.1"/>
</g>
</svg>
