<?xml version="1.0" encoding="utf-8"?>
<!-- Generator: Adobe Illustrator 21.0.0, SVG Export Plug-In . SVG Version: 6.00 Build 0)  -->
<svg version="1.1" xmlns="http://www.w3.org/2000/svg" xmlns:xlink="http://www.w3.org/1999/xlink" x="0px" y="0px"
	 viewBox="0 0 686.1 85.4" style="enable-background:new 0 0 686.1 85.4;" xml:space="preserve">
<style type="text/css">
	.st0{fill:none;stroke:#F7F5EC;stroke-width:8;stroke-miterlimit:10;}
	.st1{fill:none;stroke:#DDC23A;stroke-width:8;stroke-miterlimit:10;}
</style>
<defs>
	<style>
	.st1 {
	stroke-dasharray: 2000;
	stroke-dashoffset:0;
	-webkit-animation:dash 30s linear forwards;
	-o-animation:dash 30s linear forwards;
	-moz-animation:dash 30s linear forwards;
	animation:dash 30s linear forwards;

	}
	@-webkit-keyframes dash{

	from{
		stroke-dashoffset:2000;
	}
	to{
		stroke-dashoffset:0;
	}
	}
	</style>
</defs>
<g id="Layer_1">
	<g>
		<path d="M648.6,55.2c1.7,0,3,0.6,4.1,1.6c0.1,0.1,0.2,0.3,0,0.5l-0.5,0.5c-0.1,0.2-0.3,0.2-0.4,0c-0.9-0.8-2.1-1.3-3.2-1.3
			c-2.7,0-4.7,2.3-4.7,4.9c0,2.6,2.1,4.9,4.7,4.9c1.5,0,2.3-0.6,3.2-1.3c0.2-0.1,0.3-0.1,0.4-0.1l0.5,0.5c0.1,0.1,0.1,0.3,0,0.5
			c-1.2,1.1-2.6,1.6-4.1,1.6c-3.4,0-6.1-2.7-6.1-6.1C642.5,58,645.2,55.2,648.6,55.2z"/>
		<path d="M654.6,65.5c0.1-0.1,0.2-0.2,0.3-0.3c0.2-0.2,0.4-0.4,0.6-0.2c0.1,0.1,1.4,1.3,2.9,1.3c1.4,0,2.3-0.9,2.3-1.9
			c0-1.2-1-1.9-3-2.7c-1.9-0.8-3-1.6-3-3.5c0-1.2,0.9-3,3.6-3c1.7,0,2.9,0.9,2.9,0.9c0.1,0.1,0.3,0.3,0.1,0.6
			c-0.1,0.1-0.1,0.2-0.2,0.3c-0.2,0.2-0.3,0.3-0.6,0.2c-0.1-0.1-1.2-0.8-2.2-0.8c-1.8,0-2.3,1.2-2.3,1.9c0,1.1,0.9,1.8,2.3,2.4
			c2.3,0.9,3.8,1.8,3.8,3.8c0,1.8-1.7,3.1-3.7,3.1c-2,0-3.4-1.2-3.6-1.4C654.5,66,654.4,65.8,654.6,65.5z"/>
		<path d="M663.6,65.5c0.1-0.1,0.2-0.2,0.3-0.3c0.2-0.2,0.4-0.4,0.6-0.2c0.1,0.1,1.4,1.3,2.9,1.3c1.4,0,2.3-0.9,2.3-1.9
			c0-1.2-1-1.9-3-2.7c-1.9-0.8-3-1.6-3-3.5c0-1.2,0.9-3,3.6-3c1.7,0,2.9,0.9,2.9,0.9c0.1,0.1,0.3,0.3,0.1,0.6
			c-0.1,0.1-0.1,0.2-0.2,0.3c-0.2,0.2-0.3,0.3-0.6,0.2c-0.1-0.1-1.2-0.8-2.2-0.8c-1.8,0-2.3,1.2-2.3,1.9c0,1.1,0.9,1.8,2.3,2.4
			c2.3,0.9,3.8,1.8,3.8,3.8c0,1.8-1.7,3.1-3.7,3.1c-2,0-3.4-1.2-3.6-1.4C663.6,66,663.4,65.8,663.6,65.5z"/>
	</g>
</g>
<g id="html">
</g>
<g id="css">
	<g id="_x31_00">
		<line class="st0" x1="14.4" y1="32.4" x2="669.6" y2="32.4"/>
	</g>
	<g id="_x36_0">
		<line class="st1" x1="14.4" y1="32.4" x2="481.4" y2="32.4"/>
	</g>
</g>
<g id="javascript">
</g>
<g id="php">
</g>
<g id="SQL">
</g>
<g id="ap">
</g>
<g id="ai">
</g>
<g id="aid">
</g>
<g id="Layer_10">
</g>
</svg>
