<?xml version="1.0" encoding="utf-8"?>
<!-- Generator: Adobe Illustrator 21.0.0, SVG Export Plug-In . SVG Version: 6.00 Build 0)  -->
<svg version="1.1" xmlns="http://www.w3.org/2000/svg" xmlns:xlink="http://www.w3.org/1999/xlink" x="0px" y="0px"
	 viewBox="0 0 684.6 67.4" style="enable-background:new 0 0 684.6 67.4;" xml:space="preserve">
<style type="text/css">
	.st0{fill:none;stroke:#F7F5EC;stroke-width:8;stroke-miterlimit:10;}
	.st1{fill:none;stroke:#DDC23A;stroke-width:8;stroke-miterlimit:10;}
</style>
<defs>
	<style>
	.st1 {
	stroke-dasharray: 2000;
	stroke-dashoffset:0;
	-webkit-animation:dash 30s linear forwards;
	-o-animation:dash 30s linear forwards;
	-moz-animation:dash 30s linear forwards;
	animation:dash 30s linear forwards;

	}
	@-webkit-keyframes dash{

	from{
		stroke-dashoffset:2000;
	}
	to{
		stroke-dashoffset:0;
	}
	}
	</style>
</defs>
<g id="Layer_1">
	<g>
		<path d="M561.4,55.2l5.2-11.4c0.1-0.1,0.1-0.2,0.3-0.2h0.2c0.2,0,0.2,0.1,0.3,0.2l5.1,11.4c0.1,0.2,0,0.4-0.3,0.4h-0.7
			c-0.2,0-0.3-0.1-0.3-0.2l-1.3-2.8h-6l-1.2,2.8c0,0.1-0.1,0.2-0.3,0.2h-0.7C561.4,55.6,561.3,55.4,561.4,55.2z M569.5,51.6
			c-0.8-1.9-1.6-3.7-2.5-5.6h-0.1l-2.5,5.6H569.5z"/>
		<path d="M576.6,48.6c1.1,0,1.8,0.4,1.8,0.4v-5c0-0.2,0.2-0.3,0.3-0.3h0.5c0.2,0,0.3,0.2,0.3,0.3v11.3c0,0.2-0.2,0.3-0.3,0.3h-0.4
			c-0.2,0-0.3-0.1-0.3-0.3l-0.1-0.5c0,0-0.8,0.9-2.1,0.9c-1.7,0-3.1-1.6-3.1-3.6C573.3,50.2,574.5,48.6,576.6,48.6z M576.5,54.7
			c1.2,0,1.9-1.1,1.9-1.1v-3.4c0,0-0.7-0.4-1.6-0.4c-1.5,0-2.2,1.1-2.2,2.4C574.5,53.5,575.3,54.7,576.5,54.7z"/>
		<path d="M584.9,48.6c1.9,0,3.4,1.6,3.4,3.6c0,2-1.5,3.6-3.4,3.6s-3.4-1.6-3.4-3.6C581.5,50.3,583,48.6,584.9,48.6z M584.9,54.7
			c1.2,0,2.2-1.1,2.2-2.5c0-1.3-1-2.4-2.2-2.4c-1.2,0-2.2,1.1-2.2,2.4C582.7,53.6,583.6,54.7,584.9,54.7z"/>
		<path d="M590.2,44c0-0.2,0.2-0.3,0.3-0.3h0.5c0.2,0,0.3,0.2,0.3,0.3v5c0,0,0.7-0.4,1.8-0.4c2,0,3.3,1.6,3.3,3.6
			c0,2-1.4,3.6-3.1,3.6c-1.3,0-2.1-0.9-2.1-0.9l-0.1,0.5c0,0.2-0.1,0.3-0.3,0.3h-0.4c-0.2,0-0.3-0.2-0.3-0.3V44z M593.2,54.7
			c1.2,0,2-1.2,2-2.5c0-1.4-0.7-2.4-2.2-2.4c-0.9,0-1.6,0.4-1.6,0.4v3.4C591.4,53.6,592,54.7,593.2,54.7z"/>
		<path d="M601.2,48.6c1.8,0,3.1,1.3,3.1,3.1c0,0.1,0,0.3,0,0.5c0,0.2-0.2,0.3-0.3,0.3H599c0.1,1.1,1.1,2.2,2.3,2.2
			c0.7,0,1.3-0.3,1.7-0.5c0.2-0.1,0.3-0.2,0.5,0c0.1,0.1,0.2,0.3,0.3,0.4c0.1,0.2,0.2,0.3-0.1,0.4c-0.4,0.3-1.3,0.8-2.5,0.8
			c-2.1,0-3.3-1.6-3.3-3.6C597.9,50.3,599.1,48.6,601.2,48.6z M603.1,51.5c-0.1-1-0.9-1.9-1.9-1.9c-1.1,0-2,0.8-2.1,1.9H603.1z"/>
		<path d="M610.4,44c0-0.2,0.2-0.3,0.3-0.3h0.7c0.2,0,0.3,0.2,0.3,0.3v11.3c0,0.2-0.2,0.3-0.3,0.3h-0.7c-0.2,0-0.3-0.2-0.3-0.3V44z"
			/>
		<path d="M614.5,44c0-0.2,0.2-0.3,0.3-0.3h0.5c0.2,0,0.3,0.2,0.3,0.3v11.3c0,0.2-0.2,0.3-0.3,0.3h-0.5c-0.2,0-0.3-0.2-0.3-0.3V44z"
			/>
		<path d="M618.1,44c0-0.2,0.2-0.3,0.3-0.3h0.5c0.2,0,0.3,0.2,0.3,0.3v11.3c0,0.2-0.2,0.3-0.3,0.3h-0.5c-0.2,0-0.3-0.2-0.3-0.3V44z"
			/>
		<path d="M621.6,49.1c0-0.2,0.2-0.3,0.3-0.3h0.5c0.2,0,0.3,0.2,0.3,0.3v3.6c0,1.3,0.6,1.9,1.5,1.9c1.3,0,2-1,2-1c0-0.4,0-0.8,0-4.5
			c0-0.2,0.2-0.3,0.3-0.3h0.5c0.2,0,0.3,0.2,0.3,0.3v6.2c0,0.2-0.2,0.3-0.3,0.3h-0.3c-0.2,0-0.3-0.1-0.3-0.3l-0.1-0.4
			c0,0-0.8,0.9-2.2,0.9c-2,0-2.6-1.3-2.6-3.1V49.1z"/>
		<path d="M629.5,54.6c0.1-0.1,0.2-0.3,0.2-0.4c0.1-0.1,0.3-0.2,0.5-0.1c0,0,0.7,0.6,1.6,0.6c0.7,0,1.1-0.4,1.1-0.8
			c0-0.6-0.5-0.9-1.5-1.4c-0.9-0.4-1.9-1-1.9-2.2c0-0.7,0.6-1.8,2.2-1.8c0.9,0,1.6,0.3,1.9,0.5c0.2,0.1,0.2,0.3,0.1,0.5l-0.1,0.3
			c-0.1,0.2-0.3,0.2-0.5,0.2c0,0-0.7-0.4-1.4-0.4c-0.8,0-1,0.4-1,0.7c0,0.6,0.6,0.8,1.3,1.2c1.2,0.6,2.2,1.1,2.2,2.3
			c0,1-1,1.9-2.3,1.9c-1.1,0-1.8-0.5-2.2-0.8C629.5,54.9,629.5,54.8,629.5,54.6z"/>
		<path d="M636.4,49.8h-0.9c-0.2,0-0.3-0.2-0.3-0.3v-0.4c0-0.2,0.1-0.3,0.3-0.3h0.9v-1.9c0-0.2,0.2-0.3,0.3-0.3l0.5,0
			c0.2,0,0.3,0.2,0.3,0.3v1.9h2c0.2,0,0.3,0.1,0.3,0.3v0.4c0,0.2-0.1,0.3-0.3,0.3h-2v4c0,0.7,0.2,0.8,0.6,0.8c0.4,0,1-0.3,1.2-0.4
			c0.3-0.1,0.3,0,0.4,0.1l0.3,0.4c0.1,0.2,0.1,0.3-0.1,0.4c-0.2,0.2-1.2,0.6-2,0.6c-1.4,0-1.6-0.8-1.6-1.9V49.8z"/>
		<path d="M641.8,49.1c0-0.2,0.2-0.3,0.3-0.3h0.3c0.1,0,0.3,0.1,0.3,0.2l0.1,0.5c0,0,0.6-0.9,2-0.9c0.5,0,1.4,0.1,1.2,0.6l-0.2,0.6
			c-0.1,0.2-0.2,0.2-0.4,0.2c-0.2-0.1-0.4-0.1-0.7-0.1c-1.3,0-1.9,1-1.9,1v4.5c0,0.2-0.2,0.3-0.3,0.3h-0.5c-0.2,0-0.3-0.2-0.3-0.3
			V49.1z"/>
		<path d="M649.7,51.3c0.7,0,1.4,0.2,1.4,0.2c0-1.3-0.1-1.8-1.1-1.8c-0.9,0-1.7,0.3-2,0.4c-0.2,0.1-0.3,0-0.3-0.2l-0.1-0.4
			c-0.1-0.2,0-0.3,0.2-0.4c0.1-0.1,1.1-0.4,2.4-0.4c1.7,0,2.2,0.9,2.2,2.9v3.8c0,0.2-0.2,0.3-0.3,0.3h-0.3c-0.2,0-0.2-0.1-0.3-0.3
			l-0.1-0.5c-0.4,0.4-1.1,0.9-2.1,0.9c-1.2,0-2.1-0.9-2.1-2.2C647,52.2,648,51.3,649.7,51.3z M649.3,54.7c0.8,0,1.6-0.5,1.9-1v-1.3
			c-0.2-0.1-0.7-0.3-1.4-0.3c-1,0-1.6,0.5-1.6,1.4C648.1,54.2,648.5,54.7,649.3,54.7z"/>
		<path d="M655.1,49.8h-0.9c-0.2,0-0.3-0.2-0.3-0.3v-0.4c0-0.2,0.1-0.3,0.3-0.3h0.9v-1.9c0-0.2,0.2-0.3,0.3-0.3l0.5,0
			c0.2,0,0.3,0.2,0.3,0.3v1.9h2c0.2,0,0.3,0.1,0.3,0.3v0.4c0,0.2-0.1,0.3-0.3,0.3h-2v4c0,0.7,0.2,0.8,0.6,0.8c0.4,0,1-0.3,1.2-0.4
			c0.3-0.1,0.3,0,0.4,0.1l0.3,0.4c0.1,0.2,0.1,0.3-0.1,0.4c-0.2,0.2-1.2,0.6-2,0.6c-1.4,0-1.6-0.8-1.6-1.9V49.8z"/>
		<path d="M663.3,48.6c1.9,0,3.4,1.6,3.4,3.6c0,2-1.5,3.6-3.4,3.6s-3.4-1.6-3.4-3.6C660,50.3,661.4,48.6,663.3,48.6z M663.3,54.7
			c1.2,0,2.2-1.1,2.2-2.5c0-1.3-1-2.4-2.2-2.4c-1.2,0-2.2,1.1-2.2,2.4C661.1,53.6,662.1,54.7,663.3,54.7z"/>
		<path d="M668.6,49.1c0-0.2,0.2-0.3,0.3-0.3h0.3c0.1,0,0.3,0.1,0.3,0.2l0.1,0.5c0,0,0.6-0.9,2-0.9c0.5,0,1.4,0.1,1.2,0.6l-0.2,0.6
			c-0.1,0.2-0.2,0.2-0.4,0.2c-0.2-0.1-0.4-0.1-0.7-0.1c-1.3,0-1.9,1-1.9,1v4.5c0,0.2-0.2,0.3-0.3,0.3H669c-0.2,0-0.3-0.2-0.3-0.3
			V49.1z"/>
	</g>
</g>
<g id="html">
</g>
<g id="css">
</g>
<g id="javascript">
</g>
<g id="php">
</g>
<g id="SQL">
</g>
<g id="ap">
</g>
<g id="ai">
	<g id="_x31_00_6_">
		<line class="st0" x1="17.5" y1="20.5" x2="672.7" y2="20.5"/>
	</g>
	<g id="_x36_0_6_">
		<line class="st1" x1="17.5" y1="20.5" x2="369.8" y2="20.5"/>
	</g>
</g>
<g id="aid">
</g>
<g id="Layer_10">
</g>
</svg>
