<?xml version="1.0" encoding="utf-8"?>
<!-- Generator: Adobe Illustrator 21.0.0, SVG Export Plug-In . SVG Version: 6.00 Build 0)  -->
<svg version="1.1" xmlns="http://www.w3.org/2000/svg" xmlns:xlink="http://www.w3.org/1999/xlink" x="0px" y="0px"
	 viewBox="0 0 692.7 69.4" style="enable-background:new 0 0 692.7 69.4;" xml:space="preserve">
<style type="text/css">
	.st0{fill:none;stroke:#F7F5EC;stroke-width:8;stroke-miterlimit:10;}
	.st1{fill:none;stroke:#DDC23A;stroke-width:8;stroke-miterlimit:10;}
</style>
<defs>
	<style>
	.st1 {
	stroke-dasharray: 2000;
	stroke-dashoffset:0;
	-webkit-animation:dash 30s linear forwards;
	-o-animation:dash 30s linear forwards;
	-moz-animation:dash 30s linear forwards;
	animation:dash 30s linear forwards;

	}
	@-webkit-keyframes dash{

	from{
		stroke-dashoffset:2000;
	}
	to{
		stroke-dashoffset:0;
	}
	}
	</style>
</defs>
<g id="Layer_1">
	<g>
		<path d="M643.2,47.6c0.1-0.1,0.2-0.2,0.3-0.3c0.2-0.2,0.4-0.4,0.6-0.2c0.1,0.1,1.4,1.3,2.9,1.3c1.4,0,2.3-0.9,2.3-1.9
			c0-1.2-1-1.9-3-2.7c-1.9-0.8-3-1.6-3-3.5c0-1.2,0.9-3,3.6-3c1.7,0,2.9,0.9,2.9,0.9c0.1,0.1,0.3,0.3,0.1,0.6
			c-0.1,0.1-0.1,0.2-0.2,0.3c-0.2,0.2-0.3,0.3-0.6,0.2c-0.1-0.1-1.2-0.8-2.2-0.8c-1.8,0-2.3,1.2-2.3,1.9c0,1.1,0.9,1.8,2.3,2.4
			c2.3,0.9,3.8,1.8,3.8,3.8c0,1.8-1.7,3.1-3.7,3.1c-2,0-3.4-1.2-3.6-1.4C643.1,48.1,643,47.9,643.2,47.6z"/>
		<path d="M658.2,37.3c3.4,0,6.1,2.7,6.1,6.1c0,2.5-1.5,4.6-3.6,5.6l2,3.2c0.2,0.2,0,0.5-0.3,0.5h-0.9c-0.1,0-0.2-0.1-0.3-0.2
			l-1.9-3.1c-0.4,0.1-0.8,0.1-1.2,0.1c-3.4,0-6.1-2.7-6.1-6.1C652.1,40,654.8,37.3,658.2,37.3z M658.2,48.4c2.7,0,4.9-2.2,4.9-4.9
			c0-2.7-2.2-4.9-4.9-4.9s-4.9,2.2-4.9,4.9C653.3,46.2,655.5,48.4,658.2,48.4z"/>
		<path d="M667,37.8c0-0.2,0.1-0.3,0.3-0.3h0.7c0.2,0,0.3,0.2,0.3,0.3v10.4h4.9c0.2,0,0.3,0.2,0.3,0.3v0.5c0,0.2-0.1,0.3-0.3,0.3
			h-5.9c-0.2,0-0.3-0.2-0.3-0.3V37.8z"/>
	</g>
</g>
<g id="html">
</g>
<g id="css">
</g>
<g id="javascript">
</g>
<g id="php">
	<g id="_x31_00_4_">
		<line class="st0" x1="16.7" y1="15.4" x2="671.9" y2="15.4"/>
	</g>
	<g id="_x36_0_4_">
		<line class="st1" x1="16.7" y1="15.4" x2="146.7" y2="15.4"/>
	</g>
</g>
<g id="SQL">
</g>
<g id="ap">
</g>
<g id="ai">
</g>
<g id="aid">
</g>
<g id="Layer_10">
</g>
</svg>
