<svg xmlns="http://www.w3.org/2000/svg" xmlns:xlink="http://www.w3.org/1999/xlink" viewBox="0 0 327.86 570.31"><defs><style>.cls-1,.cls-2{fill:#29abe2;}.cls-1{opacity:0.74;}.cls-2{opacity:0.67;}.cls-3{opacity:0.63;fill:url(#linear-gradient);}.cls-4{fill:#22b573;opacity:0.61;}</style><linearGradient id="linear-gradient" x1="5.32" y1="91.55" x2="156.9" y2="91.55" gradientTransform="translate(-5.38 213.87) rotate(0.34)" gradientUnits="userSpaceOnUse"><stop offset="0.44" stop-color="#29abe2"/><stop offset="1" stop-color="#22b573"/></linearGradient></defs><title>ctlogo</title><g id="Layer_2" data-name="Layer 2"><g id="Layer_1-2" data-name="Layer 1"><path class="cls-1" d="M84.56,214.79s52.3-1.82,64.26,54.4c0,0,3.27-32.07-25.85-49.35C123,219.83,105.6,210.1,84.56,214.79Z"/><path class="cls-2" d="M214.32,31.61S235-5.17,264.68,11.05c0,0,38.31,22.69,9.88,62.09,0,0-7.75,10.11-25.22,16.43,0,0-54.41,12-71.07,55.19,0,0-35.8,70.91-11.09,139,0,0-15.69-118.28,83.45-153.51,0,0,73.44-22.55,46.23-100.79,0,0-15.63-43.95-61.88-24.44C235,5,217,14,214.32,31.61Z"/><path class="cls-3" d="M8.63,141.07S-34.76,280.92,73.06,336.65c0,0,67.42,41,60.19,134.05,0,0,53.37-95.94-28.18-172.37,0,0-17.34-15.08-50.57-29.72C54.51,268.62,7,245.87,8.63,141.07Z"/><path class="cls-4" d="M171.66,392.32s18.21-44.81,85-67.94c0,0,79.11-27.87,60.47-167,0,0,57.32,184.84-92.81,259.87,0,0-67.35,32.75-68.07,153.07C156.23,570.31,125.39,500.6,171.66,392.32Z"/></g></g></svg>