<?xml version="1.0" encoding="utf-8"?>
<!-- Generator: Adobe Illustrator 21.0.0, SVG Export Plug-In . SVG Version: 6.00 Build 0)  -->
<svg version="1.1" id="Layer_1" xmlns="http://www.w3.org/2000/svg" xmlns:xlink="http://www.w3.org/1999/xlink" x="0px" y="0px"
	 viewBox="0 0 1920 1080" style="enable-background:new 0 0 1920 1080;" xml:space="preserve">
<style type="text/css">
	.st0{opacity:0.4;fill:url(#SVGID_1_);}
	.st1{fill:none;}
	.st2{fill:#FFFFFF;cursor:pointer;}
	.st3{font-family:'KomuB';cursor:pointer;}
	.st4{font-size:33px;}
	.st5{font-size:56px;}
	.st6{font-family:'BrandonGrotesque-Medium';}
	.st7{font-size:27px;}
	.st8{font-size:12px;}
	.st9{font-family:'BrandonGrotesque-Regular';}
	.st10{font-size:18px;}
	.st11{font-family:'BrandonGrotesque-Light';}
	.st12{font-size:19px;}
	.st13{fill:#1C1C1C;}
	.st14{fill:#E6E6E6;}
	.st15{opacity:0.28;fill:url(#SVGID_4_);}
	.st16{fill:none;stroke:url(#SVGID_5_);stroke-miterlimit:10;}
	.st17{fill:none;stroke:url(#SVGID_6_);stroke-miterlimit:10;}
	.st18{opacity:0.68;fill:#1F88A0;}
	.st19{font-family:'NiveauGroteskBold';}
	.st20{font-size:36.9753px;}
	.st21{fill:#2D77A5;}
	.st22{font-family:'NeuzeitGro-Bla';}
	.st23{font-size:14.9395px;}
	.st24{opacity:0.68;fill:#FFFFFF;}
	.st25{fill:#999999;}
	.st26{font-family:'NeuzeitGro-Lig';}
	.st27{font-size:16.4335px;}
	.st28{fill:none;stroke:url(#SVGID_7_);stroke-miterlimit:10;}
	.st29{fill:none;stroke:url(#SVGID_8_);stroke-miterlimit:10;}
	.st30{fill:none;stroke:url(#SVGID_9_);stroke-miterlimit:10;}
	.st31{fill:#2E6A70;}
	.st32{font-family:'NeuzeitGro-Bol';}
	.st33{font-size:24.6502px;}
	.st34{fill:none;stroke:#1F88A0;stroke-width:3;stroke-miterlimit:10;}
	.st35{fill:#3393AA;stroke:#3393AA;stroke-width:3;stroke-miterlimit:10;}
	.st36{fill:#9BC8EA;}
	.st37{fill:#7C7C7C;}
	.st38{font-size:17.1805px;}
	.st39{opacity:0.68;fill:#0D809B;}
	.st40{font-size:9.9357px;}
	.st41{fill:none;stroke:#074A59;stroke-width:3;stroke-miterlimit:10;}
	.st42{fill:#12A9CC;}
	.st43{font-family:'NeuzeitGro-Reg';}
	.st44{font-size:15.313px;}
	.st45{opacity:0.15;fill:url(#SVGID_10_);}
	.st46{opacity:0.28;fill:url(#SVGID_13_);}
	.st47{opacity:0.28;fill:url(#SVGID_14_);}
	.st48{opacity:0.28;fill:url(#SVGID_15_);}
	.st49{opacity:0.28;fill:url(#SVGID_16_);}
	.st50{opacity:0.28;fill:url(#SVGID_17_);}
	.st51{font-size:17.5742px;}
	.st52{opacity:0.74;fill:#29ABE2;}
	.st53{opacity:0.67;fill:#29ABE2;}
	.st54{opacity:0.63;fill:url(#SVGID_18_);}
	.st55{opacity:0.61;fill:#22B573;}
	.st56{opacity:0.15;fill:url(#SVGID_19_);}
	.st57{font-size:24px;cursor:pointer;}
	.st58{fill:none;stroke:#FFFFFF;stroke-width:4;stroke-miterlimit:10;}
</style>
<linearGradient id="SVGID_1_" gradientUnits="userSpaceOnUse" x1="2760" y1="540" x2="4680" y2="540" gradientTransform="matrix(-1 0 0 1 4680 0)">
	<stop  offset="0" style="stop-color:#29ABE2"/>
	<stop  offset="1" style="stop-color:#22B573"/>
</linearGradient>
<polygon class="st0" points="0,1080 1920,1080 1920,0 0,0 "/>
<rect x="69.8" y="378" class="st1" width="469.2" height="32"/>
<text transform="matrix(1 0 0 1 69.7773 401.1001)" class="st2 st3 st4">Design Practise Module</text>
<rect x="67.8" y="318" class="st1" width="437.7" height="41"/>
<text transform="matrix(1 0 0 1 67.7773 357.1997)" class="st2 st3 st5">Year 2</text>
<text transform="matrix(1 0 0 1 70 443)"><tspan x="0" y="0" class="st2 st6 st7">The Client:</tspan><tspan x="0" y="14.4" class="st2 st6 st8"> </tspan><tspan x="0" y="36" class="st2 st9 st10">UNKNOWN</tspan></text>
<text transform="matrix(1 0 0 1 70 524)"><tspan x="0" y="0" class="st2 st11 st12">This was a group project, the main goal was to create a </tspan><tspan x="0" y="22.8" class="st2 st11 st12">app for clinical trials. I was the UX Designer for the</tspan><tspan x="0" y="45.6" class="st2 st11 st12">project which meant I needed to create the wireframes and</tspan><tspan x="0" y="68.4" class="st2 st11 st12">also create the UX Design.</tspan><tspan x="0" y="114" class="st2 st11 st12">To create the design for the app I used Adobe Illustrator.</tspan><tspan x="0" y="136.8" class="st2 st11 st12">The font used was Neuzeit Grotesk.</tspan><tspan x="0" y="159.6" class="st2 st11 st12">This was my second attempt of designing a app.</tspan></text>
<g>

		<image style="overflow:visible;opacity:0.15;" width="617" height="1005" xlink:href="4A0B407F25584DD1.png"  transform="matrix(1 0 0 1 729 57)">
	</image>
	<g>
		<path class="st13" d="M1297.6,987.5l-346.7,65.3c-27.6,5.2-54.4-13.1-59.6-40.7L735.9,187.5c-5.2-27.6,13.1-54.4,40.7-59.6
			l346.7-65.3c27.6-5.2,54.4,13.1,59.6,40.7L1338.2,928C1343.4,955.6,1325.1,982.4,1297.6,987.5z"/>
	</g>
</g>
<path class="st14" d="M995,148.5L928.6,161c-1,0.2-1.9-0.5-2.1-1.4l-0.8-4.2c-0.2-1,0.5-1.9,1.4-2.1l66.4-12.5
	c1-0.2,1.9,0.5,2.1,1.4l0.8,4.2C996.6,147.4,996,148.3,995,148.5z"/>
<g>
	<defs>
		<path id="SVGID_2_" d="M1303.1,880.5l-396.4,74.7c-1.1,0.2-2.1-0.5-2.3-1.6l-134-711.1c-0.2-1.1,0.5-2.1,1.6-2.3l396.4-74.7
			c1.1-0.2,2.1,0.5,2.3,1.6l134,711.1C1304.9,879.3,1304.2,880.3,1303.1,880.5z"/>
	</defs>
	<use xlink:href="#SVGID_2_"  style="overflow:visible;fill:#FFFFFF;"/>
	<clipPath id="SVGID_3_">
		<use xlink:href="#SVGID_2_"  style="overflow:visible;"/>
	</clipPath>
	<use xlink:href="#SVGID_2_"  style="overflow:visible;fill:none;stroke:#595959;stroke-miterlimit:10;"/>
</g>
<rect x="776.1" y="75.9" transform="matrix(0.9827 -0.1852 0.1852 0.9827 -65.6699 196.0514)" class="st1" width="481.2" height="747.4"/>
<linearGradient id="SVGID_4_" gradientUnits="userSpaceOnUse" x1="860.6148" y1="501.0649" x2="1265.2239" y2="501.0649" gradientTransform="matrix(0.9827 -0.1852 0.1852 0.9827 -106.7337 220.9594)">
	<stop  offset="0" style="stop-color:#29ABE2"/>
	<stop  offset="1" style="stop-color:#22B573"/>
</linearGradient>
<path class="st15" d="M867.8,745.4c0,0,498.7,320.9,349.3-324.8c0,0-84.7-181.3-239.6-218.6l-204.8,38.6L867.8,745.4z"/>
<linearGradient id="SVGID_5_" gradientUnits="userSpaceOnUse" x1="1206.5249" y1="233.3124" x2="1247.4882" y2="233.3124" gradientTransform="matrix(0.9827 -0.1852 0.1852 0.9827 -106.7337 220.9594)">
	<stop  offset="0" style="stop-color:#29ABE2"/>
	<stop  offset="1" style="stop-color:#22B573"/>
</linearGradient>
<ellipse transform="matrix(0.9827 -0.1852 0.1852 0.9827 -21.542 215.3854)" class="st16" cx="1142.3" cy="223" rx="20" ry="20"/>
<linearGradient id="SVGID_6_" gradientUnits="userSpaceOnUse" x1="1209.5128" y1="233.3124" x2="1244.5002" y2="233.3124" gradientTransform="matrix(0.9827 -0.1852 0.1852 0.9827 -106.7337 220.9594)">
	<stop  offset="0" style="stop-color:#29ABE2"/>
	<stop  offset="1" style="stop-color:#22B573"/>
</linearGradient>
<ellipse transform="matrix(0.9827 -0.1852 0.1852 0.9827 -21.542 215.3854)" class="st17" cx="1142.3" cy="223" rx="17" ry="17"/>
<rect x="844.2" y="437.6" transform="matrix(0.9827 -0.1852 0.1852 0.9827 -75.8699 187.1415)" class="st1" width="239.4" height="124.3"/>
<text transform="matrix(0.9827 -0.1852 0.1852 0.9827 839.4128 485.8976)"><tspan x="0" y="0" class="st18 st19 st20">what is the </tspan><tspan x="0" y="44.4" class="st18 st19 st20">name of your </tspan><tspan x="0" y="88.7" class="st18 st19 st20">condition?</tspan></text>
<g>

		<image style="overflow:visible;opacity:0.75;" width="365" height="153" xlink:href="4A0B407F25584DD3.png"  transform="matrix(1 0 0 1 880 625)">
	</image>
	<g>
		<path class="st2" d="M1204.9,701.1l-285.4,53.8c-12.1,2.3-23.7-5.7-25.9-17.7l-4.5-23.9c-2.3-12.1,5.7-23.7,17.7-25.9l285.4-53.8
			c12.1-2.3,23.7,5.7,25.9,17.7l4.5,23.9C1224.9,687.2,1216.9,698.8,1204.9,701.1z"/>
	</g>
</g>
<rect x="879.8" y="655.8" transform="matrix(0.9827 -0.1852 0.1852 0.9827 -108.04 179.4397)" class="st1" width="53.6" height="24.5"/>
<text transform="matrix(0.9827 -0.1852 0.1852 0.9827 879.7368 670.7814)" class="st21 st22 st23">answer:</text>
<rect x="893.1" y="829.3" transform="matrix(0.9827 -0.1852 0.1852 0.9827 -141.9328 217.8018)" class="st24" width="403.7" height="78.8"/>
<g>

		<rect x="922.5" y="909.4" transform="matrix(0.9827 -0.1852 0.1852 0.9827 -154.611 195.0856)" class="st1" width="89" height="31.6"/>
	<text transform="matrix(0.9827 -0.1852 0.1852 0.9827 922.3446 928.7234)" class="st25 st26 st27">Home</text>
</g>
<linearGradient id="SVGID_7_" gradientUnits="userSpaceOnUse" x1="1227.0065" y1="233.3124" x2="1243.8135" y2="233.3124" gradientTransform="matrix(0.9827 -0.1852 0.1852 0.9827 -106.7337 220.9594)">
	<stop  offset="0" style="stop-color:#29ABE2"/>
	<stop  offset="1" style="stop-color:#22B573"/>
</linearGradient>
<line class="st28" x1="1142.3" y1="223" x2="1158.8" y2="219.9"/>
<linearGradient id="SVGID_8_" gradientUnits="userSpaceOnUse" x1="1235.41" y1="227.5234" x2="1242.8798" y2="227.5234" gradientTransform="matrix(0.9827 -0.1852 0.1852 0.9827 -106.7337 220.9594)">
	<stop  offset="0" style="stop-color:#29ABE2"/>
	<stop  offset="1" style="stop-color:#22B573"/>
</linearGradient>
<line class="st29" x1="1149.4" y1="215.8" x2="1156.8" y2="214.4"/>
<linearGradient id="SVGID_9_" gradientUnits="userSpaceOnUse" x1="1235.5968" y1="239.1015" x2="1243.0665" y2="239.1015" gradientTransform="matrix(0.9827 -0.1852 0.1852 0.9827 -106.7337 220.9594)">
	<stop  offset="0" style="stop-color:#29ABE2"/>
	<stop  offset="1" style="stop-color:#22B573"/>
</linearGradient>
<line class="st30" x1="1151.8" y1="227.1" x2="1159.1" y2="225.7"/>
<image style="overflow:visible;" width="256" height="256" xlink:href="../../../Downloads/home (3).png"  transform="matrix(9.749183e-02 -1.837173e-02 1.837173e-02 9.749183e-02 920.5352 879.7355)">
</image>
<g>

		<rect x="905.7" y="256.6" transform="matrix(0.9827 -0.1852 0.1852 0.9827 -33.6099 184.8464)" class="st1" width="134.1" height="31.6"/>
	<text transform="matrix(0.9827 -0.1852 0.1852 0.9827 906.9088 285.4074)" class="st31 st32 st33">Question 1:</text>
</g>
<line class="st34" x1="822.5" y1="381.7" x2="1160.2" y2="318.1"/>
<ellipse transform="matrix(0.9827 -0.1852 0.1852 0.9827 -55.3103 162.9233)" class="st35" cx="844.5" cy="377.6" rx="3.7" ry="3.7"/>
<ellipse transform="matrix(0.9827 -0.1852 0.1852 0.9827 -53.7203 168.4653)" class="st36" cx="875" cy="371.8" rx="3.7" ry="3.7"/>
<ellipse transform="matrix(0.9827 -0.1852 0.1852 0.9827 -52.0345 174.3412)" class="st36" cx="907.3" cy="365.7" rx="3.7" ry="3.7"/>
<ellipse transform="matrix(0.9827 -0.1852 0.1852 0.9827 -50.253 180.551)" class="st36" cx="941.4" cy="359.3" rx="3.7" ry="3.7"/>
<ellipse transform="matrix(0.9827 -0.1852 0.1852 0.9827 -48.5098 186.6272)" class="st36" cx="974.8" cy="353" rx="3.7" ry="3.7"/>
<ellipse transform="matrix(0.9827 -0.1852 0.1852 0.9827 -46.7474 192.7702)" class="st36" cx="1008.6" cy="346.6" rx="3.7" ry="3.7"/>
<ellipse transform="matrix(0.9827 -0.1852 0.1852 0.9827 -45.1574 198.3122)" class="st36" cx="1039.1" cy="340.9" rx="3.7" ry="3.7"/>
<ellipse transform="matrix(0.9827 -0.1852 0.1852 0.9827 -43.4717 204.1881)" class="st36" cx="1071.3" cy="334.8" rx="3.7" ry="3.7"/>
<ellipse transform="matrix(0.9827 -0.1852 0.1852 0.9827 -41.6901 210.3979)" class="st36" cx="1105.5" cy="328.4" rx="3.7" ry="3.7"/>
<ellipse transform="matrix(0.9827 -0.1852 0.1852 0.9827 -39.9469 216.4741)" class="st36" cx="1138.9" cy="322.1" rx="3.7" ry="3.7"/>
<image style="overflow:visible;" width="256" height="256" xlink:href="../../../Downloads/down-arrow.png"  transform="matrix(6.881776e-02 -1.296828e-02 1.296828e-02 6.881776e-02 1173.337 668.29)">
</image>
<rect x="931.7" y="695.1" transform="matrix(0.9827 -0.1852 0.1852 0.9827 -114.6059 200.681)" class="st1" width="170.6" height="37.6"/>
<text transform="matrix(0.9827 -0.1852 0.1852 0.9827 931.7521 722.4289)" class="st37 st26 st38">Lymphoma</text>
<image style="overflow:visible;" width="256" height="256" xlink:href="../../../Downloads/right-arrow.png"  transform="matrix(-7.168517e-02 1.350863e-02 1.350863e-02 7.168517e-02 832.394 282.9257)">
</image>
<path class="st2" d="M792.2,343.9c0,0-0.9-109.8,125.5-130.6l-145,27.3L792.2,343.9z"/>
<rect x="1032.7" y="522.4" transform="matrix(0.9827 -0.1852 0.1852 0.9827 -79.9948 200.8702)" class="st1" width="5.3" height="12.5"/>
<text transform="matrix(0.9827 -0.1852 0.1852 0.9827 1032.7786 529.7305)" class="st39 st19 st40">i</text>
<ellipse transform="matrix(0.9827 -0.1852 0.1852 0.9827 -79.5626 200.4683)" class="st41" cx="1033.4" cy="526.2" rx="7" ry="7"/>
<image style="overflow:visible;" width="256" height="256" xlink:href="../../../Downloads/save.png"  transform="matrix(7.741998e-02 -1.458932e-02 1.458932e-02 7.741998e-02 897.3201 833.182)">
</image>
<rect x="1211.5" y="767.9" transform="matrix(0.9827 -0.1852 0.1852 0.9827 -122.4898 244.1709)" class="st1" width="68.8" height="19.9"/>
<text transform="matrix(0.9827 -0.1852 0.1852 0.9827 1232.6691 780.5404)" class="st42 st43 st44">next </text>
<g>

		<rect x="980.8" y="901.4" transform="matrix(0.9827 -0.1852 0.1852 0.9827 -152.3409 203.2502)" class="st1" width="62.1" height="31.6"/>
	<text transform="matrix(0.9827 -0.1852 0.1852 0.9827 980.4042 918.1632)" class="st25 st26 st27">Profile</text>
</g>
<g>

		<rect x="1042.7" y="887.6" transform="matrix(0.9827 -0.1852 0.1852 0.9827 -148.4804 216.9582)" class="st1" width="89" height="31.6"/>
	<text transform="matrix(0.9827 -0.1852 0.1852 0.9827 1042.5 906.8415)" class="st25 st26 st27">Inbox</text>
</g>
<g>

		<rect x="1091.6" y="876.7" transform="matrix(0.9827 -0.1852 0.1852 0.9827 -145.4019 228.1925)" class="st1" width="114.7" height="31.6"/>
	<text transform="matrix(0.9827 -0.1852 0.1852 0.9827 1091.5834 898.3525)" class="st25 st26 st27">Appointments</text>
</g>
<image style="overflow:visible;" width="256" height="256" xlink:href="../../../Downloads/mail.png"  transform="matrix(8.172110e-02 -1.539983e-02 1.539983e-02 8.172110e-02 1041.1067 860.0551)">
</image>
<image style="overflow:visible;" width="256" height="256" xlink:href="../../../Downloads/day-15-on-calendar.png"  transform="matrix(7.598628e-02 -1.431914e-02 1.431914e-02 7.598628e-02 1117.0815 845.7381)">
</image>
<image style="overflow:visible;" width="256" height="256" xlink:href="../../../Downloads/user.png"  transform="matrix(8.458850e-02 -1.594018e-02 1.594018e-02 8.458850e-02 980.7066 870.2969)">
</image>
<image style="overflow:visible;" width="256" height="256" xlink:href="../../../Downloads/settings.png"  transform="matrix(8.602221e-02 -1.621035e-02 1.621035e-02 8.602221e-02 1197.8969 830.889)">
</image>
<g>

		<rect x="1195.8" y="859.1" transform="matrix(0.9827 -0.1852 0.1852 0.9827 -140.559 244.8211)" class="st1" width="89" height="31.6"/>
	<text transform="matrix(0.9827 -0.1852 0.1852 0.9827 1195.6202 878.3671)" class="st25 st26 st27">Settings</text>
</g>
<image style="overflow:visible;" width="256" height="256" xlink:href="../../../Downloads/exit.png"  transform="matrix(7.598628e-02 -1.431914e-02 1.431914e-02 7.598628e-02 1256.1907 825.6049)">
</image>
<linearGradient id="SVGID_10_" gradientUnits="userSpaceOnUse" x1="901.4927" y1="542.7769" x2="1289.0518" y2="542.7769" gradientTransform="matrix(0.9827 -0.1852 0.1852 0.9827 -106.7337 220.9594)">
	<stop  offset="0" style="stop-color:#FFFFFF"/>
	<stop  offset="1" style="stop-color:#FFFFFF;stop-opacity:0"/>
</linearGradient>
<path class="st45" d="M1281.6,990.6L1281.6,990.6L792.5,124.9l314.8-59.3c36.3-6.8,71.7,17.3,78.5,53.6L1335.2,912
	C1342.1,948.4,1318,983.7,1281.6,990.6z"/>
<g>

		<image style="overflow:visible;opacity:0.15;" width="521" height="953" xlink:href="B3A0526065C33F4E.png"  transform="matrix(1 0 0 1 1172 79)">
	</image>
	<g>
		<path class="st13" d="M1564.1,1023.7L1225,995.5c-28-2.3-48.9-27.1-46.6-55l67.3-810.7c2.3-28,27.1-48.9,55-46.6l339.2,28.2
			c28,2.3,48.9,27.1,46.6,55l-67.3,810.7C1616.9,1005,1592.1,1026,1564.1,1023.7z"/>
	</g>
</g>
<path class="st14" d="M1498.8,158.8l-65.4-5.4c-1-0.1-1.7-1-1.7-2l0.3-4.1c0.1-1,1-1.7,2-1.7l65.4,5.4c1,0.1,1.7,1,1.7,2l-0.3,4.1
	C1500.6,158.1,1499.8,158.9,1498.8,158.8z"/>
<g>
	<defs>
		<path id="SVGID_11_" d="M1598.4,924.9l-390.9-32.5c-1.1-0.1-1.9-1.1-1.8-2.2l58.2-701.4c0.1-1.1,1.1-1.9,2.2-1.8l390.9,32.5
			c1.1,0.1,1.9,1.1,1.8,2.2l-58.2,701.4C1600.4,924.2,1599.5,925,1598.4,924.9z"/>
	</defs>
	<use xlink:href="#SVGID_11_"  style="overflow:visible;fill:#FFFFFF;"/>
	<clipPath id="SVGID_12_">
		<use xlink:href="#SVGID_11_"  style="overflow:visible;"/>
	</clipPath>
	<use xlink:href="#SVGID_11_"  style="overflow:visible;fill:none;stroke:#595959;stroke-miterlimit:10;"/>
</g>
<rect x="1207.3" y="83.2" transform="matrix(0.9966 8.276272e-02 -8.276272e-02 0.9966 41.9177 -117.753)" class="st1" width="468" height="727"/>
<linearGradient id="SVGID_13_" gradientUnits="userSpaceOnUse" x1="1235" y1="855.9347" x2="1630.5024" y2="855.9347" gradientTransform="matrix(0.9966 8.276272e-02 -8.276272e-02 0.9966 50.1671 -116.8314)">
	<stop  offset="0" style="stop-color:#29ABE2"/>
	<stop  offset="1" style="stop-color:#22B573"/>
</linearGradient>
<path class="st46" d="M1207.4,871.3c27.9-20.5,68.8-44.8,122.1-58.5c131.5-33.9,243,22.7,276.2,41.3l-5.9,70.8l-394.1-32.7
	L1207.4,871.3z"/>
<linearGradient id="SVGID_14_" gradientUnits="userSpaceOnUse" x1="1235.3662" y1="890.5164" x2="1631.7576" y2="890.5164" gradientTransform="matrix(0.9966 8.276272e-02 -8.276272e-02 0.9966 50.1671 -116.8314)">
	<stop  offset="0" style="stop-color:#29ABE2"/>
	<stop  offset="1" style="stop-color:#22B573"/>
</linearGradient>
<path class="st47" d="M1602.4,893c-3.5-0.8,3.6,0.7,0.4,0c-112.7-22.6-244.4-30.1-396.8-0.8l393.8,32.7L1602.4,893z"/>
<linearGradient id="SVGID_15_" gradientUnits="userSpaceOnUse" x1="1235" y1="852.6929" x2="1632" y2="852.6929" gradientTransform="matrix(0.9966 8.276272e-02 -8.276272e-02 0.9966 50.1671 -116.8314)">
	<stop  offset="0" style="stop-color:#29ABE2"/>
	<stop  offset="1" style="stop-color:#22B573"/>
</linearGradient>
<path class="st48" d="M1604.1,873.2C1598.9,873.7,1609.3,872.8,1604.1,873.2c-100.3,7.7-232.7-7.9-389-94.4l-9.4,112.7l394.1,32.7
	L1604.1,873.2z"/>
<linearGradient id="SVGID_16_" gradientUnits="userSpaceOnUse" x1="1235.7324" y1="836.4777" x2="1630.5024" y2="836.4777" gradientTransform="matrix(0.9966 8.276272e-02 -8.276272e-02 0.9966 50.1671 -116.8314)">
	<stop  offset="0" style="stop-color:#29ABE2"/>
	<stop  offset="1" style="stop-color:#22B573"/>
</linearGradient>
<path class="st49" d="M1215.8,778.9c0,0,127.2-71.1,253.1,31.8c0,0,68.8,74,135.2,62.6l-4.3,51.8l-393.4-32.7L1215.8,778.9z"/>
<linearGradient id="SVGID_17_" gradientUnits="userSpaceOnUse" x1="7023.4976" y1="836.4777" x2="7419" y2="836.4777" gradientTransform="matrix(-0.9966 -8.276272e-02 -8.276272e-02 0.9966 8674.4775 599.3972)">
	<stop  offset="0" style="stop-color:#29ABE2"/>
	<stop  offset="1" style="stop-color:#22B573"/>
</linearGradient>
<path class="st50" d="M1609.2,811.5c0,0-113-91-254.2-10.4c0,0-78.4,54.8-145.1,39.3l-4.3,51.8l394.1,32.7L1609.2,811.5z"/>
<rect x="1444.2" y="768.2" transform="matrix(8.276272e-02 -0.9966 0.9966 8.276272e-02 487.2883 2233.8394)" class="st1" width="26" height="168.1"/>
<text transform="matrix(0.9553 7.932876e-02 -8.275999e-02 0.9966 1373.5442 843.9749)" class="st2 st32 st51">Gaia</text>
<image style="overflow:visible;" width="256" height="256" xlink:href="../../../Downloads/copyright-symbol.png"  transform="matrix(4.561870e-02 3.788525e-03 -3.952411e-03 4.759210e-02 1416.3921 836.5408)">
</image>
<path class="st52" d="M1394.1,492.2c0,0,22.3,0.9,25.5,25.2c0,0,2.4-13.5-9.4-21.8C1410.3,495.6,1403.2,490.9,1394.1,492.2z"/>
<path class="st53" d="M1455.3,418.5c0,0,10-15,22.1-7.1c0,0,15.5,10.9,2.2,26.7c0,0-3.6,4-11.3,6.2c0,0-23.5,3.3-32,21.1
	c0,0-17.5,29-9.3,58.7c0,0-2.8-50.8,40.5-62.6c0,0,32-7.2,23-41.4c0,0-5.2-19.2-25.5-12.4C1464.9,407.9,1457,411.1,1455.3,418.5z"/>
<linearGradient id="SVGID_18_" gradientUnits="userSpaceOnUse" x1="1353.6171" y1="534.5906" x2="1418.2703" y2="534.5906" gradientTransform="matrix(0.9966 8.276272e-02 -8.276272e-02 0.9966 50.1671 -116.8314)">
	<stop  offset="0.4407" style="stop-color:#29ABE2"/>
	<stop  offset="1" style="stop-color:#22B573"/>
</linearGradient>
<path class="st54" d="M1364.2,458.3c0,0-23,58.1,21,85.3c0,0,27.3,19.7,21.2,59c0,0,25.8-39.1-6.3-74.2c0,0-6.9-7-20.5-14.3
	C1379.5,514.1,1360.1,502.9,1364.2,458.3z"/>
<path class="st55" d="M1425.3,570.5c0,0,9.2-18.5,38.4-26.1c0,0,34.6-9.3,31.2-69c0,0,18.3,80.5-48,107.5c0,0-29.7,11.7-34,62.9
	C1412.9,645.7,1402.1,615.1,1425.3,570.5z"/>
<linearGradient id="SVGID_19_" gradientUnits="userSpaceOnUse" x1="1277.2134" y1="553.5626" x2="1654.1764" y2="553.5626" gradientTransform="matrix(0.9966 8.276272e-02 -8.276272e-02 0.9966 50.1671 -116.8314)">
	<stop  offset="0" style="stop-color:#FFFFFF"/>
	<stop  offset="1" style="stop-color:#FFFFFF;stop-opacity:0"/>
</linearGradient>
<path class="st56" d="M1549.8,1022.5L1549.8,1022.5L1315.1,84.4l310.5,25.8c35.8,3,62.7,34.7,59.8,70.6l-64.9,782
	C1617.4,998.6,1585.6,1025.5,1549.8,1022.5z"/>
<rect x="171.8" y="768.6" class="st1" width="288.2" height="19.7"/>
<a class="linkp" href="https://invis.io/VJHDCEICEX2#/293101513_Loading_Page" target="_blank">
<text transform="matrix(1 0 0 1 171.7773 785.417)" class="st2 st3 st57">Click for Prototype</text>
<path class="st58" d="M322.7,802.5H174.3c-12.6,0-22.8-10.2-22.8-22.8v-8.4c0-12.6,10.2-22.8,22.8-22.8h148.4
	c12.6,0,22.8,10.2,22.8,22.8v8.4C345.5,792.3,335.3,802.5,322.7,802.5z"/></a>
</svg>
