<?xml version="1.0" encoding="utf-8"?>
<!-- Generator: Adobe Illustrator 21.0.0, SVG Export Plug-In . SVG Version: 6.00 Build 0)  -->
<svg version="1.1" id="Layer_1" xmlns="http://www.w3.org/2000/svg" xmlns:xlink="http://www.w3.org/1999/xlink" x="0px" y="0px"
	 viewBox="0 0 1920 1080" style="enable-background:new 0 0 1920 1080;" xml:space="preserve">
<style type="text/css">
	.st0{fill:#8D8D8D;}
	.st1{fill:none;}
	.st2{fill:#FFFFFF;cursor:pointer;}
	.st3{font-family:'KomuB';cursor:pointer;}
	.st4{font-size:33px;}
	.st5{font-size:56px;}
	.st6{font-family:'BrandonGrotesque-Light';}
	.st7{font-size:19px;}
	.st8{font-family:'Europa-Light';}
	.st9{font-size:34px;}
	.st10{letter-spacing:2;}
	.st11{fill:#333333;}
	.st12{font-size:24px;}
	.st13{fill:#191818;}
	.st14{fill:#212020;}
	.st15{fill:#E6E6E6;}
	.st16{fill:#B3B3B3;}
	.st17{fill:#931111;}
	.st18{font-size:26px;cursor:pointer;}
	.st19{fill:none;stroke:#FFFFFF;stroke-width:3;stroke-miterlimit:10;}
</style>
<g>
	<rect x="0.5" y="0.5" class="st0" width="1919" height="1079"/>
	<path d="M1919,1v1078H1V1H1919 M1920,0H0v1080h1920V0L1920,0z"/>
</g>
<rect x="1242.8" y="417" class="st1" width="469.2" height="32"/>
<text transform="matrix(1 0 0 1 1242.7773 440.1001)" class="st2 st3 st4">Margaret Olusegun Solicitors</text>
<rect x="1238.8" y="357" class="st1" width="437.7" height="41"/>
<text transform="matrix(1 0 0 1 1238.7773 396.1997)" class="st2 st3 st5">Web Design</text>
<text transform="matrix(1 0 0 1 1245 497)"><tspan x="0" y="0" class="st2 st6 st7">This is the website I designed for a law firm.</tspan><tspan x="0" y="45.6" class="st2 st6 st7">The font that were used were Europa and Raleway.</tspan></text>
<rect x="1237" y="130.8" class="st1" width="495.9" height="33.9"/>
<text transform="matrix(1 0 0 1 1237 156.4751)" class="st2 st8 st9 st10">MARGARET OLUSEGUN</text>
<text transform="matrix(1 0 0 1 1237 192.6924)" class="st11 st8 st12 st10">SOLICITORS &amp; COMMISSIONER FOR OATHS</text>
<g>
	<rect x="507" y="835.8" class="st13" width="192.9" height="162.1"/>
</g>
<rect x="103.1" y="185" class="st14" width="1000.6" height="655.9"/>
<rect x="146.9" y="226.2" class="st15" width="915.7" height="571"/>
<g>
	<path d="M751.4,1010.7h-294c-2.6,0-5.1-1.5-5.9-3.9c-1.7-4.6,1.5-9,5.6-9h294c2.6,0,5.1,1.5,5.9,3.9
		C758.7,1006.3,755.6,1010.7,751.4,1010.7z"/>
</g>
<image style="overflow:visible;" width="2560" height="1405" xlink:href="../../Screen Shot 2018-05-25 at 01.10.55.png"  transform="matrix(0.3578 0 0 0.3578 147 295.1641)">
</image>
<rect x="147" y="226" class="st16" width="916" height="32"/>
<circle class="st17" cx="164" cy="242" r="10"/>
<rect x="213" y="268" class="st2" width="695" height="17"/>
<rect x="1268.8" y="610.6" class="st1" width="288.2" height="19.7"/>
<a class="linkp" href="http://www.msegun.com/" target="_blank">
<text transform="matrix(1 0 0 1 1268.7773 628.8174)" class="st2 st3 st18">Click for Website</text>
<path class="st19" d="M1417.7,644.5h-148.4c-12.6,0-22.8-10.2-22.8-22.8v-8.4c0-12.6,10.2-22.8,22.8-22.8h148.4
	c12.6,0,22.8,10.2,22.8,22.8v8.4C1440.5,634.3,1430.3,644.5,1417.7,644.5z"/></a>
</svg>
