<?xml version="1.0" encoding="utf-8"?>
<!-- Generator: Adobe Illustrator 21.0.0, SVG Export Plug-In . SVG Version: 6.00 Build 0)  -->
<svg version="1.1" id="Layer_1" xmlns="http://www.w3.org/2000/svg" xmlns:xlink="http://www.w3.org/1999/xlink" x="0px" y="0px"
	 viewBox="0 0 1920 1080" style="enable-background:new 0 0 1920 1080;" xml:space="preserve">
<style type="text/css">
	.st0{fill:#8D8D8D;}
	.st1{fill:#FFFFFF;}
	.st2{fill:#333333;}
	.st3{fill:#191818;}
	.st4{fill:#212020;}
	.st5{fill:#E6E6E6;}
	.st6{fill:#B3B3B3;}
	.st7{fill:#931111;}
	.st8{fill:none;stroke:#FFFFFF;stroke-width:3;stroke-miterlimit:10;}
</style>
<g>
	<rect x="0.5" y="0.5" class="st0" width="1919" height="1079"/>
	<path d="M1919,1v1078H1V1H1919 M1920,0H0v1080h1920V0L1920,0z"/>
</g>
<g>
	<path class="st1" d="M1254.8,428.5l-1.9,6.4c-0.1,0.2-0.2,0.5-0.4,0.5h-2.4c-0.3,0-0.3-0.3-0.4-0.5l-1.9-6.3v11.3
		c0,0.2-0.1,0.3-0.3,0.3h-2.9c-0.2,0-0.3-0.2-0.3-0.3v-22.6c0-0.2,0.1-0.3,0.3-0.3h2.8c0.4,0,0.4,0.3,0.5,0.5l3.4,11.7l3.4-11.7
		c0.1-0.2,0.1-0.5,0.5-0.5h2.8c0.2,0,0.3,0.1,0.3,0.3v22.6c0,0.1-0.1,0.3-0.3,0.3h-2.9c-0.1,0-0.3-0.1-0.3-0.3V428.5z"/>
	<path class="st1" d="M1266.7,417c0.2,0,0.3,0.2,0.3,0.3l4.3,22.6c0,0.2-0.1,0.3-0.3,0.3h-3c-0.1,0-0.3-0.1-0.3-0.3l-0.7-4.1h-3.5
		l-0.7,4.1c0,0.2-0.1,0.3-0.3,0.3h-3c-0.2,0-0.3-0.1-0.3-0.3l4.4-22.6c0-0.1,0.1-0.3,0.3-0.3H1266.7z M1264.1,432.5h2.4l-1.2-6.9
		L1264.1,432.5z"/>
	<path class="st1" d="M1278.7,440.1c-0.2,0-0.3-0.2-0.3-0.3l-2.5-9.8v9.8c0,0.2-0.1,0.3-0.3,0.3h-3c-0.2,0-0.3-0.2-0.3-0.3v-22.6
		c0-0.2,0.1-0.3,0.3-0.3h4.4c4.1,0,5.4,1.8,5.4,5.3v2.3c0,2.2-0.9,4.2-3.1,5l2.9,10.2c0,0.2-0.1,0.3-0.3,0.3H1278.7z M1275.9,420.3
		v6.4h1.2c1.8,0,1.9-1.3,1.9-2.2v-1.9c0-1.1-0.2-2.3-1.9-2.3H1275.9z"/>
	<path class="st1" d="M1289,436.9c1.4,0,1.5-1.1,1.5-2V430h-1.2c-0.2,0-0.3-0.1-0.3-0.3V427c0-0.2,0.1-0.3,0.3-0.3h4.4
		c0.2,0,0.3,0.1,0.3,0.3v8.3c0,2.8-1.6,5.1-5,5.1c-3.4,0-5-2.3-5-5.1v-13.4c0-2.8,1.7-5.1,5-5.1c3.5,0,5,2.1,5,5.1v1.3
		c0,0.2-0.1,0.2-0.3,0.2h-3c-0.1,0-0.3-0.1-0.3-0.2v-1c0-0.9-0.3-2-1.5-2c-1.4,0-1.5,1.4-1.5,2V435
		C1287.5,435.8,1287.7,436.9,1289,436.9z"/>
	<path class="st1" d="M1302,417c0.2,0,0.3,0.2,0.3,0.3l4.3,22.6c0,0.2-0.1,0.3-0.3,0.3h-3c-0.1,0-0.3-0.1-0.3-0.3l-0.7-4.1h-3.5
		l-0.7,4.1c0,0.2-0.1,0.3-0.3,0.3h-3c-0.2,0-0.3-0.1-0.3-0.3l4.4-22.6c0-0.1,0.1-0.3,0.3-0.3H1302z M1299.4,432.5h2.4l-1.2-6.9
		L1299.4,432.5z"/>
	<path class="st1" d="M1314,440.1c-0.2,0-0.3-0.2-0.3-0.3l-2.5-9.8v9.8c0,0.2-0.1,0.3-0.3,0.3h-3c-0.2,0-0.3-0.2-0.3-0.3v-22.6
		c0-0.2,0.1-0.3,0.3-0.3h4.4c4.1,0,5.4,1.8,5.4,5.3v2.3c0,2.2-0.9,4.2-3.1,5l2.9,10.2c0,0.2-0.1,0.3-0.3,0.3H1314z M1311.2,420.3
		v6.4h1.2c1.8,0,1.9-1.3,1.9-2.2v-1.9c0-1.1-0.2-2.3-1.9-2.3H1311.2z"/>
	<path class="st1" d="M1320.1,440.1c-0.2,0-0.3-0.2-0.3-0.3v-22.6c0-0.2,0.1-0.3,0.3-0.3h9.5c0.1,0,0.3,0.1,0.3,0.3v2.8
		c0,0.2-0.1,0.2-0.3,0.2h-6.3v6.4h4.8c0.1,0,0.3,0.1,0.3,0.3v2.8c0,0.2-0.1,0.3-0.3,0.3h-4.8v6.8h6.3c0.1,0,0.3,0.1,0.3,0.2v2.8
		c0,0.2-0.1,0.3-0.3,0.3H1320.1z"/>
	<path class="st1" d="M1337.2,420.3v19.5c0,0.2-0.1,0.3-0.2,0.3h-3c-0.2,0-0.3-0.2-0.3-0.3v-19.5h-3c-0.2,0-0.3-0.1-0.3-0.2v-2.8
		c0-0.2,0.1-0.3,0.3-0.3h9.5c0.1,0,0.3,0.1,0.3,0.3v2.8c0,0.2-0.1,0.2-0.3,0.2H1337.2z"/>
	<path class="st1" d="M1352.1,440.4c-3.4,0-5-2.3-5-5.1v-13.4c0-2.8,1.7-5.1,5-5.1c3.5,0,5,2.1,5,5.1v13.4
		C1357.1,438,1355.5,440.4,1352.1,440.4z M1350.6,435.1c0,0.9,0.3,1.9,1.5,1.9c1.4,0,1.5-1.1,1.5-1.9V422c0-0.9-0.3-1.9-1.5-1.9
		c-1.4,0-1.5,1.3-1.5,1.9V435.1z"/>
	<path class="st1" d="M1359.9,440.1c-0.2,0-0.3-0.2-0.3-0.3v-22.6c0-0.2,0.1-0.3,0.3-0.3h3c0.2,0,0.3,0.1,0.3,0.3v19.5h6.3
		c0.2,0,0.3,0.1,0.3,0.3v2.8c0,0.2-0.1,0.3-0.3,0.3H1359.9z"/>
	<path class="st1" d="M1375.2,436.9c1.4,0,1.5-1.1,1.5-2v-17.7c0-0.2,0.1-0.3,0.3-0.3h3c0.1,0,0.2,0.1,0.2,0.3v18
		c0,2.8-1.6,5.1-5,5.1s-5-2.3-5-5.1v-18c0-0.2,0.1-0.3,0.3-0.3h3c0.2,0,0.3,0.1,0.3,0.3V435C1373.7,435.8,1373.9,436.9,1375.2,436.9
		z"/>
	<path class="st1" d="M1387.2,436.9c1.4,0,1.5-1.1,1.5-2v-2.2c0-1.3-0.6-2.5-2.3-2.9c-3.1-0.7-4.2-3.3-4.2-5.8v-2.2
		c0-2.8,1.7-5.1,5-5.1c3.5,0,5,2.1,5,5.1v1.3c0,0.2-0.1,0.2-0.3,0.2h-3c-0.1,0-0.3-0.1-0.3-0.2v-1c0-0.9-0.3-2-1.5-2
		c-1.4,0-1.5,1.4-1.5,2v1.8c0,1.4,0.6,2.5,2.3,2.9c3.1,0.8,4.2,3.4,4.2,5.8v2.6c0,2.8-1.6,5.1-5,5.1c-3.4,0-5-2.3-5-5.1v-1.6
		c0-0.2,0.1-0.2,0.3-0.2h3c0.1,0,0.3,0.1,0.3,0.2v1.3C1385.7,435.8,1385.9,436.9,1387.2,436.9z"/>
	<path class="st1" d="M1394.6,440.1c-0.2,0-0.3-0.2-0.3-0.3v-22.6c0-0.2,0.1-0.3,0.3-0.3h9.5c0.1,0,0.3,0.1,0.3,0.3v2.8
		c0,0.2-0.1,0.2-0.3,0.2h-6.3v6.4h4.8c0.1,0,0.3,0.1,0.3,0.3v2.8c0,0.2-0.1,0.3-0.3,0.3h-4.8v6.8h6.3c0.1,0,0.3,0.1,0.3,0.2v2.8
		c0,0.2-0.1,0.3-0.3,0.3H1394.6z"/>
	<path class="st1" d="M1410.6,436.9c1.4,0,1.5-1.1,1.5-2V430h-1.2c-0.2,0-0.3-0.1-0.3-0.3V427c0-0.2,0.1-0.3,0.3-0.3h4.4
		c0.2,0,0.3,0.1,0.3,0.3v8.3c0,2.8-1.6,5.1-5,5.1s-5-2.3-5-5.1v-13.4c0-2.8,1.7-5.1,5-5.1c3.5,0,5,2.1,5,5.1v1.3
		c0,0.2-0.1,0.2-0.3,0.2h-3c-0.1,0-0.3-0.1-0.3-0.2v-1c0-0.9-0.3-2-1.5-2c-1.4,0-1.5,1.4-1.5,2V435
		C1409.1,435.8,1409.3,436.9,1410.6,436.9z"/>
	<path class="st1" d="M1422.9,436.9c1.4,0,1.5-1.1,1.5-2v-17.7c0-0.2,0.1-0.3,0.3-0.3h3c0.1,0,0.2,0.1,0.2,0.3v18
		c0,2.8-1.6,5.1-5,5.1c-3.4,0-5-2.3-5-5.1v-18c0-0.2,0.1-0.3,0.3-0.3h3c0.2,0,0.3,0.1,0.3,0.3V435
		C1421.3,435.8,1421.6,436.9,1422.9,436.9z"/>
	<path class="st1" d="M1437.5,440.1c-0.2,0-0.3-0.2-0.3-0.3l-3.1-10.8v10.8c0,0.2-0.1,0.3-0.3,0.3h-2.9c-0.2,0-0.3-0.2-0.3-0.3
		v-22.6c0-0.2,0.1-0.3,0.3-0.3h3c0.2,0,0.3,0.1,0.3,0.3l3.1,10.8v-10.8c0-0.2,0.1-0.3,0.3-0.3h2.9c0.1,0,0.3,0.1,0.3,0.3v22.6
		c0,0.2-0.1,0.3-0.3,0.3H1437.5z"/>
	<path class="st1" d="M1453.5,436.9c1.4,0,1.5-1.1,1.5-2v-2.2c0-1.3-0.6-2.5-2.3-2.9c-3.1-0.7-4.2-3.3-4.2-5.8v-2.2
		c0-2.8,1.7-5.1,5-5.1c3.5,0,5,2.1,5,5.1v1.3c0,0.2-0.1,0.2-0.3,0.2h-3c-0.1,0-0.3-0.1-0.3-0.2v-1c0-0.9-0.3-2-1.5-2
		c-1.4,0-1.5,1.4-1.5,2v1.8c0,1.4,0.6,2.5,2.3,2.9c3.1,0.8,4.2,3.4,4.2,5.8v2.6c0,2.8-1.6,5.1-5,5.1s-5-2.3-5-5.1v-1.6
		c0-0.2,0.1-0.2,0.3-0.2h3c0.1,0,0.3,0.1,0.3,0.2v1.3C1452,435.8,1452.3,436.9,1453.5,436.9z"/>
	<path class="st1" d="M1465.2,440.4c-3.4,0-5-2.3-5-5.1v-13.4c0-2.8,1.7-5.1,5-5.1c3.5,0,5,2.1,5,5.1v13.4
		C1470.2,438,1468.6,440.4,1465.2,440.4z M1463.7,435.1c0,0.9,0.3,1.9,1.5,1.9c1.4,0,1.5-1.1,1.5-1.9V422c0-0.9-0.3-1.9-1.5-1.9
		c-1.4,0-1.5,1.3-1.5,1.9V435.1z"/>
	<path class="st1" d="M1472.9,440.1c-0.2,0-0.3-0.2-0.3-0.3v-22.6c0-0.2,0.1-0.3,0.3-0.3h3c0.2,0,0.3,0.1,0.3,0.3v19.5h6.3
		c0.2,0,0.3,0.1,0.3,0.3v2.8c0,0.2-0.1,0.3-0.3,0.3H1472.9z"/>
	<path class="st1" d="M1484.3,440.1c-0.2,0-0.3-0.2-0.3-0.3v-22.6c0-0.2,0.1-0.3,0.3-0.3h3c0.2,0,0.3,0.1,0.3,0.3v22.6
		c0,0.2-0.1,0.3-0.3,0.3H1484.3z"/>
	<path class="st1" d="M1493.5,435c0,0.6,0.2,2,1.5,2c1.2,0,1.5-1.1,1.5-2v-1.3c0-0.2,0.1-0.2,0.3-0.2h3c0.2,0,0.3,0.1,0.3,0.2v1.6
		c0,3-1.7,5.1-5,5.1c-3.3,0-5-2.3-5-5.1v-13.4c0-2.8,1.7-5.1,5-5.1c3.5,0,5,2.1,5,5.1v1.3c0,0.2-0.1,0.2-0.3,0.2h-3
		c-0.1,0-0.3-0.1-0.3-0.2v-1c0-0.9-0.3-2-1.5-2c-1.4,0-1.5,1.4-1.5,2V435z"/>
	<path class="st1" d="M1502.2,440.1c-0.2,0-0.3-0.2-0.3-0.3v-22.6c0-0.2,0.1-0.3,0.3-0.3h3c0.2,0,0.3,0.1,0.3,0.3v22.6
		c0,0.2-0.1,0.3-0.3,0.3H1502.2z"/>
	<path class="st1" d="M1513.6,420.3v19.5c0,0.2-0.1,0.3-0.2,0.3h-3c-0.2,0-0.3-0.2-0.3-0.3v-19.5h-3c-0.2,0-0.3-0.1-0.3-0.2v-2.8
		c0-0.2,0.1-0.3,0.3-0.3h9.5c0.1,0,0.3,0.1,0.3,0.3v2.8c0,0.2-0.1,0.2-0.3,0.2H1513.6z"/>
	<path class="st1" d="M1522.6,440.4c-3.4,0-5-2.3-5-5.1v-13.4c0-2.8,1.7-5.1,5-5.1c3.5,0,5,2.1,5,5.1v13.4
		C1527.6,438,1526,440.4,1522.6,440.4z M1521.1,435.1c0,0.9,0.3,1.9,1.5,1.9c1.4,0,1.5-1.1,1.5-1.9V422c0-0.9-0.3-1.9-1.5-1.9
		c-1.4,0-1.5,1.3-1.5,1.9V435.1z"/>
	<path class="st1" d="M1536.4,440.1c-0.2,0-0.3-0.2-0.3-0.3l-2.5-9.8v9.8c0,0.2-0.1,0.3-0.3,0.3h-3c-0.2,0-0.3-0.2-0.3-0.3v-22.6
		c0-0.2,0.1-0.3,0.3-0.3h4.4c4.1,0,5.4,1.8,5.4,5.3v2.3c0,2.2-0.9,4.2-3.1,5l2.9,10.2c0,0.2-0.1,0.3-0.3,0.3H1536.4z M1533.6,420.3
		v6.4h1.2c1.8,0,1.9-1.3,1.9-2.2v-1.9c0-1.1-0.2-2.3-1.9-2.3H1533.6z"/>
	<path class="st1" d="M1546.5,436.9c1.4,0,1.5-1.1,1.5-2v-2.2c0-1.3-0.6-2.5-2.3-2.9c-3.1-0.7-4.2-3.3-4.2-5.8v-2.2
		c0-2.8,1.7-5.1,5-5.1c3.5,0,5,2.1,5,5.1v1.3c0,0.2-0.1,0.2-0.3,0.2h-3c-0.1,0-0.3-0.1-0.3-0.2v-1c0-0.9-0.3-2-1.5-2
		c-1.4,0-1.5,1.4-1.5,2v1.8c0,1.4,0.6,2.5,2.3,2.9c3.1,0.8,4.2,3.4,4.2,5.8v2.6c0,2.8-1.6,5.1-5,5.1s-5-2.3-5-5.1v-1.6
		c0-0.2,0.1-0.2,0.3-0.2h3c0.1,0,0.3,0.1,0.3,0.2v1.3C1545,435.8,1545.3,436.9,1546.5,436.9z"/>
</g>
<g>
	<path class="st1" d="M1260.4,396.2c-0.3,0-0.4-0.3-0.4-0.4l-4.4-24.2l-4.4,24.2c-0.1,0.2-0.1,0.4-0.4,0.4h-4.7
		c-0.3,0-0.4-0.3-0.4-0.4l-7.3-38.3c-0.1-0.3,0.2-0.4,0.4-0.4h5c0.3,0,0.4,0.2,0.4,0.4l4.2,23.7l4.1-23.7c0.1-0.4,0.3-0.4,0.6-0.4
		h4.9c0.3,0,0.5,0.1,0.6,0.4l4.1,23.7l4.2-23.7c0.1-0.3,0.2-0.4,0.4-0.4h5.1c0.2,0,0.5,0.2,0.4,0.4l-7.3,38.3c0,0.2-0.2,0.4-0.4,0.4
		H1260.4z"/>
	<path class="st1" d="M1275.3,396.2c-0.3,0-0.4-0.3-0.4-0.4v-38.3c0-0.3,0.2-0.4,0.4-0.4h16.2c0.2,0,0.4,0.2,0.4,0.4v4.8
		c0,0.3-0.2,0.4-0.4,0.4h-10.7v10.9h8.1c0.2,0,0.4,0.2,0.4,0.4v4.7c0,0.3-0.2,0.4-0.4,0.4h-8.1v11.5h10.7c0.2,0,0.4,0.2,0.4,0.4v4.8
		c0,0.3-0.2,0.4-0.4,0.4H1275.3z"/>
	<path class="st1" d="M1312.4,366.3v3.8c0,2.7-0.9,5.1-2.7,6.1c2.1,1.2,2.7,3.4,2.7,6.3v4.7c0,4.7-2.4,9-9.2,9h-6.7h-0.1h-0.7
		c-0.3,0-0.4-0.3-0.4-0.4v-38.3c0-0.3,0.2-0.4,0.4-0.4h0.6h0.1h6.7C1309.8,357,1312.4,360.5,1312.4,366.3z M1301.3,362.6v10.9h2
		c3,0,3.2-2.1,3.2-3.6v-3.4c0-1.8-0.4-3.9-3.3-3.9H1301.3z M1301.3,379.1v11.5h2c3,0,3.2-2.2,3.2-3.7v-4c0-1.8-0.8-3.8-3.2-3.8
		H1301.3z"/>
	<path class="st1" d="M1334,396.2h-7.4c-0.3,0-0.4-0.3-0.4-0.4v-38.3c0-0.3,0.2-0.4,0.4-0.4h7.4c6.7,0,9.2,3.5,9.2,9.3v20.9
		C1343.2,391.9,1340.8,396.2,1334,396.2z M1332.1,362.6v28h2c3,0,3.2-2.2,3.2-3.7v-20.4c0-1.8-0.4-3.9-3.3-3.9H1332.1z"/>
	<path class="st1" d="M1347.9,396.2c-0.3,0-0.4-0.3-0.4-0.4v-38.3c0-0.3,0.2-0.4,0.4-0.4h16.2c0.2,0,0.4,0.2,0.4,0.4v4.8
		c0,0.3-0.2,0.4-0.4,0.4h-10.7v10.9h8.1c0.2,0,0.4,0.2,0.4,0.4v4.7c0,0.3-0.2,0.4-0.4,0.4h-8.1v11.5h10.7c0.2,0,0.4,0.2,0.4,0.4v4.8
		c0,0.3-0.2,0.4-0.4,0.4H1347.9z"/>
	<path class="st1" d="M1374.4,390.8c2.3,0,2.6-1.9,2.6-3.4v-3.8c0-2.2-1.1-4.2-4-4.9c-5.2-1.2-7.1-5.7-7.1-9.8v-3.8
		c0-4.7,2.9-8.7,8.5-8.7c6,0,8.5,3.6,8.5,8.7v2.1c0,0.3-0.2,0.4-0.4,0.4h-5c-0.2,0-0.4-0.1-0.4-0.4v-1.6c0-1.5-0.6-3.4-2.6-3.4
		c-2.3,0-2.6,2.3-2.6,3.4v3c0,2.3,1.1,4.3,4,4.9c5.2,1.3,7.1,5.7,7.1,9.9v4.4c0,4.7-2.7,8.7-8.5,8.7c-5.8,0-8.5-4-8.5-8.7v-2.6
		c0-0.3,0.2-0.4,0.4-0.4h5c0.2,0,0.4,0.1,0.4,0.4v2.1C1371.8,388.9,1372.3,390.8,1374.4,390.8z"/>
	<path class="st1" d="M1387,396.2c-0.3,0-0.4-0.3-0.4-0.4v-38.3c0-0.3,0.2-0.4,0.4-0.4h5c0.3,0,0.4,0.2,0.4,0.4v38.3
		c0,0.3-0.2,0.4-0.4,0.4H1387z"/>
	<path class="st1" d="M1405.2,390.8c2.3,0,2.6-1.9,2.6-3.4v-8.3h-2c-0.3,0-0.4-0.2-0.4-0.4V374c0-0.3,0.2-0.4,0.4-0.4h7.5
		c0.3,0,0.4,0.2,0.4,0.4v14c0,4.7-2.7,8.7-8.5,8.7s-8.5-4-8.5-8.7v-22.7c0-4.7,2.9-8.7,8.5-8.7c6,0,8.5,3.6,8.5,8.7v2.1
		c0,0.3-0.2,0.4-0.4,0.4h-5c-0.2,0-0.4-0.1-0.4-0.4v-1.6c0-1.5-0.6-3.4-2.6-3.4c-2.3,0-2.6,2.3-2.6,3.4v21.7
		C1402.6,388.9,1403.1,390.8,1405.2,390.8z"/>
	<path class="st1" d="M1429.4,396.2c-0.3,0-0.4-0.3-0.4-0.4l-5.3-18.4v18.4c0,0.3-0.2,0.4-0.4,0.4h-4.9c-0.3,0-0.4-0.3-0.4-0.4
		v-38.3c0-0.3,0.2-0.4,0.4-0.4h5c0.3,0,0.4,0.2,0.4,0.4l5.3,18.4v-18.4c0-0.3,0.2-0.4,0.4-0.4h4.9c0.2,0,0.4,0.2,0.4,0.4v38.3
		c0,0.3-0.2,0.4-0.4,0.4H1429.4z"/>
</g>
<g>
	<path class="st1" d="M1249,484.5h-3.6c-0.2,0-0.2-0.1-0.2-0.3v-0.3c0-0.2,0.1-0.2,0.2-0.2h8.2c0.2,0,0.2,0.1,0.2,0.2v0.3
		c0,0.1-0.1,0.2-0.2,0.2h-3.6v12.2c0,0.1-0.1,0.2-0.3,0.2h-0.3c-0.1,0-0.2-0.1-0.2-0.2V484.5z"/>
	<path class="st1" d="M1255.3,483.9c0-0.1,0.1-0.2,0.3-0.2h0.3c0.1,0,0.2,0.1,0.2,0.2v6.5c0.2-0.2,1.3-1.2,2.8-1.2
		c2,0,3.1,1.2,3.1,3.5v4.1c0,0.1-0.1,0.2-0.2,0.2h-0.3c-0.1,0-0.2-0.1-0.2-0.2v-4.1c0-1.7-0.8-2.7-2.3-2.7c-1.6,0-2.6,1.2-2.7,1.3
		v5.4c0,0.2-0.1,0.2-0.2,0.2h-0.4c-0.1,0-0.2-0.1-0.2-0.2V483.9z"/>
	<path class="st1" d="M1264.4,485.1c0-0.4,0.3-0.7,0.6-0.7c0.4,0,0.6,0.3,0.6,0.7c0,0.3-0.3,0.6-0.6,0.6
		C1264.7,485.7,1264.4,485.4,1264.4,485.1z M1264.7,489.6c0-0.1,0.1-0.2,0.2-0.2h0.3c0.1,0,0.2,0.1,0.2,0.2v7.1
		c0,0.2-0.1,0.2-0.2,0.2h-0.4c-0.1,0-0.2-0.1-0.2-0.2V489.6z"/>
	<path class="st1" d="M1268,496.1l0.2-0.3c0.1-0.1,0.2-0.1,0.3,0c0.2,0.2,1,0.7,2,0.7c1.1,0,1.8-0.6,1.8-1.3c0-0.9-0.9-1.2-2.1-1.7
		c-1.3-0.5-2.3-1.1-2.3-2.2c0-0.8,0.7-2,2.5-2c1,0,1.8,0.4,2.1,0.6c0.1,0.1,0.2,0.2,0.1,0.4l-0.1,0.2c-0.1,0.1-0.2,0.2-0.4,0.1
		c-0.2-0.1-0.9-0.5-1.7-0.5c-1.2,0-1.6,0.7-1.6,1.2c0,0.8,0.7,1.1,1.8,1.5c1.4,0.5,2.7,1,2.7,2.4c0,1.1-1.2,2.1-2.7,2.1
		c-1.3,0-2.1-0.5-2.5-0.9C1268,496.3,1267.9,496.2,1268,496.1z"/>
	<path class="st1" d="M1279.3,485.1c0-0.4,0.3-0.7,0.6-0.7c0.4,0,0.6,0.3,0.6,0.7c0,0.3-0.3,0.6-0.6,0.6
		C1279.6,485.7,1279.3,485.4,1279.3,485.1z M1279.5,489.6c0-0.1,0.1-0.2,0.2-0.2h0.3c0.1,0,0.2,0.1,0.2,0.2v7.1
		c0,0.2-0.1,0.2-0.2,0.2h-0.4c-0.1,0-0.2-0.1-0.2-0.2V489.6z"/>
	<path class="st1" d="M1282.8,496.1l0.2-0.3c0.1-0.1,0.2-0.1,0.3,0c0.2,0.2,1,0.7,2,0.7c1.1,0,1.8-0.6,1.8-1.3
		c0-0.9-0.9-1.2-2.1-1.7c-1.3-0.5-2.3-1.1-2.3-2.2c0-0.8,0.7-2,2.5-2c1,0,1.8,0.4,2.1,0.6c0.1,0.1,0.2,0.2,0.1,0.4l-0.1,0.2
		c-0.1,0.1-0.2,0.2-0.4,0.1c-0.2-0.1-0.9-0.5-1.7-0.5c-1.2,0-1.6,0.7-1.6,1.2c0,0.8,0.7,1.1,1.8,1.5c1.4,0.5,2.7,1,2.7,2.4
		c0,1.1-1.2,2.1-2.7,2.1c-1.3,0-2.1-0.5-2.5-0.9C1282.8,496.3,1282.8,496.2,1282.8,496.1z"/>
	<path class="st1" d="M1294.7,490.1h-0.9c-0.2,0-0.2-0.1-0.2-0.2v-0.3c0-0.1,0.1-0.2,0.2-0.2h0.9v-2.1c0-0.2,0.1-0.2,0.2-0.2l0.3,0
		c0.1,0,0.2,0.1,0.2,0.2v2.1h2.6c0.2,0,0.2,0.1,0.2,0.2v0.2c0,0.2-0.1,0.2-0.2,0.2h-2.6v4.8c0,0.9,0.1,1.4,1,1.4
		c0.7,0,1.5-0.4,1.7-0.5c0.2-0.1,0.2,0,0.3,0.1l0.1,0.2c0.1,0.1,0.1,0.2-0.1,0.3c-0.3,0.2-1.1,0.7-2.2,0.7c-1.6,0-1.7-0.9-1.7-2.1
		V490.1z"/>
	<path class="st1" d="M1300.7,483.9c0-0.1,0.1-0.2,0.3-0.2h0.3c0.1,0,0.2,0.1,0.2,0.2v6.5c0.2-0.2,1.3-1.2,2.8-1.2
		c2,0,3.1,1.2,3.1,3.5v4.1c0,0.1-0.1,0.2-0.2,0.2h-0.3c-0.1,0-0.2-0.1-0.2-0.2v-4.1c0-1.7-0.8-2.7-2.3-2.7c-1.6,0-2.6,1.2-2.7,1.3
		v5.4c0,0.2-0.1,0.2-0.2,0.2h-0.4c-0.1,0-0.2-0.1-0.2-0.2V483.9z"/>
	<path class="st1" d="M1313.3,489.2c2,0,3.4,1.5,3.4,3.5c0,0.3,0,0.7-0.3,0.7h-6.1c0.1,1.6,1.3,3,3,3c1,0,1.8-0.4,2.2-0.7
		c0.2-0.1,0.2-0.1,0.3,0l0.2,0.3c0.1,0.1,0,0.2-0.1,0.3c-0.4,0.4-1.6,0.9-2.8,0.9c-2.3,0-3.7-1.8-3.7-4
		C1309.5,491,1310.9,489.2,1313.3,489.2z M1315.9,492.7c0-1.5-0.9-2.8-2.6-2.8c-1.7,0-2.8,1.2-2.9,2.8H1315.9z"/>
	<path class="st1" d="M1322.3,489.7c-0.1-0.2-0.1-0.3,0.1-0.3h0.4c0.1,0,0.2,0,0.2,0.2l1.8,6h0l2.3-6.2c0-0.1,0.1-0.2,0.2-0.2h0.1
		c0.1,0,0.2,0.1,0.2,0.2l2.3,6.2h0l1.8-6c0-0.1,0.2-0.2,0.2-0.2h0.4c0.2,0,0.2,0.1,0.1,0.3l-2.3,7.3c0,0.1-0.1,0.2-0.2,0.2h-0.1
		c-0.1,0-0.2-0.1-0.2-0.2l-2.3-6.4h0l-2.3,6.4c0,0.1-0.1,0.2-0.2,0.2h-0.1c-0.1,0-0.2,0-0.2-0.2L1322.3,489.7z"/>
	<path class="st1" d="M1337.8,489.2c2,0,3.4,1.5,3.4,3.5c0,0.3,0,0.7-0.3,0.7h-6.1c0.1,1.6,1.3,3,3,3c1,0,1.8-0.4,2.2-0.7
		c0.2-0.1,0.2-0.1,0.3,0l0.2,0.3c0.1,0.1,0,0.2-0.1,0.3c-0.4,0.4-1.6,0.9-2.8,0.9c-2.3,0-3.7-1.8-3.7-4
		C1334,491,1335.5,489.2,1337.8,489.2z M1340.4,492.7c0-1.5-0.9-2.8-2.6-2.8c-1.7,0-2.8,1.2-2.9,2.8H1340.4z"/>
	<path class="st1" d="M1343.5,483.9c0-0.1,0.1-0.2,0.2-0.2h0.3c0.1,0,0.2,0.1,0.2,0.2v6c0,0,0.9-0.8,2.4-0.8c2.1,0,3.7,1.7,3.7,4
		c0,2.2-1.5,4-3.5,4c-1.5,0-2.4-0.9-2.6-1.1l-0.1,0.7c0,0.2-0.1,0.2-0.3,0.2h-0.2c-0.1,0-0.2-0.1-0.2-0.2V483.9z M1346.8,496.4
		c1.6,0,2.8-1.5,2.8-3.2c0-1.8-1.3-3.2-3-3.2c-1.4,0-2.2,0.8-2.2,0.8v4.3C1344.3,495.2,1345.1,496.4,1346.8,496.4z"/>
	<path class="st1" d="M1352.3,496.1l0.2-0.3c0.1-0.1,0.2-0.1,0.3,0c0.2,0.2,1,0.7,2,0.7c1.1,0,1.8-0.6,1.8-1.3
		c0-0.9-0.9-1.2-2.1-1.7c-1.3-0.5-2.3-1.1-2.3-2.2c0-0.8,0.7-2,2.5-2c1,0,1.8,0.4,2.1,0.6c0.1,0.1,0.2,0.2,0.1,0.4l-0.1,0.2
		c-0.1,0.1-0.2,0.2-0.4,0.1c-0.2-0.1-0.9-0.5-1.7-0.5c-1.2,0-1.6,0.7-1.6,1.2c0,0.8,0.7,1.1,1.8,1.5c1.4,0.5,2.7,1,2.7,2.4
		c0,1.1-1.2,2.1-2.7,2.1c-1.3,0-2.1-0.5-2.5-0.9C1352.3,496.3,1352.2,496.2,1352.3,496.1z"/>
	<path class="st1" d="M1359.5,485.1c0-0.4,0.3-0.7,0.6-0.7c0.4,0,0.6,0.3,0.6,0.7c0,0.3-0.3,0.6-0.6,0.6
		C1359.8,485.7,1359.5,485.4,1359.5,485.1z M1359.7,489.6c0-0.1,0.1-0.2,0.2-0.2h0.3c0.1,0,0.2,0.1,0.2,0.2v7.1
		c0,0.2-0.1,0.2-0.2,0.2h-0.4c-0.1,0-0.2-0.1-0.2-0.2V489.6z"/>
	<path class="st1" d="M1363.8,490.1h-0.9c-0.2,0-0.2-0.1-0.2-0.2v-0.3c0-0.1,0.1-0.2,0.2-0.2h0.9v-2.1c0-0.2,0.1-0.2,0.2-0.2l0.3,0
		c0.1,0,0.2,0.1,0.2,0.2v2.1h2.6c0.2,0,0.2,0.1,0.2,0.2v0.2c0,0.2-0.1,0.2-0.2,0.2h-2.6v4.8c0,0.9,0.1,1.4,1,1.4
		c0.7,0,1.5-0.4,1.7-0.5c0.2-0.1,0.2,0,0.3,0.1l0.1,0.2c0.1,0.1,0.1,0.2-0.1,0.3c-0.3,0.2-1.1,0.7-2.2,0.7c-1.6,0-1.7-0.9-1.7-2.1
		V490.1z"/>
	<path class="st1" d="M1372.9,489.2c2,0,3.4,1.5,3.4,3.5c0,0.3,0,0.7-0.3,0.7h-6.1c0.1,1.6,1.3,3,3,3c1,0,1.8-0.4,2.2-0.7
		c0.2-0.1,0.2-0.1,0.3,0l0.2,0.3c0.1,0.1,0,0.2-0.1,0.3c-0.4,0.4-1.6,0.9-2.8,0.9c-2.3,0-3.7-1.8-3.7-4
		C1369.1,491,1370.6,489.2,1372.9,489.2z M1375.5,492.7c0-1.5-0.9-2.8-2.6-2.8c-1.7,0-2.8,1.2-2.9,2.8H1375.5z"/>
	<path class="st1" d="M1383.3,483.9c0-0.1,0.1-0.2,0.2-0.2h0.4c0.1,0,0.2,0.1,0.2,0.2v12.8c0,0.2-0.1,0.2-0.3,0.2h-0.4
		c-0.1,0-0.2-0.1-0.2-0.2V483.9z"/>
	<path class="st1" d="M1394.9,489.2c1.4,0,2.3,0.8,2.3,0.8v-6c0-0.1,0.1-0.2,0.2-0.2h0.3c0.1,0,0.2,0.1,0.2,0.2v12.8
		c0,0.1-0.1,0.2-0.2,0.2h-0.2c-0.2,0-0.2-0.1-0.3-0.2l-0.1-0.7c-0.2,0.2-1.2,1.1-2.6,1.1c-2,0-3.5-1.8-3.5-4
		C1391.2,491,1392.8,489.2,1394.9,489.2z M1394.8,496.4c1.7,0,2.5-1.3,2.5-1.3v-4.3c0,0-0.9-0.8-2.3-0.8c-1.7,0-3,1.4-3,3.2
		C1392,495,1393.2,496.4,1394.8,496.4z"/>
	<path class="st1" d="M1404.2,489.2c2,0,3.4,1.5,3.4,3.5c0,0.3,0,0.7-0.3,0.7h-6.1c0.1,1.6,1.3,3,3,3c1,0,1.8-0.4,2.2-0.7
		c0.2-0.1,0.2-0.1,0.3,0l0.2,0.3c0.1,0.1,0,0.2-0.1,0.3c-0.4,0.4-1.6,0.9-2.8,0.9c-2.3,0-3.7-1.8-3.7-4
		C1400.4,491,1401.9,489.2,1404.2,489.2z M1406.8,492.7c0-1.5-0.9-2.8-2.6-2.8c-1.7,0-2.8,1.2-2.9,2.8H1406.8z"/>
	<path class="st1" d="M1409.4,496.1l0.2-0.3c0.1-0.1,0.2-0.1,0.3,0c0.2,0.2,1,0.7,2,0.7c1.1,0,1.8-0.6,1.8-1.3
		c0-0.9-0.9-1.2-2.1-1.7c-1.3-0.5-2.3-1.1-2.3-2.2c0-0.8,0.7-2,2.5-2c1,0,1.8,0.4,2.1,0.6c0.1,0.1,0.2,0.2,0.1,0.4l-0.1,0.2
		c-0.1,0.1-0.2,0.2-0.4,0.1c-0.2-0.1-0.9-0.5-1.7-0.5c-1.2,0-1.6,0.7-1.6,1.2c0,0.8,0.7,1.1,1.8,1.5c1.4,0.5,2.7,1,2.7,2.4
		c0,1.1-1.2,2.1-2.7,2.1c-1.3,0-2.1-0.5-2.5-0.9C1409.4,496.3,1409.4,496.2,1409.4,496.1z"/>
	<path class="st1" d="M1416.7,485.1c0-0.4,0.3-0.7,0.6-0.7c0.4,0,0.6,0.3,0.6,0.7c0,0.3-0.3,0.6-0.6,0.6
		C1416.9,485.7,1416.7,485.4,1416.7,485.1z M1416.9,489.6c0-0.1,0.1-0.2,0.2-0.2h0.3c0.1,0,0.2,0.1,0.2,0.2v7.1
		c0,0.2-0.1,0.2-0.2,0.2h-0.4c-0.1,0-0.2-0.1-0.2-0.2V489.6z"/>
	<path class="st1" d="M1421.1,494.3c-0.2-0.3-0.6-1-0.6-1.9c0-1.8,1.3-3.2,3.3-3.2c0.5,0,0.5,0,3.1,0c0.2,0,0.2,0.1,0.2,0.2v0.2
		c0,0.1-0.1,0.2-0.2,0.2l-1.4,0.1c0.4,0.2,1.2,0.9,1.2,2.4c0,1.7-1.2,3.2-3.2,3.2c-1.1,0-1.8-0.4-2.1-0.7c-0.2,0.1-1,0.5-1,1.4
		s0.8,1.1,1.5,1.1h2.8c1.6,0,2.8,0.7,2.8,2.4c0,1.6-1.6,3.1-3.9,3.1c-2.6,0-3.7-1.5-3.7-2.8c0-1.1,0.8-1.7,1.2-2
		c-0.4-0.1-1.5-0.6-1.5-1.7C1419.8,495.1,1420.9,494.4,1421.1,494.3z M1423.8,502.1c1.7,0,3-1,3-2.3c0-0.9-0.5-1.7-1.9-1.7h-2.4
		c-0.2,0-1.5,0.6-1.5,1.8C1421,501,1422,502.1,1423.8,502.1z M1426,492.4c0-1.6-1.1-2.4-2.3-2.4c-1.5,0-2.4,1.1-2.4,2.4
		c0,1.3,0.8,2.4,2.4,2.4C1425.1,494.8,1426,493.8,1426,492.4z"/>
	<path class="st1" d="M1429.4,489.6c0-0.1,0.1-0.2,0.3-0.2h0.2c0.1,0,0.2,0.1,0.2,0.2l0.1,0.8c0.2-0.3,1.3-1.2,2.8-1.2
		c2.1,0,3.1,1.3,3.1,3.5v4.1c0,0.1-0.1,0.2-0.2,0.2h-0.3c-0.1,0-0.2-0.1-0.2-0.2v-4.1c0-1.7-0.8-2.7-2.3-2.7c-1.6,0-2.6,1.2-2.7,1.3
		v5.4c0,0.2-0.1,0.2-0.2,0.2h-0.4c-0.1,0-0.2-0.1-0.2-0.2V489.6z"/>
	<path class="st1" d="M1442,489.2c2,0,3.4,1.5,3.4,3.5c0,0.3,0,0.7-0.3,0.7h-6.1c0.1,1.6,1.3,3,3,3c1,0,1.8-0.4,2.2-0.7
		c0.2-0.1,0.2-0.1,0.3,0l0.2,0.3c0.1,0.1,0,0.2-0.1,0.3c-0.4,0.4-1.6,0.9-2.8,0.9c-2.3,0-3.7-1.8-3.7-4
		C1438.2,491,1439.7,489.2,1442,489.2z M1444.6,492.7c0-1.5-0.9-2.8-2.6-2.8c-1.7,0-2.8,1.2-2.9,2.8H1444.6z"/>
	<path class="st1" d="M1450.9,489.2c1.4,0,2.3,0.8,2.3,0.8v-6c0-0.1,0.1-0.2,0.2-0.2h0.3c0.1,0,0.2,0.1,0.2,0.2v12.8
		c0,0.1-0.1,0.2-0.2,0.2h-0.2c-0.2,0-0.2-0.1-0.3-0.2l-0.1-0.7c-0.2,0.2-1.2,1.1-2.6,1.1c-2,0-3.5-1.8-3.5-4
		C1447.1,491,1448.7,489.2,1450.9,489.2z M1450.7,496.4c1.7,0,2.5-1.3,2.5-1.3v-4.3c0,0-0.9-0.8-2.3-0.8c-1.7,0-3,1.4-3,3.2
		C1448,495,1449.1,496.4,1450.7,496.4z"/>
	<path class="st1" d="M1461.5,490.1h-1.1c-0.2,0-0.2-0.1-0.2-0.2v-0.2c0-0.1,0.1-0.2,0.2-0.2h1.1v-2.6c0-2.2,1.2-3.3,2.9-3.3
		c1,0,1.8,0.5,2.1,0.8c0.1,0.1,0.1,0.2,0,0.3l-0.2,0.3c-0.1,0.1-0.2,0.1-0.3,0c-0.3-0.3-1-0.6-1.7-0.6c-1.2,0-2,0.8-2,2.5v2.6h2.8
		c0.2,0,0.2,0.1,0.2,0.2v0.3c0,0.1-0.1,0.2-0.2,0.2h-2.8v6.6c0,0.1-0.1,0.2-0.2,0.2h-0.3c-0.1,0-0.2-0.1-0.2-0.2V490.1z"/>
	<path class="st1" d="M1470.2,489.2c2.1,0,3.8,1.8,3.8,4c0,2.2-1.7,4-3.8,4c-2.1,0-3.8-1.8-3.8-4
		C1466.4,491,1468.1,489.2,1470.2,489.2z M1470.2,496.4c1.7,0,3-1.4,3-3.2c0-1.7-1.3-3.2-3-3.2c-1.7,0-3,1.4-3,3.2
		C1467.2,495,1468.5,496.4,1470.2,496.4z"/>
	<path class="st1" d="M1476.4,489.6c0-0.1,0.1-0.2,0.2-0.2h0.2c0.1,0,0.2,0.1,0.2,0.2l0.1,0.8c0.2-0.3,1-1.2,2.4-1.2
		c0.6,0,1,0.2,1.2,0.2c0.2,0.1,0.3,0.2,0.2,0.3l-0.2,0.4c-0.1,0.1-0.2,0.2-0.3,0.1c-0.1,0-0.5-0.2-1-0.2c-1.5,0-2.2,1.2-2.3,1.3v5.4
		c0,0.2-0.1,0.2-0.2,0.2h-0.4c-0.1,0-0.2-0.1-0.2-0.2V489.6z"/>
	<path class="st1" d="M1489.2,492.1c0.9,0,1.7,0.3,1.9,0.3c0-1.7-0.2-2.5-1.7-2.5c-1.3,0-2.1,0.5-2.3,0.5c-0.2,0.1-0.2,0-0.3-0.2
		l-0.1-0.2c-0.1-0.2,0-0.2,0.1-0.3c0.1,0,1-0.6,2.6-0.6c2.3,0,2.4,1.4,2.4,3.3v4.2c0,0.1-0.1,0.2-0.2,0.2h-0.2
		c-0.1,0-0.2-0.1-0.2-0.2l-0.1-0.7c-0.5,0.5-1.4,1.1-2.6,1.1c-1.4,0-2.5-1-2.5-2.5C1486,493.2,1487.2,492.1,1489.2,492.1z
		 M1488.6,496.4c1.2,0,2.2-0.7,2.5-1.2v-2.1c-0.2-0.1-1-0.4-1.9-0.4c-1.4,0-2.4,0.7-2.4,1.9C1486.8,495.7,1487.6,496.4,1488.6,496.4
		z"/>
	<path class="st1" d="M1498.9,483.9c0-0.1,0.1-0.2,0.2-0.2h0.3c0.1,0,0.2,0.1,0.2,0.2v12.8c0,0.2-0.1,0.2-0.2,0.2h-0.4
		c-0.1,0-0.2-0.1-0.2-0.2V483.9z"/>
	<path class="st1" d="M1505.2,492.1c0.9,0,1.7,0.3,1.9,0.3c0-1.7-0.2-2.5-1.7-2.5c-1.3,0-2.1,0.5-2.3,0.5c-0.2,0.1-0.2,0-0.3-0.2
		l-0.1-0.2c-0.1-0.2,0-0.2,0.1-0.3c0.1,0,1-0.6,2.6-0.6c2.3,0,2.4,1.4,2.4,3.3v4.2c0,0.1-0.1,0.2-0.2,0.2h-0.2
		c-0.1,0-0.2-0.1-0.2-0.2l-0.1-0.7c-0.5,0.5-1.4,1.1-2.6,1.1c-1.4,0-2.5-1-2.5-2.5C1502,493.2,1503.2,492.1,1505.2,492.1z
		 M1504.6,496.4c1.2,0,2.2-0.7,2.5-1.2v-2.1c-0.2-0.1-1-0.4-1.9-0.4c-1.4,0-2.4,0.7-2.4,1.9C1502.8,495.7,1503.5,496.4,1504.6,496.4
		z"/>
	<path class="st1" d="M1509.9,489.7c-0.1-0.2-0.1-0.3,0.1-0.3h0.4c0.1,0,0.2,0,0.2,0.2l1.8,6h0l2.3-6.2c0-0.1,0.1-0.2,0.2-0.2h0.1
		c0.1,0,0.2,0.1,0.2,0.2l2.3,6.2h0l1.8-6c0-0.1,0.2-0.2,0.2-0.2h0.4c0.2,0,0.2,0.1,0.1,0.3l-2.3,7.3c0,0.1-0.1,0.2-0.2,0.2h-0.1
		c-0.1,0-0.2-0.1-0.2-0.2l-2.3-6.4h0l-2.3,6.4c0,0.1-0.1,0.2-0.2,0.2h-0.1c-0.1,0-0.2,0-0.2-0.2L1509.9,489.7z"/>
	<path class="st1" d="M1526.8,490.1h-1.2c-0.2,0-0.2-0.1-0.2-0.3v-0.2c0-0.1,0.1-0.2,0.2-0.2h1.2v-2.5c0-2.2,1.5-3.4,3.1-3.4
		c1.4,0,2.5,0.7,2.8,1c0.1,0.1,0.1,0.2,0,0.3l-0.2,0.3c-0.1,0.1-0.2,0.1-0.3,0c-0.3-0.2-1.1-0.9-2.3-0.9c-1.2,0-2.3,0.9-2.3,2.6v2.5
		h5.4c0.1,0,0.2,0.1,0.2,0.2v7.1c0,0.2-0.1,0.2-0.3,0.2h-0.3c-0.1,0-0.2-0.1-0.2-0.2v-6.6h-4.8v6.6c0,0.1-0.1,0.2-0.2,0.2h-0.3
		c-0.1,0-0.2-0.1-0.2-0.2V490.1z"/>
	<path class="st1" d="M1536.2,489.6c0-0.1,0.1-0.2,0.2-0.2h0.2c0.1,0,0.2,0.1,0.2,0.2l0.1,0.8c0.2-0.3,1-1.2,2.4-1.2
		c0.6,0,1,0.2,1.2,0.2c0.2,0.1,0.3,0.2,0.2,0.3l-0.2,0.4c-0.1,0.1-0.2,0.2-0.3,0.1c-0.1,0-0.5-0.2-1-0.2c-1.5,0-2.2,1.2-2.3,1.3v5.4
		c0,0.2-0.1,0.2-0.2,0.2h-0.4c-0.1,0-0.2-0.1-0.2-0.2V489.6z"/>
	<path class="st1" d="M1542.3,489.6c0-0.1,0.1-0.2,0.2-0.2h0.2c0.1,0,0.2,0.1,0.2,0.2l0.1,0.8c0.2-0.3,1.1-1.2,2.6-1.2
		c1.2,0,2,0.5,2.5,1.4c0.2-0.3,1.3-1.4,2.8-1.4c2.1,0,3,1.3,3,3.5v4.1c0,0.1-0.1,0.2-0.2,0.2h-0.4c-0.1,0-0.2-0.1-0.2-0.2v-4.1
		c0-1.7-0.8-2.7-2.2-2.7c-1.4,0-2.3,1-2.5,1.3c0.1,0.4,0.2,0.9,0.2,1.4v4.1c0,0.1-0.1,0.2-0.2,0.2h-0.4c-0.1,0-0.2-0.1-0.2-0.2v-4.1
		c0-1.7-0.8-2.7-2.2-2.7c-1.5,0-2.4,1.2-2.5,1.3v5.4c0,0.2-0.1,0.2-0.2,0.2h-0.4c-0.1,0-0.2-0.1-0.2-0.2V489.6z"/>
	<path class="st1" d="M1557.5,495.7c0.4,0,0.8,0.3,0.8,0.8c0,0.4-0.3,0.8-0.8,0.8c-0.4,0-0.8-0.3-0.8-0.8
		C1556.7,496,1557.1,495.7,1557.5,495.7z"/>
	<path class="st1" d="M1249,530.1h-3.6c-0.2,0-0.2-0.1-0.2-0.3v-0.3c0-0.2,0.1-0.2,0.2-0.2h8.2c0.2,0,0.2,0.1,0.2,0.2v0.3
		c0,0.1-0.1,0.2-0.2,0.2h-3.6v12.2c0,0.1-0.1,0.2-0.3,0.2h-0.3c-0.1,0-0.2-0.1-0.2-0.2V530.1z"/>
	<path class="st1" d="M1255.3,529.5c0-0.1,0.1-0.2,0.3-0.2h0.3c0.1,0,0.2,0.1,0.2,0.2v6.5c0.2-0.2,1.3-1.2,2.8-1.2
		c2,0,3.1,1.2,3.1,3.5v4.1c0,0.1-0.1,0.2-0.2,0.2h-0.3c-0.1,0-0.2-0.1-0.2-0.2v-4.1c0-1.7-0.8-2.7-2.3-2.7c-1.6,0-2.6,1.2-2.7,1.3
		v5.4c0,0.2-0.1,0.2-0.2,0.2h-0.4c-0.1,0-0.2-0.1-0.2-0.2V529.5z"/>
	<path class="st1" d="M1267.9,534.8c2,0,3.4,1.5,3.4,3.5c0,0.3,0,0.7-0.3,0.7h-6.1c0.1,1.6,1.3,3,3,3c1,0,1.8-0.4,2.2-0.7
		c0.2-0.1,0.2-0.1,0.3,0l0.2,0.3c0.1,0.1,0,0.2-0.1,0.3c-0.4,0.4-1.6,0.9-2.8,0.9c-2.3,0-3.7-1.8-3.7-4
		C1264.1,536.6,1265.5,534.8,1267.9,534.8z M1270.5,538.3c0-1.5-0.9-2.8-2.6-2.8c-1.7,0-2.8,1.2-2.9,2.8H1270.5z"/>
	<path class="st1" d="M1278.1,535.7h-1.1c-0.2,0-0.2-0.1-0.2-0.2v-0.2c0-0.1,0.1-0.2,0.2-0.2h1.1v-2.6c0-2.2,1.2-3.3,2.9-3.3
		c1,0,1.8,0.5,2.1,0.8c0.1,0.1,0.1,0.2,0,0.3l-0.2,0.3c-0.1,0.1-0.2,0.1-0.3,0c-0.3-0.3-1-0.6-1.7-0.6c-1.2,0-2,0.8-2,2.5v2.6h2.8
		c0.2,0,0.2,0.1,0.2,0.2v0.3c0,0.1-0.1,0.2-0.2,0.2h-2.8v6.6c0,0.1-0.1,0.2-0.2,0.2h-0.3c-0.1,0-0.2-0.1-0.2-0.2V535.7z"/>
	<path class="st1" d="M1286.9,534.8c2.1,0,3.8,1.8,3.8,4c0,2.2-1.7,4-3.8,4c-2.1,0-3.8-1.8-3.8-4
		C1283,536.6,1284.7,534.8,1286.9,534.8z M1286.9,542c1.7,0,3-1.4,3-3.2c0-1.7-1.3-3.2-3-3.2c-1.7,0-3,1.4-3,3.2
		C1283.9,540.6,1285.2,542,1286.9,542z"/>
	<path class="st1" d="M1293,535.2c0-0.1,0.1-0.2,0.3-0.2h0.2c0.1,0,0.2,0.1,0.2,0.2l0.1,0.8c0.2-0.3,1.3-1.2,2.8-1.2
		c2.1,0,3.1,1.3,3.1,3.5v4.1c0,0.1-0.1,0.2-0.2,0.2h-0.3c-0.1,0-0.2-0.1-0.2-0.2v-4.1c0-1.7-0.8-2.7-2.3-2.7c-1.6,0-2.6,1.2-2.7,1.3
		v5.4c0,0.2-0.1,0.2-0.2,0.2h-0.4c-0.1,0-0.2-0.1-0.2-0.2V535.2z"/>
	<path class="st1" d="M1302.7,535.7h-0.9c-0.2,0-0.2-0.1-0.2-0.2v-0.3c0-0.1,0.1-0.2,0.2-0.2h0.9v-2.1c0-0.2,0.1-0.2,0.2-0.2l0.3,0
		c0.1,0,0.2,0.1,0.2,0.2v2.1h2.6c0.2,0,0.2,0.1,0.2,0.2v0.2c0,0.2-0.1,0.2-0.2,0.2h-2.6v4.8c0,0.9,0.1,1.4,1,1.4
		c0.7,0,1.5-0.4,1.7-0.5c0.2-0.1,0.2,0,0.3,0.1l0.1,0.2c0.1,0.1,0.1,0.2-0.1,0.3c-0.3,0.2-1.1,0.7-2.2,0.7c-1.6,0-1.7-0.9-1.7-2.1
		V535.7z"/>
	<path class="st1" d="M1313.1,535.7h-0.9c-0.2,0-0.2-0.1-0.2-0.2v-0.3c0-0.1,0.1-0.2,0.2-0.2h0.9v-2.1c0-0.2,0.1-0.2,0.2-0.2l0.3,0
		c0.1,0,0.2,0.1,0.2,0.2v2.1h2.6c0.2,0,0.2,0.1,0.2,0.2v0.2c0,0.2-0.1,0.2-0.2,0.2h-2.6v4.8c0,0.9,0.1,1.4,1,1.4
		c0.7,0,1.5-0.4,1.7-0.5c0.2-0.1,0.2,0,0.3,0.1l0.1,0.2c0.1,0.1,0.1,0.2-0.1,0.3c-0.3,0.2-1.1,0.7-2.2,0.7c-1.6,0-1.7-0.9-1.7-2.1
		V535.7z"/>
	<path class="st1" d="M1319,529.5c0-0.1,0.1-0.2,0.3-0.2h0.3c0.1,0,0.2,0.1,0.2,0.2v6.5c0.2-0.2,1.3-1.2,2.8-1.2
		c2,0,3.1,1.2,3.1,3.5v4.1c0,0.1-0.1,0.2-0.2,0.2h-0.3c-0.1,0-0.2-0.1-0.2-0.2v-4.1c0-1.7-0.8-2.7-2.3-2.7c-1.6,0-2.6,1.2-2.7,1.3
		v5.4c0,0.2-0.1,0.2-0.2,0.2h-0.4c-0.1,0-0.2-0.1-0.2-0.2V529.5z"/>
	<path class="st1" d="M1331,537.7c0.9,0,1.7,0.3,1.9,0.3c0-1.7-0.2-2.5-1.7-2.5c-1.3,0-2.1,0.5-2.3,0.5c-0.2,0.1-0.2,0-0.3-0.2
		l-0.1-0.2c-0.1-0.2,0-0.2,0.1-0.3c0.1,0,1-0.6,2.6-0.6c2.3,0,2.4,1.4,2.4,3.3v4.2c0,0.1-0.1,0.2-0.2,0.2h-0.2
		c-0.1,0-0.2-0.1-0.2-0.2l-0.1-0.7c-0.5,0.5-1.4,1.1-2.6,1.1c-1.4,0-2.5-1-2.5-2.5C1327.8,538.8,1329,537.7,1331,537.7z M1330.4,542
		c1.2,0,2.2-0.7,2.5-1.2v-2.1c-0.2-0.1-1-0.4-1.9-0.4c-1.4,0-2.4,0.7-2.4,1.9C1328.6,541.3,1329.4,542,1330.4,542z"/>
	<path class="st1" d="M1336.9,535.7h-0.9c-0.2,0-0.2-0.1-0.2-0.2v-0.3c0-0.1,0.1-0.2,0.2-0.2h0.9v-2.1c0-0.2,0.1-0.2,0.2-0.2l0.3,0
		c0.1,0,0.2,0.1,0.2,0.2v2.1h2.6c0.2,0,0.2,0.1,0.2,0.2v0.2c0,0.2-0.1,0.2-0.2,0.2h-2.6v4.8c0,0.9,0.1,1.4,1,1.4
		c0.7,0,1.5-0.4,1.7-0.5c0.2-0.1,0.2,0,0.3,0.1l0.1,0.2c0.1,0.1,0.1,0.2-0.1,0.3c-0.3,0.2-1.1,0.7-2.2,0.7c-1.6,0-1.7-0.9-1.7-2.1
		V535.7z"/>
	<path class="st1" d="M1346.1,535.3c-0.1-0.2-0.1-0.3,0.1-0.3h0.4c0.1,0,0.2,0,0.2,0.2l1.8,6h0l2.3-6.2c0-0.1,0.1-0.2,0.2-0.2h0.1
		c0.1,0,0.2,0.1,0.2,0.2l2.3,6.2h0l1.8-6c0-0.1,0.2-0.2,0.2-0.2h0.4c0.2,0,0.2,0.1,0.1,0.3l-2.3,7.3c0,0.1-0.1,0.2-0.2,0.2h-0.1
		c-0.1,0-0.2-0.1-0.2-0.2l-2.3-6.4h0l-2.3,6.4c0,0.1-0.1,0.2-0.2,0.2h-0.1c-0.1,0-0.2,0-0.2-0.2L1346.1,535.3z"/>
	<path class="st1" d="M1361.6,534.8c2,0,3.4,1.5,3.4,3.5c0,0.3,0,0.7-0.3,0.7h-6.1c0.1,1.6,1.3,3,3,3c1,0,1.8-0.4,2.2-0.7
		c0.2-0.1,0.2-0.1,0.3,0l0.2,0.3c0.1,0.1,0,0.2-0.1,0.3c-0.4,0.4-1.6,0.9-2.8,0.9c-2.3,0-3.7-1.8-3.7-4
		C1357.9,536.6,1359.3,534.8,1361.6,534.8z M1364.2,538.3c0-1.5-0.9-2.8-2.6-2.8c-1.7,0-2.8,1.2-2.9,2.8H1364.2z"/>
	<path class="st1" d="M1367.3,535.2c0-0.1,0.1-0.2,0.2-0.2h0.2c0.1,0,0.2,0.1,0.2,0.2l0.1,0.8c0.2-0.3,1-1.2,2.4-1.2
		c0.6,0,1,0.2,1.2,0.2c0.2,0.1,0.3,0.2,0.2,0.3l-0.2,0.4c-0.1,0.1-0.2,0.2-0.3,0.1c-0.1,0-0.5-0.2-1-0.2c-1.5,0-2.2,1.2-2.3,1.3v5.4
		c0,0.2-0.1,0.2-0.2,0.2h-0.4c-0.1,0-0.2-0.1-0.2-0.2V535.2z"/>
	<path class="st1" d="M1376.6,534.8c2,0,3.4,1.5,3.4,3.5c0,0.3,0,0.7-0.3,0.7h-6.1c0.1,1.6,1.3,3,3,3c1,0,1.8-0.4,2.2-0.7
		c0.2-0.1,0.2-0.1,0.3,0l0.2,0.3c0.1,0.1,0,0.2-0.1,0.3c-0.4,0.4-1.6,0.9-2.8,0.9c-2.3,0-3.7-1.8-3.7-4
		C1372.8,536.6,1374.3,534.8,1376.6,534.8z M1379.2,538.3c0-1.5-0.9-2.8-2.6-2.8c-1.7,0-2.8,1.2-2.9,2.8H1379.2z"/>
	<path class="st1" d="M1386.3,535.2c0-0.1,0.1-0.2,0.2-0.2h0.3c0.1,0,0.2,0.1,0.2,0.2v4.1c0,1.8,0.8,2.7,2.3,2.7
		c1.6,0,2.5-1.2,2.5-1.3v-5.4c0-0.2,0.1-0.2,0.2-0.2h0.3c0.1,0,0.2,0.1,0.2,0.2v7.1c0,0.1-0.1,0.2-0.2,0.2h-0.2
		c-0.2,0-0.2-0.1-0.2-0.2l-0.1-0.7c-0.2,0.3-1.1,1.2-2.6,1.2c-2.1,0-3-1.3-3-3.5V535.2z"/>
	<path class="st1" d="M1395.2,541.7l0.2-0.3c0.1-0.1,0.2-0.1,0.3,0c0.2,0.2,1,0.7,2,0.7c1.1,0,1.8-0.6,1.8-1.3
		c0-0.9-0.9-1.2-2.1-1.7c-1.3-0.5-2.3-1.1-2.3-2.2c0-0.8,0.7-2,2.5-2c1,0,1.8,0.4,2.1,0.6c0.1,0.1,0.2,0.2,0.1,0.4l-0.1,0.2
		c-0.1,0.1-0.2,0.2-0.4,0.1c-0.2-0.1-0.9-0.5-1.7-0.5c-1.2,0-1.6,0.7-1.6,1.2c0,0.8,0.7,1.1,1.8,1.5c1.4,0.5,2.7,1,2.7,2.4
		c0,1.1-1.2,2.1-2.7,2.1c-1.3,0-2.1-0.5-2.5-0.9C1395.2,541.9,1395.1,541.8,1395.2,541.7z"/>
	<path class="st1" d="M1405.8,534.8c2,0,3.4,1.5,3.4,3.5c0,0.3,0,0.7-0.3,0.7h-6.1c0.1,1.6,1.3,3,3,3c1,0,1.8-0.4,2.2-0.7
		c0.2-0.1,0.2-0.1,0.3,0l0.2,0.3c0.1,0.1,0,0.2-0.1,0.3c-0.4,0.4-1.6,0.9-2.8,0.9c-2.3,0-3.7-1.8-3.7-4
		C1402.1,536.6,1403.5,534.8,1405.8,534.8z M1408.4,538.3c0-1.5-0.9-2.8-2.6-2.8c-1.7,0-2.8,1.2-2.9,2.8H1408.4z"/>
	<path class="st1" d="M1414.7,534.8c1.4,0,2.3,0.8,2.3,0.8v-6c0-0.1,0.1-0.2,0.2-0.2h0.3c0.1,0,0.2,0.1,0.2,0.2v12.8
		c0,0.1-0.1,0.2-0.2,0.2h-0.2c-0.2,0-0.2-0.1-0.3-0.2l-0.1-0.7c-0.2,0.2-1.2,1.1-2.6,1.1c-2,0-3.5-1.8-3.5-4
		C1411,536.6,1412.5,534.8,1414.7,534.8z M1414.5,542c1.7,0,2.5-1.3,2.5-1.3v-4.3c0,0-0.9-0.8-2.3-0.8c-1.7,0-3,1.4-3,3.2
		C1411.8,540.6,1412.9,542,1414.5,542z"/>
	<path class="st1" d="M1424.1,535.3c-0.1-0.2-0.1-0.3,0.1-0.3h0.4c0.1,0,0.2,0,0.2,0.2l1.8,6h0l2.3-6.2c0-0.1,0.1-0.2,0.2-0.2h0.1
		c0.1,0,0.2,0.1,0.2,0.2l2.3,6.2h0l1.8-6c0-0.1,0.2-0.2,0.2-0.2h0.4c0.2,0,0.2,0.1,0.1,0.3l-2.3,7.3c0,0.1-0.1,0.2-0.2,0.2h-0.1
		c-0.1,0-0.2-0.1-0.2-0.2l-2.3-6.4h0l-2.3,6.4c0,0.1-0.1,0.2-0.2,0.2h-0.1c-0.1,0-0.2,0-0.2-0.2L1424.1,535.3z"/>
	<path class="st1" d="M1439.6,534.8c2,0,3.4,1.5,3.4,3.5c0,0.3,0,0.7-0.3,0.7h-6.1c0.1,1.6,1.3,3,3,3c1,0,1.8-0.4,2.2-0.7
		c0.2-0.1,0.2-0.1,0.3,0l0.2,0.3c0.1,0.1,0,0.2-0.1,0.3c-0.4,0.4-1.6,0.9-2.8,0.9c-2.3,0-3.7-1.8-3.7-4
		C1435.8,536.6,1437.3,534.8,1439.6,534.8z M1442.2,538.3c0-1.5-0.9-2.8-2.6-2.8c-1.7,0-2.8,1.2-2.9,2.8H1442.2z"/>
	<path class="st1" d="M1445.3,535.2c0-0.1,0.1-0.2,0.2-0.2h0.2c0.1,0,0.2,0.1,0.2,0.2l0.1,0.8c0.2-0.3,1-1.2,2.4-1.2
		c0.6,0,1,0.2,1.2,0.2c0.2,0.1,0.3,0.2,0.2,0.3l-0.2,0.4c-0.1,0.1-0.2,0.2-0.3,0.1c-0.1,0-0.5-0.2-1-0.2c-1.5,0-2.2,1.2-2.3,1.3v5.4
		c0,0.2-0.1,0.2-0.2,0.2h-0.4c-0.1,0-0.2-0.1-0.2-0.2V535.2z"/>
	<path class="st1" d="M1454.5,534.8c2,0,3.4,1.5,3.4,3.5c0,0.3,0,0.7-0.3,0.7h-6.1c0.1,1.6,1.3,3,3,3c1,0,1.8-0.4,2.2-0.7
		c0.2-0.1,0.2-0.1,0.3,0l0.2,0.3c0.1,0.1,0,0.2-0.1,0.3c-0.4,0.4-1.6,0.9-2.8,0.9c-2.3,0-3.7-1.8-3.7-4
		C1450.8,536.6,1452.2,534.8,1454.5,534.8z M1457.1,538.3c0-1.5-0.9-2.8-2.6-2.8c-1.7,0-2.8,1.2-2.9,2.8H1457.1z"/>
	<path class="st1" d="M1464.9,529.5c0-0.1,0.1-0.2,0.2-0.2h7.6c0.1,0,0.2,0.1,0.2,0.2v0.3c0,0.1-0.1,0.2-0.2,0.2h-7v5.2h6
		c0.1,0,0.2,0.1,0.2,0.2v0.3c0,0.1-0.1,0.2-0.2,0.2h-6v5.6h7c0.1,0,0.2,0.1,0.2,0.2v0.3c0,0.1-0.1,0.2-0.2,0.2h-7.6
		c-0.1,0-0.2-0.1-0.2-0.2V529.5z"/>
	<path class="st1" d="M1475.3,535.2c0-0.1,0.1-0.2,0.2-0.2h0.3c0.1,0,0.2,0.1,0.2,0.2v4.1c0,1.8,0.8,2.7,2.3,2.7
		c1.6,0,2.5-1.2,2.5-1.3v-5.4c0-0.2,0.1-0.2,0.2-0.2h0.3c0.1,0,0.2,0.1,0.2,0.2v7.1c0,0.1-0.1,0.2-0.2,0.2h-0.2
		c-0.2,0-0.2-0.1-0.2-0.2l-0.1-0.7c-0.2,0.3-1.1,1.2-2.6,1.2c-2.1,0-3-1.3-3-3.5V535.2z"/>
	<path class="st1" d="M1484.6,535.2c0-0.1,0.1-0.2,0.2-0.2h0.2c0.1,0,0.2,0.1,0.2,0.2l0.1,0.8c0.2-0.3,1-1.2,2.4-1.2
		c0.6,0,1,0.2,1.2,0.2c0.2,0.1,0.3,0.2,0.2,0.3l-0.2,0.4c-0.1,0.1-0.2,0.2-0.3,0.1c-0.1,0-0.5-0.2-1-0.2c-1.5,0-2.2,1.2-2.3,1.3v5.4
		c0,0.2-0.1,0.2-0.2,0.2h-0.4c-0.1,0-0.2-0.1-0.2-0.2V535.2z"/>
	<path class="st1" d="M1494,534.8c2.1,0,3.8,1.8,3.8,4c0,2.2-1.7,4-3.8,4c-2.1,0-3.8-1.8-3.8-4
		C1490.2,536.6,1491.8,534.8,1494,534.8z M1494,542c1.7,0,3-1.4,3-3.2c0-1.7-1.3-3.2-3-3.2c-1.7,0-3,1.4-3,3.2
		C1491,540.6,1492.3,542,1494,542z"/>
	<path class="st1" d="M1500.9,548.1c0,0.1-0.1,0.2-0.2,0.2h-0.3c-0.1,0-0.2-0.1-0.2-0.2v-12.8c0-0.2,0.1-0.2,0.3-0.2h0.2
		c0.1,0,0.2,0.1,0.2,0.2l0.1,0.5c0.2-0.2,1.1-0.9,2.5-0.9c2.1,0,3.7,1.8,3.7,4c0,2.2-1.6,4-3.8,4c-1.3,0-2.1-0.6-2.3-0.8V548.1z
		 M1503.1,542c1.8,0,3.1-1.4,3.1-3.2c0-1.8-1.2-3.2-2.9-3.2c-1.5,0-2.3,1-2.4,1.1v4.4C1501,541.2,1501.8,542,1503.1,542z"/>
	<path class="st1" d="M1511.9,537.7c0.9,0,1.7,0.3,1.9,0.3c0-1.7-0.2-2.5-1.7-2.5c-1.3,0-2.1,0.5-2.3,0.5c-0.2,0.1-0.2,0-0.3-0.2
		l-0.1-0.2c-0.1-0.2,0-0.2,0.1-0.3c0.1,0,1-0.6,2.6-0.6c2.3,0,2.4,1.4,2.4,3.3v4.2c0,0.1-0.1,0.2-0.2,0.2h-0.2
		c-0.1,0-0.2-0.1-0.2-0.2l-0.1-0.7c-0.5,0.5-1.4,1.1-2.6,1.1c-1.4,0-2.5-1-2.5-2.5C1508.8,538.8,1510,537.7,1511.9,537.7z
		 M1511.3,542c1.2,0,2.2-0.7,2.5-1.2v-2.1c-0.2-0.1-1-0.4-1.9-0.4c-1.4,0-2.4,0.7-2.4,1.9C1509.5,541.3,1510.3,542,1511.3,542z"/>
	<path class="st1" d="M1524.2,537.7c0.9,0,1.7,0.3,1.9,0.3c0-1.7-0.2-2.5-1.7-2.5c-1.3,0-2.1,0.5-2.3,0.5c-0.2,0.1-0.2,0-0.3-0.2
		l-0.1-0.2c-0.1-0.2,0-0.2,0.1-0.3c0.1,0,1-0.6,2.6-0.6c2.3,0,2.4,1.4,2.4,3.3v4.2c0,0.1-0.1,0.2-0.2,0.2h-0.2
		c-0.1,0-0.2-0.1-0.2-0.2l-0.1-0.7c-0.5,0.5-1.4,1.1-2.6,1.1c-1.4,0-2.5-1-2.5-2.5C1521,538.8,1522.2,537.7,1524.2,537.7z
		 M1523.6,542c1.2,0,2.2-0.7,2.5-1.2v-2.1c-0.2-0.1-1-0.4-1.9-0.4c-1.4,0-2.4,0.7-2.4,1.9C1521.8,541.3,1522.5,542,1523.6,542z"/>
	<path class="st1" d="M1529.7,535.2c0-0.1,0.1-0.2,0.3-0.2h0.2c0.1,0,0.2,0.1,0.2,0.2l0.1,0.8c0.2-0.3,1.3-1.2,2.8-1.2
		c2.1,0,3.1,1.3,3.1,3.5v4.1c0,0.1-0.1,0.2-0.2,0.2h-0.3c-0.1,0-0.2-0.1-0.2-0.2v-4.1c0-1.7-0.8-2.7-2.3-2.7c-1.6,0-2.6,1.2-2.7,1.3
		v5.4c0,0.2-0.1,0.2-0.2,0.2h-0.4c-0.1,0-0.2-0.1-0.2-0.2V535.2z"/>
	<path class="st1" d="M1542.3,534.8c1.4,0,2.3,0.8,2.3,0.8v-6c0-0.1,0.1-0.2,0.2-0.2h0.3c0.1,0,0.2,0.1,0.2,0.2v12.8
		c0,0.1-0.1,0.2-0.2,0.2h-0.2c-0.2,0-0.2-0.1-0.3-0.2l-0.1-0.7c-0.2,0.2-1.2,1.1-2.6,1.1c-2,0-3.5-1.8-3.5-4
		C1538.6,536.6,1540.1,534.8,1542.3,534.8z M1542.1,542c1.7,0,2.5-1.3,2.5-1.3v-4.3c0,0-0.9-0.8-2.3-0.8c-1.7,0-3,1.4-3,3.2
		C1539.4,540.6,1540.5,542,1542.1,542z"/>
	<path class="st1" d="M1553,529.5c0-0.1,0.1-0.2,0.2-0.2h4.7c2.3,0,4.2,1.7,4.2,4.1c0,1.9-1.3,3.5-3.1,4l2.8,4.9
		c0.1,0.2,0.1,0.3-0.1,0.3h-0.6c-0.1,0-0.2-0.1-0.3-0.2l-2.8-5c-0.2,0-0.5,0-0.7,0h-3.5v4.9c0,0.1-0.1,0.2-0.3,0.2h-0.3
		c-0.1,0-0.2-0.1-0.2-0.2V529.5z M1558,536.7c1.8,0,3.4-1.4,3.4-3.3c0-1.8-1.5-3.2-3.4-3.2h-4v6.5H1558z"/>
	<path class="st1" d="M1567.1,537.7c0.9,0,1.7,0.3,1.9,0.3c0-1.7-0.2-2.5-1.7-2.5c-1.3,0-2.1,0.5-2.3,0.5c-0.2,0.1-0.2,0-0.3-0.2
		l-0.1-0.2c-0.1-0.2,0-0.2,0.1-0.3c0.1,0,1-0.6,2.6-0.6c2.3,0,2.4,1.4,2.4,3.3v4.2c0,0.1-0.1,0.2-0.2,0.2h-0.2
		c-0.1,0-0.2-0.1-0.2-0.2l-0.1-0.7c-0.5,0.5-1.4,1.1-2.6,1.1c-1.4,0-2.5-1-2.5-2.5C1563.9,538.8,1565.1,537.7,1567.1,537.7z
		 M1566.5,542c1.2,0,2.2-0.7,2.5-1.2v-2.1c-0.2-0.1-1-0.4-1.9-0.4c-1.4,0-2.4,0.7-2.4,1.9C1564.7,541.3,1565.4,542,1566.5,542z"/>
	<path class="st1" d="M1572.6,529.5c0-0.1,0.1-0.2,0.2-0.2h0.3c0.1,0,0.2,0.1,0.2,0.2v12.8c0,0.2-0.1,0.2-0.2,0.2h-0.4
		c-0.1,0-0.2-0.1-0.2-0.2V529.5z"/>
	<path class="st1" d="M1579.5,534.8c2,0,3.4,1.5,3.4,3.5c0,0.3,0,0.7-0.3,0.7h-6.1c0.1,1.6,1.3,3,3,3c1,0,1.8-0.4,2.2-0.7
		c0.2-0.1,0.2-0.1,0.3,0l0.2,0.3c0.1,0.1,0,0.2-0.1,0.3c-0.4,0.4-1.6,0.9-2.8,0.9c-2.3,0-3.7-1.8-3.7-4
		C1575.8,536.6,1577.2,534.8,1579.5,534.8z M1582.1,538.3c0-1.5-0.9-2.8-2.6-2.8c-1.7,0-2.8,1.2-2.9,2.8H1582.1z"/>
	<path class="st1" d="M1584.4,535.3c-0.1-0.2-0.1-0.3,0.1-0.3h0.4c0.1,0,0.2,0,0.2,0.2l1.8,6h0l2.3-6.2c0-0.1,0.1-0.2,0.2-0.2h0.1
		c0.1,0,0.2,0.1,0.2,0.2l2.3,6.2h0l1.8-6c0-0.1,0.2-0.2,0.2-0.2h0.4c0.2,0,0.2,0.1,0.1,0.3l-2.3,7.3c0,0.1-0.1,0.2-0.2,0.2h-0.1
		c-0.1,0-0.2-0.1-0.2-0.2l-2.3-6.4h0l-2.3,6.4c0,0.1-0.1,0.2-0.2,0.2h-0.1c-0.1,0-0.2,0-0.2-0.2L1584.4,535.3z"/>
	<path class="st1" d="M1599.3,537.7c0.9,0,1.7,0.3,1.9,0.3c0-1.7-0.2-2.5-1.7-2.5c-1.3,0-2.1,0.5-2.3,0.5c-0.2,0.1-0.2,0-0.3-0.2
		l-0.1-0.2c-0.1-0.2,0-0.2,0.1-0.3c0.1,0,1-0.6,2.6-0.6c2.3,0,2.4,1.4,2.4,3.3v4.2c0,0.1-0.1,0.2-0.2,0.2h-0.2
		c-0.1,0-0.2-0.1-0.2-0.2l-0.1-0.7c-0.5,0.5-1.4,1.1-2.6,1.1c-1.4,0-2.5-1-2.5-2.5C1596.1,538.8,1597.3,537.7,1599.3,537.7z
		 M1598.7,542c1.2,0,2.2-0.7,2.5-1.2v-2.1c-0.2-0.1-1-0.4-1.9-0.4c-1.4,0-2.4,0.7-2.4,1.9C1596.9,541.3,1597.6,542,1598.7,542z"/>
	<path class="st1" d="M1603.7,535.3c-0.1-0.2-0.1-0.3,0.1-0.3h0.4c0.1,0,0.2,0.1,0.2,0.2l3.2,6.4h0l3-6.4c0.1-0.1,0.2-0.2,0.2-0.2
		h0.4c0.2,0,0.2,0.2,0.1,0.3l-6,12.8c0,0.1-0.2,0.2-0.2,0.2h-0.4c-0.2,0-0.2-0.1-0.1-0.3l2.6-5.5L1603.7,535.3z"/>
	<path class="st1" d="M1613.7,541.3c0.4,0,0.8,0.3,0.8,0.8c0,0.4-0.3,0.8-0.8,0.8c-0.4,0-0.8-0.3-0.8-0.8
		C1612.9,541.6,1613.3,541.3,1613.7,541.3z"/>
</g>
<g>
	<path class="st1" d="M1241.7,132.7l9.1,14.6l9.1-14.6h1.7v23.8h-1.8v-20.3l-9,14.3l-9-14.3v20.3h-1.7v-23.8H1241.7z"/>
	<path class="st1" d="M1277,132.7h2l9.5,23.8h-1.9l-2.7-6.9h-11.7l-2.7,6.9h-1.9L1277,132.7z M1272.8,147.9h10.3l-5.2-13.3
		L1272.8,147.9z"/>
	<path class="st1" d="M1294.4,132.7h5.7c4.9,0,7.7,2.8,7.7,6.7c0,5.1-4.5,6.5-6.2,6.6l6.8,10.4h-2.1l-6.7-10.3h-3.5v10.3h-1.8V132.7
		z M1300.2,144.4c3.6,0,5.8-1.9,5.8-5c0-3.1-2.2-5-5.8-5h-4.1v10.1H1300.2z"/>
	<path class="st1" d="M1326.6,144h8.2v9.7c0,0-3.3,3.2-9.3,3.2c-7,0-11.7-5.4-11.7-12.3s4.9-12.3,11.7-12.3c5.9,0,8.6,3.4,8.6,3.4
		l-1.3,1.2c0,0-2.3-2.8-7.4-2.8c-5.8,0-9.9,4.7-9.9,10.6c0,5.9,3.8,10.6,9.9,10.6c5.1,0,7.6-2.2,7.6-2.2v-7.3h-6.5V144z"/>
	<path class="st1" d="M1349.3,132.7h2l9.5,23.8h-1.9l-2.7-6.9h-11.7l-2.7,6.9h-1.9L1349.3,132.7z M1345.1,147.9h10.3l-5.2-13.3
		L1345.1,147.9z"/>
	<path class="st1" d="M1366.7,132.7h5.7c4.9,0,7.7,2.8,7.7,6.7c0,5.1-4.5,6.5-6.2,6.6l6.8,10.4h-2.1l-6.7-10.3h-3.5v10.3h-1.8V132.7
		z M1372.5,144.4c3.6,0,5.8-1.9,5.8-5c0-3.1-2.2-5-5.8-5h-4.1v10.1H1372.5z"/>
	<path class="st1" d="M1389.3,143.5h10.6v1.6h-10.6v9.8h11.6v1.6h-13.4v-23.8h13.2v1.6h-11.4V143.5z"/>
	<path class="st1" d="M1413,134.3h-7.2v-1.6h16.1v1.6h-7.2v22.2h-1.8V134.3z"/>
	<path class="st1" d="M1438.4,144.6c0-6.9,5-12.3,11.8-12.3s11.8,5.4,11.8,12.3s-5,12.3-11.8,12.3
		C1443.3,156.9,1438.4,151.4,1438.4,144.6z M1440.2,144.6c0,5.8,4,10.6,9.9,10.6s9.9-4.7,9.9-10.6c0-5.8-4-10.6-9.9-10.6
		S1440.2,138.7,1440.2,144.6z"/>
	<path class="st1" d="M1468.9,132.7h1.8v22.2h11.4v1.6h-13.1V132.7z"/>
	<path class="st1" d="M1503.3,132.7h1.8v14.9c0,5.5-3,9.3-8.5,9.3s-8.5-3.8-8.5-9.3v-14.9h1.8c0,0,0,6.8,0,14.7c0,4.6,2,7.8,6.7,7.8
		s6.7-3.2,6.7-7.8C1503.3,139.5,1503.3,132.7,1503.3,132.7z"/>
	<path class="st1" d="M1519.7,145.2c-3.5-1.5-6.4-3.4-6.4-7c0-2.7,2.2-5.9,6.6-5.9c4.2,0,6.5,3.4,6.5,3.4l-1.4,1.1
		c0,0-1.7-2.8-5.1-2.8c-3,0-4.9,1.8-4.9,4.2c0,2.9,2.7,4.2,6.1,5.7c3.6,1.6,5.7,3.4,5.7,6.6c0,3.8-3.1,6.4-7.1,6.4
		c-5.2,0-7.4-4.9-7.4-4.9l1.6-1c0,0,1.6,4.1,5.8,4.1c3,0,5.3-1.8,5.3-4.6C1525.1,147.6,1522.5,146.4,1519.7,145.2z"/>
	<path class="st1" d="M1536.1,143.5h10.6v1.6h-10.6v9.8h11.6v1.6h-13.4v-23.8h13.2v1.6h-11.4V143.5z"/>
	<path class="st1" d="M1566.5,144h8.2v9.7c0,0-3.3,3.2-9.3,3.2c-7,0-11.7-5.4-11.7-12.3s4.9-12.3,11.7-12.3c5.9,0,8.6,3.4,8.6,3.4
		l-1.3,1.2c0,0-2.3-2.8-7.4-2.8c-5.8,0-9.9,4.7-9.9,10.6c0,5.9,3.8,10.6,9.9,10.6c5.1,0,7.6-2.2,7.6-2.2v-7.3h-6.5V144z"/>
	<path class="st1" d="M1597.5,132.7h1.8v14.9c0,5.5-3,9.3-8.5,9.3s-8.5-3.8-8.5-9.3v-14.9h1.8c0,0,0,6.8,0,14.7c0,4.6,2,7.8,6.7,7.8
		s6.7-3.2,6.7-7.8C1597.5,139.5,1597.5,132.7,1597.5,132.7z"/>
	<path class="st1" d="M1609.6,132.7l14.6,20.7v-20.7h1.8v23.8h-1.8l-14.6-20.8v20.8h-1.8v-23.8H1609.6z"/>
</g>
<g>
	<path class="st2" d="M1243.5,184.7c-2.5-1.1-4.5-2.4-4.5-4.9c0-1.9,1.5-4.2,4.7-4.2c3,0,4.6,2.4,4.6,2.4l-1,0.7
		c0,0-1.2-1.9-3.6-1.9c-2.1,0-3.5,1.3-3.5,3c0,2.1,1.9,3,4.3,4c2.6,1.1,4,2.4,4,4.7c0,2.7-2.2,4.5-5,4.5c-3.7,0-5.2-3.4-5.2-3.4
		l1.1-0.7c0,0,1.1,2.9,4.1,2.9c2.1,0,3.8-1.2,3.8-3.3C1247.3,186.4,1245.4,185.6,1243.5,184.7z"/>
	<path class="st2" d="M1253.7,184.3c0-4.8,3.5-8.7,8.3-8.7c4.8,0,8.3,3.8,8.3,8.7c0,4.8-3.5,8.7-8.3,8.7
		C1257.2,193,1253.7,189.1,1253.7,184.3z M1255,184.3c0,4.1,2.8,7.5,7,7.5c4.2,0,7-3.3,7-7.5s-2.8-7.5-7-7.5
		C1257.8,176.8,1255,180.2,1255,184.3z"/>
	<path class="st2" d="M1276.2,175.9h1.2v15.6h8v1.2h-9.3V175.9z"/>
	<path class="st2" d="M1291,175.9h1.2v16.8h-1.2V175.9z"/>
	<path class="st2" d="M1312.1,189.3l0.9,0.9c-1.5,1.7-3.7,2.8-6.2,2.8c-4.8,0-8.3-3.8-8.3-8.7c0-4.8,3.5-8.7,8.3-8.7
		c2.4,0,4.5,1,6,2.6l-0.9,0.8c-1.2-1.3-3-2.2-5.1-2.2c-4.2,0-7,3.3-7,7.5s2.8,7.5,7,7.5C1309,191.8,1310.9,190.8,1312.1,189.3z"/>
	<path class="st2" d="M1318.7,175.9h1.2v16.8h-1.2V175.9z"/>
	<path class="st2" d="M1330.6,177h-5.1v-1.2h11.4v1.2h-5.1v15.6h-1.2V177z"/>
	<path class="st2" d="M1340.5,184.3c0-4.8,3.5-8.7,8.3-8.7c4.8,0,8.3,3.8,8.3,8.7c0,4.8-3.5,8.7-8.3,8.7
		C1344,193,1340.5,189.1,1340.5,184.3z M1341.8,184.3c0,4.1,2.8,7.5,7,7.5c4.2,0,7-3.3,7-7.5s-2.8-7.5-7-7.5
		C1344.6,176.8,1341.8,180.2,1341.8,184.3z"/>
	<path class="st2" d="M1363,175.9h4.1c3.5,0,5.4,2,5.4,4.8c0,3.6-3.2,4.6-4.3,4.7l4.8,7.4h-1.5l-4.7-7.3h-2.5v7.3h-1.2V175.9z
		 M1367.2,184.2c2.5,0,4.1-1.3,4.1-3.6c0-2.2-1.6-3.6-4.1-3.6h-2.9v7.1H1367.2z"/>
	<path class="st2" d="M1383,184.7c-2.5-1.1-4.5-2.4-4.5-4.9c0-1.9,1.5-4.2,4.7-4.2c3,0,4.6,2.4,4.6,2.4l-1,0.7c0,0-1.2-1.9-3.6-1.9
		c-2.1,0-3.5,1.3-3.5,3c0,2.1,1.9,3,4.3,4c2.6,1.1,4,2.4,4,4.7c0,2.7-2.2,4.5-5,4.5c-3.7,0-5.2-3.4-5.2-3.4l1.1-0.7
		c0,0,1.1,2.9,4.1,2.9c2.1,0,3.8-1.2,3.8-3.3C1386.8,186.4,1385,185.6,1383,184.7z"/>
	<path class="st2" d="M1416.1,183.5c0,3.7-1.1,5.5-1.1,5.5l3.1,2.7l-0.8,0.9l-3-2.6c-1.1,1.5-3.5,3-5.8,3c-3.4,0-5.3-1.8-5.3-4
		c0-1.9,1.3-2.9,4.2-5.1c-1.9-1.7-3.2-2.8-3.2-4.6c0-1.9,1.6-3.7,4.2-3.7s4.2,1.8,4.2,3.7c0,1.7-0.9,2.5-3.4,4.6l4.7,4.2
		c0,0,0.7-1.1,0.7-4.7H1416.1z M1413.4,189.2l-5.1-4.6c-2,1.6-3.8,2.7-3.8,4.1c0,2.1,1.9,3,4,3
		C1410.7,191.8,1412.6,190.4,1413.4,189.2z M1408.5,183.2c2-1.6,3-2.4,3-3.9c0-1.4-1.2-2.5-3-2.5s-3,1.1-3,2.5
		C1405.6,181,1407.4,182.2,1408.5,183.2z"/>
	<path class="st2" d="M1444.9,189.3l0.9,0.9c-1.5,1.7-3.7,2.8-6.2,2.8c-4.8,0-8.3-3.8-8.3-8.7c0-4.8,3.5-8.7,8.3-8.7
		c2.4,0,4.5,1,6,2.6l-0.9,0.8c-1.2-1.3-3-2.2-5.1-2.2c-4.2,0-7,3.3-7,7.5s2.8,7.5,7,7.5C1441.8,191.8,1443.7,190.8,1444.9,189.3z"/>
	<path class="st2" d="M1450.1,184.3c0-4.8,3.5-8.7,8.3-8.7c4.8,0,8.3,3.8,8.3,8.7c0,4.8-3.5,8.7-8.3,8.7
		C1453.6,193,1450.1,189.1,1450.1,184.3z M1451.4,184.3c0,4.1,2.8,7.5,7,7.5c4.2,0,7-3.3,7-7.5s-2.8-7.5-7-7.5
		C1454.2,176.8,1451.4,180.2,1451.4,184.3z"/>
	<path class="st2" d="M1473.8,175.9l6.4,10.3l6.4-10.3h1.2v16.8h-1.2v-14.3l-6.4,10.1l-6.4-10.1v14.3h-1.2v-16.8H1473.8z"/>
	<path class="st2" d="M1496,175.9l6.4,10.3l6.4-10.3h1.2v16.8h-1.2v-14.3l-6.4,10.1l-6.4-10.1v14.3h-1.2v-16.8H1496z"/>
	<path class="st2" d="M1517.3,175.9h1.2v16.8h-1.2V175.9z"/>
	<path class="st2" d="M1530.2,184.7c-2.5-1.1-4.5-2.4-4.5-4.9c0-1.9,1.5-4.2,4.7-4.2c3,0,4.6,2.4,4.6,2.4l-1,0.7
		c0,0-1.2-1.9-3.6-1.9c-2.1,0-3.5,1.3-3.5,3c0,2.1,1.9,3,4.3,4c2.6,1.1,4,2.4,4,4.7c0,2.7-2.2,4.5-5,4.5c-3.7,0-5.2-3.4-5.2-3.4
		l1.1-0.7c0,0,1.1,2.9,4.1,2.9c2.1,0,3.8-1.2,3.8-3.3C1534,186.4,1532.2,185.6,1530.2,184.7z"/>
	<path class="st2" d="M1545.8,184.7c-2.5-1.1-4.5-2.4-4.5-4.9c0-1.9,1.5-4.2,4.7-4.2c3,0,4.6,2.4,4.6,2.4l-1,0.7
		c0,0-1.2-1.9-3.6-1.9c-2.1,0-3.5,1.3-3.5,3c0,2.1,1.9,3,4.3,4c2.6,1.1,4,2.4,4,4.7c0,2.7-2.2,4.5-5,4.5c-3.7,0-5.2-3.4-5.2-3.4
		l1.1-0.7c0,0,1.1,2.9,4.1,2.9c2.1,0,3.8-1.2,3.8-3.3C1549.6,186.4,1547.8,185.6,1545.8,184.7z"/>
	<path class="st2" d="M1557.4,175.9h1.2v16.8h-1.2V175.9z"/>
	<path class="st2" d="M1564.9,184.3c0-4.8,3.5-8.7,8.3-8.7c4.8,0,8.3,3.8,8.3,8.7c0,4.8-3.5,8.7-8.3,8.7
		C1568.4,193,1564.9,189.1,1564.9,184.3z M1566.2,184.3c0,4.1,2.8,7.5,7,7.5c4.2,0,7-3.3,7-7.5s-2.8-7.5-7-7.5
		C1569,176.8,1566.2,180.2,1566.2,184.3z"/>
	<path class="st2" d="M1588.6,175.9l10.3,14.6v-14.6h1.2v16.8h-1.2l-10.3-14.7v14.7h-1.2v-16.8H1588.6z"/>
	<path class="st2" d="M1608.4,183.5h7.5v1.2h-7.5v6.9h8.2v1.2h-9.5v-16.8h9.3v1.2h-8.1V183.5z"/>
	<path class="st2" d="M1622.8,175.9h4.1c3.5,0,5.4,2,5.4,4.8c0,3.6-3.2,4.6-4.3,4.7l4.8,7.4h-1.5l-4.7-7.3h-2.5v7.3h-1.2V175.9z
		 M1626.9,184.2c2.5,0,4.1-1.3,4.1-3.6c0-2.2-1.6-3.6-4.1-3.6h-2.9v7.1H1626.9z"/>
	<path class="st2" d="M1649,183.5h7.5v1.2h-7.5v8h-1.2v-16.8h9.2v1.2h-7.9V183.5z"/>
	<path class="st2" d="M1661.9,184.3c0-4.8,3.5-8.7,8.3-8.7c4.8,0,8.3,3.8,8.3,8.7c0,4.8-3.5,8.7-8.3,8.7
		C1665.4,193,1661.9,189.1,1661.9,184.3z M1663.2,184.3c0,4.1,2.8,7.5,7,7.5c4.2,0,7-3.3,7-7.5s-2.8-7.5-7-7.5
		C1666,176.8,1663.2,180.2,1663.2,184.3z"/>
	<path class="st2" d="M1684.4,175.9h4.1c3.5,0,5.4,2,5.4,4.8c0,3.6-3.2,4.6-4.3,4.7l4.8,7.4h-1.5l-4.7-7.3h-2.5v7.3h-1.2V175.9z
		 M1688.5,184.2c2.5,0,4.1-1.3,4.1-3.6c0-2.2-1.6-3.6-4.1-3.6h-2.9v7.1H1688.5z"/>
	<path class="st2" d="M1708.2,184.3c0-4.8,3.5-8.7,8.3-8.7c4.8,0,8.3,3.8,8.3,8.7c0,4.8-3.5,8.7-8.3,8.7
		C1711.7,193,1708.2,189.1,1708.2,184.3z M1709.5,184.3c0,4.1,2.8,7.5,7,7.5c4.2,0,7-3.3,7-7.5s-2.8-7.5-7-7.5
		C1712.3,176.8,1709.5,180.2,1709.5,184.3z"/>
	<path class="st2" d="M1735.3,175.9h1.4l6.7,16.8h-1.3l-1.9-4.9h-8.3l-1.9,4.9h-1.3L1735.3,175.9z M1732.4,186.6h7.3l-3.6-9.4
		L1732.4,186.6z"/>
	<path class="st2" d="M1751.2,177h-5.1v-1.2h11.4v1.2h-5.1v15.6h-1.2V177z"/>
	<path class="st2" d="M1773.7,175.9h1.2v16.8h-1.2v-8h-9.7v8h-1.2v-16.8h1.2v7.6h9.7V175.9z"/>
	<path class="st2" d="M1786.3,184.7c-2.5-1.1-4.5-2.4-4.5-4.9c0-1.9,1.5-4.2,4.7-4.2c3,0,4.6,2.4,4.6,2.4l-1,0.7
		c0,0-1.2-1.9-3.6-1.9c-2.1,0-3.5,1.3-3.5,3c0,2.1,1.9,3,4.3,4c2.6,1.1,4,2.4,4,4.7c0,2.7-2.2,4.5-5,4.5c-3.7,0-5.2-3.4-5.2-3.4
		l1.1-0.7c0,0,1.1,2.9,4.1,2.9c2.1,0,3.8-1.2,3.8-3.3C1790.1,186.4,1788.2,185.6,1786.3,184.7z"/>
</g>
<g>
	<rect x="507" y="835.8" class="st3" width="192.9" height="162.1"/>
</g>
<rect x="103.1" y="185" class="st4" width="1000.6" height="655.9"/>
<rect x="146.9" y="226.2" class="st5" width="915.7" height="571"/>
<g>
	<path d="M751.4,1010.7h-294c-2.6,0-5.1-1.5-5.9-3.9c-1.7-4.6,1.5-9,5.6-9h294c2.6,0,5.1,1.5,5.9,3.9
		C758.7,1006.3,755.6,1010.7,751.4,1010.7z"/>
</g>
<image style="overflow:visible;" width="2560" height="1407" xlink:href="mo1.png"  transform="matrix(0.3577 0 0 0.3577 147.151 294.8892)">
</image>
<rect x="147" y="226" class="st6" width="916" height="32"/>
<circle class="st7" cx="164" cy="242" r="10"/>
<rect x="213" y="268" class="st1" width="695" height="17"/>
<g>
	<path class="st1" d="M1272.3,624.8c0,0.5,0.1,1.6,1.2,1.6c0.9,0,1.2-0.9,1.2-1.6v-1c0-0.1,0.1-0.2,0.2-0.2h2.3
		c0.1,0,0.2,0.1,0.2,0.2v1.2c0,2.3-1.4,4-4,4c-2.6,0-4-1.8-4-4v-10.6c0-2.2,1.3-4,4-4c2.8,0,4,1.7,4,4v1c0,0.1-0.1,0.2-0.2,0.2h-2.3
		c-0.1,0-0.2-0.1-0.2-0.2v-0.8c0-0.7-0.3-1.6-1.2-1.6c-1.1,0-1.2,1.1-1.2,1.6V624.8z"/>
	<path class="st1" d="M1279.1,628.8c-0.2,0-0.2-0.1-0.2-0.2v-17.8c0-0.1,0.1-0.2,0.2-0.2h2.3c0.1,0,0.2,0.1,0.2,0.2v15.4h5
		c0.1,0,0.2,0.1,0.2,0.2v2.2c0,0.2-0.1,0.2-0.2,0.2H1279.1z"/>
	<path class="st1" d="M1288.1,628.8c-0.2,0-0.2-0.1-0.2-0.2v-17.8c0-0.1,0.1-0.2,0.2-0.2h2.3c0.1,0,0.2,0.1,0.2,0.2v17.8
		c0,0.2-0.1,0.2-0.2,0.2H1288.1z"/>
	<path class="st1" d="M1295.3,624.8c0,0.5,0.1,1.6,1.2,1.6c0.9,0,1.2-0.9,1.2-1.6v-1c0-0.1,0.1-0.2,0.2-0.2h2.3
		c0.1,0,0.2,0.1,0.2,0.2v1.2c0,2.3-1.4,4-4,4c-2.6,0-4-1.8-4-4v-10.6c0-2.2,1.3-4,4-4c2.8,0,4,1.7,4,4v1c0,0.1-0.1,0.2-0.2,0.2h-2.3
		c-0.1,0-0.2-0.1-0.2-0.2v-0.8c0-0.7-0.3-1.6-1.2-1.6c-1.1,0-1.2,1.1-1.2,1.6V624.8z"/>
	<path class="st1" d="M1307.5,628.8c-0.2,0-0.2-0.1-0.3-0.2l-2.6-7.1v7.1c0,0.2-0.1,0.2-0.2,0.2h-2.3c-0.2,0-0.2-0.1-0.2-0.2v-17.8
		c0-0.1,0.1-0.2,0.2-0.2h2.3c0.1,0,0.2,0.1,0.2,0.2v7.1l2.6-7.1c0.1-0.1,0.1-0.2,0.3-0.2h2.5c0.1,0,0.2,0.1,0.1,0.3l-3.1,8.7
		c-0.1,0.1-0.1,0.2,0,0.4l3.1,8.6c0.1,0.1,0,0.3-0.1,0.3H1307.5z"/>
	<path class="st1" d="M1318.6,620.9v7.7c0,0.2-0.1,0.2-0.2,0.2h-2.3c-0.2,0-0.2-0.1-0.2-0.2v-17.8c0-0.1,0.1-0.2,0.2-0.2h7.5
		c0.1,0,0.2,0.1,0.2,0.2v2.2c0,0.1-0.1,0.2-0.2,0.2h-5v5.1h3.3c0.1,0,0.2,0.1,0.2,0.2v2.2c0,0.2-0.1,0.2-0.2,0.2H1318.6z"/>
	<path class="st1" d="M1328.2,629c-2.7,0-4-1.8-4-4v-10.6c0-2.2,1.3-4,4-4c2.8,0,4,1.7,4,4V625C1332.2,627.2,1330.9,629,1328.2,629z
		 M1327,624.9c0,0.7,0.2,1.5,1.2,1.5c1.1,0,1.2-0.9,1.2-1.5v-10.3c0-0.7-0.3-1.5-1.2-1.5c-1.1,0-1.2,1-1.2,1.5V624.9z"/>
	<path class="st1" d="M1339.1,628.8c-0.2,0-0.2-0.1-0.2-0.2l-2-7.7v7.7c0,0.2-0.1,0.2-0.2,0.2h-2.3c-0.2,0-0.2-0.1-0.2-0.2v-17.8
		c0-0.1,0.1-0.2,0.2-0.2h3.4c3.3,0,4.3,1.5,4.3,4.2v1.8c0,1.7-0.7,3.3-2.4,4l2.3,8c0,0.2-0.1,0.2-0.2,0.2H1339.1z M1336.9,613.2v5.1
		h0.9c1.4,0,1.5-1,1.5-1.7V615c0-0.9-0.2-1.8-1.5-1.8H1336.9z"/>
	<path class="st1" d="M1357,628.8c-0.1,0-0.2-0.1-0.2-0.2l-2-11.2l-2.1,11.2c0,0.1-0.1,0.2-0.2,0.2h-2.2c-0.2,0-0.2-0.1-0.2-0.2
		l-3.4-17.8c0-0.1,0.1-0.2,0.2-0.2h2.3c0.1,0,0.2,0.1,0.2,0.2l2,11l1.9-11c0-0.2,0.2-0.2,0.3-0.2h2.3c0.2,0,0.2,0.1,0.3,0.2l1.9,11
		l1.9-11c0-0.1,0.1-0.2,0.2-0.2h2.4c0.1,0,0.2,0.1,0.2,0.2l-3.4,17.8c0,0.1-0.1,0.2-0.2,0.2H1357z"/>
	<path class="st1" d="M1364,628.8c-0.2,0-0.2-0.1-0.2-0.2v-17.8c0-0.1,0.1-0.2,0.2-0.2h7.5c0.1,0,0.2,0.1,0.2,0.2v2.2
		c0,0.1-0.1,0.2-0.2,0.2h-5v5.1h3.8c0.1,0,0.2,0.1,0.2,0.2v2.2c0,0.2-0.1,0.2-0.2,0.2h-3.8v5.3h5c0.1,0,0.2,0.1,0.2,0.2v2.2
		c0,0.2-0.1,0.2-0.2,0.2H1364z"/>
	<path class="st1" d="M1381.2,614.9v1.8c0,1.2-0.4,2.4-1.2,2.8c1,0.6,1.2,1.6,1.2,2.9v2.2c0,2.2-1.1,4.2-4.3,4.2h-3.1h0h-0.3
		c-0.2,0-0.2-0.1-0.2-0.2v-17.8c0-0.1,0.1-0.2,0.2-0.2h0.3h0.1h3.1C1380,610.6,1381.2,612.2,1381.2,614.9z M1376,613.2v5.1h0.9
		c1.4,0,1.5-1,1.5-1.7V615c0-0.9-0.2-1.8-1.5-1.8H1376z M1376,620.9v5.3h0.9c1.4,0,1.5-1,1.5-1.7v-1.9c0-0.9-0.4-1.7-1.5-1.7H1376z"
		/>
	<path class="st1" d="M1386.4,626.3c1.1,0,1.2-0.9,1.2-1.6V623c0-1-0.5-2-1.8-2.3c-2.4-0.6-3.3-2.6-3.3-4.6v-1.7c0-2.2,1.3-4,4-4
		c2.8,0,4,1.7,4,4v1c0,0.1-0.1,0.2-0.2,0.2h-2.3c-0.1,0-0.2-0.1-0.2-0.2v-0.8c0-0.7-0.3-1.6-1.2-1.6c-1.1,0-1.2,1.1-1.2,1.6v1.4
		c0,1.1,0.5,2,1.8,2.3c2.4,0.6,3.3,2.7,3.3,4.6v2.1c0,2.2-1.2,4-4,4s-4-1.8-4-4v-1.2c0-0.1,0.1-0.2,0.2-0.2h2.3
		c0.1,0,0.2,0.1,0.2,0.2v1C1385.2,625.4,1385.4,626.3,1386.4,626.3z"/>
	<path class="st1" d="M1392.3,628.8c-0.2,0-0.2-0.1-0.2-0.2v-17.8c0-0.1,0.1-0.2,0.2-0.2h2.3c0.1,0,0.2,0.1,0.2,0.2v17.8
		c0,0.2-0.1,0.2-0.2,0.2H1392.3z"/>
	<path class="st1" d="M1401.3,613.2v15.4c0,0.2-0.1,0.2-0.2,0.2h-2.4c-0.1,0-0.2-0.1-0.2-0.2v-15.4h-2.4c-0.2,0-0.2-0.1-0.2-0.2
		v-2.2c0-0.1,0.1-0.2,0.2-0.2h7.5c0.1,0,0.2,0.1,0.2,0.2v2.2c0,0.1-0.1,0.2-0.2,0.2H1401.3z"/>
	<path class="st1" d="M1405.3,628.8c-0.2,0-0.2-0.1-0.2-0.2v-17.8c0-0.1,0.1-0.2,0.2-0.2h7.5c0.1,0,0.2,0.1,0.2,0.2v2.2
		c0,0.1-0.1,0.2-0.2,0.2h-5v5.1h3.8c0.1,0,0.2,0.1,0.2,0.2v2.2c0,0.2-0.1,0.2-0.2,0.2h-3.8v5.3h5c0.1,0,0.2,0.1,0.2,0.2v2.2
		c0,0.2-0.1,0.2-0.2,0.2H1405.3z"/>
</g>
<path class="st8" d="M1417.7,644.5h-148.4c-12.6,0-22.8-10.2-22.8-22.8v-8.4c0-12.6,10.2-22.8,22.8-22.8h148.4
	c12.6,0,22.8,10.2,22.8,22.8v8.4C1440.5,634.3,1430.3,644.5,1417.7,644.5z"/>
</svg>
