<?xml version="1.0" encoding="utf-8"?>
<!-- Generator: Adobe Illustrator 21.0.0, SVG Export Plug-In . SVG Version: 6.00 Build 0)  -->
<svg version="1.1" id="Layer_1" xmlns="http://www.w3.org/2000/svg" xmlns:xlink="http://www.w3.org/1999/xlink" x="0px" y="0px"
	 viewBox="0 0 1920 1080" style="enable-background:new 0 0 1920 1080;" xml:space="preserve">
<style type="text/css">
	.st0{fill:#FEFFF6;}
	.st1{fill:#3D3836;}
	.st2{fill:none;stroke:#3D3836;stroke-width:3;stroke-miterlimit:10;}
	.st3{fill:#686665;}
	.st4{fill:#E6E6E6;}
	.st5{fill:#9B9998;}
	.st6{fill:#B3B3B3;}
	.st7{fill:#931111;}
	.st8{fill:#FFFFFF;}
</style>
<rect class="st0" width="1920" height="1080"/>
<g>
	<path class="st1" d="M1246.5,476.1c-0.2,0-0.3-0.2-0.3-0.3v-22.6c0-0.2,0.1-0.3,0.3-0.3h0.4h0.1h2.5h0.1h1.3c4.1,0,5.4,1.8,5.4,5.3
		v2.4c0,2.8-1.4,5.3-5.4,5.3h-1.2v9.8c0,0.2-0.1,0.3-0.3,0.3H1246.5z M1249.8,456.3v6.4h1.2c1.8,0,1.9-1.3,1.9-2.2v-1.9
		c0-1.1-0.2-2.3-1.9-2.3H1249.8z"/>
	<path class="st1" d="M1264.8,476.1c-0.2,0-0.3-0.2-0.3-0.3l-3.1-10.8v10.8c0,0.2-0.1,0.3-0.3,0.3h-2.9c-0.2,0-0.3-0.2-0.3-0.3
		v-22.6c0-0.2,0.1-0.3,0.3-0.3h3c0.2,0,0.3,0.1,0.3,0.3l3.1,10.8v-10.8c0-0.2,0.1-0.3,0.3-0.3h2.9c0.1,0,0.3,0.1,0.3,0.3v22.6
		c0,0.2-0.1,0.3-0.3,0.3H1264.8z"/>
	<path class="st1" d="M1271.3,476.1c-0.2,0-0.3-0.2-0.3-0.3v-22.6c0-0.2,0.1-0.3,0.3-0.3h9.5c0.1,0,0.3,0.1,0.3,0.3v2.8
		c0,0.2-0.1,0.2-0.3,0.2h-6.3v6.4h4.8c0.1,0,0.3,0.1,0.3,0.3v2.8c0,0.2-0.1,0.3-0.3,0.3h-4.8v6.8h6.3c0.1,0,0.3,0.1,0.3,0.2v2.8
		c0,0.2-0.1,0.3-0.3,0.3H1271.3z"/>
	<path class="st1" d="M1287.9,472.9c1.4,0,1.5-1.1,1.5-2v-17.7c0-0.2,0.1-0.3,0.3-0.3h3c0.1,0,0.2,0.1,0.2,0.3v18
		c0,2.8-1.6,5.1-5,5.1s-5-2.3-5-5.1v-18c0-0.2,0.1-0.3,0.3-0.3h3c0.2,0,0.3,0.1,0.3,0.3V471C1286.4,471.8,1286.7,472.9,1287.9,472.9
		z"/>
	<path class="st1" d="M1306.2,464.5l-1.9,6.4c-0.1,0.2-0.2,0.5-0.4,0.5h-2.4c-0.3,0-0.3-0.3-0.4-0.5l-1.9-6.3v11.3
		c0,0.2-0.1,0.3-0.3,0.3h-2.9c-0.2,0-0.3-0.2-0.3-0.3v-22.6c0-0.2,0.1-0.3,0.3-0.3h2.8c0.4,0,0.4,0.3,0.5,0.5l3.4,11.7l3.4-11.7
		c0.1-0.2,0.1-0.5,0.5-0.5h2.8c0.2,0,0.3,0.1,0.3,0.3v22.6c0,0.1-0.1,0.3-0.3,0.3h-2.9c-0.1,0-0.3-0.1-0.3-0.3V464.5z"/>
	<path class="st1" d="M1318.2,453c0.2,0,0.3,0.2,0.3,0.3l4.3,22.6c0,0.2-0.1,0.3-0.3,0.3h-3c-0.1,0-0.3-0.1-0.3-0.3l-0.7-4.1h-3.5
		l-0.7,4.1c0,0.2-0.1,0.3-0.3,0.3h-3c-0.2,0-0.3-0.1-0.3-0.3l4.4-22.6c0-0.1,0.1-0.3,0.3-0.3H1318.2z M1315.6,468.5h2.4l-1.2-6.9
		L1315.6,468.5z"/>
	<path class="st1" d="M1340.7,476.1c-0.2,0-0.2-0.2-0.3-0.3l-2.6-14.3l-2.6,14.3c0,0.1-0.1,0.3-0.2,0.3h-2.8c-0.2,0-0.3-0.2-0.3-0.3
		l-4.3-22.6c0-0.2,0.1-0.3,0.3-0.3h3c0.2,0,0.2,0.1,0.3,0.3l2.5,14l2.4-14c0-0.2,0.2-0.3,0.3-0.3h2.9c0.2,0,0.3,0.1,0.4,0.3l2.4,14
		l2.5-14c0-0.2,0.1-0.3,0.2-0.3h3c0.1,0,0.3,0.1,0.3,0.3l-4.3,22.6c0,0.1-0.1,0.3-0.3,0.3H1340.7z"/>
	<path class="st1" d="M1349.5,476.1c-0.2,0-0.3-0.2-0.3-0.3v-22.6c0-0.2,0.1-0.3,0.3-0.3h9.5c0.1,0,0.3,0.1,0.3,0.3v2.8
		c0,0.2-0.1,0.2-0.3,0.2h-6.3v6.4h4.8c0.1,0,0.3,0.1,0.3,0.3v2.8c0,0.2-0.1,0.3-0.3,0.3h-4.8v6.8h6.3c0.1,0,0.3,0.1,0.3,0.2v2.8
		c0,0.2-0.1,0.3-0.3,0.3H1349.5z"/>
	<path class="st1" d="M1371.4,458.5v2.2c0,1.6-0.5,3-1.6,3.6c1.2,0.7,1.6,2,1.6,3.7v2.8c0,2.8-1.4,5.3-5.4,5.3h-4h0h-0.4
		c-0.2,0-0.3-0.2-0.3-0.3v-22.6c0-0.2,0.1-0.3,0.3-0.3h0.4h0.1h3.9C1369.9,453,1371.4,455,1371.4,458.5z M1364.8,456.3v6.4h1.2
		c1.8,0,1.9-1.3,1.9-2.1v-2c0-1.1-0.2-2.3-1.9-2.3H1364.8z M1364.8,466v6.8h1.2c1.8,0,1.9-1.3,1.9-2.2v-2.4c0-1.1-0.5-2.2-1.9-2.2
		H1364.8z"/>
	<path class="st1" d="M1378.1,472.9c1.4,0,1.5-1.1,1.5-2v-2.2c0-1.3-0.6-2.5-2.3-2.9c-3.1-0.7-4.2-3.3-4.2-5.8v-2.2
		c0-2.8,1.7-5.1,5-5.1c3.5,0,5,2.1,5,5.1v1.3c0,0.2-0.1,0.2-0.3,0.2h-3c-0.1,0-0.3-0.1-0.3-0.2v-1c0-0.9-0.3-2-1.5-2
		c-1.4,0-1.5,1.4-1.5,2v1.8c0,1.4,0.6,2.5,2.3,2.9c3.1,0.8,4.2,3.4,4.2,5.8v2.6c0,2.8-1.6,5.1-5,5.1c-3.4,0-5-2.3-5-5.1v-1.6
		c0-0.2,0.1-0.2,0.3-0.2h3c0.1,0,0.3,0.1,0.3,0.2v1.3C1376.5,471.8,1376.8,472.9,1378.1,472.9z"/>
	<path class="st1" d="M1385.5,476.1c-0.2,0-0.3-0.2-0.3-0.3v-22.6c0-0.2,0.1-0.3,0.3-0.3h3c0.2,0,0.3,0.1,0.3,0.3v22.6
		c0,0.2-0.1,0.3-0.3,0.3H1385.5z"/>
	<path class="st1" d="M1397,456.3v19.5c0,0.2-0.1,0.3-0.2,0.3h-3c-0.2,0-0.3-0.2-0.3-0.3v-19.5h-3c-0.2,0-0.3-0.1-0.3-0.2v-2.8
		c0-0.2,0.1-0.3,0.3-0.3h9.5c0.1,0,0.3,0.1,0.3,0.3v2.8c0,0.2-0.1,0.2-0.3,0.2H1397z"/>
	<path class="st1" d="M1402,476.1c-0.2,0-0.3-0.2-0.3-0.3v-22.6c0-0.2,0.1-0.3,0.3-0.3h9.5c0.1,0,0.3,0.1,0.3,0.3v2.8
		c0,0.2-0.1,0.2-0.3,0.2h-6.3v6.4h4.8c0.1,0,0.3,0.1,0.3,0.3v2.8c0,0.2-0.1,0.3-0.3,0.3h-4.8v6.8h6.3c0.1,0,0.3,0.1,0.3,0.2v2.8
		c0,0.2-0.1,0.3-0.3,0.3H1402z"/>
	<path class="st1" d="M1419.7,476.1c-0.2,0-0.3-0.2-0.3-0.3v-22.6c0-0.2,0.1-0.3,0.3-0.3h3c0.2,0,0.3,0.1,0.3,0.3v22.6
		c0,0.2-0.1,0.3-0.3,0.3H1419.7z"/>
	<path class="st1" d="M1432.7,476.1c-0.2,0-0.3-0.2-0.3-0.3l-3.1-10.8v10.8c0,0.2-0.1,0.3-0.3,0.3h-2.9c-0.2,0-0.3-0.2-0.3-0.3
		v-22.6c0-0.2,0.1-0.3,0.3-0.3h3c0.2,0,0.3,0.1,0.3,0.3l3.1,10.8v-10.8c0-0.2,0.1-0.3,0.3-0.3h2.9c0.1,0,0.3,0.1,0.3,0.3v22.6
		c0,0.2-0.1,0.3-0.3,0.3H1432.7z"/>
	<path class="st1" d="M1439.2,476.1c-0.2,0-0.3-0.2-0.3-0.3v-22.6c0-0.2,0.1-0.3,0.3-0.3h3c0.2,0,0.3,0.1,0.3,0.3v22.6
		c0,0.2-0.1,0.3-0.3,0.3H1439.2z"/>
	<path class="st1" d="M1450.7,456.3v19.5c0,0.2-0.1,0.3-0.2,0.3h-3c-0.2,0-0.3-0.2-0.3-0.3v-19.5h-3c-0.2,0-0.3-0.1-0.3-0.2v-2.8
		c0-0.2,0.1-0.3,0.3-0.3h9.5c0.1,0,0.3,0.1,0.3,0.3v2.8c0,0.2-0.1,0.2-0.3,0.2H1450.7z"/>
	<path class="st1" d="M1455.7,476.1c-0.2,0-0.3-0.2-0.3-0.3v-22.6c0-0.2,0.1-0.3,0.3-0.3h3c0.2,0,0.3,0.1,0.3,0.3v22.6
		c0,0.2-0.1,0.3-0.3,0.3H1455.7z"/>
	<path class="st1" d="M1467.5,453c0.2,0,0.3,0.2,0.3,0.3l4.3,22.6c0,0.2-0.1,0.3-0.3,0.3h-3c-0.1,0-0.3-0.1-0.3-0.3l-0.7-4.1h-3.5
		l-0.7,4.1c0,0.2-0.1,0.3-0.3,0.3h-3c-0.2,0-0.3-0.1-0.3-0.3l4.4-22.6c0-0.1,0.1-0.3,0.3-0.3H1467.5z M1464.9,468.5h2.4l-1.2-6.9
		L1464.9,468.5z"/>
	<path class="st1" d="M1473.4,476.1c-0.2,0-0.3-0.2-0.3-0.3v-22.6c0-0.2,0.1-0.3,0.3-0.3h3c0.2,0,0.3,0.1,0.3,0.3v19.5h6.3
		c0.2,0,0.3,0.1,0.3,0.3v2.8c0,0.2-0.1,0.3-0.3,0.3H1473.4z"/>
	<path class="st1" d="M1494.8,476.1h-4.4c-0.2,0-0.3-0.2-0.3-0.3v-22.6c0-0.2,0.1-0.3,0.3-0.3h4.4c3.9,0,5.4,2,5.4,5.5v12.3
		C1500.2,473.6,1498.8,476.1,1494.8,476.1z M1493.7,456.3v16.5h1.2c1.8,0,1.9-1.3,1.9-2.2v-12c0-1.1-0.2-2.3-1.9-2.3H1493.7z"/>
	<path class="st1" d="M1503,476.1c-0.2,0-0.3-0.2-0.3-0.3v-22.6c0-0.2,0.1-0.3,0.3-0.3h9.5c0.1,0,0.3,0.1,0.3,0.3v2.8
		c0,0.2-0.1,0.2-0.3,0.2h-6.3v6.4h4.8c0.1,0,0.3,0.1,0.3,0.3v2.8c0,0.2-0.1,0.3-0.3,0.3h-4.8v6.8h6.3c0.1,0,0.3,0.1,0.3,0.2v2.8
		c0,0.2-0.1,0.3-0.3,0.3H1503z"/>
	<path class="st1" d="M1518.6,472.9c1.4,0,1.5-1.1,1.5-2v-2.2c0-1.3-0.6-2.5-2.3-2.9c-3.1-0.7-4.2-3.3-4.2-5.8v-2.2
		c0-2.8,1.7-5.1,5-5.1c3.5,0,5,2.1,5,5.1v1.3c0,0.2-0.1,0.2-0.3,0.2h-3c-0.1,0-0.3-0.1-0.3-0.2v-1c0-0.9-0.3-2-1.5-2
		c-1.4,0-1.5,1.4-1.5,2v1.8c0,1.4,0.6,2.5,2.3,2.9c3.1,0.8,4.2,3.4,4.2,5.8v2.6c0,2.8-1.6,5.1-5,5.1c-3.4,0-5-2.3-5-5.1v-1.6
		c0-0.2,0.1-0.2,0.3-0.2h3c0.1,0,0.3,0.1,0.3,0.2v1.3C1517.1,471.8,1517.4,472.9,1518.6,472.9z"/>
	<path class="st1" d="M1526,476.1c-0.2,0-0.3-0.2-0.3-0.3v-22.6c0-0.2,0.1-0.3,0.3-0.3h3c0.2,0,0.3,0.1,0.3,0.3v22.6
		c0,0.2-0.1,0.3-0.3,0.3H1526z"/>
	<path class="st1" d="M1536.8,472.9c1.4,0,1.5-1.1,1.5-2V466h-1.2c-0.2,0-0.3-0.1-0.3-0.3V463c0-0.2,0.1-0.3,0.3-0.3h4.4
		c0.2,0,0.3,0.1,0.3,0.3v8.3c0,2.8-1.6,5.1-5,5.1c-3.4,0-5-2.3-5-5.1v-13.4c0-2.8,1.7-5.1,5-5.1c3.5,0,5,2.1,5,5.1v1.3
		c0,0.2-0.1,0.2-0.3,0.2h-3c-0.1,0-0.3-0.1-0.3-0.2v-1c0-0.9-0.3-2-1.5-2c-1.4,0-1.5,1.4-1.5,2V471
		C1535.2,471.8,1535.5,472.9,1536.8,472.9z"/>
	<path class="st1" d="M1551,476.1c-0.2,0-0.3-0.2-0.3-0.3l-3.1-10.8v10.8c0,0.2-0.1,0.3-0.3,0.3h-2.9c-0.2,0-0.3-0.2-0.3-0.3v-22.6
		c0-0.2,0.1-0.3,0.3-0.3h3c0.2,0,0.3,0.1,0.3,0.3l3.1,10.8v-10.8c0-0.2,0.1-0.3,0.3-0.3h2.9c0.1,0,0.3,0.1,0.3,0.3v22.6
		c0,0.2-0.1,0.3-0.3,0.3H1551z"/>
</g>
<g>
	<path class="st1" d="M1267.4,432.2c-0.3,0-0.4-0.3-0.4-0.4l-4.4-24.2l-4.4,24.2c-0.1,0.2-0.1,0.4-0.4,0.4h-4.7
		c-0.3,0-0.4-0.3-0.4-0.4l-7.3-38.3c-0.1-0.3,0.2-0.4,0.4-0.4h5c0.3,0,0.4,0.2,0.4,0.4l4.2,23.7l4.1-23.7c0.1-0.4,0.3-0.4,0.6-0.4
		h4.9c0.3,0,0.5,0.1,0.6,0.4l4.1,23.7l4.2-23.7c0.1-0.3,0.2-0.4,0.4-0.4h5.1c0.2,0,0.5,0.2,0.4,0.4l-7.3,38.3c0,0.2-0.2,0.4-0.4,0.4
		H1267.4z"/>
	<path class="st1" d="M1282.3,432.2c-0.3,0-0.4-0.3-0.4-0.4v-38.3c0-0.3,0.2-0.4,0.4-0.4h16.2c0.2,0,0.4,0.2,0.4,0.4v4.8
		c0,0.3-0.2,0.4-0.4,0.4h-10.7v10.9h8.1c0.2,0,0.4,0.2,0.4,0.4v4.7c0,0.3-0.2,0.4-0.4,0.4h-8.1v11.5h10.7c0.2,0,0.4,0.2,0.4,0.4v4.8
		c0,0.3-0.2,0.4-0.4,0.4H1282.3z"/>
	<path class="st1" d="M1319.4,402.3v3.8c0,2.7-0.9,5.1-2.7,6.1c2.1,1.2,2.7,3.4,2.7,6.3v4.7c0,4.7-2.4,9-9.2,9h-6.7h-0.1h-0.7
		c-0.3,0-0.4-0.3-0.4-0.4v-38.3c0-0.3,0.2-0.4,0.4-0.4h0.6h0.1h6.7C1316.8,393,1319.4,396.5,1319.4,402.3z M1308.3,398.6v10.9h2
		c3,0,3.2-2.1,3.2-3.6v-3.4c0-1.8-0.4-3.9-3.3-3.9H1308.3z M1308.3,415.1v11.5h2c3,0,3.2-2.2,3.2-3.7v-4c0-1.8-0.8-3.8-3.2-3.8
		H1308.3z"/>
	<path class="st1" d="M1341,432.2h-7.4c-0.3,0-0.4-0.3-0.4-0.4v-38.3c0-0.3,0.2-0.4,0.4-0.4h7.4c6.7,0,9.2,3.5,9.2,9.3v20.9
		C1350.2,427.9,1347.8,432.2,1341,432.2z M1339.1,398.6v28h2c3,0,3.2-2.2,3.2-3.7v-20.4c0-1.8-0.4-3.9-3.3-3.9H1339.1z"/>
	<path class="st1" d="M1354.9,432.2c-0.3,0-0.4-0.3-0.4-0.4v-38.3c0-0.3,0.2-0.4,0.4-0.4h16.2c0.2,0,0.4,0.2,0.4,0.4v4.8
		c0,0.3-0.2,0.4-0.4,0.4h-10.7v10.9h8.1c0.2,0,0.4,0.2,0.4,0.4v4.7c0,0.3-0.2,0.4-0.4,0.4h-8.1v11.5h10.7c0.2,0,0.4,0.2,0.4,0.4v4.8
		c0,0.3-0.2,0.4-0.4,0.4H1354.9z"/>
	<path class="st1" d="M1381.4,426.8c2.3,0,2.6-1.9,2.6-3.4v-3.8c0-2.2-1.1-4.2-4-4.9c-5.2-1.2-7.1-5.7-7.1-9.8v-3.8
		c0-4.7,2.9-8.7,8.5-8.7c6,0,8.5,3.6,8.5,8.7v2.1c0,0.3-0.2,0.4-0.4,0.4h-5c-0.2,0-0.4-0.1-0.4-0.4v-1.6c0-1.5-0.6-3.4-2.6-3.4
		c-2.3,0-2.6,2.3-2.6,3.4v3c0,2.3,1.1,4.3,4,4.9c5.2,1.3,7.1,5.7,7.1,9.9v4.4c0,4.7-2.7,8.7-8.5,8.7c-5.8,0-8.5-4-8.5-8.7v-2.6
		c0-0.3,0.2-0.4,0.4-0.4h5c0.2,0,0.4,0.1,0.4,0.4v2.1C1378.8,424.9,1379.3,426.8,1381.4,426.8z"/>
	<path class="st1" d="M1394,432.2c-0.3,0-0.4-0.3-0.4-0.4v-38.3c0-0.3,0.2-0.4,0.4-0.4h5c0.3,0,0.4,0.2,0.4,0.4v38.3
		c0,0.3-0.2,0.4-0.4,0.4H1394z"/>
	<path class="st1" d="M1412.2,426.8c2.3,0,2.6-1.9,2.6-3.4v-8.3h-2c-0.3,0-0.4-0.2-0.4-0.4V410c0-0.3,0.2-0.4,0.4-0.4h7.5
		c0.3,0,0.4,0.2,0.4,0.4v14c0,4.7-2.7,8.7-8.5,8.7s-8.5-4-8.5-8.7v-22.7c0-4.7,2.9-8.7,8.5-8.7c6,0,8.5,3.6,8.5,8.7v2.1
		c0,0.3-0.2,0.4-0.4,0.4h-5c-0.2,0-0.4-0.1-0.4-0.4v-1.6c0-1.5-0.6-3.4-2.6-3.4c-2.3,0-2.6,2.3-2.6,3.4v21.7
		C1409.6,424.9,1410.1,426.8,1412.2,426.8z"/>
	<path class="st1" d="M1436.4,432.2c-0.3,0-0.4-0.3-0.4-0.4l-5.3-18.4v18.4c0,0.3-0.2,0.4-0.4,0.4h-4.9c-0.3,0-0.4-0.3-0.4-0.4
		v-38.3c0-0.3,0.2-0.4,0.4-0.4h5c0.3,0,0.4,0.2,0.4,0.4l5.3,18.4v-18.4c0-0.3,0.2-0.4,0.4-0.4h4.9c0.2,0,0.4,0.2,0.4,0.4v38.3
		c0,0.3-0.2,0.4-0.4,0.4H1436.4z"/>
</g>
<g>
	<path class="st1" d="M1249,520.5h-3.6c-0.2,0-0.2-0.1-0.2-0.3v-0.3c0-0.2,0.1-0.2,0.2-0.2h8.2c0.2,0,0.2,0.1,0.2,0.2v0.3
		c0,0.1-0.1,0.2-0.2,0.2h-3.6v12.2c0,0.1-0.1,0.2-0.3,0.2h-0.3c-0.1,0-0.2-0.1-0.2-0.2V520.5z"/>
	<path class="st1" d="M1255.3,519.9c0-0.1,0.1-0.2,0.3-0.2h0.3c0.1,0,0.2,0.1,0.2,0.2v6.5c0.2-0.2,1.3-1.2,2.8-1.2
		c2,0,3.1,1.2,3.1,3.5v4.1c0,0.1-0.1,0.2-0.2,0.2h-0.3c-0.1,0-0.2-0.1-0.2-0.2v-4.1c0-1.7-0.8-2.7-2.3-2.7c-1.6,0-2.6,1.2-2.7,1.3
		v5.4c0,0.2-0.1,0.2-0.2,0.2h-0.4c-0.1,0-0.2-0.1-0.2-0.2V519.9z"/>
	<path class="st1" d="M1264.4,521.1c0-0.4,0.3-0.7,0.6-0.7c0.4,0,0.6,0.3,0.6,0.7c0,0.3-0.3,0.6-0.6,0.6
		C1264.7,521.7,1264.4,521.4,1264.4,521.1z M1264.7,525.6c0-0.1,0.1-0.2,0.2-0.2h0.3c0.1,0,0.2,0.1,0.2,0.2v7.1
		c0,0.2-0.1,0.2-0.2,0.2h-0.4c-0.1,0-0.2-0.1-0.2-0.2V525.6z"/>
	<path class="st1" d="M1268,532.1l0.2-0.3c0.1-0.1,0.2-0.1,0.3,0c0.2,0.2,1,0.7,2,0.7c1.1,0,1.8-0.6,1.8-1.3c0-0.9-0.9-1.2-2.1-1.7
		c-1.3-0.5-2.3-1.1-2.3-2.2c0-0.8,0.7-2,2.5-2c1,0,1.8,0.4,2.1,0.6c0.1,0.1,0.2,0.2,0.1,0.4l-0.1,0.2c-0.1,0.1-0.2,0.2-0.4,0.1
		c-0.2-0.1-0.9-0.5-1.7-0.5c-1.2,0-1.6,0.7-1.6,1.2c0,0.8,0.7,1.1,1.8,1.5c1.4,0.5,2.7,1,2.7,2.4c0,1.1-1.2,2.1-2.7,2.1
		c-1.3,0-2.1-0.5-2.5-0.9C1268,532.3,1267.9,532.2,1268,532.1z"/>
	<path class="st1" d="M1278.7,525.7c-0.1-0.2-0.1-0.3,0.1-0.3h0.4c0.1,0,0.2,0,0.2,0.2l1.8,6h0l2.3-6.2c0-0.1,0.1-0.2,0.2-0.2h0.1
		c0.1,0,0.2,0.1,0.2,0.2l2.3,6.2h0l1.8-6c0-0.1,0.2-0.2,0.2-0.2h0.4c0.2,0,0.2,0.1,0.1,0.3l-2.3,7.3c0,0.1-0.1,0.2-0.2,0.2h-0.1
		c-0.1,0-0.2-0.1-0.2-0.2l-2.3-6.4h0l-2.3,6.4c0,0.1-0.1,0.2-0.2,0.2h-0.1c-0.1,0-0.2,0-0.2-0.2L1278.7,525.7z"/>
	<path class="st1" d="M1293.6,528.1c0.9,0,1.7,0.3,1.9,0.3c0-1.7-0.2-2.5-1.7-2.5c-1.3,0-2.1,0.5-2.3,0.5c-0.2,0.1-0.2,0-0.3-0.2
		l-0.1-0.2c-0.1-0.2,0-0.2,0.1-0.3c0.1,0,1-0.6,2.6-0.6c2.3,0,2.4,1.4,2.4,3.3v4.2c0,0.1-0.1,0.2-0.2,0.2h-0.2
		c-0.1,0-0.2-0.1-0.2-0.2l-0.1-0.7c-0.5,0.5-1.4,1.1-2.6,1.1c-1.4,0-2.5-1-2.5-2.5C1290.4,529.2,1291.6,528.1,1293.6,528.1z
		 M1293,532.4c1.2,0,2.2-0.7,2.5-1.2v-2.1c-0.2-0.1-1-0.4-1.9-0.4c-1.4,0-2.4,0.7-2.4,1.9C1291.2,531.7,1292,532.4,1293,532.4z"/>
	<path class="st1" d="M1298.7,532.1l0.2-0.3c0.1-0.1,0.2-0.1,0.3,0c0.2,0.2,1,0.7,2,0.7c1.1,0,1.8-0.6,1.8-1.3
		c0-0.9-0.9-1.2-2.1-1.7c-1.3-0.5-2.3-1.1-2.3-2.2c0-0.8,0.7-2,2.5-2c1,0,1.8,0.4,2.1,0.6c0.1,0.1,0.2,0.2,0.1,0.4l-0.1,0.2
		c-0.1,0.1-0.2,0.2-0.4,0.1c-0.2-0.1-0.9-0.5-1.7-0.5c-1.2,0-1.6,0.7-1.6,1.2c0,0.8,0.7,1.1,1.8,1.5c1.4,0.5,2.7,1,2.7,2.4
		c0,1.1-1.2,2.1-2.7,2.1c-1.3,0-2.1-0.5-2.5-0.9C1298.7,532.3,1298.7,532.2,1298.7,532.1z"/>
	<path class="st1" d="M1312.9,528.1c0.9,0,1.7,0.3,1.9,0.3c0-1.7-0.2-2.5-1.7-2.5c-1.3,0-2.1,0.5-2.3,0.5c-0.2,0.1-0.2,0-0.3-0.2
		l-0.1-0.2c-0.1-0.2,0-0.2,0.1-0.3c0.1,0,1-0.6,2.6-0.6c2.3,0,2.4,1.4,2.4,3.3v4.2c0,0.1-0.1,0.2-0.2,0.2h-0.2
		c-0.1,0-0.2-0.1-0.2-0.2l-0.1-0.7c-0.5,0.5-1.4,1.1-2.6,1.1c-1.4,0-2.5-1-2.5-2.5C1309.7,529.2,1310.9,528.1,1312.9,528.1z
		 M1312.3,532.4c1.2,0,2.2-0.7,2.5-1.2v-2.1c-0.2-0.1-1-0.4-1.9-0.4c-1.4,0-2.4,0.7-2.4,1.9C1310.5,531.7,1311.3,532.4,1312.3,532.4
		z"/>
	<path class="st1" d="M1318.4,525.6c0-0.1,0.1-0.2,0.3-0.2h0.2c0.1,0,0.2,0.1,0.2,0.2l0.1,0.8c0.2-0.3,1.3-1.2,2.8-1.2
		c2.1,0,3.1,1.3,3.1,3.5v4.1c0,0.1-0.1,0.2-0.2,0.2h-0.3c-0.1,0-0.2-0.1-0.2-0.2v-4.1c0-1.7-0.8-2.7-2.3-2.7c-1.6,0-2.6,1.2-2.7,1.3
		v5.4c0,0.2-0.1,0.2-0.2,0.2h-0.4c-0.1,0-0.2-0.1-0.2-0.2V525.6z"/>
	<path class="st1" d="M1331.7,521.1c0-0.4,0.3-0.7,0.6-0.7c0.4,0,0.6,0.3,0.6,0.7c0,0.3-0.3,0.6-0.6,0.6
		C1332,521.7,1331.7,521.4,1331.7,521.1z M1332,525.6c0-0.1,0.1-0.2,0.2-0.2h0.3c0.1,0,0.2,0.1,0.2,0.2v7.1c0,0.2-0.1,0.2-0.2,0.2
		h-0.4c-0.1,0-0.2-0.1-0.2-0.2V525.6z"/>
	<path class="st1" d="M1335.7,525.6c0-0.1,0.1-0.2,0.3-0.2h0.2c0.1,0,0.2,0.1,0.2,0.2l0.1,0.8c0.2-0.3,1.3-1.2,2.8-1.2
		c2.1,0,3.1,1.3,3.1,3.5v4.1c0,0.1-0.1,0.2-0.2,0.2h-0.3c-0.1,0-0.2-0.1-0.2-0.2v-4.1c0-1.7-0.8-2.7-2.3-2.7c-1.6,0-2.6,1.2-2.7,1.3
		v5.4c0,0.2-0.1,0.2-0.2,0.2h-0.4c-0.1,0-0.2-0.1-0.2-0.2V525.6z"/>
	<path class="st1" d="M1344.9,521.1c0-0.4,0.3-0.7,0.6-0.7c0.4,0,0.6,0.3,0.6,0.7c0,0.3-0.3,0.6-0.6,0.6
		C1345.1,521.7,1344.9,521.4,1344.9,521.1z M1345.1,525.6c0-0.1,0.1-0.2,0.2-0.2h0.3c0.1,0,0.2,0.1,0.2,0.2v7.1
		c0,0.2-0.1,0.2-0.2,0.2h-0.4c-0.1,0-0.2-0.1-0.2-0.2V525.6z"/>
	<path class="st1" d="M1349.1,526.1h-0.9c-0.2,0-0.2-0.1-0.2-0.2v-0.3c0-0.1,0.1-0.2,0.2-0.2h0.9v-2.1c0-0.2,0.1-0.2,0.2-0.2l0.3,0
		c0.1,0,0.2,0.1,0.2,0.2v2.1h2.6c0.2,0,0.2,0.1,0.2,0.2v0.2c0,0.2-0.1,0.2-0.2,0.2h-2.6v4.8c0,0.9,0.1,1.4,1,1.4
		c0.7,0,1.5-0.4,1.7-0.5c0.2-0.1,0.2,0,0.3,0.1l0.1,0.2c0.1,0.1,0.1,0.2-0.1,0.3c-0.3,0.2-1.1,0.7-2.2,0.7c-1.6,0-1.7-0.9-1.7-2.1
		V526.1z"/>
	<path class="st1" d="M1354.8,521.1c0-0.4,0.3-0.7,0.6-0.7c0.4,0,0.6,0.3,0.6,0.7c0,0.3-0.3,0.6-0.6,0.6
		C1355.1,521.7,1354.8,521.4,1354.8,521.1z M1355.1,525.6c0-0.1,0.1-0.2,0.2-0.2h0.3c0.1,0,0.2,0.1,0.2,0.2v7.1
		c0,0.2-0.1,0.2-0.2,0.2h-0.4c-0.1,0-0.2-0.1-0.2-0.2V525.6z"/>
	<path class="st1" d="M1361.4,528.1c0.9,0,1.7,0.3,1.9,0.3c0-1.7-0.2-2.5-1.7-2.5c-1.3,0-2.1,0.5-2.3,0.5c-0.2,0.1-0.2,0-0.3-0.2
		l-0.1-0.2c-0.1-0.2,0-0.2,0.1-0.3c0.1,0,1-0.6,2.6-0.6c2.3,0,2.4,1.4,2.4,3.3v4.2c0,0.1-0.1,0.2-0.2,0.2h-0.2
		c-0.1,0-0.2-0.1-0.2-0.2l-0.1-0.7c-0.5,0.5-1.4,1.1-2.6,1.1c-1.4,0-2.5-1-2.5-2.5C1358.2,529.2,1359.4,528.1,1361.4,528.1z
		 M1360.8,532.4c1.2,0,2.2-0.7,2.5-1.2v-2.1c-0.2-0.1-1-0.4-1.9-0.4c-1.4,0-2.4,0.7-2.4,1.9C1359,531.7,1359.7,532.4,1360.8,532.4z"
		/>
	<path class="st1" d="M1366.9,519.9c0-0.1,0.1-0.2,0.2-0.2h0.3c0.1,0,0.2,0.1,0.2,0.2v12.8c0,0.2-0.1,0.2-0.2,0.2h-0.4
		c-0.1,0-0.2-0.1-0.2-0.2V519.9z"/>
	<path class="st1" d="M1377.9,525.2c1.4,0,2.3,0.8,2.3,0.8v-6c0-0.1,0.1-0.2,0.2-0.2h0.3c0.1,0,0.2,0.1,0.2,0.2v12.8
		c0,0.1-0.1,0.2-0.2,0.2h-0.2c-0.2,0-0.2-0.1-0.3-0.2l-0.1-0.7c-0.2,0.2-1.2,1.1-2.6,1.1c-2,0-3.5-1.8-3.5-4
		C1374.2,527,1375.8,525.2,1377.9,525.2z M1377.8,532.4c1.7,0,2.5-1.3,2.5-1.3v-4.3c0,0-0.9-0.8-2.3-0.8c-1.7,0-3,1.4-3,3.2
		C1375,531,1376.2,532.4,1377.8,532.4z"/>
	<path class="st1" d="M1387.2,525.2c2,0,3.4,1.5,3.4,3.5c0,0.3,0,0.7-0.3,0.7h-6.1c0.1,1.6,1.3,3,3,3c1,0,1.8-0.4,2.2-0.7
		c0.2-0.1,0.2-0.1,0.3,0l0.2,0.3c0.1,0.1,0,0.2-0.1,0.3c-0.4,0.4-1.6,0.9-2.8,0.9c-2.3,0-3.7-1.8-3.7-4
		C1383.4,527,1384.9,525.2,1387.2,525.2z M1389.8,528.7c0-1.5-0.9-2.8-2.6-2.8c-1.7,0-2.8,1.2-2.9,2.8H1389.8z"/>
	<path class="st1" d="M1392.4,532.1l0.2-0.3c0.1-0.1,0.2-0.1,0.3,0c0.2,0.2,1,0.7,2,0.7c1.1,0,1.8-0.6,1.8-1.3
		c0-0.9-0.9-1.2-2.1-1.7c-1.3-0.5-2.3-1.1-2.3-2.2c0-0.8,0.7-2,2.5-2c1,0,1.8,0.4,2.1,0.6c0.1,0.1,0.2,0.2,0.1,0.4l-0.1,0.2
		c-0.1,0.1-0.2,0.2-0.4,0.1c-0.2-0.1-0.9-0.5-1.7-0.5c-1.2,0-1.6,0.7-1.6,1.2c0,0.8,0.7,1.1,1.8,1.5c1.4,0.5,2.7,1,2.7,2.4
		c0,1.1-1.2,2.1-2.7,2.1c-1.3,0-2.1-0.5-2.5-0.9C1392.4,532.3,1392.4,532.2,1392.4,532.1z"/>
	<path class="st1" d="M1399.7,521.1c0-0.4,0.3-0.7,0.6-0.7c0.4,0,0.6,0.3,0.6,0.7c0,0.3-0.3,0.6-0.6,0.6
		C1399.9,521.7,1399.7,521.4,1399.7,521.1z M1399.9,525.6c0-0.1,0.1-0.2,0.2-0.2h0.3c0.1,0,0.2,0.1,0.2,0.2v7.1
		c0,0.2-0.1,0.2-0.2,0.2h-0.4c-0.1,0-0.2-0.1-0.2-0.2V525.6z"/>
	<path class="st1" d="M1404.1,530.3c-0.2-0.3-0.6-1-0.6-1.9c0-1.8,1.3-3.2,3.3-3.2c0.5,0,0.5,0,3.1,0c0.2,0,0.2,0.1,0.2,0.2v0.2
		c0,0.1-0.1,0.2-0.2,0.2l-1.4,0.1c0.4,0.2,1.2,0.9,1.2,2.4c0,1.7-1.2,3.2-3.2,3.2c-1.1,0-1.8-0.4-2.1-0.7c-0.2,0.1-1,0.5-1,1.4
		s0.8,1.1,1.5,1.1h2.8c1.6,0,2.8,0.7,2.8,2.4c0,1.6-1.6,3.1-3.9,3.1c-2.6,0-3.7-1.5-3.7-2.8c0-1.1,0.8-1.7,1.2-2
		c-0.4-0.1-1.5-0.6-1.5-1.7C1402.8,531.1,1403.9,530.4,1404.1,530.3z M1406.8,538.1c1.7,0,3-1,3-2.3c0-0.9-0.5-1.7-1.9-1.7h-2.4
		c-0.2,0-1.5,0.6-1.5,1.8C1404,537,1405,538.1,1406.8,538.1z M1409,528.4c0-1.6-1.1-2.4-2.3-2.4c-1.5,0-2.4,1.1-2.4,2.4
		c0,1.3,0.8,2.4,2.4,2.4C1408.1,530.8,1409,529.8,1409,528.4z"/>
	<path class="st1" d="M1412.4,525.6c0-0.1,0.1-0.2,0.3-0.2h0.2c0.1,0,0.2,0.1,0.2,0.2l0.1,0.8c0.2-0.3,1.3-1.2,2.8-1.2
		c2.1,0,3.1,1.3,3.1,3.5v4.1c0,0.1-0.1,0.2-0.2,0.2h-0.3c-0.1,0-0.2-0.1-0.2-0.2v-4.1c0-1.7-0.8-2.7-2.3-2.7c-1.6,0-2.6,1.2-2.7,1.3
		v5.4c0,0.2-0.1,0.2-0.2,0.2h-0.4c-0.1,0-0.2-0.1-0.2-0.2V525.6z"/>
	<path class="st1" d="M1246.9,548.9h-1.1c-0.2,0-0.2-0.1-0.2-0.2v-0.2c0-0.1,0.1-0.2,0.2-0.2h1.1v-2.6c0-2.2,1.2-3.3,2.9-3.3
		c1,0,1.8,0.5,2.1,0.8c0.1,0.1,0.1,0.2,0,0.3l-0.2,0.3c-0.1,0.1-0.2,0.1-0.3,0c-0.3-0.3-1-0.6-1.7-0.6c-1.2,0-2,0.8-2,2.5v2.6h2.8
		c0.2,0,0.2,0.1,0.2,0.2v0.3c0,0.1-0.1,0.2-0.2,0.2h-2.8v6.6c0,0.1-0.1,0.2-0.2,0.2h-0.3c-0.1,0-0.2-0.1-0.2-0.2V548.9z"/>
	<path class="st1" d="M1255.6,548c2.1,0,3.8,1.8,3.8,4c0,2.2-1.7,4-3.8,4c-2.1,0-3.8-1.8-3.8-4C1251.8,549.8,1253.5,548,1255.6,548z
		 M1255.6,555.2c1.7,0,3-1.4,3-3.2c0-1.7-1.3-3.2-3-3.2c-1.7,0-3,1.4-3,3.2C1252.6,553.8,1253.9,555.2,1255.6,555.2z"/>
	<path class="st1" d="M1261.8,548.4c0-0.1,0.1-0.2,0.2-0.2h0.2c0.1,0,0.2,0.1,0.2,0.2l0.1,0.8c0.2-0.3,1-1.2,2.4-1.2
		c0.6,0,1,0.2,1.2,0.2c0.2,0.1,0.3,0.2,0.2,0.3l-0.2,0.4c-0.1,0.1-0.2,0.2-0.3,0.1c-0.1,0-0.5-0.2-1-0.2c-1.5,0-2.2,1.2-2.3,1.3v5.4
		c0,0.2-0.1,0.2-0.2,0.2h-0.4c-0.1,0-0.2-0.1-0.2-0.2V548.4z"/>
	<path class="st1" d="M1274.6,550.9c0.9,0,1.7,0.3,1.9,0.3c0-1.7-0.2-2.5-1.7-2.5c-1.3,0-2.1,0.5-2.3,0.5c-0.2,0.1-0.2,0-0.3-0.2
		l-0.1-0.2c-0.1-0.2,0-0.2,0.1-0.3c0.1,0,1-0.6,2.6-0.6c2.3,0,2.4,1.4,2.4,3.3v4.2c0,0.1-0.1,0.2-0.2,0.2h-0.2
		c-0.1,0-0.2-0.1-0.2-0.2l-0.1-0.7c-0.5,0.5-1.4,1.1-2.6,1.1c-1.4,0-2.5-1-2.5-2.5C1271.4,552,1272.6,550.9,1274.6,550.9z
		 M1274,555.2c1.2,0,2.2-0.7,2.5-1.2V552c-0.2-0.1-1-0.4-1.9-0.4c-1.4,0-2.4,0.7-2.4,1.9C1272.2,554.5,1273,555.2,1274,555.2z"/>
	<path class="st1" d="M1287.7,548c1.5,0,2.5,0.8,2.8,1.2c0.1,0.1,0.1,0.2,0,0.3l-0.2,0.2c-0.1,0.1-0.3,0.1-0.4,0
		c-0.2-0.2-1-0.9-2.2-0.9c-1.7,0-3.1,1.3-3.1,3.2c0,1.8,1.4,3.2,3.1,3.2c1.4,0,2.2-0.9,2.4-1.1c0.1-0.2,0.2-0.2,0.4,0l0.2,0.2
		c0.1,0.1,0.1,0.2,0.1,0.3c-0.3,0.5-1.4,1.5-3,1.5c-2.1,0-4-1.7-4-4C1283.7,549.7,1285.6,548,1287.7,548z"/>
	<path class="st1" d="M1293,542.7c0-0.1,0.1-0.2,0.2-0.2h0.3c0.1,0,0.2,0.1,0.2,0.2v12.8c0,0.2-0.1,0.2-0.2,0.2h-0.4
		c-0.1,0-0.2-0.1-0.2-0.2V542.7z"/>
	<path class="st1" d="M1300,548c2.1,0,3.8,1.8,3.8,4c0,2.2-1.7,4-3.8,4c-2.1,0-3.8-1.8-3.8-4C1296.2,549.8,1297.8,548,1300,548z
		 M1300,555.2c1.7,0,3-1.4,3-3.2c0-1.7-1.3-3.2-3-3.2c-1.7,0-3,1.4-3,3.2C1297,553.8,1298.3,555.2,1300,555.2z"/>
	<path class="st1" d="M1306.4,548.9h-0.9c-0.2,0-0.2-0.1-0.2-0.2v-0.3c0-0.1,0.1-0.2,0.2-0.2h0.9v-2.1c0-0.2,0.1-0.2,0.2-0.2l0.3,0
		c0.1,0,0.2,0.1,0.2,0.2v2.1h2.6c0.2,0,0.2,0.1,0.2,0.2v0.2c0,0.2-0.1,0.2-0.2,0.2h-2.6v4.8c0,0.9,0.1,1.4,1,1.4
		c0.7,0,1.5-0.4,1.7-0.5c0.2-0.1,0.2,0,0.3,0.1l0.1,0.2c0.1,0.1,0.1,0.2-0.1,0.3c-0.3,0.2-1.1,0.7-2.2,0.7c-1.6,0-1.7-0.9-1.7-2.1
		V548.9z"/>
	<path class="st1" d="M1312.4,542.7c0-0.1,0.1-0.2,0.3-0.2h0.3c0.1,0,0.2,0.1,0.2,0.2v6.5c0.2-0.2,1.3-1.2,2.8-1.2
		c2,0,3.1,1.2,3.1,3.5v4.1c0,0.1-0.1,0.2-0.2,0.2h-0.3c-0.1,0-0.2-0.1-0.2-0.2v-4.1c0-1.7-0.8-2.7-2.3-2.7c-1.6,0-2.6,1.2-2.7,1.3
		v5.4c0,0.2-0.1,0.2-0.2,0.2h-0.4c-0.1,0-0.2-0.1-0.2-0.2V542.7z"/>
	<path class="st1" d="M1321.5,543.9c0-0.4,0.3-0.7,0.6-0.7c0.4,0,0.6,0.3,0.6,0.7c0,0.3-0.3,0.6-0.6,0.6
		C1321.8,544.5,1321.5,544.2,1321.5,543.9z M1321.8,548.4c0-0.1,0.1-0.2,0.2-0.2h0.3c0.1,0,0.2,0.1,0.2,0.2v7.1
		c0,0.2-0.1,0.2-0.2,0.2h-0.4c-0.1,0-0.2-0.1-0.2-0.2V548.4z"/>
	<path class="st1" d="M1325.5,548.4c0-0.1,0.1-0.2,0.3-0.2h0.2c0.1,0,0.2,0.1,0.2,0.2l0.1,0.8c0.2-0.3,1.3-1.2,2.8-1.2
		c2.1,0,3.1,1.3,3.1,3.5v4.1c0,0.1-0.1,0.2-0.2,0.2h-0.3c-0.1,0-0.2-0.1-0.2-0.2v-4.1c0-1.7-0.8-2.7-2.3-2.7c-1.6,0-2.6,1.2-2.7,1.3
		v5.4c0,0.2-0.1,0.2-0.2,0.2h-0.4c-0.1,0-0.2-0.1-0.2-0.2V548.4z"/>
	<path class="st1" d="M1335.4,553.1c-0.2-0.3-0.6-1-0.6-1.9c0-1.8,1.3-3.2,3.3-3.2c0.5,0,0.5,0,3.1,0c0.2,0,0.2,0.1,0.2,0.2v0.2
		c0,0.1-0.1,0.2-0.2,0.2l-1.4,0.1c0.4,0.2,1.2,0.9,1.2,2.4c0,1.7-1.2,3.2-3.2,3.2c-1.1,0-1.8-0.4-2.1-0.7c-0.2,0.1-1,0.5-1,1.4
		c0,0.9,0.8,1.1,1.5,1.1h2.8c1.6,0,2.8,0.7,2.8,2.4c0,1.6-1.6,3.1-3.9,3.1c-2.6,0-3.7-1.5-3.7-2.8c0-1.1,0.8-1.7,1.2-2
		c-0.4-0.1-1.5-0.6-1.5-1.7C1334.1,553.9,1335.2,553.2,1335.4,553.1z M1338.1,560.9c1.7,0,3-1,3-2.3c0-0.9-0.5-1.7-1.9-1.7h-2.4
		c-0.2,0-1.5,0.6-1.5,1.8C1335.2,559.8,1336.3,560.9,1338.1,560.9z M1340.3,551.2c0-1.6-1.1-2.4-2.3-2.4c-1.5,0-2.4,1.1-2.4,2.4
		c0,1.3,0.8,2.4,2.4,2.4C1339.4,553.6,1340.3,552.6,1340.3,551.2z"/>
	<path class="st1" d="M1347,548.5c-0.1-0.2-0.1-0.3,0.1-0.3h0.4c0.1,0,0.2,0,0.2,0.2l1.8,6h0l2.3-6.2c0-0.1,0.1-0.2,0.2-0.2h0.1
		c0.1,0,0.2,0.1,0.2,0.2l2.3,6.2h0l1.8-6c0-0.1,0.2-0.2,0.2-0.2h0.4c0.2,0,0.2,0.1,0.1,0.3l-2.3,7.3c0,0.1-0.1,0.2-0.2,0.2h-0.1
		c-0.1,0-0.2-0.1-0.2-0.2l-2.3-6.4h0l-2.3,6.4c0,0.1-0.1,0.2-0.2,0.2h-0.1c-0.1,0-0.2,0-0.2-0.2L1347,548.5z"/>
	<path class="st1" d="M1362.5,548c2,0,3.4,1.5,3.4,3.5c0,0.3,0,0.7-0.3,0.7h-6.1c0.1,1.6,1.3,3,3,3c1,0,1.8-0.4,2.2-0.7
		c0.2-0.1,0.2-0.1,0.3,0l0.2,0.3c0.1,0.1,0,0.2-0.1,0.3c-0.4,0.4-1.6,0.9-2.8,0.9c-2.3,0-3.7-1.8-3.7-4
		C1358.8,549.8,1360.2,548,1362.5,548z M1365.1,551.5c0-1.5-0.9-2.8-2.6-2.8c-1.7,0-2.8,1.2-2.9,2.8H1365.1z"/>
	<path class="st1" d="M1368.2,542.7c0-0.1,0.1-0.2,0.2-0.2h0.3c0.1,0,0.2,0.1,0.2,0.2v6c0,0,0.9-0.8,2.4-0.8c2.1,0,3.7,1.7,3.7,4
		c0,2.2-1.5,4-3.5,4c-1.5,0-2.4-0.9-2.6-1.1l-0.1,0.7c0,0.2-0.1,0.2-0.3,0.2h-0.2c-0.1,0-0.2-0.1-0.2-0.2V542.7z M1371.5,555.2
		c1.6,0,2.8-1.5,2.8-3.2c0-1.8-1.3-3.2-3-3.2c-1.4,0-2.2,0.8-2.2,0.8v4.3C1369.1,554,1369.9,555.2,1371.5,555.2z"/>
	<path class="st1" d="M1377,554.9l0.2-0.3c0.1-0.1,0.2-0.1,0.3,0c0.2,0.2,1,0.7,2,0.7c1.1,0,1.8-0.6,1.8-1.3c0-0.9-0.9-1.2-2.1-1.7
		c-1.3-0.5-2.3-1.1-2.3-2.2c0-0.8,0.7-2,2.5-2c1,0,1.8,0.4,2.1,0.6c0.1,0.1,0.2,0.2,0.1,0.4l-0.1,0.2c-0.1,0.1-0.2,0.2-0.4,0.1
		c-0.2-0.1-0.9-0.5-1.7-0.5c-1.2,0-1.6,0.7-1.6,1.2c0,0.8,0.7,1.1,1.8,1.5c1.4,0.5,2.7,1,2.7,2.4c0,1.1-1.2,2.1-2.7,2.1
		c-1.3,0-2.1-0.5-2.5-0.9C1377,555.1,1376.9,555,1377,554.9z"/>
	<path class="st1" d="M1384.2,543.9c0-0.4,0.3-0.7,0.6-0.7c0.4,0,0.6,0.3,0.6,0.7c0,0.3-0.3,0.6-0.6,0.6
		C1384.5,544.5,1384.2,544.2,1384.2,543.9z M1384.5,548.4c0-0.1,0.1-0.2,0.2-0.2h0.3c0.1,0,0.2,0.1,0.2,0.2v7.1
		c0,0.2-0.1,0.2-0.2,0.2h-0.4c-0.1,0-0.2-0.1-0.2-0.2V548.4z"/>
	<path class="st1" d="M1388.5,548.9h-0.9c-0.2,0-0.2-0.1-0.2-0.2v-0.3c0-0.1,0.1-0.2,0.2-0.2h0.9v-2.1c0-0.2,0.1-0.2,0.2-0.2l0.3,0
		c0.1,0,0.2,0.1,0.2,0.2v2.1h2.6c0.2,0,0.2,0.1,0.2,0.2v0.2c0,0.2-0.1,0.2-0.2,0.2h-2.6v4.8c0,0.9,0.1,1.4,1,1.4
		c0.7,0,1.5-0.4,1.7-0.5c0.2-0.1,0.2,0,0.3,0.1l0.1,0.2c0.1,0.1,0.1,0.2-0.1,0.3c-0.3,0.2-1.1,0.7-2.2,0.7c-1.6,0-1.7-0.9-1.7-2.1
		V548.9z"/>
	<path class="st1" d="M1397.6,548c2,0,3.4,1.5,3.4,3.5c0,0.3,0,0.7-0.3,0.7h-6.1c0.1,1.6,1.3,3,3,3c1,0,1.8-0.4,2.2-0.7
		c0.2-0.1,0.2-0.1,0.3,0l0.2,0.3c0.1,0.1,0,0.2-0.1,0.3c-0.4,0.4-1.6,0.9-2.8,0.9c-2.3,0-3.7-1.8-3.7-4
		C1393.9,549.8,1395.3,548,1397.6,548z M1400.2,551.5c0-1.5-0.9-2.8-2.6-2.8c-1.7,0-2.8,1.2-2.9,2.8H1400.2z"/>
	<path class="st1" d="M1404,554.5c0.4,0,0.8,0.3,0.8,0.8c0,0.4-0.3,0.8-0.8,0.8c-0.4,0-0.8-0.3-0.8-0.8
		C1403.2,554.8,1403.6,554.5,1404,554.5z"/>
	<path class="st1" d="M1249,588.9h-3.6c-0.2,0-0.2-0.1-0.2-0.3v-0.3c0-0.2,0.1-0.2,0.2-0.2h8.2c0.2,0,0.2,0.1,0.2,0.2v0.3
		c0,0.1-0.1,0.2-0.2,0.2h-3.6v12.2c0,0.1-0.1,0.2-0.3,0.2h-0.3c-0.1,0-0.2-0.1-0.2-0.2V588.9z"/>
	<path class="st1" d="M1257.3,593.6c2.1,0,3.8,1.8,3.8,4c0,2.2-1.7,4-3.8,4c-2.1,0-3.8-1.8-3.8-4
		C1253.5,595.4,1255.2,593.6,1257.3,593.6z M1257.3,600.8c1.7,0,3-1.4,3-3.2c0-1.7-1.3-3.2-3-3.2c-1.7,0-3,1.4-3,3.2
		C1254.3,599.4,1255.6,600.8,1257.3,600.8z"/>
	<path class="st1" d="M1271,593.6c1.5,0,2.5,0.8,2.8,1.2c0.1,0.1,0.1,0.2,0,0.3l-0.2,0.2c-0.1,0.1-0.3,0.1-0.4,0
		c-0.2-0.2-1-0.9-2.2-0.9c-1.7,0-3.1,1.3-3.1,3.2c0,1.8,1.4,3.2,3.1,3.2c1.4,0,2.2-0.9,2.4-1.1c0.1-0.2,0.2-0.2,0.4,0l0.2,0.2
		c0.1,0.1,0.1,0.2,0.1,0.3c-0.3,0.5-1.4,1.5-3,1.5c-2.1,0-4-1.7-4-4C1267,595.3,1268.9,593.6,1271,593.6z"/>
	<path class="st1" d="M1276.3,594c0-0.1,0.1-0.2,0.2-0.2h0.2c0.1,0,0.2,0.1,0.2,0.2l0.1,0.8c0.2-0.3,1-1.2,2.4-1.2
		c0.6,0,1,0.2,1.2,0.2c0.2,0.1,0.3,0.2,0.2,0.3l-0.2,0.4c-0.1,0.1-0.2,0.2-0.3,0.1c-0.1,0-0.5-0.2-1-0.2c-1.5,0-2.2,1.2-2.3,1.3v5.4
		c0,0.2-0.1,0.2-0.2,0.2h-0.4c-0.1,0-0.2-0.1-0.2-0.2V594z"/>
	<path class="st1" d="M1285.6,593.6c2,0,3.4,1.5,3.4,3.5c0,0.3,0,0.7-0.3,0.7h-6.1c0.1,1.6,1.3,3,3,3c1,0,1.8-0.4,2.2-0.7
		c0.2-0.1,0.2-0.1,0.3,0l0.2,0.3c0.1,0.1,0,0.2-0.1,0.3c-0.4,0.4-1.6,0.9-2.8,0.9c-2.3,0-3.7-1.8-3.7-4
		C1281.9,595.4,1283.3,593.6,1285.6,593.6z M1288.2,597.1c0-1.5-0.9-2.8-2.6-2.8c-1.7,0-2.8,1.2-2.9,2.8H1288.2z"/>
	<path class="st1" d="M1293.9,596.5c0.9,0,1.7,0.3,1.9,0.3c0-1.7-0.2-2.5-1.7-2.5c-1.3,0-2.1,0.5-2.3,0.5c-0.2,0.1-0.2,0-0.3-0.2
		l-0.1-0.2c-0.1-0.2,0-0.2,0.1-0.3c0.1,0,1-0.6,2.6-0.6c2.3,0,2.4,1.4,2.4,3.3v4.2c0,0.1-0.1,0.2-0.2,0.2h-0.2
		c-0.1,0-0.2-0.1-0.2-0.2l-0.1-0.7c-0.5,0.5-1.4,1.1-2.6,1.1c-1.4,0-2.5-1-2.5-2.5C1290.7,597.6,1291.9,596.5,1293.9,596.5z
		 M1293.3,600.8c1.2,0,2.2-0.7,2.5-1.2v-2.1c-0.2-0.1-1-0.4-1.9-0.4c-1.4,0-2.4,0.7-2.4,1.9C1291.5,600.1,1292.2,600.8,1293.3,600.8
		z"/>
	<path class="st1" d="M1299.7,594.5h-0.9c-0.2,0-0.2-0.1-0.2-0.2V594c0-0.1,0.1-0.2,0.2-0.2h0.9v-2.1c0-0.2,0.1-0.2,0.2-0.2l0.3,0
		c0.1,0,0.2,0.1,0.2,0.2v2.1h2.6c0.2,0,0.2,0.1,0.2,0.2v0.2c0,0.2-0.1,0.2-0.2,0.2h-2.6v4.8c0,0.9,0.1,1.4,1,1.4
		c0.7,0,1.5-0.4,1.7-0.5c0.2-0.1,0.2,0,0.3,0.1l0.1,0.2c0.1,0.1,0.1,0.2-0.1,0.3c-0.3,0.2-1.1,0.7-2.2,0.7c-1.6,0-1.7-0.9-1.7-2.1
		V594.5z"/>
	<path class="st1" d="M1308.8,593.6c2,0,3.4,1.5,3.4,3.5c0,0.3,0,0.7-0.3,0.7h-6.1c0.1,1.6,1.3,3,3,3c1,0,1.8-0.4,2.2-0.7
		c0.2-0.1,0.2-0.1,0.3,0l0.2,0.3c0.1,0.1,0,0.2-0.1,0.3c-0.4,0.4-1.6,0.9-2.8,0.9c-2.3,0-3.7-1.8-3.7-4
		C1305.1,595.4,1306.5,593.6,1308.8,593.6z M1311.4,597.1c0-1.5-0.9-2.8-2.6-2.8c-1.7,0-2.8,1.2-2.9,2.8H1311.4z"/>
	<path class="st1" d="M1319,594.5h-0.9c-0.2,0-0.2-0.1-0.2-0.2V594c0-0.1,0.1-0.2,0.2-0.2h0.9v-2.1c0-0.2,0.1-0.2,0.2-0.2l0.3,0
		c0.1,0,0.2,0.1,0.2,0.2v2.1h2.6c0.2,0,0.2,0.1,0.2,0.2v0.2c0,0.2-0.1,0.2-0.2,0.2h-2.6v4.8c0,0.9,0.1,1.4,1,1.4
		c0.7,0,1.5-0.4,1.7-0.5c0.2-0.1,0.2,0,0.3,0.1l0.1,0.2c0.1,0.1,0.1,0.2-0.1,0.3c-0.3,0.2-1.1,0.7-2.2,0.7c-1.6,0-1.7-0.9-1.7-2.1
		V594.5z"/>
	<path class="st1" d="M1324.9,588.3c0-0.1,0.1-0.2,0.3-0.2h0.3c0.1,0,0.2,0.1,0.2,0.2v6.5c0.2-0.2,1.3-1.2,2.8-1.2
		c2,0,3.1,1.2,3.1,3.5v4.1c0,0.1-0.1,0.2-0.2,0.2h-0.3c-0.1,0-0.2-0.1-0.2-0.2v-4.1c0-1.7-0.8-2.7-2.3-2.7c-1.6,0-2.6,1.2-2.7,1.3
		v5.4c0,0.2-0.1,0.2-0.2,0.2h-0.4c-0.1,0-0.2-0.1-0.2-0.2V588.3z"/>
	<path class="st1" d="M1337.5,593.6c2,0,3.4,1.5,3.4,3.5c0,0.3,0,0.7-0.3,0.7h-6.1c0.1,1.6,1.3,3,3,3c1,0,1.8-0.4,2.2-0.7
		c0.2-0.1,0.2-0.1,0.3,0l0.2,0.3c0.1,0.1,0,0.2-0.1,0.3c-0.4,0.4-1.6,0.9-2.8,0.9c-2.3,0-3.7-1.8-3.7-4
		C1333.7,595.4,1335.2,593.6,1337.5,593.6z M1340.1,597.1c0-1.5-0.9-2.8-2.6-2.8c-1.7,0-2.8,1.2-2.9,2.8H1340.1z"/>
	<path class="st1" d="M1350.5,593.6c1.4,0,2.3,0.8,2.3,0.8v-6c0-0.1,0.1-0.2,0.2-0.2h0.3c0.1,0,0.2,0.1,0.2,0.2v12.8
		c0,0.1-0.1,0.2-0.2,0.2h-0.2c-0.2,0-0.2-0.1-0.3-0.2l-0.1-0.7c-0.2,0.2-1.2,1.1-2.6,1.1c-2,0-3.5-1.8-3.5-4
		C1346.7,595.4,1348.3,593.6,1350.5,593.6z M1350.3,600.8c1.7,0,2.5-1.3,2.5-1.3v-4.3c0,0-0.9-0.8-2.3-0.8c-1.7,0-3,1.4-3,3.2
		C1347.6,599.4,1348.7,600.8,1350.3,600.8z"/>
	<path class="st1" d="M1359.7,593.6c2,0,3.4,1.5,3.4,3.5c0,0.3,0,0.7-0.3,0.7h-6.1c0.1,1.6,1.3,3,3,3c1,0,1.8-0.4,2.2-0.7
		c0.2-0.1,0.2-0.1,0.3,0l0.2,0.3c0.1,0.1,0,0.2-0.1,0.3c-0.4,0.4-1.6,0.9-2.8,0.9c-2.3,0-3.7-1.8-3.7-4
		C1356,595.4,1357.4,593.6,1359.7,593.6z M1362.3,597.1c0-1.5-0.9-2.8-2.6-2.8c-1.7,0-2.8,1.2-2.9,2.8H1362.3z"/>
	<path class="st1" d="M1365,600.5l0.2-0.3c0.1-0.1,0.2-0.1,0.3,0c0.2,0.2,1,0.7,2,0.7c1.1,0,1.8-0.6,1.8-1.3c0-0.9-0.9-1.2-2.1-1.7
		c-1.3-0.5-2.3-1.1-2.3-2.2c0-0.8,0.7-2,2.5-2c1,0,1.8,0.4,2.1,0.6c0.1,0.1,0.2,0.2,0.1,0.4l-0.1,0.2c-0.1,0.1-0.2,0.2-0.4,0.1
		c-0.2-0.1-0.9-0.5-1.7-0.5c-1.2,0-1.6,0.7-1.6,1.2c0,0.8,0.7,1.1,1.8,1.5c1.4,0.5,2.7,1,2.7,2.4c0,1.1-1.2,2.1-2.7,2.1
		c-1.3,0-2.1-0.5-2.5-0.9C1365,600.7,1364.9,600.6,1365,600.5z"/>
	<path class="st1" d="M1372.2,589.5c0-0.4,0.3-0.7,0.6-0.7c0.4,0,0.6,0.3,0.6,0.7c0,0.3-0.3,0.6-0.6,0.6
		C1372.5,590.1,1372.2,589.8,1372.2,589.5z M1372.4,594c0-0.1,0.1-0.2,0.2-0.2h0.3c0.1,0,0.2,0.1,0.2,0.2v7.1c0,0.2-0.1,0.2-0.2,0.2
		h-0.4c-0.1,0-0.2-0.1-0.2-0.2V594z"/>
	<path class="st1" d="M1376.6,598.7c-0.2-0.3-0.6-1-0.6-1.9c0-1.8,1.3-3.2,3.3-3.2c0.5,0,0.5,0,3.1,0c0.2,0,0.2,0.1,0.2,0.2v0.2
		c0,0.1-0.1,0.2-0.2,0.2l-1.4,0.1c0.4,0.2,1.2,0.9,1.2,2.4c0,1.7-1.2,3.2-3.2,3.2c-1.1,0-1.8-0.4-2.1-0.7c-0.2,0.1-1,0.5-1,1.4
		c0,0.9,0.8,1.1,1.5,1.1h2.8c1.6,0,2.8,0.7,2.8,2.4c0,1.6-1.6,3.1-3.9,3.1c-2.6,0-3.7-1.5-3.7-2.8c0-1.1,0.8-1.7,1.2-2
		c-0.4-0.1-1.5-0.6-1.5-1.7C1375.4,599.5,1376.4,598.8,1376.6,598.7z M1379.3,606.5c1.7,0,3-1,3-2.3c0-0.9-0.5-1.7-1.9-1.7h-2.4
		c-0.2,0-1.5,0.6-1.5,1.8C1376.5,605.4,1377.5,606.5,1379.3,606.5z M1381.6,596.8c0-1.6-1.1-2.4-2.3-2.4c-1.5,0-2.4,1.1-2.4,2.4
		c0,1.3,0.8,2.4,2.4,2.4C1380.7,599.2,1381.6,598.2,1381.6,596.8z"/>
	<path class="st1" d="M1384.9,594c0-0.1,0.1-0.2,0.3-0.2h0.2c0.1,0,0.2,0.1,0.2,0.2l0.1,0.8c0.2-0.3,1.3-1.2,2.8-1.2
		c2.1,0,3.1,1.3,3.1,3.5v4.1c0,0.1-0.1,0.2-0.2,0.2h-0.3c-0.1,0-0.2-0.1-0.2-0.2v-4.1c0-1.7-0.8-2.7-2.3-2.7c-1.6,0-2.6,1.2-2.7,1.3
		v5.4c0,0.2-0.1,0.2-0.2,0.2h-0.4c-0.1,0-0.2-0.1-0.2-0.2V594z"/>
	<path class="st1" d="M1398.9,594.5h-1.1c-0.2,0-0.2-0.1-0.2-0.2V594c0-0.1,0.1-0.2,0.2-0.2h1.1v-2.6c0-2.2,1.2-3.3,2.9-3.3
		c1,0,1.8,0.5,2.1,0.8c0.1,0.1,0.1,0.2,0,0.3l-0.2,0.3c-0.1,0.1-0.2,0.1-0.3,0c-0.3-0.3-1-0.6-1.7-0.6c-1.2,0-2,0.8-2,2.5v2.6h2.8
		c0.2,0,0.2,0.1,0.2,0.2v0.3c0,0.1-0.1,0.2-0.2,0.2h-2.8v6.6c0,0.1-0.1,0.2-0.2,0.2h-0.3c-0.1,0-0.2-0.1-0.2-0.2V594.5z"/>
	<path class="st1" d="M1407.7,593.6c2.1,0,3.8,1.8,3.8,4c0,2.2-1.7,4-3.8,4c-2.1,0-3.8-1.8-3.8-4
		C1403.8,595.4,1405.5,593.6,1407.7,593.6z M1407.7,600.8c1.7,0,3-1.4,3-3.2c0-1.7-1.3-3.2-3-3.2c-1.7,0-3,1.4-3,3.2
		C1404.7,599.4,1406,600.8,1407.7,600.8z"/>
	<path class="st1" d="M1413.8,594c0-0.1,0.1-0.2,0.2-0.2h0.2c0.1,0,0.2,0.1,0.2,0.2l0.1,0.8c0.2-0.3,1-1.2,2.4-1.2
		c0.6,0,1,0.2,1.2,0.2c0.2,0.1,0.3,0.2,0.2,0.3l-0.2,0.4c-0.1,0.1-0.2,0.2-0.3,0.1c-0.1,0-0.5-0.2-1-0.2c-1.5,0-2.2,1.2-2.3,1.3v5.4
		c0,0.2-0.1,0.2-0.2,0.2h-0.4c-0.1,0-0.2-0.1-0.2-0.2V594z"/>
	<path class="st1" d="M1424.4,594.5h-0.9c-0.2,0-0.2-0.1-0.2-0.2V594c0-0.1,0.1-0.2,0.2-0.2h0.9v-2.1c0-0.2,0.1-0.2,0.2-0.2l0.3,0
		c0.1,0,0.2,0.1,0.2,0.2v2.1h2.6c0.2,0,0.2,0.1,0.2,0.2v0.2c0,0.2-0.1,0.2-0.2,0.2h-2.6v4.8c0,0.9,0.1,1.4,1,1.4
		c0.7,0,1.5-0.4,1.7-0.5c0.2-0.1,0.2,0,0.3,0.1l0.1,0.2c0.1,0.1,0.1,0.2-0.1,0.3c-0.3,0.2-1.1,0.7-2.2,0.7c-1.6,0-1.7-0.9-1.7-2.1
		V594.5z"/>
	<path class="st1" d="M1430.3,588.3c0-0.1,0.1-0.2,0.3-0.2h0.3c0.1,0,0.2,0.1,0.2,0.2v6.5c0.2-0.2,1.3-1.2,2.8-1.2
		c2,0,3.1,1.2,3.1,3.5v4.1c0,0.1-0.1,0.2-0.2,0.2h-0.3c-0.1,0-0.2-0.1-0.2-0.2v-4.1c0-1.7-0.8-2.7-2.3-2.7c-1.6,0-2.6,1.2-2.7,1.3
		v5.4c0,0.2-0.1,0.2-0.2,0.2h-0.4c-0.1,0-0.2-0.1-0.2-0.2V588.3z"/>
	<path class="st1" d="M1442.9,593.6c2,0,3.4,1.5,3.4,3.5c0,0.3,0,0.7-0.3,0.7h-6.1c0.1,1.6,1.3,3,3,3c1,0,1.8-0.4,2.2-0.7
		c0.2-0.1,0.2-0.1,0.3,0l0.2,0.3c0.1,0.1,0,0.2-0.1,0.3c-0.4,0.4-1.6,0.9-2.8,0.9c-2.3,0-3.7-1.8-3.7-4
		C1439.2,595.4,1440.6,593.6,1442.9,593.6z M1445.5,597.1c0-1.5-0.9-2.8-2.6-2.8c-1.7,0-2.8,1.2-2.9,2.8H1445.5z"/>
	<path class="st1" d="M1451.9,594.1c-0.1-0.2-0.1-0.3,0.1-0.3h0.4c0.1,0,0.2,0,0.2,0.2l1.8,6h0l2.3-6.2c0-0.1,0.1-0.2,0.2-0.2h0.1
		c0.1,0,0.2,0.1,0.2,0.2l2.3,6.2h0l1.8-6c0-0.1,0.2-0.2,0.2-0.2h0.4c0.2,0,0.2,0.1,0.1,0.3l-2.3,7.3c0,0.1-0.1,0.2-0.2,0.2h-0.1
		c-0.1,0-0.2-0.1-0.2-0.2l-2.3-6.4h0l-2.3,6.4c0,0.1-0.1,0.2-0.2,0.2h-0.1c-0.1,0-0.2,0-0.2-0.2L1451.9,594.1z"/>
	<path class="st1" d="M1467.4,593.6c2,0,3.4,1.5,3.4,3.5c0,0.3,0,0.7-0.3,0.7h-6.1c0.1,1.6,1.3,3,3,3c1,0,1.8-0.4,2.2-0.7
		c0.2-0.1,0.2-0.1,0.3,0l0.2,0.3c0.1,0.1,0,0.2-0.1,0.3c-0.4,0.4-1.6,0.9-2.8,0.9c-2.3,0-3.7-1.8-3.7-4
		C1463.7,595.4,1465.1,593.6,1467.4,593.6z M1470,597.1c0-1.5-0.9-2.8-2.6-2.8c-1.7,0-2.8,1.2-2.9,2.8H1470z"/>
	<path class="st1" d="M1473.1,588.3c0-0.1,0.1-0.2,0.2-0.2h0.3c0.1,0,0.2,0.1,0.2,0.2v6c0,0,0.9-0.8,2.4-0.8c2.1,0,3.7,1.7,3.7,4
		c0,2.2-1.5,4-3.5,4c-1.5,0-2.4-0.9-2.6-1.1l-0.1,0.7c0,0.2-0.1,0.2-0.3,0.2h-0.2c-0.1,0-0.2-0.1-0.2-0.2V588.3z M1476.4,600.8
		c1.6,0,2.8-1.5,2.8-3.2c0-1.8-1.3-3.2-3-3.2c-1.4,0-2.2,0.8-2.2,0.8v4.3C1474,599.6,1474.8,600.8,1476.4,600.8z"/>
	<path class="st1" d="M1481.9,600.5l0.2-0.3c0.1-0.1,0.2-0.1,0.3,0c0.2,0.2,1,0.7,2,0.7c1.1,0,1.8-0.6,1.8-1.3
		c0-0.9-0.9-1.2-2.1-1.7c-1.3-0.5-2.3-1.1-2.3-2.2c0-0.8,0.7-2,2.5-2c1,0,1.8,0.4,2.1,0.6c0.1,0.1,0.2,0.2,0.1,0.4l-0.1,0.2
		c-0.1,0.1-0.2,0.2-0.4,0.1c-0.2-0.1-0.9-0.5-1.7-0.5c-1.2,0-1.6,0.7-1.6,1.2c0,0.8,0.7,1.1,1.8,1.5c1.4,0.5,2.7,1,2.7,2.4
		c0,1.1-1.2,2.1-2.7,2.1c-1.3,0-2.1-0.5-2.5-0.9C1481.9,600.7,1481.9,600.6,1481.9,600.5z"/>
	<path class="st1" d="M1489.1,589.5c0-0.4,0.3-0.7,0.6-0.7c0.4,0,0.6,0.3,0.6,0.7c0,0.3-0.3,0.6-0.6,0.6
		C1489.4,590.1,1489.1,589.8,1489.1,589.5z M1489.4,594c0-0.1,0.1-0.2,0.2-0.2h0.3c0.1,0,0.2,0.1,0.2,0.2v7.1c0,0.2-0.1,0.2-0.2,0.2
		h-0.4c-0.1,0-0.2-0.1-0.2-0.2V594z"/>
	<path class="st1" d="M1493.4,594.5h-0.9c-0.2,0-0.2-0.1-0.2-0.2V594c0-0.1,0.1-0.2,0.2-0.2h0.9v-2.1c0-0.2,0.1-0.2,0.2-0.2l0.3,0
		c0.1,0,0.2,0.1,0.2,0.2v2.1h2.6c0.2,0,0.2,0.1,0.2,0.2v0.2c0,0.2-0.1,0.2-0.2,0.2h-2.6v4.8c0,0.9,0.1,1.4,1,1.4
		c0.7,0,1.5-0.4,1.7-0.5c0.2-0.1,0.2,0,0.3,0.1l0.1,0.2c0.1,0.1,0.1,0.2-0.1,0.3c-0.3,0.2-1.1,0.7-2.2,0.7c-1.6,0-1.7-0.9-1.7-2.1
		V594.5z"/>
	<path class="st1" d="M1502.5,593.6c2,0,3.4,1.5,3.4,3.5c0,0.3,0,0.7-0.3,0.7h-6.1c0.1,1.6,1.3,3,3,3c1,0,1.8-0.4,2.2-0.7
		c0.2-0.1,0.2-0.1,0.3,0l0.2,0.3c0.1,0.1,0,0.2-0.1,0.3c-0.4,0.4-1.6,0.9-2.8,0.9c-2.3,0-3.7-1.8-3.7-4
		C1498.8,595.4,1500.2,593.6,1502.5,593.6z M1505.1,597.1c0-1.5-0.9-2.8-2.6-2.8c-1.7,0-2.8,1.2-2.9,2.8H1505.1z"/>
	<path class="st1" d="M1247,611.1c0-0.1,0.1-0.2,0.2-0.2h0.4c0.1,0,0.2,0.1,0.2,0.2V624c0,0.2-0.1,0.2-0.3,0.2h-0.4
		c-0.1,0-0.2-0.1-0.2-0.2V611.1z"/>
	<path class="st1" d="M1255.4,616.8c0-0.1,0.1-0.2,0.2-0.2h0.3c0.1,0,0.2,0.1,0.2,0.2v4.1c0,1.8,0.8,2.7,2.3,2.7
		c1.6,0,2.5-1.2,2.5-1.3v-5.4c0-0.2,0.1-0.2,0.2-0.2h0.3c0.1,0,0.2,0.1,0.2,0.2v7.1c0,0.1-0.1,0.2-0.2,0.2h-0.2
		c-0.2,0-0.2-0.1-0.2-0.2l-0.1-0.7c-0.2,0.3-1.1,1.2-2.6,1.2c-2.1,0-3-1.3-3-3.5V616.8z"/>
	<path class="st1" d="M1264.3,623.3l0.2-0.3c0.1-0.1,0.2-0.1,0.3,0c0.2,0.2,1,0.7,2,0.7c1.1,0,1.8-0.6,1.8-1.3
		c0-0.9-0.9-1.2-2.1-1.7c-1.3-0.5-2.3-1.1-2.3-2.2c0-0.8,0.7-2,2.5-2c1,0,1.8,0.4,2.1,0.6c0.1,0.1,0.2,0.2,0.1,0.4l-0.1,0.2
		c-0.1,0.1-0.2,0.2-0.4,0.1c-0.2-0.1-0.9-0.5-1.7-0.5c-1.2,0-1.6,0.7-1.6,1.2c0,0.8,0.7,1.1,1.8,1.5c1.4,0.5,2.7,1,2.7,2.4
		c0,1.1-1.2,2.1-2.7,2.1c-1.3,0-2.1-0.5-2.5-0.9C1264.3,623.5,1264.2,623.4,1264.3,623.3z"/>
	<path class="st1" d="M1274.9,616.4c2,0,3.4,1.5,3.4,3.5c0,0.3,0,0.7-0.3,0.7h-6.1c0.1,1.6,1.3,3,3,3c1,0,1.8-0.4,2.2-0.7
		c0.2-0.1,0.2-0.1,0.3,0l0.2,0.3c0.1,0.1,0,0.2-0.1,0.3c-0.4,0.4-1.6,0.9-2.8,0.9c-2.3,0-3.7-1.8-3.7-4
		C1271.2,618.2,1272.6,616.4,1274.9,616.4z M1277.5,619.9c0-1.5-0.9-2.8-2.6-2.8c-1.7,0-2.8,1.2-2.9,2.8H1277.5z"/>
	<path class="st1" d="M1283.8,616.4c1.4,0,2.3,0.8,2.3,0.8v-6c0-0.1,0.1-0.2,0.2-0.2h0.3c0.1,0,0.2,0.1,0.2,0.2V624
		c0,0.1-0.1,0.2-0.2,0.2h-0.2c-0.2,0-0.2-0.1-0.3-0.2l-0.1-0.7c-0.2,0.2-1.2,1.1-2.6,1.1c-2,0-3.5-1.8-3.5-4
		C1280.1,618.2,1281.7,616.4,1283.8,616.4z M1283.6,623.6c1.7,0,2.5-1.3,2.5-1.3V618c0,0-0.9-0.8-2.3-0.8c-1.7,0-3,1.4-3,3.2
		C1280.9,622.2,1282,623.6,1283.6,623.6z"/>
	<path class="st1" d="M1296.8,624l5.9-13.2c0-0.1,0.1-0.1,0.2-0.1h0.1c0.1,0,0.2,0,0.2,0.1l5.8,13.2c0,0.1,0,0.2-0.2,0.2h-0.5
		c-0.1,0-0.2-0.1-0.3-0.2l-1.5-3.5h-7.3l-1.5,3.5c0,0.1-0.1,0.2-0.3,0.2h-0.5C1296.8,624.2,1296.7,624.1,1296.8,624z M1306.2,619.8
		l-3.2-7.7h0l-3.3,7.7H1306.2z"/>
	<path class="st1" d="M1313.7,616.4c1.4,0,2.3,0.8,2.3,0.8v-6c0-0.1,0.1-0.2,0.2-0.2h0.3c0.1,0,0.2,0.1,0.2,0.2V624
		c0,0.1-0.1,0.2-0.2,0.2h-0.2c-0.2,0-0.2-0.1-0.3-0.2l-0.1-0.7c-0.2,0.2-1.2,1.1-2.6,1.1c-2,0-3.5-1.8-3.5-4
		C1310,618.2,1311.5,616.4,1313.7,616.4z M1313.5,623.6c1.7,0,2.5-1.3,2.5-1.3V618c0,0-0.9-0.8-2.3-0.8c-1.7,0-3,1.4-3,3.2
		C1310.8,622.2,1311.9,623.6,1313.5,623.6z"/>
	<path class="st1" d="M1323,616.4c2.1,0,3.8,1.8,3.8,4c0,2.2-1.7,4-3.8,4c-2.1,0-3.8-1.8-3.8-4
		C1319.2,618.2,1320.8,616.4,1323,616.4z M1323,623.6c1.7,0,3-1.4,3-3.2c0-1.7-1.3-3.2-3-3.2c-1.7,0-3,1.4-3,3.2
		C1320,622.2,1321.3,623.6,1323,623.6z"/>
	<path class="st1" d="M1329.1,611.1c0-0.1,0.1-0.2,0.2-0.2h0.3c0.1,0,0.2,0.1,0.2,0.2v6c0,0,0.9-0.8,2.4-0.8c2.1,0,3.7,1.7,3.7,4
		c0,2.2-1.5,4-3.5,4c-1.5,0-2.4-0.9-2.6-1.1l-0.1,0.7c0,0.2-0.1,0.2-0.3,0.2h-0.2c-0.1,0-0.2-0.1-0.2-0.2V611.1z M1332.5,623.6
		c1.6,0,2.8-1.5,2.8-3.2c0-1.8-1.3-3.2-3-3.2c-1.4,0-2.2,0.8-2.2,0.8v4.3C1330,622.4,1330.8,623.6,1332.5,623.6z"/>
	<path class="st1" d="M1341.6,616.4c2,0,3.4,1.5,3.4,3.5c0,0.3,0,0.7-0.3,0.7h-6.1c0.1,1.6,1.3,3,3,3c1,0,1.8-0.4,2.2-0.7
		c0.2-0.1,0.2-0.1,0.3,0l0.2,0.3c0.1,0.1,0,0.2-0.1,0.3c-0.4,0.4-1.6,0.9-2.8,0.9c-2.3,0-3.7-1.8-3.7-4
		C1337.8,618.2,1339.2,616.4,1341.6,616.4z M1344.2,619.9c0-1.5-0.9-2.8-2.6-2.8c-1.7,0-2.8,1.2-2.9,2.8H1344.2z"/>
	<path class="st1" d="M1351.9,611.1c0-0.1,0.1-0.2,0.2-0.2h4.1c2.4,0,4.3,1.9,4.3,4.3c0,2.4-1.9,4.3-4.3,4.3h-3.5v4.5
		c0,0.1-0.1,0.2-0.3,0.2h-0.3c-0.1,0-0.2-0.1-0.2-0.2V611.1z M1356.2,618.6c1.9,0,3.4-1.5,3.4-3.5c0-1.9-1.6-3.3-3.5-3.3h-3.4v6.8
		H1356.2z"/>
	<path class="st1" d="M1362.5,611.1c0-0.1,0.1-0.2,0.3-0.2h0.3c0.1,0,0.2,0.1,0.2,0.2v6.5c0.2-0.2,1.3-1.2,2.8-1.2
		c2,0,3.1,1.2,3.1,3.5v4.1c0,0.1-0.1,0.2-0.2,0.2h-0.3c-0.1,0-0.2-0.1-0.2-0.2v-4.1c0-1.7-0.8-2.7-2.3-2.7c-1.6,0-2.6,1.2-2.7,1.3
		v5.4c0,0.2-0.1,0.2-0.2,0.2h-0.4c-0.1,0-0.2-0.1-0.2-0.2V611.1z"/>
	<path class="st1" d="M1375.1,616.4c2.1,0,3.8,1.8,3.8,4c0,2.2-1.7,4-3.8,4c-2.1,0-3.8-1.8-3.8-4
		C1371.3,618.2,1373,616.4,1375.1,616.4z M1375.1,623.6c1.7,0,3-1.4,3-3.2c0-1.7-1.3-3.2-3-3.2c-1.7,0-3,1.4-3,3.2
		C1372.1,622.2,1373.5,623.6,1375.1,623.6z"/>
	<path class="st1" d="M1381.6,617.3h-0.9c-0.2,0-0.2-0.1-0.2-0.2v-0.3c0-0.1,0.1-0.2,0.2-0.2h0.9v-2.1c0-0.2,0.1-0.2,0.2-0.2l0.3,0
		c0.1,0,0.2,0.1,0.2,0.2v2.1h2.6c0.2,0,0.2,0.1,0.2,0.2v0.2c0,0.2-0.1,0.2-0.2,0.2h-2.6v4.8c0,0.9,0.1,1.4,1,1.4
		c0.7,0,1.5-0.4,1.7-0.5c0.2-0.1,0.2,0,0.3,0.1l0.1,0.2c0.1,0.1,0.1,0.2-0.1,0.3c-0.3,0.2-1.1,0.7-2.2,0.7c-1.6,0-1.7-0.9-1.7-2.1
		V617.3z"/>
	<path class="st1" d="M1390.8,616.4c2.1,0,3.8,1.8,3.8,4c0,2.2-1.7,4-3.8,4c-2.1,0-3.8-1.8-3.8-4
		C1387,618.2,1388.6,616.4,1390.8,616.4z M1390.8,623.6c1.7,0,3-1.4,3-3.2c0-1.7-1.3-3.2-3-3.2c-1.7,0-3,1.4-3,3.2
		C1387.8,622.2,1389.1,623.6,1390.8,623.6z"/>
	<path class="st1" d="M1396.5,623.3l0.2-0.3c0.1-0.1,0.2-0.1,0.3,0c0.2,0.2,1,0.7,2,0.7c1.1,0,1.8-0.6,1.8-1.3
		c0-0.9-0.9-1.2-2.1-1.7c-1.3-0.5-2.3-1.1-2.3-2.2c0-0.8,0.7-2,2.5-2c1,0,1.8,0.4,2.1,0.6c0.1,0.1,0.2,0.2,0.1,0.4l-0.1,0.2
		c-0.1,0.1-0.2,0.2-0.4,0.1c-0.2-0.1-0.9-0.5-1.7-0.5c-1.2,0-1.6,0.7-1.6,1.2c0,0.8,0.7,1.1,1.8,1.5c1.4,0.5,2.7,1,2.7,2.4
		c0,1.1-1.2,2.1-2.7,2.1c-1.3,0-2.1-0.5-2.5-0.9C1396.5,623.5,1396.4,623.4,1396.5,623.3z"/>
	<path class="st1" d="M1404,611.1c0-0.1,0.1-0.2,0.3-0.2h0.3c0.1,0,0.2,0.1,0.2,0.2v6.5c0.2-0.2,1.3-1.2,2.8-1.2
		c2,0,3.1,1.2,3.1,3.5v4.1c0,0.1-0.1,0.2-0.2,0.2h-0.3c-0.1,0-0.2-0.1-0.2-0.2v-4.1c0-1.7-0.8-2.7-2.3-2.7c-1.6,0-2.6,1.2-2.7,1.3
		v5.4c0,0.2-0.1,0.2-0.2,0.2h-0.4c-0.1,0-0.2-0.1-0.2-0.2V611.1z"/>
	<path class="st1" d="M1416.6,616.4c2.1,0,3.8,1.8,3.8,4c0,2.2-1.7,4-3.8,4c-2.1,0-3.8-1.8-3.8-4
		C1412.8,618.2,1414.5,616.4,1416.6,616.4z M1416.6,623.6c1.7,0,3-1.4,3-3.2c0-1.7-1.3-3.2-3-3.2c-1.7,0-3,1.4-3,3.2
		C1413.6,622.2,1414.9,623.6,1416.6,623.6z"/>
	<path class="st1" d="M1423.6,629.7c0,0.1-0.1,0.2-0.2,0.2h-0.3c-0.1,0-0.2-0.1-0.2-0.2v-12.8c0-0.2,0.1-0.2,0.3-0.2h0.2
		c0.1,0,0.2,0.1,0.2,0.2l0.1,0.5c0.2-0.2,1.1-0.9,2.5-0.9c2.1,0,3.7,1.8,3.7,4c0,2.2-1.6,4-3.8,4c-1.3,0-2.1-0.6-2.3-0.8V629.7z
		 M1425.7,623.6c1.8,0,3.1-1.4,3.1-3.2c0-1.8-1.2-3.2-2.9-3.2c-1.5,0-2.3,1-2.4,1.1v4.4C1423.6,622.8,1424.4,623.6,1425.7,623.6z"/>
	<path class="st1" d="M1432.7,622.9c0.4,0,0.8,0.3,0.8,0.8c0,0.4-0.3,0.8-0.8,0.8c-0.4,0-0.8-0.3-0.8-0.8
		C1431.9,623.2,1432.3,622.9,1432.7,622.9z"/>
	<path class="st1" d="M1249,657.3h-3.6c-0.2,0-0.2-0.1-0.2-0.3v-0.3c0-0.2,0.1-0.2,0.2-0.2h8.2c0.2,0,0.2,0.1,0.2,0.2v0.3
		c0,0.1-0.1,0.2-0.2,0.2h-3.6v12.2c0,0.1-0.1,0.2-0.3,0.2h-0.3c-0.1,0-0.2-0.1-0.2-0.2V657.3z"/>
	<path class="st1" d="M1255.3,656.7c0-0.1,0.1-0.2,0.3-0.2h0.3c0.1,0,0.2,0.1,0.2,0.2v6.5c0.2-0.2,1.3-1.2,2.8-1.2
		c2,0,3.1,1.2,3.1,3.5v4.1c0,0.1-0.1,0.2-0.2,0.2h-0.3c-0.1,0-0.2-0.1-0.2-0.2v-4.1c0-1.7-0.8-2.7-2.3-2.7c-1.6,0-2.6,1.2-2.7,1.3
		v5.4c0,0.2-0.1,0.2-0.2,0.2h-0.4c-0.1,0-0.2-0.1-0.2-0.2V656.7z"/>
	<path class="st1" d="M1267.9,662c2,0,3.4,1.5,3.4,3.5c0,0.3,0,0.7-0.3,0.7h-6.1c0.1,1.6,1.3,3,3,3c1,0,1.8-0.4,2.2-0.7
		c0.2-0.1,0.2-0.1,0.3,0l0.2,0.3c0.1,0.1,0,0.2-0.1,0.3c-0.4,0.4-1.6,0.9-2.8,0.9c-2.3,0-3.7-1.8-3.7-4
		C1264.1,663.8,1265.5,662,1267.9,662z M1270.5,665.5c0-1.5-0.9-2.8-2.6-2.8c-1.7,0-2.8,1.2-2.9,2.8H1270.5z"/>
	<path class="st1" d="M1278.1,662.9h-1.1c-0.2,0-0.2-0.1-0.2-0.2v-0.2c0-0.1,0.1-0.2,0.2-0.2h1.1v-2.6c0-2.2,1.2-3.3,2.9-3.3
		c1,0,1.8,0.5,2.1,0.8c0.1,0.1,0.1,0.2,0,0.3l-0.2,0.3c-0.1,0.1-0.2,0.1-0.3,0c-0.3-0.3-1-0.6-1.7-0.6c-1.2,0-2,0.8-2,2.5v2.6h2.8
		c0.2,0,0.2,0.1,0.2,0.2v0.3c0,0.1-0.1,0.2-0.2,0.2h-2.8v6.6c0,0.1-0.1,0.2-0.2,0.2h-0.3c-0.1,0-0.2-0.1-0.2-0.2V662.9z"/>
	<path class="st1" d="M1286.9,662c2.1,0,3.8,1.8,3.8,4c0,2.2-1.7,4-3.8,4c-2.1,0-3.8-1.8-3.8-4C1283,663.8,1284.7,662,1286.9,662z
		 M1286.9,669.2c1.7,0,3-1.4,3-3.2c0-1.7-1.3-3.2-3-3.2c-1.7,0-3,1.4-3,3.2C1283.9,667.8,1285.2,669.2,1286.9,669.2z"/>
	<path class="st1" d="M1293,662.4c0-0.1,0.1-0.2,0.3-0.2h0.2c0.1,0,0.2,0.1,0.2,0.2l0.1,0.8c0.2-0.3,1.3-1.2,2.8-1.2
		c2.1,0,3.1,1.3,3.1,3.5v4.1c0,0.1-0.1,0.2-0.2,0.2h-0.3c-0.1,0-0.2-0.1-0.2-0.2v-4.1c0-1.7-0.8-2.7-2.3-2.7c-1.6,0-2.6,1.2-2.7,1.3
		v5.4c0,0.2-0.1,0.2-0.2,0.2h-0.4c-0.1,0-0.2-0.1-0.2-0.2V662.4z"/>
	<path class="st1" d="M1302.7,662.9h-0.9c-0.2,0-0.2-0.1-0.2-0.2v-0.3c0-0.1,0.1-0.2,0.2-0.2h0.9v-2.1c0-0.2,0.1-0.2,0.2-0.2l0.3,0
		c0.1,0,0.2,0.1,0.2,0.2v2.1h2.6c0.2,0,0.2,0.1,0.2,0.2v0.2c0,0.2-0.1,0.2-0.2,0.2h-2.6v4.8c0,0.9,0.1,1.4,1,1.4
		c0.7,0,1.5-0.4,1.7-0.5c0.2-0.1,0.2,0,0.3,0.1l0.1,0.2c0.1,0.1,0.1,0.2-0.1,0.3c-0.3,0.2-1.1,0.7-2.2,0.7c-1.6,0-1.7-0.9-1.7-2.1
		V662.9z"/>
	<path class="st1" d="M1312.7,662.4c0-0.1,0.1-0.2,0.2-0.2h0.3c0.1,0,0.2,0.1,0.2,0.2v4.1c0,1.8,0.8,2.7,2.3,2.7
		c1.6,0,2.5-1.2,2.5-1.3v-5.4c0-0.2,0.1-0.2,0.2-0.2h0.3c0.1,0,0.2,0.1,0.2,0.2v7.1c0,0.1-0.1,0.2-0.2,0.2h-0.2
		c-0.2,0-0.2-0.1-0.2-0.2l-0.1-0.7c-0.2,0.3-1.1,1.2-2.6,1.2c-2.1,0-3-1.3-3-3.5V662.4z"/>
	<path class="st1" d="M1321.5,668.9l0.2-0.3c0.1-0.1,0.2-0.1,0.3,0c0.2,0.2,1,0.7,2,0.7c1.1,0,1.8-0.6,1.8-1.3
		c0-0.9-0.9-1.2-2.1-1.7c-1.3-0.5-2.3-1.1-2.3-2.2c0-0.8,0.7-2,2.5-2c1,0,1.8,0.4,2.1,0.6c0.1,0.1,0.2,0.2,0.1,0.4l-0.1,0.2
		c-0.1,0.1-0.2,0.2-0.4,0.1c-0.2-0.1-0.9-0.5-1.7-0.5c-1.2,0-1.6,0.7-1.6,1.2c0,0.8,0.7,1.1,1.8,1.5c1.4,0.5,2.7,1,2.7,2.4
		c0,1.1-1.2,2.1-2.7,2.1c-1.3,0-2.1-0.5-2.5-0.9C1321.5,669.1,1321.5,669,1321.5,668.9z"/>
	<path class="st1" d="M1332.2,662c2,0,3.4,1.5,3.4,3.5c0,0.3,0,0.7-0.3,0.7h-6.1c0.1,1.6,1.3,3,3,3c1,0,1.8-0.4,2.2-0.7
		c0.2-0.1,0.2-0.1,0.3,0l0.2,0.3c0.1,0.1,0,0.2-0.1,0.3c-0.4,0.4-1.6,0.9-2.8,0.9c-2.3,0-3.7-1.8-3.7-4
		C1328.5,663.8,1329.9,662,1332.2,662z M1334.8,665.5c0-1.5-0.9-2.8-2.6-2.8c-1.7,0-2.8,1.2-2.9,2.8H1334.8z"/>
	<path class="st1" d="M1341.1,662c1.4,0,2.3,0.8,2.3,0.8v-6c0-0.1,0.1-0.2,0.2-0.2h0.3c0.1,0,0.2,0.1,0.2,0.2v12.8
		c0,0.1-0.1,0.2-0.2,0.2h-0.2c-0.2,0-0.2-0.1-0.3-0.2l-0.1-0.7c-0.2,0.2-1.2,1.1-2.6,1.1c-2,0-3.5-1.8-3.5-4
		C1337.3,663.8,1338.9,662,1341.1,662z M1340.9,669.2c1.7,0,2.5-1.3,2.5-1.3v-4.3c0,0-0.9-0.8-2.3-0.8c-1.7,0-3,1.4-3,3.2
		C1338.2,667.8,1339.3,669.2,1340.9,669.2z"/>
	<path class="st1" d="M1350.4,662.5c-0.1-0.2-0.1-0.3,0.1-0.3h0.4c0.1,0,0.2,0,0.2,0.2l1.8,6h0l2.3-6.2c0-0.1,0.1-0.2,0.2-0.2h0.1
		c0.1,0,0.2,0.1,0.2,0.2l2.3,6.2h0l1.8-6c0-0.1,0.2-0.2,0.2-0.2h0.4c0.2,0,0.2,0.1,0.1,0.3l-2.3,7.3c0,0.1-0.1,0.2-0.2,0.2h-0.1
		c-0.1,0-0.2-0.1-0.2-0.2l-2.3-6.4h0l-2.3,6.4c0,0.1-0.1,0.2-0.2,0.2h-0.1c-0.1,0-0.2,0-0.2-0.2L1350.4,662.5z"/>
	<path class="st1" d="M1365.3,664.9c0.9,0,1.7,0.3,1.9,0.3c0-1.7-0.2-2.5-1.7-2.5c-1.3,0-2.1,0.5-2.3,0.5c-0.2,0.1-0.2,0-0.3-0.2
		l-0.1-0.2c-0.1-0.2,0-0.2,0.1-0.3c0.1,0,1-0.6,2.6-0.6c2.3,0,2.4,1.4,2.4,3.3v4.2c0,0.1-0.1,0.2-0.2,0.2h-0.2
		c-0.1,0-0.2-0.1-0.2-0.2l-0.1-0.7c-0.5,0.5-1.4,1.1-2.6,1.1c-1.4,0-2.5-1-2.5-2.5C1362.2,666,1363.3,664.9,1365.3,664.9z
		 M1364.7,669.2c1.2,0,2.2-0.7,2.5-1.2V666c-0.2-0.1-1-0.4-1.9-0.4c-1.4,0-2.4,0.7-2.4,1.9C1362.9,668.5,1363.7,669.2,1364.7,669.2z
		"/>
	<path class="st1" d="M1370.4,668.9l0.2-0.3c0.1-0.1,0.2-0.1,0.3,0c0.2,0.2,1,0.7,2,0.7c1.1,0,1.8-0.6,1.8-1.3
		c0-0.9-0.9-1.2-2.1-1.7c-1.3-0.5-2.3-1.1-2.3-2.2c0-0.8,0.7-2,2.5-2c1,0,1.8,0.4,2.1,0.6c0.1,0.1,0.2,0.2,0.1,0.4l-0.1,0.2
		c-0.1,0.1-0.2,0.2-0.4,0.1c-0.2-0.1-0.9-0.5-1.7-0.5c-1.2,0-1.6,0.7-1.6,1.2c0,0.8,0.7,1.1,1.8,1.5c1.4,0.5,2.7,1,2.7,2.4
		c0,1.1-1.2,2.1-2.7,2.1c-1.3,0-2.1-0.5-2.5-0.9C1370.4,669.1,1370.4,669,1370.4,668.9z"/>
	<path class="st1" d="M1382.6,656.7c0-0.1,0.1-0.2,0.2-0.2h0.4c0.1,0,0.2,0.1,0.2,0.2V669h6.1c0.2,0,0.2,0.1,0.2,0.2v0.3
		c0,0.1-0.1,0.2-0.2,0.2h-6.7c-0.1,0-0.2-0.1-0.2-0.2V656.7z"/>
	<path class="st1" d="M1393.9,664.9c0.9,0,1.7,0.3,1.9,0.3c0-1.7-0.2-2.5-1.7-2.5c-1.3,0-2.1,0.5-2.3,0.5c-0.2,0.1-0.2,0-0.3-0.2
		l-0.1-0.2c-0.1-0.2,0-0.2,0.1-0.3c0.1,0,1-0.6,2.6-0.6c2.3,0,2.4,1.4,2.4,3.3v4.2c0,0.1-0.1,0.2-0.2,0.2h-0.2
		c-0.1,0-0.2-0.1-0.2-0.2l-0.1-0.7c-0.5,0.5-1.4,1.1-2.6,1.1c-1.4,0-2.5-1-2.5-2.5C1390.7,666,1391.9,664.9,1393.9,664.9z
		 M1393.3,669.2c1.2,0,2.2-0.7,2.5-1.2V666c-0.2-0.1-1-0.4-1.9-0.4c-1.4,0-2.4,0.7-2.4,1.9C1391.5,668.5,1392.2,669.2,1393.3,669.2z
		"/>
	<path class="st1" d="M1399.8,662.9h-0.9c-0.2,0-0.2-0.1-0.2-0.2v-0.3c0-0.1,0.1-0.2,0.2-0.2h0.9v-2.1c0-0.2,0.1-0.2,0.2-0.2l0.3,0
		c0.1,0,0.2,0.1,0.2,0.2v2.1h2.6c0.2,0,0.2,0.1,0.2,0.2v0.2c0,0.2-0.1,0.2-0.2,0.2h-2.6v4.8c0,0.9,0.1,1.4,1,1.4
		c0.7,0,1.5-0.4,1.7-0.5c0.2-0.1,0.2,0,0.3,0.1l0.1,0.2c0.1,0.1,0.1,0.2-0.1,0.3c-0.3,0.2-1.1,0.7-2.2,0.7c-1.6,0-1.7-0.9-1.7-2.1
		V662.9z"/>
	<path class="st1" d="M1408.9,662c2.1,0,3.8,1.8,3.8,4c0,2.2-1.7,4-3.8,4c-2.1,0-3.8-1.8-3.8-4C1405.1,663.8,1406.8,662,1408.9,662z
		 M1408.9,669.2c1.7,0,3-1.4,3-3.2c0-1.7-1.3-3.2-3-3.2c-1.7,0-3,1.4-3,3.2C1405.9,667.8,1407.2,669.2,1408.9,669.2z"/>
	<path class="st1" d="M1415.8,668.5c0.4,0,0.8,0.3,0.8,0.8c0,0.4-0.3,0.8-0.8,0.8c-0.4,0-0.8-0.3-0.8-0.8
		C1415,668.8,1415.3,668.5,1415.8,668.5z"/>
</g>
<g>
	<path class="st1" d="M1286,909.7c0,0.5,0.1,1.4,1.1,1.4c0.9,0,1.1-0.8,1.1-1.4v-0.9c0-0.1,0.1-0.2,0.2-0.2h2.2c0.1,0,0.2,0,0.2,0.2
		v1.1c0,2.2-1.2,3.7-3.6,3.7c-2.4,0-3.6-1.7-3.6-3.7v-9.7c0-2,1.2-3.7,3.6-3.7c2.6,0,3.6,1.6,3.6,3.7v0.9c0,0.1-0.1,0.2-0.2,0.2
		h-2.2c-0.1,0-0.2,0-0.2-0.2v-0.7c0-0.6-0.2-1.4-1.1-1.4c-1,0-1.1,1-1.1,1.4V909.7z"/>
	<path class="st1" d="M1292.3,913.4c-0.1,0-0.2-0.1-0.2-0.2v-16.4c0-0.1,0.1-0.2,0.2-0.2h2.2c0.1,0,0.2,0.1,0.2,0.2V911h4.6
		c0.1,0,0.2,0.1,0.2,0.2v2c0,0.1-0.1,0.2-0.2,0.2H1292.3z"/>
	<path class="st1" d="M1300.6,913.4c-0.1,0-0.2-0.1-0.2-0.2v-16.4c0-0.1,0.1-0.2,0.2-0.2h2.2c0.1,0,0.2,0.1,0.2,0.2v16.4
		c0,0.1-0.1,0.2-0.2,0.2H1300.6z"/>
	<path class="st1" d="M1307.3,909.7c0,0.5,0.1,1.4,1.1,1.4c0.9,0,1.1-0.8,1.1-1.4v-0.9c0-0.1,0.1-0.2,0.2-0.2h2.2
		c0.1,0,0.2,0,0.2,0.2v1.1c0,2.2-1.2,3.7-3.6,3.7c-2.4,0-3.6-1.7-3.6-3.7v-9.7c0-2,1.2-3.7,3.6-3.7c2.6,0,3.6,1.6,3.6,3.7v0.9
		c0,0.1-0.1,0.2-0.2,0.2h-2.2c-0.1,0-0.2,0-0.2-0.2v-0.7c0-0.6-0.2-1.4-1.1-1.4c-1,0-1.1,1-1.1,1.4V909.7z"/>
	<path class="st1" d="M1318.5,913.4c-0.1,0-0.2-0.1-0.2-0.2l-2.4-6.6v6.6c0,0.1-0.1,0.2-0.2,0.2h-2.2c-0.1,0-0.2-0.1-0.2-0.2v-16.4
		c0-0.1,0.1-0.2,0.2-0.2h2.2c0.1,0,0.2,0.1,0.2,0.2v6.6l2.4-6.6c0-0.1,0.1-0.2,0.2-0.2h2.4c0.1,0,0.2,0.1,0.1,0.2l-2.9,8
		c0,0.1,0,0.2,0,0.4l2.9,8c0.1,0.1,0,0.2-0.1,0.2H1318.5z"/>
	<path class="st1" d="M1330.8,913.4c-0.1,0-0.2-0.1-0.2-0.2l-1.8-7.1v7.1c0,0.1-0.1,0.2-0.2,0.2h-2.2c-0.1,0-0.2-0.1-0.2-0.2v-16.4
		c0-0.1,0.1-0.2,0.2-0.2h3.2c3,0,4,1.3,4,3.8v1.7c0,1.6-0.6,3.1-2.2,3.7l2.1,7.4c0,0.1-0.1,0.2-0.2,0.2H1330.8z M1328.7,899v4.7h0.8
		c1.3,0,1.4-1,1.4-1.6v-1.4c0-0.8-0.2-1.7-1.4-1.7H1328.7z"/>
	<path class="st1" d="M1335.3,913.4c-0.1,0-0.2-0.1-0.2-0.2v-16.4c0-0.1,0.1-0.2,0.2-0.2h2.2c0.1,0,0.2,0.1,0.2,0.2v16.4
		c0,0.1-0.1,0.2-0.2,0.2H1335.3z"/>
	<path class="st1" d="M1343.1,911.1c1,0,1.1-0.8,1.1-1.4v-3.6h-0.9c-0.1,0-0.2-0.1-0.2-0.2v-2c0-0.1,0.1-0.2,0.2-0.2h3.2
		c0.1,0,0.2,0.1,0.2,0.2v6c0,2-1.2,3.7-3.6,3.7c-2.5,0-3.6-1.7-3.6-3.7v-9.7c0-2,1.2-3.7,3.6-3.7c2.6,0,3.6,1.6,3.6,3.7v0.9
		c0,0.1-0.1,0.2-0.2,0.2h-2.2c-0.1,0-0.2,0-0.2-0.2v-0.7c0-0.6-0.2-1.4-1.1-1.4c-1,0-1.1,1-1.1,1.4v9.3
		C1342,910.3,1342.2,911.1,1343.1,911.1z"/>
	<path class="st1" d="M1353.4,913.4c-0.1,0-0.2-0.1-0.2-0.2v-7.1h-2.2v7.1c0,0.1-0.1,0.2-0.2,0.2h-2.2c-0.1,0-0.2-0.1-0.2-0.2v-16.4
		c0-0.1,0.1-0.2,0.2-0.2h2.2c0.1,0,0.2,0.1,0.2,0.2v6.9h2.2v-6.9c0-0.1,0.1-0.2,0.2-0.2h2.2c0.1,0,0.2,0.1,0.2,0.2v16.4
		c0,0.1-0.1,0.2-0.2,0.2H1353.4z"/>
	<path class="st1" d="M1361.8,899v14.2c0,0.1-0.1,0.2-0.2,0.2h-2.2c-0.1,0-0.2-0.1-0.2-0.2V899h-2.2c-0.1,0-0.2-0.1-0.2-0.2v-2
		c0-0.1,0.1-0.2,0.2-0.2h6.9c0.1,0,0.2,0.1,0.2,0.2v2c0,0.1-0.1,0.2-0.2,0.2H1361.8z"/>
	<path class="st1" d="M1371.9,906.1v7.1c0,0.1-0.1,0.2-0.2,0.2h-2.2c-0.1,0-0.2-0.1-0.2-0.2v-16.4c0-0.1,0.1-0.2,0.2-0.2h6.9
		c0.1,0,0.2,0.1,0.2,0.2v2c0,0.1-0.1,0.2-0.2,0.2h-4.6v4.7h3.1c0.1,0,0.2,0.1,0.2,0.2v2c0,0.1-0.1,0.2-0.2,0.2H1371.9z"/>
	<path class="st1" d="M1380.8,913.6c-2.5,0-3.6-1.7-3.6-3.7v-9.7c0-2,1.2-3.7,3.6-3.7c2.6,0,3.6,1.6,3.6,3.7v9.7
		C1384.4,911.9,1383.3,913.6,1380.8,913.6z M1379.7,909.8c0,0.6,0.2,1.4,1.1,1.4c1,0,1.1-0.8,1.1-1.4v-9.6c0-0.6-0.2-1.4-1.1-1.4
		c-1,0-1.1,1-1.1,1.4V909.8z"/>
	<path class="st1" d="M1390.8,913.4c-0.1,0-0.2-0.1-0.2-0.2l-1.8-7.1v7.1c0,0.1-0.1,0.2-0.2,0.2h-2.2c-0.1,0-0.2-0.1-0.2-0.2v-16.4
		c0-0.1,0.1-0.2,0.2-0.2h3.2c3,0,4,1.3,4,3.8v1.7c0,1.6-0.6,3.1-2.2,3.7l2.1,7.4c0,0.1-0.1,0.2-0.2,0.2H1390.8z M1388.8,899v4.7h0.8
		c1.3,0,1.4-1,1.4-1.6v-1.4c0-0.8-0.2-1.7-1.4-1.7H1388.8z"/>
	<path class="st1" d="M1402.2,911.1c1,0,1.1-0.8,1.1-1.4v-1.6c0-1-0.5-1.8-1.7-2.1c-2.2-0.5-3-2.4-3-4.2v-1.6c0-2,1.2-3.7,3.6-3.7
		c2.6,0,3.6,1.6,3.6,3.7v0.9c0,0.1-0.1,0.2-0.2,0.2h-2.2c-0.1,0-0.2,0-0.2-0.2v-0.7c0-0.6-0.2-1.4-1.1-1.4c-1,0-1.1,1-1.1,1.4v1.3
		c0,1,0.5,1.8,1.7,2.1c2.2,0.6,3,2.4,3,4.2v1.9c0,2-1.2,3.7-3.6,3.7s-3.6-1.7-3.6-3.7v-1.1c0-0.1,0.1-0.2,0.2-0.2h2.2
		c0.1,0,0.2,0,0.2,0.2v0.9C1401.1,910.3,1401.3,911.1,1402.2,911.1z"/>
	<path class="st1" d="M1409.6,909.7c0,0.5,0.1,1.4,1.1,1.4c0.9,0,1.1-0.8,1.1-1.4v-0.9c0-0.1,0.1-0.2,0.2-0.2h2.2
		c0.1,0,0.2,0,0.2,0.2v1.1c0,2.2-1.2,3.7-3.6,3.7c-2.4,0-3.6-1.7-3.6-3.7v-9.7c0-2,1.2-3.7,3.6-3.7c2.6,0,3.6,1.6,3.6,3.7v0.9
		c0,0.1-0.1,0.2-0.2,0.2h-2.2c-0.1,0-0.2,0-0.2-0.2v-0.7c0-0.6-0.2-1.4-1.1-1.4c-1,0-1.1,1-1.1,1.4V909.7z"/>
	<path class="st1" d="M1420.3,913.4c-0.1,0-0.2-0.1-0.2-0.2l-1.8-7.1v7.1c0,0.1-0.1,0.2-0.2,0.2h-2.2c-0.1,0-0.2-0.1-0.2-0.2v-16.4
		c0-0.1,0.1-0.2,0.2-0.2h3.2c3,0,4,1.3,4,3.8v1.7c0,1.6-0.6,3.1-2.2,3.7l2.1,7.4c0,0.1-0.1,0.2-0.2,0.2H1420.3z M1418.3,899v4.7h0.8
		c1.3,0,1.4-1,1.4-1.6v-1.4c0-0.8-0.2-1.7-1.4-1.7H1418.3z"/>
	<path class="st1" d="M1424.8,913.4c-0.1,0-0.2-0.1-0.2-0.2v-16.4c0-0.1,0.1-0.2,0.2-0.2h6.9c0.1,0,0.2,0.1,0.2,0.2v2
		c0,0.1-0.1,0.2-0.2,0.2h-4.6v4.7h3.5c0.1,0,0.2,0.1,0.2,0.2v2c0,0.1-0.1,0.2-0.2,0.2h-3.5v4.9h4.6c0.1,0,0.2,0.1,0.2,0.2v2
		c0,0.1-0.1,0.2-0.2,0.2H1424.8z"/>
	<path class="st1" d="M1433.5,913.4c-0.1,0-0.2-0.1-0.2-0.2v-16.4c0-0.1,0.1-0.2,0.2-0.2h6.9c0.1,0,0.2,0.1,0.2,0.2v2
		c0,0.1-0.1,0.2-0.2,0.2h-4.6v4.7h3.5c0.1,0,0.2,0.1,0.2,0.2v2c0,0.1-0.1,0.2-0.2,0.2h-3.5v4.9h4.6c0.1,0,0.2,0.1,0.2,0.2v2
		c0,0.1-0.1,0.2-0.2,0.2H1433.5z"/>
	<path class="st1" d="M1447.1,913.4c-0.1,0-0.2-0.1-0.2-0.2l-2.3-7.9v7.9c0,0.1-0.1,0.2-0.2,0.2h-2.1c-0.1,0-0.2-0.1-0.2-0.2v-16.4
		c0-0.1,0.1-0.2,0.2-0.2h2.2c0.1,0,0.2,0.1,0.2,0.2l2.3,7.9v-7.9c0-0.1,0.1-0.2,0.2-0.2h2.1c0.1,0,0.2,0.1,0.2,0.2v16.4
		c0,0.1-0.1,0.2-0.2,0.2H1447.1z"/>
	<path class="st1" d="M1454.6,911.1c1,0,1.1-0.8,1.1-1.4v-1.6c0-1-0.5-1.8-1.7-2.1c-2.2-0.5-3-2.4-3-4.2v-1.6c0-2,1.2-3.7,3.6-3.7
		c2.6,0,3.6,1.6,3.6,3.7v0.9c0,0.1-0.1,0.2-0.2,0.2h-2.2c-0.1,0-0.2,0-0.2-0.2v-0.7c0-0.6-0.2-1.4-1.1-1.4c-1,0-1.1,1-1.1,1.4v1.3
		c0,1,0.5,1.8,1.7,2.1c2.2,0.6,3,2.4,3,4.2v1.9c0,2-1.2,3.7-3.6,3.7s-3.6-1.7-3.6-3.7v-1.1c0-0.1,0.1-0.2,0.2-0.2h2.2
		c0.1,0,0.2,0,0.2,0.2v0.9C1453.5,910.3,1453.7,911.1,1454.6,911.1z"/>
	<path class="st1" d="M1464.8,913.4c-0.1,0-0.2-0.1-0.2-0.2v-7.1h-2.2v7.1c0,0.1-0.1,0.2-0.2,0.2h-2.2c-0.1,0-0.2-0.1-0.2-0.2v-16.4
		c0-0.1,0.1-0.2,0.2-0.2h2.2c0.1,0,0.2,0.1,0.2,0.2v6.9h2.2v-6.9c0-0.1,0.1-0.2,0.2-0.2h2.2c0.1,0,0.2,0.1,0.2,0.2v16.4
		c0,0.1-0.1,0.2-0.2,0.2H1464.8z"/>
	<path class="st1" d="M1472.6,913.6c-2.5,0-3.6-1.7-3.6-3.7v-9.7c0-2,1.2-3.7,3.6-3.7c2.6,0,3.6,1.6,3.6,3.7v9.7
		C1476.3,911.9,1475.1,913.6,1472.6,913.6z M1471.5,909.8c0,0.6,0.2,1.4,1.1,1.4c1,0,1.1-0.8,1.1-1.4v-9.6c0-0.6-0.2-1.4-1.1-1.4
		c-1,0-1.1,1-1.1,1.4V909.8z"/>
	<path class="st1" d="M1481.7,899v14.2c0,0.1-0.1,0.2-0.2,0.2h-2.2c-0.1,0-0.2-0.1-0.2-0.2V899h-2.2c-0.1,0-0.2-0.1-0.2-0.2v-2
		c0-0.1,0.1-0.2,0.2-0.2h6.9c0.1,0,0.2,0.1,0.2,0.2v2c0,0.1-0.1,0.2-0.2,0.2H1481.7z"/>
	<path class="st1" d="M1488,911.1c1,0,1.1-0.8,1.1-1.4v-1.6c0-1-0.5-1.8-1.7-2.1c-2.2-0.5-3-2.4-3-4.2v-1.6c0-2,1.2-3.7,3.6-3.7
		c2.6,0,3.6,1.6,3.6,3.7v0.9c0,0.1-0.1,0.2-0.2,0.2h-2.2c-0.1,0-0.2,0-0.2-0.2v-0.7c0-0.6-0.2-1.4-1.1-1.4c-1,0-1.1,1-1.1,1.4v1.3
		c0,1,0.5,1.8,1.7,2.1c2.2,0.6,3,2.4,3,4.2v1.9c0,2-1.2,3.7-3.6,3.7s-3.6-1.7-3.6-3.7v-1.1c0-0.1,0.1-0.2,0.2-0.2h2.2
		c0.1,0,0.2,0,0.2,0.2v0.9C1486.8,910.3,1487,911.1,1488,911.1z"/>
</g>
<path class="st2" d="M1502.7,930.5h-234.4c-12.6,0-22.8-10.2-22.8-22.8v-8.4c0-12.6,10.2-22.8,22.8-22.8h234.4
	c12.6,0,22.8,10.2,22.8,22.8v8.4C1525.5,920.3,1515.3,930.5,1502.7,930.5z"/>
<g>
	<defs>
		<rect id="SVGID_1_" x="739" width="500" height="437"/>
	</defs>
	<clipPath id="SVGID_2_">
		<use xlink:href="#SVGID_1_"  style="overflow:visible;"/>
	</clipPath>
	<g style="clip-path:url(#SVGID_2_);">
		
			<image style="overflow:visible;" width="263" height="189" xlink:href="newlogotp.png"  transform="matrix(1.1601 0 0 1.1601 902 75)">
		</image>
	</g>
</g>
<path class="st1" d="M1052.9,323H176.8c-23.2,0-42,18.8-42,42v590.4h960.2V365C1094.9,341.8,1076.1,323,1052.9,323z"/>
<path class="st3" d="M38.1,949.4c0,22.6,18.8,41,42,41H1148c23.2,0,42-18.4,42-41H38.1z"/>
<rect x="176.1" y="398.6" class="st4" width="878.2" height="550.5"/>
<path class="st5" d="M511.5,949.4c0,9.9,7.7,17.9,17.1,17.9h170.8c9.4,0,17.1-8,17.1-17.9H511.5z"/>
<rect x="176" y="397" class="st6" width="878" height="32"/>
<ellipse class="st7" cx="192.3" cy="413" rx="9.6" ry="10"/>
<rect x="239.3" y="439" class="st8" width="666.2" height="17"/>
<g>
	<defs>
		<rect id="SVGID_3_" x="176" y="468.8" width="878" height="480.2"/>
	</defs>
	<clipPath id="SVGID_4_">
		<use xlink:href="#SVGID_3_"  style="overflow:visible;"/>
	</clipPath>
	<g style="clip-path:url(#SVGID_4_);">
		
			<image style="overflow:visible;" width="2503" height="1408" xlink:href="pneuma1.png"  transform="matrix(0.3508 0 0 0.3508 176 454.1753)">
		</image>
	</g>
</g>
</svg>
