<svg id="Layer_1" data-name="Layer 1" xmlns="http://www.w3.org/2000/svg" xmlns:xlink="http://www.w3.org/1999/xlink" viewBox="0 0 1920 1080"><defs><clipPath id="clip-path"><rect x="739" width="500" height="437" fill="none"/></clipPath><clipPath id="clip-path-2"><rect x="176" y="468.84" width="878" height="480.16" fill="none"/></clipPath></defs><title>Pneuma1</title><rect width="1920" height="1080" fill="#fefff6"/><text transform="translate(1244.78 476.1)" font-size="33" fill="#3d3836" font-family="KomuB, Komu">Pneuma Website Initial D<tspan x="256.44" y="0" letter-spacing="-0.01em">e</tspan><tspan x="268.15" y="0">sign</tspan></text><text transform="translate(1245.78 432.2)" font-size="56" fill="#3d3836" font-family="KomuB, Komu">Web D<tspan x="106.12" y="0" letter-spacing="-0.01em">e</tspan><tspan x="126" y="0">sign</tspan></text><text transform="translate(1245 533)" font-size="19" fill="#3d3836" font-family="BrandonGrotesque-Light, Brandon Grotesque"><tspan letter-spacing="-0.01em">T</tspan><tspan x="8.82" y="0">his was an initial design </tspan><tspan x="0" y="22.8">for a clothing website.</tspan><tspan x="0" y="68.4" letter-spacing="-0.07em">T</tspan><tspan x="7.64" y="68.4">o c</tspan><tspan x="29.87" y="68.4" letter-spacing="0em">r</tspan><tspan x="35.97" y="68.4">eate the design for the website </tspan><tspan x="0" y="91.2" xml:space="preserve">I used  Adobe </tspan><tspan x="104.92" y="91.2" letter-spacing="-0.01em">P</tspan><tspan x="116.05" y="91.2" letter-spacing="0em">hotoshop.</tspan><tspan x="0" y="136.8" letter-spacing="-0.01em">T</tspan><tspan x="8.82" y="136.8">he font used was Lato.</tspan></text><text transform="translate(1282.78 913.42)" font-size="24" fill="#3d3836" font-family="KomuB, Komu">Click right <tspan x="85.49" y="0" letter-spacing="0em">f</tspan><tspan x="93.65" y="0">or screensh</tspan><tspan x="185.47" y="0" letter-spacing="-0.01em">ot</tspan><tspan x="201.04" y="0">s</tspan></text><rect x="1245.5" y="876.5" width="280" height="54" rx="22.8" ry="22.8" fill="none" stroke="#3d3836" stroke-miterlimit="10" stroke-width="3"/><g clip-path="url(#clip-path)"><image width="500" height="500" transform="translate(739 -63)" xlink:href="../../PNEUMA/images/newlogo.jpg"/></g><path d="M1052.91,323H176.76a42,42,0,0,0-42,42V955.42h960.18V365A42,42,0,0,0,1052.91,323Z" fill="#3d3836"/><path d="M38.05,949.42c0,22.59,18.85,41,42,41H1148c23.17,0,42-18.38,42-41Z" fill="#686665"/><rect x="176.05" y="398.62" width="878.25" height="550.51" fill="#e6e6e6"/><path d="M511.51,949.42c0,9.88,7.67,17.92,17.09,17.92H699.45c9.42,0,17.09-8,17.09-17.92Z" fill="#9b9998"/><rect x="176" y="397" width="878" height="32" fill="#b3b3b3"/><ellipse cx="192.29" cy="413" rx="9.59" ry="10" fill="#931111"/><rect x="239.26" y="439" width="666.17" height="17" fill="#fff"/><g clip-path="url(#clip-path-2)"><image width="2560" height="1600" transform="translate(176 400.25) scale(0.34)" xlink:href="../../Portfolio/summer work/websites/designs/Pneuma/Screen Shot 2017-06-13 at 04.20.05.png"/></g></svg>