<svg id="Layer_1" data-name="Layer 1" xmlns="http://www.w3.org/2000/svg" xmlns:xlink="http://www.w3.org/1999/xlink" viewBox="0 0 1920 1080"><defs><clipPath id="clip-path"><rect x="124" y="489.73" width="1062" height="583.27" fill="none"/></clipPath></defs><title>Pneuma1</title><rect width="1920" height="1080" fill="#fefff6"/><path d="M1185.14,314.88H124.6a50.86,50.86,0,0,0-50.86,50.86v714.68H1236V365.74A50.86,50.86,0,0,0,1185.14,314.88Z" fill="#3d3836"/><rect x="123.75" y="406.43" width="1063.08" height="666.36" fill="#e6e6e6"/><rect x="123.68" y="404.48" width="1062.78" height="38.73" fill="#b3b3b3"/><ellipse cx="143.41" cy="423.85" rx="11.6" ry="12.1" fill="#931111"/><rect x="200.26" y="455.32" width="806.37" height="20.58" fill="#fff"/><g clip-path="url(#clip-path)"><image width="2560" height="1600" transform="translate(124 409.25) scale(0.41 0.41)" xlink:href="../../Portfolio/summer work/websites/designs/Pneuma/Screen Shot 2017-06-13 at 04.20.14.png"/></g><text transform="translate(1287 452)" font-size="19" fill="#3d3836" font-family="BrandonGrotesque-Light, Brandon Grotesque">I did<tspan x="31.25" y="0" letter-spacing="-0.04em">n</tspan><tspan x="39.99" y="0" letter-spacing="0em">’t design </tspan><tspan x="0" y="22.8">the logo but I designed </tspan><tspan x="0" y="45.6">the poster using </tspan><tspan x="122" y="45.6" letter-spacing="-0.01em">P</tspan><tspan x="133.13" y="45.6">hotoshop.</tspan><tspan x="0" y="91.2">I made su</tspan><tspan x="70.15" y="91.2" letter-spacing="0em">r</tspan><tspan x="76.25" y="91.2">e </tspan><tspan x="0" y="114">that the banne</tspan><tspan x="107.82" y="114" letter-spacing="-0.01em">r</tspan><tspan x="113.75" y="114">’s theme</tspan><tspan x="0" y="136.8">was consistent with the logo.</tspan></text></svg>