<svg id="Layer_1" data-name="Layer 1" xmlns="http://www.w3.org/2000/svg" xmlns:xlink="http://www.w3.org/1999/xlink" viewBox="0 0 1920 1080"><defs><clipPath id="clip-path"><rect x="757" y="490.56" width="1062" height="582.44" fill="none"/></clipPath></defs><title>Pneuma1</title><rect width="1920" height="1080" fill="#fefff6"/><path d="M1818.14,314.88H757.6a50.86,50.86,0,0,0-50.86,50.86v714.68H1869V365.74A50.86,50.86,0,0,0,1818.14,314.88Z" fill="#3d3836"/><rect x="756.75" y="406.43" width="1063.08" height="666.36" fill="#e6e6e6"/><rect x="756.68" y="404.48" width="1062.78" height="38.73" fill="#b3b3b3"/><ellipse cx="776.41" cy="423.85" rx="11.6" ry="12.1" fill="#931111"/><rect x="833.26" y="455.32" width="806.37" height="20.58" fill="#fff"/><g clip-path="url(#clip-path)"><image width="2560" height="1600" transform="translate(757 409.25) scale(0.41 0.41)" xlink:href="../../Portfolio/summer work/websites/designs/Pneuma/Screen Shot 2017-06-13 at 04.20.19.png"/></g><text transform="translate(72 116)" font-size="19" fill="#3d3836" font-family="BrandonGrotesque-Light, Brandon Grotesque">I also included their <tspan x="146.22" y="0" letter-spacing="-0.01em">I</tspan><tspan x="150.9" y="0">nstagram </tspan><tspan x="223.36" y="0" letter-spacing="-0.03em">F</tspan><tspan x="233.6" y="0" letter-spacing="0em">eed</tspan><tspan x="0" y="22.8">and a way for their users to enter</tspan><tspan x="0" y="45.6">their email to be added to their mailing list.</tspan><tspan font-family="NiveauGroteskRegular, Niveau Grotesk"><tspan x="0" y="68.4"> </tspan></tspan></text></svg>