<?xml version="1.0" encoding="utf-8"?>
<!-- Generator: Adobe Illustrator 21.0.0, SVG Export Plug-In . SVG Version: 6.00 Build 0)  -->
<svg version="1.1" id="Layer_1" xmlns="http://www.w3.org/2000/svg" xmlns:xlink="http://www.w3.org/1999/xlink" x="0px" y="0px"
	 viewBox="0 0 1920 1080" style="enable-background:new 0 0 1920 1080;" xml:space="preserve">
<style type="text/css">
	.st0{fill:#FEFFF6;}
	.st1{fill:none;}
	.st2{fill:#3D3836;}
	.st3{font-family:'KomuB';}
	.st4{font-size:33px;}
	.st5{font-size:56px;}
	.st6{font-family:'BrandonGrotesque-Light';}
	.st7{font-size:19px;}
	.st8{font-size:24px;}
	.st9{fill:none;stroke:#3D3836;stroke-width:3;stroke-miterlimit:10;}
	.st10{fill:#686665;}
	.st11{fill:#E6E6E6;}
	.st12{fill:#9B9998;}
	.st13{fill:#B3B3B3;}
	.st14{fill:#931111;}
	.st15{fill:#FFFFFF;}
</style>
<rect class="st0" width="1920" height="1080"/>
<rect x="1244.8" y="453" class="st1" width="541.2" height="32"/>
<text transform="matrix(1 0 0 1 1244.7773 476.1001)" class="st2 st3 st4">Pneuma Website Initial Design</text>
<rect x="1245.8" y="393" class="st1" width="437.7" height="41"/>
<text transform="matrix(1 0 0 1 1245.7773 432.1997)" class="st2 st3 st5">Web Design</text>
<text transform="matrix(1 0 0 1 1245 533)"><tspan x="0" y="0" class="st2 st6 st7">This was an initial design </tspan><tspan x="0" y="22.8" class="st2 st6 st7">for a clothing website.</tspan><tspan x="0" y="68.4" class="st2 st6 st7">To create the design for the website </tspan><tspan x="0" y="91.2" class="st2 st6 st7">I used  Adobe Photoshop.</tspan><tspan x="0" y="136.8" class="st2 st6 st7">The font used was Lato.</tspan></text>
<rect x="1282.8" y="896.6" class="st1" width="288.2" height="19.7"/>
<text transform="matrix(1 0 0 1 1282.7773 913.417)" class="st2 st3 st8">Click right for screenshots</text>
<path class="st9" d="M1502.7,930.5h-234.4c-12.6,0-22.8-10.2-22.8-22.8v-8.4c0-12.6,10.2-22.8,22.8-22.8h234.4
	c12.6,0,22.8,10.2,22.8,22.8v8.4C1525.5,920.3,1515.3,930.5,1502.7,930.5z"/>
<g>
	<defs>
		<rect id="SVGID_1_" x="739" width="500" height="437"/>
	</defs>
	<clipPath id="SVGID_2_">
		<use xlink:href="#SVGID_1_"  style="overflow:visible;"/>
	</clipPath>
	<g style="clip-path:url(#SVGID_2_);">
		
			<image style="overflow:visible;" width="263" height="189" xlink:href="newlogotp.png"  transform="matrix(1.1601 0 0 1.1601 902 75)">
		</image>
	</g>
</g>
<path class="st2" d="M1052.9,323H176.8c-23.2,0-42,18.8-42,42v590.4h960.2V365C1094.9,341.8,1076.1,323,1052.9,323z"/>
<path class="st10" d="M38.1,949.4c0,22.6,18.8,41,42,41H1148c23.2,0,42-18.4,42-41H38.1z"/>
<rect x="176.1" y="398.6" class="st11" width="878.2" height="550.5"/>
<path class="st12" d="M511.5,949.4c0,9.9,7.7,17.9,17.1,17.9h170.8c9.4,0,17.1-8,17.1-17.9H511.5z"/>
<rect x="176" y="397" class="st13" width="878" height="32"/>
<ellipse class="st14" cx="192.3" cy="413" rx="9.6" ry="10"/>
<rect x="239.3" y="439" class="st15" width="666.2" height="17"/>
<g>
	<defs>
		<rect id="SVGID_3_" x="176" y="468.8" width="878" height="480.2"/>
	</defs>
	<clipPath id="SVGID_4_">
		<use xlink:href="#SVGID_3_"  style="overflow:visible;"/>
	</clipPath>
	<g style="clip-path:url(#SVGID_4_);">
		
			<image style="overflow:visible;" width="2503" height="1408" xlink:href="pneuma1.png"  transform="matrix(0.3508 0 0 0.3508 176 454.1753)">
		</image>
	</g>
</g>
</svg>
