<?xml version="1.0" encoding="utf-8"?>
<!-- Generator: Adobe Illustrator 21.0.0, SVG Export Plug-In . SVG Version: 6.00 Build 0)  -->
<svg version="1.1" id="Layer_1" xmlns="http://www.w3.org/2000/svg" xmlns:xlink="http://www.w3.org/1999/xlink" x="0px" y="0px"
	 viewBox="0 0 1920 1080" style="enable-background:new 0 0 1920 1080;" xml:space="preserve">
<style type="text/css">
	.st0{fill:#FEFFF6;}
	.st1{fill:#3D3836;}
	.st2{fill:none;stroke:#3D3836;stroke-width:3;stroke-miterlimit:10;}
	.st3{fill:#686665;}
	.st4{fill:#E6E6E6;}
	.st5{fill:#9B9998;}
	.st6{fill:#B3B3B3;}
	.st7{fill:#931111;}
	.st8{fill:#FFFFFF;}
</style>
<rect class="st0" width="1920" height="1080"/>
<path class="st1" d="M1818.1,314.9H757.6c-28.1,0-50.9,22.8-50.9,50.9v714.7H1869V365.7C1869,337.7,1846.2,314.9,1818.1,314.9z"/>
<rect x="756.7" y="406.4" class="st4" width="1063.1" height="666.4"/>
<rect x="756.7" y="404.5" class="st6" width="1062.8" height="38.7"/>
<ellipse class="st7" cx="776.4" cy="423.8" rx="11.6" ry="12.1"/>
<rect x="833.3" y="455.3" class="st8" width="806.4" height="20.6"/>
<g>
	<defs>
		<rect id="SVGID_7_" x="757" y="490.6" width="1062" height="582.4"/>
	</defs>
	<clipPath id="SVGID_2_">
		<use xlink:href="#SVGID_7_"  style="overflow:visible;"/>
	</clipPath>
	<g style="clip-path:url(#SVGID_2_);">
		
			<image style="overflow:visible;" width="2560" height="1600" xlink:href="Screen Shot 2017-06-13 at 04.20.19.png"  transform="matrix(0.4148 0 0 0.4148 757 409.25)">
		</image>
	</g>
</g>
<g>
	<path class="st1" d="M74,102.9c0-0.1,0.1-0.2,0.2-0.2h0.4c0.1,0,0.2,0.1,0.2,0.2v12.8c0,0.2-0.1,0.2-0.3,0.2h-0.4
		c-0.1,0-0.2-0.1-0.2-0.2V102.9z"/>
	<path class="st1" d="M85.1,111.1c0.9,0,1.7,0.3,1.9,0.3c0-1.7-0.2-2.5-1.7-2.5c-1.3,0-2.1,0.5-2.3,0.5c-0.2,0.1-0.2,0-0.3-0.2
		l-0.1-0.2c-0.1-0.2,0-0.2,0.1-0.3c0.1,0,1-0.6,2.6-0.6c2.3,0,2.4,1.4,2.4,3.3v4.2c0,0.1-0.1,0.2-0.2,0.2h-0.2
		c-0.1,0-0.2-0.1-0.2-0.2l-0.1-0.7c-0.5,0.5-1.4,1.1-2.6,1.1c-1.4,0-2.5-1-2.5-2.5C81.9,112.2,83.1,111.1,85.1,111.1z M84.5,115.4
		c1.2,0,2.2-0.7,2.5-1.2v-2.1c-0.2-0.1-1-0.4-1.9-0.4c-1.4,0-2.4,0.7-2.4,1.9C82.7,114.7,83.4,115.4,84.5,115.4z"/>
	<path class="st1" d="M90.6,102.9c0-0.1,0.1-0.2,0.2-0.2h0.3c0.1,0,0.2,0.1,0.2,0.2v12.8c0,0.2-0.1,0.2-0.2,0.2h-0.4
		c-0.1,0-0.2-0.1-0.2-0.2V102.9z"/>
	<path class="st1" d="M93.9,115.1l0.2-0.3c0.1-0.1,0.2-0.1,0.3,0c0.2,0.2,1,0.7,2,0.7c1.1,0,1.8-0.6,1.8-1.3c0-0.9-0.9-1.2-2.1-1.7
		c-1.3-0.5-2.3-1.1-2.3-2.2c0-0.8,0.7-2,2.5-2c1,0,1.8,0.4,2.1,0.6c0.1,0.1,0.2,0.2,0.1,0.4l-0.1,0.2c-0.1,0.1-0.2,0.2-0.4,0.1
		c-0.2-0.1-0.9-0.5-1.7-0.5c-1.2,0-1.6,0.7-1.6,1.2c0,0.8,0.7,1.1,1.8,1.5c1.4,0.5,2.7,1,2.7,2.4c0,1.1-1.2,2.1-2.7,2.1
		c-1.3,0-2.1-0.5-2.5-0.9C93.9,115.3,93.8,115.2,93.9,115.1z"/>
	<path class="st1" d="M104.6,108.2c2.1,0,3.8,1.8,3.8,4c0,2.2-1.7,4-3.8,4c-2.1,0-3.8-1.8-3.8-4C100.8,110,102.5,108.2,104.6,108.2z
		 M104.6,115.4c1.7,0,3-1.4,3-3.2c0-1.7-1.3-3.2-3-3.2c-1.7,0-3,1.4-3,3.2C101.6,114,102.9,115.4,104.6,115.4z"/>
	<path class="st1" d="M114.7,104.1c0-0.4,0.3-0.7,0.6-0.7c0.4,0,0.6,0.3,0.6,0.7c0,0.3-0.3,0.6-0.6,0.6
		C114.9,104.7,114.7,104.4,114.7,104.1z M114.9,108.6c0-0.1,0.1-0.2,0.2-0.2h0.3c0.1,0,0.2,0.1,0.2,0.2v7.1c0,0.2-0.1,0.2-0.2,0.2
		h-0.4c-0.1,0-0.2-0.1-0.2-0.2V108.6z"/>
	<path class="st1" d="M118.6,108.6c0-0.1,0.1-0.2,0.3-0.2h0.2c0.1,0,0.2,0.1,0.2,0.2l0.1,0.8c0.2-0.3,1.3-1.2,2.8-1.2
		c2.1,0,3.1,1.3,3.1,3.5v4.1c0,0.1-0.1,0.2-0.2,0.2h-0.3c-0.1,0-0.2-0.1-0.2-0.2v-4.1c0-1.7-0.8-2.7-2.3-2.7c-1.6,0-2.6,1.2-2.7,1.3
		v5.4c0,0.2-0.1,0.2-0.2,0.2h-0.4c-0.1,0-0.2-0.1-0.2-0.2V108.6z"/>
	<path class="st1" d="M131.4,108.2c1.5,0,2.5,0.8,2.8,1.2c0.1,0.1,0.1,0.2,0,0.3l-0.2,0.2c-0.1,0.1-0.3,0.1-0.4,0
		c-0.2-0.2-1-0.9-2.2-0.9c-1.7,0-3.1,1.3-3.1,3.2c0,1.8,1.4,3.2,3.1,3.2c1.4,0,2.2-0.9,2.4-1.1c0.1-0.2,0.2-0.2,0.4,0l0.2,0.2
		c0.1,0.1,0.1,0.2,0.1,0.3c-0.3,0.5-1.4,1.5-3,1.5c-2.1,0-4-1.7-4-4C127.4,109.9,129.3,108.2,131.4,108.2z"/>
	<path class="st1" d="M136.7,102.9c0-0.1,0.1-0.2,0.2-0.2h0.3c0.1,0,0.2,0.1,0.2,0.2v12.8c0,0.2-0.1,0.2-0.2,0.2h-0.4
		c-0.1,0-0.2-0.1-0.2-0.2V102.9z"/>
	<path class="st1" d="M140.3,108.6c0-0.1,0.1-0.2,0.2-0.2h0.3c0.1,0,0.2,0.1,0.2,0.2v4.1c0,1.8,0.8,2.7,2.3,2.7
		c1.6,0,2.5-1.2,2.5-1.3v-5.4c0-0.2,0.1-0.2,0.2-0.2h0.3c0.1,0,0.2,0.1,0.2,0.2v7.1c0,0.1-0.1,0.2-0.2,0.2h-0.2
		c-0.2,0-0.2-0.1-0.2-0.2L146,115c-0.2,0.3-1.1,1.2-2.6,1.2c-2.1,0-3-1.3-3-3.5V108.6z"/>
	<path class="st1" d="M152.9,108.2c1.4,0,2.3,0.8,2.3,0.8v-6c0-0.1,0.1-0.2,0.2-0.2h0.3c0.1,0,0.2,0.1,0.2,0.2v12.8
		c0,0.1-0.1,0.2-0.2,0.2h-0.2c-0.2,0-0.2-0.1-0.3-0.2l-0.1-0.7c-0.2,0.2-1.2,1.1-2.6,1.1c-2,0-3.5-1.8-3.5-4
		C149.1,110,150.7,108.2,152.9,108.2z M152.7,115.4c1.7,0,2.5-1.3,2.5-1.3v-4.3c0,0-0.9-0.8-2.3-0.8c-1.7,0-3,1.4-3,3.2
		C150,114,151.1,115.4,152.7,115.4z"/>
	<path class="st1" d="M162.1,108.2c2,0,3.4,1.5,3.4,3.5c0,0.3,0,0.7-0.3,0.7h-6.1c0.1,1.6,1.3,3,3,3c1,0,1.8-0.4,2.2-0.7
		c0.2-0.1,0.2-0.1,0.3,0l0.2,0.3c0.1,0.1,0,0.2-0.1,0.3c-0.4,0.4-1.6,0.9-2.8,0.9c-2.3,0-3.7-1.8-3.7-4
		C158.4,110,159.8,108.2,162.1,108.2z M164.7,111.7c0-1.5-0.9-2.8-2.6-2.8c-1.7,0-2.8,1.2-2.9,2.8H164.7z"/>
	<path class="st1" d="M171,108.2c1.4,0,2.3,0.8,2.3,0.8v-6c0-0.1,0.1-0.2,0.2-0.2h0.3c0.1,0,0.2,0.1,0.2,0.2v12.8
		c0,0.1-0.1,0.2-0.2,0.2h-0.2c-0.2,0-0.2-0.1-0.3-0.2l-0.1-0.7c-0.2,0.2-1.2,1.1-2.6,1.1c-2,0-3.5-1.8-3.5-4
		C167.2,110,168.8,108.2,171,108.2z M170.8,115.4c1.7,0,2.5-1.3,2.5-1.3v-4.3c0,0-0.9-0.8-2.3-0.8c-1.7,0-3,1.4-3,3.2
		C168.1,114,169.2,115.4,170.8,115.4z"/>
	<path class="st1" d="M181.5,109.1h-0.9c-0.2,0-0.2-0.1-0.2-0.2v-0.3c0-0.1,0.1-0.2,0.2-0.2h0.9v-2.1c0-0.2,0.1-0.2,0.2-0.2l0.3,0
		c0.1,0,0.2,0.1,0.2,0.2v2.1h2.6c0.2,0,0.2,0.1,0.2,0.2v0.2c0,0.2-0.1,0.2-0.2,0.2h-2.6v4.8c0,0.9,0.1,1.4,1,1.4
		c0.7,0,1.5-0.4,1.7-0.5c0.2-0.1,0.2,0,0.3,0.1l0.1,0.2c0.1,0.1,0.1,0.2-0.1,0.3c-0.3,0.2-1.1,0.7-2.2,0.7c-1.6,0-1.7-0.9-1.7-2.1
		V109.1z"/>
	<path class="st1" d="M187.4,102.9c0-0.1,0.1-0.2,0.3-0.2h0.3c0.1,0,0.2,0.1,0.2,0.2v6.5c0.2-0.2,1.3-1.2,2.8-1.2
		c2,0,3.1,1.2,3.1,3.5v4.1c0,0.1-0.1,0.2-0.2,0.2h-0.3c-0.1,0-0.2-0.1-0.2-0.2v-4.1c0-1.7-0.8-2.7-2.3-2.7c-1.6,0-2.6,1.2-2.7,1.3
		v5.4c0,0.2-0.1,0.2-0.2,0.2h-0.4c-0.1,0-0.2-0.1-0.2-0.2V102.9z"/>
	<path class="st1" d="M200,108.2c2,0,3.4,1.5,3.4,3.5c0,0.3,0,0.7-0.3,0.7h-6.1c0.1,1.6,1.3,3,3,3c1,0,1.8-0.4,2.2-0.7
		c0.2-0.1,0.2-0.1,0.3,0l0.2,0.3c0.1,0.1,0,0.2-0.1,0.3c-0.4,0.4-1.6,0.9-2.8,0.9c-2.3,0-3.7-1.8-3.7-4
		C196.2,110,197.7,108.2,200,108.2z M202.6,111.7c0-1.5-0.9-2.8-2.6-2.8c-1.7,0-2.8,1.2-2.9,2.8H202.6z"/>
	<path class="st1" d="M205.4,104.1c0-0.4,0.3-0.7,0.6-0.7c0.4,0,0.6,0.3,0.6,0.7c0,0.3-0.3,0.6-0.6,0.6
		C205.7,104.7,205.4,104.4,205.4,104.1z M205.7,108.6c0-0.1,0.1-0.2,0.2-0.2h0.3c0.1,0,0.2,0.1,0.2,0.2v7.1c0,0.2-0.1,0.2-0.2,0.2
		h-0.4c-0.1,0-0.2-0.1-0.2-0.2V108.6z"/>
	<path class="st1" d="M209.4,108.6c0-0.1,0.1-0.2,0.2-0.2h0.2c0.1,0,0.2,0.1,0.2,0.2l0.1,0.8c0.2-0.3,1-1.2,2.4-1.2
		c0.6,0,1,0.2,1.2,0.2c0.2,0.1,0.3,0.2,0.2,0.3l-0.2,0.4c-0.1,0.1-0.2,0.2-0.3,0.1c-0.1,0-0.5-0.2-1-0.2c-1.5,0-2.2,1.2-2.3,1.3v5.4
		c0,0.2-0.1,0.2-0.2,0.2h-0.4c-0.1,0-0.2-0.1-0.2-0.2V108.6z"/>
	<path class="st1" d="M220.2,102.9c0-0.1,0.1-0.2,0.2-0.2h0.4c0.1,0,0.2,0.1,0.2,0.2v12.8c0,0.2-0.1,0.2-0.3,0.2h-0.4
		c-0.1,0-0.2-0.1-0.2-0.2V102.9z"/>
	<path class="st1" d="M224.3,108.6c0-0.1,0.1-0.2,0.3-0.2h0.2c0.1,0,0.2,0.1,0.2,0.2l0.1,0.8c0.2-0.3,1.3-1.2,2.8-1.2
		c2.1,0,3.1,1.3,3.1,3.5v4.1c0,0.1-0.1,0.2-0.2,0.2h-0.3c-0.1,0-0.2-0.1-0.2-0.2v-4.1c0-1.7-0.8-2.7-2.3-2.7c-1.6,0-2.6,1.2-2.7,1.3
		v5.4c0,0.2-0.1,0.2-0.2,0.2h-0.4c-0.1,0-0.2-0.1-0.2-0.2V108.6z"/>
	<path class="st1" d="M233.3,115.1l0.2-0.3c0.1-0.1,0.2-0.1,0.3,0c0.2,0.2,1,0.7,2,0.7c1.1,0,1.8-0.6,1.8-1.3c0-0.9-0.9-1.2-2.1-1.7
		c-1.3-0.5-2.3-1.1-2.3-2.2c0-0.8,0.7-2,2.5-2c1,0,1.8,0.4,2.1,0.6c0.1,0.1,0.2,0.2,0.1,0.4l-0.1,0.2c-0.1,0.1-0.2,0.2-0.4,0.1
		c-0.2-0.1-0.9-0.5-1.7-0.5c-1.2,0-1.6,0.7-1.6,1.2c0,0.8,0.7,1.1,1.8,1.5c1.4,0.5,2.7,1,2.7,2.4c0,1.1-1.2,2.1-2.7,2.1
		c-1.3,0-2.1-0.5-2.5-0.9C233.3,115.3,233.3,115.2,233.3,115.1z"/>
	<path class="st1" d="M241.1,109.1h-0.9c-0.2,0-0.2-0.1-0.2-0.2v-0.3c0-0.1,0.1-0.2,0.2-0.2h0.9v-2.1c0-0.2,0.1-0.2,0.2-0.2l0.3,0
		c0.1,0,0.2,0.1,0.2,0.2v2.1h2.6c0.2,0,0.2,0.1,0.2,0.2v0.2c0,0.2-0.1,0.2-0.2,0.2h-2.6v4.8c0,0.9,0.1,1.4,1,1.4
		c0.7,0,1.5-0.4,1.7-0.5c0.2-0.1,0.2,0,0.3,0.1l0.1,0.2c0.1,0.1,0.1,0.2-0.1,0.3c-0.3,0.2-1.1,0.7-2.2,0.7c-1.6,0-1.7-0.9-1.7-2.1
		V109.1z"/>
	<path class="st1" d="M249.6,111.1c0.9,0,1.7,0.3,1.9,0.3c0-1.7-0.2-2.5-1.7-2.5c-1.3,0-2.1,0.5-2.3,0.5c-0.2,0.1-0.2,0-0.3-0.2
		l-0.1-0.2c-0.1-0.2,0-0.2,0.1-0.3c0.1,0,1-0.6,2.6-0.6c2.3,0,2.4,1.4,2.4,3.3v4.2c0,0.1-0.1,0.2-0.2,0.2h-0.2
		c-0.1,0-0.2-0.1-0.2-0.2l-0.1-0.7c-0.5,0.5-1.4,1.1-2.6,1.1c-1.4,0-2.5-1-2.5-2.5C246.4,112.2,247.6,111.1,249.6,111.1z M249,115.4
		c1.2,0,2.2-0.7,2.5-1.2v-2.1c-0.2-0.1-1-0.4-1.9-0.4c-1.4,0-2.4,0.7-2.4,1.9C247.2,114.7,248,115.4,249,115.4z"/>
	<path class="st1" d="M255.6,113.3c-0.2-0.3-0.6-1-0.6-1.9c0-1.8,1.3-3.2,3.3-3.2c0.5,0,0.5,0,3.1,0c0.2,0,0.2,0.1,0.2,0.2v0.2
		c0,0.1-0.1,0.2-0.2,0.2l-1.4,0.1c0.4,0.2,1.2,0.9,1.2,2.4c0,1.7-1.2,3.2-3.2,3.2c-1.1,0-1.8-0.4-2.1-0.7c-0.2,0.1-1,0.5-1,1.4
		s0.8,1.1,1.5,1.1h2.8c1.6,0,2.8,0.7,2.8,2.4c0,1.6-1.6,3.1-3.9,3.1c-2.6,0-3.7-1.5-3.7-2.8c0-1.1,0.8-1.7,1.2-2
		c-0.4-0.1-1.5-0.6-1.5-1.7C254.4,114.1,255.4,113.4,255.6,113.3z M258.3,121.1c1.7,0,3-1,3-2.3c0-0.9-0.5-1.7-1.9-1.7H257
		c-0.2,0-1.5,0.6-1.5,1.8C255.5,120,256.5,121.1,258.3,121.1z M260.6,111.4c0-1.6-1.1-2.4-2.3-2.4c-1.5,0-2.4,1.1-2.4,2.4
		c0,1.3,0.8,2.4,2.4,2.4C259.6,113.8,260.6,112.8,260.6,111.4z"/>
	<path class="st1" d="M263.9,108.6c0-0.1,0.1-0.2,0.2-0.2h0.2c0.1,0,0.2,0.1,0.2,0.2l0.1,0.8c0.2-0.3,1-1.2,2.4-1.2
		c0.6,0,1,0.2,1.2,0.2c0.2,0.1,0.3,0.2,0.2,0.3l-0.2,0.4c-0.1,0.1-0.2,0.2-0.3,0.1c-0.1,0-0.5-0.2-1-0.2c-1.5,0-2.2,1.2-2.3,1.3v5.4
		c0,0.2-0.1,0.2-0.2,0.2h-0.4c-0.1,0-0.2-0.1-0.2-0.2V108.6z"/>
	<path class="st1" d="M272.7,111.1c0.9,0,1.7,0.3,1.9,0.3c0-1.7-0.2-2.5-1.7-2.5c-1.3,0-2.1,0.5-2.3,0.5c-0.2,0.1-0.2,0-0.3-0.2
		l-0.1-0.2c-0.1-0.2,0-0.2,0.1-0.3c0.1,0,1-0.6,2.6-0.6c2.3,0,2.4,1.4,2.4,3.3v4.2c0,0.1-0.1,0.2-0.2,0.2h-0.2
		c-0.1,0-0.2-0.1-0.2-0.2l-0.1-0.7c-0.5,0.5-1.4,1.1-2.6,1.1c-1.4,0-2.5-1-2.5-2.5C269.5,112.2,270.7,111.1,272.7,111.1z M272,115.4
		c1.2,0,2.2-0.7,2.5-1.2v-2.1c-0.2-0.1-1-0.4-1.9-0.4c-1.4,0-2.4,0.7-2.4,1.9C270.2,114.7,271,115.4,272,115.4z"/>
	<path class="st1" d="M278.2,108.6c0-0.1,0.1-0.2,0.2-0.2h0.2c0.1,0,0.2,0.1,0.2,0.2l0.1,0.8c0.2-0.3,1.1-1.2,2.6-1.2
		c1.2,0,2,0.5,2.5,1.4c0.2-0.3,1.3-1.4,2.8-1.4c2.1,0,3,1.3,3,3.5v4.1c0,0.1-0.1,0.2-0.2,0.2h-0.4c-0.1,0-0.2-0.1-0.2-0.2v-4.1
		c0-1.7-0.8-2.7-2.2-2.7s-2.3,1-2.5,1.3c0.1,0.4,0.2,0.9,0.2,1.4v4.1c0,0.1-0.1,0.2-0.2,0.2h-0.4c-0.1,0-0.2-0.1-0.2-0.2v-4.1
		c0-1.7-0.8-2.7-2.2-2.7c-1.5,0-2.4,1.2-2.5,1.3v5.4c0,0.2-0.1,0.2-0.2,0.2h-0.4c-0.1,0-0.2-0.1-0.2-0.2V108.6z"/>
	<path class="st1" d="M297.4,102.9c0-0.1,0.1-0.2,0.2-0.2h7.6c0.1,0,0.2,0.1,0.2,0.2v0.3c0,0.1-0.1,0.2-0.2,0.2h-7v5.8h6
		c0.1,0,0.2,0.1,0.2,0.2c0,0.2,0,0.6-0.2,0.6h-6l0,5.7c0,0.1-0.1,0.2-0.3,0.2h-0.3c-0.1,0-0.2-0.1-0.2-0.2V102.9z"/>
	<path class="st1" d="M310.2,108.2c2,0,3.4,1.5,3.4,3.5c0,0.3,0,0.7-0.3,0.7h-6.1c0.1,1.6,1.3,3,3,3c1,0,1.8-0.4,2.2-0.7
		c0.2-0.1,0.2-0.1,0.3,0l0.2,0.3c0.1,0.1,0,0.2-0.1,0.3c-0.4,0.4-1.6,0.9-2.8,0.9c-2.3,0-3.7-1.8-3.7-4
		C306.5,110,307.9,108.2,310.2,108.2z M312.8,111.7c0-1.5-0.9-2.8-2.6-2.8c-1.7,0-2.8,1.2-2.9,2.8H312.8z"/>
	<path class="st1" d="M319.1,108.2c2,0,3.4,1.5,3.4,3.5c0,0.3,0,0.7-0.3,0.7h-6.1c0.1,1.6,1.3,3,3,3c1,0,1.8-0.4,2.2-0.7
		c0.2-0.1,0.2-0.1,0.3,0l0.2,0.3c0.1,0.1,0,0.2-0.1,0.3c-0.4,0.4-1.6,0.9-2.8,0.9c-2.3,0-3.7-1.8-3.7-4
		C315.4,110,316.8,108.2,319.1,108.2z M321.7,111.7c0-1.5-0.9-2.8-2.6-2.8c-1.7,0-2.8,1.2-2.9,2.8H321.7z"/>
	<path class="st1" d="M328,108.2c1.4,0,2.3,0.8,2.3,0.8v-6c0-0.1,0.1-0.2,0.2-0.2h0.3c0.1,0,0.2,0.1,0.2,0.2v12.8
		c0,0.1-0.1,0.2-0.2,0.2h-0.2c-0.2,0-0.2-0.1-0.3-0.2l-0.1-0.7c-0.2,0.2-1.2,1.1-2.6,1.1c-2,0-3.5-1.8-3.5-4
		C324.2,110,325.8,108.2,328,108.2z M327.8,115.4c1.7,0,2.5-1.3,2.5-1.3v-4.3c0,0-0.9-0.8-2.3-0.8c-1.7,0-3,1.4-3,3.2
		C325.1,114,326.2,115.4,327.8,115.4z"/>
	<path class="st1" d="M76,133.9c0.9,0,1.7,0.3,1.9,0.3c0-1.7-0.2-2.5-1.7-2.5c-1.3,0-2.1,0.5-2.3,0.5c-0.2,0.1-0.2,0-0.3-0.2
		l-0.1-0.2c-0.1-0.2,0-0.2,0.1-0.3c0.1,0,1-0.6,2.6-0.6c2.3,0,2.4,1.4,2.4,3.3v4.2c0,0.1-0.1,0.2-0.2,0.2h-0.2
		c-0.1,0-0.2-0.1-0.2-0.2l-0.1-0.7c-0.5,0.5-1.4,1.1-2.6,1.1c-1.4,0-2.5-1-2.5-2.5C72.8,135,74,133.9,76,133.9z M75.4,138.2
		c1.2,0,2.2-0.7,2.5-1.2V135c-0.2-0.1-1-0.4-1.9-0.4c-1.4,0-2.4,0.7-2.4,1.9C73.6,137.5,74.4,138.2,75.4,138.2z"/>
	<path class="st1" d="M81.6,131.4c0-0.1,0.1-0.2,0.3-0.2H82c0.1,0,0.2,0.1,0.2,0.2l0.1,0.8c0.2-0.3,1.3-1.2,2.8-1.2
		c2.1,0,3.1,1.3,3.1,3.5v4.1c0,0.1-0.1,0.2-0.2,0.2h-0.3c-0.1,0-0.2-0.1-0.2-0.2v-4.1c0-1.7-0.8-2.7-2.3-2.7c-1.6,0-2.6,1.2-2.7,1.3
		v5.4c0,0.2-0.1,0.2-0.2,0.2h-0.4c-0.1,0-0.2-0.1-0.2-0.2V131.4z"/>
	<path class="st1" d="M94.2,131c1.4,0,2.3,0.8,2.3,0.8v-6c0-0.1,0.1-0.2,0.2-0.2h0.3c0.1,0,0.2,0.1,0.2,0.2v12.8
		c0,0.1-0.1,0.2-0.2,0.2h-0.2c-0.2,0-0.2-0.1-0.3-0.2l-0.1-0.7c-0.2,0.2-1.2,1.1-2.6,1.1c-2,0-3.5-1.8-3.5-4
		C90.4,132.8,92,131,94.2,131z M94,138.2c1.7,0,2.5-1.3,2.5-1.3v-4.3c0,0-0.9-0.8-2.3-0.8c-1.7,0-3,1.4-3,3.2
		C91.2,136.8,92.4,138.2,94,138.2z"/>
	<path class="st1" d="M106.9,133.9c0.9,0,1.7,0.3,1.9,0.3c0-1.7-0.2-2.5-1.7-2.5c-1.3,0-2.1,0.5-2.3,0.5c-0.2,0.1-0.2,0-0.3-0.2
		l-0.1-0.2c-0.1-0.2,0-0.2,0.1-0.3c0.1,0,1-0.6,2.6-0.6c2.3,0,2.4,1.4,2.4,3.3v4.2c0,0.1-0.1,0.2-0.2,0.2h-0.2
		c-0.1,0-0.2-0.1-0.2-0.2l-0.1-0.7c-0.5,0.5-1.4,1.1-2.6,1.1c-1.4,0-2.5-1-2.5-2.5C103.7,135,104.9,133.9,106.9,133.9z M106.3,138.2
		c1.2,0,2.2-0.7,2.5-1.2V135c-0.2-0.1-1-0.4-1.9-0.4c-1.4,0-2.4,0.7-2.4,1.9C104.5,137.5,105.2,138.2,106.3,138.2z"/>
	<path class="st1" d="M115.8,131.5c-0.1-0.2-0.1-0.3,0.1-0.3h0.4c0.1,0,0.2,0,0.2,0.2l1.8,6h0l2.3-6.2c0-0.1,0.1-0.2,0.2-0.2h0.1
		c0.1,0,0.2,0.1,0.2,0.2l2.3,6.2h0l1.8-6c0-0.1,0.2-0.2,0.2-0.2h0.4c0.2,0,0.2,0.1,0.1,0.3l-2.3,7.3c0,0.1-0.1,0.2-0.2,0.2h-0.1
		c-0.1,0-0.2-0.1-0.2-0.2l-2.3-6.4h0l-2.3,6.4c0,0.1-0.1,0.2-0.2,0.2h-0.1c-0.1,0-0.2,0-0.2-0.2L115.8,131.5z"/>
	<path class="st1" d="M130.7,133.9c0.9,0,1.7,0.3,1.9,0.3c0-1.7-0.2-2.5-1.7-2.5c-1.3,0-2.1,0.5-2.3,0.5c-0.2,0.1-0.2,0-0.3-0.2
		l-0.1-0.2c-0.1-0.2,0-0.2,0.1-0.3c0.1,0,1-0.6,2.6-0.6c2.3,0,2.4,1.4,2.4,3.3v4.2c0,0.1-0.1,0.2-0.2,0.2h-0.2
		c-0.1,0-0.2-0.1-0.2-0.2l-0.1-0.7c-0.5,0.5-1.4,1.1-2.6,1.1c-1.4,0-2.5-1-2.5-2.5C127.5,135,128.7,133.9,130.7,133.9z M130,138.2
		c1.2,0,2.2-0.7,2.5-1.2V135c-0.2-0.1-1-0.4-1.9-0.4c-1.4,0-2.4,0.7-2.4,1.9C128.2,137.5,129,138.2,130,138.2z"/>
	<path class="st1" d="M135,131.5c-0.1-0.2-0.1-0.3,0.1-0.3h0.4c0.1,0,0.2,0.1,0.2,0.2l3.2,6.4h0l3-6.4c0.1-0.1,0.2-0.2,0.2-0.2h0.4
		c0.2,0,0.2,0.2,0.1,0.3l-6,12.8c0,0.1-0.2,0.2-0.2,0.2h-0.4c-0.2,0-0.2-0.1-0.1-0.3l2.6-5.5L135,131.5z"/>
	<path class="st1" d="M149.2,131.9h-1.1c-0.2,0-0.2-0.1-0.2-0.2v-0.2c0-0.1,0.1-0.2,0.2-0.2h1.1v-2.6c0-2.2,1.2-3.3,2.9-3.3
		c1,0,1.8,0.5,2.1,0.8c0.1,0.1,0.1,0.2,0,0.3l-0.2,0.3c-0.1,0.1-0.2,0.1-0.3,0c-0.3-0.3-1-0.6-1.7-0.6c-1.2,0-2,0.8-2,2.5v2.6h2.8
		c0.2,0,0.2,0.1,0.2,0.2v0.3c0,0.1-0.1,0.2-0.2,0.2H150v6.6c0,0.1-0.1,0.2-0.2,0.2h-0.3c-0.1,0-0.2-0.1-0.2-0.2V131.9z"/>
	<path class="st1" d="M157.9,131c2.1,0,3.8,1.8,3.8,4c0,2.2-1.7,4-3.8,4c-2.1,0-3.8-1.8-3.8-4C154.1,132.8,155.8,131,157.9,131z
		 M157.9,138.2c1.7,0,3-1.4,3-3.2c0-1.7-1.3-3.2-3-3.2c-1.7,0-3,1.4-3,3.2C154.9,136.8,156.2,138.2,157.9,138.2z"/>
	<path class="st1" d="M164.1,131.4c0-0.1,0.1-0.2,0.2-0.2h0.2c0.1,0,0.2,0.1,0.2,0.2l0.1,0.8c0.2-0.3,1-1.2,2.4-1.2
		c0.6,0,1,0.2,1.2,0.2c0.2,0.1,0.3,0.2,0.2,0.3l-0.2,0.4c-0.1,0.1-0.2,0.2-0.3,0.1c-0.1,0-0.5-0.2-1-0.2c-1.5,0-2.2,1.2-2.3,1.3v5.4
		c0,0.2-0.1,0.2-0.2,0.2h-0.4c-0.1,0-0.2-0.1-0.2-0.2V131.4z"/>
	<path class="st1" d="M174.7,131.9h-0.9c-0.2,0-0.2-0.1-0.2-0.2v-0.3c0-0.1,0.1-0.2,0.2-0.2h0.9v-2.1c0-0.2,0.1-0.2,0.2-0.2l0.3,0
		c0.1,0,0.2,0.1,0.2,0.2v2.1h2.6c0.2,0,0.2,0.1,0.2,0.2v0.2c0,0.2-0.1,0.2-0.2,0.2h-2.6v4.8c0,0.9,0.1,1.4,1,1.4
		c0.7,0,1.5-0.4,1.7-0.5c0.2-0.1,0.2,0,0.3,0.1l0.1,0.2c0.1,0.1,0.1,0.2-0.1,0.3c-0.3,0.2-1.1,0.7-2.2,0.7c-1.6,0-1.7-0.9-1.7-2.1
		V131.9z"/>
	<path class="st1" d="M180.6,125.7c0-0.1,0.1-0.2,0.3-0.2h0.3c0.1,0,0.2,0.1,0.2,0.2v6.5c0.2-0.2,1.3-1.2,2.8-1.2
		c2,0,3.1,1.2,3.1,3.5v4.1c0,0.1-0.1,0.2-0.2,0.2h-0.3c-0.1,0-0.2-0.1-0.2-0.2v-4.1c0-1.7-0.8-2.7-2.3-2.7c-1.6,0-2.6,1.2-2.7,1.3
		v5.4c0,0.2-0.1,0.2-0.2,0.2h-0.4c-0.1,0-0.2-0.1-0.2-0.2V125.7z"/>
	<path class="st1" d="M193.2,131c2,0,3.4,1.5,3.4,3.5c0,0.3,0,0.7-0.3,0.7h-6.1c0.1,1.6,1.3,3,3,3c1,0,1.8-0.4,2.2-0.7
		c0.2-0.1,0.2-0.1,0.3,0l0.2,0.3c0.1,0.1,0,0.2-0.1,0.3c-0.4,0.4-1.6,0.9-2.8,0.9c-2.3,0-3.7-1.8-3.7-4
		C189.4,132.8,190.9,131,193.2,131z M195.8,134.5c0-1.5-0.9-2.8-2.6-2.8c-1.7,0-2.8,1.2-2.9,2.8H195.8z"/>
	<path class="st1" d="M198.6,126.9c0-0.4,0.3-0.7,0.6-0.7c0.4,0,0.6,0.3,0.6,0.7c0,0.3-0.3,0.6-0.6,0.6
		C198.9,127.5,198.6,127.2,198.6,126.9z M198.9,131.4c0-0.1,0.1-0.2,0.2-0.2h0.3c0.1,0,0.2,0.1,0.2,0.2v7.1c0,0.2-0.1,0.2-0.2,0.2
		h-0.4c-0.1,0-0.2-0.1-0.2-0.2V131.4z"/>
	<path class="st1" d="M202.6,131.4c0-0.1,0.1-0.2,0.2-0.2h0.2c0.1,0,0.2,0.1,0.2,0.2l0.1,0.8c0.2-0.3,1-1.2,2.4-1.2
		c0.6,0,1,0.2,1.2,0.2c0.2,0.1,0.3,0.2,0.2,0.3L207,132c-0.1,0.1-0.2,0.2-0.3,0.1c-0.1,0-0.5-0.2-1-0.2c-1.5,0-2.2,1.2-2.3,1.3v5.4
		c0,0.2-0.1,0.2-0.2,0.2h-0.4c-0.1,0-0.2-0.1-0.2-0.2V131.4z"/>
	<path class="st1" d="M212.7,131.4c0-0.1,0.1-0.2,0.2-0.2h0.3c0.1,0,0.2,0.1,0.2,0.2v4.1c0,1.8,0.8,2.7,2.3,2.7
		c1.6,0,2.5-1.2,2.5-1.3v-5.4c0-0.2,0.1-0.2,0.2-0.2h0.3c0.1,0,0.2,0.1,0.2,0.2v7.1c0,0.1-0.1,0.2-0.2,0.2h-0.2
		c-0.2,0-0.2-0.1-0.2-0.2l-0.1-0.7c-0.2,0.3-1.1,1.2-2.6,1.2c-2.1,0-3-1.3-3-3.5V131.4z"/>
	<path class="st1" d="M221.6,137.9l0.2-0.3c0.1-0.1,0.2-0.1,0.3,0c0.2,0.2,1,0.7,2,0.7c1.1,0,1.8-0.6,1.8-1.3c0-0.9-0.9-1.2-2.1-1.7
		c-1.3-0.5-2.3-1.1-2.3-2.2c0-0.8,0.7-2,2.5-2c1,0,1.8,0.4,2.1,0.6c0.1,0.1,0.2,0.2,0.1,0.4l-0.1,0.2c-0.1,0.1-0.2,0.2-0.4,0.1
		c-0.2-0.1-0.9-0.5-1.7-0.5c-1.2,0-1.6,0.7-1.6,1.2c0,0.8,0.7,1.1,1.8,1.5c1.4,0.5,2.7,1,2.7,2.4c0,1.1-1.2,2.1-2.7,2.1
		c-1.3,0-2.1-0.5-2.5-0.9C221.6,138.1,221.6,138,221.6,137.9z"/>
	<path class="st1" d="M232.3,131c2,0,3.4,1.5,3.4,3.5c0,0.3,0,0.7-0.3,0.7h-6.1c0.1,1.6,1.3,3,3,3c1,0,1.8-0.4,2.2-0.7
		c0.2-0.1,0.2-0.1,0.3,0l0.2,0.3c0.1,0.1,0,0.2-0.1,0.3c-0.4,0.4-1.6,0.9-2.8,0.9c-2.3,0-3.7-1.8-3.7-4
		C228.6,132.8,230,131,232.3,131z M234.9,134.5c0-1.5-0.9-2.8-2.6-2.8c-1.7,0-2.8,1.2-2.9,2.8H234.9z"/>
	<path class="st1" d="M238,131.4c0-0.1,0.1-0.2,0.2-0.2h0.2c0.1,0,0.2,0.1,0.2,0.2l0.1,0.8c0.2-0.3,1-1.2,2.4-1.2
		c0.6,0,1,0.2,1.2,0.2c0.2,0.1,0.3,0.2,0.2,0.3l-0.2,0.4c-0.1,0.1-0.2,0.2-0.3,0.1c-0.1,0-0.5-0.2-1-0.2c-1.5,0-2.2,1.2-2.3,1.3v5.4
		c0,0.2-0.1,0.2-0.2,0.2h-0.4c-0.1,0-0.2-0.1-0.2-0.2V131.4z"/>
	<path class="st1" d="M243.7,137.9l0.2-0.3c0.1-0.1,0.2-0.1,0.3,0c0.2,0.2,1,0.7,2,0.7c1.1,0,1.8-0.6,1.8-1.3c0-0.9-0.9-1.2-2.1-1.7
		c-1.3-0.5-2.3-1.1-2.3-2.2c0-0.8,0.7-2,2.5-2c1,0,1.8,0.4,2.1,0.6c0.1,0.1,0.2,0.2,0.1,0.4l-0.1,0.2c-0.1,0.1-0.2,0.2-0.4,0.1
		c-0.2-0.1-0.9-0.5-1.7-0.5c-1.2,0-1.6,0.7-1.6,1.2c0,0.8,0.7,1.1,1.8,1.5c1.4,0.5,2.7,1,2.7,2.4c0,1.1-1.2,2.1-2.7,2.1
		c-1.3,0-2.1-0.5-2.5-0.9C243.7,138.1,243.6,138,243.7,137.9z"/>
	<path class="st1" d="M255.6,131.9h-0.9c-0.2,0-0.2-0.1-0.2-0.2v-0.3c0-0.1,0.1-0.2,0.2-0.2h0.9v-2.1c0-0.2,0.1-0.2,0.2-0.2l0.3,0
		c0.1,0,0.2,0.1,0.2,0.2v2.1h2.6c0.2,0,0.2,0.1,0.2,0.2v0.2c0,0.2-0.1,0.2-0.2,0.2h-2.6v4.8c0,0.9,0.1,1.4,1,1.4
		c0.7,0,1.5-0.4,1.7-0.5c0.2-0.1,0.2,0,0.3,0.1l0.1,0.2c0.1,0.1,0.1,0.2-0.1,0.3c-0.3,0.2-1.1,0.7-2.2,0.7c-1.6,0-1.7-0.9-1.7-2.1
		V131.9z"/>
	<path class="st1" d="M264.8,131c2.1,0,3.8,1.8,3.8,4c0,2.2-1.7,4-3.8,4c-2.1,0-3.8-1.8-3.8-4C261,132.8,262.6,131,264.8,131z
		 M264.8,138.2c1.7,0,3-1.4,3-3.2c0-1.7-1.3-3.2-3-3.2c-1.7,0-3,1.4-3,3.2C261.8,136.8,263.1,138.2,264.8,138.2z"/>
	<path class="st1" d="M278.2,131c2,0,3.4,1.5,3.4,3.5c0,0.3,0,0.7-0.3,0.7h-6.1c0.1,1.6,1.3,3,3,3c1,0,1.8-0.4,2.2-0.7
		c0.2-0.1,0.2-0.1,0.3,0l0.2,0.3c0.1,0.1,0,0.2-0.1,0.3c-0.4,0.4-1.6,0.9-2.8,0.9c-2.3,0-3.7-1.8-3.7-4
		C274.5,132.8,275.9,131,278.2,131z M280.8,134.5c0-1.5-0.9-2.8-2.6-2.8c-1.7,0-2.8,1.2-2.9,2.8H280.8z"/>
	<path class="st1" d="M283.9,131.4c0-0.1,0.1-0.2,0.3-0.2h0.2c0.1,0,0.2,0.1,0.2,0.2l0.1,0.8c0.2-0.3,1.3-1.2,2.8-1.2
		c2.1,0,3.1,1.3,3.1,3.5v4.1c0,0.1-0.1,0.2-0.2,0.2H290c-0.1,0-0.2-0.1-0.2-0.2v-4.1c0-1.7-0.8-2.7-2.3-2.7c-1.6,0-2.6,1.2-2.7,1.3
		v5.4c0,0.2-0.1,0.2-0.2,0.2h-0.4c-0.1,0-0.2-0.1-0.2-0.2V131.4z"/>
	<path class="st1" d="M293.6,131.9h-0.9c-0.2,0-0.2-0.1-0.2-0.2v-0.3c0-0.1,0.1-0.2,0.2-0.2h0.9v-2.1c0-0.2,0.1-0.2,0.2-0.2l0.3,0
		c0.1,0,0.2,0.1,0.2,0.2v2.1h2.6c0.2,0,0.2,0.1,0.2,0.2v0.2c0,0.2-0.1,0.2-0.2,0.2h-2.6v4.8c0,0.9,0.1,1.4,1,1.4
		c0.7,0,1.5-0.4,1.7-0.5c0.2-0.1,0.2,0,0.3,0.1l0.1,0.2c0.1,0.1,0.1,0.2-0.1,0.3c-0.3,0.2-1.1,0.7-2.2,0.7c-1.6,0-1.7-0.9-1.7-2.1
		V131.9z"/>
	<path class="st1" d="M302.8,131c2,0,3.4,1.5,3.4,3.5c0,0.3,0,0.7-0.3,0.7h-6.1c0.1,1.6,1.3,3,3,3c1,0,1.8-0.4,2.2-0.7
		c0.2-0.1,0.2-0.1,0.3,0l0.2,0.3c0.1,0.1,0,0.2-0.1,0.3c-0.4,0.4-1.6,0.9-2.8,0.9c-2.3,0-3.7-1.8-3.7-4
		C299,132.8,300.5,131,302.8,131z M305.4,134.5c0-1.5-0.9-2.8-2.6-2.8c-1.7,0-2.8,1.2-2.9,2.8H305.4z"/>
	<path class="st1" d="M308.5,131.4c0-0.1,0.1-0.2,0.2-0.2h0.2c0.1,0,0.2,0.1,0.2,0.2l0.1,0.8c0.2-0.3,1-1.2,2.4-1.2
		c0.6,0,1,0.2,1.2,0.2c0.2,0.1,0.3,0.2,0.2,0.3l-0.2,0.4c-0.1,0.1-0.2,0.2-0.3,0.1c-0.1,0-0.5-0.2-1-0.2c-1.5,0-2.2,1.2-2.3,1.3v5.4
		c0,0.2-0.1,0.2-0.2,0.2h-0.4c-0.1,0-0.2-0.1-0.2-0.2V131.4z"/>
	<path class="st1" d="M73.8,154.7h-0.9c-0.2,0-0.2-0.1-0.2-0.2v-0.3c0-0.1,0.1-0.2,0.2-0.2h0.9v-2.1c0-0.2,0.1-0.2,0.2-0.2l0.3,0
		c0.1,0,0.2,0.1,0.2,0.2v2.1h2.6c0.2,0,0.2,0.1,0.2,0.2v0.2c0,0.2-0.1,0.2-0.2,0.2h-2.6v4.8c0,0.9,0.1,1.4,1,1.4
		c0.7,0,1.5-0.4,1.7-0.5c0.2-0.1,0.2,0,0.3,0.1l0.1,0.2c0.1,0.1,0.1,0.2-0.1,0.3c-0.3,0.2-1.1,0.7-2.2,0.7c-1.6,0-1.7-0.9-1.7-2.1
		V154.7z"/>
	<path class="st1" d="M79.7,148.5c0-0.1,0.1-0.2,0.3-0.2h0.3c0.1,0,0.2,0.1,0.2,0.2v6.5c0.2-0.2,1.3-1.2,2.8-1.2
		c2,0,3.1,1.2,3.1,3.5v4.1c0,0.1-0.1,0.2-0.2,0.2h-0.3c-0.1,0-0.2-0.1-0.2-0.2v-4.1c0-1.7-0.8-2.7-2.3-2.7c-1.6,0-2.6,1.2-2.7,1.3
		v5.4c0,0.2-0.1,0.2-0.2,0.2h-0.4c-0.1,0-0.2-0.1-0.2-0.2V148.5z"/>
	<path class="st1" d="M92.3,153.8c2,0,3.4,1.5,3.4,3.5c0,0.3,0,0.7-0.3,0.7h-6.1c0.1,1.6,1.3,3,3,3c1,0,1.8-0.4,2.2-0.7
		c0.2-0.1,0.2-0.1,0.3,0l0.2,0.3c0.1,0.1,0,0.2-0.1,0.3c-0.4,0.4-1.6,0.9-2.8,0.9c-2.3,0-3.7-1.8-3.7-4
		C88.5,155.6,90,153.8,92.3,153.8z M94.9,157.3c0-1.5-0.9-2.8-2.6-2.8c-1.7,0-2.8,1.2-2.9,2.8H94.9z"/>
	<path class="st1" d="M97.7,149.7c0-0.4,0.3-0.7,0.6-0.7c0.4,0,0.6,0.3,0.6,0.7c0,0.3-0.3,0.6-0.6,0.6C98,150.3,97.7,150,97.7,149.7
		z M98,154.2c0-0.1,0.1-0.2,0.2-0.2h0.3c0.1,0,0.2,0.1,0.2,0.2v7.1c0,0.2-0.1,0.2-0.2,0.2h-0.4c-0.1,0-0.2-0.1-0.2-0.2V154.2z"/>
	<path class="st1" d="M101.7,154.2c0-0.1,0.1-0.2,0.2-0.2h0.2c0.1,0,0.2,0.1,0.2,0.2l0.1,0.8c0.2-0.3,1-1.2,2.4-1.2
		c0.6,0,1,0.2,1.2,0.2c0.2,0.1,0.3,0.2,0.2,0.3l-0.2,0.4c-0.1,0.1-0.2,0.2-0.3,0.1c-0.1,0-0.5-0.2-1-0.2c-1.5,0-2.2,1.2-2.3,1.3v5.4
		c0,0.2-0.1,0.2-0.2,0.2h-0.4c-0.1,0-0.2-0.1-0.2-0.2V154.2z"/>
	<path class="st1" d="M115.2,153.8c2,0,3.4,1.5,3.4,3.5c0,0.3,0,0.7-0.3,0.7h-6.1c0.1,1.6,1.3,3,3,3c1,0,1.8-0.4,2.2-0.7
		c0.2-0.1,0.2-0.1,0.3,0l0.2,0.3c0.1,0.1,0,0.2-0.1,0.3c-0.4,0.4-1.6,0.9-2.8,0.9c-2.3,0-3.7-1.8-3.7-4
		C111.4,155.6,112.8,153.8,115.2,153.8z M117.8,157.3c0-1.5-0.9-2.8-2.6-2.8c-1.7,0-2.8,1.2-2.9,2.8H117.8z"/>
	<path class="st1" d="M120.8,154.2c0-0.1,0.1-0.2,0.2-0.2h0.2c0.1,0,0.2,0.1,0.2,0.2l0.1,0.8c0.2-0.3,1.1-1.2,2.6-1.2
		c1.2,0,2,0.5,2.5,1.4c0.2-0.3,1.3-1.4,2.8-1.4c2.1,0,3,1.3,3,3.5v4.1c0,0.1-0.1,0.2-0.2,0.2h-0.4c-0.1,0-0.2-0.1-0.2-0.2v-4.1
		c0-1.7-0.8-2.7-2.2-2.7s-2.3,1-2.5,1.3c0.1,0.4,0.2,0.9,0.2,1.4v4.1c0,0.1-0.1,0.2-0.2,0.2h-0.4c-0.1,0-0.2-0.1-0.2-0.2v-4.1
		c0-1.7-0.8-2.7-2.2-2.7c-1.5,0-2.4,1.2-2.5,1.3v5.4c0,0.2-0.1,0.2-0.2,0.2h-0.4c-0.1,0-0.2-0.1-0.2-0.2V154.2z"/>
	<path class="st1" d="M137.9,156.7c0.9,0,1.7,0.3,1.9,0.3c0-1.7-0.2-2.5-1.7-2.5c-1.3,0-2.1,0.5-2.3,0.5c-0.2,0.1-0.2,0-0.3-0.2
		l-0.1-0.2c-0.1-0.2,0-0.2,0.1-0.3c0.1,0,1-0.6,2.6-0.6c2.3,0,2.4,1.4,2.4,3.3v4.2c0,0.1-0.1,0.2-0.2,0.2h-0.2
		c-0.1,0-0.2-0.1-0.2-0.2l-0.1-0.7c-0.5,0.5-1.4,1.1-2.6,1.1c-1.4,0-2.5-1-2.5-2.5C134.7,157.8,135.9,156.7,137.9,156.7z M137.3,161
		c1.2,0,2.2-0.7,2.5-1.2v-2.1c-0.2-0.1-1-0.4-1.9-0.4c-1.4,0-2.4,0.7-2.4,1.9C135.5,160.3,136.3,161,137.3,161z"/>
	<path class="st1" d="M143.2,149.7c0-0.4,0.3-0.7,0.6-0.7c0.4,0,0.6,0.3,0.6,0.7c0,0.3-0.3,0.6-0.6,0.6
		C143.5,150.3,143.2,150,143.2,149.7z M143.5,154.2c0-0.1,0.1-0.2,0.2-0.2h0.3c0.1,0,0.2,0.1,0.2,0.2v7.1c0,0.2-0.1,0.2-0.2,0.2
		h-0.4c-0.1,0-0.2-0.1-0.2-0.2V154.2z"/>
	<path class="st1" d="M147.2,148.5c0-0.1,0.1-0.2,0.2-0.2h0.3c0.1,0,0.2,0.1,0.2,0.2v12.8c0,0.2-0.1,0.2-0.2,0.2h-0.4
		c-0.1,0-0.2-0.1-0.2-0.2V148.5z"/>
	<path class="st1" d="M155.4,154.7h-0.9c-0.2,0-0.2-0.1-0.2-0.2v-0.3c0-0.1,0.1-0.2,0.2-0.2h0.9v-2.1c0-0.2,0.1-0.2,0.2-0.2l0.3,0
		c0.1,0,0.2,0.1,0.2,0.2v2.1h2.6c0.2,0,0.2,0.1,0.2,0.2v0.2c0,0.2-0.1,0.2-0.2,0.2h-2.6v4.8c0,0.9,0.1,1.4,1,1.4
		c0.7,0,1.5-0.4,1.7-0.5c0.2-0.1,0.2,0,0.3,0.1l0.1,0.2c0.1,0.1,0.1,0.2-0.1,0.3c-0.3,0.2-1.1,0.7-2.2,0.7c-1.6,0-1.7-0.9-1.7-2.1
		V154.7z"/>
	<path class="st1" d="M164.5,153.8c2.1,0,3.8,1.8,3.8,4c0,2.2-1.7,4-3.8,4c-2.1,0-3.8-1.8-3.8-4
		C160.7,155.6,162.4,153.8,164.5,153.8z M164.5,161c1.7,0,3-1.4,3-3.2c0-1.7-1.3-3.2-3-3.2c-1.7,0-3,1.4-3,3.2
		C161.5,159.6,162.8,161,164.5,161z"/>
	<path class="st1" d="M174.8,148.5c0-0.1,0.1-0.2,0.2-0.2h0.3c0.1,0,0.2,0.1,0.2,0.2v6c0,0,0.9-0.8,2.4-0.8c2.1,0,3.7,1.7,3.7,4
		c0,2.2-1.5,4-3.5,4c-1.5,0-2.4-0.9-2.6-1.1l-0.1,0.7c0,0.2-0.1,0.2-0.3,0.2H175c-0.1,0-0.2-0.1-0.2-0.2V148.5z M178.1,161
		c1.6,0,2.8-1.5,2.8-3.2c0-1.8-1.3-3.2-3-3.2c-1.4,0-2.2,0.8-2.2,0.8v4.3C175.7,159.8,176.5,161,178.1,161z"/>
	<path class="st1" d="M187.2,153.8c2,0,3.4,1.5,3.4,3.5c0,0.3,0,0.7-0.3,0.7h-6.1c0.1,1.6,1.3,3,3,3c1,0,1.8-0.4,2.2-0.7
		c0.2-0.1,0.2-0.1,0.3,0l0.2,0.3c0.1,0.1,0,0.2-0.1,0.3c-0.4,0.4-1.6,0.9-2.8,0.9c-2.3,0-3.7-1.8-3.7-4
		C183.5,155.6,184.9,153.8,187.2,153.8z M189.8,157.3c0-1.5-0.9-2.8-2.6-2.8c-1.7,0-2.8,1.2-2.9,2.8H189.8z"/>
	<path class="st1" d="M199.6,156.7c0.9,0,1.7,0.3,1.9,0.3c0-1.7-0.2-2.5-1.7-2.5c-1.3,0-2.1,0.5-2.3,0.5c-0.2,0.1-0.2,0-0.3-0.2
		l-0.1-0.2c-0.1-0.2,0-0.2,0.1-0.3c0.1,0,1-0.6,2.6-0.6c2.3,0,2.4,1.4,2.4,3.3v4.2c0,0.1-0.1,0.2-0.2,0.2h-0.2
		c-0.1,0-0.2-0.1-0.2-0.2l-0.1-0.7c-0.5,0.5-1.4,1.1-2.6,1.1c-1.4,0-2.5-1-2.5-2.5C196.4,157.8,197.6,156.7,199.6,156.7z M199,161
		c1.2,0,2.2-0.7,2.5-1.2v-2.1c-0.2-0.1-1-0.4-1.9-0.4c-1.4,0-2.4,0.7-2.4,1.9C197.2,160.3,197.9,161,199,161z"/>
	<path class="st1" d="M208.3,153.8c1.4,0,2.3,0.8,2.3,0.8v-6c0-0.1,0.1-0.2,0.2-0.2h0.3c0.1,0,0.2,0.1,0.2,0.2v12.8
		c0,0.1-0.1,0.2-0.2,0.2H211c-0.2,0-0.2-0.1-0.3-0.2l-0.1-0.7c-0.2,0.2-1.2,1.1-2.6,1.1c-2,0-3.5-1.8-3.5-4
		C204.6,155.6,206.2,153.8,208.3,153.8z M208.2,161c1.7,0,2.5-1.3,2.5-1.3v-4.3c0,0-0.9-0.8-2.3-0.8c-1.7,0-3,1.4-3,3.2
		C205.4,159.6,206.6,161,208.2,161z"/>
	<path class="st1" d="M217.6,153.8c1.4,0,2.3,0.8,2.3,0.8v-6c0-0.1,0.1-0.2,0.2-0.2h0.3c0.1,0,0.2,0.1,0.2,0.2v12.8
		c0,0.1-0.1,0.2-0.2,0.2h-0.2c-0.2,0-0.2-0.1-0.3-0.2l-0.1-0.7c-0.2,0.2-1.2,1.1-2.6,1.1c-2,0-3.5-1.8-3.5-4
		C213.8,155.6,215.4,153.8,217.6,153.8z M217.4,161c1.7,0,2.5-1.3,2.5-1.3v-4.3c0,0-0.9-0.8-2.3-0.8c-1.7,0-3,1.4-3,3.2
		C214.6,159.6,215.8,161,217.4,161z"/>
	<path class="st1" d="M226.8,153.8c2,0,3.4,1.5,3.4,3.5c0,0.3,0,0.7-0.3,0.7h-6.1c0.1,1.6,1.3,3,3,3c1,0,1.8-0.4,2.2-0.7
		c0.2-0.1,0.2-0.1,0.3,0l0.2,0.3c0.1,0.1,0,0.2-0.1,0.3c-0.4,0.4-1.6,0.9-2.8,0.9c-2.3,0-3.7-1.8-3.7-4
		C223,155.6,224.5,153.8,226.8,153.8z M229.4,157.3c0-1.5-0.9-2.8-2.6-2.8c-1.7,0-2.8,1.2-2.9,2.8H229.4z"/>
	<path class="st1" d="M235.7,153.8c1.4,0,2.3,0.8,2.3,0.8v-6c0-0.1,0.1-0.2,0.2-0.2h0.3c0.1,0,0.2,0.1,0.2,0.2v12.8
		c0,0.1-0.1,0.2-0.2,0.2h-0.2c-0.2,0-0.2-0.1-0.3-0.2l-0.1-0.7c-0.2,0.2-1.2,1.1-2.6,1.1c-2,0-3.5-1.8-3.5-4
		C231.9,155.6,233.5,153.8,235.7,153.8z M235.5,161c1.7,0,2.5-1.3,2.5-1.3v-4.3c0,0-0.9-0.8-2.3-0.8c-1.7,0-3,1.4-3,3.2
		C232.8,159.6,233.9,161,235.5,161z"/>
	<path class="st1" d="M246.2,154.7h-0.9c-0.2,0-0.2-0.1-0.2-0.2v-0.3c0-0.1,0.1-0.2,0.2-0.2h0.9v-2.1c0-0.2,0.1-0.2,0.2-0.2l0.3,0
		c0.1,0,0.2,0.1,0.2,0.2v2.1h2.6c0.2,0,0.2,0.1,0.2,0.2v0.2c0,0.2-0.1,0.2-0.2,0.2H247v4.8c0,0.9,0.1,1.4,1,1.4
		c0.7,0,1.5-0.4,1.7-0.5c0.2-0.1,0.2,0,0.3,0.1l0.1,0.2c0.1,0.1,0.1,0.2-0.1,0.3c-0.3,0.2-1.1,0.7-2.2,0.7c-1.6,0-1.7-0.9-1.7-2.1
		V154.7z"/>
	<path class="st1" d="M255.3,153.8c2.1,0,3.8,1.8,3.8,4c0,2.2-1.7,4-3.8,4c-2.1,0-3.8-1.8-3.8-4
		C251.5,155.6,253.2,153.8,255.3,153.8z M255.3,161c1.7,0,3-1.4,3-3.2c0-1.7-1.3-3.2-3-3.2c-1.7,0-3,1.4-3,3.2
		C252.3,159.6,253.6,161,255.3,161z"/>
	<path class="st1" d="M265.9,154.7H265c-0.2,0-0.2-0.1-0.2-0.2v-0.3c0-0.1,0.1-0.2,0.2-0.2h0.9v-2.1c0-0.2,0.1-0.2,0.2-0.2l0.3,0
		c0.1,0,0.2,0.1,0.2,0.2v2.1h2.6c0.2,0,0.2,0.1,0.2,0.2v0.2c0,0.2-0.1,0.2-0.2,0.2h-2.6v4.8c0,0.9,0.1,1.4,1,1.4
		c0.7,0,1.5-0.4,1.7-0.5c0.2-0.1,0.2,0,0.3,0.1l0.1,0.2c0.1,0.1,0.1,0.2-0.1,0.3c-0.3,0.2-1.1,0.7-2.2,0.7c-1.6,0-1.7-0.9-1.7-2.1
		V154.7z"/>
	<path class="st1" d="M271.8,148.5c0-0.1,0.1-0.2,0.3-0.2h0.3c0.1,0,0.2,0.1,0.2,0.2v6.5c0.2-0.2,1.3-1.2,2.8-1.2
		c2,0,3.1,1.2,3.1,3.5v4.1c0,0.1-0.1,0.2-0.2,0.2h-0.3c-0.1,0-0.2-0.1-0.2-0.2v-4.1c0-1.7-0.8-2.7-2.3-2.7c-1.6,0-2.6,1.2-2.7,1.3
		v5.4c0,0.2-0.1,0.2-0.2,0.2H272c-0.1,0-0.2-0.1-0.2-0.2V148.5z"/>
	<path class="st1" d="M284.4,153.8c2,0,3.4,1.5,3.4,3.5c0,0.3,0,0.7-0.3,0.7h-6.1c0.1,1.6,1.3,3,3,3c1,0,1.8-0.4,2.2-0.7
		c0.2-0.1,0.2-0.1,0.3,0l0.2,0.3c0.1,0.1,0,0.2-0.1,0.3c-0.4,0.4-1.6,0.9-2.8,0.9c-2.3,0-3.7-1.8-3.7-4
		C280.7,155.6,282.1,153.8,284.4,153.8z M287,157.3c0-1.5-0.9-2.8-2.6-2.8c-1.7,0-2.8,1.2-2.9,2.8H287z"/>
	<path class="st1" d="M289.9,149.7c0-0.4,0.3-0.7,0.6-0.7c0.4,0,0.6,0.3,0.6,0.7c0,0.3-0.3,0.6-0.6,0.6
		C290.2,150.3,289.9,150,289.9,149.7z M290.1,154.2c0-0.1,0.1-0.2,0.2-0.2h0.3c0.1,0,0.2,0.1,0.2,0.2v7.1c0,0.2-0.1,0.2-0.2,0.2
		h-0.4c-0.1,0-0.2-0.1-0.2-0.2V154.2z"/>
	<path class="st1" d="M293.8,154.2c0-0.1,0.1-0.2,0.2-0.2h0.2c0.1,0,0.2,0.1,0.2,0.2l0.1,0.8c0.2-0.3,1-1.2,2.4-1.2
		c0.6,0,1,0.2,1.2,0.2c0.2,0.1,0.3,0.2,0.2,0.3l-0.2,0.4c-0.1,0.1-0.2,0.2-0.3,0.1c-0.1,0-0.5-0.2-1-0.2c-1.5,0-2.2,1.2-2.3,1.3v5.4
		c0,0.2-0.1,0.2-0.2,0.2H294c-0.1,0-0.2-0.1-0.2-0.2V154.2z"/>
	<path class="st1" d="M304.1,154.2c0-0.1,0.1-0.2,0.2-0.2h0.2c0.1,0,0.2,0.1,0.2,0.2l0.1,0.8c0.2-0.3,1.1-1.2,2.6-1.2
		c1.2,0,2,0.5,2.5,1.4c0.2-0.3,1.3-1.4,2.8-1.4c2.1,0,3,1.3,3,3.5v4.1c0,0.1-0.1,0.2-0.2,0.2h-0.4c-0.1,0-0.2-0.1-0.2-0.2v-4.1
		c0-1.7-0.8-2.7-2.2-2.7c-1.4,0-2.3,1-2.5,1.3c0.1,0.4,0.2,0.9,0.2,1.4v4.1c0,0.1-0.1,0.2-0.2,0.2h-0.4c-0.1,0-0.2-0.1-0.2-0.2v-4.1
		c0-1.7-0.8-2.7-2.2-2.7c-1.5,0-2.4,1.2-2.5,1.3v5.4c0,0.2-0.1,0.2-0.2,0.2h-0.4c-0.1,0-0.2-0.1-0.2-0.2V154.2z"/>
	<path class="st1" d="M321.2,156.7c0.9,0,1.7,0.3,1.9,0.3c0-1.7-0.2-2.5-1.7-2.5c-1.3,0-2.1,0.5-2.3,0.5c-0.2,0.1-0.2,0-0.3-0.2
		l-0.1-0.2c-0.1-0.2,0-0.2,0.1-0.3c0.1,0,1-0.6,2.6-0.6c2.3,0,2.4,1.4,2.4,3.3v4.2c0,0.1-0.1,0.2-0.2,0.2h-0.2
		c-0.1,0-0.2-0.1-0.2-0.2l-0.1-0.7c-0.5,0.5-1.4,1.1-2.6,1.1c-1.4,0-2.5-1-2.5-2.5C318,157.8,319.2,156.7,321.2,156.7z M320.6,161
		c1.2,0,2.2-0.7,2.5-1.2v-2.1c-0.2-0.1-1-0.4-1.9-0.4c-1.4,0-2.4,0.7-2.4,1.9C318.8,160.3,319.5,161,320.6,161z"/>
	<path class="st1" d="M326.5,149.7c0-0.4,0.3-0.7,0.6-0.7c0.4,0,0.6,0.3,0.6,0.7c0,0.3-0.3,0.6-0.6,0.6
		C326.8,150.3,326.5,150,326.5,149.7z M326.7,154.2c0-0.1,0.1-0.2,0.2-0.2h0.3c0.1,0,0.2,0.1,0.2,0.2v7.1c0,0.2-0.1,0.2-0.2,0.2
		h-0.4c-0.1,0-0.2-0.1-0.2-0.2V154.2z"/>
	<path class="st1" d="M330.5,148.5c0-0.1,0.1-0.2,0.2-0.2h0.3c0.1,0,0.2,0.1,0.2,0.2v12.8c0,0.2-0.1,0.2-0.2,0.2h-0.4
		c-0.1,0-0.2-0.1-0.2-0.2V148.5z"/>
	<path class="st1" d="M333.9,149.7c0-0.4,0.3-0.7,0.6-0.7c0.4,0,0.6,0.3,0.6,0.7c0,0.3-0.3,0.6-0.6,0.6
		C334.2,150.3,333.9,150,333.9,149.7z M334.2,154.2c0-0.1,0.1-0.2,0.2-0.2h0.3c0.1,0,0.2,0.1,0.2,0.2v7.1c0,0.2-0.1,0.2-0.2,0.2
		h-0.4c-0.1,0-0.2-0.1-0.2-0.2V154.2z"/>
	<path class="st1" d="M337.9,154.2c0-0.1,0.1-0.2,0.3-0.2h0.2c0.1,0,0.2,0.1,0.2,0.2l0.1,0.8c0.2-0.3,1.3-1.2,2.8-1.2
		c2.1,0,3.1,1.3,3.1,3.5v4.1c0,0.1-0.1,0.2-0.2,0.2h-0.3c-0.1,0-0.2-0.1-0.2-0.2v-4.1c0-1.7-0.8-2.7-2.3-2.7c-1.6,0-2.6,1.2-2.7,1.3
		v5.4c0,0.2-0.1,0.2-0.2,0.2h-0.4c-0.1,0-0.2-0.1-0.2-0.2V154.2z"/>
	<path class="st1" d="M347.8,158.9c-0.2-0.3-0.6-1-0.6-1.9c0-1.8,1.3-3.2,3.3-3.2c0.5,0,0.5,0,3.1,0c0.2,0,0.2,0.1,0.2,0.2v0.2
		c0,0.1-0.1,0.2-0.2,0.2l-1.4,0.1c0.4,0.2,1.2,0.9,1.2,2.4c0,1.7-1.2,3.2-3.2,3.2c-1.1,0-1.8-0.4-2.1-0.7c-0.2,0.1-1,0.5-1,1.4
		c0,0.9,0.8,1.1,1.5,1.1h2.8c1.6,0,2.8,0.7,2.8,2.4c0,1.6-1.6,3.1-3.9,3.1c-2.6,0-3.7-1.5-3.7-2.8c0-1.1,0.8-1.7,1.2-2
		c-0.4-0.1-1.5-0.6-1.5-1.7C346.5,159.7,347.6,159,347.8,158.9z M350.5,166.7c1.7,0,3-1,3-2.3c0-0.9-0.5-1.7-1.9-1.7h-2.4
		c-0.2,0-1.5,0.6-1.5,1.8C347.6,165.6,348.7,166.7,350.5,166.7z M352.7,157c0-1.6-1.1-2.4-2.3-2.4c-1.5,0-2.4,1.1-2.4,2.4
		c0,1.3,0.8,2.4,2.4,2.4C351.8,159.4,352.7,158.4,352.7,157z"/>
	<path class="st1" d="M360.2,148.5c0-0.1,0.1-0.2,0.2-0.2h0.3c0.1,0,0.2,0.1,0.2,0.2v12.8c0,0.2-0.1,0.2-0.2,0.2h-0.4
		c-0.1,0-0.2-0.1-0.2-0.2V148.5z"/>
	<path class="st1" d="M363.7,149.7c0-0.4,0.3-0.7,0.6-0.7c0.4,0,0.6,0.3,0.6,0.7c0,0.3-0.3,0.6-0.6,0.6
		C364,150.3,363.7,150,363.7,149.7z M363.9,154.2c0-0.1,0.1-0.2,0.2-0.2h0.3c0.1,0,0.2,0.1,0.2,0.2v7.1c0,0.2-0.1,0.2-0.2,0.2h-0.4
		c-0.1,0-0.2-0.1-0.2-0.2V154.2z"/>
	<path class="st1" d="M367.2,160.7l0.2-0.3c0.1-0.1,0.2-0.1,0.3,0c0.2,0.2,1,0.7,2,0.7c1.1,0,1.8-0.6,1.8-1.3c0-0.9-0.9-1.2-2.1-1.7
		c-1.3-0.5-2.3-1.1-2.3-2.2c0-0.8,0.7-2,2.5-2c1,0,1.8,0.4,2.1,0.6c0.1,0.1,0.2,0.2,0.1,0.4l-0.1,0.2c-0.1,0.1-0.2,0.2-0.4,0.1
		c-0.2-0.1-0.9-0.5-1.7-0.5c-1.2,0-1.6,0.7-1.6,1.2c0,0.8,0.7,1.1,1.8,1.5c1.4,0.5,2.7,1,2.7,2.4c0,1.1-1.2,2.1-2.7,2.1
		c-1.3,0-2.1-0.5-2.5-0.9C367.2,160.9,367.2,160.8,367.2,160.7z"/>
	<path class="st1" d="M375,154.7h-0.9c-0.2,0-0.2-0.1-0.2-0.2v-0.3c0-0.1,0.1-0.2,0.2-0.2h0.9v-2.1c0-0.2,0.1-0.2,0.2-0.2l0.3,0
		c0.1,0,0.2,0.1,0.2,0.2v2.1h2.6c0.2,0,0.2,0.1,0.2,0.2v0.2c0,0.2-0.1,0.2-0.2,0.2h-2.6v4.8c0,0.9,0.1,1.4,1,1.4
		c0.7,0,1.5-0.4,1.7-0.5c0.2-0.1,0.2,0,0.3,0.1l0.1,0.2c0.1,0.1,0.1,0.2-0.1,0.3c-0.3,0.2-1.1,0.7-2.2,0.7c-1.6,0-1.7-0.9-1.7-2.1
		V154.7z"/>
	<path class="st1" d="M381.6,160.3c0.4,0,0.8,0.3,0.8,0.8c0,0.4-0.3,0.8-0.8,0.8c-0.4,0-0.8-0.3-0.8-0.8
		C380.8,160.6,381.2,160.3,381.6,160.3z"/>
</g>
</svg>
