<?xml version="1.0" encoding="utf-8"?>
<!-- Generator: Adobe Illustrator 21.0.0, SVG Export Plug-In . SVG Version: 6.00 Build 0)  -->
<svg version="1.1" id="Layer_1" xmlns="http://www.w3.org/2000/svg" xmlns:xlink="http://www.w3.org/1999/xlink" x="0px" y="0px"
	 viewBox="0 0 1920 1080" style="enable-background:new 0 0 1920 1080;" xml:space="preserve">
<style type="text/css">
	.st0{fill:#FEFFF6;}
	.st1{fill:#3D3836;}
	.st2{fill:none;stroke:#3D3836;stroke-width:3;stroke-miterlimit:10;}
	.st3{fill:#686665;}
	.st4{fill:#E6E6E6;}
	.st5{fill:#9B9998;}
	.st6{fill:#B3B3B3;}
	.st7{fill:#931111;}
	.st8{fill:#FFFFFF;}
	.st9{font-family:'BrandonGrotesque-Light';}
	.st10{font-size:19px;}
</style>
<rect class="st0" width="1920" height="1080"/>
<path class="st1" d="M1185.1,314.9H124.6c-28.1,0-50.9,22.8-50.9,50.9v714.7H1236V365.7C1236,337.7,1213.2,314.9,1185.1,314.9z"/>
<rect x="123.7" y="406.4" class="st4" width="1063.1" height="666.4"/>
<rect x="123.7" y="404.5" class="st6" width="1062.8" height="38.7"/>
<ellipse class="st7" cx="143.4" cy="423.8" rx="11.6" ry="12.1"/>
<rect x="200.3" y="455.3" class="st8" width="806.4" height="20.6"/>
<g>
	<defs>
		<rect id="SVGID_5_" x="124" y="489.7" width="1062" height="583.3"/>
	</defs>
	<clipPath id="SVGID_2_">
		<use xlink:href="#SVGID_5_"  style="overflow:visible;"/>
	</clipPath>
	<g transform="matrix(1 0 0 1 7.629395e-06 0)" style="clip-path:url(#SVGID_2_);">
		
			<image style="overflow:visible;" width="2560" height="1600" xlink:href="../../Portfolio/summer work/websites/designs/Pneuma/Screen Shot 2017-06-13 at 04.20.14.png"  transform="matrix(0.4148 0 0 0.4148 124 409.25)">
		</image>
	</g>
</g>
<text transform="matrix(1 0 0 1 1287 452)"><tspan x="0" y="0" class="st1 st9 st10">I didn’t design </tspan><tspan x="0" y="22.8" class="st1 st9 st10">the logo but I designed </tspan><tspan x="0" y="45.6" class="st1 st9 st10">the poster using Photoshop.</tspan><tspan x="0" y="91.2" class="st1 st9 st10">I made sure </tspan><tspan x="0" y="114" class="st1 st9 st10">that the banner’s theme</tspan><tspan x="0" y="136.8" class="st1 st9 st10">was consistent with the logo.</tspan></text>
</svg>
