<?xml version="1.0" encoding="utf-8"?>
<!-- Generator: Adobe Illustrator 21.0.0, SVG Export Plug-In . SVG Version: 6.00 Build 0)  -->
<svg version="1.1" id="Layer_1" xmlns="http://www.w3.org/2000/svg" xmlns:xlink="http://www.w3.org/1999/xlink" x="0px" y="0px"
	 viewBox="0 0 1920 1080" style="enable-background:new 0 0 1920 1080;" xml:space="preserve">
<style type="text/css">
	.st0{fill:#FEFFF6;}
	.st1{fill:#3D3836;}
	.st2{fill:none;stroke:#3D3836;stroke-width:3;stroke-miterlimit:10;}
	.st3{fill:#686665;}
	.st4{fill:#E6E6E6;}
	.st5{fill:#9B9998;}
	.st6{fill:#B3B3B3;}
	.st7{fill:#931111;}
	.st8{fill:#FFFFFF;}
</style>
<rect class="st0" width="1920" height="1080"/>
<path class="st1" d="M1185.1,314.9H124.6c-28.1,0-50.9,22.8-50.9,50.9v714.7H1236V365.7C1236,337.7,1213.2,314.9,1185.1,314.9z"/>
<rect x="123.7" y="406.4" class="st4" width="1063.1" height="666.4"/>
<rect x="123.7" y="404.5" class="st6" width="1062.8" height="38.7"/>
<ellipse class="st7" cx="143.4" cy="423.8" rx="11.6" ry="12.1"/>
<rect x="200.3" y="455.3" class="st8" width="806.4" height="20.6"/>
<g>
	<defs>
		<rect id="SVGID_5_" x="124" y="489.7" width="1062" height="583.3"/>
	</defs>
	<clipPath id="SVGID_2_">
		<use xlink:href="#SVGID_5_"  style="overflow:visible;"/>
	</clipPath>
	<g transform="matrix(1 0 0 1 7.629395e-06 0)" style="clip-path:url(#SVGID_2_);">
		
			<image style="overflow:visible;" width="2560" height="1600" xlink:href="Screen Shot 2017-06-13 at 04.20.14.png"  transform="matrix(0.4148 0 0 0.4148 124 409.25)">
		</image>
	</g>
</g>
<g>
	<path class="st1" d="M1289,438.9c0-0.1,0.1-0.2,0.2-0.2h0.4c0.1,0,0.2,0.1,0.2,0.2v12.8c0,0.2-0.1,0.2-0.3,0.2h-0.4
		c-0.1,0-0.2-0.1-0.2-0.2V438.9z"/>
	<path class="st1" d="M1300.7,444.2c1.4,0,2.3,0.8,2.3,0.8v-6c0-0.1,0.1-0.2,0.2-0.2h0.3c0.1,0,0.2,0.1,0.2,0.2v12.8
		c0,0.1-0.1,0.2-0.2,0.2h-0.2c-0.2,0-0.2-0.1-0.3-0.2l-0.1-0.7c-0.2,0.2-1.2,1.1-2.6,1.1c-2,0-3.5-1.8-3.5-4
		C1297,446,1298.5,444.2,1300.7,444.2z M1300.5,451.4c1.7,0,2.5-1.3,2.5-1.3v-4.3c0,0-0.9-0.8-2.3-0.8c-1.7,0-3,1.4-3,3.2
		C1297.8,450,1298.9,451.4,1300.5,451.4z"/>
	<path class="st1" d="M1306.5,440.1c0-0.4,0.3-0.7,0.6-0.7c0.4,0,0.6,0.3,0.6,0.7c0,0.3-0.3,0.6-0.6,0.6
		C1306.8,440.7,1306.5,440.4,1306.5,440.1z M1306.7,444.6c0-0.1,0.1-0.2,0.2-0.2h0.3c0.1,0,0.2,0.1,0.2,0.2v7.1
		c0,0.2-0.1,0.2-0.2,0.2h-0.4c-0.1,0-0.2-0.1-0.2-0.2V444.6z"/>
	<path class="st1" d="M1313.7,444.2c1.4,0,2.3,0.8,2.3,0.8v-6c0-0.1,0.1-0.2,0.2-0.2h0.3c0.1,0,0.2,0.1,0.2,0.2v12.8
		c0,0.1-0.1,0.2-0.2,0.2h-0.2c-0.2,0-0.2-0.1-0.3-0.2l-0.1-0.7c-0.2,0.2-1.2,1.1-2.6,1.1c-2,0-3.5-1.8-3.5-4
		C1309.9,446,1311.5,444.2,1313.7,444.2z M1313.5,451.4c1.7,0,2.5-1.3,2.5-1.3v-4.3c0,0-0.9-0.8-2.3-0.8c-1.7,0-3,1.4-3,3.2
		C1310.7,450,1311.9,451.4,1313.5,451.4z"/>
	<path class="st1" d="M1319.7,444.6c0-0.1,0.1-0.2,0.3-0.2h0.2c0.1,0,0.2,0.1,0.2,0.2l0.1,0.8c0.2-0.3,1.3-1.2,2.8-1.2
		c2.1,0,3.1,1.3,3.1,3.5v4.1c0,0.1-0.1,0.2-0.2,0.2h-0.3c-0.1,0-0.2-0.1-0.2-0.2v-4.1c0-1.7-0.8-2.7-2.3-2.7c-1.6,0-2.6,1.2-2.7,1.3
		v5.4c0,0.2-0.1,0.2-0.2,0.2h-0.4c-0.1,0-0.2-0.1-0.2-0.2V444.6z"/>
	<path class="st1" d="M1328,442.7c-0.1-0.1-0.1-0.2,0.1-0.3c0.1-0.1,1-0.6,1.1-1.8c0-0.3,0-0.5-0.1-0.7c-0.1,0.1-0.2,0.1-0.3,0.1
		c-0.5,0-0.8-0.4-0.8-0.8c0-0.5,0.3-0.7,0.8-0.7c0.6,0,1.1,0.5,1.1,1.8c0,1.5-1,2.4-1.4,2.6c-0.1,0.1-0.2,0.1-0.3,0L1328,442.7z"/>
	<path class="st1" d="M1332.4,445.1h-0.9c-0.2,0-0.2-0.1-0.2-0.2v-0.3c0-0.1,0.1-0.2,0.2-0.2h0.9v-2.1c0-0.2,0.1-0.2,0.2-0.2l0.3,0
		c0.1,0,0.2,0.1,0.2,0.2v2.1h2.6c0.2,0,0.2,0.1,0.2,0.2v0.2c0,0.2-0.1,0.2-0.2,0.2h-2.6v4.8c0,0.9,0.1,1.4,1,1.4
		c0.7,0,1.5-0.4,1.7-0.5c0.2-0.1,0.2,0,0.3,0.1l0.1,0.2c0.1,0.1,0.1,0.2-0.1,0.3c-0.3,0.2-1.1,0.7-2.2,0.7c-1.6,0-1.7-0.9-1.7-2.1
		V445.1z"/>
	<path class="st1" d="M1345.6,444.2c1.4,0,2.3,0.8,2.3,0.8v-6c0-0.1,0.1-0.2,0.2-0.2h0.3c0.1,0,0.2,0.1,0.2,0.2v12.8
		c0,0.1-0.1,0.2-0.2,0.2h-0.2c-0.2,0-0.2-0.1-0.3-0.2l-0.1-0.7c-0.2,0.2-1.2,1.1-2.6,1.1c-2,0-3.5-1.8-3.5-4
		C1341.9,446,1343.4,444.2,1345.6,444.2z M1345.4,451.4c1.7,0,2.5-1.3,2.5-1.3v-4.3c0,0-0.9-0.8-2.3-0.8c-1.7,0-3,1.4-3,3.2
		C1342.7,450,1343.8,451.4,1345.4,451.4z"/>
	<path class="st1" d="M1354.8,444.2c2,0,3.4,1.5,3.4,3.5c0,0.3,0,0.7-0.3,0.7h-6.1c0.1,1.6,1.3,3,3,3c1,0,1.8-0.4,2.2-0.7
		c0.2-0.1,0.2-0.1,0.3,0l0.2,0.3c0.1,0.1,0,0.2-0.1,0.3c-0.4,0.4-1.6,0.9-2.8,0.9c-2.3,0-3.7-1.8-3.7-4
		C1351.1,446,1352.5,444.2,1354.8,444.2z M1357.4,447.7c0-1.5-0.9-2.8-2.6-2.8c-1.7,0-2.8,1.2-2.9,2.8H1357.4z"/>
	<path class="st1" d="M1360.1,451.1l0.2-0.3c0.1-0.1,0.2-0.1,0.3,0c0.2,0.2,1,0.7,2,0.7c1.1,0,1.8-0.6,1.8-1.3
		c0-0.9-0.9-1.2-2.1-1.7c-1.3-0.5-2.3-1.1-2.3-2.2c0-0.8,0.7-2,2.5-2c1,0,1.8,0.4,2.1,0.6c0.1,0.1,0.2,0.2,0.1,0.4l-0.1,0.2
		c-0.1,0.1-0.2,0.2-0.4,0.1c-0.2-0.1-0.9-0.5-1.7-0.5c-1.2,0-1.6,0.7-1.6,1.2c0,0.8,0.7,1.1,1.8,1.5c1.4,0.5,2.7,1,2.7,2.4
		c0,1.1-1.2,2.1-2.7,2.1c-1.3,0-2.1-0.5-2.5-0.9C1360.1,451.3,1360,451.2,1360.1,451.1z"/>
	<path class="st1" d="M1367.3,440.1c0-0.4,0.3-0.7,0.6-0.7c0.4,0,0.6,0.3,0.6,0.7c0,0.3-0.3,0.6-0.6,0.6
		C1367.6,440.7,1367.3,440.4,1367.3,440.1z M1367.5,444.6c0-0.1,0.1-0.2,0.2-0.2h0.3c0.1,0,0.2,0.1,0.2,0.2v7.1
		c0,0.2-0.1,0.2-0.2,0.2h-0.4c-0.1,0-0.2-0.1-0.2-0.2V444.6z"/>
	<path class="st1" d="M1371.7,449.3c-0.2-0.3-0.6-1-0.6-1.9c0-1.8,1.3-3.2,3.3-3.2c0.5,0,0.5,0,3.1,0c0.2,0,0.2,0.1,0.2,0.2v0.2
		c0,0.1-0.1,0.2-0.2,0.2l-1.4,0.1c0.4,0.2,1.2,0.9,1.2,2.4c0,1.7-1.2,3.2-3.2,3.2c-1.1,0-1.8-0.4-2.1-0.7c-0.2,0.1-1,0.5-1,1.4
		s0.8,1.1,1.5,1.1h2.8c1.6,0,2.8,0.7,2.8,2.4c0,1.6-1.6,3.1-3.9,3.1c-2.6,0-3.7-1.5-3.7-2.8c0-1.1,0.8-1.7,1.2-2
		c-0.4-0.1-1.5-0.6-1.5-1.7C1370.5,450.1,1371.5,449.4,1371.7,449.3z M1374.5,457.1c1.7,0,3-1,3-2.3c0-0.9-0.5-1.7-1.9-1.7h-2.4
		c-0.2,0-1.5,0.6-1.5,1.8C1371.6,456,1372.6,457.1,1374.5,457.1z M1376.7,447.4c0-1.6-1.1-2.4-2.3-2.4c-1.5,0-2.4,1.1-2.4,2.4
		c0,1.3,0.8,2.4,2.4,2.4C1375.8,449.8,1376.7,448.8,1376.7,447.4z"/>
	<path class="st1" d="M1380,444.6c0-0.1,0.1-0.2,0.3-0.2h0.2c0.1,0,0.2,0.1,0.2,0.2l0.1,0.8c0.2-0.3,1.3-1.2,2.8-1.2
		c2.1,0,3.1,1.3,3.1,3.5v4.1c0,0.1-0.1,0.2-0.2,0.2h-0.3c-0.1,0-0.2-0.1-0.2-0.2v-4.1c0-1.7-0.8-2.7-2.3-2.7c-1.6,0-2.6,1.2-2.7,1.3
		v5.4c0,0.2-0.1,0.2-0.2,0.2h-0.4c-0.1,0-0.2-0.1-0.2-0.2V444.6z"/>
	<path class="st1" d="M1288.8,467.9h-0.9c-0.2,0-0.2-0.1-0.2-0.2v-0.3c0-0.1,0.1-0.2,0.2-0.2h0.9v-2.1c0-0.2,0.1-0.2,0.2-0.2l0.3,0
		c0.1,0,0.2,0.1,0.2,0.2v2.1h2.6c0.2,0,0.2,0.1,0.2,0.2v0.2c0,0.2-0.1,0.2-0.2,0.2h-2.6v4.8c0,0.9,0.1,1.4,1,1.4
		c0.7,0,1.5-0.4,1.7-0.5c0.2-0.1,0.2,0,0.3,0.1l0.1,0.2c0.1,0.1,0.1,0.2-0.1,0.3c-0.3,0.2-1.1,0.7-2.2,0.7c-1.6,0-1.7-0.9-1.7-2.1
		V467.9z"/>
	<path class="st1" d="M1294.7,461.7c0-0.1,0.1-0.2,0.3-0.2h0.3c0.1,0,0.2,0.1,0.2,0.2v6.5c0.2-0.2,1.3-1.2,2.8-1.2
		c2,0,3.1,1.2,3.1,3.5v4.1c0,0.1-0.1,0.2-0.2,0.2h-0.3c-0.1,0-0.2-0.1-0.2-0.2v-4.1c0-1.7-0.8-2.7-2.3-2.7c-1.6,0-2.6,1.2-2.7,1.3
		v5.4c0,0.2-0.1,0.2-0.2,0.2h-0.4c-0.1,0-0.2-0.1-0.2-0.2V461.7z"/>
	<path class="st1" d="M1307.3,467c2,0,3.4,1.5,3.4,3.5c0,0.3,0,0.7-0.3,0.7h-6.1c0.1,1.6,1.3,3,3,3c1,0,1.8-0.4,2.2-0.7
		c0.2-0.1,0.2-0.1,0.3,0l0.2,0.3c0.1,0.1,0,0.2-0.1,0.3c-0.4,0.4-1.6,0.9-2.8,0.9c-2.3,0-3.7-1.8-3.7-4
		C1303.5,468.8,1305,467,1307.3,467z M1309.9,470.5c0-1.5-0.9-2.8-2.6-2.8c-1.7,0-2.8,1.2-2.9,2.8H1309.9z"/>
	<path class="st1" d="M1317.1,461.7c0-0.1,0.1-0.2,0.2-0.2h0.3c0.1,0,0.2,0.1,0.2,0.2v12.8c0,0.2-0.1,0.2-0.2,0.2h-0.4
		c-0.1,0-0.2-0.1-0.2-0.2V461.7z"/>
	<path class="st1" d="M1324.1,467c2.1,0,3.8,1.8,3.8,4c0,2.2-1.7,4-3.8,4c-2.1,0-3.8-1.8-3.8-4C1320.2,468.8,1321.9,467,1324.1,467z
		 M1324.1,474.2c1.7,0,3-1.4,3-3.2c0-1.7-1.3-3.2-3-3.2c-1.7,0-3,1.4-3,3.2C1321.1,472.8,1322.4,474.2,1324.1,474.2z"/>
	<path class="st1" d="M1330.7,472.1c-0.2-0.3-0.6-1-0.6-1.9c0-1.8,1.3-3.2,3.3-3.2c0.5,0,0.5,0,3.1,0c0.2,0,0.2,0.1,0.2,0.2v0.2
		c0,0.1-0.1,0.2-0.2,0.2l-1.4,0.1c0.4,0.2,1.2,0.9,1.2,2.4c0,1.7-1.2,3.2-3.2,3.2c-1.1,0-1.8-0.4-2.1-0.7c-0.2,0.1-1,0.5-1,1.4
		c0,0.9,0.8,1.1,1.5,1.1h2.8c1.6,0,2.8,0.7,2.8,2.4c0,1.6-1.6,3.1-3.9,3.1c-2.6,0-3.7-1.5-3.7-2.8c0-1.1,0.8-1.7,1.2-2
		c-0.4-0.1-1.5-0.6-1.5-1.7C1329.4,472.9,1330.5,472.2,1330.7,472.1z M1333.4,479.9c1.7,0,3-1,3-2.3c0-0.9-0.5-1.7-1.9-1.7h-2.4
		c-0.2,0-1.5,0.6-1.5,1.8C1330.5,478.8,1331.6,479.9,1333.4,479.9z M1335.6,470.2c0-1.6-1.1-2.4-2.3-2.4c-1.5,0-2.4,1.1-2.4,2.4
		c0,1.3,0.8,2.4,2.4,2.4C1334.7,472.6,1335.6,471.6,1335.6,470.2z"/>
	<path class="st1" d="M1342.2,467c2.1,0,3.8,1.8,3.8,4c0,2.2-1.7,4-3.8,4c-2.1,0-3.8-1.8-3.8-4C1338.4,468.8,1340.1,467,1342.2,467z
		 M1342.2,474.2c1.7,0,3-1.4,3-3.2c0-1.7-1.3-3.2-3-3.2c-1.7,0-3,1.4-3,3.2C1339.2,472.8,1340.5,474.2,1342.2,474.2z"/>
	<path class="st1" d="M1352.5,461.7c0-0.1,0.1-0.2,0.2-0.2h0.3c0.1,0,0.2,0.1,0.2,0.2v6c0,0,0.9-0.8,2.4-0.8c2.1,0,3.7,1.7,3.7,4
		c0,2.2-1.5,4-3.5,4c-1.5,0-2.4-0.9-2.6-1.1l-0.1,0.7c0,0.2-0.1,0.2-0.3,0.2h-0.2c-0.1,0-0.2-0.1-0.2-0.2V461.7z M1355.8,474.2
		c1.6,0,2.8-1.5,2.8-3.2c0-1.8-1.3-3.2-3-3.2c-1.4,0-2.2,0.8-2.2,0.8v4.3C1353.4,473,1354.2,474.2,1355.8,474.2z"/>
	<path class="st1" d="M1361.6,467.4c0-0.1,0.1-0.2,0.2-0.2h0.3c0.1,0,0.2,0.1,0.2,0.2v4.1c0,1.8,0.8,2.7,2.3,2.7
		c1.6,0,2.5-1.2,2.5-1.3v-5.4c0-0.2,0.1-0.2,0.2-0.2h0.3c0.1,0,0.2,0.1,0.2,0.2v7.1c0,0.1-0.1,0.2-0.2,0.2h-0.2
		c-0.2,0-0.2-0.1-0.2-0.2l-0.1-0.7c-0.2,0.3-1.1,1.2-2.6,1.2c-2.1,0-3-1.3-3-3.5V467.4z"/>
	<path class="st1" d="M1371.3,467.9h-0.9c-0.2,0-0.2-0.1-0.2-0.2v-0.3c0-0.1,0.1-0.2,0.2-0.2h0.9v-2.1c0-0.2,0.1-0.2,0.2-0.2l0.3,0
		c0.1,0,0.2,0.1,0.2,0.2v2.1h2.6c0.2,0,0.2,0.1,0.2,0.2v0.2c0,0.2-0.1,0.2-0.2,0.2h-2.6v4.8c0,0.9,0.1,1.4,1,1.4
		c0.7,0,1.5-0.4,1.7-0.5c0.2-0.1,0.2,0,0.3,0.1l0.1,0.2c0.1,0.1,0.1,0.2-0.1,0.3c-0.3,0.2-1.1,0.7-2.2,0.7c-1.6,0-1.7-0.9-1.7-2.1
		V467.9z"/>
	<path class="st1" d="M1381.9,461.7c0-0.1,0.1-0.2,0.2-0.2h0.4c0.1,0,0.2,0.1,0.2,0.2v12.8c0,0.2-0.1,0.2-0.3,0.2h-0.4
		c-0.1,0-0.2-0.1-0.2-0.2V461.7z"/>
	<path class="st1" d="M1393.6,467c1.4,0,2.3,0.8,2.3,0.8v-6c0-0.1,0.1-0.2,0.2-0.2h0.3c0.1,0,0.2,0.1,0.2,0.2v12.8
		c0,0.1-0.1,0.2-0.2,0.2h-0.2c-0.2,0-0.2-0.1-0.3-0.2l-0.1-0.7c-0.2,0.2-1.2,1.1-2.6,1.1c-2,0-3.5-1.8-3.5-4
		C1389.8,468.8,1391.4,467,1393.6,467z M1393.4,474.2c1.7,0,2.5-1.3,2.5-1.3v-4.3c0,0-0.9-0.8-2.3-0.8c-1.7,0-3,1.4-3,3.2
		C1390.7,472.8,1391.8,474.2,1393.4,474.2z"/>
	<path class="st1" d="M1402.8,467c2,0,3.4,1.5,3.4,3.5c0,0.3,0,0.7-0.3,0.7h-6.1c0.1,1.6,1.3,3,3,3c1,0,1.8-0.4,2.2-0.7
		c0.2-0.1,0.2-0.1,0.3,0l0.2,0.3c0.1,0.1,0,0.2-0.1,0.3c-0.4,0.4-1.6,0.9-2.8,0.9c-2.3,0-3.7-1.8-3.7-4
		C1399.1,468.8,1400.5,467,1402.8,467z M1405.4,470.5c0-1.5-0.9-2.8-2.6-2.8c-1.7,0-2.8,1.2-2.9,2.8H1405.4z"/>
	<path class="st1" d="M1408,473.9l0.2-0.3c0.1-0.1,0.2-0.1,0.3,0c0.2,0.2,1,0.7,2,0.7c1.1,0,1.8-0.6,1.8-1.3c0-0.9-0.9-1.2-2.1-1.7
		c-1.3-0.5-2.3-1.1-2.3-2.2c0-0.8,0.7-2,2.5-2c1,0,1.8,0.4,2.1,0.6c0.1,0.1,0.2,0.2,0.1,0.4l-0.1,0.2c-0.1,0.1-0.2,0.2-0.4,0.1
		c-0.2-0.1-0.9-0.5-1.7-0.5c-1.2,0-1.6,0.7-1.6,1.2c0,0.8,0.7,1.1,1.8,1.5c1.4,0.5,2.7,1,2.7,2.4c0,1.1-1.2,2.1-2.7,2.1
		c-1.3,0-2.1-0.5-2.5-0.9C1408,474.1,1408,474,1408,473.9z"/>
	<path class="st1" d="M1415.3,462.9c0-0.4,0.3-0.7,0.6-0.7c0.4,0,0.6,0.3,0.6,0.7c0,0.3-0.3,0.6-0.6,0.6
		C1415.6,463.5,1415.3,463.2,1415.3,462.9z M1415.5,467.4c0-0.1,0.1-0.2,0.2-0.2h0.3c0.1,0,0.2,0.1,0.2,0.2v7.1
		c0,0.2-0.1,0.2-0.2,0.2h-0.4c-0.1,0-0.2-0.1-0.2-0.2V467.4z"/>
	<path class="st1" d="M1419.7,472.1c-0.2-0.3-0.6-1-0.6-1.9c0-1.8,1.3-3.2,3.3-3.2c0.5,0,0.5,0,3.1,0c0.2,0,0.2,0.1,0.2,0.2v0.2
		c0,0.1-0.1,0.2-0.2,0.2l-1.4,0.1c0.4,0.2,1.2,0.9,1.2,2.4c0,1.7-1.2,3.2-3.2,3.2c-1.1,0-1.8-0.4-2.1-0.7c-0.2,0.1-1,0.5-1,1.4
		c0,0.9,0.8,1.1,1.5,1.1h2.8c1.6,0,2.8,0.7,2.8,2.4c0,1.6-1.6,3.1-3.9,3.1c-2.6,0-3.7-1.5-3.7-2.8c0-1.1,0.8-1.7,1.2-2
		c-0.4-0.1-1.5-0.6-1.5-1.7C1418.5,472.9,1419.5,472.2,1419.7,472.1z M1422.4,479.9c1.7,0,3-1,3-2.3c0-0.9-0.5-1.7-1.9-1.7h-2.4
		c-0.2,0-1.5,0.6-1.5,1.8C1419.6,478.8,1420.6,479.9,1422.4,479.9z M1424.7,470.2c0-1.6-1.1-2.4-2.3-2.4c-1.5,0-2.4,1.1-2.4,2.4
		c0,1.3,0.8,2.4,2.4,2.4C1423.7,472.6,1424.7,471.6,1424.7,470.2z"/>
	<path class="st1" d="M1428,467.4c0-0.1,0.1-0.2,0.3-0.2h0.2c0.1,0,0.2,0.1,0.2,0.2l0.1,0.8c0.2-0.3,1.3-1.2,2.8-1.2
		c2.1,0,3.1,1.3,3.1,3.5v4.1c0,0.1-0.1,0.2-0.2,0.2h-0.3c-0.1,0-0.2-0.1-0.2-0.2v-4.1c0-1.7-0.8-2.7-2.3-2.7c-1.6,0-2.6,1.2-2.7,1.3
		v5.4c0,0.2-0.1,0.2-0.2,0.2h-0.4c-0.1,0-0.2-0.1-0.2-0.2V467.4z"/>
	<path class="st1" d="M1440.6,467c2,0,3.4,1.5,3.4,3.5c0,0.3,0,0.7-0.3,0.7h-6.1c0.1,1.6,1.3,3,3,3c1,0,1.8-0.4,2.2-0.7
		c0.2-0.1,0.2-0.1,0.3,0l0.2,0.3c0.1,0.1,0,0.2-0.1,0.3c-0.4,0.4-1.6,0.9-2.8,0.9c-2.3,0-3.7-1.8-3.7-4
		C1436.9,468.8,1438.3,467,1440.6,467z M1443.2,470.5c0-1.5-0.9-2.8-2.6-2.8c-1.7,0-2.8,1.2-2.9,2.8H1443.2z"/>
	<path class="st1" d="M1449.5,467c1.4,0,2.3,0.8,2.3,0.8v-6c0-0.1,0.1-0.2,0.2-0.2h0.3c0.1,0,0.2,0.1,0.2,0.2v12.8
		c0,0.1-0.1,0.2-0.2,0.2h-0.2c-0.2,0-0.2-0.1-0.3-0.2l-0.1-0.7c-0.2,0.2-1.2,1.1-2.6,1.1c-2,0-3.5-1.8-3.5-4
		C1445.7,468.8,1447.3,467,1449.5,467z M1449.3,474.2c1.7,0,2.5-1.3,2.5-1.3v-4.3c0,0-0.9-0.8-2.3-0.8c-1.7,0-3,1.4-3,3.2
		C1446.6,472.8,1447.7,474.2,1449.3,474.2z"/>
	<path class="st1" d="M1288.8,490.7h-0.9c-0.2,0-0.2-0.1-0.2-0.2v-0.3c0-0.1,0.1-0.2,0.2-0.2h0.9v-2.1c0-0.2,0.1-0.2,0.2-0.2l0.3,0
		c0.1,0,0.2,0.1,0.2,0.2v2.1h2.6c0.2,0,0.2,0.1,0.2,0.2v0.2c0,0.2-0.1,0.2-0.2,0.2h-2.6v4.8c0,0.9,0.1,1.4,1,1.4
		c0.7,0,1.5-0.4,1.7-0.5c0.2-0.1,0.2,0,0.3,0.1l0.1,0.2c0.1,0.1,0.1,0.2-0.1,0.3c-0.3,0.2-1.1,0.7-2.2,0.7c-1.6,0-1.7-0.9-1.7-2.1
		V490.7z"/>
	<path class="st1" d="M1294.7,484.5c0-0.1,0.1-0.2,0.3-0.2h0.3c0.1,0,0.2,0.1,0.2,0.2v6.5c0.2-0.2,1.3-1.2,2.8-1.2
		c2,0,3.1,1.2,3.1,3.5v4.1c0,0.1-0.1,0.2-0.2,0.2h-0.3c-0.1,0-0.2-0.1-0.2-0.2v-4.1c0-1.7-0.8-2.7-2.3-2.7c-1.6,0-2.6,1.2-2.7,1.3
		v5.4c0,0.2-0.1,0.2-0.2,0.2h-0.4c-0.1,0-0.2-0.1-0.2-0.2V484.5z"/>
	<path class="st1" d="M1307.3,489.8c2,0,3.4,1.5,3.4,3.5c0,0.3,0,0.7-0.3,0.7h-6.1c0.1,1.6,1.3,3,3,3c1,0,1.8-0.4,2.2-0.7
		c0.2-0.1,0.2-0.1,0.3,0l0.2,0.3c0.1,0.1,0,0.2-0.1,0.3c-0.4,0.4-1.6,0.9-2.8,0.9c-2.3,0-3.7-1.8-3.7-4
		C1303.5,491.6,1305,489.8,1307.3,489.8z M1309.9,493.3c0-1.5-0.9-2.8-2.6-2.8c-1.7,0-2.8,1.2-2.9,2.8H1309.9z"/>
	<path class="st1" d="M1317.9,503.1c0,0.1-0.1,0.2-0.2,0.2h-0.3c-0.1,0-0.2-0.1-0.2-0.2v-12.8c0-0.2,0.1-0.2,0.3-0.2h0.2
		c0.1,0,0.2,0.1,0.2,0.2l0.1,0.5c0.2-0.2,1.1-0.9,2.5-0.9c2.1,0,3.7,1.8,3.7,4c0,2.2-1.6,4-3.8,4c-1.3,0-2.1-0.6-2.3-0.8V503.1z
		 M1320.1,497c1.8,0,3.1-1.4,3.1-3.2c0-1.8-1.2-3.2-2.9-3.2c-1.5,0-2.3,1-2.4,1.1v4.4C1318,496.2,1318.8,497,1320.1,497z"/>
	<path class="st1" d="M1329.6,489.8c2.1,0,3.8,1.8,3.8,4c0,2.2-1.7,4-3.8,4c-2.1,0-3.8-1.8-3.8-4
		C1325.8,491.6,1327.5,489.8,1329.6,489.8z M1329.6,497c1.7,0,3-1.4,3-3.2c0-1.7-1.3-3.2-3-3.2c-1.7,0-3,1.4-3,3.2
		C1326.6,495.6,1327.9,497,1329.6,497z"/>
	<path class="st1" d="M1335.3,496.7l0.2-0.3c0.1-0.1,0.2-0.1,0.3,0c0.2,0.2,1,0.7,2,0.7c1.1,0,1.8-0.6,1.8-1.3
		c0-0.9-0.9-1.2-2.1-1.7c-1.3-0.5-2.3-1.1-2.3-2.2c0-0.8,0.7-2,2.5-2c1,0,1.8,0.4,2.1,0.6c0.1,0.1,0.2,0.2,0.1,0.4l-0.1,0.2
		c-0.1,0.1-0.2,0.2-0.4,0.1c-0.2-0.1-0.9-0.5-1.7-0.5c-1.2,0-1.6,0.7-1.6,1.2c0,0.8,0.7,1.1,1.8,1.5c1.4,0.5,2.7,1,2.7,2.4
		c0,1.1-1.2,2.1-2.7,2.1c-1.3,0-2.1-0.5-2.5-0.9C1335.3,496.9,1335.2,496.8,1335.3,496.7z"/>
	<path class="st1" d="M1343.1,490.7h-0.9c-0.2,0-0.2-0.1-0.2-0.2v-0.3c0-0.1,0.1-0.2,0.2-0.2h0.9v-2.1c0-0.2,0.1-0.2,0.2-0.2l0.3,0
		c0.1,0,0.2,0.1,0.2,0.2v2.1h2.6c0.2,0,0.2,0.1,0.2,0.2v0.2c0,0.2-0.1,0.2-0.2,0.2h-2.6v4.8c0,0.9,0.1,1.4,1,1.4
		c0.7,0,1.5-0.4,1.7-0.5c0.2-0.1,0.2,0,0.3,0.1l0.1,0.2c0.1,0.1,0.1,0.2-0.1,0.3c-0.3,0.2-1.1,0.7-2.2,0.7c-1.6,0-1.7-0.9-1.7-2.1
		V490.7z"/>
	<path class="st1" d="M1352.2,489.8c2,0,3.4,1.5,3.4,3.5c0,0.3,0,0.7-0.3,0.7h-6.1c0.1,1.6,1.3,3,3,3c1,0,1.8-0.4,2.2-0.7
		c0.2-0.1,0.2-0.1,0.3,0l0.2,0.3c0.1,0.1,0,0.2-0.1,0.3c-0.4,0.4-1.6,0.9-2.8,0.9c-2.3,0-3.7-1.8-3.7-4
		C1348.5,491.6,1349.9,489.8,1352.2,489.8z M1354.8,493.3c0-1.5-0.9-2.8-2.6-2.8c-1.7,0-2.8,1.2-2.9,2.8H1354.8z"/>
	<path class="st1" d="M1357.9,490.2c0-0.1,0.1-0.2,0.2-0.2h0.2c0.1,0,0.2,0.1,0.2,0.2l0.1,0.8c0.2-0.3,1-1.2,2.4-1.2
		c0.6,0,1,0.2,1.2,0.2c0.2,0.1,0.3,0.2,0.2,0.3l-0.2,0.4c-0.1,0.1-0.2,0.2-0.3,0.1c-0.1,0-0.5-0.2-1-0.2c-1.5,0-2.2,1.2-2.3,1.3v5.4
		c0,0.2-0.1,0.2-0.2,0.2h-0.4c-0.1,0-0.2-0.1-0.2-0.2V490.2z"/>
	<path class="st1" d="M1368.1,490.2c0-0.1,0.1-0.2,0.2-0.2h0.3c0.1,0,0.2,0.1,0.2,0.2v4.1c0,1.8,0.8,2.7,2.3,2.7
		c1.6,0,2.5-1.2,2.5-1.3v-5.4c0-0.2,0.1-0.2,0.2-0.2h0.3c0.1,0,0.2,0.1,0.2,0.2v7.1c0,0.1-0.1,0.2-0.2,0.2h-0.2
		c-0.2,0-0.2-0.1-0.2-0.2l-0.1-0.7c-0.2,0.3-1.1,1.2-2.6,1.2c-2.1,0-3-1.3-3-3.5V490.2z"/>
	<path class="st1" d="M1376.9,496.7l0.2-0.3c0.1-0.1,0.2-0.1,0.3,0c0.2,0.2,1,0.7,2,0.7c1.1,0,1.8-0.6,1.8-1.3
		c0-0.9-0.9-1.2-2.1-1.7c-1.3-0.5-2.3-1.1-2.3-2.2c0-0.8,0.7-2,2.5-2c1,0,1.8,0.4,2.1,0.6c0.1,0.1,0.2,0.2,0.1,0.4l-0.1,0.2
		c-0.1,0.1-0.2,0.2-0.4,0.1c-0.2-0.1-0.9-0.5-1.7-0.5c-1.2,0-1.6,0.7-1.6,1.2c0,0.8,0.7,1.1,1.8,1.5c1.4,0.5,2.7,1,2.7,2.4
		c0,1.1-1.2,2.1-2.7,2.1c-1.3,0-2.1-0.5-2.5-0.9C1376.9,496.9,1376.9,496.8,1376.9,496.7z"/>
	<path class="st1" d="M1384.2,485.7c0-0.4,0.3-0.7,0.6-0.7c0.4,0,0.6,0.3,0.6,0.7c0,0.3-0.3,0.6-0.6,0.6
		C1384.5,486.3,1384.2,486,1384.2,485.7z M1384.4,490.2c0-0.1,0.1-0.2,0.2-0.2h0.3c0.1,0,0.2,0.1,0.2,0.2v7.1c0,0.2-0.1,0.2-0.2,0.2
		h-0.4c-0.1,0-0.2-0.1-0.2-0.2V490.2z"/>
	<path class="st1" d="M1388.1,490.2c0-0.1,0.1-0.2,0.3-0.2h0.2c0.1,0,0.2,0.1,0.2,0.2l0.1,0.8c0.2-0.3,1.3-1.2,2.8-1.2
		c2.1,0,3.1,1.3,3.1,3.5v4.1c0,0.1-0.1,0.2-0.2,0.2h-0.3c-0.1,0-0.2-0.1-0.2-0.2v-4.1c0-1.7-0.8-2.7-2.3-2.7c-1.6,0-2.6,1.2-2.7,1.3
		v5.4c0,0.2-0.1,0.2-0.2,0.2h-0.4c-0.1,0-0.2-0.1-0.2-0.2V490.2z"/>
	<path class="st1" d="M1398,494.9c-0.2-0.3-0.6-1-0.6-1.9c0-1.8,1.3-3.2,3.3-3.2c0.5,0,0.5,0,3.1,0c0.2,0,0.2,0.1,0.2,0.2v0.2
		c0,0.1-0.1,0.2-0.2,0.2l-1.4,0.1c0.4,0.2,1.2,0.9,1.2,2.4c0,1.7-1.2,3.2-3.2,3.2c-1.1,0-1.8-0.4-2.1-0.7c-0.2,0.1-1,0.5-1,1.4
		c0,0.9,0.8,1.1,1.5,1.1h2.8c1.6,0,2.8,0.7,2.8,2.4c0,1.6-1.6,3.1-3.9,3.1c-2.6,0-3.7-1.5-3.7-2.8c0-1.1,0.8-1.7,1.2-2
		c-0.4-0.1-1.5-0.6-1.5-1.7C1396.8,495.7,1397.8,495,1398,494.9z M1400.7,502.7c1.7,0,3-1,3-2.3c0-0.9-0.5-1.7-1.9-1.7h-2.4
		c-0.2,0-1.5,0.6-1.5,1.8C1397.9,501.6,1398.9,502.7,1400.7,502.7z M1403,493c0-1.6-1.1-2.4-2.3-2.4c-1.5,0-2.4,1.1-2.4,2.4
		c0,1.3,0.8,2.4,2.4,2.4C1402,495.4,1403,494.4,1403,493z"/>
	<path class="st1" d="M1411,484.5c0-0.1,0.1-0.2,0.2-0.2h4.1c2.4,0,4.3,1.9,4.3,4.3c0,2.4-1.9,4.3-4.3,4.3h-3.5v4.5
		c0,0.1-0.1,0.2-0.3,0.2h-0.3c-0.1,0-0.2-0.1-0.2-0.2V484.5z M1415.3,492c1.9,0,3.4-1.5,3.4-3.5c0-1.9-1.6-3.3-3.5-3.3h-3.4v6.8
		H1415.3z"/>
	<path class="st1" d="M1421.6,484.5c0-0.1,0.1-0.2,0.3-0.2h0.3c0.1,0,0.2,0.1,0.2,0.2v6.5c0.2-0.2,1.3-1.2,2.8-1.2
		c2,0,3.1,1.2,3.1,3.5v4.1c0,0.1-0.1,0.2-0.2,0.2h-0.3c-0.1,0-0.2-0.1-0.2-0.2v-4.1c0-1.7-0.8-2.7-2.3-2.7c-1.6,0-2.6,1.2-2.7,1.3
		v5.4c0,0.2-0.1,0.2-0.2,0.2h-0.4c-0.1,0-0.2-0.1-0.2-0.2V484.5z"/>
	<path class="st1" d="M1434.2,489.8c2.1,0,3.8,1.8,3.8,4c0,2.2-1.7,4-3.8,4c-2.1,0-3.8-1.8-3.8-4
		C1430.4,491.6,1432.1,489.8,1434.2,489.8z M1434.2,497c1.7,0,3-1.4,3-3.2c0-1.7-1.3-3.2-3-3.2c-1.7,0-3,1.4-3,3.2
		C1431.2,495.6,1432.5,497,1434.2,497z"/>
	<path class="st1" d="M1440.7,490.7h-0.9c-0.2,0-0.2-0.1-0.2-0.2v-0.3c0-0.1,0.1-0.2,0.2-0.2h0.9v-2.1c0-0.2,0.1-0.2,0.2-0.2l0.3,0
		c0.1,0,0.2,0.1,0.2,0.2v2.1h2.6c0.2,0,0.2,0.1,0.2,0.2v0.2c0,0.2-0.1,0.2-0.2,0.2h-2.6v4.8c0,0.9,0.1,1.4,1,1.4
		c0.7,0,1.5-0.4,1.7-0.5c0.2-0.1,0.2,0,0.3,0.1l0.1,0.2c0.1,0.1,0.1,0.2-0.1,0.3c-0.3,0.2-1.1,0.7-2.2,0.7c-1.6,0-1.7-0.9-1.7-2.1
		V490.7z"/>
	<path class="st1" d="M1449.9,489.8c2.1,0,3.8,1.8,3.8,4c0,2.2-1.7,4-3.8,4c-2.1,0-3.8-1.8-3.8-4
		C1446,491.6,1447.7,489.8,1449.9,489.8z M1449.9,497c1.7,0,3-1.4,3-3.2c0-1.7-1.3-3.2-3-3.2c-1.7,0-3,1.4-3,3.2
		C1446.9,495.6,1448.2,497,1449.9,497z"/>
	<path class="st1" d="M1455.6,496.7l0.2-0.3c0.1-0.1,0.2-0.1,0.3,0c0.2,0.2,1,0.7,2,0.7c1.1,0,1.8-0.6,1.8-1.3
		c0-0.9-0.9-1.2-2.1-1.7c-1.3-0.5-2.3-1.1-2.3-2.2c0-0.8,0.7-2,2.5-2c1,0,1.8,0.4,2.1,0.6c0.1,0.1,0.2,0.2,0.1,0.4l-0.1,0.2
		c-0.1,0.1-0.2,0.2-0.4,0.1c-0.2-0.1-0.9-0.5-1.7-0.5c-1.2,0-1.6,0.7-1.6,1.2c0,0.8,0.7,1.1,1.8,1.5c1.4,0.5,2.7,1,2.7,2.4
		c0,1.1-1.2,2.1-2.7,2.1c-1.3,0-2.1-0.5-2.5-0.9C1455.6,496.9,1455.5,496.8,1455.6,496.7z"/>
	<path class="st1" d="M1463,484.5c0-0.1,0.1-0.2,0.3-0.2h0.3c0.1,0,0.2,0.1,0.2,0.2v6.5c0.2-0.2,1.3-1.2,2.8-1.2
		c2,0,3.1,1.2,3.1,3.5v4.1c0,0.1-0.1,0.2-0.2,0.2h-0.3c-0.1,0-0.2-0.1-0.2-0.2v-4.1c0-1.7-0.8-2.7-2.3-2.7c-1.6,0-2.6,1.2-2.7,1.3
		v5.4c0,0.2-0.1,0.2-0.2,0.2h-0.4c-0.1,0-0.2-0.1-0.2-0.2V484.5z"/>
	<path class="st1" d="M1475.7,489.8c2.1,0,3.8,1.8,3.8,4c0,2.2-1.7,4-3.8,4c-2.1,0-3.8-1.8-3.8-4
		C1471.9,491.6,1473.5,489.8,1475.7,489.8z M1475.7,497c1.7,0,3-1.4,3-3.2c0-1.7-1.3-3.2-3-3.2c-1.7,0-3,1.4-3,3.2
		C1472.7,495.6,1474,497,1475.7,497z"/>
	<path class="st1" d="M1482.6,503.1c0,0.1-0.1,0.2-0.2,0.2h-0.3c-0.1,0-0.2-0.1-0.2-0.2v-12.8c0-0.2,0.1-0.2,0.3-0.2h0.2
		c0.1,0,0.2,0.1,0.2,0.2l0.1,0.5c0.2-0.2,1.1-0.9,2.5-0.9c2.1,0,3.7,1.8,3.7,4c0,2.2-1.6,4-3.8,4c-1.3,0-2.1-0.6-2.3-0.8V503.1z
		 M1484.8,497c1.8,0,3.1-1.4,3.1-3.2c0-1.8-1.2-3.2-2.9-3.2c-1.5,0-2.3,1-2.4,1.1v4.4C1482.7,496.2,1483.5,497,1484.8,497z"/>
	<path class="st1" d="M1491.8,496.3c0.4,0,0.8,0.3,0.8,0.8c0,0.4-0.3,0.8-0.8,0.8c-0.4,0-0.8-0.3-0.8-0.8
		C1491,496.6,1491.3,496.3,1491.8,496.3z"/>
	<path class="st1" d="M1289,530.1c0-0.1,0.1-0.2,0.2-0.2h0.4c0.1,0,0.2,0.1,0.2,0.2V543c0,0.2-0.1,0.2-0.3,0.2h-0.4
		c-0.1,0-0.2-0.1-0.2-0.2V530.1z"/>
	<path class="st1" d="M1297.5,535.8c0-0.1,0.1-0.2,0.2-0.2h0.2c0.1,0,0.2,0.1,0.2,0.2l0.1,0.8c0.2-0.3,1.1-1.2,2.6-1.2
		c1.2,0,2,0.5,2.5,1.4c0.2-0.3,1.3-1.4,2.8-1.4c2.1,0,3,1.3,3,3.5v4.1c0,0.1-0.1,0.2-0.2,0.2h-0.4c-0.1,0-0.2-0.1-0.2-0.2v-4.1
		c0-1.7-0.8-2.7-2.2-2.7s-2.3,1-2.5,1.3c0.1,0.4,0.2,0.9,0.2,1.4v4.1c0,0.1-0.1,0.2-0.2,0.2h-0.4c-0.1,0-0.2-0.1-0.2-0.2v-4.1
		c0-1.7-0.8-2.7-2.2-2.7c-1.5,0-2.4,1.2-2.5,1.3v5.4c0,0.2-0.1,0.2-0.2,0.2h-0.4c-0.1,0-0.2-0.1-0.2-0.2V535.8z"/>
	<path class="st1" d="M1314.6,538.3c0.9,0,1.7,0.3,1.9,0.3c0-1.7-0.2-2.5-1.7-2.5c-1.3,0-2.1,0.5-2.3,0.5c-0.2,0.1-0.2,0-0.3-0.2
		l-0.1-0.2c-0.1-0.2,0-0.2,0.1-0.3c0.1,0,1-0.6,2.6-0.6c2.3,0,2.4,1.4,2.4,3.3v4.2c0,0.1-0.1,0.2-0.2,0.2h-0.2
		c-0.1,0-0.2-0.1-0.2-0.2l-0.1-0.7c-0.5,0.5-1.4,1.1-2.6,1.1c-1.4,0-2.5-1-2.5-2.5C1311.4,539.4,1312.6,538.3,1314.6,538.3z
		 M1314,542.6c1.2,0,2.2-0.7,2.5-1.2v-2.1c-0.2-0.1-1-0.4-1.9-0.4c-1.4,0-2.4,0.7-2.4,1.9C1312.2,541.9,1312.9,542.6,1314,542.6z"/>
	<path class="st1" d="M1323.3,535.4c1.4,0,2.3,0.8,2.3,0.8v-6c0-0.1,0.1-0.2,0.2-0.2h0.3c0.1,0,0.2,0.1,0.2,0.2V543
		c0,0.1-0.1,0.2-0.2,0.2h-0.2c-0.2,0-0.2-0.1-0.3-0.2l-0.1-0.7c-0.2,0.2-1.2,1.1-2.6,1.1c-2,0-3.5-1.8-3.5-4
		C1319.6,537.2,1321.1,535.4,1323.3,535.4z M1323.1,542.6c1.7,0,2.5-1.3,2.5-1.3V537c0,0-0.9-0.8-2.3-0.8c-1.7,0-3,1.4-3,3.2
		C1320.4,541.2,1321.5,542.6,1323.1,542.6z"/>
	<path class="st1" d="M1332.5,535.4c2,0,3.4,1.5,3.4,3.5c0,0.3,0,0.7-0.3,0.7h-6.1c0.1,1.6,1.3,3,3,3c1,0,1.8-0.4,2.2-0.7
		c0.2-0.1,0.2-0.1,0.3,0l0.2,0.3c0.1,0.1,0,0.2-0.1,0.3c-0.4,0.4-1.6,0.9-2.8,0.9c-2.3,0-3.7-1.8-3.7-4
		C1328.8,537.2,1330.2,535.4,1332.5,535.4z M1335.1,538.9c0-1.5-0.9-2.8-2.6-2.8c-1.7,0-2.8,1.2-2.9,2.8H1335.1z"/>
	<path class="st1" d="M1341.9,542.3l0.2-0.3c0.1-0.1,0.2-0.1,0.3,0c0.2,0.2,1,0.7,2,0.7c1.1,0,1.8-0.6,1.8-1.3
		c0-0.9-0.9-1.2-2.1-1.7c-1.3-0.5-2.3-1.1-2.3-2.2c0-0.8,0.7-2,2.5-2c1,0,1.8,0.4,2.1,0.6c0.1,0.1,0.2,0.2,0.1,0.4l-0.1,0.2
		c-0.1,0.1-0.2,0.2-0.4,0.1c-0.2-0.1-0.9-0.5-1.7-0.5c-1.2,0-1.6,0.7-1.6,1.2c0,0.8,0.7,1.1,1.8,1.5c1.4,0.5,2.7,1,2.7,2.4
		c0,1.1-1.2,2.1-2.7,2.1c-1.3,0-2.1-0.5-2.5-0.9C1341.9,542.5,1341.9,542.4,1341.9,542.3z"/>
	<path class="st1" d="M1349.3,535.8c0-0.1,0.1-0.2,0.2-0.2h0.3c0.1,0,0.2,0.1,0.2,0.2v4.1c0,1.8,0.8,2.7,2.3,2.7
		c1.6,0,2.5-1.2,2.5-1.3v-5.4c0-0.2,0.1-0.2,0.2-0.2h0.3c0.1,0,0.2,0.1,0.2,0.2v7.1c0,0.1-0.1,0.2-0.2,0.2h-0.2
		c-0.2,0-0.2-0.1-0.2-0.2l-0.1-0.7c-0.2,0.3-1.1,1.2-2.6,1.2c-2.1,0-3-1.3-3-3.5V535.8z"/>
	<path class="st1" d="M1358.6,535.8c0-0.1,0.1-0.2,0.2-0.2h0.2c0.1,0,0.2,0.1,0.2,0.2l0.1,0.8c0.2-0.3,1-1.2,2.4-1.2
		c0.6,0,1,0.2,1.2,0.2c0.2,0.1,0.3,0.2,0.2,0.3l-0.2,0.4c-0.1,0.1-0.2,0.2-0.3,0.1c-0.1,0-0.5-0.2-1-0.2c-1.5,0-2.2,1.2-2.3,1.3v5.4
		c0,0.2-0.1,0.2-0.2,0.2h-0.4c-0.1,0-0.2-0.1-0.2-0.2V535.8z"/>
	<path class="st1" d="M1367.9,535.4c2,0,3.4,1.5,3.4,3.5c0,0.3,0,0.7-0.3,0.7h-6.1c0.1,1.6,1.3,3,3,3c1,0,1.8-0.4,2.2-0.7
		c0.2-0.1,0.2-0.1,0.3,0l0.2,0.3c0.1,0.1,0,0.2-0.1,0.3c-0.4,0.4-1.6,0.9-2.8,0.9c-2.3,0-3.7-1.8-3.7-4
		C1364.1,537.2,1365.6,535.4,1367.9,535.4z M1370.5,538.9c0-1.5-0.9-2.8-2.6-2.8c-1.7,0-2.8,1.2-2.9,2.8H1370.5z"/>
	<path class="st1" d="M1288.8,559.1h-0.9c-0.2,0-0.2-0.1-0.2-0.2v-0.3c0-0.1,0.1-0.2,0.2-0.2h0.9v-2.1c0-0.2,0.1-0.2,0.2-0.2l0.3,0
		c0.1,0,0.2,0.1,0.2,0.2v2.1h2.6c0.2,0,0.2,0.1,0.2,0.2v0.2c0,0.2-0.1,0.2-0.2,0.2h-2.6v4.8c0,0.9,0.1,1.4,1,1.4
		c0.7,0,1.5-0.4,1.7-0.5c0.2-0.1,0.2,0,0.3,0.1l0.1,0.2c0.1,0.1,0.1,0.2-0.1,0.3c-0.3,0.2-1.1,0.7-2.2,0.7c-1.6,0-1.7-0.9-1.7-2.1
		V559.1z"/>
	<path class="st1" d="M1294.7,552.9c0-0.1,0.1-0.2,0.3-0.2h0.3c0.1,0,0.2,0.1,0.2,0.2v6.5c0.2-0.2,1.3-1.2,2.8-1.2
		c2,0,3.1,1.2,3.1,3.5v4.1c0,0.1-0.1,0.2-0.2,0.2h-0.3c-0.1,0-0.2-0.1-0.2-0.2v-4.1c0-1.7-0.8-2.7-2.3-2.7c-1.6,0-2.6,1.2-2.7,1.3
		v5.4c0,0.2-0.1,0.2-0.2,0.2h-0.4c-0.1,0-0.2-0.1-0.2-0.2V552.9z"/>
	<path class="st1" d="M1306.7,561.1c0.9,0,1.7,0.3,1.9,0.3c0-1.7-0.2-2.5-1.7-2.5c-1.3,0-2.1,0.5-2.3,0.5c-0.2,0.1-0.2,0-0.3-0.2
		l-0.1-0.2c-0.1-0.2,0-0.2,0.1-0.3c0.1,0,1-0.6,2.6-0.6c2.3,0,2.4,1.4,2.4,3.3v4.2c0,0.1-0.1,0.2-0.2,0.2h-0.2
		c-0.1,0-0.2-0.1-0.2-0.2l-0.1-0.7c-0.5,0.5-1.4,1.1-2.6,1.1c-1.4,0-2.5-1-2.5-2.5C1303.5,562.2,1304.7,561.1,1306.7,561.1z
		 M1306.1,565.4c1.2,0,2.2-0.7,2.5-1.2v-2.1c-0.2-0.1-1-0.4-1.9-0.4c-1.4,0-2.4,0.7-2.4,1.9C1304.3,564.7,1305,565.4,1306.1,565.4z"
		/>
	<path class="st1" d="M1312.5,559.1h-0.9c-0.2,0-0.2-0.1-0.2-0.2v-0.3c0-0.1,0.1-0.2,0.2-0.2h0.9v-2.1c0-0.2,0.1-0.2,0.2-0.2l0.3,0
		c0.1,0,0.2,0.1,0.2,0.2v2.1h2.6c0.2,0,0.2,0.1,0.2,0.2v0.2c0,0.2-0.1,0.2-0.2,0.2h-2.6v4.8c0,0.9,0.1,1.4,1,1.4
		c0.7,0,1.5-0.4,1.7-0.5c0.2-0.1,0.2,0,0.3,0.1l0.1,0.2c0.1,0.1,0.1,0.2-0.1,0.3c-0.3,0.2-1.1,0.7-2.2,0.7c-1.6,0-1.7-0.9-1.7-2.1
		V559.1z"/>
	<path class="st1" d="M1322.9,559.1h-0.9c-0.2,0-0.2-0.1-0.2-0.2v-0.3c0-0.1,0.1-0.2,0.2-0.2h0.9v-2.1c0-0.2,0.1-0.2,0.2-0.2l0.3,0
		c0.1,0,0.2,0.1,0.2,0.2v2.1h2.6c0.2,0,0.2,0.1,0.2,0.2v0.2c0,0.2-0.1,0.2-0.2,0.2h-2.6v4.8c0,0.9,0.1,1.4,1,1.4
		c0.7,0,1.5-0.4,1.7-0.5c0.2-0.1,0.2,0,0.3,0.1l0.1,0.2c0.1,0.1,0.1,0.2-0.1,0.3c-0.3,0.2-1.1,0.7-2.2,0.7c-1.6,0-1.7-0.9-1.7-2.1
		V559.1z"/>
	<path class="st1" d="M1328.8,552.9c0-0.1,0.1-0.2,0.3-0.2h0.3c0.1,0,0.2,0.1,0.2,0.2v6.5c0.2-0.2,1.3-1.2,2.8-1.2
		c2,0,3.1,1.2,3.1,3.5v4.1c0,0.1-0.1,0.2-0.2,0.2h-0.3c-0.1,0-0.2-0.1-0.2-0.2v-4.1c0-1.7-0.8-2.7-2.3-2.7c-1.6,0-2.6,1.2-2.7,1.3
		v5.4c0,0.2-0.1,0.2-0.2,0.2h-0.4c-0.1,0-0.2-0.1-0.2-0.2V552.9z"/>
	<path class="st1" d="M1341.4,558.2c2,0,3.4,1.5,3.4,3.5c0,0.3,0,0.7-0.3,0.7h-6.1c0.1,1.6,1.3,3,3,3c1,0,1.8-0.4,2.2-0.7
		c0.2-0.1,0.2-0.1,0.3,0l0.2,0.3c0.1,0.1,0,0.2-0.1,0.3c-0.4,0.4-1.6,0.9-2.8,0.9c-2.3,0-3.7-1.8-3.7-4
		C1337.7,560,1339.1,558.2,1341.4,558.2z M1344,561.7c0-1.5-0.9-2.8-2.6-2.8c-1.7,0-2.8,1.2-2.9,2.8H1344z"/>
	<path class="st1" d="M1351.2,552.9c0-0.1,0.1-0.2,0.2-0.2h0.3c0.1,0,0.2,0.1,0.2,0.2v6c0,0,0.9-0.8,2.4-0.8c2.1,0,3.7,1.7,3.7,4
		c0,2.2-1.5,4-3.5,4c-1.5,0-2.4-0.9-2.6-1.1l-0.1,0.7c0,0.2-0.1,0.2-0.3,0.2h-0.2c-0.1,0-0.2-0.1-0.2-0.2V552.9z M1354.6,565.4
		c1.6,0,2.8-1.5,2.8-3.2c0-1.8-1.3-3.2-3-3.2c-1.4,0-2.2,0.8-2.2,0.8v4.3C1352.1,564.2,1352.9,565.4,1354.6,565.4z"/>
	<path class="st1" d="M1363.1,561.1c0.9,0,1.7,0.3,1.9,0.3c0-1.7-0.2-2.5-1.7-2.5c-1.3,0-2.1,0.5-2.3,0.5c-0.2,0.1-0.2,0-0.3-0.2
		l-0.1-0.2c-0.1-0.2,0-0.2,0.1-0.3c0.1,0,1-0.6,2.6-0.6c2.3,0,2.4,1.4,2.4,3.3v4.2c0,0.1-0.1,0.2-0.2,0.2h-0.2
		c-0.1,0-0.2-0.1-0.2-0.2l-0.1-0.7c-0.5,0.5-1.4,1.1-2.6,1.1c-1.4,0-2.5-1-2.5-2.5C1359.9,562.2,1361.1,561.1,1363.1,561.1z
		 M1362.4,565.4c1.2,0,2.2-0.7,2.5-1.2v-2.1c-0.2-0.1-1-0.4-1.9-0.4c-1.4,0-2.4,0.7-2.4,1.9C1360.6,564.7,1361.4,565.4,1362.4,565.4
		z"/>
	<path class="st1" d="M1368.6,558.6c0-0.1,0.1-0.2,0.3-0.2h0.2c0.1,0,0.2,0.1,0.2,0.2l0.1,0.8c0.2-0.3,1.3-1.2,2.8-1.2
		c2.1,0,3.1,1.3,3.1,3.5v4.1c0,0.1-0.1,0.2-0.2,0.2h-0.3c-0.1,0-0.2-0.1-0.2-0.2v-4.1c0-1.7-0.8-2.7-2.3-2.7c-1.6,0-2.6,1.2-2.7,1.3
		v5.4c0,0.2-0.1,0.2-0.2,0.2h-0.4c-0.1,0-0.2-0.1-0.2-0.2V558.6z"/>
	<path class="st1" d="M1378,558.6c0-0.1,0.1-0.2,0.3-0.2h0.2c0.1,0,0.2,0.1,0.2,0.2l0.1,0.8c0.2-0.3,1.3-1.2,2.8-1.2
		c2.1,0,3.1,1.3,3.1,3.5v4.1c0,0.1-0.1,0.2-0.2,0.2h-0.3c-0.1,0-0.2-0.1-0.2-0.2v-4.1c0-1.7-0.8-2.7-2.3-2.7c-1.6,0-2.6,1.2-2.7,1.3
		v5.4c0,0.2-0.1,0.2-0.2,0.2h-0.4c-0.1,0-0.2-0.1-0.2-0.2V558.6z"/>
	<path class="st1" d="M1390.6,558.2c2,0,3.4,1.5,3.4,3.5c0,0.3,0,0.7-0.3,0.7h-6.1c0.1,1.6,1.3,3,3,3c1,0,1.8-0.4,2.2-0.7
		c0.2-0.1,0.2-0.1,0.3,0l0.2,0.3c0.1,0.1,0,0.2-0.1,0.3c-0.4,0.4-1.6,0.9-2.8,0.9c-2.3,0-3.7-1.8-3.7-4
		C1386.8,560,1388.3,558.2,1390.6,558.2z M1393.2,561.7c0-1.5-0.9-2.8-2.6-2.8c-1.7,0-2.8,1.2-2.9,2.8H1393.2z"/>
	<path class="st1" d="M1396.3,558.6c0-0.1,0.1-0.2,0.2-0.2h0.2c0.1,0,0.2,0.1,0.2,0.2l0.1,0.8c0.2-0.3,1-1.2,2.4-1.2
		c0.6,0,1,0.2,1.2,0.2c0.2,0.1,0.3,0.2,0.2,0.3l-0.2,0.4c-0.1,0.1-0.2,0.2-0.3,0.1c-0.1,0-0.5-0.2-1-0.2c-1.5,0-2.2,1.2-2.3,1.3v5.4
		c0,0.2-0.1,0.2-0.2,0.2h-0.4c-0.1,0-0.2-0.1-0.2-0.2V558.6z"/>
	<path class="st1" d="M1401.7,556.7c-0.1-0.1-0.1-0.2,0.1-0.3c0.1-0.1,1-0.6,1.1-1.8c0-0.3,0-0.5-0.1-0.7c-0.1,0.1-0.2,0.1-0.3,0.1
		c-0.5,0-0.8-0.4-0.8-0.8c0-0.5,0.3-0.7,0.8-0.7c0.6,0,1.1,0.5,1.1,1.8c0,1.5-1,2.4-1.4,2.6c-0.1,0.1-0.2,0.1-0.3,0L1401.7,556.7z"
		/>
	<path class="st1" d="M1405.3,565.1l0.2-0.3c0.1-0.1,0.2-0.1,0.3,0c0.2,0.2,1,0.7,2,0.7c1.1,0,1.8-0.6,1.8-1.3
		c0-0.9-0.9-1.2-2.1-1.7c-1.3-0.5-2.3-1.1-2.3-2.2c0-0.8,0.7-2,2.5-2c1,0,1.8,0.4,2.1,0.6c0.1,0.1,0.2,0.2,0.1,0.4l-0.1,0.2
		c-0.1,0.1-0.2,0.2-0.4,0.1c-0.2-0.1-0.9-0.5-1.7-0.5c-1.2,0-1.6,0.7-1.6,1.2c0,0.8,0.7,1.1,1.8,1.5c1.4,0.5,2.7,1,2.7,2.4
		c0,1.1-1.2,2.1-2.7,2.1c-1.3,0-2.1-0.5-2.5-0.9C1405.3,565.3,1405.3,565.2,1405.3,565.1z"/>
	<path class="st1" d="M1417.3,559.1h-0.9c-0.2,0-0.2-0.1-0.2-0.2v-0.3c0-0.1,0.1-0.2,0.2-0.2h0.9v-2.1c0-0.2,0.1-0.2,0.2-0.2l0.3,0
		c0.1,0,0.2,0.1,0.2,0.2v2.1h2.6c0.2,0,0.2,0.1,0.2,0.2v0.2c0,0.2-0.1,0.2-0.2,0.2h-2.6v4.8c0,0.9,0.1,1.4,1,1.4
		c0.7,0,1.5-0.4,1.7-0.5c0.2-0.1,0.2,0,0.3,0.1l0.1,0.2c0.1,0.1,0.1,0.2-0.1,0.3c-0.3,0.2-1.1,0.7-2.2,0.7c-1.6,0-1.7-0.9-1.7-2.1
		V559.1z"/>
	<path class="st1" d="M1423.2,552.9c0-0.1,0.1-0.2,0.3-0.2h0.3c0.1,0,0.2,0.1,0.2,0.2v6.5c0.2-0.2,1.3-1.2,2.8-1.2
		c2,0,3.1,1.2,3.1,3.5v4.1c0,0.1-0.1,0.2-0.2,0.2h-0.3c-0.1,0-0.2-0.1-0.2-0.2v-4.1c0-1.7-0.8-2.7-2.3-2.7c-1.6,0-2.6,1.2-2.7,1.3
		v5.4c0,0.2-0.1,0.2-0.2,0.2h-0.4c-0.1,0-0.2-0.1-0.2-0.2V552.9z"/>
	<path class="st1" d="M1435.8,558.2c2,0,3.4,1.5,3.4,3.5c0,0.3,0,0.7-0.3,0.7h-6.1c0.1,1.6,1.3,3,3,3c1,0,1.8-0.4,2.2-0.7
		c0.2-0.1,0.2-0.1,0.3,0l0.2,0.3c0.1,0.1,0,0.2-0.1,0.3c-0.4,0.4-1.6,0.9-2.8,0.9c-2.3,0-3.7-1.8-3.7-4
		C1432,560,1433.5,558.2,1435.8,558.2z M1438.4,561.7c0-1.5-0.9-2.8-2.6-2.8c-1.7,0-2.8,1.2-2.9,2.8H1438.4z"/>
	<path class="st1" d="M1441.5,558.6c0-0.1,0.1-0.2,0.2-0.2h0.2c0.1,0,0.2,0.1,0.2,0.2l0.1,0.8c0.2-0.3,1.1-1.2,2.6-1.2
		c1.2,0,2,0.5,2.5,1.4c0.2-0.3,1.3-1.4,2.8-1.4c2.1,0,3,1.3,3,3.5v4.1c0,0.1-0.1,0.2-0.2,0.2h-0.4c-0.1,0-0.2-0.1-0.2-0.2v-4.1
		c0-1.7-0.8-2.7-2.2-2.7s-2.3,1-2.5,1.3c0.1,0.4,0.2,0.9,0.2,1.4v4.1c0,0.1-0.1,0.2-0.2,0.2h-0.4c-0.1,0-0.2-0.1-0.2-0.2v-4.1
		c0-1.7-0.8-2.7-2.2-2.7c-1.5,0-2.4,1.2-2.5,1.3v5.4c0,0.2-0.1,0.2-0.2,0.2h-0.4c-0.1,0-0.2-0.1-0.2-0.2V558.6z"/>
	<path class="st1" d="M1459.2,558.2c2,0,3.4,1.5,3.4,3.5c0,0.3,0,0.7-0.3,0.7h-6.1c0.1,1.6,1.3,3,3,3c1,0,1.8-0.4,2.2-0.7
		c0.2-0.1,0.2-0.1,0.3,0l0.2,0.3c0.1,0.1,0,0.2-0.1,0.3c-0.4,0.4-1.6,0.9-2.8,0.9c-2.3,0-3.7-1.8-3.7-4
		C1455.4,560,1456.8,558.2,1459.2,558.2z M1461.8,561.7c0-1.5-0.9-2.8-2.6-2.8c-1.7,0-2.8,1.2-2.9,2.8H1461.8z"/>
	<path class="st1" d="M1287.6,581.5c-0.1-0.2-0.1-0.3,0.1-0.3h0.4c0.1,0,0.2,0,0.2,0.2l1.8,6h0l2.3-6.2c0-0.1,0.1-0.2,0.2-0.2h0.1
		c0.1,0,0.2,0.1,0.2,0.2l2.3,6.2h0l1.8-6c0-0.1,0.2-0.2,0.2-0.2h0.4c0.2,0,0.2,0.1,0.1,0.3l-2.3,7.3c0,0.1-0.1,0.2-0.2,0.2h-0.1
		c-0.1,0-0.2-0.1-0.2-0.2l-2.3-6.4h0l-2.3,6.4c0,0.1-0.1,0.2-0.2,0.2h-0.1c-0.1,0-0.2,0-0.2-0.2L1287.6,581.5z"/>
	<path class="st1" d="M1302.5,583.9c0.9,0,1.7,0.3,1.9,0.3c0-1.7-0.2-2.5-1.7-2.5c-1.3,0-2.1,0.5-2.3,0.5c-0.2,0.1-0.2,0-0.3-0.2
		l-0.1-0.2c-0.1-0.2,0-0.2,0.1-0.3c0.1,0,1-0.6,2.6-0.6c2.3,0,2.4,1.4,2.4,3.3v4.2c0,0.1-0.1,0.2-0.2,0.2h-0.2
		c-0.1,0-0.2-0.1-0.2-0.2l-0.1-0.7c-0.5,0.5-1.4,1.1-2.6,1.1c-1.4,0-2.5-1-2.5-2.5C1299.3,585,1300.5,583.9,1302.5,583.9z
		 M1301.9,588.2c1.2,0,2.2-0.7,2.5-1.2V585c-0.2-0.1-1-0.4-1.9-0.4c-1.4,0-2.4,0.7-2.4,1.9C1300.1,587.5,1300.9,588.2,1301.9,588.2z
		"/>
	<path class="st1" d="M1307.6,587.9l0.2-0.3c0.1-0.1,0.2-0.1,0.3,0c0.2,0.2,1,0.7,2,0.7c1.1,0,1.8-0.6,1.8-1.3
		c0-0.9-0.9-1.2-2.1-1.7c-1.3-0.5-2.3-1.1-2.3-2.2c0-0.8,0.7-2,2.5-2c1,0,1.8,0.4,2.1,0.6c0.1,0.1,0.2,0.2,0.1,0.4l-0.1,0.2
		c-0.1,0.1-0.2,0.2-0.4,0.1c-0.2-0.1-0.9-0.5-1.7-0.5c-1.2,0-1.6,0.7-1.6,1.2c0,0.8,0.7,1.1,1.8,1.5c1.4,0.5,2.7,1,2.7,2.4
		c0,1.1-1.2,2.1-2.7,2.1c-1.3,0-2.1-0.5-2.5-0.9C1307.6,588.1,1307.6,588,1307.6,587.9z"/>
	<path class="st1" d="M1322.6,581c1.5,0,2.5,0.8,2.8,1.2c0.1,0.1,0.1,0.2,0,0.3l-0.2,0.2c-0.1,0.1-0.3,0.1-0.4,0
		c-0.2-0.2-1-0.9-2.2-0.9c-1.7,0-3.1,1.3-3.1,3.2c0,1.8,1.4,3.2,3.1,3.2c1.4,0,2.2-0.9,2.4-1.1c0.1-0.2,0.2-0.2,0.4,0l0.2,0.2
		c0.1,0.1,0.1,0.2,0.1,0.3c-0.3,0.5-1.4,1.5-3,1.5c-2.1,0-4-1.7-4-4C1318.7,582.7,1320.5,581,1322.6,581z"/>
	<path class="st1" d="M1331.2,581c2.1,0,3.8,1.8,3.8,4c0,2.2-1.7,4-3.8,4c-2.1,0-3.8-1.8-3.8-4C1327.4,582.8,1329,581,1331.2,581z
		 M1331.2,588.2c1.7,0,3-1.4,3-3.2c0-1.7-1.3-3.2-3-3.2c-1.7,0-3,1.4-3,3.2C1328.2,586.8,1329.5,588.2,1331.2,588.2z"/>
	<path class="st1" d="M1337.3,581.4c0-0.1,0.1-0.2,0.3-0.2h0.2c0.1,0,0.2,0.1,0.2,0.2l0.1,0.8c0.2-0.3,1.3-1.2,2.8-1.2
		c2.1,0,3.1,1.3,3.1,3.5v4.1c0,0.1-0.1,0.2-0.2,0.2h-0.3c-0.1,0-0.2-0.1-0.2-0.2v-4.1c0-1.7-0.8-2.7-2.3-2.7c-1.6,0-2.6,1.2-2.7,1.3
		v5.4c0,0.2-0.1,0.2-0.2,0.2h-0.4c-0.1,0-0.2-0.1-0.2-0.2V581.4z"/>
	<path class="st1" d="M1346.3,587.9l0.2-0.3c0.1-0.1,0.2-0.1,0.3,0c0.2,0.2,1,0.7,2,0.7c1.1,0,1.8-0.6,1.8-1.3
		c0-0.9-0.9-1.2-2.1-1.7c-1.3-0.5-2.3-1.1-2.3-2.2c0-0.8,0.7-2,2.5-2c1,0,1.8,0.4,2.1,0.6c0.1,0.1,0.2,0.2,0.1,0.4l-0.1,0.2
		c-0.1,0.1-0.2,0.2-0.4,0.1c-0.2-0.1-0.9-0.5-1.7-0.5c-1.2,0-1.6,0.7-1.6,1.2c0,0.8,0.7,1.1,1.8,1.5c1.4,0.5,2.7,1,2.7,2.4
		c0,1.1-1.2,2.1-2.7,2.1c-1.3,0-2.1-0.5-2.5-0.9C1346.3,588.1,1346.2,588,1346.3,587.9z"/>
	<path class="st1" d="M1353.5,576.9c0-0.4,0.3-0.7,0.6-0.7c0.4,0,0.6,0.3,0.6,0.7c0,0.3-0.3,0.6-0.6,0.6
		C1353.8,577.5,1353.5,577.2,1353.5,576.9z M1353.8,581.4c0-0.1,0.1-0.2,0.2-0.2h0.3c0.1,0,0.2,0.1,0.2,0.2v7.1
		c0,0.2-0.1,0.2-0.2,0.2h-0.4c-0.1,0-0.2-0.1-0.2-0.2V581.4z"/>
	<path class="st1" d="M1357.1,587.9l0.2-0.3c0.1-0.1,0.2-0.1,0.3,0c0.2,0.2,1,0.7,2,0.7c1.1,0,1.8-0.6,1.8-1.3
		c0-0.9-0.9-1.2-2.1-1.7c-1.3-0.5-2.3-1.1-2.3-2.2c0-0.8,0.7-2,2.5-2c1,0,1.8,0.4,2.1,0.6c0.1,0.1,0.2,0.2,0.1,0.4l-0.1,0.2
		c-0.1,0.1-0.2,0.2-0.4,0.1c-0.2-0.1-0.9-0.5-1.7-0.5c-1.2,0-1.6,0.7-1.6,1.2c0,0.8,0.7,1.1,1.8,1.5c1.4,0.5,2.7,1,2.7,2.4
		c0,1.1-1.2,2.1-2.7,2.1c-1.3,0-2.1-0.5-2.5-0.9C1357.1,588.1,1357,588,1357.1,587.9z"/>
	<path class="st1" d="M1364.8,581.9h-0.9c-0.2,0-0.2-0.1-0.2-0.2v-0.3c0-0.1,0.1-0.2,0.2-0.2h0.9v-2.1c0-0.2,0.1-0.2,0.2-0.2l0.3,0
		c0.1,0,0.2,0.1,0.2,0.2v2.1h2.6c0.2,0,0.2,0.1,0.2,0.2v0.2c0,0.2-0.1,0.2-0.2,0.2h-2.6v4.8c0,0.9,0.1,1.4,1,1.4
		c0.7,0,1.5-0.4,1.7-0.5c0.2-0.1,0.2,0,0.3,0.1l0.1,0.2c0.1,0.1,0.1,0.2-0.1,0.3c-0.3,0.2-1.1,0.7-2.2,0.7c-1.6,0-1.7-0.9-1.7-2.1
		V581.9z"/>
	<path class="st1" d="M1374,581c2,0,3.4,1.5,3.4,3.5c0,0.3,0,0.7-0.3,0.7h-6.1c0.1,1.6,1.3,3,3,3c1,0,1.8-0.4,2.2-0.7
		c0.2-0.1,0.2-0.1,0.3,0l0.2,0.3c0.1,0.1,0,0.2-0.1,0.3c-0.4,0.4-1.6,0.9-2.8,0.9c-2.3,0-3.7-1.8-3.7-4
		C1370.2,582.8,1371.6,581,1374,581z M1376.6,584.5c0-1.5-0.9-2.8-2.6-2.8c-1.7,0-2.8,1.2-2.9,2.8H1376.6z"/>
	<path class="st1" d="M1379.6,581.4c0-0.1,0.1-0.2,0.3-0.2h0.2c0.1,0,0.2,0.1,0.2,0.2l0.1,0.8c0.2-0.3,1.3-1.2,2.8-1.2
		c2.1,0,3.1,1.3,3.1,3.5v4.1c0,0.1-0.1,0.2-0.2,0.2h-0.3c-0.1,0-0.2-0.1-0.2-0.2v-4.1c0-1.7-0.8-2.7-2.3-2.7c-1.6,0-2.6,1.2-2.7,1.3
		v5.4c0,0.2-0.1,0.2-0.2,0.2h-0.4c-0.1,0-0.2-0.1-0.2-0.2V581.4z"/>
	<path class="st1" d="M1389.4,581.9h-0.9c-0.2,0-0.2-0.1-0.2-0.2v-0.3c0-0.1,0.1-0.2,0.2-0.2h0.9v-2.1c0-0.2,0.1-0.2,0.2-0.2l0.3,0
		c0.1,0,0.2,0.1,0.2,0.2v2.1h2.6c0.2,0,0.2,0.1,0.2,0.2v0.2c0,0.2-0.1,0.2-0.2,0.2h-2.6v4.8c0,0.9,0.1,1.4,1,1.4
		c0.7,0,1.5-0.4,1.7-0.5c0.2-0.1,0.2,0,0.3,0.1l0.1,0.2c0.1,0.1,0.1,0.2-0.1,0.3c-0.3,0.2-1.1,0.7-2.2,0.7c-1.6,0-1.7-0.9-1.7-2.1
		V581.9z"/>
	<path class="st1" d="M1398.6,581.5c-0.1-0.2-0.1-0.3,0.1-0.3h0.4c0.1,0,0.2,0,0.2,0.2l1.8,6h0l2.3-6.2c0-0.1,0.1-0.2,0.2-0.2h0.1
		c0.1,0,0.2,0.1,0.2,0.2l2.3,6.2h0l1.8-6c0-0.1,0.2-0.2,0.2-0.2h0.4c0.2,0,0.2,0.1,0.1,0.3l-2.3,7.3c0,0.1-0.1,0.2-0.2,0.2h-0.1
		c-0.1,0-0.2-0.1-0.2-0.2l-2.3-6.4h0l-2.3,6.4c0,0.1-0.1,0.2-0.2,0.2h-0.1c-0.1,0-0.2,0-0.2-0.2L1398.6,581.5z"/>
	<path class="st1" d="M1410.7,576.9c0-0.4,0.3-0.7,0.6-0.7c0.4,0,0.6,0.3,0.6,0.7c0,0.3-0.3,0.6-0.6,0.6
		C1411,577.5,1410.7,577.2,1410.7,576.9z M1410.9,581.4c0-0.1,0.1-0.2,0.2-0.2h0.3c0.1,0,0.2,0.1,0.2,0.2v7.1c0,0.2-0.1,0.2-0.2,0.2
		h-0.4c-0.1,0-0.2-0.1-0.2-0.2V581.4z"/>
	<path class="st1" d="M1415,581.9h-0.9c-0.2,0-0.2-0.1-0.2-0.2v-0.3c0-0.1,0.1-0.2,0.2-0.2h0.9v-2.1c0-0.2,0.1-0.2,0.2-0.2l0.3,0
		c0.1,0,0.2,0.1,0.2,0.2v2.1h2.6c0.2,0,0.2,0.1,0.2,0.2v0.2c0,0.2-0.1,0.2-0.2,0.2h-2.6v4.8c0,0.9,0.1,1.4,1,1.4
		c0.7,0,1.5-0.4,1.7-0.5c0.2-0.1,0.2,0,0.3,0.1l0.1,0.2c0.1,0.1,0.1,0.2-0.1,0.3c-0.3,0.2-1.1,0.7-2.2,0.7c-1.6,0-1.7-0.9-1.7-2.1
		V581.9z"/>
	<path class="st1" d="M1420.9,575.7c0-0.1,0.1-0.2,0.3-0.2h0.3c0.1,0,0.2,0.1,0.2,0.2v6.5c0.2-0.2,1.3-1.2,2.8-1.2
		c2,0,3.1,1.2,3.1,3.5v4.1c0,0.1-0.1,0.2-0.2,0.2h-0.3c-0.1,0-0.2-0.1-0.2-0.2v-4.1c0-1.7-0.8-2.7-2.3-2.7c-1.6,0-2.6,1.2-2.7,1.3
		v5.4c0,0.2-0.1,0.2-0.2,0.2h-0.4c-0.1,0-0.2-0.1-0.2-0.2V575.7z"/>
	<path class="st1" d="M1434.8,581.9h-0.9c-0.2,0-0.2-0.1-0.2-0.2v-0.3c0-0.1,0.1-0.2,0.2-0.2h0.9v-2.1c0-0.2,0.1-0.2,0.2-0.2l0.3,0
		c0.1,0,0.2,0.1,0.2,0.2v2.1h2.6c0.2,0,0.2,0.1,0.2,0.2v0.2c0,0.2-0.1,0.2-0.2,0.2h-2.6v4.8c0,0.9,0.1,1.4,1,1.4
		c0.7,0,1.5-0.4,1.7-0.5c0.2-0.1,0.2,0,0.3,0.1l0.1,0.2c0.1,0.1,0.1,0.2-0.1,0.3c-0.3,0.2-1.1,0.7-2.2,0.7c-1.6,0-1.7-0.9-1.7-2.1
		V581.9z"/>
	<path class="st1" d="M1440.7,575.7c0-0.1,0.1-0.2,0.3-0.2h0.3c0.1,0,0.2,0.1,0.2,0.2v6.5c0.2-0.2,1.3-1.2,2.8-1.2
		c2,0,3.1,1.2,3.1,3.5v4.1c0,0.1-0.1,0.2-0.2,0.2h-0.3c-0.1,0-0.2-0.1-0.2-0.2v-4.1c0-1.7-0.8-2.7-2.3-2.7c-1.6,0-2.6,1.2-2.7,1.3
		v5.4c0,0.2-0.1,0.2-0.2,0.2h-0.4c-0.1,0-0.2-0.1-0.2-0.2V575.7z"/>
	<path class="st1" d="M1453.3,581c2,0,3.4,1.5,3.4,3.5c0,0.3,0,0.7-0.3,0.7h-6.1c0.1,1.6,1.3,3,3,3c1,0,1.8-0.4,2.2-0.7
		c0.2-0.1,0.2-0.1,0.3,0l0.2,0.3c0.1,0.1,0,0.2-0.1,0.3c-0.4,0.4-1.6,0.9-2.8,0.9c-2.3,0-3.7-1.8-3.7-4
		C1449.5,582.8,1451,581,1453.3,581z M1455.9,584.5c0-1.5-0.9-2.8-2.6-2.8c-1.7,0-2.8,1.2-2.9,2.8H1455.9z"/>
	<path class="st1" d="M1463.1,575.7c0-0.1,0.1-0.2,0.2-0.2h0.3c0.1,0,0.2,0.1,0.2,0.2v12.8c0,0.2-0.1,0.2-0.2,0.2h-0.4
		c-0.1,0-0.2-0.1-0.2-0.2V575.7z"/>
	<path class="st1" d="M1470.1,581c2.1,0,3.8,1.8,3.8,4c0,2.2-1.7,4-3.8,4c-2.1,0-3.8-1.8-3.8-4C1466.2,582.8,1467.9,581,1470.1,581z
		 M1470.1,588.2c1.7,0,3-1.4,3-3.2c0-1.7-1.3-3.2-3-3.2c-1.7,0-3,1.4-3,3.2C1467.1,586.8,1468.4,588.2,1470.1,588.2z"/>
	<path class="st1" d="M1476.7,586.1c-0.2-0.3-0.6-1-0.6-1.9c0-1.8,1.3-3.2,3.3-3.2c0.5,0,0.5,0,3.1,0c0.2,0,0.2,0.1,0.2,0.2v0.2
		c0,0.1-0.1,0.2-0.2,0.2l-1.4,0.1c0.4,0.2,1.2,0.9,1.2,2.4c0,1.7-1.2,3.2-3.2,3.2c-1.1,0-1.8-0.4-2.1-0.7c-0.2,0.1-1,0.5-1,1.4
		c0,0.9,0.8,1.1,1.5,1.1h2.8c1.6,0,2.8,0.7,2.8,2.4c0,1.6-1.6,3.1-3.9,3.1c-2.6,0-3.7-1.5-3.7-2.8c0-1.1,0.8-1.7,1.2-2
		c-0.4-0.1-1.5-0.6-1.5-1.7C1475.4,586.9,1476.5,586.2,1476.7,586.1z M1479.4,593.9c1.7,0,3-1,3-2.3c0-0.9-0.5-1.7-1.9-1.7h-2.4
		c-0.2,0-1.5,0.6-1.5,1.8C1476.5,592.8,1477.5,593.9,1479.4,593.9z M1481.6,584.2c0-1.6-1.1-2.4-2.3-2.4c-1.5,0-2.4,1.1-2.4,2.4
		c0,1.3,0.8,2.4,2.4,2.4C1480.7,586.6,1481.6,585.6,1481.6,584.2z"/>
	<path class="st1" d="M1488.2,581c2.1,0,3.8,1.8,3.8,4c0,2.2-1.7,4-3.8,4c-2.1,0-3.8-1.8-3.8-4C1484.4,582.8,1486.1,581,1488.2,581z
		 M1488.2,588.2c1.7,0,3-1.4,3-3.2c0-1.7-1.3-3.2-3-3.2c-1.7,0-3,1.4-3,3.2C1485.2,586.8,1486.5,588.2,1488.2,588.2z"/>
	<path class="st1" d="M1495,587.5c0.4,0,0.8,0.3,0.8,0.8c0,0.4-0.3,0.8-0.8,0.8c-0.4,0-0.8-0.3-0.8-0.8
		C1494.3,587.8,1494.6,587.5,1495,587.5z"/>
</g>
</svg>
