<?xml version="1.0" encoding="utf-8"?>
<!-- Generator: Adobe Illustrator 21.0.0, SVG Export Plug-In . SVG Version: 6.00 Build 0)  -->
<svg version="1.1" id="Layer_1" xmlns="http://www.w3.org/2000/svg" xmlns:xlink="http://www.w3.org/1999/xlink" x="0px" y="0px"
	 viewBox="0 0 1920 1080" style="enable-background:new 0 0 1920 1080;" xml:space="preserve">
<style type="text/css">
	.st0{fill:#FFFFFF;}
	.st1{fill:#E1CF2B;}
	.st2{font-family:'Airfly-DEMO';}
	.st3{font-size:117.0512px;}
	.st4{fill:#FFD400;}
	.st5{fill:#FFEC00;}
	.st6{fill:#F8B133;}
	.st7{fill:#333333;}
	.st8{fill:#E6E6E6;}
	.st9{fill:#1D88A0;}
	.st10{font-size:23.5583px;}
	.st11{opacity:0.23;fill:#C7B299;stroke:#000000;stroke-miterlimit:10;enable-background:new    ;}
	.st12{font-size:10.2593px;}
	.st13{font-size:5.1296px;}
	.st14{font-size:16.5288px;}
	.st15{fill:none;stroke:#000000;stroke-width:3;stroke-miterlimit:10;}
	.st16{font-family:'Plump';}
	.st17{font-size:2.6598px;}
	.st18{font-size:7.2193px;}
	.st19{fill:#FFFFFF;stroke:#000000;stroke-width:3;stroke-miterlimit:10;}
	.st20{font-size:8.1694px;}
	.st21{fill:#8CC63F;}
	.st22{font-size:8.9685px;}
	.st23{font-family:'Europa-Light';}
	.st24{font-size:5.8936px;}
	.st25{fill:url(#SVGID_1_);}
	.st26{fill:none;stroke:#DDDD2F;stroke-miterlimit:10;}
	.st27{fill:none;stroke:#E2E2E2;stroke-width:2;stroke-miterlimit:10;}
	.st28{fill:#B8BFBE;}
	.st29{fill:#CCCC23;}
	.st30{fill:#A3A8A7;}
	.st31{font-size:8.8842px;}
	.st32{fill:none;}
	.st33{font-size:5.1249px;}
	.st34{fill:#797876;}
	.st35{fill:#756D6A;}
	.st36{fill:#1E1E1D;}
	.st37{fill:#D67F36;}
	.st38{fill:#E9AF71;}
	.st39{fill:#E79044;}
	.st40{fill:#9E881A;}
	.st41{fill:#0D1005;}
	.st42{fill:#6A6F76;}
	.st43{fill:#DADFC6;}
	.st44{fill:#2B2626;}
	.st45{fill:#DB9C6D;}
	.st46{fill:#FFC499;}
	.st47{fill:#D17B35;}
	.st48{fill:#FEC69B;}
	.st49{fill:none;stroke:#000000;stroke-miterlimit:10;}
	.st50{fill:#F4F3EB;}
	.st51{fill:#544946;}
	.st52{fill:#1F2620;}
	.st53{fill:#463422;}
	.st54{font-size:16.6559px;}
	.st55{font-size:9.7696px;}
	.st56{opacity:0.15;fill:url(#SVGID_2_);enable-background:new    ;}
	.st57{fill:#00A4FF;}
	.st58{fill:#906EAE;}
	.st59{fill:#FFA300;}
	.st60{fill:#A5A5A4;stroke:#A5A5A4;stroke-width:4;stroke-miterlimit:10;}
	.st61{font-size:13.9428px;}
	.st62{fill:#4E524C;}
	.st63{fill:#968644;}
	.st64{fill:#DFD69F;}
	.st65{fill:#CE6E91;}
	.st66{fill:#A51616;}
	.st67{font-size:29.7197px;}
	.st68{font-size:17.9058px;}
	.st69{fill:#DB2C7C;}
	.st70{fill:#DDDDDD;}
	.st71{fill:#939393;}
	.st72{font-size:7.0066px;}
	.st73{fill:#ADADAD;}
	.st74{font-size:8.8231px;}
	.st75{font-family:'Europa-Regular';}
	.st76{font-size:15.3401px;}
	.st77{fill:#D0D6D5;}
	.st78{font-size:5.1901px;}
	.st79{opacity:0.15;fill:url(#SVGID_3_);enable-background:new    ;}
	.st80{fill:#141512;}
	.st81{fill:#2F2F31;}
	.st82{fill:#1F1F1F;}
	.st83{fill:#1C1C1C;}
	.st84{fill:#28272D;}
	.st85{fill:#39393B;}
	.st86{fill:#2F2E31;}
	.st87{fill:#29282B;}
	.st88{fill:#4F5156;}
	.st89{fill:#78ABCE;}
	.st90{fill:#ECECEA;}
	.st91{fill:#3E3D40;}
	.st92{fill:#EFEEF3;}
	.st93{fill:#746D6D;}
	.st94{fill:#232421;}
	.st95{fill:#A3AAAF;}
	.st96{fill:#ECEEF2;}
	.st97{fill:#0C0C0C;}
	.st98{fill:#191919;}
	.st99{fill:#131313;}
	.st100{fill:#D5DFDF;}
	.st101{fill:#171A1A;}
	.st102{fill:#2A292E;}
	.st103{fill:#0D120C;}
	.st104{fill:#121818;}
	.st105{fill:#4C4B43;}
	.st106{fill:#847F4E;}
	.st107{fill:#8E8D85;}
	.st108{fill:#605B39;}
	.st109{fill:none;stroke:#000000;stroke-width:0.1;stroke-miterlimit:10;}
	.st110{fill:#ABC90B;}
	.st111{fill:#D4E7DC;}
	.st112{fill:#FAFAFF;}
	.st113{fill:#96B917;}
	.st114{fill:#E3E3E2;}
	.st115{fill:#111111;}
	.st116{fill:#656661;}
	.st117{fill:#A5A69D;}
	.st118{fill:#D8E2C1;}
	.st119{fill:#585A61;}
	.st120{fill:#161715;}
	.st121{fill:#7E8782;}
	.st122{fill:none;stroke:#94A812;stroke-width:0.25;stroke-miterlimit:10;}
	.st123{fill:#CC9636;}
	.st124{fill:#1E1C21;}
	.st125{fill:#353138;}
	.st126{fill:#49484A;}
	.st127{fill:#8E8F89;}
	.st128{fill:none;stroke:#272728;stroke-width:0.25;stroke-miterlimit:10;}
	.st129{fill:#0F0D1B;}
	.st130{fill:#A4A698;}
	.st131{fill:#D5E45B;}
	.st132{fill:none;stroke:#5C6812;stroke-width:0.25;stroke-miterlimit:10;}
	.st133{fill:#1F260B;}
	.st134{fill:none;stroke:#87A300;stroke-width:0.25;stroke-miterlimit:10;}
	.st135{fill:#C0C98F;}
	.st136{fill:none;stroke:#9DAF1A;stroke-width:0.25;stroke-miterlimit:10;}
	.st137{fill:#A2B918;}
	.st138{fill:#86A314;}
	.st139{fill:#4F5C28;}
	.st140{fill:#090A03;}
	.st141{fill:#020203;}
	.st142{fill:#091000;}
	.st143{fill:#0C1211;}
	.st144{fill:#181711;}
	.st145{fill:#161518;}
	.st146{fill:#959595;}
	.st147{fill:none;stroke:#919A6C;stroke-width:0.25;stroke-miterlimit:10;}
	.st148{fill:#0A0A0B;}
	.st149{fill:#6B6B6B;}
	.st150{fill:#F8AC25;}
	.st151{fill:#FFC608;}
	.st152{fill:#FFD119;}
	.st153{fill:#FFD402;}
	.st154{fill:#FFAE1E;}
	.st155{fill:#F7B50F;}
	.st156{fill:#F7BF00;}
	.st157{fill:#FAB00B;}
	.st158{fill:#FFBA10;}
	.st159{fill:#FFC314;}
	.st160{fill:#FFD116;}
	.st161{fill:#FCB700;}
	.st162{fill:#FFB600;}
	.st163{fill:#FFCA00;}
	.st164{fill:#F0C409;}
	.st165{fill:#F9C12D;}
	.st166{fill:#FFB907;}
	.st167{fill:#F9B900;}
	.st168{fill:#FFB800;}
	.st169{fill:#F1A305;}
	.st170{fill:#F9C700;}
	.st171{fill:#FFC421;}
	.st172{fill:#F1A200;}
	.st173{fill:#FFD700;}
	.st174{fill:#F9E900;}
	.st175{fill:#FFB60E;}
	.st176{fill:#FFD004;}
	.st177{fill:#FFC000;}
	.st178{fill:#FFC00D;}
	.st179{fill:#FFB200;}
	.st180{fill:#FFD602;}
	.st181{fill:#FEB90B;}
	.st182{fill:#FDB600;}
	.st183{fill:#FDAD17;}
	.st184{fill:#FDBD16;}
	.st185{fill:#FEBE00;}
	.st186{fill:#FFD11A;}
	.st187{fill:#FDBD19;}
	.st188{fill:#FEB701;}
	.st189{fill:#FFB80C;}
	.st190{fill:#FAB904;}
	.st191{fill:#F4CF00;}
	.st192{fill:#FFD404;}
	.st193{fill:#FFC800;}
	.st194{fill:#FFD803;}
	.st195{fill:#FFB900;}
	.st196{fill:#F3A507;}
	.st197{fill:#FFAA00;}
	.st198{fill:#FFCF00;}
	.st199{fill:#FBB500;}
	.st200{fill:#F2AE00;}
	.st201{fill:#FFC20F;}
	.st202{fill:#74BD1F;}
	.st203{fill:#54A10D;}
	.st204{fill:#FCBF0B;}
	.st205{fill:#FBB606;}
	.st206{fill:#FFB701;}
	.st207{fill:#1E1D1E;stroke:#000000;stroke-width:3;stroke-miterlimit:10;}
	.st208{fill:none;stroke:#000000;stroke-width:7;stroke-miterlimit:10;}
	.st209{fill:none;stroke:#000000;stroke-width:0.5;stroke-miterlimit:10;}
	.st210{fill:none;stroke:#000000;stroke-width:6;stroke-miterlimit:10;}
	.st211{fill:#630215;}
	.st212{fill:#59000E;}
	.st213{fill:#4C010F;}
	.st214{font-family:'KomuB';}
	.st215{font-size:33px;}
	.st216{font-size:56px;}
	.st217{fill:#E4260C;}
	.st218{fill:#3A550E;}
	.st219{fill:#332E04;}
	.st220{fill:#496612;}
	.st221{fill:#CDD08B;}
	.st222{fill:#274E00;}
	.st223{fill:#212121;}
	.st224{fill:#EFEFEF;}
	.st225{font-family:'BrandonGrotesque-Medium';}
	.st226{font-size:27px;}
	.st227{font-family:'NiveauGroteskRegular';}
	.st228{font-size:12px;}
	.st229{enable-background:new    ;}
	.st230{font-family:'BrandonGrotesque-Regular';}
	.st231{font-size:18px;}
	.st232{font-family:'BrandonGrotesque-Light';}
	.st233{font-size:19px;}
	.st234{fill:#FDEA14;}
	.st235{opacity:0.82;fill:#EEA81B;enable-background:new    ;}
	.st236{opacity:0.82;fill:#DCA322;enable-background:new    ;}
	.st237{fill:#4399D4;}
	.st238{fill:#DCA322;}
	.st239{fill:#1E1E1C;}
	.st240{font-size:13.8652px;}
	.st241{fill:#CD6D90;}
	.st242{font-size:18.8036px;}
	.st243{fill:#CCC32C;}
	.st244{font-size:13.9744px;}
	.st245{font-size:25px;cursor:pointer;}
</style>
<rect class="st0" width="1920" height="1080"/>
<g>
	<g>
		<text transform="matrix(0.9744 0 0 1 1361.666 548.7197)" class="st1 st2 st3">POCKET</text>
		<text transform="matrix(0.9744 0 0 1 1347.3428 653.2197)" class="st1 st2 st3">LEARNER</text>
	</g>
	<g>
		<path class="st1" d="M1441.5,477.8h48.2c0,0,13.6,57.8-24.1,61.7C1465.6,539.5,1440.1,528.7,1441.5,477.8z"/>
	</g>
	<g>
		<ellipse class="st0" cx="1447.4" cy="498" rx="23.9" ry="24.5"/>
	</g>
	<g>
		<ellipse class="st4" cx="1447.4" cy="498" rx="18.5" ry="19"/>
	</g>
	<g>
		<ellipse cx="1447.4" cy="498" rx="13.7" ry="14.1"/>
	</g>
	<g>
		<polygon class="st5" points="1421.3,460.9 1425,453.9 1430.7,459.3 1427.3,467.7 		"/>
	</g>
	<g>

			<image style="overflow:visible;opacity:0.9;enable-background:new    ;" width="445" height="448" xlink:href="E022FD6F9A8E3B70.png"  transform="matrix(0.9978 0 0 0.9978 1506.9055 492.9055)">
		</image>
		<g>

				<image style="overflow:visible;opacity:0.61;enable-background:new    ;" width="40" height="44" xlink:href="E022FD6F9A8E3B71.png"  transform="matrix(1 0 0 1 1493 540)">
			</image>
			<g>
				<polygon class="st5" points="1502.8,553 1509.4,548.9 1511.7,556.5 1504.5,561.9 				"/>
			</g>
		</g>
	</g>
	<g>
		<polygon class="st5" points="1803.7,573.4 1809.7,568.3 1813,575.5 1806.7,582 		"/>
	</g>
	<g>
		<polygon class="st5" points="1331.9,577.5 1333.4,569.7 1340.4,573.1 1339.5,582.1 		"/>
	</g>
	<g>
		<polygon class="st5" points="1665.4,444.6 1672,440.4 1674.3,448 1667.2,453.5 		"/>
	</g>
	<g>
		<polygon class="st5" points="1469.5,675.8 1470.9,668 1477.9,671.3 1477.2,680.4 		"/>
	</g>
	<g>
		<polygon class="st5" points="1725.4,507.9 1731.8,503.4 1734.5,510.9 1727.6,516.7 		"/>
	</g>
	<g>
		<ellipse class="st0" cx="1490.4" cy="498" rx="23.9" ry="24.5"/>
	</g>
	<g>
		<ellipse class="st4" cx="1490.4" cy="498" rx="18.5" ry="19"/>
	</g>
	<g>
		<ellipse cx="1490.4" cy="498" rx="13.7" ry="14.1"/>
	</g>
	<g>
		<path class="st6" d="M1461.7,514.6c0,0,7.3-3.9,14,0l-7,24L1461.7,514.6z"/>
	</g>
</g>
<g>

		<image style="overflow:visible;opacity:0.15;enable-background:new    ;" width="320" height="647" xlink:href="E022FD6F9A8E3B77.png"  transform="matrix(1 0 0 1 590 198)">
	</image>
	<g>
		<path d="M876.3,836.8H623.8c-14.8,0-27-12.2-27-27V229.3c0-14.8,12.2-27,27-27h252.6c14.8,0,27,12.2,27,27v580.4
			C903.3,824.6,891.2,836.8,876.3,836.8z"/>
	</g>
</g>
<path class="st7" d="M772.4,242.8h-44.3c-0.9,0-1.7-0.8-1.7-1.7V239c0-0.9,0.8-1.7,1.7-1.7h44.3c0.9,0,1.7,0.8,1.7,1.7v2.1
	C774.1,242.1,773.3,242.8,772.4,242.8z"/>
<rect x="612.3" y="296.1" class="st0" width="276.5" height="431.5"/>
<path class="st8" d="M795.6,602.3H690.3c-8.3,0-15.1-6.8-15.1-15.1v-34.6c0-8.3,6.8-15.1,15.1-15.1h105.3c8.3,0,15.1,6.8,15.1,15.1
	v34.6C810.7,595.5,804,602.3,795.6,602.3z"/>
<path class="st9" d="M781.2,523.1h-76.1c-17.6,0-31.8-14.2-31.8-31.8v-53.4c0-17.6,14.2-31.8,31.8-31.8h76.1
	c17.6,0,31.8,14.2,31.8,31.8v53.4C813,508.9,798.8,523.1,781.2,523.1z"/>
<text transform="matrix(1 0 0 1 713.3359 580.4316)" class="st2 st10">BOAT</text>
<rect x="669" y="586.4" class="st11" width="150" height="20.3"/>
<rect x="612" y="622.5" class="st8" width="276.7" height="59.5"/>
<text transform="matrix(1 0 0 1 729.0947 638.7109)" class="st2 st12">WORDS</text>
<text transform="matrix(1 0 0 1 732.0063 646.6367)" class="st2 st13">(drag &amp; drop)</text>
<text transform="matrix(1 0 0 1 686.5078 384.3447)" class="st2 st14">WHAT IS THIS?</text>
<path class="st15" d="M797.2,483.8c0,0,25.8,6.5,33.1-21.7"/>
<text transform="matrix(1 0 0 1 824.9927 478.915)" class="st16 st17">SWIPE</text>
<text transform="matrix(1 0 0 1 824.9927 482.115)" class="st16 st17">FOR REAL </text>
<text transform="matrix(1 0 0 1 824.9927 485.3151)" class="st16 st17">IMAGE</text>
<text transform="matrix(0.3443 -0.9389 0.9389 0.3443 832.0134 463.3635)" class="st16 st18">&gt;</text>
<circle cx="827.6" cy="431.6" r="2.7"/>
<circle class="st19" cx="827.6" cy="441.5" r="2.7"/>
<text transform="matrix(1 0 0 1 680.3149 709.2705)" class="st2 st20">THAT’S THE </text>
<text transform="matrix(1 0 0 1 729.4149 709.2705)" class="st21 st2 st20">CORRECT</text>
<text transform="matrix(1 0 0 1 765.8149 709.2705)" class="st2 st20"> ANSWER!</text>
<text transform="matrix(1 0 0 1 689.3149 720.0706)" class="st2 st20">WELL DONE _____</text>
<text transform="matrix(1 0 0 1 760.5149 720.0706)" class="st2 st22">___</text>
<text transform="matrix(1 0 0 1 775.4149 720.0706)" class="st2 st20">____!</text>
<text transform="matrix(1 0 0 1 757.2764 717.708)" class="st23 st24">NAME</text>
<linearGradient id="SVGID_1_" gradientUnits="userSpaceOnUse" x1="612.3" y1="-47.95" x2="889" y2="-47.95" gradientTransform="matrix(1 0 0 1 0 353.5)">
	<stop  offset="0" style="stop-color:#F1861C"/>
	<stop  offset="0" style="stop-color:#FFA300"/>
	<stop  offset="1" style="stop-color:#FFA300"/>
</linearGradient>
<rect x="612.3" y="274.4" class="st25" width="276.7" height="62.3"/>
<rect x="867" y="288.7" class="st26" width="14" height="11.3"/>
<polygon class="st26" points="865.4,288.7 873.9,281.7 882.3,288.7 "/>
<line class="st27" x1="630.7" y1="393.7" x2="872.6" y2="393.7"/>
<rect x="612" y="741.3" class="st28" width="276.5" height="17.9"/>
<circle class="st29" cx="712.3" cy="750.2" r="2.9"/>
<circle class="st29" cx="725.8" cy="750.2" r="2.9"/>
<circle class="st8" cx="739.3" cy="750.2" r="2.9"/>
<circle class="st30" cx="751.8" cy="750.4" r="2.9"/>
<circle class="st30" cx="765.3" cy="750.4" r="2.9"/>
<circle class="st30" cx="778.7" cy="750.4" r="2.9"/>
<text transform="matrix(1 0 0 1 617.9243 753.6035)" class="st0 st2 st31">3</text>
<text transform="matrix(1 0 0 1 622.7243 753.6035)" class="st0 st16 st31">/</text>
<text transform="matrix(1 0 0 1 625.9243 753.6035)" class="st0 st2 st31">6</text>
<rect x="870.6" y="747.8" class="st32" width="18" height="13.5"/>
<text transform="matrix(1 0 0 1 878.3428 751.5742)" class="st2 st33">&gt;</text>
<circle class="st0" cx="639.7" cy="298.7" r="16.4"/>
<rect x="617.6" y="321.5" class="st32" width="44.1" height="7.5"/>
<text transform="matrix(1 0 0 1 628.6123 325.377)" class="st23 st33">first name</text>
<g>
	<path class="st34" d="M701.4,453.2l34.3-4.2l3.4,4.2c0,0,0,2.4-1.4,2.4s-29.6,4.1-29.6,4.1l-4.4-4.2l-2.4-0.2v-2.1L701.4,453.2
		L701.4,453.2z"/>
	<polygon class="st35" points="704.5,441.4 704.5,433.8 708.2,435.6 708.2,442.4 	"/>
	<path class="st36" d="M684.9,443.8c0,0,18.5,28.3,54.1,38.7c0,0,37.7,13.6,65.3,7.9c0,0,20.2-9.9-10.3-27.8
		c0,0-44.4-20.3-58.9-24.1l-14.4,1.3l5.3,4.4l-22.3,2.8l-3.1-4.9C700.5,442.1,688.2,442.4,684.9,443.8z"/>
	<path class="st37" d="M686.1,443.2c0,0,18.2,27.8,53.1,38c0,0,37,13.4,64.1,7.7c0,0,19.8-9.7-10.1-27.3c0,0-43.6-19.9-57.8-23.6
		l-14.1,1.3l5.2,4.3l-21.9,2.8l-3-4.8C701.4,441.6,689.3,441.8,686.1,443.2z"/>
	<path class="st38" d="M691.8,447.8c0,0,49.5-6,51-5.4c0,0,54,18.7,60.5,28.2l-58.6,9.5c0,0-21.4-6.1-30.6-13.3
		C714.1,466.8,695.2,454.3,691.8,447.8z"/>
	<path class="st39" d="M780.6,473.7c0,0-16.2-14.2-40.4-17.4c0,0-15.8,0.6-31.9,3.3l-5-3.3H700l-8.6-8.7l51.5-5.3
		c0,0,53.7,17,60.4,27.9L780.6,473.7z"/>
	<path class="st40" d="M685.8,443c0,0,3.9,30.6,43.3,49c0,0,27.5,11.4,54,15.6c0,0,7.5-4.4,9.3-8.8c0,0,3.4-5.7,7.5-8.3
		c0,0-31.1,3.6-60.2-7.8c0,0-20.2-6.7-29.6-14.5C710.2,468.2,689,453.9,685.8,443z"/>
	<path class="st41" d="M758.9,502.4c0,0,12.8,6.1,16.8,5.8c0,0,6.2,0.5,8.3-1C784,507.2,764,504.9,758.9,502.4z"/>
	<polygon class="st42" points="737.2,445 742.2,445 743.7,446 743.7,449 741.6,449.6 737.2,449.6 	"/>
	<rect x="738.2" y="445.7" class="st43" width="3.6" height="3.1"/>
	<polygon class="st44" points="738.9,449.8 738.9,451.1 738.2,451.1 738.2,452.1 742.1,452.1 742.1,450.9 741.6,450.9 741.6,449.8
		"/>
	<polygon class="st45" points="740.1,454.4 740.1,456.4 759.1,465.8 761.8,464.7 	"/>
	<path class="st46" d="M722.9,471.1l37.2-5.3l1.1-1.9l-30.1-13.5h12.8c0,0,30.6,12,33.1,16.2l-46.8,8.1L722.9,471.1z"/>
	<polygon class="st47" points="729.8,474.3 775.7,467 775.7,470.7 735.6,476.5 	"/>
	<path class="st48" d="M735.2,476l8.3,3.4l59.8-9.1c0,0,7.5,3,5.1,11.4c0,0-1.4,4.3-7.3,6.7c0,0-8.3,1.1-27.8,0
		c0,0-23.6-2.7-44.9-12.3L735.2,476z"/>
	<path class="st49" d="M777.8,460c0,0-0.9,1.5,0.8,2c0,0,2.8,1.1,3.8,0.8"/>
	<path class="st49" d="M745.7,445.9c0,0-0.2,2.1,2.1,1.8h1.8"/>
	<polygon class="st50" points="704.5,433.8 711.6,432.6 714.6,434.7 708.2,435.6 	"/>
	<polygon class="st51" points="708.2,435.6 708.2,442.4 716.2,441.3 714.6,434.7 	"/>
	<polygon class="st52" points="704.5,441.4 706.4,445.9 718,444.8 716.2,441.3 708.2,442.4 	"/>
	<polygon class="st53" points="718,469.4 729.8,467 733.5,469.4 721.8,471.4 	"/>
	<polygon class="st32" points="721.2,439.4 718.8,444.7 726.4,443.7 	"/>
</g>
<rect x="669" y="495.1" class="st11" width="149.9" height="31.8"/>
<text transform="matrix(1 0 0 1 790.0156 329.3301)" class="st0 st2 st54">TRANSPORT</text>
<text transform="matrix(1 0 0 1 632.915 665.376)" class="st2 st55">car</text>
<text transform="matrix(1 0 0 1 690.6509 665.498)" class="st2 st55">aeroplane</text>
<text transform="matrix(1 0 0 1 747.8613 665.1709)" class="st2 st55">scooter</text>
<text transform="matrix(1 0 0 1 845.7515 665.5342)" class="st2 st55">boat</text>
<text transform="matrix(1 0 0 1 663.4082 665.8896)" class="st2 st55">bus</text>
<linearGradient id="SVGID_2_" gradientUnits="userSpaceOnUse" x1="642.1" y1="165.8" x2="903.4" y2="165.8" gradientTransform="matrix(1 0 0 1 0 353.5)">
	<stop  offset="0" style="stop-color:#FFFFFF"/>
	<stop  offset="1" style="stop-color:#FFFFFF;stop-opacity:0"/>
</linearGradient>
<path class="st56" d="M858,836.6L858,836.6L642.1,202H858c24.9,0,45.4,20.7,45.4,45.6v543.8C903.4,816.4,883,836.6,858,836.6z"/>
<g>

		<image style="overflow:visible;opacity:0.15;enable-background:new    ;" width="452" height="691" xlink:href="E022FD6F9A8E3B72.png"  transform="matrix(1 0 0 1 845 244)">
	</image>
	<g>
		<path class="st0" d="M1270.4,865l-245.1,60.9c-14.4,3.6-29.1-5.3-32.7-19.7L852.7,342.9c-3.6-14.4,5.3-29.1,19.7-32.7l245.1-60.9
			c14.4-3.6,29.1,5.3,32.7,19.7l139.9,563.3C1293.7,846.7,1284.8,861.4,1270.4,865z"/>
	</g>
</g>
<path class="st8" d="M1026.3,313.7l-43,10.7c-0.9,0.2-1.8-0.3-2-1.2l-0.5-2c-0.2-0.9,0.3-1.8,1.2-2l43-10.7c0.9-0.2,1.8,0.3,2,1.2
	l0.5,2C1027.8,312.6,1027.2,313.5,1026.3,313.7z"/>
<rect x="932" y="338.4" transform="matrix(0.969 -0.2469 0.2469 0.969 -111.1054 282.7733)" class="st0" width="280" height="492.1"/>
<rect x="965.8" y="490.4" transform="matrix(0.969 -0.2469 0.2469 0.969 -97.817 275.451)" class="st57" width="167.3" height="74.8"/>
<rect x="986.8" y="571.7" transform="matrix(0.969 -0.2469 0.2469 0.969 -117.239 283.1529)" class="st58" width="167.3" height="74.8"/>
<rect x="1007.7" y="653.8" transform="matrix(0.969 -0.2469 0.2469 0.969 -136.8635 290.8555)" class="st59" width="167.3" height="74.8"/>
<path class="st60" d="M1215.5,750.8L1215.5,750.8c-4.6,1.2-9.4-1.6-10.6-6.3l-68.8-270.1c-1.2-4.6,1.6-9.4,6.3-10.6l0,0
	c4.6-1.2,9.4,1.6,10.6,6.3l68.8,270.1C1222.9,744.9,1220.1,749.6,1215.5,750.8z"/>
<text transform="matrix(0.969 -0.2469 0.2469 0.969 1021.7635 540.4796)" class="st0 st2 st61">CLOTHES</text>
<text transform="matrix(0.969 -0.2469 0.2469 0.969 1031.5514 628.238)" class="st0 st2 st61">VEGETABLES</text>
<text transform="matrix(0.969 -0.2469 0.2469 0.969 1054.0676 706.7289)" class="st0 st2 st61">TRANSPORT</text>
<path class="st62" d="M1111.6,511.2c0,0-4.2-11.9,2.7-13.9c0,0,7.3-3.1,9.1,10.9c1.8,13.9,0,0,0,0s-1.5-0.9-2.5-1.1s0,0,0,0
	s-0.9-9-6-7.7c0,0-4.3,1.3-1.6,9.6c2.6,7.9,0,0,0,0S1112.1,510.1,1111.6,511.2"/>
<ellipse transform="matrix(0.969 -0.2469 0.2469 0.969 -92.6015 292.2384)" class="st63" cx="1119" cy="515.4" rx="8.5" ry="8.5"/>
<ellipse transform="matrix(0.969 -0.2469 0.2469 0.969 -92.6009 292.2393)" class="st64" cx="1119" cy="515.4" rx="7.5" ry="7.5"/>
<path class="st62" d="M1132.9,592.7c0,0-4.2-11.7,2.7-13.7c0,0,7.2-3.1,9,10.8c1.8,13.7,0,0,0,0s-1.5-0.9-2.5-1c-1-0.2,0,0,0,0
	s-0.9-8.9-5.9-7.6c0,0-4.2,1.3-1.6,9.5c2.6,7.8,0,0,0,0S1133.4,591.6,1132.9,592.7"/>
<path class="st58" d="M1131,589.4l5.2-3.2l0.1,3.3c0,0-2.5,1-3.8,4.1L1131,589.4z"/>
<ellipse transform="matrix(0.969 -0.2469 0.2469 0.969 -112.0425 299.9928)" class="st63" cx="1140.2" cy="596.8" rx="8.3" ry="8.3"/>
<ellipse transform="matrix(0.969 -0.2469 0.2469 0.969 -112.0419 299.9937)" class="st64" cx="1140.2" cy="596.7" rx="7.4" ry="7.4"/>
<path class="st58" d="M1131.7,587.7c0,0,1,0.6,2-0.5l0.4,2l-2.8,1.3l-1.1-2.1L1131.7,587.7z"/>
<ellipse transform="matrix(0.969 -0.2469 0.2469 0.969 -92.5095 292.1768)" class="st65" cx="1118.8" cy="515" rx="2.6" ry="2.4"/>
<rect x="1118.9" y="517" transform="matrix(0.969 -0.2469 0.2469 0.969 -93.3685 292.523)" class="st65" width="1.7" height="3.2"/>
<ellipse transform="matrix(0.969 -0.2469 0.2469 0.969 -111.7805 299.8857)" class="st58" cx="1139.9" cy="595.7" rx="2.6" ry="2.4"/>
<rect x="1140" y="597.7" transform="matrix(0.969 -0.2469 0.2469 0.969 -112.6395 300.232)" class="st58" width="1.7" height="3.2"/>
<ellipse transform="matrix(0.969 -0.2469 0.2469 0.969 -121.0205 306.988)" class="st66" cx="1163.6" cy="636" rx="6.6" ry="6.6"/>
<text transform="matrix(0.9705 -0.2472 0.2469 0.969 1162.4005 654.6331)" class="st0 st16 st67">*</text>
<text transform="matrix(0.969 -0.2469 0.2469 0.969 1061.1715 419.3668)" class="st2 st68">Pocket List</text>
<path class="st62" d="M1154.2,676.7c0,0-4.2-11.9,2.7-13.9c0,0,7.3-3.1,9.1,10.9c1.8,13.9,0,0,0,0s-1.5-0.9-2.5-1.1s0,0,0,0
	s-0.9-9-6-7.7c0,0-4.3,1.3-1.6,9.6c2.6,7.9,0,0,0,0S1154.7,675.6,1154.2,676.7"/>
<ellipse transform="matrix(0.969 -0.2469 0.2469 0.969 -132.1414 307.9062)" class="st63" cx="1161.7" cy="680.8" rx="8.5" ry="8.5"/>
<ellipse transform="matrix(0.969 -0.2469 0.2469 0.969 -132.1444 307.881)" class="st64" cx="1161.6" cy="680.8" rx="7.5" ry="7.5"/>
<ellipse transform="matrix(0.969 -0.2469 0.2469 0.969 -132.0493 307.8445)" class="st59" cx="1161.5" cy="680.5" rx="2.6" ry="2.4"/>
<rect x="1024.8" y="741.5" transform="matrix(0.969 -0.2469 0.2469 0.969 -153.2092 297.1931)" class="st69" width="167.3" height="35.9"/>
<g>
	<path class="st0" d="M1083.8,784.3c0.5-0.1,0.9-0.3,1.4-0.4c0.1-0.1,0.2-0.1,0.3-0.1c0.1,0,0.2,0,0.4,0c0.1,0,0.3-0.1,0.4-0.1
		c0.1-0.1,0.2-0.1,0.3-0.1c0.1,0,0.2,0,0.3,0c0.5-0.1,1-0.2,1.5-0.3c0.4-0.1,0.9-0.3,1.1-0.3l-4.2-6.3l-1.5,0.4l-0.8,7.5
		c0.1-0.1,0.2-0.1,0.4-0.1C1083.6,784.3,1083.7,784.3,1083.8,784.3z M1085.4,780l1.3,2.2l-1.5,0.4L1085.4,780z"/>
	<path class="st0" d="M1095,774l1.5,5.7l-4.6-4.9l-2.1,0.5l1.8,7c0.7-0.2,1.3-0.4,2-0.5l-0.8-3.2l2.6,2.8c0.4-0.1,0.9-0.2,1.3-0.2
		c0.3,0,0.5-0.1,0.6-0.1c0.2-0.1,0.5-0.1,0.7-0.1c0.3-0.1,0.6-0.2,1-0.3l-1.8-7.2L1095,774z"/>
	<path class="st0" d="M1100.7,780.1c0.6-0.1,1.2-0.3,1.8-0.5l-1.8-7.1l-1.9,0.5l0.3,1.7l1.4,5.4
		C1100.6,780.1,1100.7,780.1,1100.7,780.1z"/>
	<path class="st0" d="M1111.5,777.4l0.1-3l1.2,2.8c0.6-0.2,1.1-0.3,1.7-0.5c0.1-0.1,0.2-0.1,0.3-0.1l0,0l-3.1-6.8l-2.1,0.5l-0.2,6.4
		l-3.4-5.4l-2.1,0.5l0.8,7.5h0.1c0.1-0.1,0.3-0.2,0.5-0.3c0.2,0,0.3-0.1,0.4,0c0.2-0.1,0.3-0.1,0.5-0.2c0.1-0.1,0.2-0.1,0.4-0.1h0.1
		l-0.3-2.9l1.6,2.6c0.2,0,0.3-0.1,0.5-0.1c0.5-0.1,1-0.3,1.5-0.4C1110.6,777.6,1111,777.5,1111.5,777.4z"/>
	<path class="st0" d="M1123.1,774.5C1123.2,774.5,1123.2,774.5,1123.1,774.5c0.3-0.1,0.5-0.2,0.7-0.2l-4.3-6.4l-1.5,0.4l-0.8,7.6
		c0.5-0.1,0.9-0.2,1.4-0.3s1.1-0.3,1.6-0.4C1121.2,774.9,1122.2,774.6,1123.1,774.5z M1119.4,773.9l0.2-2.5l1.3,2.2L1119.4,773.9z"
		/>
	<path class="st0" d="M1126.3,773.6c0.1-0.1,0.3-0.2,0.5-0.3s0.4-0.1,0.6,0c0.1,0,0.2,0,0.3-0.1l-1.8-7.1l-2,0.5l1.8,7.1
		C1125.9,773.7,1126.1,773.7,1126.3,773.6z"/>
	<path class="st0" d="M1133.7,771.3c0.3-0.1,0.6,0,0.9,0.1h0.1c-0.3-0.1-0.6-0.2-0.9-0.4L1133.7,771.3L1133.7,771.3z"/>
	<path class="st0" d="M1135.8,769.9c0.9,0.1,1.4,0.1,1.6,0.4c0.1,0.2,0.1,0.3,0,0.5c0.1,0,0.3-0.1,0.4-0.1c0.1-0.1,0.2-0.1,0.3-0.1
		c0.1,0,0.2,0,0.3,0c0.2,0,0.4-0.1,0.5-0.1c0.1-0.1,0.2-0.1,0.3-0.1c0.1,0,0.2,0,0.3,0c-0.1-0.3-0.2-0.7-0.4-1
		c-0.7-1.1-2.1-1.2-3.2-1.3s-1.6-0.2-1.9-0.4c-1.2-1,1.5-2.2,3.1-1.4l0.8-1.8c-1.5-0.7-3.6-0.6-4.9,0.3c-1.7,1.2-2,3.5-0.4,4.7
		C1133.6,769.9,1134.8,769.8,1135.8,769.9z"/>
</g>
<rect x="983.5" y="782.6" transform="matrix(0.969 -0.2469 0.2469 0.969 -160.7056 301.9081)" class="st28" width="280" height="18.2"/>
<path class="st70" d="M1148.5,433.4l-222.8,56.8c-5.7,1.5-11.6-2-13.1-7.8l0,0c-1.5-5.7,2-11.6,7.8-13.1l222.8-56.8
	c5.7-1.5,11.6,2,13.1,7.8l0,0C1157.8,426,1154.3,431.9,1148.5,433.4z"/>
<rect x="944.5" y="449.4" transform="matrix(0.969 -0.2469 0.2469 0.969 -80.9612 268.511)" class="st32" width="171.4" height="15.4"/>
<text transform="matrix(0.969 -0.2469 0.2469 0.969 1002.3144 461.7515)" class="st71 st23 st72">Search for Pockets</text>
<rect x="1132.5" y="352.3" transform="matrix(0.969 -0.2469 0.2469 0.969 -53.1008 292.4517)" class="st26" width="14.2" height="11.4"/>
<polygon class="st26" points="1129.7,354.6 1136.2,345.7 1146.3,350.4 "/>
<rect x="1016" y="479" transform="matrix(0.969 -0.2469 0.2469 0.969 -87.4745 267.9221)" class="st32" width="17.2" height="7.6"/>
<text transform="matrix(0.969 -0.2469 0.2469 0.969 1017.5792 487.5518)" class="st73 st23 st74">new</text>
<rect x="1056.5" y="465.2" transform="matrix(0.969 -0.2469 0.2469 0.969 -82.3876 280.8896)" class="st32" width="44.7" height="7.6"/>
<text transform="matrix(0.969 -0.2469 0.2469 0.969 1058.4358 477.1446)" class="st73 st23 st74">my pockets</text>
<rect x="975.1" y="489.5" transform="matrix(0.969 -0.2469 0.2469 0.969 -91.3343 258.1495)" class="st32" width="17.2" height="7.6"/>
<text transform="matrix(0.969 -0.2469 0.2469 0.969 979.7938 497.1774)" class="st75 st74" style="text-decoration: underline;">all</text>
<ellipse transform="matrix(0.969 -0.2469 0.2469 0.969 -85.8236 269.697)" class="st66" cx="1032.5" cy="477.1" rx="3.4" ry="3.4"/>
<text transform="matrix(0.9705 -0.2472 0.2469 0.969 1031.8059 486.5915)" class="st0 st16 st76">*</text>
<g>
	<polygon class="st5" points="958.7,586.7 961.1,584.2 962.9,587.2 960.5,590.2 	"/>
</g>
<g>
	<polygon class="st5" points="961.1,503.3 961.3,499.8 964.6,500.9 964.7,504.8 	"/>
</g>
<g>
	<polygon class="st5" points="1188.8,584.9 1189.6,581.6 1192.7,583.2 1192.1,587.1 	"/>
</g>
<ellipse transform="matrix(0.969 -0.2469 0.2469 0.969 -76.3821 239.3962)" class="st77" cx="916.4" cy="424.3" rx="16.6" ry="16.6"/>
<rect x="899.8" y="443.3" transform="matrix(0.969 -0.2469 0.2469 0.969 -81.8334 241.5214)" class="st32" width="44.7" height="7.6"/>
<text transform="matrix(0.969 -0.2469 0.2469 0.969 911.2932 449.9359)" class="st23 st78">first name</text>
<g>
	<polygon class="st5" points="1169.8,718.3 1172.2,715.8 1174,718.7 1171.5,721.8 	"/>
</g>
<rect x="1161.6" y="682.6" transform="matrix(0.969 -0.2469 0.2469 0.969 -132.9577 308.1961)" class="st59" width="1.7" height="3.2"/>
<g>
	<polygon class="st5" points="991.4,748.1 993.6,745.4 995.7,748.1 993.5,751.4 	"/>
</g>
<g>
	<polygon class="st5" points="1041.6,413.4 1041.4,410 1044.8,410.6 1045.4,414.5 	"/>
</g>
<rect x="1147.6" y="467.5" transform="matrix(0.969 -0.2469 0.2469 0.969 -89.1972 300.3894)" class="st0" width="11.2" height="76.8"/>
<linearGradient id="SVGID_3_" gradientUnits="userSpaceOnUse" x1="921.9273" y1="-5.5494" x2="1183.2737" y2="-5.5494" gradientTransform="matrix(0.9705 -0.241 0.241 0.9705 73.1716 840.9911)">
	<stop  offset="0" style="stop-color:#FFFFFF"/>
	<stop  offset="1" style="stop-color:#FFFFFF;stop-opacity:0"/>
</linearGradient>
<path class="st79" d="M1252.6,869.3L1252.6,869.3L890.1,305.5l209.6-52c24.2-6,49,9.2,55,33.3l131.1,527.8
	C1291.7,838.7,1276.8,863.3,1252.6,869.3z"/>
<g>
	<path class="st80" d="M1194.2,85.7h-0.4c0,0,0.8-3,4.2-2.3c0,0,1.3,0.4,2.1,0.7l11.8-0.2l9.5-0.2c0,0,3.5,1.6,3.2,3.5
		c0,0-0.6,4.5-4.4,4.4l-1.1-0.2c0,0-16.1,0.9-19.5,0.5c0,0-4.4,1.8-5.9-0.6c0,0,6.4,1.9,5.7-2.5
		C1199.4,88.8,1199.5,82.3,1194.2,85.7z"/>
	<path class="st80" d="M1112.8,92.6c0,0,2.2,3.3,4.9,1c0,0,1-0.2,1.4-0.6l23.7,0.3c0,0,3.3,0.7,4-4.3c0,0,0.3-4.8-5.4-4.6h-23.1
		c0,0-2.8-1-4.9,0.4l1.8,5.4L1112.8,92.6z"/>
	<path class="st81" d="M1112.2,85.7c0,0,1.9-2.4,3.5-1c0,0,2.5,0.9,2,4.1c0,0,0.4,3.9-1.9,4.6c0,0-2.4,0.5-3-0.9c0,0-2.1-1.5-2-2.7
		C1110.9,89.8,1110.1,87.9,1112.2,85.7z"/>
	<path class="st82" d="M1141.4,84.3c0,0,2.8-0.5,3.9,2.9c0,0,1.4,5.1-2.5,6l2.7,0.3c0,0,3.3-0.6,2.9-5.9
		C1148.5,87.6,1146.8,81.6,1141.4,84.3z"/>
	<path class="st83" d="M1219.2,83.7c0,0,2.2,0.1,3.3,1.5c0,0,1.8,2.1,0,4.8c0,0-0.7,1.6-2.2,1.6h1.9c0,0,2.3-0.6,2.8-2.1
		c0,0,0.4-0.9,0.7-1.1c0,0,0.8-2.3-0.6-3.6c0,0-0.8-1.8-2.1-1.5c0,0-1-0.4-2.7,0L1219.2,83.7z"/>
	<polygon class="st84" points="1164.6,91.1 1166.7,93.5 1166.8,96.9 1163.1,91.9 1162.4,91.1 	"/>
	<polygon class="st85" points="1177.1,91.1 1175.1,93 1175.1,96.7 1179,91.7 1182.8,91.6 1184.1,91.2 	"/>
	<path class="st86" d="M1166.7,91.6c0,0,3.9-2.5,8.6-0.4l-0.2,37.2l-0.1,36.4v42.8l-0.1,22.7h-8.2L1166.7,91.6L1166.7,91.6z"/>
	<path class="st87" d="M1195.3,86.4c0,0,2-2.1,3.2,0.8c0,0,1.5,3.4-2.6,3.4l-2.1,0.7c0,0,0.8,1.1,2.1,1.1c0,0,3.4,0.3,3.9-2.5
		c0,0,1.1-3.4-1.2-5.5c0,0-1.3-1.3-3.6-0.5c0,0-1.4,1.2-1.3,1.8L1195.3,86.4z"/>
	<path class="st88" d="M1064.1,242.8l1,3.9l66.8,30.9c0,0,14.7,3.9,16.4,2.9l-6.8-2.9c0,0-4.4-0.4-1.7-2.9h4.1l3.7-4.8l-61.9-27
		h-6.3l4.4,3.8c0,0-1.3,2.6-5.3,1.5c0,0-1.4,0.5-4.2-1.5l-7.5-3.8h-2.7V242.8z"/>
	<path class="st89" d="M1063.5,242.9c0,0,1.1,9.1,2.9,9.7l68.7,32c0,0,7.4,0.6,7.9,1.3c0.5,0.6,2.1-1.3,2.1-1.3s4.8-0.2,6.9-1.3
		c0,0,0.7,0.4,1.4-0.3c0,0,0.5-0.4,0.3-0.9l1-1.6c0,0,0.4-0.1,0.5-0.7c0,0,0.9-1.2,1.4-1.1c0,0,1.1-0.4,0.6-1c0,0-0.1-0.4,0.4-0.8
		s7-8.5,7-8.5s-0.3-1.5,0.7-1.9c0,0,1.3,1.4,4.4,1.1c0,0,5.1,0.4,6.1-1c0,0-1.4-17.3,0-21.5c0,0-4.8,2.3-10.8,0.1
		c0,0,1.3,2.3-0.4,3.7l-17.3,21.3l-4.6,5.8c0,0-2.1,0.1-1.8,1.5l5,2.5c0,0-0.2,0.6-0.8,0.4l-13.2-2.9l-31.2-14.5l-35.6-16.4
		c0,0-0.8-2.4-0.7-3.9L1063.5,242.9z"/>
	<path class="st90" d="M1162.2,287.2c0,0,0.7-5.9,5-8.6c0,0,5.2-2.4,9.1,0.5c0,0,9.8,6.7,6.8,19.2c0,0-1,8.6-10.2,8.2
		c0,0-5.9-1.6-8.1-6.9C1164.8,299.5,1161.3,294.5,1162.2,287.2z"/>
	<path class="st91" d="M1171.6,283.6c0,0,4.2,2,5.5,8.2c0,0,1.4,8.9-3.9,10.2c0,0-4.1,1.8-7.8-4.4c0,0-3.3-5.2-0.6-10.8
		C1164.8,286.8,1166.1,281.6,1171.6,283.6z"/>
	<path class="st92" d="M1165.1,269.7c0,0,0.4,2.6-0.8,2.3c0,0-3,0.5-2.8,5c0,0,5.2,17.6,7.3,18.6c0,0,2.4,0.3,2.7-2.3v-14.7
		c0,0-0.2-2.9,1.2-3.5l2.4-0.5c0,0,1.2,0.3,1.1,1.7v2.7c0,0,1.2,0.7,1.4,1.2c0,0,1.1,1,1.2,1.3v-7c0,0-0.2-2.1-1.5-2.6
		c0,0-1.3-0.3-1.4-0.9c0-0.2-0.1-1.4-0.1-1.4S1170.8,272,1165.1,269.7z"/>
	<path class="st93" d="M1169.4,292.1c0,0-1.3-1.4-2.4,0c0,0-0.6,2.2,1.2,3c0,0,1.3,0.3,1.6-1.8
		C1169.8,293.3,1170.1,292.6,1169.4,292.1z"/>
	<path class="st94" d="M1166.1,282.4c0,0-1.4-1.9-1.3,0l1.3,4.5c0,0,0.2,0.9,0.8,1.2l1.1,1.3c0,0,0.7,0.6,0.7-0.2V286
		c0,0,0.1-0.8-0.4-1.2L1166.1,282.4z"/>
	<path class="st95" d="M1164.8,274.4c0,0-1-0.5-1.4,0.6l-0.6,1.1c0,0-0.1,1.3,1,2.2l4.1,4.1c0,0,0.9,1.2,0.9-0.4v-4.4
		c0,0,0-1.3-1.1-1.7L1164.8,274.4z"/>
	<path class="st96" d="M1174.4,249.8c0,0,0.6-1.4-1.1-1.3c0,0-2,0.6-3,2.9c0,0-1.4,2.3-0.6,7.5c0,0,0.5,5.8,2.3,5.3
		c0,0,2.8,1.3,2.6-2.6L1174.4,249.8z"/>
	<path class="st97" d="M1146.9,85.7h10.5l21,0.3l15.9-0.3h3.7c0,0,2.6,2.3,0,5c0,0-0.8,1.2-4.7,0.5l-37.2-0.1l-8.4,0.3
		C1147.6,91.4,1149,86.5,1146.9,85.7z"/>
	<path class="st98" d="M1066.6,233.2c0,0,3.4-0.1,4.8,1.6c0,0,3.3,2,5.2,9.2c0,0,1.6-2.7,2.7-2.7c0,0,1.6-0.4,2.1,0.3
		c0,0-2.4-10.2-10.9-10.8c0,0-4.7,0.7-4.3,1.5C1066.2,232.4,1065.9,232.9,1066.6,233.2z"/>
	<path class="st99" d="M1076,244.8c0,0,2.3-5.1,5.3-3l1.9,5.8c0,0-3.1,1.3-4.6,0.7l-1.6-0.2L1076,244.8z"/>
	<path class="st100" d="M1062.4,243.3c0,0,0.6-5.9,2.5-7.3c0,0,2.3-3,5.5-2.9c0,0,6.8,1,7,6.8c0,0,5.9,13.1-1.8,18.3
		c0,0-3.5,1.9-7.3-0.7C1068.3,257.5,1062.3,253.3,1062.4,243.3z"/>
	<path class="st101" d="M1064.5,242.6c0,0-0.2-4.4,4.7-4.6c0,0,5,2.5,5.1,8.5c0,0,0.9,9.5-4.3,8.6c0,0-3.3-0.5-3.5-2.5
		C1066.5,252.6,1063.2,245.9,1064.5,242.6z"/>
	<path class="st102" d="M1163.2,233.4c0,0-0.6-2.9,1.9-4.8c0,0,0.9-0.4,1.7-0.4v2h8.2v-1.5c0,0,1,0.5,1.4,1.2v10.7
		c0,0-0.6,1.1-1,1.1c0,0-7.6,1.3-10.3-0.3c0,0-1.8-0.9-2-1.5l0.3-0.9c0,0-0.3-3.4,1.1-3.3c0,0,2.4,2.2,3.3,1.3c0,0,1.5-1.4-2-2.6
		C1165.8,234.4,1163.2,234,1163.2,233.4z"/>
	<path class="st103" d="M1165.4,241.4c0,0-0.9-0.2-0.6,1.2c0,0-0.2,2.6,0.9,2.9c1.1,0.3,0,0,0,0s5.1,1.8,10.2-0.3s0,0,0,0
		s0.9-0.6,0.7-1.7l-0.1-2.1c0,0-0.4-0.1-0.5,0C1176,241.4,1170.4,243.4,1165.4,241.4z"/>
	<path class="st104" d="M1165.3,266.6c0,0-1.3,0.1-0.7,1.9c0,0-0.3,1,0.5,1.3c0,0,5.3,2.4,10.9,0c0,0,0.5-0.2,0.5-0.8v-1.4
		c0,0-0.3-0.6-0.6-0.9c-0.4-0.2,0.2,1-3.3,1s-3.4,0.1-4,0C1168.5,267.7,1166.4,267.7,1165.3,266.6z"/>
</g>
<g>
	<path class="st105" d="M75.4,1022.7c0,0-1.6,1.2-0.8,4.6c0,0,2.3,4.9,5.2,5.3c0,0,17.5,1.9,39.6-2.1c0,0,27-4.1,44.4-15.8
		c0,0,15.8-8.2,25.5-18.4c0,0,2.9-3,4.9-10.8c0,0,2.6-6.1,17-14.5c0,0,19.7-10.6,21.6-18.8c0,0,2.3-6.5-2.5-11.7
		c0,0-7.5-7.5-8.7-9.7c0,0-1.4-1.3-1.6-1.2c0,0-1.7,6-2.3,11.8c0,0-13.5,7.4-20.8,18.9c0,0-16.8,13.3-19.4,24.3
		c0,0-9.9,10.7-20.1,18.3c0,0-27.4,12.4-43.6,16.8C113.7,1019.9,85.5,1026.9,75.4,1022.7z"/>
	<path class="st106" d="M76.5,1015.2c0,0-5.1,7.9,2,9.2c0,0,16.9,1.9,36.9-4.3c0,0,33.8-7,52.1-24.6c0,0,12.8-10.9,19.1-23.7
		c0,0,14.6-15.7,25.9-23.8c0,0,11.6-11,7.6-17.9c0,0-12-19.7-19.5-24.3c0,0-8.9-12.3-21.6-9.3c0,0-4.5,3.8-3.9,10.8
		c0,0-5,8.2-7.7,7.6c0,0-6.8-24-26.1-10.2c0,0-2.3,6.8-4.1,10.1c0,0-2.4,7.8-3.1,8.8c-0.8,1.1-22.1,48.3-22.1,48.3s-1.1,5-5.8,8.9
		c0,0-6.8,8.7-8.4,11.3c0,0-6.4,7.3-7.8,8.2C90,1000.4,79,1012.1,76.5,1015.2z"/>
	<path class="st107" d="M172.9,919.2c0,0,11.4,4.7,19.4,2.5c0,0,6.2-2.1-0.3-11.8c0,0-3.8-5.3-4.4-5.5s-0.9,1.1-0.2,2.1
		c0,0-0.1,3.1-3.5-2c0,0-2.1-2.1-2,1.1c0,0,5.1,8.1,3.8,9.4c0,0-0.6,2.2-4.6,1.5C180.9,916.4,172.3,915.6,172.9,919.2z"/>
	<path class="st105" d="M140.2,906.2c0,0-1.6,4.1-0.4,4.9c0,0,2.7,2.8,8.4-0.8c0,0,5.8-4.2,7.5-4.1
		C155.7,906.2,149.1,901.2,140.2,906.2z"/>
	<path class="st105" d="M179,897c0,0-4.2-4.1-1.6-7.6c0,0,7.2-2.4,10.4,4.6c0,0,0.9,2.3,0.7,3.4C188.5,897.5,185.2,895.7,179,897z"
		/>

		<ellipse transform="matrix(0.9773 -0.2118 0.2118 0.9773 -201.6562 52.6002)" class="st0" cx="144.7" cy="967.6" rx="4.7" ry="4.7"/>

		<ellipse transform="matrix(0.9773 -0.2118 0.2118 0.9773 -198.6618 53.7583)" class="st0" cx="151.6" cy="954.2" rx="4.7" ry="4.7"/>

		<ellipse transform="matrix(0.9773 -0.2118 0.2118 0.9773 -195.3963 55.0366)" class="st0" cx="159.2" cy="939.6" rx="4.7" ry="4.7"/>

		<ellipse transform="matrix(0.9773 -0.2118 0.2118 0.9773 -192.4931 55.9464)" class="st0" cx="164.9" cy="926.5" rx="4.7" ry="4.7"/>
	<path class="st108" d="M112.3,970.7c0,0,3.1-10.9,26.7-1.4c0,0,4.8,2.7,6.8-1.5c0,0,2.3-4.9-15.4-6.3
		C130.4,961.5,102.8,958.9,112.3,970.7z"/>
	<path class="st108" d="M132,961.2c0,0,2.9,1.5,4.6,1.1l1-2.3c0,0-11.7-9.5-17-9.2c0,0-2.6,1.8-1.2,3.8
		C119.5,954.6,130.1,958.7,132,961.2z"/>
	<path class="st108" d="M118,957.8c0,0,7.6-6.8,17.3-6.1c0,0,6.6,0.3,6.9,0.9s-2.4,3.2-2.4,3.2s-14.4-1.9-21.2,5.2
		C118.7,960.9,117.4,960.4,118,957.8z"/>
	<path class="st108" d="M133.6,939.2c0,0,15,10.2,14.9,13.8c0,0,1.7,3.9,3.8,2.7c0,0,2.2,0.8,0.7-4.5c0,0-8.2-10.2-18.1-15.6
		C134.9,935.6,133.4,937.2,133.6,939.2z"/>
	<path class="st108" d="M140.6,939.6c0,0,6.7-0.1,7.1,0.9l1.9-3.7c0,0-8.9-2.2-13.3-0.2L140.6,939.6z"/>
	<path class="st108" d="M155.3,938.9c0,0,1.5,2.8,2.5,2.1c0,0,3.1-1.6,1.6-4c0,0-8.2-9.2-25.5-13.3c0,0-4.4,0.6-3.3,4.2l0.7,1.2
		c0,0,1.2-2.6,3.3-1.4C134.7,927.7,147.9,929.7,155.3,938.9z"/>
	<path class="st108" d="M137.9,924.9c0,0,18.2-5,28.6-0.9c0,0,2.3,2.1,0.3,4.2c0,0-1.3,1.2-3.8-1.3c0,0-9.1-3-20.2-0.4L137.9,924.9z
		"/>
	<path class="st109" d="M136.6,962.3c0,0,20.2-42.6,25.3-44c0,0,1.7-1.5,8.6,2.1c0,0,15.9,5.8,24.6,1.9c0,0,7.8-6.3,0.6-15.5
		c0,0-4.4-7.2-7.2-9.3"/>
	<path class="st108" d="M117.6,952.1c0,0-1.1-6.3,8.4-11.6c0,0,1.3,2-1.1,4.4c0,0-4.4,2.2-5.1,4.7c0,0,0.1,1.2-0.1,1.3
		C119.6,951,119,954.7,117.6,952.1z"/>
	<path class="st105" d="M125.6,944.1c0,0-1.3,1.5,0.5,2.5l4.3,0.1c0,0,2.8-0.8,2.5-3c0,0,0-4.9,2.7-9.5c0,0,1.9-1.8,2.2,2
		c0,0,2.9-4.1,1.1-5.9c0,0-4.7-1.9-7.5-1.3c0,0-6.6,5.5-5.9,10C125.6,938.9,126.9,941.7,125.6,944.1z"/>
	<path class="st109" d="M163.9,918c0,0-3-10.1-9.7-13.1c0,0-5.4-2.5-13.5,0.6"/>
</g>
<g>
	<path class="st110" d="M1765.9,1023.4l39.6-10.7c0,0,5.4-0.2,6.3-6.1c0,0,1.5-30.9,14.4-24.1c0,0,4.2,14.8,0,20
		c0,0,2.4-8.1-5.4-10.8c0,0-4.9-1-7.2,13.6c0,0-1.5,10.2-6.9,9.4l-44.8,12.5c0,0,2.7-8.7,0.7-18.2c0,0-1.9-8.4-7.7-8.5
		c0,0-8.8-2.7-14.7,11.9l-5.9,20.2l-32.9,0.7c0,0-42.7,0.6-46.3-3.1c0,0-2.6-2.8-8.2-3.1c0,0-7.3,1.3-8.6-3.7c0,0-3-9.3-1.8-12.5
		c0,0,0.6-8.2,2.1-13.3l5.4-10.1c0,0-0.7-5.6,5-11.8l52.4-38.1c0,0,5.6-3.9,11.7-3.3l67.7-2.3c0,0,20.9,2,25.7,5.2l16.5,23.4
		c0,0,1.8,1.5,1.2,4.7l-1.5,9.2c0,0,4.1,5.8,3.7,7.5c0,0-6.2-3.7-10.2,3.5c0,0-3.8,4.6-4.6,17.7c0,0,0.5,5.9-3.4,7.8l-42.1,11.5
		L1765.9,1023.4z"/>
	<polygon class="st0" points="1654.1,1009.6 1688.1,1011.1 1688.1,1019.4 1654.1,1017.3 	"/>
	<path class="st111" d="M1698.8,1023.4l2.4-3.3l18.3-3c0,0-1,3.7-1.9,3.7S1698.8,1023.4,1698.8,1023.4z"/>
	<path class="st112" d="M1701.3,984.7l3.8,5.3l11.7,5.9l29.3-13.1c0,0,1.2-1.1-0.6-2.9l-4.2-3.1c0,0-1-1.3-6.1,0.5L1701.3,984.7z"/>
	<polygon class="st7" points="1704.9,938 1766.2,938 1748.2,965.2 1670.3,963.5 	"/>
	<path class="st113" d="M1666.5,963l-16.6,11.9c0,0-1.3,1.5,1.1,3.7l6,3.9c0,0,46.4,6.6,71.7-4.2c0,0,7.4-4.1,18.1-10.5l-2-1.8
		C1744.8,966,1679.2,969.2,1666.5,963z"/>
	<path class="st114" d="M1648.9,975.7c0,0-9.6,9.4-2.1,16.7c0,0,5.3-7.3,10.3-8.4C1657,984,1650.7,980.9,1648.9,975.7z"/>
	<path class="st115" d="M1732.9,934.5l18.3-15.1c0,0,1.9-1.1,0.7,0.8l-16.4,13.4c0,0-0.2,0.9,0.3,1
		C1735.8,934.5,1734.8,935.7,1732.9,934.5z"/>
	<path class="st116" d="M1782.3,937.4c0,0-10.7,0.3-15.9,11.7l-7.2,13.9c0,0-3.4,5.5,1,7.4c0,0,24.2-9.8,28.3-7.4
		C1788.5,963,1785.4,938.8,1782.3,937.4z"/>
	<path class="st117" d="M1787.6,937.4c0,0,5.1,19.1,6.4,24.2c0,0,13.3-2.4,15.7-2.4l-4.2-15.2c0,0-1.2-3.9-4.9-4.8
		C1800.6,939.2,1789.8,937.2,1787.6,937.4z"/>
	<polygon class="st118" points="1642.9,1013.5 1642.9,1015.3 1655,1021.4 1651.6,1017.8 	"/>
	<path class="st119" d="M1652.4,993.1c0,0-1.5-2,0-3.9l5.3-4.4c0,0,1.3-0.7,3.9,0c0,0,31.3,1.7,33,0.9h4c0,0,3.9,5.4,2.6,7.4
		l-13.2,14c0,0-0.9,1.3-5.2,0.5l-21-0.7c0,0-2.6,0.3-3.9-2L1652.4,993.1z"/>
	<path class="st120" d="M1655.1,989.4l4.8-3.6c0,0,29.3,1.4,34.4,1c0,0,4.1,5.6,2,7.2c0,0-8.7,11.2-11.2,12.7l-24.9-1.3
		C1660.1,1005.3,1654.3,997.6,1655.1,989.4z"/>
	<path class="st121" d="M1679.5,958.9l23-16.7c0,0,2.1-2.3,8-2.3l48-1c0,0,5.8-0.2,3.2,2.9c0,0-12.4,19.7-15.3,19.8
		c0,0-4.1,2.7-11.5,2.1l-52-0.7h-5.7C1677.2,963,1673.1,963.6,1679.5,958.9z"/>
	<path class="st7" d="M1654.2,1017.4c0,0,34.3,2.2,40.7,1.5l-3.7,4.5c0,0-24.1,1.5-31.8-2L1654.2,1017.4z"/>
	<path class="st122" d="M1734.2,1032.7c0,0-3.4-12.3,1-22.1c0,0,5.1-14.9,13.2-18.7c0,0,5.5-3.2,11.1,0c0,0,2.7-0.3,2.9-6.1"/>
	<path class="st123" d="M1761.5,987.5l3.2-1.3c0,0,0.3,1.7-0.6,2.4C1764.1,988.6,1761.9,989.5,1761.5,987.5z"/>
	<path class="st124" d="M1769.5,970.3l8.7-0.7c0,0,3.6-0.2,3.2-3.3c0,0-0.9-5.9-4.7-5.6h-7.3c0,0-2.7,0.3-2.5,3.2v6.5h2.6
		L1769.5,970.3L1769.5,970.3z"/>
	<path class="st125" d="M1762.1,957.6l0.4,13.4c0,0-6-0.7-5.4-4.2L1762.1,957.6z"/>
	<polygon class="st126" points="1761.6,958.4 1764.9,952.1 1765.9,971 1762.4,971 	"/>
	<path class="st127" d="M1782.3,937.4h5.3c0,0,6.2,20.5,6.4,24.2c0,0-4.2,1.1-5.5,1.4C1788.5,963,1785.9,942.6,1782.3,937.4z"/>
	<path class="st128" d="M1785.4,937.4c0,0,7.1,21.5,6.7,24.6"/>
	<path class="st129" d="M1763,968c0,0,2.2,1.2,3.9,0c0,0,3.7-0.5,3.7,0.5c0,0,0.9,2.5-5.1,2.4c0,0-2.6,0.6-3.9-1.1
		C1761.7,969.7,1761.4,968,1763,968z"/>
	<path class="st130" d="M1801.9,939.7c0,0,7.5,8.2,7.8,19.5l1.2-0.3v-11C1810.9,948,1805.9,941.4,1801.9,939.7z"/>
	<path class="st131" d="M1788.5,974.7v-2.4c0,0,0.4-0.9,1.5-0.9l1.8-0.6c0,0,1.1,0,1.6,1.1v2.1c0,0-0.1,0.8-1,0.7l-2.1,0.4
		C1790.3,975.1,1788.5,975.7,1788.5,974.7z"/>
	<path class="st132" d="M1772.1,1004.7l24.5-7.5c3.2-0.3,5.8-2.6,5.8-2.6l20.2-20.1"/>
	<path class="st133" d="M1817.4,993.8c0,0,2.9-5.2,5.2-5.3c0,0,3.4-1.2,4.9,2.8c0,0,0.9,6.6-0.6,9.4c0,0-0.5-4.4-3.1-7.4
		C1823.8,993.3,1820.1,991.3,1817.4,993.8z"/>
	<path class="st134" d="M1753.9,956.5c0,0,4.4,1.3,5.6,5.3"/>
	<path class="st135" d="M1761.6,956.9c0,0-0.8-3.1,0-4.9c0,0,8-13,9.3-14c0,0,1.7-2.3,7.8-3.2c0,0,15.6-0.2,21.4,2.6
		c0,0,4.6,1.5,4.4,2.9c0,0-3.7-1.2-7.2-2.1c0,0-12.1-2.4-19.2-1.3c0,0-6.2,1.7-7.9,5.4C1770.1,942.1,1761.6,955.1,1761.6,956.9z"/>
	<path class="st134" d="M1762.4,971v2.9c0,0,2.9,4.7,3.4,10.7c0,0,1.6,39.9-4,42.6"/>
	<path class="st136" d="M1765.9,984.5c0,0,54.7-17.5,58.3-19.3"/>
	<path class="st137" d="M1770.5,1013.1l36.5-9.6c0,0-1.2-5.8-6-7.4l-29.8,9.3L1770.5,1013.1z"/>
	<path class="st138" d="M1699.7,995.5c0,0,6-0.5,6.3,1.2c0,0-0.3,1.1-1.4,1.2c0,0-11.6,4.6-14,7.2L1699.7,995.5z"/>
	<path class="st139" d="M1647.3,992.4l9.2,10.4c0,0-5.3-10.6-5.1-12.2l-1.4-1.3L1647.3,992.4z"/>
	<path class="st122" d="M1640.7,1007.9c0,0-0.2,7.9,1.4,9.5c0,0,13.3,8.7,18.2,8.2c0,0,30.1,3.3,41.4,0.7c0,0,13.9-1.9,14.9-2.6
		c0,0,4.6-6,6.1-10.3l-24.7,2.7l-3,2.7c0,0-38.3,0-41.7-2.2l-1.3-2.2L1640.7,1007.9z"/>
	<polygon class="st140" points="1663.2,1018.6 1663.2,1021 1673.4,1022.4 1673.4,1019.1 	"/>
	<polygon class="st141" points="1675.9,1019.4 1675.9,1022.7 1686.7,1023 1686.7,1019.7 	"/>
	<polygon class="st142" points="1660.5,1021.2 1660.5,1018.6 1656.5,1018.6 	"/>
	<polygon class="st143" points="1689.1,1019.9 1689.1,1023 1690.9,1023 1693.4,1019.9 	"/>
	<path class="st144" d="M1641.2,1026.3c0,0,0.7,5,2.3,7.1c0,0,3.4,5.6,6.5,6.6c0,0,6.3,1.2,8.5,0c0,0,7-0.8,10.2-7.2
		c0,0-7.1-0.3-11.7-1.5c0,0-4.2-1.5-5.5-5H1641.2z"/>
	<path class="st145" d="M1730.5,1032.7c0,0,1.3,8.4,5.2,11.9c0,0,4.5,5.1,7,5h7c0,0,3.3-0.7,5.3-4.2c0,0,6.6-5.7,6.5-10.7
		c0,0,2.3-8.7,1.6-13.5c0,0-0.5-9.7-2.5-11.9c0,0-2.8-4.8-6.8-5.9c0,0-6.3-2.8-11.1,3.1c0,0-7.1,14.7-8.3,26.3L1730.5,1032.7z"/>
	<path class="st146" d="M1743.8,1022.9c0,0,1.4-9.1,5.3-10.9c0,0,2.5-2.1,5.5,0c0,0,4.8,4.8,4,15.2c0,0-1,7.9-3.3,10.5
		c0,0-1.1,3.5-6,3.1c0,0-4.1-2-4.3-5.6C1744.9,1035.3,1743.1,1029.6,1743.8,1022.9z"/>
	<path class="st147" d="M1766.1,1023l41-10.8c0,0,2.6-0.4,3.5-3"/>
	<path d="M1744.8,1004.2c0,0,3.2-3.7,7.4-4.2c0,0,5.7-0.6,8,2.9c0,0,4.4,7.6,2.8,18.3c0,0-0.8-12.8-9.3-17.9
		C1753.7,1003.3,1749.8,1001.3,1744.8,1004.2z"/>
	<path class="st148" d="M1806.7,1014.7c0,0,0.9,6.1,2,7.9c0,0,1.4,5.2,3.9,5.6h6.7c0,0,3.3-0.9,4.8-4c0,0,3.5-7.5,3.6-11.9
		c0,0,0-17.6-4.1-19.4c0,0-5.1-3.6-8,4l-4.6,15.5C1811.1,1012.4,1809.7,1014.8,1806.7,1014.7z"/>
	<path class="st149" d="M1816.1,1008.7c0,0,0.6-8,3.6-10.6c0,0,3.2-0.8,4,2.2c0,0,2.1,5.1,1.3,9.9c0,0,0.5,8.3-3.4,11.5
		c0,0-4,2.9-5.5-4V1008.7z"/>
</g>
<g>
	<path class="st150" d="M945.1,840.1c0,0,3.4-1,2.7-5.7c-0.7-4.6,0,0,0,0s8.9,2.7,7.3,8.1s0,0,0,0s-0.5,3.5-4,1.1s0,0,0,0
		S948.5,841.2,945.1,840.1"/>
	<path class="st151" d="M928.8,839.3c0,0,1.1-7.4,9.2-6c0,0,10.6,6,6,10.6c0,0-2.1,3.2-3.9,3.2C940.1,847.1,939.4,841.1,928.8,839.3
		z"/>
	<path class="st152" d="M937,870.4c0,0,3.5,0,6.7-5.7c0,0,11,6,4.2,11.3c0,0-2.7,4.6-4.4,1.1c0,0-3.7-4.4-5.9-4.3
		C937.6,872.9,938,870.9,937,870.4z"/>
	<path class="st153" d="M926.3,887.7c0,0,5.7-3.6,5.9-7.1c0,0,8.9,3.9,6.2,9.4c0,0-2.7,5.2-5,4.9
		C933.4,894.9,930.9,889.4,926.3,887.7z"/>
	<path class="st154" d="M923.4,872.1c0,0,6.1,2.3,8.4,6.4c0,0,1.1,1.5,2.1,0c0,0,7.1-5.3,2.2-10.3c0,0-5.5-4.9-7.1-4.7
		C929,863.4,927.7,870.6,923.4,872.1z"/>
	<path class="st155" d="M912.1,888.7c0,0,5.6-4.3,4.6-8c0,0,4.9,0,8,4.4c0,0,5.2,5.5-3.5,11.2C921.2,896.2,918,890,912.1,888.7z"/>
	<path class="st156" d="M955.8,831.2c0,0,1.6-2.1,2.5-1.6c0,0,4.4,2.9,1.7,5.1c0,0-1.7,2.2-2.8,1.6C957,836.3,958.3,833,955.8,831.2
		z"/>
	<path class="st157" d="M945.1,823c0,0-0.4-2.7,3.2-3c0,0,5.4,1.3,4.5,5.7c0,0-1,1.9-1.9,1.8C951,827.5,949.9,824.9,945.1,823z"/>
	<path class="st158" d="M928.3,823.7l-3.2-2.6c0,0,1.9-5.6,7.2-3.7l2.3,2.2c0,0-2.2,1.9-1.9,3.8C932.6,823.3,930,822.7,928.3,823.7z
		"/>
	<path class="st159" d="M909.6,829.5c0,0,2.2-7.1,8.4-4.6l4.2,2.6c0,0-3.4,3.2-3.3,6.2c0,0-1.4-0.5-2.5,0
		C916.3,833.6,915.4,830.4,909.6,829.5z"/>
	<path class="st160" d="M894,864.8c0,0,0.3-8.7,9.3-7.4c0,0,5,1.8,6.6,4.6v2.4c0,0-4.6,1.2-5.9,5.5c0,0-3.4-3.2-6.6-4.6L894,864.8z"
		/>
	<path class="st161" d="M890.8,888.4c0,0,1.2-8.5,9.3-7.8c0,0,13.3,4.4,9.9,12.5c0,0-3.6,5.3-5.5,4.9
		C904.4,898,902.3,889.6,890.8,888.4z"/>
	<path class="st162" d="M872.9,889.3c0,0,7.1-1.3,9.9,2.2l-10.9,6.5L872.9,889.3z"/>
	<path class="st163" d="M906.4,849.1c0,0,0.9-7.2,6.9-7.6c0,0,6.9,0.3,9.5,5.6c0,0-6.7,3.3-5.7,7.9C917,855,911.5,848.3,906.4,849.1
		z"/>
	<path class="st153" d="M887.7,872.9c0,0-6.2,1.5-6.3,7.8c0,0,6.6,1.7,10.4,4.7c0,0,1-4.1,5.8-4.7v-3.2
		C897.6,877.3,893.9,873.5,887.7,872.9z"/>
	<path class="st164" d="M877.4,868.1c0,0,0.5-9.1,10.4-7.1c0,0,5.3,2.4,4.8,3.8c0,0-4.8,3.1-5.3,7.8
		C887.2,872.5,882.7,868.4,877.4,868.1z"/>
	<path class="st165" d="M934.8,855c0,0,6.5,2.5,8.7,7.2c0,0,6.9-2,5.3-9.1c0,0-3.3-5.3-8.7-6C940.1,847.1,941.2,852,934.8,855z"/>
	<path class="st166" d="M896.4,844.9c0,0,0.5-6.7,6.7-7.2c0,0,5.1,0.4,7.9,3.8c0,0-4.2,2.6-5,7.6h-1.4
		C904.6,849.2,900,844.5,896.4,844.9z"/>
	<path class="st167" d="M952.9,845.7l2-2.3c0,0,7.5,3.5,4.9,7.5l-2,2.5c0,0-3.3-2.6-4.9-3.2C952.9,850.2,953.9,847.3,952.9,845.7z"
		/>
	<path class="st168" d="M903.7,872.5l0.3-2.7c0,0,2.5-7.1,9.3-5c0,0,10.4,2.6,8.3,11.3c0,0-2.5,5.1-4.9,4.6
		C916.7,880.6,911.6,871.8,903.7,872.5z"/>
	<path class="st169" d="M880.6,916.4c0,0,4.9,2.4,6,7.3c0,0,9.7-5,4.2-12.1c0,0-3-4.5-8-5.7L880.6,916.4z"/>
	<path class="st170" d="M877.4,927.3c0,0,8.5,6.1-2.5,13.8l-1.1-1.5L877.4,927.3z"/>
	<path class="st162" d="M889.6,921.6c0,0,7.1,3.9,8,8.6c0,0,8.6-5.5,4.4-11.8c0,0-2.8-3.8-6.8-4.9l-2.6,1.8
		C892.5,915.3,892.6,919.4,889.6,921.6z"/>
	<path class="st171" d="M910.5,912.1c0,0,4.3-2.5,4.2-7.5c0,0,0.9-0.9,2.4,0.5c0,0,3.2,1.7,5.3,5.9c0,0,0.1,7.8-6,7.5
		C916.5,918.5,915.6,914.3,910.5,912.1z"/>
	<path class="st172" d="M898.4,906.7c0,0,2.6-0.9,2.7-1.7c0,0,6.2,3.1,7.9,7.8c0,0-0.8,7.1-5.9,8c0,0-1.2-5.3-8-7.2
		C895.1,913.6,899.3,911,898.4,906.7z"/>
	<path class="st173" d="M880.6,932.2c0,0,4.9-1.2,6-8.4c0,0-1.1-5.4-6-7.3l-3.3,10.9C877.4,927.3,880.2,929.5,880.6,932.2z"/>
	<path class="st174" d="M878,938.5c0,0,2.4,0.7,4.4,2.6l-10.5,4.9l1.8-6.3C873.7,939.6,875.6,942.3,878,938.5z"/>
	<path class="st175" d="M901.1,905c0,0,1.6,0,3.4-7c0,0,1.8,0.1,2.7-0.7c0,0,6,2,7.5,7.2c0,0-1.9,9.3-5.7,8.2
		C909,912.8,905.7,907.3,901.1,905z"/>
	<path class="st176" d="M887.7,889.3c0,0,2.4-0.8,6.3-0.3c0,0,15.6,4.7,8.4,14.6c0,0-2.1,3.2-4,3.1c0,0-1.5-8.7-13.1-9.3
		L887.7,889.3z"/>
	<path class="st177" d="M874.8,888.8c0,0,1.2-8.8,8.9-7.5l8,4l-1,3.1c0,0-4.2,0.4-8,3.1C882.8,891.5,879.7,888.1,874.8,888.8z"/>
	<path class="st153" d="M914.7,904.6c0,0,7.3-4.2,5.2-9.7c0,0-3.3-6.5-9.4-5.6c0,0,1.5,1.8-3.3,8.1
		C907.2,897.4,913.7,899.2,914.7,904.6z"/>
	<path class="st178" d="M874.8,876.3c0,0,2.3,0.9,6.6,4.3c0,0-7.4,2.6-6.6,8.2l-1.6-1.9L874.8,876.3z"/>
	<path class="st179" d="M921.2,896.2c0,0,5.5,2.6,6.7,6.9c0,0,1.1,6-5.5,7.9c0,0-1-3.4-6.8-7C915.6,904,921.2,900.7,921.2,896.2z"/>
	<path class="st180" d="M897.6,880.6c0,0-0.7-8.5,8.8-7.9c0,0,19.4,7.4,4.1,16.6C910.5,889.3,906.6,880.1,897.6,880.6z"/>
	<path class="st181" d="M881.4,880.6l-6.6-4.3c0,0,0.5-7.3,2.5-8.2c0,0,6.5,0.9,9.9,4.4C887.2,872.5,880.9,875.1,881.4,880.6z"/>
	<path class="st182" d="M897.6,877.3c0,0,2-3.5,6.1-4.8l0.3-2.7c0,0-7-7.9-13.6-3.2c0,0-2.2,3-3.1,5.9
		C887.2,872.5,895.1,874.1,897.6,877.3z"/>
	<path class="st175" d="M904.4,898l2.7-0.7c0,0,10.2,3.3,6.6,11.2c0,0-2.8,4.9-4.7,4.3c0,0-3.5-7.1-7.9-7.8
		C901.1,905,904.5,902.4,904.4,898z"/>
	<path class="st165" d="M916.7,880.6c0,0,6.7-2.1,5.2-9l1.5,0.5c0,0,12.2,4.1,7.2,11.9c0,0-3.8,5.5-4.9,2.4
		C925.7,886.4,922.7,880.2,916.7,880.6z"/>
	<path class="st183" d="M937.6,872.9c0,0,4.3,2,6.9,5.6c0,0,0.7,6.6-5.6,8.2c0,0-1.7-4.3-6.7-6.1c0,0-0.7-1.6,1.7-2.2
		C933.9,878.5,938.3,875.3,937.6,872.9z"/>
	<path class="st180" d="M909.9,864.3c0,0,0.9-10.1,10.4-8.1c0,0,6.2,3.2,8.7,7.3c0,0-2.7,10.2-7.1,8.2
		C921.9,871.6,918.8,864,909.9,864.3z"/>
	<path class="st184" d="M900.6,856.6c-0.6,0.2,0.6-8.2,8.4-7.5c0,0,6,2.3,8,5.8c0,0-4.4,1.3-7.1,6.9
		C909.9,861.9,904.8,855.6,900.6,856.6z"/>
	<path class="st185" d="M883.3,860.2c0,0,1.3-7.3,8.5-7.3c0,0,6.9,2.3,7.2,4.4c0,0-5.6,2.4-4.9,7.5l-2.2,0.5
		C891.9,865.3,891.8,861,883.3,860.2z"/>
	<path class="st186" d="M890.1,852.8c-0.7-0.2-0.1-7.6,8.3-7.7c0,0,5.5,0.8,6.3,4.1c0,0-4.9,4.1-4.1,8H899
		C899,857.2,898.3,854.7,890.1,852.8z"/>
	<path class="st180" d="M929,863.4c0,0,6.1-1.9,5.8-8.4c0,0,13,5.3,7.1,11.6c0,0-3,6-5.9,1.5L929,863.4z"/>
	<path class="st187" d="M917,855c0,0,0.3-6.4,7.3-7.9c0,0,10.3,3.2,10.2,10.1c0,0-1.6,6.1-5.5,6.2C929,863.4,926.3,858.3,917,855z"
		/>
	<path class="st188" d="M913.2,841.5c0,0-0.6-10.1,9.5-7.9c0,0,7,3.9,6.1,5.7c0,0-5.2,1.2-6.1,7.8
		C922.7,847.1,921.2,842.5,913.2,841.5z"/>
	<path class="st183" d="M903.1,837.7c0,0-0.8-6.6,6.5-8.2c0,0,6.6,1,6.8,4.1c0,0-4.9,4.2-3.1,7.9H911
		C911,841.5,908.8,837.6,903.1,837.7z"/>
	<path class="st189" d="M954.9,838.7l2.1-2.5c0,0,4,1.2,4.9,5.3c0,0-1.7,6.4-7,1.8C954.9,843.5,955.7,841.6,954.9,838.7z"/>
	<path class="st190" d="M918,824.9c0,0,0.5-5.6,7.1-3.8l3.2,2.6c0,0-2.1,1.7-2,3.5c0,0-2.8,0-4.1,0.2L918,824.9z"/>
	<path class="st191" d="M918.9,833.6c0,0,0.9-7.8,8.1-6.2c0,0,5,2.2,7.5,5.5c0,0-4.9,2.2-5.7,5.2
		C928.8,838.2,923.8,832.5,918.9,833.6z"/>
	<path class="st153" d="M922.7,847.1c0,0,0.6-7.2,6.6-7.7c0,0,11,1,10.7,9.7c0,0-1.2,5.3-6.1,5.5C934,854.7,931.4,849.2,922.7,847.1
		z"/>
	<path class="st192" d="M934.5,833c0,0,0.9-7,8.3-3.9c0,0,6.2,2.6,4.9,8.1c0,0-1.1,2.7-2.5,3C945.1,840.1,941,833.7,934.5,833z"/>
	<path class="st193" d="M941.1,847c0,0,4.4-2.4,4-6.9c0,0,8.9,3.1,8.2,8.3c0,0-1.5,6.7-4.5,4.6C948.8,853.1,945.6,848.2,941.1,847z"
		/>
	<path class="st194" d="M948.2,834.6c0,0,4,1.1,6.8,4.2c0,0,4.9-3.6,0.8-7.6c0,0-1.8-1.8-4.5-2.2C951.3,829,951.1,831.9,948.2,834.6
		z"/>
	<path class="st195" d="M943.5,862.2c0,0,0.3,1.1,0.1,2.5c0,0,5,2.7,6.4,6.1c0,0,6.5-2.4,5.3-8.5c0,0-4.3-5.6-6.3-5.2
		C949.1,857.2,947.2,861.7,943.5,862.2z"/>
	<path class="st180" d="M948.8,853.1c0,0,1.6,1.8,0.2,4.1c0,0,3.5,0.1,6.3,5.2c0,0,5.6-3.3,3.1-7.7c0,0-1.3-2.4-5.5-4.5
		C952.9,850.2,952,854.6,948.8,853.1z"/>
	<path class="st196" d="M939.4,827.8c0,0,0.6-6,6.3-4.1c0,0,6.8,2.4,5.3,6.8c0,0-1.6,4.1-3.5,3.1C947.5,833.6,947,829.6,939.4,827.8
		z"/>
	<path class="st197" d="M934.5,819.5c0,0-0.5-4.4,4.4-3.7c0,0,1.7,0.4,2.3,1.6c0,0-1.8,1.1-2.1,2.4
		C939.1,819.8,937.9,819,934.5,819.5z"/>
	<path class="st198" d="M938.5,827.9l-5.9-4.6c0,0,0.2-5.2,5.6-3.9c0,0,4,2,4.9,3.9c0,0-3.6-0.1-3.7,4.5L938.5,827.9z"/>
	<path class="st199" d="M934.5,833c0,0-3-4.2-8.2-5.7c0,0,0.6-5.3,6.3-3.9l5.9,4.6C938.5,827.9,934.6,828.7,934.5,833z"/>
	<path class="st200" d="M939.1,819.8c0,0,2.1-4.5,6.1-2l2.1,2.3c0,0-2.2,0.3-2.6,3.4c0,0-0.3-0.5-1.5-0.1
		C943.2,823.4,941.7,820.8,939.1,819.8z"/>
	<path class="st201" d="M951,827.5c0,0,0.5,0.7,0.3,1.6c0,0,2.8,0,4.5,2.2c0,0,0.3-1.1,1.6-1.9c0,0,0.6-4.3-4.5-4.9
		C952.9,824.4,953.6,827.1,951,827.5z"/>
	<path class="st175" d="M885.3,897.4c0,0,6.6-0.6,11.2,5.4c0,0,6.2,6.9-3.9,12.6c0,0-1.1-6.3-9.7-9.5
		C882.8,905.9,885.3,899.3,885.3,897.4z"/>
	<path class="st202" d="M821.9,991.1c0,0-11.1-39.9,19.7-68.7c0,0,25.1-24.6,46.1-33.2C887.7,889.3,876.9,989.5,821.9,991.1z"/>
	<path class="st203" d="M826,944.2c0,0,6-68.5,69.6-128.9c0,0-17.3,20.5-23.8,82.7C871.9,898,845.4,914.1,826,944.2z"/>
	<path class="st203" d="M871.9,945.7c0,0,64.2-25.1,100.1-69.6c0,0-69.6,127.8-148.8,115.1C823.2,991.1,857,989.5,871.9,945.7z"/>
	<path class="st202" d="M943.5,883l27.9-7c0,0-23.4,49.6-99.5,70l39.7-16.5l-0.1-2.2c0,0,5.9-2.5,5.6-8.3c0,0,5.2-0.8,5.4-8
		c0,0,6-1.4,5.5-7.9c0,0,5.6-2.5,5.4-8.1c0,0,5.8-1.3,5.5-8.2C938.9,886.7,941.9,886.8,943.5,883z"/>
	<path class="st173" d="M894.5,936c0,0,2.9-1.9,3.1-5.8l2.3-1.9c0,0,4.2,2.7,4.4,3.9C904.3,932.2,901.2,936.2,894.5,936z"/>
	<path class="st193" d="M903.7,920.9c0,0,4.6-1.8,5.3-8.1c0,0,2.1-1.8,5.7,2.5c0,0,6.4,6.7-3.2,12
		C911.5,927.3,909.7,920.6,903.7,920.9z"/>
	<path class="st204" d="M899.9,928.3c0,0,4.1,2.5,4.7,3.9c0,0,1.6,0.5,4.4-0.7c0,0,2.7-1.6,2-4.6c0,0-2.4-6.8-7.7-5.3
		C903.3,921.6,903.3,925.5,899.9,928.3z"/>
	<path class="st205" d="M926.3,887.7c0,0,1.1,6-5.1,8.5c0,0,6,2.5,6.7,6.9c0,0,1.5,1.2,3.5-2.7c0,0,3.7-4.6-0.3-9L926.3,887.7z"/>
	<path class="st164" d="M883.7,930.2c0,0,2.8-2.6,2.9-6.5c0.1-3.9,0,0,0,0s1.9-0.7,3-2.2s0,0,0,0s8.7,5.3,7.9,9.7s0,0,0,0
		s-1.5,6.6-6.2,5.5c-4.7-1,0,0,0,0S890.5,933.1,883.7,930.2"/>
	<path class="st206" d="M883.7,930.2c0,0,7.1,2.7,7.8,7.6l-9.1,3.3l-4.4-2.6c0,0,2.5-1.3,2.7-6.3
		C880.6,932.2,882.3,932.1,883.7,930.2z"/>
</g>
<circle class="st207" cx="1426.3" cy="316.6" r="5.8"/>
<circle class="st207" cx="1544" cy="316.5" r="6.8"/>
<circle class="st208" cx="1426.3" cy="316.6" r="34.2"/>
<polyline class="st209" points="1399.7,333.9 1420.6,320.3 1422.9,321.2 1408.8,343.4 1420,347.9 1424.7,322.7 1426.9,322.7
	1432.4,347.2 1445,343.7 1429.6,321.3 1431.4,319.4 1452.7,333.6 1457,327.9 1457.3,322 1432.1,317.3 1432.1,314.7 1458.5,309.1
	1452.9,296.8 1444.3,289.3 1443.2,288.6 1429.6,310.8 1426.8,309.9 1431.6,283.6 1418.3,284.3 1424.4,310.2 1422.4,310.8
	1407.1,289.4 1399,298.6 1420.6,313.1 1419.8,315.3 1393.4,310.8 1395.1,323 1420,317.6 "/>
<polyline class="st209" points="1516.1,335 1538.2,320.5 1540.7,321.4 1525.7,345 1537.6,349.9 1542.6,323 1545,323 1551.3,351.2
	1564.2,345.4 1547.9,321.6 1549.8,319.5 1572.4,334.7 1577,328.6 1577.4,322.3 1550.5,317.3 1550.5,314.6 1578.6,308.6
	1572.6,295.5 1563.5,287.5 1562.3,286.8 1547.8,310.4 1544.9,309.5 1550,281.5 1535.8,282.2 1542.3,309.8 1540.2,310.4
	1523.9,287.6 1515.3,297.5 1538.2,312.8 1537.4,315.2 1509.3,310.4 1511.1,323.3 1537.7,317.6 "/>
<circle class="st210" cx="1544.4" cy="316.5" r="36.3"/>
<circle class="st209" cx="1544.4" cy="316.6" r="31.9"/>
<circle class="st209" cx="1426.3" cy="316.6" r="29"/>
<path class="st211" d="M1494.2,235.1c0,0-2.2,0.4-2.5-1.9l0.2-1.7c0,0,0.4-1.6,2.3-1.3l11.5,0.8c0,0,1,0,1.6,0.9
	c0,0,10.8-0.2,12.7,3.7c0,0,4.4,5.7,0,9.5c0,0-6.9,4.1-5,6.3l0.9,1.9c0,0,1.6-0.3,2.4,0.8l0.8,1.7c0,0,0.4,1.6-0.5,2.2l12.3,25.7
	l15,31.5c0,0,1.3,2.4-0.8,3.5c0,0-2.1,1.2-3.5-1.5l-12.3-26.2l-7.3-15l-41.3,43.8l-7.2,1l-47.4-2.4c0,0-2.9-1.2-0.8-3.6l32.8-37.5
	l-7.6-21.1l3.2-1l8.3,20.4l55.4-8.9l-3.2-6.9c0,0-0.9,0.3-1.7-0.9l-0.8-1.8c0,0-0.3-1.4,0.9-2.4c0,0-1.9-3.3-1.5-5.8
	c0,0,0.3-2.3,3.7-4.6c0,0,4.3-2.3,3.6-4.1c0,0,0.5-5.1-11.5-4.7c0,0-0.4,0.7-1.4,0.5L1494.2,235.1z"/>
<path class="st212" d="M1453.7,269.2c0,0-0.5-1.6,0.7-2.3l3.6-1.3c0,0,1.1-0.3,1.9,0.9l0.6,1.8c0,0,0.5,1-0.6,2.2l-4,1.4
	c0,0-0.9,0-1.6-1.1L1453.7,269.2z"/>
<path d="M1448,250.3c0,0-6.8-1.6-7.9,0c0,0-3.8,2.8,0,6.4c0,0,3.7,2.3,5.7,1.4c0,0,10.9,0.1,18-2.4c0,0,5.3-2.7,0.4-4.2
	c0,0-11.1-0.5-12.7-0.6C1451.6,250.8,1448.9,250.7,1448,250.3z"/>
<polygon class="st0" points="1429.9,314.7 1459.7,281 1474.1,317.2 "/>
<polygon class="st0" points="1463.1,278.4 1478,316.6 1520.1,271.8 1519,269.6 "/>
<line class="st209" x1="1433.3" y1="314.5" x2="1457.1" y2="309.4"/>
<line class="st209" x1="1430.6" y1="314.2" x2="1452.4" y2="298.6"/>
<path d="M1448,294.2c0,0,9,7.4,9.5,22.1l6,0.3c0,0,0.6-15.4-11.6-26.9L1448,294.2z"/>
<path d="M1430.2,314.7l3.2,0.2c0,0-0.3-1.5-1.3-2.7c0,0,0.5,1.6,0,0l-2.1,2.3L1430.2,314.7z"/>
<circle class="st15" cx="1478.1" cy="318" r="10.2"/>
<circle cx="1477.8" cy="318.3" r="4.4"/>
<line class="st209" x1="1550.7" y1="312.2" x2="1572.6" y2="295.5"/>
<line class="st49" x1="1476.5" y1="321.3" x2="1474.1" y2="326.7"/>
<line class="st49" x1="1480.6" y1="319.8" x2="1486.4" y2="324"/>
<polygon points="1474.8,316.4 1478.1,314 1488.4,337 1483.2,336.4 "/>
<polygon points="1477.8,337 1490.9,335.6 1491.6,340.5 1478.1,342.1 "/>
<path class="st213" d="M1512.1,254.6c0,0-3.8-5.7,0.8-9.3c0,0,4-2.6,4.9-4.2c0,0,1.2-4-5.7-5.3c0,0-3.1-0.7-5.8-0.3
	c0,0-0.3,0.7-1.4,0.5l-11.2-0.8c0,0-2.3,0.5-2.5-1.9l0.2-1.7c0,0,0.1-1.5,2.3-1.3l11.5,0.8c0,0,1.1,0.1,1.6,0.9c0,0,12.2-1,14,6
	c0,0,2.2,4.1-1.3,7.2c0,0-6.8,4.1-5,6.3l0.9,1.9C1515.5,253.1,1514.6,255.1,1512.1,254.6z"/>
<path class="st211" d="M1517.3,266.1c0,0-3.8-5.7,0.8-9.3c0,0,4-2.6,4.9-4.2c0,0,1.2-4-5.7-5.3c0,0-3.1-0.7-5.8-0.3
	c0,0-0.3,0.7-1.4,0.5l-11.2-0.8c0,0-2.3,0.5-2.5-1.9l0.2-1.7c0,0,0.1-1.5,2.3-1.3l11.5,0.8c0,0,1.1,0.1,1.6,0.9c0,0,12.2-1,14,6
	c0,0,2.2,4.1-1.3,7.2c0,0-6.8,4.1-5,6.3l0.9,1.9C1520.6,264.6,1519.7,266.6,1517.3,266.1z"/>
<path class="st209" d="M1446.6,295.8c0,0,8.4,7.7,8.8,20.8"/>
<rect x="69.8" y="395" class="st32" width="469.2" height="32"/>
<text transform="matrix(1 0 0 1 69.7773 417.7695)" class="st214 st215">Design for Mobile Module</text>
<rect x="63.8" y="335" class="st32" width="437.7" height="41"/>
<text transform="matrix(1 0 0 1 69.7777 373.6392)" class="st214 st216">Year 2</text>
<path class="st217" d="M167.1,66.3c0,0-21.4,0.4-33.9,29.6c0,0-11.5,34.1,16.8,60.1c0,0,13.5,14.2,36.6,14.1c0,0,23.7,2.1,41.1-14.8
	c0,0,35.4-32.8,7.4-75.2C235.2,80.1,218.8,57.5,167.1,66.3z"/>
<path class="st218" d="M176.2,73.4c0,0,8.1,8.2-1.7,4.8c0,0-44.1-11.8-33.2,5.5c0,0-11.6-18.2,39.6,0c0,0,2.2-0.2,1,7.7l0,0
	c0,0,0.7,0,2.8,0c0,0,0.7,0.2,2.1-1.8c0,0,4.3-9.6,16.6-1.4c0,0,24.8,15.2,28.8,16.8c0,0,5.4,2.3,4.8,5.4c0,0,1.4-2.3-0.4-3.8
	c-1.9-1.6-7.1-3.9-14.4-9L202,82.3c0,0-2.8-1.2,0.7-3.4c0,0,6.9-5.7,23.7-3c0,0,21.1,3.4,12.1,7.5c0,0,6.2-2.1,0.3-4.6
	c0,0-11.6-6.8-26.6-5.9l-7.9,1.1c0,0-3.5,0.9-0.5-1.4c0,0,16-9.7,24.4-5.9c0,0,2.6,0.9,1,2.7c0,0,2.3-1.7-0.2-3.2
	c0,0-8.7-4.7-22.3,1.6c0,0-12.1,7.1-12.3,4.5c0,0-0.7,0,0.2-2.7c0,0,0.2-0.9-0.3-1.4c0,0-0.5-1.2,1.2-2.7c1.7-1.4,8.1-6.2,9.8-8.4
	c0,0,4.3-4.3,6.2-2c0,0,0.2-2.5-5.5-1.2c0,0-5,1.6-9.5,5.5c0,0-6.2,3.4-8.5,8.2c0,0,0,0.9-0.9,1.4c0,0,0.5,8.4-5.4,3.4l-11.2-7.8
	c0,0-2.1-1.1-1.2-5.2c0,0,6.9-19.8,13.1-23.3c0,0,0.7-0.9-0.9-0.7c0,0-9.7,8-12.3,18.5c0,0-3.3,10,0.2,12.8
	C169.2,66.6,175.5,72.6,176.2,73.4z"/>
<path class="st219" d="M181.9,82.7v8.7h2.9C184.9,91.4,182.1,87.7,181.9,82.7z"/>
<path class="st220" d="M185.3,80.3c0,0,2.8,3.7,8.1,0.5c0,0,0.7-0.2,0.9,0.4c0,0,1,0.5,0.9-0.9c0,0,0-0.5,0.5-0.4c0,0,0.9,0.2,1-1.1
	c0,0-0.3-0.7,0.3-1.1c0,0,0.5-1.4-0.5-1.6c0,0-0.7-0.5,0-0.9c0,0,0.3-1.1-1.2-0.7c0,0-0.7,1.2-1,0l-0.5-3.6l0.5-0.4v-0.9h0.5
	l-0.2-1.2h-0.5l-0.3-0.5c0,0-0.9,0.2-0.3-0.5s0.2-0.9,0.2-0.9h-0.5c0,0-0.3-1.2-1.9-1.2v-0.7h-1v0.7c0,0,0.2,0.9-0.9,1.2
	c0,0-1.7,0.2-1.6,1.6c0,0-1,0.2-0.9,1.6c0,0,0,3.4-0.5,3.6C186.3,73.4,185.7,79.6,185.3,80.3z"/>
<path class="st221" d="M188.9,68.4c0,0-1-0.7,0-1.6l1.6-0.7c0,0,1-0.5,1.6,0.7l1,1.4c0,0,0.9,0.7-0.2,1.2l-1.7,0.7
	c0,0-0.7,0.7-1.2-0.5L188.9,68.4z"/>
<path class="st222" d="M191.7,68.4c0,0,0.5-0.2,0-0.7l-1-0.5c0,0-0.7-0.5-0.7,0.4l0.3,1.2c0,0,0,0.7,0.7,0.2
	C191.7,68.4,191.7,68.4,191.7,68.4z"/>
<circle class="st223" cx="749" cy="798" r="31"/>
<circle class="st224" cx="1139" cy="855" r="31"/>
<text transform="matrix(1 0 0 1 70 460)" class="st225 st226">The Client:</text>
<text transform="matrix(1 0 0 1 70 474.4)" class="st227 st228"> </text>
<text transform="matrix(1 0 0 1 70 496)" class="st229"><tspan x="0" y="0" class="st230 st231">Pocket Learner Education</tspan><tspan x="182.7" y="0" class="st227 st231"> </tspan></text>
<text transform="matrix(1 0 0 1 70 517.6)" class="st230 st231">Development System</text>
<text transform="matrix(1 0 0 1 68 574)" class="st232 st233">The Pocket Learner System was created by parents </text>
<text transform="matrix(1 0 0 1 68 596.8)" class="st232 st233">of a child who had learning difficultes, due to this many </text>
<text transform="matrix(1 0 0 1 68 619.6)" class="st232 st233">other parents/guardians were able to use the system </text>
<text transform="matrix(1 0 0 1 68 642.4)" class="st232 st233">to help their children learn. I was given the task of designing</text>
<text transform="matrix(1 0 0 1 68 665.2)" class="st232 st233">a app for their current system.</text>
<text transform="matrix(1 0 0 1 68 710.8)" class="st232 st233">To create the design for the app I used Adobe Illustrator.</text>
<text transform="matrix(1 0 0 1 68 733.6)" class="st232 st233">The font used was Airfly DEMO.</text>
<text transform="matrix(1 0 0 1 68 756.4)" class="st232 st233">This was my first attempt of designing a app.</text>
<g>
	<polygon class="st234" points="236.3,52.6 273.5,26.9 289.3,69.2 249.8,102.6 	"/>
</g>
<g>
	<polygon class="st234" points="386.7,971.4 409.9,932.6 441.8,964.7 419.6,1011.4 	"/>
</g>
<g>
	<polygon class="st234" points="1262.6,858.2 1285.9,819.4 1317.8,851.5 1295.5,898.2 	"/>
</g>
<g>
	<polygon class="st234" points="1489.1,131.2 1512.4,92.3 1544.3,124.4 1522,171.1 	"/>
</g>
<polygon class="st235" points="474.9,240.5 490.9,268.4 493.4,248.1 511.8,254.4 497.4,228.2 "/>
<polygon class="st236" points="440.1,140.7 421,114.8 420.8,135.2 401.9,131 419.1,155.4 "/>
<g>
	<ellipse class="st237" cx="453.6" cy="194.8" rx="55.8" ry="59.7"/>
</g>
<g>
	<circle class="st0" cx="421.9" cy="183" r="35.1"/>
</g>
<g>
	<circle class="st237" cx="421.9" cy="183" r="27.2"/>
</g>
<g>
	<circle cx="421.9" cy="183" r="20.1"/>
</g>
<g>
	<circle class="st0" cx="484.9" cy="183" r="35.1"/>
</g>
<g>
	<circle class="st237" cx="484.9" cy="183" r="27.2"/>
</g>
<g>
	<circle cx="484.9" cy="183" r="20.1"/>
</g>
<g>
	<path class="st238" d="M446.1,204.8c0,0,7.9-4.2,15.1,0l-7.6,25.3L446.1,204.8z"/>
</g>
<text transform="matrix(1 0 0 1 430.752 243.0107)" class="st239 st2 st240">clothes</text>
<polygon class="st235" points="1509.7,916.9 1531.5,954.7 1534.8,927.2 1559.7,935.8 1540.2,900.2 "/>
<polygon class="st236" points="1462.5,781.6 1436.6,746.4 1436.4,774.2 1410.7,768.4 1434,801.5 "/>
<g>
	<ellipse class="st241" cx="1480.8" cy="855" rx="75.7" ry="81"/>
</g>
<g>
	<circle class="st0" cx="1437.8" cy="838.9" r="47.6"/>
</g>
<g>
	<circle class="st241" cx="1437.8" cy="838.9" r="36.9"/>
</g>
<g>
	<circle cx="1437.8" cy="838.9" r="27.3"/>
</g>
<g>
	<circle class="st0" cx="1523.3" cy="838.9" r="47.6"/>
</g>
<g>
	<circle class="st241" cx="1523.3" cy="838.9" r="36.9"/>
</g>
<g>
	<circle cx="1523.3" cy="838.9" r="27.3"/>
</g>
<g>
	<path class="st238" d="M1470.6,868.5c0,0,10.7-5.6,20.5,0l-10.3,34.3L1470.6,868.5z"/>
</g>
<text transform="matrix(1 0 0 1 1458.2483 923.033)" class="st239 st2 st242">fruits</text>
<polygon class="st235" points="1780.5,257.5 1796.7,285.6 1799.2,265.2 1817.7,271.6 1803.2,245.2 "/>
<polygon class="st236" points="1745.4,157 1726.2,130.9 1726.1,151.5 1707,147.1 1724.3,171.8 "/>
<g>
	<ellipse class="st243" cx="1759.1" cy="211.5" rx="56.2" ry="60.2"/>
</g>
<g>
	<circle class="st0" cx="1727.1" cy="199.6" r="35.4"/>
</g>
<g>
	<circle class="st243" cx="1727.1" cy="199.6" r="27.4"/>
</g>
<g>
	<circle cx="1727.1" cy="199.6" r="20.3"/>
</g>
<g>
	<circle class="st0" cx="1790.6" cy="199.6" r="35.4"/>
</g>
<g>
	<circle class="st243" cx="1790.6" cy="199.6" r="27.4"/>
</g>
<g>
	<circle cx="1790.6" cy="199.6" r="20.3"/>
</g>
<g>
	<path class="st238" d="M1751.5,221.6c0,0,8-4.2,15.3,0l-7.6,25.5L1751.5,221.6z"/>
</g>
<text transform="matrix(1 0 0 1 1729.1025 259.0918)" class="st239 st2 st244">numeracy</text>
<g>
	<polygon class="st234" points="826.7,125.4 849.9,86.6 881.8,118.7 859.6,165.4 	"/>
</g>
<rect x="170.8" y="820.6" class="st32" width="288.2" height="19.7"/>
<a class="linkp" href="https://invis.io/CHF9OM3NJ" target="_blank">
<text transform="matrix(1 0 0 1 170.7773 834.6035)" class="st214 st245">Click for Prototype</text>
<path class="st15" d="M323.7,854.5H175.3c-12.6,0-22.8-10.2-22.8-22.8v-8.4c0-12.6,10.2-22.8,22.8-22.8h148.4
	c12.6,0,22.8,10.2,22.8,22.8v8.4C346.5,844.3,336.3,854.5,323.7,854.5z"/></a>
</svg>
