<?xml version="1.0" encoding="utf-8"?>
<!-- Generator: Adobe Illustrator 21.0.0, SVG Export Plug-In . SVG Version: 6.00 Build 0)  -->
<svg version="1.1" id="Layer_1" xmlns="http://www.w3.org/2000/svg" xmlns:xlink="http://www.w3.org/1999/xlink" x="0px" y="0px"
	 viewBox="0 0 1920 1080" style="enable-background:new 0 0 1920 1080;" xml:space="preserve">
<style type="text/css">
	.st0{fill:#FFFFFF;}
	.st1{fill:#333333;}
	.st2{fill:#F9D53D;}
	.st3{fill:#E6E6E6;}
	.st4{font-family:'Airfly-DEMO';}
	.st5{font-size:22.1164px;}
	.st6{opacity:0.23;fill:#C7B299;stroke:#000000;stroke-miterlimit:10;enable-background:new    ;}
	.st7{font-size:10.4173px;}
	.st8{font-size:5.2087px;}
	.st9{font-size:9.9201px;}
	.st10{font-size:16.7835px;}
	.st11{fill:none;stroke:#000000;stroke-miterlimit:10;}
	.st12{font-family:'Plump';}
	.st13{font-size:2.7008px;}
	.st14{font-size:7.3307px;}
	.st15{fill:#FFFFFF;stroke:#000000;stroke-width:3;stroke-miterlimit:10;}
	.st16{font-size:8.2953px;}
	.st17{fill:#8CC63F;}
	.st18{font-size:9.1067px;}
	.st19{font-family:'Europa-Light';}
	.st20{font-size:5.9844px;}
	.st21{fill:url(#SVGID_1_);}
	.st22{font-size:16.9125px;}
	.st23{fill:none;stroke:#DDDD2F;stroke-miterlimit:10;}
	.st24{fill:none;stroke:#E2E2E2;stroke-width:2;stroke-miterlimit:10;}
	.st25{fill:#B8BFBE;}
	.st26{fill:#A3A8A7;}
	.st27{font-size:9.0211px;}
	.st28{fill:none;}
	.st29{font-size:5.2038px;}
	.st30{fill:#EAEAEA;}
	.st31{fill:#C8C7C9;}
	.st32{fill:#959596;}
	.st33{stroke:#000000;stroke-miterlimit:10;}
	.st34{fill:#7D7C82;}
	.st35{opacity:0.15;fill:url(#SVGID_2_);enable-background:new    ;}
	.st36{fill:#FFA300;}
	.st37{font-size:38.3079px;}
	.st38{font-size:16.6056px;}
	.st39{letter-spacing:1;}
	.st40{font-size:18.6184px;}
	.st41{font-size:5.032px;}
	.st42{font-size:12.0768px;}
	.st43{font-size:8.5544px;}
	.st44{font-size:7.548px;}
	.st45{opacity:0.15;fill:url(#SVGID_3_);enable-background:new    ;}
	.st46{fill:#EFEFEF;}
	.st47{font-family:'BrandonGrotesque-Light';}
	.st48{font-size:19px;}
	.st49{fill:#FDEA14;}
	.st50{fill:#313237;}
	.st51{fill:#2A2C2F;}
	.st52{fill:#4B4B4C;}
	.st53{fill:none;stroke:#000000;stroke-width:0.1;stroke-miterlimit:10;}
	.st54{fill:#292A2E;}
	.st55{fill:#434246;}
	.st56{fill:none;stroke:#37353A;stroke-miterlimit:10;}
	.st57{fill:#241713;}
	.st58{fill:#928B76;}
	.st59{fill:#C5C2B8;}
	.st60{fill:#3F3F3E;}
	.st61{fill:#535357;}
	.st62{fill:#4D4C4E;}
	.st63{fill:#26272A;}
	.st64{fill:#00040B;}
	.st65{fill:#0D1E39;}
	.st66{fill:#474341;}
	.st67{fill:#262642;}
	.st68{fill:#30305E;}
	.st69{fill:#515189;}
	.st70{fill:#314C03;}
	.st71{fill:#57750E;}
	.st72{fill:#2A3E14;}
	.st73{fill:#8FA74D;}
	.st74{fill:#566636;}
	.st75{fill:#617B2D;}
	.st76{opacity:0.82;fill:#EEA81B;enable-background:new    ;}
	.st77{opacity:0.82;fill:#DCA322;enable-background:new    ;}
	.st78{fill:#5E571B;}
	.st79{fill:#DCA322;}
	.st80{fill:#1E1E1C;}
	.st81{font-size:18.091px;}
	.st82{fill:#CE632D;}
	.st83{fill:#BB010E;}
	.st84{fill:#2A2623;}
	.st85{fill:#151113;stroke:#000000;stroke-miterlimit:10;}
	.st86{fill:#CC0011;}
	.st87{fill:#010003;}
	.st88{fill:#010101;}
	.st89{fill:#010100;}
	.st90{fill:#D8DEDF;}
	.st91{fill:#0D1014;}
	.st92{fill:#08070F;}
	.st93{fill:#050406;}
	.st94{fill:#0D0B0C;}
	.st95{fill:#080A12;}
	.st96{fill:#030406;stroke:#000000;stroke-miterlimit:10;}
	.st97{fill:#91A5B5;}
	.st98{fill:#000002;}
	.st99{fill:#303A41;}
	.st100{fill:#0D151B;}
	.st101{fill:#6E777C;}
	.st102{fill:#AAA79B;stroke:#000000;stroke-width:0.75;stroke-miterlimit:10;}
	.st103{fill:#100D11;}
	.st104{fill:none;stroke:#846F05;stroke-width:0.5;stroke-miterlimit:10;}
	.st105{fill:#423839;}
	.st106{fill:#7F7E79;}
	.st107{fill:none;stroke:#CC0011;stroke-miterlimit:10;}
	.st108{fill:#171E30;}
	.st109{fill:#15070C;}
	.st110{fill:#332627;}
	.st111{fill:#052A44;}
	.st112{fill:#092C45;}
	.st113{fill:#0D324E;}
	.st114{fill:#11354F;}
	.st115{fill:#103652;}
	.st116{fill:#070101;}
	.st117{fill:#1F3B54;}
	.st118{fill:#173C57;}
	.st119{fill:#3C85A6;}
	.st120{fill:#1A4062;}
	.st121{fill:#4384A3;}
	.st122{fill:#3E82A2;}
	.st123{fill:#B2B0B3;}
	.st124{fill:#DEE3E5;}
	.st125{fill:#3E3A39;}
	.st126{fill:#1E1915;}
	.st127{fill:#1A1715;}
	.st128{fill:#2C7EA4;}
	.st129{fill:none;stroke:#A27F13;stroke-miterlimit:10;}
	.st130{fill:#0D0C0C;}
	.st131{fill:#231E1B;}
	.st132{fill:#191412;}
	.st133{fill:#E4E5E3;}
	.st134{fill:#295323;stroke:#295323;stroke-width:12;stroke-miterlimit:10;}
	.st135{fill:#B2CF80;}
	.st136{fill:#E2D086;}
	.st137{fill:#B7672A;}
	.st138{fill:#B1A55D;}
	.st139{fill:#BA7F1F;}
</style>
<rect class="st0" width="1920" height="1080"/>
<g>
	
		<image style="overflow:visible;opacity:0.15;enable-background:new    ;" width="458" height="693" xlink:href="BC5632C4A54A5B06.png"  transform="matrix(1 0 0 1 517 180)">
	</image>
	<g>
		<path d="M948.6,799.4l-244.3,64c-14.4,3.8-29.2-4.9-33-19.3l-147-561.5c-3.8-14.4,4.9-29.2,19.3-33l244.3-64
			c14.4-3.8,29.2,4.9,33,19.3l147,561.5C971.7,780.8,963,795.6,948.6,799.4z"/>
	</g>
</g>
<rect x="609.5" y="273.9" transform="matrix(0.9674 -0.2533 0.2533 0.9674 -108.9098 206.562)" class="st0" width="276.5" height="504.6"/>
<path class="st1" d="M697.6,251.2l-42.8,11.2c-0.9,0.2-1.8-0.3-2.1-1.2l-0.5-2c-0.2-0.9,0.3-1.8,1.2-2.1l42.8-11.2
	c0.9-0.2,1.8,0.3,2.1,1.2l0.5,2C699,250.1,698.5,251,697.6,251.2z"/>
<path class="st2" d="M782.9,516l-72.8,18.8c-16.8,4.3-33.9-5.7-38.2-22.5l-13.2-51.1c-4.3-16.8,5.7-33.9,22.5-38.2l72.8-18.8
	c16.8-4.3,33.9,5.7,38.2,22.5l13.2,51.1C809.8,494.6,799.7,511.7,782.9,516z"/>
<path class="st3" d="M818.6,603.8l-99.7,25.8c-9.3,2.4-18.7-3.2-21.1-12.4L690,587c-2.4-9.3,3.2-18.7,12.4-21.1l99.7-25.8
	c9.3-2.4,18.7,3.2,21.1,12.4l7.8,30.2C833.4,592,827.9,601.4,818.6,603.8z"/>
<text transform="matrix(0.9682 -0.2501 0.2501 0.9682 704.5984 610.3856)" class="st4 st5">AEROPLANE</text>
<rect x="694.7" y="598.8" transform="matrix(0.9682 -0.2501 0.2501 0.9682 -127.9628 211.1624)" class="st6" width="144.4" height="20.6"/>
<rect x="647.3" y="638" transform="matrix(0.9682 -0.2501 0.2501 0.9682 -142.0755 218.2664)" class="st3" width="281" height="60.4"/>
<text transform="matrix(0.9682 -0.2501 0.2501 0.9682 763.4037 660.2181)" class="st4 st7">WORDS</text>
<text transform="matrix(0.9682 -0.2501 0.2501 0.9682 768.2772 667.2701)" class="st4 st8">(drag &amp; drop)</text>
<text transform="matrix(0.9682 -0.2501 0.2501 0.9682 679.7852 711.3931)" class="st4 st9">car</text>
<text transform="matrix(0.9682 -0.2501 0.2501 0.9682 736.5781 696.8516)" class="st4 st9">aeroplane</text>
<text transform="matrix(0.9682 -0.2501 0.2501 0.9682 792.7418 682.0018)" class="st4 st9">scooter</text>
<text transform="matrix(0.9682 -0.2501 0.2501 0.9682 843.1709 669.0941)" class="st4 st9">bicycle</text>
<text transform="matrix(0.9682 -0.2501 0.2501 0.9682 889.0739 657.5005)" class="st4 st9">boat</text>
<text transform="matrix(0.9682 -0.2501 0.2501 0.9682 650.9713 407.8202)" class="st4 st10">WHAT IS THIS?</text>
<path class="st11" d="M787.1,474.5c0,0,27-0.2,27-29.7"/>
<text transform="matrix(0.9682 -0.2501 0.2501 0.9682 813.1354 462.628)" class="st12 st13">SWIPE</text>
<text transform="matrix(0.9682 -0.2501 0.2501 0.9682 813.9357 465.7263)" class="st12 st13">FOR REAL </text>
<text transform="matrix(0.9682 -0.2501 0.2501 0.9682 814.761 468.9214)" class="st12 st13">IMAGE</text>
<text transform="matrix(9.860270e-02 -0.9951 0.9951 9.860270e-02 808.0875 425.5538)" class="st12 st14">&gt;</text>
<ellipse transform="matrix(0.9682 -0.2501 0.2501 0.9682 -78.3475 214.205)" cx="803.7" cy="415.4" rx="2.7" ry="2.7"/>
<ellipse transform="matrix(0.9682 -0.2501 0.2501 0.9682 -80.6947 215.1379)" class="st15" cx="806.2" cy="425.1" rx="2.7" ry="2.7"/>
<text transform="matrix(0.9682 -0.2501 0.2501 0.9682 730.8246 732.1436)" class="st4 st16">THAT’S THE </text>
<text transform="matrix(0.9682 -0.2501 0.2501 0.9682 779.0409 719.6885)" class="st17 st4 st16">CORRECT</text>
<text transform="matrix(0.9682 -0.2501 0.2501 0.9682 814.8643 710.4349)" class="st4 st16"> ANSWER!</text>
<text transform="matrix(0.9682 -0.2501 0.2501 0.9682 742.3612 740.421)" class="st4 st16">WELL DONE _____</text>
<text transform="matrix(0.9682 -0.2501 0.2501 0.9682 812.3621 722.3389)" class="st4 st18">___</text>
<text transform="matrix(0.9682 -0.2501 0.2501 0.9682 826.9819 718.5623)" class="st4 st16">____!</text>
<text transform="matrix(0.9682 -0.2501 0.2501 0.9682 808.6306 720.8958)" class="st19 st20">NAME</text>
<rect x="671.4" y="498.1" transform="matrix(0.9682 -0.2501 0.2501 0.9682 -104.9777 202.3162)" class="st6" width="144.4" height="32.3"/>
<linearGradient id="SVGID_1_" gradientUnits="userSpaceOnUse" x1="707.2057" y1="864.8431" x2="988.3475" y2="864.8431" gradientTransform="matrix(0.9575 -0.2473 -0.2567 -0.9937 101.5699 1381.397)">
	<stop  offset="0" style="stop-color:#F1861C"/>
	<stop  offset="0.4377" style="stop-color:#FFA300"/>
	<stop  offset="1" style="stop-color:#FFA300"/>
</linearGradient>
<polygon class="st21" points="834,309 564.9,378.5 548.6,315.7 817.8,246.2 "/>
<text transform="matrix(0.9682 -0.2501 0.2501 0.9682 727.7888 329.0277)" class="st0 st4 st22">TRANSPORT</text>
<rect x="784.9" y="270.6" transform="matrix(0.9682 -0.2501 0.2501 0.9682 -43.9327 206.8575)" class="st23" width="14.2" height="11.4"/>
<polygon class="st23" points="782.2,273 788.7,264 798.8,268.7 "/>
<line class="st24" x1="598.5" y1="431.2" x2="836.3" y2="369.8"/>
<rect x="671.6" y="752.7" transform="matrix(0.9682 -0.2501 0.2501 0.9682 -164.7203 227.2778)" class="st25" width="280.7" height="18.2"/>
<ellipse transform="matrix(0.9682 -0.2501 0.2501 0.9682 -168.2854 218.2388)" cx="774.6" cy="771.3" rx="3" ry="3"/>
<ellipse transform="matrix(0.9682 -0.2501 0.2501 0.9682 -167.0086 221.4574)" class="st26" cx="787.9" cy="767.9" rx="3" ry="3"/>
<ellipse transform="matrix(0.9682 -0.2501 0.2501 0.9682 -165.7411 224.6526)" class="st26" cx="801.1" cy="764.5" rx="3" ry="3"/>
<ellipse transform="matrix(0.9682 -0.2501 0.2501 0.9682 -163.1508 227.2222)" class="st26" cx="812.5" cy="755.6" rx="3" ry="3"/>
<ellipse transform="matrix(0.9682 -0.2501 0.2501 0.9682 -161.8833 230.4174)" class="st26" cx="825.7" cy="752.2" rx="3" ry="3"/>
<ellipse transform="matrix(0.9682 -0.2501 0.2501 0.9682 -160.5831 233.6267)" class="st26" cx="839" cy="748.7" rx="3" ry="3"/>
<text transform="matrix(0.9682 -0.2501 0.2501 0.9682 683.0049 798.6319)" class="st0 st4 st27">1</text>
<text transform="matrix(0.9682 -0.2501 0.2501 0.9682 687.1681 797.5565)" class="st0 st12 st27">/</text>
<text transform="matrix(0.9682 -0.2501 0.2501 0.9682 690.2664 796.7562)" class="st0 st4 st27">6</text>
<rect x="930.1" y="720.4" transform="matrix(0.9682 -0.2501 0.2501 0.9682 -152.0318 258.022)" class="st28" width="18.3" height="13.7"/>
<text transform="matrix(0.9682 -0.2501 0.2501 0.9682 937.2247 724.5797)" class="st4 st29">&gt;</text>
<ellipse transform="matrix(0.9682 -0.2501 0.2501 0.9682 -65.0333 156.3736)" class="st0" cx="582.8" cy="334.1" rx="16.7" ry="16.7"/>
<rect x="567.1" y="356.4" transform="matrix(0.9682 -0.2501 0.2501 0.9682 -71.3489 158.8774)" class="st28" width="44.8" height="7.6"/>
<text transform="matrix(0.9682 -0.2501 0.2501 0.9682 578.6631 363.1775)" class="st19 st29">first name</text>
<g>
	<polygon class="st30" points="736.3,468.1 749.4,448.6 745.4,443.4 748.2,442.7 753.8,447.2 748.5,465.5 	"/>
	<path class="st0" d="M673.2,466.5l3.4-1.8c0,0,20.1,12.3,26.7,11.3c0,0,9.4-0.9,13.8-3l37.7-13.5c0,0,17.3-5.9,19.3-6.3
		c0,0,4.3-1,9-0.8c0,0,2.9-0.1,4.7,0.9c0,0,5.3,0.8,5.9,2c0,0,1.4,1.3-3.2,5.5c0,0-2.4,2.5-7.1,4.3l-24.9,8.9
		c0,0-31.8,11.5-35.8,12.3c0,0-6.9,2.2-8.2,2.1c0,0-5.2,0.9-6,0.9c0,0-15.5-0.5-17.3-1.5c0,0-1.9-1.9-2.2-2.7l1.3-0.6L673.2,466.5z"
		/>
	
		<rect x="718.4" y="478.6" transform="matrix(0.9682 -0.2501 0.2501 0.9682 -97.0672 195.153)" class="st31" width="1.9" height="1.9"/>
	
		<rect x="722.7" y="477.4" transform="matrix(0.9682 -0.2501 0.2501 0.9682 -96.6327 196.1852)" class="st31" width="1.9" height="1.9"/>
	
		<rect x="726.9" y="476.4" transform="matrix(0.9682 -0.2501 0.2501 0.9682 -96.248 197.2092)" class="st31" width="1.9" height="1.9"/>
	
		<rect x="730.8" y="475.3" transform="matrix(0.9682 -0.2501 0.2501 0.9682 -95.8506 198.1441)" class="st31" width="1.9" height="1.9"/>
	
		<rect x="734.9" y="474.3" transform="matrix(0.9682 -0.2501 0.2501 0.9682 -95.4711 199.1424)" class="st31" width="1.9" height="1.9"/>
	
		<rect x="739.1" y="473" transform="matrix(0.9682 -0.2501 0.2501 0.9682 -95.0109 200.1499)" class="st31" width="1.9" height="1.9"/>
	
		<rect x="743.3" y="471.8" transform="matrix(0.9682 -0.2501 0.2501 0.9682 -94.5761 201.163)" class="st31" width="1.9" height="1.9"/>
	
		<rect x="747.3" y="470.4" transform="matrix(0.9682 -0.2501 0.2501 0.9682 -94.1051 202.1162)" class="st31" width="1.9" height="1.9"/>
	
		<rect x="751.2" y="469.2" transform="matrix(0.9682 -0.2501 0.2501 0.9682 -93.6773 203.0539)" class="st31" width="1.9" height="1.9"/>
	
		<rect x="754.9" y="468.1" transform="matrix(0.9682 -0.2501 0.2501 0.9682 -93.2875 203.9439)" class="st31" width="1.9" height="1.9"/>
	<path class="st30" d="M696.9,485.7c0,0-4.7-1.5-8.2,1.5l-17.9,10c0,0-0.2,1.4,3.7,0.5L696.9,485.7z"/>
	<path class="st32" d="M735.2,484.2l7.6-4.6c0,0,3.4-1.1,3.5-1.1s2.6-0.3,3.3,0.9l0.9,1.7c0,0,0.4,2.1-0.2,3c0,0-1.3,2.1-2.3,2.4
		c0,0-4.3,1.1-5.7,1.7c0,0-4.9,1.3-4.9,0.5c0,0-1-0.3-1.8-1.9L735.2,484.2z"/>
	<path class="st33" d="M746.1,483.5c0,0-0.6-1.1-0.3-2l1-2.1c0,0,0.4-0.3,1-0.1c0,0,1.6,0.3,2,1.9c0,0,1.3,2.2,0,3.1
		c0,0-1.1,2.1-2.6,1C747.3,485.3,746.5,484.8,746.1,483.5z"/>
	<path class="st30" d="M684.9,506l-3.3,1.1c0,0,5.9,5.3,9,3.7c0,0,1.7-0.3,4-1.7l42.6-25.9l11.5-7.1c0,0,1.3-1.9-3.4-0.5
		c0,0-16.1,6.4-17.6,8L689.4,508L684.9,506z"/>
	<path class="st34" d="M779.2,457c0,0,5.7-2.6,6-3c0,0,0.6-0.5,0.3-1.4l0.5,0.1l0.6,0.1l0.5,0.1l0.5,0.2c0,0-0.5,2.4-4.6,4.3l-3,1.1
		L779.2,457z"/>
	<polygon class="st30" points="696.3,475 697,473.5 699,473 699.1,475.9 	"/>
</g>
<text transform="matrix(0.9682 -0.2501 0.2501 0.9682 709.8943 704.1536)" class="st4 st9">bus</text>
<linearGradient id="SVGID_2_" gradientUnits="userSpaceOnUse" x1="697.4563" y1="669.3627" x2="958.7784" y2="669.3627" gradientTransform="matrix(0.9674 -0.2533 -0.2533 -0.9674 136.4022 1375.8622)">
	<stop  offset="0" style="stop-color:#FFFFFF"/>
	<stop  offset="1" style="stop-color:#FFFFFF;stop-opacity:0"/>
</linearGradient>
<path class="st35" d="M930.9,803.9L930.9,803.9L561.2,244.7L770.1,190c24.1-6.3,49.1,8.5,55.4,32.6l137.8,526.1
	C969.6,772.8,955,797.6,930.9,803.9z"/>
<g>
	
		<image style="overflow:visible;opacity:0.15;enable-background:new    ;" width="555" height="699" xlink:href="BC5632C4A54A5B0A.png"  transform="matrix(1 0 0 1 803 208)">
	</image>
	<g>
		<path class="st0" d="M1049.3,895.6L824.1,781.2c-13.2-6.7-18.6-23.1-11.8-36.3l262.9-517.5c6.7-13.2,23.1-18.6,36.3-11.8
			L1336.6,330c13.2,6.7,18.6,23.1,11.8,36.3l-262.9,517.5C1078.9,897,1062.5,902.3,1049.3,895.6z"/>
	</g>
</g>
<path class="st3" d="M1225.6,319l-39.5-20.1c-0.8-0.4-1.2-1.4-0.7-2.3l0.9-1.8c0.4-0.8,1.4-1.2,2.3-0.7l39.5,20.1
	c0.8,0.4,1.2,1.4,0.7,2.3l-0.9,1.8C1227.4,319.1,1226.4,319.4,1225.6,319z"/>
<rect x="836.7" y="413.4" transform="matrix(0.4476 -0.8942 0.8942 0.4476 103.1966 1273.9476)" class="st0" width="492.1" height="280"/>
<rect x="845.6" y="409.4" transform="matrix(0.4549 -0.8906 0.8906 0.4549 107.0515 1265.4015)" class="st36" width="483" height="271.8"/>
<text transform="matrix(0.8906 0.4549 -0.4549 0.8906 995.7587 481.0567)" class="st0 st4 st37">TRANSPORT</text>
<rect x="1281.2" y="412.2" transform="matrix(0.4549 -0.8906 0.8906 0.4549 328.3065 1374.3704)" class="st23" width="11.1" height="13.7"/>
<polygon class="st23" points="1281.8,410.2 1292.3,407.9 1296.6,417.7 "/>
<rect x="1079.7" y="507.9" transform="matrix(0.4549 -0.8906 0.8906 0.4549 100.7316 1271.2462)" class="st28" width="18.1" height="90.9"/>
<text transform="matrix(0.8906 0.4549 -0.4549 0.8906 1046.6707 535.8105)" class="st19 st38 st39">POCKET</text>
<rect x="1001" y="647.5" transform="matrix(0.4549 -0.8906 0.8906 0.4549 -52.2371 1269.8583)" class="st28" width="20.3" height="60.2"/>
<text transform="matrix(0.8906 0.4549 -0.4549 0.8906 982.7281 666.9694)" class="st4 st40">START</text>
<polygon points="1045.2,687.5 1041.3,695.1 1049.1,694.3 "/>
<ellipse transform="matrix(0.4549 -0.8906 0.8906 0.4549 304.9333 1140.5497)" class="st0" cx="1084.1" cy="321.2" rx="16.1" ry="16.1"/>
<rect x="1068.5" y="322.8" transform="matrix(0.4549 -0.8906 0.8906 0.4549 277.7764 1142.6526)" class="st28" width="7.4" height="43.3"/>
<text transform="matrix(0.8906 0.4549 -0.4549 0.8906 1062.5168 339.6344)" class="st19 st41">first name</text>
<rect x="992.2" y="513.8" transform="matrix(0.4549 -0.8906 0.8906 0.4549 19.2729 1275.6458)" class="st28" width="118.8" height="216.5"/>
<text transform="matrix(0.8906 0.4549 -0.4549 0.8906 978.0217 528.1632)" class="st19 st42">Parent’s Information:</text>
<text transform="matrix(0.8906 0.4549 -0.4549 0.8906 1053.9349 578.5043)" class="st0 st19 st43">1st stage:</text>
<text transform="matrix(0.8906 0.4549 -0.4549 0.8906 978.326 549.9915)" class="st19 st44">There are 6 different forms of transport which your child can </text>
<text transform="matrix(0.8906 0.4549 -0.4549 0.8906 975.4326 558.7325)" class="st19 st44">either click on the image for sound or you can say what the </text>
<text transform="matrix(0.8906 0.4549 -0.4549 0.8906 1043.4778 603.5952)" class="st19 st44">picture is.</text>
<text transform="matrix(0.8906 0.4549 -0.4549 0.8906 1035.4084 611.0397)" class="st0 st19 st43">2nd stage:</text>
<text transform="matrix(0.8906 0.4549 -0.4549 0.8906 957.2598 581.342)" class="st19 st44">Is the words, the child would be able to see how the words are </text>
<text transform="matrix(0.8906 0.4549 -0.4549 0.8906 1004.0186 615.3321)" class="st19 st44">spelt and be able to read it.</text>
<text transform="matrix(0.8906 0.4549 -0.4549 0.8906 1022.7552 636.4691)" class="st0 st19 st43">3rd Stage: </text>
<text transform="matrix(0.8906 0.4549 -0.4549 0.8906 943.3173 605.9999)" class="st19 st44">Words and the Pictures together the child will be able to match </text>
<text transform="matrix(0.8906 0.4549 -0.4549 0.8906 983.9741 636.9856)" class="st19 st44">the pictures and words together. </text>
<linearGradient id="SVGID_3_" gradientUnits="userSpaceOnUse" x1="859.3079" y1="-152.9377" x2="1120.613" y2="-152.9377" gradientTransform="matrix(0.8915 0.4529 0.4529 -0.8915 287.3763 -19.0296)">
	<stop  offset="0" style="stop-color:#FFFFFF"/>
	<stop  offset="1" style="stop-color:#FFFFFF;stop-opacity:0"/>
</linearGradient>
<path class="st45" d="M1033,887.2L1033,887.2l94.9-663.6l192.5,97.8c22.2,11.3,31.1,39,19.8,61.2l-246.3,484.8
	C1082.6,889.7,1055.3,898.5,1033,887.2z"/>
<ellipse transform="matrix(0.6545 -0.7561 0.7561 0.6545 -275.8904 1000.3106)" class="st46" cx="956.5" cy="802" rx="31" ry="31"/>
<text transform="matrix(1 0 0 1 64 445)" class="st47 st48">This was my first ever attempt at designing an app.</text>
<text transform="matrix(1 0 0 1 64 490.6)" class="st47 st48">This allowed me to widen my knowledge on different</text>
<text transform="matrix(1 0 0 1 64 513.4)" class="st47 st48">types of UX design so that I would be able to gather </text>
<text transform="matrix(1 0 0 1 64 536.2)" class="st47 st48">more skills.</text>
<g>
	<polygon class="st49" points="1169.3,231.6 1206.5,205.9 1222.3,248.2 1182.8,281.6 	"/>
</g>
<g>
	<polygon class="st49" points="82.7,724.4 105.9,685.6 137.8,717.7 115.6,764.4 	"/>
</g>
<g>
	<polygon class="st49" points="153.6,237.2 176.9,198.4 208.8,230.5 186.5,277.2 	"/>
</g>
<g>
	<polygon class="st49" points="1510.1,134.2 1533.4,95.3 1565.3,127.4 1543,174.1 	"/>
</g>
<g>
	<polygon class="st49" points="847.7,128.4 870.9,89.6 902.8,121.7 880.6,168.4 	"/>
</g>
<g>
	<path class="st50" d="M124,988.9c0,0-24.3-4.1-35.7-9.3c0,0,4.3-11.2,4-14.4c0,0-2-4.3,1.1-10.8c0,0,1.4-15.7,3.7-21.1
		c0,0,2-17.4,13.1-47.5c0,0,16.2-59.5,27.6-62.6c0,0,14.5-6.5,19.9-7.4c0,0-17.1-10.5-13.4-25.1c0,0,7.1-13.7,6.8-19.1
		c0,0,2.8-13.1,15.4-24.8c0,0,17.4-22.2,23.3-23.9c0,0,4.6-3.7,20.5-2.6c0,0,22.2-2.8,23.3,2.8c0,0,34.4,33.9,47.8,70.9
		c0,0-2.3,13.4-23.3,23.3c0,0,13.8,3.2,17,7.7h2c0,0,11.3,12.3,21.1,44.2c0,0,17,54.9,18.6,70v1.2l1.6-0.3c0,0,3.6,6.6,3.4,11.6
		l-1.6,1.6c0,0,0.6,10.7,2.3,13.6c0,0,2.8,6.4,2.1,8.2c0,0-26.7,8.7-36,10.7l1.2,19.8c0,0,0.9,6.4-5.5,5.2c0,0-64.7-1.1-76.3-1.9
		c0,0-81,2.3-83,4.3c0,0-2.8,0.3,0-16.4C125.3,997,126.9,989.5,124,988.9z"/>
	<path class="st51" d="M285.6,948.7c0,0,17.8-1.6,33.3-8.8l3.5,11.6c0,0-8.8,9.1-35.7,11.3L285.6,948.7z"/>
	<path class="st51" d="M95.4,941.1l-1.2,14.3l34.2,8.9c0,0,1-10.6,1-15L95.4,941.1z"/>
	<path class="st52" d="M166.1,870.4c0,0,10.1-0.7,11.5,1.3c0,0-7.5,40.1-10.5,46.1c0,0-6.4,0.6-11.9-3.4
		C155.2,914.3,163.6,894.2,166.1,870.4z"/>
	<path class="st52" d="M238.2,875.7l10.5-1.6c0,0,5.2,32.8,11.3,43.9l-9.7,4C250.2,922,240.2,898.8,238.2,875.7z"/>
	<path class="st53" d="M137.6,823.5c0,0,19.7,26.7,7.6,64.4c0,0-22.5,92.9-21.2,101"/>
	<path class="st54" d="M132.5,932.4c0,0-7.1,57.8-2,60.7l54.4-1.1v-60.7C184.8,931.3,148.3,936.3,132.5,932.4z"/>
	<path class="st55" d="M131.7,932.7c0,0,53,0.5,57.5-2.2l0.8,19.2c0,0,0,6.7-6,6.7l-42.1,2.2c0,0-16.3-1.1-12.2-9.8L131.7,932.7z"/>
	<path class="st53" d="M276.9,824.9c0,0-15.2,29.5-4.2,65.5c0,0,7.6,37.8,11.1,42.4c0,0,4.5,44.3,5.4,58.6l0.9,14.3"/>
	<line class="st53" x1="149" y1="857.1" x2="203.1" y2="857.1"/>
	<line class="st53" x1="222.1" y1="857.5" x2="268.2" y2="859.6"/>
	<path class="st53" d="M222.1,852.3c0,0-9,130.6-5.5,155.9c0,0-25.6,3.5-23.9-4.2c0,0,1.4-125.1,5.2-132
		C197.9,872,202.4,858.5,222.1,852.3z"/>
	<path class="st53" d="M209.1,852c0,0-12.3,8.5-13,33.7"/>
	<path class="st56" d="M193.7,865.1c0,0,11.8,9,28.8,0"/>
	<path class="st56" d="M192.9,867.6c0,0,14.9,5.2,17.1,8"/>
	<path class="st57" d="M208.4,868.6c0,0-0.5-4.3,2.2-4.2c0,0,2.6,0.2,2.1,3.8l0.8,10.9c0,0,0.5,2.2-1.6,2.9c0,0-2.8,0.7-2.8-2.9
		L208.4,868.6z"/>
	<path class="st57" d="M203.8,905.8c0,0-3.8-4.1-1.7-5.3c0,0,1.8-1.6,4.9,3.6l4.8,5.2c0,0,3.2,2.2,1.7,4.7c0,0-1.3,2.5-6.5-4.3
		L203.8,905.8z"/>
	<path class="st56" d="M191.8,898.8c0,0,4.7,3.4,9.7,0.6c5-2.8,15.8,6.7,10.3,10"/>
	<path class="st53" d="M209.1,852c0,0-6.4-12.5-31.4-14c0,0-2.7-0.2-4.2-7.9c0,0-3.1-9.8-24-21.6c0,0-16.5-18.1,8.8-20.1
		c0,0,105.1,0.5,117,3.7c0,0,9.3,3.2-1.7,13c0,0-15.2,15.5-44.9,16.7c0,0-12.5,13.5-13.5,22.8L209.1,852z"/>
	<circle class="st58" cx="233.6" cy="837.2" r="2.2"/>
	<circle class="st59" cx="200.3" cy="849.3" r="2"/>
	<circle class="st60" cx="180.9" cy="832.4" r="1.8"/>
	<path class="st61" d="M189.7,723.4l3.6-2.2c0,0,0,63.3,0,67.4h-3.6V723.4z"/>
	<path class="st62" d="M230.3,720.7c0,0,2.6-0.2,2.6,1.4c0,0,4.9,50.6,4,67.3h-5.2C231.7,789.4,232.9,723.2,230.3,720.7z"/>
	<path class="st63" d="M137.1,1011.9c0,0,43.3-2.4,71.2-2.9c0,0,51.5,1.2,65,1.7c0,0-40.3,7.1-68,7.4
		C205.3,1018.1,156.6,1017.7,137.1,1011.9z"/>
	<path class="st54" d="M224.7,930.6v61.8c0,0,51.7,3,54.3,1.5l3-58.5C282,935.4,238.8,935.6,224.7,930.6z"/>
	<path class="st55" d="M224.7,930.6c0,0,55.4,6.1,59.1,2.2c0,0,3.3,29.5-4.4,27.4c0,0-43.5-1.2-54.2-5.9c0,0-3.3-0.3-1.4-6.2
		C223.8,948.1,225.8,933,224.7,930.6z"/>
	<path class="st53" d="M149,780.5c0,0,75.4-9.3,129.4,5.8"/>
	<path class="st53" d="M142,831.4c0,0,9.6-8.7,27.9-7.9"/>
	<path class="st53" d="M273.7,832.8c0,0-8.1-7-20.6-7.9"/>
	<path class="st53" d="M233.7,821.4c0,0,6.3,11,7.8,15.8c0,0,3.5,4.8-19.4,15"/>
	<path class="st64" d="M188.8,815.5c0,0,36.7,5.2,39.7,2.4l0.3,3.9c0,0-12,12.4-13.5,22.8l-6.1,7.4c0,0-5.2-7.2-10.1-8.7
		C199,843.3,191.8,819.8,188.8,815.5z"/>
	<path class="st65" d="M152.3,788.8c0,0-6.8,4.2,0.8,9c0,0,21.2,15,35.6,17.7c0,0,35.8,8.9,51.2,0c0,0,19.1-7.3,33.2-24
		C273.2,791.6,194.9,785.3,152.3,788.8z"/>
	<ellipse transform="matrix(0.14 -0.9902 0.9902 0.14 -852.4033 917.835)" class="st66" cx="102.2" cy="949.6" rx="4.1" ry="4.1"/>
	<circle class="st66" cx="315.9" cy="949.3" r="4.3"/>
	<path class="st53" d="M259.9,814.2c0,0-8.4,17.9-19.7,19.9"/>
</g>
<g>
	<path class="st67" d="M947.8,148.1c0,0,4.8-2.5,8.1,0l35,4.5c0,0,2.2,0.1,1.4,2.8c0,0-3.9,22.1-2.2,28c0,0,1.4,15.1-2.2,31.9
		c0,0-2.5,30-1.4,40.3c0,0,2,3.4-6.7,11.4c0,0-3.9,4.6,7,13.5c0,0,38.9,40,42.3,49c0,0,17.6,33.3-12.6,38.9c0,0-12.6,0.3-16.2-4.2
		c-3.6-4.5-3.6-4.5-3.6-4.5l-51-88.8l-10.1-82.3c0,0,11.8-6.7,12-20.4C947.5,168.3,950,151.6,947.8,148.1z"/>
	<path class="st67" d="M896.4,162.9c0,0,41-8.5,46.2-7.4c0,0-0.6,22.2,8.5,42.7c0,0,16.6,50.1,10.3,75.2c0,0-0.6,9.1,7.9,15.4
		c0,0,22.2,22.8,36.5,51.9c0,0,9.7,33.3-11,37.8c0,0-17.6,2.6-36.1-19.3c0,0-11.5-12-12.9-18.8c0,0-16.2-23-24.1-23
		c0,0-25.3-5.2-19-33c0,0,5-8.7,11.5-11.2c0,0-2-38.6-5-41.7c0,0-6.4-35.3-5.9-38.4C903.2,193.2,904.7,185.6,896.4,162.9z"/>
	<path class="st68" d="M896.4,162.9c0,0,35-8.6,46.2-7.4c0,0,1.8,22.8,4,30c0,0-10.8,9.7-43.4,7.7
		C903.2,193.2,904.2,181.3,896.4,162.9z"/>
	<path class="st68" d="M944.9,178.4c0,0,26.9,9.4,45.1,5c0,0-1.1-10,2.2-28c0,0,1-2.5-1.4-2.8l-35-4.5c0,0-3.2-2.5-8.1,0
		C947.8,148.1,951.2,166.9,944.9,178.4z"/>
	<path class="st69" d="M904.2,202.6c0,0,25.4,2.1,45.6-7.4c0,0,2.5,6.7,3.4,10.2c0,0-15.2,10.2-47.4,7.9L904.2,202.6z"/>
	<path class="st69" d="M907.5,222.6c0,0,28,2.5,48.4-7.5l2.6,10.8c0,0-21.4,6-49.6,4.3L907.5,222.6z"/>
	<path class="st69" d="M911.4,240.9c0,0,43.1-0.8,49.1-4.9c0,0,1.3,7.6,1.6,11.2c0,0-18.4,6.8-49.6,3.2L911.4,240.9z"/>
	<path class="st69" d="M913.1,257.8c0,0,34.2,5.3,49.6-1.5l-0.2,9.7c0,0-30.8,9.8-48.8,1L913.1,257.8z"/>
	<path class="st69" d="M926.8,319.6c0,0,11.5-30.3,38.6-34.6l4,3.9c0,0-31.3,12.7-37.1,35.4L926.8,319.6z"/>
	<path class="st69" d="M935.4,327.6c0,0,18-24.9,39.2-32.9l6.9,8.3c0,0-31.4,17.9-40,31.8L935.4,327.6z"/>
	<path class="st69" d="M945.8,340.5c0,0,25.8-24,42.2-29l6.4,9.2c0,0-29,10.3-43,29.9C951.4,350.6,946.6,346.7,945.8,340.5z"/>
	<path class="st69" d="M1000.7,331c0,0-32.9,3-43.1,27l6.7,7.2c0,0,9-24.7,41.5-24.5L1000.7,331z"/>
	<path class="st69" d="M947.8,189.6c0,0,31,6.5,42.5,5l-0.7,9.9c0,0-22.2,1.2-37.7-3.5L947.8,189.6z"/>
	<path class="st69" d="M955.2,212.4c0,0,26.5,5,32.6,3L987,226c0,0-25.2-0.7-29.3-3.1L955.2,212.4z"/>
	<path class="st69" d="M960.2,234.2c0,0,19.9,3.5,26.3,1.8l-0.3,10.3c0,0-15.8,0.8-24.3-1.3L960.2,234.2z"/>
	<path class="st69" d="M1001.2,332c0,0,12.1-10.8,21.1-12.1c0,0,5.5,6.4,6.6,9.7c0,0-17.4,0.8-23.6,10.3L1001.2,332z"/>
	<path class="st69" d="M996.8,324.5c0,0,8.3-9.3,18.5-13l-7.2-8.1c0,0-13.4,9-16.2,13.3L996.8,324.5z"/>
	<path class="st69" d="M980.2,300.9c0,0,11.6-10.5,14.2-12.3l7.3,7.8c0,0-15.1,9.6-14.9,13.5L980.2,300.9z"/>
	<path class="st69" d="M962.8,256.3c0,0,14.4,2.1,23.7-0.6c0,0,1.2,2.1-2.6,7c0,0-3.5-3.4-10.5,2c0,0-6.5,3.6-10.7,1.4L962.8,256.3z
		"/>
	<path class="st69" d="M961.1,271.7c0,0,18.9-9.3,18.6-4.7c0,0-1.2,5.2,2,8.6l-18.1,6.7C963.6,282.3,959.4,277.1,961.1,271.7z"/>
	<path class="st69" d="M967.9,287.4c0,0,16.4-5.5,16.9-8.5l3.6,3.4c0,0-15.6,8.7-13.7,12.4L967.9,287.4z"/>
	<path class="st69" d="M914.2,273.3c0,0,31,9.3,48.2-4.7c0,0-3.1,5.3-0.9,9.5c0,0-18.8,5.5-23.5,9.8c0,0-18.1-11.8-28.2-11.9
		L914.2,273.3z"/>
</g>
<g>
	<path class="st70" d="M1448.9,584.6c0,0-5.3-10.3-21.3-3.3c0,0,1,6.7-1.4,11.1c0,0,8.3,20.5,6.3,34.1c0,0,20.3-17.5,33.8-12.4
		C1466.3,614.1,1475.7,592.8,1448.9,584.6z"/>
	<path class="st71" d="M1405.2,568.7c0,0,15.8-2.5,22.2,9.4c0,0,4.8,9.4-1.2,14.3c0,0,26.8,17.3,3.8,35.2c0,0-20-9.8-31.2-4.1
		c0,0-18.3-1.7-28.8,6.8c0,0-5.4-22-28.5-23.7c0,0-14.5-6.1-0.5-15.5c0,0-5.2-22.1,23.8-26.9c0,0,8.7-7.7,20.7-0.5
		C1385.6,563.8,1399.6,561.9,1405.2,568.7z"/>
	<path class="st72" d="M1336.1,602.5c0,0-27.8-3.9-28.1,24.6c0,0-9.1,0.5-6.4,10.6c0,0-5,3.9-3.2,8.6c0,0-4,6.4,0,9.6
		c0,0-3.6,10.3,4.9,12c0,0-4.8,14.3,3.8,18.6c0,0,26.3,16.8,31.2-3.6c0,0,6.9,5.2,18.4,2.5c0,0-1.1-13.4-2.8-19
		c0,0,20.1-17.9,21.4-42.4C1375.2,624.1,1369.4,598.4,1336.1,602.5z"/>
	<path class="st73" d="M1366.1,745.3c0,0-1.5-15.3-9.7-24.6c0,0-11.9-24.8-22.4-30.4c0,0,5.2-5.6,4.1-11.4c0,0-2.2-7.1,6.3-2.6
		c0,0,11.2,9.3,12.3,13l11.2,16.8c0,0,7.8,11.2,5.2-1.9c0,0-5.6-17.6-7.8-19.1l47,0.8l-0.8,7.5c0,0-1.3,6.6,2.5-0.3
		c0,0,1.8-3.5,6.5-7.6c0,0,4.1-4.6,5.1-8l9.8-8.6l6.5,19.1c0,0-11,9.8-12.8,15c0,0-9.6,13.2-11.5,21.9c0,0-3.4,15.3-3.4,18.1
		c0,0-0.2,2.6-3,2.8c1.6-0.4-6.8-1.8-10.7,2.9H1380C1380,749,1369.9,748.4,1366.1,745.3z"/>
	<path class="st74" d="M1443.8,616.4c0,0-18.3,7.1-8.8,21.3c0,0,7.4,15.2-2.7,26.4c0,0-7.8,13.6,2.7,22c0,0,8.1,11.9,22.7,4.7
		c0,0,12.5-2.4,10.5-11.5c0,0,16.4-1,16.4-19c0,0,3.6-7.8-1.5-11.2c0,0,8.8-14.8-4.4-21.7C1478.7,627.6,1471.6,602.2,1443.8,616.4z"
		/>
	<path class="st75" d="M1377.4,696c0,0,14.6,12.1,26.5,0c0,0,6.7-7.7,14.9-9.9c0,0,6.7,0.4,10.8-9.5c0,0-0.7-9.9,7.5-11.7
		c0,0,5.2-4.6,2.2-12.1c0,0,8.6-18-3.7-26.4c0,0-3-5.9-12.3-5.1c0,0-23.1-14.4-36.2,2.8c0,0-15.3-5.4-20.6,9.7
		c0,0-14.9,8.1-7.8,21.6c0,0-15.7,5.5-8.2,20.9c0,0,4.9,15.8,17.9,11C1368.4,687.2,1369.6,695.6,1377.4,696z"/>
</g>
<polygon class="st76" points="584,984.6 604.9,1020.9 608.1,994.5 632.1,1002.8 613.4,968.6 "/>
<polygon class="st77" points="538.6,854.4 513.7,820.6 513.5,847.3 488.7,841.7 511.2,873.6 "/>
<g>
	<ellipse class="st78" cx="556.2" cy="925" rx="72.8" ry="77.9"/>
</g>
<g>
	<circle class="st0" cx="514.8" cy="909.5" r="45.8"/>
</g>
<g>
	<circle class="st78" cx="514.8" cy="909.5" r="35.5"/>
</g>
<g>
	<circle cx="514.8" cy="909.5" r="26.2"/>
</g>
<g>
	<circle class="st0" cx="597.1" cy="909.5" r="45.8"/>
</g>
<g>
	<circle class="st78" cx="597.1" cy="909.5" r="35.5"/>
</g>
<g>
	<circle cx="597.1" cy="909.5" r="26.2"/>
</g>
<g>
	<path class="st79" d="M546.4,938.1c0,0,10.3-5.4,19.8,0l-9.9,33L546.4,938.1z"/>
</g>
<text transform="matrix(1 0 0 1 534.4081 990.4896)" class="st80 st4 st81">verbs</text>
<polygon class="st76" points="1652.1,401.6 1673.1,438 1676.3,411.5 1700.2,419.8 1681.5,385.6 "/>
<polygon class="st77" points="1606.7,271.5 1581.8,237.6 1581.6,264.3 1556.9,258.7 1579.3,290.6 "/>
<g>
	<ellipse class="st82" cx="1624.3" cy="342" rx="72.8" ry="77.9"/>
</g>
<g>
	<circle class="st0" cx="1583" cy="326.6" r="45.8"/>
</g>
<g>
	<circle class="st82" cx="1583" cy="326.6" r="35.5"/>
</g>
<g>
	<circle cx="1583" cy="326.6" r="26.2"/>
</g>
<g>
	<circle class="st0" cx="1665.2" cy="326.6" r="45.8"/>
</g>
<g>
	<circle class="st82" cx="1665.2" cy="326.6" r="35.5"/>
</g>
<g>
	<circle cx="1665.2" cy="326.6" r="26.2"/>
</g>
<g>
	<path class="st79" d="M1614.5,355.1c0,0,10.3-5.4,19.8,0l-9.9,33L1614.5,355.1z"/>
</g>
<text transform="matrix(1 0 0 1 1596.7572 406.5815)" class="st80 st4 st81">getting </text>
<text transform="matrix(1 0 0 1 1596.7572 428.2815)" class="st80 st4 st81">dressed</text>
<g>
	<path class="st83" d="M1542.8,994.6l0.7,22.1c0,0-0.4,5.1,5.5,5.2l32.1,3.7c0,0,38.8,3.9,41.2,3l48.6,2.7c0,0,0.8,1.1,1.1,1.7h4
		v-56.2V938V791.5c0,0-26.9-7.6-61.6-4.2c0,0-48.1,9.3-51.5,25c0,0-12.7,55.1-14.7,78.3C1548.1,890.6,1539,959.3,1542.8,994.6z"/>
	<path class="st84" d="M1731.9,1030.7c0,0,5.2-30.1-6.7-36.9c0,0-2.9-3.7-5.6,8.5c0,0,3.1-23.8,14.9-17.8c0,0,8.9,2.5,7.5,23.2
		l-3.4,22.6L1731.9,1030.7z"/>
	<path class="st85" d="M1718.1,1023.1c0,0-2.5-26.7,8.7-33.2c0,0,6.1-0.5,5.5,13.7c0,0,1.4,27.7-4.8,31.2c0,0-4.7,5.1-8.8-2.8
		C1718.7,1032,1717.5,1026.6,1718.1,1023.1z"/>
	<path class="st86" d="M1817.4,850.2c0,0,25.5,9.3,25,13.2c0,0,6.4,103.4,2.1,130.8c0,0-7.2,8.3-24.9,10.8c0,0,2.2-20.9-6.1-27.4
		c0,0-9,0-7.2,30l-19.5,4.7l-46.9,9.7c0,0,5.8-50.9-15.5-33.2c0,0-7.6,11.6-6.5,37.2l-42.6,8.7V791.3L1817.4,850.2z"/>
	<polygon class="st87" points="1573.4,994.9 1583.2,994.9 1588.2,1001.2 1579.3,1001.2 	"/>
	<polygon class="st88" points="1588.2,995.9 1598.9,995.9 1593.6,1001.7 	"/>
	<polygon class="st89" points="1599.2,1001.7 1603.9,996.5 1614.1,996.5 1608.6,1002.1 	"/>
	<polygon class="st90" points="1583.2,1018.5 1583.2,1025.5 1609.8,1027.3 1609.8,1020 	"/>
	<path class="st91" d="M1542.1,984.8l0.6,8.3c0,0,13.2,8.4,17.3,8.2c0,0-1.1-8-6.7-10.7L1542.1,984.8z"/>
	<path class="st92" d="M1543.6,993.7c0,0,2.1,17.7,11.4,19.2c0,0-6.1-10.4-5.2-15.5L1543.6,993.7z"/>
	<path class="st93" d="M1630.6,1005.6c0,0,3.5-8.4,12.8-10.9c0,0,16.2-5.3,22.6-4.8l-1,6.8C1664.9,996.7,1647.5,1008,1630.6,1005.6z
		"/>
	<path class="st94" d="M1645.7,1004.4c0,0-5.6,14-4.7,15.8c0,0,12.5-0.7,14.9-8.8l5.6-13.4C1661.5,998,1655,1003.3,1645.7,1004.4z"
		/>
	<polygon class="st95" points="1554.9,863.1 1666.4,855.1 1662.9,903.1 1547.7,906.7 	"/>
	<path class="st96" d="M1546.9,941.4c0,0-5.6,30.9,17.7,42.8c0,0,33.4,11.4,66.4,1.9c0,0,23-8,25.7-29.4c0,0,4.9-21.7,4.2-54.5
		l-111.6,5L1546.9,941.4z"/>
	<path class="st97" d="M1546.8,938c0,0-5.6,28.2,17.7,39c0,0,33.4,10.4,66.4,1.7c0,0,23-7.3,25.7-26.8c0,0,4.9-19.8,4.2-49.7
		l-111.6,4.5L1546.8,938z"/>
	<path class="st98" d="M1555.5,868.3l-3.3,29.9l106.4-4.2l2.4-33.4C1661,860.5,1570.7,864.1,1555.5,868.3z"/>
	<polygon class="st99" points="1560.9,873.1 1559.6,894 1615.2,890.8 1615.2,870.2 	"/>
	<polygon class="st100" points="1623.6,871.5 1623.6,890.1 1644.1,890.1 1644.1,870.2 	"/>
	<path class="st101" d="M1672.7,997.6c0,0-5.6-0.6-5.5-33.1l0.8-38.7c0,0,2.3-4.7,4.7-6.3V997.6z"/>
	<polygon class="st102" points="1677.9,912.6 1713.1,915.5 1713.1,1025.4 1677.9,1032.6 	"/>
	<polygon class="st103" points="1693.1,912.9 1697.5,912.9 1697.5,1027 1693.1,1028.7 	"/>
	<path class="st104" d="M1667.2,975.5c0,0,20.4-4.7,21.2,11.3l0.3,32.5"/>
	<polygon class="st98" points="1680.2,1020.5 1710.9,1015.3 1710.9,1024.7 1680.2,1031.3 	"/>
	<polygon class="st105" points="1679.1,1031.2 1711.9,1024.5 1714.6,1026.6 1680.2,1033.6 	"/>
	<path class="st106" d="M1715.2,918.2c0,0-0.1-4.1,5.3-3.9l21.4,1.8c0,0,2.6-0.4,3.1,4.7l0.1,40.2c0,0,0.6,4.6-4,4.6h-22.9
		c0,0-3.3,0.4-3.1-3.1L1715.2,918.2L1715.2,918.2z"/>
	<line class="st107" x1="1715.2" y1="929.7" x2="1745.2" y2="930.9"/>
	<path class="st106" d="M1747.6,930.5v-11c0,0-0.1-2.2,3.5-1.6l8.2,0.5c0,0,1.9-0.2,1.8,2.1l0.3,10.8L1747.6,930.5z"/>
	<path class="st106" d="M1747.4,932.1l14.2,0.9v27.1c0,0,0.7,3.8-2.5,3.9h-8.9c0,0-3,0.7-2.8-2L1747.4,932.1L1747.4,932.1z"/>
	<polygon class="st102" points="1764.6,918 1787.1,920.3 1787.1,1010.6 1764.6,1016 	"/>
	<polygon class="st108" points="1764.8,918.7 1764.8,921.6 1787.1,923.7 1787.1,921.2 	"/>
	<polygon class="st109" points="1774.8,922.1 1777.7,922.1 1777.7,1013.5 1774.8,1014.3 	"/>
	<polygon class="st110" points="1788.9,920.6 1836.3,926.3 1836.3,963.9 1788.9,965.4 	"/>
	<path class="st106" d="M1789,933.7l11.1,0.6l0.3-8.5c0,0,0.3-1.9-1.4-2l-10.2-0.9L1789,933.7z"/>
	<path class="st106" d="M1789,935.2l11,0.8v23c0,0,0.2,4-1.8,3.7h-9.2V935.2z"/>
	<path class="st106" d="M1802.1,934.5l0.4-8.2c0,0-0.1-2.6,3.5-2l11.8,1.1c0,0,2.7-0.1,2.5,3.1l-0.2,7.5L1802.1,934.5z"/>
	<path class="st106" d="M1802.2,935.9l18,1.3v21c0,0,0.6,4.6-3.3,3.9h-12.6c0,0-2.4,0.5-2.6-2L1802.2,935.9z"/>
	<path class="st106" d="M1821.3,958.7v-29.2c0,0-0.3-4.3,3.2-3.8l7.9,0.6c0,0,3,0.4,2.9,3.7l-0.3,29.3c0,0,0.3,3.5-2.7,3.4h-8.8
		C1823.5,962.8,1821.2,963.1,1821.3,958.7z"/>
	<path class="st111" d="M1680,820.2l28.9,9.5l1.7,28.6c0,0,0.4,6.3-5,5.6c-2.5-0.3-21.6-5.3-21.6-5.3s-4.8-0.6-5.3-8.7L1680,820.2z"
		/>
	<path class="st112" d="M1680.8,818.2l26.6,9v-9c0,0,0-3.3-4.5-5.3l-15.1-5.3c0,0-4.2-1.7-5.3,2.8L1680.8,818.2z"/>
	<path class="st113" d="M1712.2,831.4l28.5,9.5l1.4,26.7c0,0,0.6,5.9-3.2,4.6l-23-5.9c0,0-2.6-2-2.4-5.1L1712.2,831.4z"/>
	<path class="st114" d="M1712.2,828.7v-9.1c0,0,0.2-3,3.6-1.4l21,8.1c0,0,3,0.8,2.6,4.4l1,7.3L1712.2,828.7z"/>
	<path class="st115" d="M1744.5,841.9l14.1,4.6l1.1,26.3c0,0,0.3,4-1.8,3.8l-10.1-2.2c0,0-1.4-1.3-1.8-3.8L1744.5,841.9z"/>
	<path class="st116" d="M1744.5,839.8v-8.9c0,0,0.3-2.9,2.9-1.4l8.6,3.7c0,0,1.9,0.3,1.4,2.5l0.1,8.6L1744.5,839.8z"/>
	<path class="st117" d="M1761.9,845.7v-8.4c0,0-0.4-1.8,2.2-1.2l16.2,6.7c0,0,2.1,0.6,1.9,2.4v7.2L1761.9,845.7z"/>
	<path class="st118" d="M1761.9,847.9l20.9,6.9l1.3,25.5c0,0,0.9,2.8-1.7,2.2l-16.5-4.4c0,0-2.4-0.1-2.5-2.6L1761.9,847.9z"/>
	<path class="st119" d="M1786.1,856l11.4,3.8l1.2,22.8c0,0,1.1,3.9-1.3,3.2l-8.1-1.8c0,0-2.1-0.1-1.9-3.1L1786.1,856z"/>
	<path d="M1786.1,854.2v-8.3c0,0,0-2,2-1.4l7.5,3.1c0,0,2,1.2,1.9,2.7l0.1,7.6L1786.1,854.2z"/>
	<path class="st120" d="M1801,859.3v-7.2c0,0-0.2-1.8,1.6-1.1l12.8,5.4c0,0,1.7,0.1,1.5,2.3v6.3L1801,859.3z"/>
	<path class="st121" d="M1800.9,861.3l16.5,5.7l1,19.9c0,0,0.1,3.7-2.6,3.7l-11.6-2.7c0,0-2.5,0-2.5-2.1L1800.9,861.3z"/>
	<path d="M1819.8,866.5V859c0,0-0.2-2,2.2-1l9.8,4.1c0,0,2.1,0.5,1.8,2.4v6.7L1819.8,866.5z"/>
	<path class="st122" d="M1819.7,868.5l14.3,5.1l0.5,19.2c0,0,0.7,2.5-1.7,2.1l-10.2-2.1c0,0-2.6-0.1-2.3-3L1819.7,868.5z"/>
	<polygon class="st123" points="1730.4,873.6 1730.4,910.3 1830,922.1 1830,897.9 	"/>
	<path class="st124" d="M1727.8,997.4c0,0-2-2.8-4.4,1.8c0,0-5.1,17.2-0.5,27.3c0,0,2.1,4.3,5.5,0
		C1728.4,1026.4,1735.9,1011.8,1727.8,997.4z"/>
	<path class="st125" d="M1725.8,1005.9h2.6c0,0,0.7,0.6,0,1.3h-2.6V1005.9z"/>
	<path class="st125" d="M1725.3,1011.2h2.6c0,0,0.5,0.6,0,1.3h-2.6V1011.2z"/>
	<path class="st125" d="M1725.3,1016.8v1.6h3.1c0,0,0.9-0.9,0-1.6H1725.3z"/>
	<path class="st125" d="M1725.8,1020.4h4.2c0,0,1.2,0.4,0,1.5h-4.2V1020.4z"/>
	<path class="st125" d="M1729.7,1006.2h2.3c0,0,1,0.9,0,1.5h-2.3V1006.2z"/>
	<path class="st125" d="M1729.3,1011.6h3c0,0,1.2,0.9,0,1.6h-3V1011.6z"/>
	<path class="st125" d="M1729.3,1016.8h2.7c0,0,1.2,0.8,0,1.7h-2.7V1016.8z"/>
	<path class="st125" d="M1726.8,1004.2h4.3c0,0,0.8-0.6,0-1.2h-4.3V1004.2z"/>
	<path class="st126" d="M1714.6,1026.6l1.9-0.4c0,0,0.7,9.4,5.7,11.4l-3.6-0.6C1718.5,1037,1715.5,1035.4,1714.6,1026.6z"/>
	<path class="st127" d="M1713.4,1026.8l1.8-0.4c0,0,1.9,9.7,3.6,10.6l-2.5-0.3C1716.3,1036.7,1713.4,1031.8,1713.4,1026.8z"/>
	<path class="st128" d="M1556.4,861.5l8.9-41.7c0,0,1.4-10.4,14.1-15.5c0,0,25-15.5,69.9-10.9c0,0,17.5,2.6,15.8,13.8l0.1,46.6
		C1665.2,853.8,1589.2,856.9,1556.4,861.5z"/>
	<path class="st129" d="M1559.6,847.1c0,0,90.9-10.8,106.2-9.5"/>
	<path class="st130" d="M1810,1016c0,0-8.5-0.3-6.8-13.9c0,0-0.5-20.6,9.8-25.2c0,0,11.9,1.6,6.9,26.2
		C1819.9,1003,1817.1,1015.8,1810,1016z"/>
	<path class="st131" d="M1800.9,1008.8l2.3-0.6c0,0,0.5,6.3,6.7,7.8l-3.2,0.4C1806.8,1016.4,1802.1,1015,1800.9,1008.8z"/>
	<path class="st132" d="M1799.4,1009.2l1.5-0.4c0,0,1.4,6.1,5.8,7.6l-1.6,0.5C1805.1,1016.9,1799.6,1013.9,1799.4,1009.2z"/>
	<path class="st133" d="M1815.5,991c0,0-1.1-8.5-5.9-4c0,0-3.3,3.2-2.3,11.3c0,0-0.2,9.9,3,11.9c0,0,5.5,2.6,5.1-10.7
		C1815.5,999.4,1816,993.1,1815.5,991z"/>
</g>
<path class="st134" d="M248.9,111.6c0,0,22.9-67.2,60.4-61.1c0,0,36.1-3.6,45,65c0,0,3.6,13.2,4.8,19.5c0,0,17.9,90.7-55,100
	c0,0-81.3,3.8-65-92.5C239,142.5,244.7,121,248.9,111.6z"/>
<path class="st135" d="M305.8,53.9c0,0,21.4-5,33.2,19.6c0,0,20,74.3,20,85.7s-6.1,63.2-55,72.5c0,0-52.9,7.9-64-59.7
	c0,0-7.5-23.9,17.5-71.5C257.6,100.7,278.3,49.9,305.8,53.9z"/>
<path class="st136" d="M334.4,93.9c0,0-5-33.6-28.6-31.8c0,0-21.1-6.1-40.4,38.2c0,0-31.8,56.1-11.8,92.2c0,0,15,32.9,49.7,30.4
	c0,0,34.7,0.4,47.9-43.6c0,0,6.8-32.9-7.5-57.2C343.7,122.1,334.8,102.8,334.4,93.9z"/>
<path class="st137" d="M296.5,121.4c0,0-30.4,4.6-33.6,43.9c0,0,0,35.4,36.1,33.6c0,0,31.4,2.9,34.7-33.6
	C333.7,165.3,334.4,124.2,296.5,121.4z"/>
<path class="st138" d="M286.4,197.7c0,0,14.5-18,29.7-2.5C316,195.2,303.5,201.6,286.4,197.7z"/>
<path class="st139" d="M294.8,191.8c0,0,13.2-3.2,13.2,2.5C308,194.3,301.5,199.6,294.8,191.8z"/>
</svg>
