<?xml version="1.0" encoding="utf-8"?>
<!-- Generator: Adobe Illustrator 21.0.0, SVG Export Plug-In . SVG Version: 6.00 Build 0)  -->
<svg version="1.1" id="Layer_1" xmlns="http://www.w3.org/2000/svg" xmlns:xlink="http://www.w3.org/1999/xlink" x="0px" y="0px"
	 viewBox="0 0 1920 1080" style="enable-background:new 0 0 1920 1080;" xml:space="preserve">
<style type="text/css">
	.st0{fill:#FFFFFF;}
	.st1{fill:#FDEA14;}
	.st2{enable-background:new    ;}
	.st3{clip-path:url(#SVGID_2_);fill:#FDEA14;}
	.st4{clip-path:url(#SVGID_4_);fill:#FDEA14;}
</style>
<rect class="st0" width="1920" height="1080"/>
<g>
	<polygon class="st1" points="1299.2,541.1 987.1,19.2 558.1,450.3 857.2,1078.1 	"/>
</g>
<g class="st2">
	<path d="M903.9,142.2c1.5,0,1.7-1.3,1.7-2.2v-19.8c0-0.2,0.1-0.3,0.3-0.3h3.4c0.1,0,0.3,0.1,0.3,0.3v20.1c0,3.1-1.8,5.8-5.6,5.8
		s-5.6-2.6-5.6-5.8v-20.1c0-0.2,0.1-0.3,0.3-0.3h3.3c0.2,0,0.3,0.1,0.3,0.3V140C902.2,141,902.5,142.2,903.9,142.2z"/>
	<path d="M914.4,119.9c0.2,0,0.3,0.1,0.3,0.3l2.1,7.4l2.1-7.4c0-0.2,0.1-0.3,0.3-0.3h3.3c0.2,0,0.3,0.2,0.3,0.3l-3.7,12.7l3.7,12.7
		c0,0.1-0.1,0.3-0.3,0.3h-3.3c-0.2,0-0.3-0.1-0.3-0.3l-2.1-7.4l-2.1,7.4c0,0.2-0.1,0.3-0.3,0.3h-3.3c-0.2,0-0.3-0.2-0.3-0.3
		l3.8-12.7l-3.8-12.7c0-0.1,0.1-0.3,0.3-0.3H914.4z"/>
	<path d="M936,145.8h-4.9c-0.2,0-0.3-0.2-0.3-0.3v-25.3c0-0.2,0.1-0.3,0.3-0.3h4.9c4.4,0,6.1,2.3,6.1,6.1v13.8
		C942.1,142.9,940.5,145.8,936,145.8z M934.7,123.6v18.5h1.3c2,0,2.1-1.5,2.1-2.4v-13.5c0-1.2-0.3-2.6-2.2-2.6H934.7z"/>
	<path d="M945.1,145.8c-0.2,0-0.3-0.2-0.3-0.3v-25.3c0-0.2,0.1-0.3,0.3-0.3h10.7c0.1,0,0.3,0.1,0.3,0.3v3.1c0,0.2-0.1,0.3-0.3,0.3
		h-7.1v7.2h5.4c0.1,0,0.3,0.1,0.3,0.3v3.1c0,0.2-0.1,0.3-0.3,0.3h-5.4v7.6h7.1c0.1,0,0.3,0.1,0.3,0.3v3.1c0,0.2-0.1,0.3-0.3,0.3
		H945.1z"/>
	<path d="M962.7,142.2c1.5,0,1.7-1.3,1.7-2.2v-2.5c0-1.5-0.7-2.8-2.6-3.3c-3.4-0.8-4.7-3.7-4.7-6.5v-2.5c0-3.1,1.9-5.7,5.6-5.7
		c4,0,5.6,2.4,5.6,5.7v1.4c0,0.2-0.1,0.3-0.3,0.3h-3.3c-0.1,0-0.3-0.1-0.3-0.3v-1.1c0-1-0.4-2.2-1.7-2.2c-1.5,0-1.7,1.5-1.7,2.2v2
		c0,1.5,0.7,2.8,2.6,3.3c3.4,0.9,4.7,3.8,4.7,6.5v2.9c0,3.1-1.8,5.7-5.6,5.7s-5.6-2.6-5.6-5.7v-1.7c0-0.2,0.1-0.3,0.3-0.3h3.3
		c0.1,0,0.3,0.1,0.3,0.3v1.4C961,141,961.3,142.2,962.7,142.2z"/>
	<path d="M971,145.8c-0.2,0-0.3-0.2-0.3-0.3v-25.3c0-0.2,0.1-0.3,0.3-0.3h3.3c0.2,0,0.3,0.1,0.3,0.3v25.3c0,0.2-0.1,0.3-0.3,0.3H971
		z"/>
	<path d="M983,142.2c1.5,0,1.7-1.3,1.7-2.2v-5.5h-1.3c-0.2,0-0.3-0.1-0.3-0.3v-3.1c0-0.2,0.1-0.3,0.3-0.3h5c0.2,0,0.3,0.1,0.3,0.3
		v9.3c0,3.1-1.8,5.7-5.6,5.7c-3.8,0-5.6-2.6-5.6-5.7v-15c0-3.1,1.9-5.7,5.6-5.7c4,0,5.6,2.4,5.6,5.7v1.4c0,0.2-0.1,0.3-0.3,0.3H985
		c-0.1,0-0.3-0.1-0.3-0.3v-1.1c0-1-0.4-2.2-1.7-2.2c-1.5,0-1.7,1.5-1.7,2.2V140C981.3,141,981.6,142.2,983,142.2z"/>
	<path d="M999,145.8c-0.2,0-0.3-0.2-0.3-0.3l-3.5-12.1v12.1c0,0.2-0.1,0.3-0.3,0.3h-3.3c-0.2,0-0.3-0.2-0.3-0.3v-25.3
		c0-0.2,0.1-0.3,0.3-0.3h3.3c0.2,0,0.3,0.1,0.3,0.3l3.5,12.1v-12.1c0-0.2,0.1-0.3,0.3-0.3h3.3c0.1,0,0.3,0.1,0.3,0.3v25.3
		c0,0.2-0.1,0.3-0.3,0.3H999z"/>
	<path d="M1010.7,142.2c1.5,0,1.7-1.3,1.7-2.2v-2.5c0-1.5-0.7-2.8-2.6-3.3c-3.4-0.8-4.7-3.7-4.7-6.5v-2.5c0-3.1,1.9-5.7,5.6-5.7
		c4,0,5.6,2.4,5.6,5.7v1.4c0,0.2-0.1,0.3-0.3,0.3h-3.3c-0.1,0-0.3-0.1-0.3-0.3v-1.1c0-1-0.4-2.2-1.7-2.2c-1.5,0-1.7,1.5-1.7,2.2v2
		c0,1.5,0.7,2.8,2.6,3.3c3.4,0.9,4.7,3.8,4.7,6.5v2.9c0,3.1-1.8,5.7-5.6,5.7s-5.6-2.6-5.6-5.7v-1.7c0-0.2,0.1-0.3,0.3-0.3h3.3
		c0.1,0,0.3,0.1,0.3,0.3v1.4C1009,141,1009.3,142.2,1010.7,142.2z"/>
</g>
<g>
	<g>
		<defs>
			<polygon id="SVGID_1_" points="644.2,4 193.5,-308.6 1.4,205.2 480.9,609.6 			"/>
		</defs>
		<clipPath id="SVGID_2_">
			<use xlink:href="#SVGID_1_"  style="overflow:visible;"/>
		</clipPath>
		<rect x="1" class="st3" width="643" height="610"/>
	</g>
</g>
<g>
	<g>
		<defs>
			<polygon id="SVGID_3_" points="1918.2,628 1467.5,315.4 1275.4,829.2 1754.9,1233.6 			"/>
		</defs>
		<clipPath id="SVGID_4_">
			<use xlink:href="#SVGID_3_"  style="overflow:visible;"/>
		</clipPath>
		<rect x="1275" y="315" class="st4" width="643" height="763"/>
	</g>
</g>
<g class="st2">
	<path d="M112,148.9c0-0.1,0.1-0.2,0.3-0.2h0.4c0.2,0,0.3,0.1,0.3,0.2v5.8h8.7v-5.8c0-0.1,0.1-0.2,0.3-0.2h0.4
		c0.2,0,0.3,0.1,0.3,0.2v12.8c0,0.1-0.1,0.2-0.3,0.2h-0.4c-0.1,0-0.3-0.1-0.3-0.2v-6.2H113v6.2c0,0.1-0.1,0.2-0.3,0.2h-0.4
		c-0.1,0-0.3-0.1-0.3-0.2V148.9z"/>
	<path d="M128.9,154.2c2,0,3.5,1.5,3.5,3.5c0,0.3,0,0.7-0.3,0.7H126c0.1,1.6,1.3,3,3,3c1,0,1.8-0.4,2.3-0.7c0.2-0.1,0.3-0.1,0.3,0
		l0.2,0.3c0.1,0.1,0,0.2-0.1,0.3c-0.4,0.4-1.6,0.9-2.8,0.9c-2.4,0-3.8-1.8-3.8-4C125.1,156,126.6,154.2,128.9,154.2z M131.6,157.7
		c0-1.5-0.9-2.8-2.6-2.8c-1.7,0-2.8,1.2-2.9,2.8H131.6z"/>
	<path d="M134.7,154.6c0-0.1,0.1-0.2,0.3-0.2h0.2c0.1,0,0.2,0.1,0.2,0.2l0.1,0.8c0.2-0.3,1-1.2,2.4-1.2c0.6,0,1,0.2,1.2,0.2
		c0.2,0.1,0.3,0.2,0.2,0.3l-0.2,0.4c-0.1,0.1-0.2,0.2-0.3,0.1c-0.1,0-0.5-0.2-1-0.2c-1.5,0-2.2,1.2-2.3,1.3v5.4
		c0,0.2-0.1,0.2-0.3,0.2h-0.4c-0.1,0-0.2-0.1-0.2-0.2V154.6z"/>
	<path d="M144.1,154.2c2,0,3.5,1.5,3.5,3.5c0,0.3,0,0.7-0.3,0.7h-6.2c0.1,1.6,1.3,3,3,3c1,0,1.8-0.4,2.3-0.7c0.2-0.1,0.3-0.1,0.3,0
		l0.2,0.3c0.1,0.1,0,0.2-0.1,0.3c-0.4,0.4-1.6,0.9-2.8,0.9c-2.4,0-3.8-1.8-3.8-4C140.3,156,141.8,154.2,144.1,154.2z M146.8,157.7
		c0-1.5-0.9-2.8-2.6-2.8c-1.7,0-2.8,1.2-2.9,2.8H146.8z"/>
	<path d="M156.7,157.1c0.9,0,1.7,0.3,1.9,0.3c0-1.7-0.2-2.5-1.7-2.5c-1.3,0-2.1,0.5-2.3,0.5c-0.2,0.1-0.3,0-0.3-0.2l-0.1-0.2
		c-0.1-0.2,0-0.2,0.1-0.3c0.1,0,1-0.6,2.6-0.6c2.4,0,2.4,1.4,2.4,3.3v4.2c0,0.1-0.1,0.2-0.3,0.2H159c-0.1,0-0.2-0.1-0.2-0.2
		l-0.1-0.7c-0.5,0.5-1.4,1.1-2.7,1.1c-1.4,0-2.5-1-2.5-2.5C153.5,158.2,154.7,157.1,156.7,157.1z M156.1,161.4
		c1.2,0,2.2-0.7,2.6-1.2v-2.1c-0.3-0.1-1-0.4-1.9-0.4c-1.5,0-2.4,0.7-2.4,1.9C154.2,160.7,155,161.4,156.1,161.4z"/>
	<path d="M162.3,154.6c0-0.1,0.1-0.2,0.3-0.2h0.2c0.1,0,0.2,0.1,0.2,0.2l0.1,0.8c0.2-0.3,1-1.2,2.4-1.2c0.6,0,1,0.2,1.2,0.2
		c0.2,0.1,0.3,0.2,0.2,0.3l-0.2,0.4c-0.1,0.1-0.2,0.2-0.3,0.1c-0.1,0-0.5-0.2-1-0.2c-1.5,0-2.2,1.2-2.3,1.3v5.4
		c0,0.2-0.1,0.2-0.3,0.2h-0.4c-0.1,0-0.2-0.1-0.2-0.2V154.6z"/>
	<path d="M171.7,154.2c2,0,3.5,1.5,3.5,3.5c0,0.3,0,0.7-0.3,0.7h-6.2c0.1,1.6,1.3,3,3,3c1,0,1.8-0.4,2.3-0.7c0.2-0.1,0.3-0.1,0.3,0
		l0.2,0.3c0.1,0.1,0,0.2-0.1,0.3c-0.4,0.4-1.6,0.9-2.8,0.9c-2.4,0-3.8-1.8-3.8-4C167.9,156,169.4,154.2,171.7,154.2z M174.4,157.7
		c0-1.5-0.9-2.8-2.6-2.8c-1.7,0-2.8,1.2-2.9,2.8H174.4z"/>
	<path d="M184.3,157.1c0.9,0,1.7,0.3,1.9,0.3c0-1.7-0.2-2.5-1.7-2.5c-1.3,0-2.1,0.5-2.3,0.5c-0.2,0.1-0.3,0-0.3-0.2l-0.1-0.2
		c-0.1-0.2,0-0.2,0.1-0.3c0.1,0,1-0.6,2.6-0.6c2.4,0,2.4,1.4,2.4,3.3v4.2c0,0.1-0.1,0.2-0.3,0.2h-0.2c-0.1,0-0.2-0.1-0.2-0.2
		l-0.1-0.7c-0.5,0.5-1.4,1.1-2.7,1.1c-1.4,0-2.5-1-2.5-2.5C181.1,158.2,182.3,157.1,184.3,157.1z M183.7,161.4
		c1.2,0,2.2-0.7,2.6-1.2v-2.1c-0.3-0.1-1-0.4-1.9-0.4c-1.5,0-2.4,0.7-2.4,1.9C181.9,160.7,182.6,161.4,183.7,161.4z"/>
	<path d="M194.6,155.1h-1.2c-0.2,0-0.3-0.1-0.3-0.2v-0.2c0-0.1,0.1-0.2,0.3-0.2h1.2v-2.6c0-2.2,1.2-3.3,2.9-3.3c1,0,1.9,0.5,2.2,0.8
		c0.1,0.1,0.1,0.2,0,0.3l-0.2,0.3c-0.1,0.1-0.2,0.1-0.3,0c-0.3-0.3-1-0.6-1.7-0.6c-1.2,0-2.1,0.8-2.1,2.5v2.6h2.9
		c0.2,0,0.3,0.1,0.3,0.2v0.3c0,0.1-0.1,0.2-0.3,0.2h-2.9v6.6c0,0.1-0.1,0.2-0.3,0.2h-0.3c-0.1,0-0.3-0.1-0.3-0.2V155.1z"/>
	<path d="M203.4,154.2c2,0,3.5,1.5,3.5,3.5c0,0.3,0,0.7-0.3,0.7h-6.2c0.1,1.6,1.3,3,3,3c1,0,1.8-0.4,2.3-0.7c0.2-0.1,0.3-0.1,0.3,0
		l0.2,0.3c0.1,0.1,0,0.2-0.1,0.3c-0.4,0.4-1.6,0.9-2.8,0.9c-2.4,0-3.8-1.8-3.8-4C199.6,156,201,154.2,203.4,154.2z M206,157.7
		c0-1.5-0.9-2.8-2.6-2.8c-1.7,0-2.8,1.2-2.9,2.8H206z"/>
	<path d="M208.3,154.7c-0.1-0.2-0.1-0.3,0.1-0.3h0.4c0.1,0,0.2,0,0.3,0.2l1.8,6h0l2.3-6.2c0-0.1,0.1-0.2,0.2-0.2h0.1
		c0.1,0,0.2,0.1,0.2,0.2l2.3,6.2h0l1.8-6c0-0.1,0.2-0.2,0.3-0.2h0.4c0.2,0,0.2,0.1,0.1,0.3l-2.3,7.3c0,0.1-0.1,0.2-0.2,0.2h-0.1
		c-0.1,0-0.2-0.1-0.2-0.2l-2.3-6.4h0l-2.3,6.4c0,0.1-0.1,0.2-0.2,0.2h-0.1c-0.1,0-0.2,0-0.2-0.2L208.3,154.7z"/>
	<path d="M228.3,154.2c2.2,0,3.9,1.8,3.9,4c0,2.2-1.7,4-3.9,4c-2.2,0-3.9-1.8-3.9-4C224.4,156,226.1,154.2,228.3,154.2z
		 M228.3,161.4c1.7,0,3-1.4,3-3.2c0-1.7-1.3-3.2-3-3.2c-1.7,0-3,1.4-3,3.2C225.3,160,226.6,161.4,228.3,161.4z"/>
	<path d="M235,155.1h-1.2c-0.2,0-0.3-0.1-0.3-0.2v-0.2c0-0.1,0.1-0.2,0.3-0.2h1.2v-2.6c0-2.2,1.2-3.3,2.9-3.3c1,0,1.9,0.5,2.2,0.8
		c0.1,0.1,0.1,0.2,0,0.3l-0.2,0.3c-0.1,0.1-0.2,0.1-0.3,0c-0.3-0.3-1-0.6-1.7-0.6c-1.2,0-2.1,0.8-2.1,2.5v2.6h2.9
		c0.2,0,0.3,0.1,0.3,0.2v0.3c0,0.1-0.1,0.2-0.3,0.2h-2.9v6.6c0,0.1-0.1,0.2-0.3,0.2h-0.3c-0.1,0-0.3-0.1-0.3-0.2V155.1z"/>
	<path d="M249.3,155.1h-0.9c-0.2,0-0.2-0.1-0.2-0.2v-0.3c0-0.1,0.1-0.2,0.2-0.2h0.9v-2.1c0-0.2,0.1-0.2,0.3-0.2l0.3,0
		c0.1,0,0.3,0.1,0.3,0.2v2.1h2.7c0.2,0,0.3,0.1,0.3,0.2v0.2c0,0.2-0.1,0.2-0.3,0.2h-2.7v4.8c0,0.9,0.1,1.4,1,1.4
		c0.7,0,1.5-0.4,1.8-0.5c0.2-0.1,0.3,0,0.3,0.1l0.1,0.2c0.1,0.1,0.1,0.2-0.1,0.3c-0.3,0.2-1.1,0.7-2.2,0.7c-1.6,0-1.7-0.9-1.7-2.1
		V155.1z"/>
	<path d="M255.3,148.9c0-0.1,0.1-0.2,0.3-0.2h0.3c0.1,0,0.3,0.1,0.3,0.2v6.5c0.3-0.2,1.3-1.2,2.8-1.2c2,0,3.1,1.2,3.1,3.5v4.1
		c0,0.1-0.1,0.2-0.3,0.2h-0.3c-0.1,0-0.3-0.1-0.3-0.2v-4.1c0-1.7-0.8-2.7-2.3-2.7c-1.6,0-2.7,1.2-2.8,1.3v5.4c0,0.2-0.1,0.2-0.3,0.2
		h-0.4c-0.1,0-0.2-0.1-0.2-0.2V148.9z"/>
	<path d="M268.1,154.2c2,0,3.5,1.5,3.5,3.5c0,0.3,0,0.7-0.3,0.7h-6.2c0.1,1.6,1.3,3,3,3c1,0,1.8-0.4,2.3-0.7c0.2-0.1,0.3-0.1,0.3,0
		l0.2,0.3c0.1,0.1,0,0.2-0.1,0.3c-0.4,0.4-1.6,0.9-2.8,0.9c-2.4,0-3.8-1.8-3.8-4C264.3,156,265.7,154.2,268.1,154.2z M270.7,157.7
		c0-1.5-0.9-2.8-2.6-2.8c-1.7,0-2.8,1.2-2.9,2.8H270.7z"/>
	<path d="M281.3,154.2c1.5,0,2.4,0.8,2.4,0.8v-6c0-0.1,0.1-0.2,0.3-0.2h0.3c0.1,0,0.2,0.1,0.2,0.2v12.8c0,0.1-0.1,0.2-0.3,0.2H284
		c-0.2,0-0.3-0.1-0.3-0.2l-0.1-0.7c-0.2,0.2-1.2,1.1-2.7,1.1c-2,0-3.6-1.8-3.6-4C277.5,156,279.1,154.2,281.3,154.2z M281.1,161.4
		c1.7,0,2.5-1.3,2.5-1.3v-4.3c0,0-0.9-0.8-2.3-0.8c-1.8,0-3,1.4-3,3.2C278.3,160,279.5,161.4,281.1,161.4z"/>
	<path d="M290.6,154.2c2,0,3.5,1.5,3.5,3.5c0,0.3,0,0.7-0.3,0.7h-6.2c0.1,1.6,1.3,3,3,3c1,0,1.8-0.4,2.3-0.7c0.2-0.1,0.3-0.1,0.3,0
		l0.2,0.3c0.1,0.1,0,0.2-0.1,0.3c-0.4,0.4-1.6,0.9-2.8,0.9c-2.4,0-3.8-1.8-3.8-4C286.8,156,288.3,154.2,290.6,154.2z M293.3,157.7
		c0-1.5-0.9-2.8-2.6-2.8c-1.7,0-2.8,1.2-2.9,2.8H293.3z"/>
	<path d="M295.9,161.1l0.2-0.3c0.1-0.1,0.2-0.1,0.3,0c0.2,0.2,1,0.7,2.1,0.7c1.1,0,1.9-0.6,1.9-1.3c0-0.9-0.9-1.2-2.2-1.7
		c-1.4-0.5-2.4-1.1-2.4-2.2c0-0.8,0.8-2,2.5-2c1,0,1.8,0.4,2.2,0.6c0.1,0.1,0.2,0.2,0.1,0.4l-0.1,0.2c-0.1,0.1-0.2,0.2-0.4,0.1
		c-0.2-0.1-0.9-0.5-1.8-0.5c-1.2,0-1.7,0.7-1.7,1.2c0,0.8,0.7,1.1,1.8,1.5c1.4,0.5,2.7,1,2.7,2.4c0,1.1-1.2,2.1-2.7,2.1
		c-1.3,0-2.1-0.5-2.5-0.9C295.9,161.3,295.9,161.2,295.9,161.1z"/>
	<path d="M303.3,150.1c0-0.4,0.3-0.7,0.7-0.7s0.7,0.3,0.7,0.7c0,0.3-0.3,0.6-0.7,0.6S303.3,150.4,303.3,150.1z M303.5,154.6
		c0-0.1,0.1-0.2,0.3-0.2h0.3c0.1,0,0.3,0.1,0.3,0.2v7.1c0,0.2-0.1,0.2-0.3,0.2h-0.4c-0.1,0-0.2-0.1-0.2-0.2V154.6z"/>
	<path d="M307.8,159.3c-0.2-0.3-0.6-1-0.6-1.9c0-1.8,1.3-3.2,3.4-3.2c0.5,0,0.5,0,3.2,0c0.2,0,0.3,0.1,0.3,0.2v0.2
		c0,0.1-0.1,0.2-0.2,0.2l-1.4,0.1c0.4,0.2,1.2,0.9,1.2,2.4c0,1.7-1.2,3.2-3.2,3.2c-1.2,0-1.9-0.4-2.1-0.7c-0.2,0.1-1,0.5-1,1.4
		c0,0.9,0.8,1.1,1.5,1.1h2.8c1.7,0,2.9,0.7,2.9,2.4c0,1.6-1.6,3.1-3.9,3.1c-2.6,0-3.8-1.5-3.8-2.8c0-1.1,0.8-1.7,1.2-2
		c-0.4-0.1-1.5-0.6-1.5-1.7C306.5,160.1,307.6,159.4,307.8,159.3z M310.5,167.1c1.7,0,3.1-1,3.1-2.3c0-0.9-0.5-1.7-2-1.7h-2.4
		c-0.2,0-1.6,0.6-1.6,1.8C307.6,166,308.7,167.1,310.5,167.1z M312.8,157.4c0-1.6-1.1-2.4-2.4-2.4c-1.5,0-2.4,1.1-2.4,2.4
		c0,1.3,0.8,2.4,2.4,2.4C311.9,159.8,312.8,158.8,312.8,157.4z"/>
	<path d="M316.2,154.6c0-0.1,0.1-0.2,0.3-0.2h0.2c0.1,0,0.2,0.1,0.2,0.2l0.1,0.8c0.3-0.3,1.3-1.2,2.9-1.2c2.2,0,3.1,1.3,3.1,3.5v4.1
		c0,0.1-0.1,0.2-0.3,0.2h-0.3c-0.1,0-0.3-0.1-0.3-0.2v-4.1c0-1.7-0.8-2.7-2.3-2.7c-1.6,0-2.7,1.2-2.8,1.3v5.4c0,0.2-0.1,0.2-0.3,0.2
		h-0.4c-0.1,0-0.2-0.1-0.2-0.2V154.6z"/>
	<path d="M325.3,161.1l0.2-0.3c0.1-0.1,0.2-0.1,0.3,0c0.2,0.2,1,0.7,2.1,0.7c1.1,0,1.9-0.6,1.9-1.3c0-0.9-0.9-1.2-2.2-1.7
		c-1.4-0.5-2.4-1.1-2.4-2.2c0-0.8,0.8-2,2.5-2c1,0,1.8,0.4,2.2,0.6c0.1,0.1,0.2,0.2,0.1,0.4l-0.1,0.2c-0.1,0.1-0.2,0.2-0.4,0.1
		c-0.2-0.1-0.9-0.5-1.8-0.5c-1.2,0-1.7,0.7-1.7,1.2c0,0.8,0.7,1.1,1.8,1.5c1.4,0.5,2.7,1,2.7,2.4c0,1.1-1.2,2.1-2.7,2.1
		c-1.3,0-2.1-0.5-2.5-0.9C325.3,161.3,325.3,161.2,325.3,161.1z"/>
	<path d="M337.4,155.1h-0.9c-0.2,0-0.2-0.1-0.2-0.2v-0.3c0-0.1,0.1-0.2,0.2-0.2h0.9v-2.1c0-0.2,0.1-0.2,0.3-0.2l0.3,0
		c0.1,0,0.3,0.1,0.3,0.2v2.1h2.7c0.2,0,0.3,0.1,0.3,0.2v0.2c0,0.2-0.1,0.2-0.3,0.2h-2.7v4.8c0,0.9,0.1,1.4,1,1.4
		c0.7,0,1.5-0.4,1.8-0.5c0.2-0.1,0.3,0,0.3,0.1l0.1,0.2c0.1,0.1,0.1,0.2-0.1,0.3c-0.3,0.2-1.1,0.7-2.2,0.7c-1.6,0-1.7-0.9-1.7-2.1
		V155.1z"/>
	<path d="M343.4,148.9c0-0.1,0.1-0.2,0.3-0.2h0.3c0.1,0,0.3,0.1,0.3,0.2v6.5c0.3-0.2,1.3-1.2,2.8-1.2c2,0,3.1,1.2,3.1,3.5v4.1
		c0,0.1-0.1,0.2-0.3,0.2h-0.3c-0.1,0-0.3-0.1-0.3-0.2v-4.1c0-1.7-0.8-2.7-2.3-2.7c-1.6,0-2.7,1.2-2.8,1.3v5.4c0,0.2-0.1,0.2-0.3,0.2
		h-0.4c-0.1,0-0.2-0.1-0.2-0.2V148.9z"/>
	<path d="M355.6,157.1c0.9,0,1.7,0.3,1.9,0.3c0-1.7-0.2-2.5-1.7-2.5c-1.3,0-2.1,0.5-2.3,0.5c-0.2,0.1-0.3,0-0.3-0.2l-0.1-0.2
		c-0.1-0.2,0-0.2,0.1-0.3c0.1,0,1-0.6,2.6-0.6c2.4,0,2.4,1.4,2.4,3.3v4.2c0,0.1-0.1,0.2-0.3,0.2h-0.2c-0.1,0-0.2-0.1-0.2-0.2
		l-0.1-0.7c-0.5,0.5-1.4,1.1-2.7,1.1c-1.4,0-2.5-1-2.5-2.5C352.3,158.2,353.6,157.1,355.6,157.1z M355,161.4c1.2,0,2.2-0.7,2.6-1.2
		v-2.1c-0.3-0.1-1-0.4-1.9-0.4c-1.5,0-2.4,0.7-2.4,1.9C353.1,160.7,353.9,161.4,355,161.4z"/>
	<path d="M361.5,155.1h-0.9c-0.2,0-0.2-0.1-0.2-0.2v-0.3c0-0.1,0.1-0.2,0.2-0.2h0.9v-2.1c0-0.2,0.1-0.2,0.3-0.2l0.3,0
		c0.1,0,0.3,0.1,0.3,0.2v2.1h2.7c0.2,0,0.3,0.1,0.3,0.2v0.2c0,0.2-0.1,0.2-0.3,0.2h-2.7v4.8c0,0.9,0.1,1.4,1,1.4
		c0.7,0,1.5-0.4,1.8-0.5c0.2-0.1,0.3,0,0.3,0.1l0.1,0.2c0.1,0.1,0.1,0.2-0.1,0.3c-0.3,0.2-1.1,0.7-2.2,0.7c-1.6,0-1.7-0.9-1.7-2.1
		V155.1z"/>
	<path d="M372.3,148.9c0-0.1,0.1-0.2,0.3-0.2h0.4c0.1,0,0.3,0.1,0.3,0.2v12.8c0,0.2-0.1,0.2-0.3,0.2h-0.4c-0.1,0-0.3-0.1-0.3-0.2
		V148.9z"/>
	<path d="M384.4,154.2c1.5,0,2.5,0.8,2.9,1.2c0.1,0.1,0.1,0.2,0,0.3l-0.2,0.2c-0.1,0.1-0.3,0.1-0.4,0c-0.2-0.2-1-0.9-2.2-0.9
		c-1.8,0-3.2,1.3-3.2,3.2c0,1.8,1.4,3.2,3.2,3.2c1.4,0,2.2-0.9,2.4-1.1c0.1-0.2,0.3-0.2,0.4,0l0.2,0.2c0.1,0.1,0.1,0.2,0.1,0.3
		c-0.3,0.5-1.4,1.5-3,1.5c-2.2,0-4.1-1.7-4.1-4C380.3,155.9,382.2,154.2,384.4,154.2z"/>
	<path d="M389.8,154.6c0-0.1,0.1-0.2,0.3-0.2h0.2c0.1,0,0.2,0.1,0.2,0.2l0.1,0.8c0.2-0.3,1-1.2,2.4-1.2c0.6,0,1,0.2,1.2,0.2
		c0.2,0.1,0.3,0.2,0.2,0.3l-0.2,0.4c-0.1,0.1-0.2,0.2-0.3,0.1c-0.1,0-0.5-0.2-1-0.2c-1.5,0-2.2,1.2-2.3,1.3v5.4
		c0,0.2-0.1,0.2-0.3,0.2H390c-0.1,0-0.2-0.1-0.2-0.2V154.6z"/>
	<path d="M399.2,154.2c2,0,3.5,1.5,3.5,3.5c0,0.3,0,0.7-0.3,0.7h-6.2c0.1,1.6,1.3,3,3,3c1,0,1.8-0.4,2.3-0.7c0.2-0.1,0.3-0.1,0.3,0
		l0.2,0.3c0.1,0.1,0,0.2-0.1,0.3c-0.4,0.4-1.6,0.9-2.8,0.9c-2.4,0-3.8-1.8-3.8-4C395.4,156,396.8,154.2,399.2,154.2z M401.8,157.7
		c0-1.5-0.9-2.8-2.6-2.8c-1.7,0-2.8,1.2-2.9,2.8H401.8z"/>
	<path d="M407.6,157.1c0.9,0,1.7,0.3,1.9,0.3c0-1.7-0.2-2.5-1.7-2.5c-1.3,0-2.1,0.5-2.3,0.5c-0.2,0.1-0.3,0-0.3-0.2l-0.1-0.2
		c-0.1-0.2,0-0.2,0.1-0.3c0.1,0,1-0.6,2.6-0.6c2.4,0,2.4,1.4,2.4,3.3v4.2c0,0.1-0.1,0.2-0.3,0.2h-0.2c-0.1,0-0.2-0.1-0.2-0.2
		l-0.1-0.7c-0.5,0.5-1.4,1.1-2.7,1.1c-1.4,0-2.5-1-2.5-2.5C404.3,158.2,405.6,157.1,407.6,157.1z M407,161.4c1.2,0,2.2-0.7,2.6-1.2
		v-2.1c-0.3-0.1-1-0.4-1.9-0.4c-1.5,0-2.4,0.7-2.4,1.9C405.1,160.7,405.9,161.4,407,161.4z"/>
	<path d="M413.5,155.1h-0.9c-0.2,0-0.2-0.1-0.2-0.2v-0.3c0-0.1,0.1-0.2,0.2-0.2h0.9v-2.1c0-0.2,0.1-0.2,0.3-0.2l0.3,0
		c0.1,0,0.3,0.1,0.3,0.2v2.1h2.7c0.2,0,0.3,0.1,0.3,0.2v0.2c0,0.2-0.1,0.2-0.3,0.2h-2.7v4.8c0,0.9,0.1,1.4,1,1.4
		c0.7,0,1.5-0.4,1.8-0.5c0.2-0.1,0.3,0,0.3,0.1l0.1,0.2c0.1,0.1,0.1,0.2-0.1,0.3c-0.3,0.2-1.1,0.7-2.2,0.7c-1.6,0-1.7-0.9-1.7-2.1
		V155.1z"/>
	<path d="M422.8,154.2c2,0,3.5,1.5,3.5,3.5c0,0.3,0,0.7-0.3,0.7h-6.2c0.1,1.6,1.3,3,3,3c1,0,1.8-0.4,2.3-0.7c0.2-0.1,0.3-0.1,0.3,0
		l0.2,0.3c0.1,0.1,0,0.2-0.1,0.3c-0.4,0.4-1.6,0.9-2.8,0.9c-2.4,0-3.8-1.8-3.8-4C419,156,420.4,154.2,422.8,154.2z M425.4,157.7
		c0-1.5-0.9-2.8-2.6-2.8c-1.7,0-2.8,1.2-2.9,2.8H425.4z"/>
	<path d="M431.8,154.2c1.5,0,2.4,0.8,2.4,0.8v-6c0-0.1,0.1-0.2,0.3-0.2h0.3c0.1,0,0.2,0.1,0.2,0.2v12.8c0,0.1-0.1,0.2-0.3,0.2h-0.2
		c-0.2,0-0.3-0.1-0.3-0.2l-0.1-0.7c-0.2,0.2-1.2,1.1-2.7,1.1c-2,0-3.6-1.8-3.6-4C428,156,429.6,154.2,431.8,154.2z M431.6,161.4
		c1.7,0,2.5-1.3,2.5-1.3v-4.3c0,0-0.9-0.8-2.3-0.8c-1.8,0-3,1.4-3,3.2C428.8,160,430,161.4,431.6,161.4z"/>
	<path d="M442.6,155.1h-1.2c-0.2,0-0.3-0.1-0.3-0.2v-0.2c0-0.1,0.1-0.2,0.3-0.2h1.2v-2.6c0-2.2,1.2-3.3,2.9-3.3c1,0,1.9,0.5,2.2,0.8
		c0.1,0.1,0.1,0.2,0,0.3l-0.2,0.3c-0.1,0.1-0.2,0.1-0.3,0c-0.3-0.3-1-0.6-1.7-0.6c-1.2,0-2.1,0.8-2.1,2.5v2.6h2.9
		c0.2,0,0.3,0.1,0.3,0.2v0.3c0,0.1-0.1,0.2-0.3,0.2h-2.9v6.6c0,0.1-0.1,0.2-0.3,0.2h-0.3c-0.1,0-0.3-0.1-0.3-0.2V155.1z"/>
	<path d="M451.4,154.2c2.2,0,3.9,1.8,3.9,4c0,2.2-1.7,4-3.9,4c-2.2,0-3.9-1.8-3.9-4C447.6,156,449.2,154.2,451.4,154.2z
		 M451.4,161.4c1.7,0,3-1.4,3-3.2c0-1.7-1.3-3.2-3-3.2c-1.7,0-3,1.4-3,3.2C448.4,160,449.7,161.4,451.4,161.4z"/>
	<path d="M457.7,154.6c0-0.1,0.1-0.2,0.3-0.2h0.2c0.1,0,0.2,0.1,0.2,0.2l0.1,0.8c0.2-0.3,1-1.2,2.4-1.2c0.6,0,1,0.2,1.2,0.2
		c0.2,0.1,0.3,0.2,0.2,0.3l-0.2,0.4c-0.1,0.1-0.2,0.2-0.3,0.1c-0.1,0-0.5-0.2-1-0.2c-1.5,0-2.2,1.2-2.3,1.3v5.4
		c0,0.2-0.1,0.2-0.3,0.2h-0.4c-0.1,0-0.2-0.1-0.2-0.2V154.6z"/>
	<path d="M468.4,155.1h-0.9c-0.2,0-0.2-0.1-0.2-0.2v-0.3c0-0.1,0.1-0.2,0.2-0.2h0.9v-2.1c0-0.2,0.1-0.2,0.3-0.2l0.3,0
		c0.1,0,0.3,0.1,0.3,0.2v2.1h2.7c0.2,0,0.3,0.1,0.3,0.2v0.2c0,0.2-0.1,0.2-0.3,0.2h-2.7v4.8c0,0.9,0.1,1.4,1,1.4
		c0.7,0,1.5-0.4,1.8-0.5c0.2-0.1,0.3,0,0.3,0.1l0.1,0.2c0.1,0.1,0.1,0.2-0.1,0.3c-0.3,0.2-1.1,0.7-2.2,0.7c-1.6,0-1.7-0.9-1.7-2.1
		V155.1z"/>
	<path d="M474.4,148.9c0-0.1,0.1-0.2,0.3-0.2h0.3c0.1,0,0.3,0.1,0.3,0.2v6.5c0.3-0.2,1.3-1.2,2.8-1.2c2,0,3.1,1.2,3.1,3.5v4.1
		c0,0.1-0.1,0.2-0.3,0.2h-0.3c-0.1,0-0.3-0.1-0.3-0.2v-4.1c0-1.7-0.8-2.7-2.3-2.7c-1.6,0-2.7,1.2-2.8,1.3v5.4c0,0.2-0.1,0.2-0.3,0.2
		h-0.4c-0.1,0-0.2-0.1-0.2-0.2V148.9z"/>
	<path d="M487.2,154.2c2,0,3.5,1.5,3.5,3.5c0,0.3,0,0.7-0.3,0.7h-6.2c0.1,1.6,1.3,3,3,3c1,0,1.8-0.4,2.3-0.7c0.2-0.1,0.3-0.1,0.3,0
		l0.2,0.3c0.1,0.1,0,0.2-0.1,0.3c-0.4,0.4-1.6,0.9-2.8,0.9c-2.4,0-3.8-1.8-3.8-4C483.4,156,484.9,154.2,487.2,154.2z M489.9,157.7
		c0-1.5-0.9-2.8-2.6-2.8c-1.7,0-2.8,1.2-2.9,2.8H489.9z"/>
</g>
<g class="st2">
	<path d="M114.1,179.9c0.9,0,1.7,0.3,1.9,0.3c0-1.7-0.2-2.5-1.7-2.5c-1.3,0-2.1,0.5-2.3,0.5c-0.2,0.1-0.3,0-0.3-0.2l-0.1-0.2
		c-0.1-0.2,0-0.2,0.1-0.3c0.1,0,1-0.6,2.6-0.6c2.4,0,2.4,1.4,2.4,3.3v4.2c0,0.1-0.1,0.2-0.3,0.2h-0.2c-0.1,0-0.2-0.1-0.2-0.2
		l-0.1-0.7c-0.5,0.5-1.4,1.1-2.7,1.1c-1.4,0-2.5-1-2.5-2.5C110.8,181,112.1,179.9,114.1,179.9z M113.5,184.2c1.2,0,2.2-0.7,2.6-1.2
		V181c-0.3-0.1-1-0.4-1.9-0.4c-1.5,0-2.4,0.7-2.4,1.9C111.6,183.5,112.4,184.2,113.5,184.2z"/>
	<path d="M120.5,190.3c0,0.1-0.1,0.2-0.3,0.2h-0.3c-0.1,0-0.3-0.1-0.3-0.2v-12.8c0-0.2,0.1-0.2,0.3-0.2h0.2c0.1,0,0.2,0.1,0.2,0.2
		l0.1,0.5c0.2-0.2,1.1-0.9,2.5-0.9c2.1,0,3.7,1.8,3.7,4c0,2.2-1.6,4-3.9,4c-1.3,0-2.1-0.6-2.3-0.8V190.3z M122.7,184.2
		c1.9,0,3.1-1.4,3.1-3.2c0-1.8-1.2-3.2-2.9-3.2c-1.5,0-2.3,1-2.4,1.1v4.4C120.6,183.4,121.4,184.2,122.7,184.2z"/>
	<path d="M129.9,190.3c0,0.1-0.1,0.2-0.3,0.2h-0.3c-0.1,0-0.3-0.1-0.3-0.2v-12.8c0-0.2,0.1-0.2,0.3-0.2h0.2c0.1,0,0.2,0.1,0.2,0.2
		l0.1,0.5c0.2-0.2,1.1-0.9,2.5-0.9c2.1,0,3.7,1.8,3.7,4c0,2.2-1.6,4-3.9,4c-1.3,0-2.1-0.6-2.3-0.8V190.3z M132.1,184.2
		c1.9,0,3.1-1.4,3.1-3.2c0-1.8-1.2-3.2-2.9-3.2c-1.5,0-2.3,1-2.4,1.1v4.4C130,183.4,130.8,184.2,132.1,184.2z"/>
	<path d="M142.5,177.4c0-0.1,0.1-0.2,0.3-0.2h0.3c0.1,0,0.3,0.1,0.3,0.2v4.1c0,1.8,0.8,2.7,2.3,2.7c1.6,0,2.5-1.2,2.5-1.3v-5.4
		c0-0.2,0.1-0.2,0.3-0.2h0.3c0.1,0,0.3,0.1,0.3,0.2v7.1c0,0.1-0.1,0.2-0.3,0.2h-0.2c-0.2,0-0.2-0.1-0.2-0.2l-0.1-0.7
		c-0.2,0.3-1.1,1.2-2.7,1.2c-2.2,0-3.1-1.3-3.1-3.5V177.4z"/>
	<path d="M151.6,183.9l0.2-0.3c0.1-0.1,0.2-0.1,0.3,0c0.2,0.2,1,0.7,2.1,0.7c1.1,0,1.9-0.6,1.9-1.3c0-0.9-0.9-1.2-2.2-1.7
		c-1.4-0.5-2.4-1.1-2.4-2.2c0-0.8,0.8-2,2.5-2c1,0,1.8,0.4,2.2,0.6c0.1,0.1,0.2,0.2,0.1,0.4l-0.1,0.2c-0.1,0.1-0.2,0.2-0.4,0.1
		c-0.2-0.1-0.9-0.5-1.8-0.5c-1.2,0-1.7,0.7-1.7,1.2c0,0.8,0.7,1.1,1.8,1.5c1.4,0.5,2.7,1,2.7,2.4c0,1.1-1.2,2.1-2.7,2.1
		c-1.3,0-2.1-0.5-2.5-0.9C151.6,184.1,151.5,184,151.6,183.9z"/>
	<path d="M158.9,172.9c0-0.4,0.3-0.7,0.7-0.7s0.7,0.3,0.7,0.7c0,0.3-0.3,0.6-0.7,0.6S158.9,173.2,158.9,172.9z M159.1,177.4
		c0-0.1,0.1-0.2,0.3-0.2h0.3c0.1,0,0.3,0.1,0.3,0.2v7.1c0,0.2-0.1,0.2-0.3,0.2h-0.4c-0.1,0-0.2-0.1-0.2-0.2V177.4z"/>
	<path d="M162.9,177.4c0-0.1,0.1-0.2,0.3-0.2h0.2c0.1,0,0.2,0.1,0.2,0.2l0.1,0.8c0.3-0.3,1.3-1.2,2.9-1.2c2.2,0,3.1,1.3,3.1,3.5v4.1
		c0,0.1-0.1,0.2-0.3,0.2h-0.3c-0.1,0-0.3-0.1-0.3-0.2v-4.1c0-1.7-0.8-2.7-2.3-2.7c-1.6,0-2.7,1.2-2.8,1.3v5.4c0,0.2-0.1,0.2-0.3,0.2
		h-0.4c-0.1,0-0.2-0.1-0.2-0.2V177.4z"/>
	<path d="M173,182.1c-0.2-0.3-0.6-1-0.6-1.9c0-1.8,1.3-3.2,3.4-3.2c0.5,0,0.5,0,3.2,0c0.2,0,0.3,0.1,0.3,0.2v0.2
		c0,0.1-0.1,0.2-0.2,0.2l-1.4,0.1c0.4,0.2,1.2,0.9,1.2,2.4c0,1.7-1.2,3.2-3.2,3.2c-1.2,0-1.9-0.4-2.1-0.7c-0.2,0.1-1,0.5-1,1.4
		c0,0.9,0.8,1.1,1.5,1.1h2.8c1.7,0,2.9,0.7,2.9,2.4c0,1.6-1.6,3.1-3.9,3.1c-2.6,0-3.8-1.5-3.8-2.8c0-1.1,0.8-1.7,1.2-2
		c-0.4-0.1-1.5-0.6-1.5-1.7C171.7,182.9,172.7,182.2,173,182.1z M175.7,189.9c1.7,0,3.1-1,3.1-2.3c0-0.9-0.5-1.7-2-1.7h-2.4
		c-0.2,0-1.6,0.6-1.6,1.8C172.8,188.8,173.8,189.9,175.7,189.9z M178,180.2c0-1.6-1.1-2.4-2.4-2.4c-1.5,0-2.4,1.1-2.4,2.4
		c0,1.3,0.8,2.4,2.4,2.4C177,182.6,178,181.6,178,180.2z"/>
	<path d="M184.2,184.6l5.9-13.2c0-0.1,0.1-0.1,0.2-0.1h0.1c0.1,0,0.2,0,0.3,0.1l5.9,13.2c0,0.1,0,0.2-0.2,0.2h-0.5
		c-0.1,0-0.2-0.1-0.3-0.2l-1.6-3.5h-7.4l-1.5,3.5c0,0.1-0.1,0.2-0.3,0.2h-0.5C184.2,184.8,184.2,184.7,184.2,184.6z M193.7,180.4
		l-3.3-7.7h0l-3.4,7.7H193.7z"/>
	<path d="M201.4,177c1.5,0,2.4,0.8,2.4,0.8v-6c0-0.1,0.1-0.2,0.3-0.2h0.3c0.1,0,0.2,0.1,0.2,0.2v12.8c0,0.1-0.1,0.2-0.3,0.2h-0.2
		c-0.2,0-0.3-0.1-0.3-0.2l-0.1-0.7c-0.2,0.2-1.2,1.1-2.7,1.1c-2,0-3.6-1.8-3.6-4C197.6,178.8,199.2,177,201.4,177z M201.2,184.2
		c1.7,0,2.5-1.3,2.5-1.3v-4.3c0,0-0.9-0.8-2.3-0.8c-1.8,0-3,1.4-3,3.2C198.4,182.8,199.6,184.2,201.2,184.2z"/>
	<path d="M210.8,177c2.2,0,3.9,1.8,3.9,4c0,2.2-1.7,4-3.9,4c-2.2,0-3.9-1.8-3.9-4C206.9,178.8,208.6,177,210.8,177z M210.8,184.2
		c1.7,0,3-1.4,3-3.2c0-1.7-1.3-3.2-3-3.2c-1.7,0-3,1.4-3,3.2C207.8,182.8,209.1,184.2,210.8,184.2z"/>
	<path d="M217,171.7c0-0.1,0.1-0.2,0.3-0.2h0.3c0.1,0,0.3,0.1,0.3,0.2v6c0,0,0.9-0.8,2.4-0.8c2.2,0,3.8,1.7,3.8,4c0,2.2-1.6,4-3.5,4
		c-1.5,0-2.4-0.9-2.7-1.1l-0.1,0.7c0,0.2-0.1,0.2-0.3,0.2h-0.2c-0.1,0-0.3-0.1-0.3-0.2V171.7z M220.4,184.2c1.6,0,2.8-1.5,2.8-3.2
		c0-1.8-1.3-3.2-3-3.2c-1.4,0-2.3,0.8-2.3,0.8v4.3C217.9,183,218.8,184.2,220.4,184.2z"/>
	<path d="M229.7,177c2,0,3.5,1.5,3.5,3.5c0,0.3,0,0.7-0.3,0.7h-6.2c0.1,1.6,1.3,3,3,3c1,0,1.8-0.4,2.3-0.7c0.2-0.1,0.3-0.1,0.3,0
		l0.2,0.3c0.1,0.1,0,0.2-0.1,0.3c-0.4,0.4-1.6,0.9-2.8,0.9c-2.4,0-3.8-1.8-3.8-4C225.9,178.8,227.3,177,229.7,177z M232.3,180.5
		c0-1.5-0.9-2.8-2.6-2.8c-1.7,0-2.8,1.2-2.9,2.8H232.3z"/>
	<path d="M240.2,171.7c0-0.1,0.1-0.2,0.3-0.2h0.4c0.1,0,0.3,0.1,0.3,0.2v12.8c0,0.2-0.1,0.2-0.3,0.2h-0.4c-0.1,0-0.3-0.1-0.3-0.2
		V171.7z"/>
	<path d="M244.4,171.7c0-0.1,0.1-0.2,0.3-0.2h0.3c0.1,0,0.3,0.1,0.3,0.2v12.8c0,0.2-0.1,0.2-0.3,0.2h-0.4c-0.1,0-0.2-0.1-0.2-0.2
		V171.7z"/>
	<path d="M248.1,171.7c0-0.1,0.1-0.2,0.3-0.2h0.3c0.1,0,0.3,0.1,0.3,0.2v12.8c0,0.2-0.1,0.2-0.3,0.2h-0.4c-0.1,0-0.2-0.1-0.2-0.2
		V171.7z"/>
	<path d="M251.8,177.4c0-0.1,0.1-0.2,0.3-0.2h0.3c0.1,0,0.3,0.1,0.3,0.2v4.1c0,1.8,0.8,2.7,2.3,2.7c1.6,0,2.5-1.2,2.5-1.3v-5.4
		c0-0.2,0.1-0.2,0.3-0.2h0.3c0.1,0,0.3,0.1,0.3,0.2v7.1c0,0.1-0.1,0.2-0.3,0.2h-0.2c-0.2,0-0.2-0.1-0.2-0.2l-0.1-0.7
		c-0.2,0.3-1.1,1.2-2.7,1.2c-2.2,0-3.1-1.3-3.1-3.5V177.4z"/>
	<path d="M260.8,183.9l0.2-0.3c0.1-0.1,0.2-0.1,0.3,0c0.2,0.2,1,0.7,2.1,0.7c1.1,0,1.9-0.6,1.9-1.3c0-0.9-0.9-1.2-2.2-1.7
		c-1.4-0.5-2.4-1.1-2.4-2.2c0-0.8,0.8-2,2.5-2c1,0,1.8,0.4,2.2,0.6c0.1,0.1,0.2,0.2,0.1,0.4l-0.1,0.2c-0.1,0.1-0.2,0.2-0.4,0.1
		c-0.2-0.1-0.9-0.5-1.8-0.5c-1.2,0-1.7,0.7-1.7,1.2c0,0.8,0.7,1.1,1.8,1.5c1.4,0.5,2.7,1,2.7,2.4c0,1.1-1.2,2.1-2.7,2.1
		c-1.3,0-2.1-0.5-2.5-0.9C260.8,184.1,260.8,184,260.8,183.9z"/>
	<path d="M268.7,177.9h-0.9c-0.2,0-0.2-0.1-0.2-0.2v-0.3c0-0.1,0.1-0.2,0.2-0.2h0.9v-2.1c0-0.2,0.1-0.2,0.3-0.2l0.3,0
		c0.1,0,0.3,0.1,0.3,0.2v2.1h2.7c0.2,0,0.3,0.1,0.3,0.2v0.2c0,0.2-0.1,0.2-0.3,0.2h-2.7v4.8c0,0.9,0.1,1.4,1,1.4
		c0.7,0,1.5-0.4,1.8-0.5c0.2-0.1,0.3,0,0.3,0.1l0.1,0.2c0.1,0.1,0.1,0.2-0.1,0.3c-0.3,0.2-1.1,0.7-2.2,0.7c-1.6,0-1.7-0.9-1.7-2.1
		V177.9z"/>
	<path d="M274.7,177.4c0-0.1,0.1-0.2,0.3-0.2h0.2c0.1,0,0.2,0.1,0.2,0.2l0.1,0.8c0.2-0.3,1-1.2,2.4-1.2c0.6,0,1,0.2,1.2,0.2
		c0.2,0.1,0.3,0.2,0.2,0.3l-0.2,0.4c-0.1,0.1-0.2,0.2-0.3,0.1c-0.1,0-0.5-0.2-1-0.2c-1.5,0-2.2,1.2-2.3,1.3v5.4
		c0,0.2-0.1,0.2-0.3,0.2h-0.4c-0.1,0-0.2-0.1-0.2-0.2V177.4z"/>
	<path d="M283.6,179.9c0.9,0,1.7,0.3,1.9,0.3c0-1.7-0.2-2.5-1.7-2.5c-1.3,0-2.1,0.5-2.3,0.5c-0.2,0.1-0.3,0-0.3-0.2l-0.1-0.2
		c-0.1-0.2,0-0.2,0.1-0.3c0.1,0,1-0.6,2.6-0.6c2.4,0,2.4,1.4,2.4,3.3v4.2c0,0.1-0.1,0.2-0.3,0.2h-0.2c-0.1,0-0.2-0.1-0.2-0.2
		l-0.1-0.7c-0.5,0.5-1.4,1.1-2.7,1.1c-1.4,0-2.5-1-2.5-2.5C280.4,181,281.6,179.9,283.6,179.9z M283,184.2c1.2,0,2.2-0.7,2.6-1.2
		V181c-0.3-0.1-1-0.4-1.9-0.4c-1.5,0-2.4,0.7-2.4,1.9C281.2,183.5,281.9,184.2,283,184.2z"/>
	<path d="M289.5,177.9h-0.9c-0.2,0-0.2-0.1-0.2-0.2v-0.3c0-0.1,0.1-0.2,0.2-0.2h0.9v-2.1c0-0.2,0.1-0.2,0.3-0.2l0.3,0
		c0.1,0,0.3,0.1,0.3,0.2v2.1h2.7c0.2,0,0.3,0.1,0.3,0.2v0.2c0,0.2-0.1,0.2-0.3,0.2h-2.7v4.8c0,0.9,0.1,1.4,1,1.4
		c0.7,0,1.5-0.4,1.8-0.5c0.2-0.1,0.3,0,0.3,0.1l0.1,0.2c0.1,0.1,0.1,0.2-0.1,0.3c-0.3,0.2-1.1,0.7-2.2,0.7c-1.6,0-1.7-0.9-1.7-2.1
		V177.9z"/>
	<path d="M298.9,177c2.2,0,3.9,1.8,3.9,4c0,2.2-1.7,4-3.9,4c-2.2,0-3.9-1.8-3.9-4C295,178.8,296.7,177,298.9,177z M298.9,184.2
		c1.7,0,3-1.4,3-3.2c0-1.7-1.3-3.2-3-3.2c-1.7,0-3,1.4-3,3.2C295.8,182.8,297.1,184.2,298.9,184.2z"/>
	<path d="M305.1,177.4c0-0.1,0.1-0.2,0.3-0.2h0.2c0.1,0,0.2,0.1,0.2,0.2l0.1,0.8c0.2-0.3,1-1.2,2.4-1.2c0.6,0,1,0.2,1.2,0.2
		c0.2,0.1,0.3,0.2,0.2,0.3l-0.2,0.4c-0.1,0.1-0.2,0.2-0.3,0.1c-0.1,0-0.5-0.2-1-0.2c-1.5,0-2.2,1.2-2.3,1.3v5.4
		c0,0.2-0.1,0.2-0.3,0.2h-0.4c-0.1,0-0.2-0.1-0.2-0.2V177.4z"/>
	<path d="M311.6,177.8c0-0.4,0.4-0.8,0.8-0.8c0.4,0,0.8,0.3,0.8,0.8c0,0.4-0.3,0.8-0.8,0.8C312,178.5,311.6,178.2,311.6,177.8z
		 M312.4,183.5c0.4,0,0.8,0.3,0.8,0.8c0,0.4-0.3,0.8-0.8,0.8c-0.4,0-0.8-0.3-0.8-0.8C311.6,183.8,312,183.5,312.4,183.5z"/>
</g>
<image style="overflow:visible;enable-background:new    ;" width="4500" height="8000" xlink:href="2BA5D340B7BA8558.png"  transform="matrix(3.171817e-02 0 0 3.171817e-02 186 240)">
</image>
<image style="overflow:visible;enable-background:new    ;" width="4500" height="8000" xlink:href="2BA5D340B7BA8540.png"  transform="matrix(2.814082e-02 0 0 2.814082e-02 342.8245 246.7091)">
</image>
<image style="overflow:visible;enable-background:new    ;" width="4501" height="8000" xlink:href="2BA5D340B7BA8541.png"  transform="matrix(2.809423e-02 0 0 2.809423e-02 482.0377 246.7091)">
</image>
<image style="overflow:visible;enable-background:new    ;" width="4501" height="8000" xlink:href="2BA5D340B7BA8542.png"  transform="matrix(2.809423e-02 0 0 2.809423e-02 1317.3169 246.7091)">
</image>
<image style="overflow:visible;enable-background:new    ;" width="4500" height="8000" xlink:href="2BA5D340B7BA8543.png"  transform="matrix(2.809423e-02 0 0 2.809423e-02 620.4122 246.7091)">
</image>
<image style="overflow:visible;enable-background:new    ;" width="4501" height="8000" xlink:href="2BA5D340B7BA8544.png"  transform="matrix(2.809423e-02 0 0 2.809423e-02 898.8386 246.7091)">
</image>
<image style="overflow:visible;enable-background:new    ;" width="4500" height="8000" xlink:href="2BA5D340B7BA855A.png"  transform="matrix(2.814082e-02 0 0 2.814082e-02 761.3027 485.7197)">
</image>
<image style="overflow:visible;enable-background:new    ;" width="4501" height="8000" xlink:href="2BA5D340B7BA8546.png"  transform="matrix(2.813457e-02 0 0 2.813457e-02 1041.4064 485.7197)">
</image>
<image style="overflow:visible;enable-background:new    ;" width="4501" height="8000" xlink:href="2BA5D340B7BA8545.png"  transform="matrix(2.809423e-02 0 0 2.809423e-02 1180.6195 485.7197)">
</image>
<image style="overflow:visible;enable-background:new    ;" width="4500" height="8000" xlink:href="4EF7885A8DF545E3.png"  transform="matrix(2.809423e-02 0 0 2.809423e-02 1318.9941 485.7197)">
</image>
<image style="overflow:visible;enable-background:new    ;" width="4501" height="8000" xlink:href="4EF7885A8DF545E4.png"  transform="matrix(2.809423e-02 0 0 2.809423e-02 1457.3687 485.7197)">
</image>
<image style="overflow:visible;enable-background:new    ;" width="4501" height="8000" xlink:href="4EF7885A8DF545E5.png"  transform="matrix(2.809423e-02 0 0 2.809423e-02 1594.9045 485.7197)">
</image>
<image style="overflow:visible;enable-background:new    ;" width="4501" height="8000" xlink:href="4EF7885A8DF545E6.png"  transform="matrix(2.813457e-02 0 0 2.813457e-02 902.1932 485.7197)">
</image>
<image style="overflow:visible;enable-background:new    ;" width="4500" height="8000" xlink:href="4EF7885A8DF545C9.png"  transform="matrix(2.809423e-02 0 0 2.809423e-02 206.1272 723.8917)">
</image>
<image style="overflow:visible;enable-background:new    ;" width="4501" height="8000" xlink:href="4EF7885A8DF545E0.png"  transform="matrix(2.809423e-02 0 0 2.809423e-02 625.444 723.8917)">
</image>
<image style="overflow:visible;enable-background:new    ;" width="4501" height="8000" xlink:href="4EF7885A8DF545E1.png"  transform="matrix(2.809423e-02 0 0 2.809423e-02 347.0177 723.8917)">
</image>
<image style="overflow:visible;enable-background:new    ;" width="4501" height="8000" xlink:href="4EF7885A8DF545E2.png"  transform="matrix(2.832089e-02 0 0 2.832089e-02 763.8186 723.8917)">
</image>
<image style="overflow:visible;enable-background:new    ;" width="4500" height="8000" xlink:href="4EF7885A8DF545E7.png"  transform="matrix(2.851355e-02 0 0 2.851355e-02 901.3546 723.8917)">
</image>
<image style="overflow:visible;enable-background:new    ;" width="4501" height="8000" xlink:href="4EF7885A8DF545F8.png"  transform="matrix(2.813457e-02 0 0 2.813457e-02 1041.4064 723.8917)">
</image>
<image style="overflow:visible;enable-background:new    ;" width="4501" height="8000" xlink:href="4EF7885A8DF545A8.png"  transform="matrix(2.809423e-02 0 0 2.809423e-02 1181.4581 723.8917)">
</image>
<image style="overflow:visible;enable-background:new    ;" width="4500" height="8000" xlink:href="4EF7885A8DF545A9.png"  transform="matrix(2.809423e-02 0 0 2.809423e-02 1319.8328 723.8917)">
</image>
<image style="overflow:visible;enable-background:new    ;" width="4500" height="8000" xlink:href="4EF7885A8DF545AA.png"  transform="matrix(2.814082e-02 0 0 2.814082e-02 486.2309 723.8917)">
</image>
<image style="overflow:visible;enable-background:new    ;" width="4500" height="8000" xlink:href="4EF7885A8DF545FC.png"  transform="matrix(2.809423e-02 0 0 2.809423e-02 1456.53 246.7091)">
</image>
<image style="overflow:visible;enable-background:new    ;" width="4501" height="8000" xlink:href="4EF7885A8DF545AC.png"  transform="matrix(2.809423e-02 0 0 2.809423e-02 1595.7433 246.7091)">
</image>
<image style="overflow:visible;enable-background:new    ;" width="4501" height="8000" xlink:href="4EF7885A8DF545AD.png"  transform="matrix(2.809423e-02 0 0 2.809423e-02 203.6113 485.7197)">
</image>
<image style="overflow:visible;enable-background:new    ;" width="4500" height="8000" xlink:href="4EF7885A8DF545AE.png"  transform="matrix(2.809423e-02 0 0 2.809423e-02 341.9859 485.7197)">
</image>
<image style="overflow:visible;enable-background:new    ;" width="4501" height="8000" xlink:href="4EF7885A8DF545AF.png"  transform="matrix(2.809423e-02 0 0 2.809423e-02 480.3604 485.7197)">
</image>
<image style="overflow:visible;enable-background:new    ;" width="4500" height="8000" xlink:href="4EF7885A8DF545B2.png"  transform="matrix(2.814082e-02 0 0 2.814082e-02 621.2509 485.7197)">
</image>
<image style="overflow:visible;enable-background:new    ;" width="4500" height="8000" xlink:href="4EF7885A8DF545B3.png"  transform="matrix(2.809423e-02 0 0 2.809423e-02 757.9482 247.5477)">
</image>
<image style="overflow:visible;enable-background:new    ;" width="4501" height="8000" xlink:href="4EF7885A8DF54629.png"  transform="matrix(2.813457e-02 0 0 2.813457e-02 1038.8905 246.7091)">
</image>
<image style="overflow:visible;enable-background:new    ;" width="4500" height="8000" xlink:href="4EF7885A8DF54628.png"  transform="matrix(2.819906e-02 0 0 2.819906e-02 1178.1036 246.7091)">
</image>
<image style="overflow:visible;enable-background:new    ;" width="4501" height="8000" xlink:href="4EF7885A8DF54627.png"  transform="matrix(2.813457e-02 0 0 2.813457e-02 1457.3687 723.8917)">
</image>
<image style="overflow:visible;enable-background:new    ;" width="4500" height="8000" xlink:href="4EF7885A8DF54634.png"  transform="matrix(2.814082e-02 0 0 2.814082e-02 1594.9045 723.8917)">
</image>
</svg>
